<svg width="16" height="16" viewBox="0 0 16 16" fill="none" xmlns="http://www.w3.org/2000/svg">
<path d="M3.92636 4.37691C3.83497 4.4531 3.86595 4.44989 3.73941 4.4925L3.72887 4.67162L3.49403 4.74601C3.46855 4.83104 3.44109 4.9983 3.37826 5.06645C3.21108 5.24798 2.84993 5.46087 2.7603 5.76463C2.34928 5.76403 2.25987 6.03662 2.12696 5.71678C1.92815 5.77126 1.62894 6.11844 1.634 6.33636C1.77899 6.45758 1.81897 6.3635 1.96879 6.51045L1.88575 6.71028L1.98614 6.86548L2.1665 6.85201C2.17507 7.06972 2.26448 7.18411 2.36795 7.31941L2.26514 7.5725C2.10543 7.56265 2.19879 7.54757 2.04568 7.50777C1.82138 7.58034 1.98988 7.60125 1.72956 7.57753C1.58764 7.56466 1.44397 7.56969 1.30162 7.57492L1.25241 7.69573L1.06217 7.71865L1 7.8847C1.16806 7.86541 1.00022 7.89254 1.09754 7.81253C1.16498 7.75725 1.10237 7.78198 1.22649 7.77876L1.12676 7.94521C1.25153 8.04352 1.20957 8.03688 1.29898 8.13197C1.59402 8.44578 1.82204 8.17942 2.09335 8.1561C2.03403 8.26948 2.00152 8.36637 1.86818 8.41965C1.76427 8.46126 1.60478 8.49725 1.47868 8.51433C1.42223 8.43111 1.52855 8.4693 1.37895 8.45624C1.43585 8.67817 2.02569 9.17231 2.22516 9.2678L2.84334 9.0533C2.8842 8.90896 2.9367 8.56359 3.06346 8.51655C3.13222 8.52137 3.12321 8.50328 3.10607 8.56017L3.07708 8.61465C3.14474 8.78995 3.20054 8.76964 3.15067 9.00364C3.18538 9.04606 3.15155 9.00726 3.19592 9.0545C3.33081 9.19804 3.13903 9.36831 3.15045 9.6196L3.24777 10.042L3.27808 10.0667C3.23305 10.2024 3.3888 11.0129 3.43384 11.2011C3.46371 11.326 3.74073 11.8131 3.83783 11.9359C4.04587 12.199 3.90461 12.1632 4.03576 12.3711C4.284 12.7643 3.93163 12.5565 4.43778 13.2985C4.68184 13.6565 4.5698 13.4693 4.75258 13.8857C4.79717 13.9872 4.87428 14.1177 4.88658 14.2242C4.9404 14.6916 5.01839 14.6016 5.39932 15C5.96082 14.9483 5.47598 14.5423 6.16776 14.4753C6.11086 14.219 6.17984 14.3728 6.28375 14.1179L6.3167 14.0443C6.31868 14.031 6.32724 14.0288 6.33186 14.0091L6.57614 14.0019C6.61503 13.7226 6.46103 13.4378 6.60931 13.1783C6.72311 12.979 6.72662 13.1541 6.78638 12.8554C6.82724 12.6514 6.81252 12.6735 6.70356 12.5376L6.74398 12.4608C6.76902 12.3034 6.70597 12.1202 6.68884 11.955C6.65918 11.6711 6.74705 11.7781 6.79516 11.5308L7.11875 11.5075C7.20509 11.3213 7.26067 11.3034 7.51308 11.2588C7.65433 11.2339 7.55855 11.2648 7.64093 11.2077C7.7868 11.1068 7.77362 10.9695 7.8125 10.9211C7.89159 10.8222 8.16487 10.7474 8.24396 10.6555C8.53855 10.3132 8.5135 10.5021 8.96912 10.0229C9.0638 9.92316 9.14025 9.75449 9.23779 9.64996C9.40892 9.6968 9.24196 9.66906 9.36476 9.70203C9.5069 9.74022 9.62882 9.65901 9.69868 9.56774L9.71449 9.55487L9.73031 9.50843L10.0045 9.26297L9.9434 8.9747C10.1539 8.90092 10.3347 8.77527 10.5306 8.67898L10.6051 8.67576L10.6106 8.77688C10.9601 8.88524 10.7415 8.7612 11.0157 8.78472L11.0025 8.61445L11.0223 8.55454C10.984 8.5079 11.0014 8.56841 10.9717 8.45603C10.9708 8.45221 10.9592 8.35914 10.9581 8.35029C10.9429 8.22987 10.9443 8.2152 10.9594 8.09579L10.8518 7.92732L10.776 7.91184C10.7641 7.65191 10.8307 7.81756 10.848 7.56044C10.7226 7.50134 10.6426 7.49732 10.517 7.39439C10.5394 7.32946 10.5075 7.37348 10.5442 7.31237C10.5754 7.2603 10.5607 7.28483 10.5956 7.25869C10.836 7.07837 10.7028 7.13787 10.9379 7.08862C10.8496 6.95152 10.8083 6.8898 10.5469 6.8305C10.5611 6.68455 10.6187 6.65279 10.7028 6.57217L10.6936 6.50744C10.7257 6.45638 10.6207 6.37838 10.9407 6.56956C11.4539 6.87613 11.1132 6.64213 11.3382 6.69239C11.3575 6.72254 11.3524 6.66143 11.3773 6.76697C11.3867 6.80738 11.3832 6.82346 11.3819 6.86286C11.3799 6.91573 11.3671 6.96941 11.3621 7.0263C11.669 7.28764 12.2837 6.98248 12.6369 7.2209C12.5958 7.33428 12.4377 7.54235 12.3529 7.60447L12.1079 7.67101C12.0468 7.75685 12.0853 7.71423 12.0486 7.78881C12.0411 7.80409 12.0268 7.82319 12.0124 7.84892C12.0545 7.96592 12.0236 7.89878 12.0809 7.9629L12.0765 8.00794L12.1264 8.09036L12.1907 8.09177C12.2296 8.22686 12.1984 8.12996 12.2496 8.16655C12.3621 8.07609 12.3805 8.01839 12.4001 7.8451L12.5503 7.8455C12.5613 8.16253 12.694 8.30566 12.7019 8.62872C12.8186 8.5863 12.7582 8.61063 12.8887 8.65124L12.9939 8.52318C13.0429 8.37803 12.8794 8.25601 13.0475 8.14323C13.14 8.08111 13.0846 7.77233 13.0721 7.67201L13.4543 7.76348C13.5523 7.56748 13.6463 7.40987 13.7377 7.18833C13.6971 7.10651 13.6868 7.13245 13.672 7.0261C13.9381 6.74747 13.9275 6.90327 13.9181 6.40692C14.2992 6.36129 14.1428 6.12407 14.6942 6.06015C14.8018 6.14719 14.7283 6.11302 14.8548 6.149L14.7676 5.92606C14.8524 5.86153 14.9321 5.8171 15 5.76182L14.9692 5.60561L14.5327 5.50671C14.5264 5.40257 14.5727 5.39453 14.6153 5.30789C14.5497 5.19712 14.569 5.19551 14.4176 5.23672C14.4552 5.08173 14.4811 5.16314 14.4038 5.0176C14.1182 5.06826 14.0007 5.28618 13.7021 5.08836C13.5189 5.15591 13.5424 5.18144 13.4238 5.28055C13.2913 5.39111 13.2006 5.3694 13.0492 5.42368C12.823 5.75036 12.7582 5.78353 12.2435 5.88243C12.2832 6.03361 12.3144 5.99039 12.4803 6.06959C12.3553 6.24851 12.6982 6.30158 12.0326 6.33636C11.808 6.34802 11.7169 6.28972 11.6169 6.29012C11.2419 6.29133 11.1653 6.49055 10.8832 6.15845C10.9135 6.07341 10.9087 6.05673 10.9102 5.95682C10.9113 5.88505 10.9295 5.6993 10.8296 5.7011L10.586 5.75036C10.5293 5.84263 10.508 6.0127 10.5304 6.13794C10.5737 6.38139 10.5728 6.28048 10.5407 6.54905C10.448 6.47387 10.3623 6.50664 10.2408 6.52071C10.0539 6.54242 10.0469 6.42461 10.0192 6.45899L9.80522 6.48774C9.75601 6.42421 9.77974 6.45095 9.65562 6.43446L9.45066 6.42562L9.34433 6.30058C9.08313 6.32611 8.94034 6.28651 8.9008 6.12005L8.88366 6.07944C8.83555 6.06477 8.79601 6.05753 8.75361 6.04245C8.61016 5.99159 8.35599 5.93149 8.24593 6.06638C8.08403 5.96466 8.0357 5.88585 7.78636 5.89811C7.66356 5.68784 7.64005 5.82675 7.49814 5.76664C7.43136 5.73829 7.29735 5.64944 7.21717 5.60139C7.14204 5.55636 6.95311 5.42931 6.92302 5.41865C6.83668 5.3881 6.86327 5.47313 6.69323 5.27592C6.77188 5.11349 6.81142 5.08896 6.84393 4.85376C6.87952 4.79606 7.09591 4.68952 7.1383 4.59443C6.69741 4.39199 7.04143 4.63805 6.69433 4.32846C6.64337 4.28303 6.64688 4.28162 6.59526 4.22172C6.387 4.21267 6.41973 4.25046 6.22619 4.03998C6.14843 4.05446 6.15985 4.05385 6.08076 4.07155C6.05902 3.95374 6.08735 3.84559 6.0678 3.76055C6.0555 3.70768 5.81012 3.44553 5.96258 3.37578C6.08977 3.31768 6.02848 3.39427 6.11965 3.48735C6.28177 3.48735 6.33493 3.4397 6.43401 3.36251C6.39557 3.22581 6.36745 3.30501 6.36195 3.08046L6.19851 3.04588C6.06033 2.74132 6.24838 3.06981 6.14425 2.67076L6.37492 2.61688L6.55549 2.367C6.56142 2.36278 6.56867 2.35595 6.5746 2.35172C6.58076 2.3473 6.5891 2.34127 6.59526 2.33705C6.73651 2.24096 6.74002 2.16456 6.82372 1.90363C6.70136 1.83226 6.7721 1.90785 6.6772 1.84995C6.65435 1.83608 6.6315 1.79487 6.56736 1.75245C6.50189 1.70923 6.49772 1.72069 6.43818 1.67767C6.38502 1.63927 6.38898 1.63505 6.33208 1.59545C6.1225 1.60007 5.97861 1.63686 5.85559 1.72792C5.6291 1.89558 5.77497 1.83507 5.49971 1.85357L4.87099 1.65837C4.53971 1.508 4.93337 1.14815 4.46414 1.18594L4.41888 1.0595C4.3231 1.04361 4.27499 1.05668 4.21744 1.04623C3.98458 1.00401 4.22337 0.953553 3.94591 1.08201C3.82223 1.13931 3.84793 1.08241 3.70251 1.15237C3.69504 1.15599 3.68911 1.16363 3.68164 1.16725C3.55246 1.22897 3.55334 1.19841 3.35871 1.19439C3.2425 1.40165 3.26864 1.36024 3.06675 1.47141L3.09223 1.6648C3.54478 1.61997 3.22426 1.81336 3.66274 1.8405C3.62979 1.96514 3.65615 1.94423 3.65879 1.98846L3.80554 2.03872C3.77961 2.19432 3.76731 2.20216 3.58915 2.34207L3.51007 2.4048C3.50677 2.39877 3.49623 2.41666 3.48722 2.42269L3.60365 3.13052C4.02324 3.28933 3.83278 3.35105 4.06717 3.26039L4.10716 3.46101L4.30729 3.43991C4.36221 3.49318 4.40614 3.51851 4.447 3.58606C4.22556 3.69843 4.01819 3.65079 4.03378 4.10532C4.03796 4.22956 4.11836 4.02692 3.98963 4.30374C3.90681 4.35138 3.9525 4.32364 3.92636 4.37691Z" fill="#19486D" stroke="#AEAEAE" stroke-width="0.2"/>
</svg>
