<svg width="47" height="47" viewBox="0 0 47 47" fill="none" xmlns="http://www.w3.org/2000/svg">
<circle r="23.5" transform="matrix(-1 0 0 1 23.5 23.5)" fill="#F7F7F7"/>
<path d="M33.15 23.5028L33.15 23.5028C33.1481 23.616 33.1364 23.737 33.0909 23.8608C33.0451 23.9853 32.9681 24.1048 32.8461 24.2215L25.4787 31.8246L33.15 23.5028ZM33.15 23.5028V23.5002M33.15 23.5028V23.5002M33.15 23.5002C33.15 23.3692 33.1102 23.2277 33.0567 23.1051C33.0032 22.9824 32.9294 22.8637 32.8481 22.7804C32.8479 22.7803 32.8478 22.7801 32.8476 22.7799L25.4785 15.1748L25.4785 15.1748M33.15 23.5002L25.4785 15.1748M25.4785 15.1748L25.477 15.1733M25.4785 15.1748L25.477 15.1733M25.477 15.1733C25.0782 14.773 24.4312 14.7278 23.9695 15.1313L23.9694 15.1313M25.477 15.1733L23.9694 15.1313M23.9694 15.1313C23.5427 15.5046 23.5364 16.2156 23.9248 16.6143M23.9694 15.1313L23.9248 16.6143M23.9248 16.6143L29.5934 22.4553H14.9211C14.3335 22.4553 13.85 22.9191 13.85 23.5C13.85 24.0812 14.3339 24.5446 14.9211 24.5446H29.5934L23.9248 30.3856L23.9248 16.6143ZM23.9647 31.8639C23.563 31.4807 23.5323 30.7888 23.9246 30.3858L23.9647 31.8639ZM23.9647 31.8639C24.3902 32.2702 25.0853 32.2318 25.4785 31.8248L23.9647 31.8639Z" fill="#19486D" stroke="#19486D" stroke-width="0.3"/>
</svg>
