<svg width="129" height="52" viewBox="0 0 129 52" fill="none" xmlns="http://www.w3.org/2000/svg">
<path d="M7.01546 48.3985C6.92691 48.599 6.80824 48.775 6.65416 48.9249C6.50184 49.0748 6.32296 49.1933 6.11928 49.2804C5.91561 49.3658 5.69599 49.4094 5.46398 49.4094H4.97692C4.74491 49.4094 4.52529 49.3658 4.31984 49.2804C4.1144 49.195 3.93551 49.0748 3.78143 48.9249C3.62911 48.775 3.50868 48.599 3.42012 48.3985C3.33157 48.1981 3.28906 47.982 3.28906 47.7537V44.1303C3.28906 43.902 3.33334 43.6859 3.42012 43.4855C3.50691 43.285 3.62734 43.109 3.78143 42.9591C3.93374 42.8092 4.1144 42.6907 4.31984 42.6036C4.52529 42.5182 4.74491 42.4746 4.97692 42.4746H5.46398C5.69599 42.4746 5.91561 42.5182 6.11928 42.6036C6.32296 42.6907 6.50184 42.8092 6.65416 42.9591C6.80647 43.109 6.92691 43.285 7.01546 43.4855C7.10225 43.6859 7.14652 43.902 7.14652 44.1303V47.7537C7.14652 47.982 7.10225 48.1981 7.01546 48.3985ZM6.53018 44.1303C6.53018 43.9804 6.50184 43.8393 6.4434 43.7085C6.38495 43.5778 6.30702 43.4645 6.20961 43.3669C6.11043 43.2693 5.99531 43.1927 5.86247 43.1369C5.72964 43.0811 5.58795 43.0515 5.43387 43.0515H5.00349C4.85117 43.0515 4.70772 43.0794 4.57488 43.1369C4.44205 43.1927 4.32693 43.2693 4.22598 43.3669C4.12502 43.4645 4.04709 43.5778 3.98865 43.7085C3.9302 43.8393 3.90186 43.9787 3.90186 44.1303V47.7537C3.90186 47.9036 3.9302 48.0447 3.98865 48.1755C4.04709 48.3062 4.12502 48.4195 4.22598 48.5188C4.32693 48.6181 4.44205 48.6948 4.57488 48.7523C4.70772 48.8081 4.8494 48.8377 5.00349 48.8377H5.43387C5.58618 48.8377 5.72964 48.8098 5.86247 48.7523C5.99531 48.6966 6.11043 48.6181 6.20961 48.5188C6.30879 48.4195 6.38672 48.3062 6.4434 48.1755C6.50007 48.0447 6.53018 47.9053 6.53018 47.7537V44.1303Z" fill="#606161"/>
<path d="M11.3862 48.5448C11.3118 48.7173 11.2091 48.8672 11.078 48.9962C10.947 49.1252 10.7947 49.2263 10.6193 49.2995C10.444 49.3727 10.258 49.4093 10.0597 49.4093H9.91088C9.69126 49.4093 9.48759 49.3657 9.29808 49.2768C9.10857 49.1879 8.94917 49.0659 8.81457 48.9108V51.2445H8.22656V44.4962H8.42315L8.74372 44.9859C8.87833 44.8064 9.04481 44.6652 9.24849 44.5607C9.45039 44.4561 9.67178 44.4038 9.91088 44.4038H10.0597C10.258 44.4038 10.444 44.4404 10.6193 44.5136C10.7947 44.5868 10.947 44.6879 11.078 44.8169C11.2091 44.9458 11.3118 45.0957 11.3862 45.2683C11.4606 45.4408 11.4978 45.6238 11.4978 45.819V47.9923C11.4978 48.1875 11.4606 48.3705 11.3862 48.5431V48.5448ZM10.9098 45.7876C10.9098 45.6709 10.8868 45.5628 10.8425 45.46C10.7982 45.3589 10.738 45.27 10.6601 45.1933C10.5839 45.1184 10.4936 45.0591 10.3891 45.0138C10.2846 44.9702 10.1748 44.9476 10.0561 44.9476H9.6647C9.54603 44.9476 9.43622 44.9702 9.33173 45.0138C9.22723 45.0574 9.13868 45.1166 9.06075 45.1933C8.98459 45.2683 8.92438 45.3571 8.87833 45.46C8.83405 45.5611 8.81103 45.6709 8.81103 45.7876V48.0272C8.81103 48.144 8.83405 48.252 8.87833 48.3548C8.92261 48.4577 8.98282 48.5448 9.06075 48.6215C9.13691 48.6964 9.22723 48.7557 9.33173 48.801C9.43622 48.8463 9.54603 48.8672 9.6647 48.8672H10.0561C10.1748 48.8672 10.2846 48.8446 10.3891 48.801C10.4918 48.7574 10.5821 48.6982 10.6601 48.6215C10.738 48.5448 10.7964 48.4577 10.8425 48.3548C10.8868 48.2538 10.9098 48.144 10.9098 48.0272V45.7876Z" fill="#606161"/>
<path d="M15.6366 48.545C15.5622 48.7176 15.4595 48.8674 15.3284 48.9964C15.1973 49.1254 15.045 49.2265 14.8697 49.2997C14.6943 49.3729 14.5084 49.4095 14.31 49.4095H13.9186C13.7202 49.4095 13.5343 49.3729 13.3589 49.2997C13.1836 49.2265 13.0313 49.1254 12.9002 48.9964C12.7692 48.8674 12.6664 48.7176 12.592 48.545C12.5177 48.3725 12.4805 48.1895 12.4805 47.9943V45.821C12.4805 45.6258 12.5177 45.4428 12.592 45.2702C12.6664 45.0977 12.7692 44.9478 12.9002 44.8188C13.0313 44.6898 13.1836 44.5888 13.3589 44.5156C13.5343 44.4424 13.7202 44.4058 13.9186 44.4058H14.31C14.5084 44.4058 14.6943 44.4424 14.8697 44.5156C15.045 44.5888 15.1973 44.6898 15.3284 44.8188C15.4595 44.9478 15.5622 45.0977 15.6366 45.2702C15.711 45.4428 15.7482 45.6258 15.7482 45.821V46.9555H13.0649V48.0291C13.0649 48.1459 13.088 48.254 13.1322 48.3568C13.1765 48.4596 13.2367 48.5468 13.3147 48.6234C13.3908 48.6984 13.4811 48.7576 13.5856 48.803C13.6901 48.8483 13.7999 48.8692 13.9186 48.8692H14.31C14.4287 48.8692 14.5385 48.8465 14.643 48.803C14.7457 48.7594 14.836 48.7001 14.914 48.6234C14.9919 48.5468 15.0503 48.4596 15.0964 48.3568C15.1407 48.2557 15.1637 48.1459 15.1637 48.0291V47.7085L15.7517 47.8026V47.996C15.7517 48.1912 15.7145 48.3742 15.6401 48.5468L15.6366 48.545ZM15.1601 45.7878C15.1601 45.6711 15.1371 45.563 15.0928 45.4602C15.0486 45.3591 14.9883 45.2702 14.9104 45.1935C14.8343 45.1186 14.7439 45.0593 14.6394 45.014C14.5349 44.9704 14.4251 44.9478 14.3065 44.9478H13.9151C13.7964 44.9478 13.6866 44.9704 13.5821 45.014C13.4776 45.0576 13.389 45.1168 13.3111 45.1935C13.235 45.2685 13.1747 45.3574 13.1287 45.4602C13.0844 45.5613 13.0614 45.6711 13.0614 45.7878V46.5024H15.1548V45.7878H15.1601Z" fill="#606161"/>
<path d="M19.4133 49.3171V45.7878C19.4133 45.6711 19.3903 45.563 19.346 45.4602C19.3017 45.3591 19.2415 45.2702 19.1636 45.1935C19.0874 45.1186 18.9971 45.0593 18.8926 45.014C18.7881 44.9704 18.6783 44.9478 18.5597 44.9478H18.1682C18.0496 44.9478 17.9398 44.9704 17.8353 45.014C17.7308 45.0576 17.6422 45.1168 17.5643 45.1935C17.4881 45.2685 17.4279 45.3574 17.3819 45.4602C17.3376 45.5613 17.3146 45.6711 17.3146 45.7878V49.3171H16.7266V44.4981H16.9232L17.2437 44.9879C17.3783 44.8084 17.5448 44.6672 17.7485 44.5626C17.9504 44.458 18.1718 44.4058 18.4109 44.4058H18.5597C18.758 44.4058 18.944 44.4424 19.1193 44.5156C19.2947 44.5888 19.447 44.6898 19.578 44.8188C19.7091 44.9478 19.8118 45.0977 19.8862 45.2702C19.9606 45.4428 19.9978 45.6258 19.9978 45.821V49.3171H19.4098H19.4133Z" fill="#606161"/>
<path d="M26.766 49.3169L23.9074 44.4038L23.8507 44.1127V49.3169H23.2344V42.5703H23.5549L26.4135 47.4869L26.4755 47.7744V42.5703H27.0918V49.3169H26.766Z" fill="#606161"/>
<path d="M31.3319 48.545C31.2575 48.7176 31.1548 48.8674 31.0237 48.9964C30.8927 49.1254 30.7403 49.2265 30.565 49.2997C30.3897 49.3729 30.2037 49.4095 30.0053 49.4095H29.6139C29.4156 49.4095 29.2296 49.3729 29.0542 49.2997C28.8789 49.2265 28.7266 49.1254 28.5955 48.9964C28.4645 48.8674 28.3617 48.7176 28.2874 48.545C28.213 48.3725 28.1758 48.1895 28.1758 47.9943V45.821C28.1758 45.6258 28.213 45.4428 28.2874 45.2702C28.3617 45.0977 28.4645 44.9478 28.5955 44.8188C28.7266 44.6898 28.8789 44.5888 29.0542 44.5156C29.2296 44.4424 29.4156 44.4058 29.6139 44.4058H30.0053C30.2037 44.4058 30.3897 44.4424 30.565 44.5156C30.7403 44.5888 30.8927 44.6898 31.0237 44.8188C31.1548 44.9478 31.2575 45.0977 31.3319 45.2702C31.4063 45.4428 31.4435 45.6258 31.4435 45.821V46.9555H28.7602V48.0291C28.7602 48.1459 28.7833 48.254 28.8275 48.3568C28.8718 48.4596 28.932 48.5468 29.01 48.6234C29.0861 48.6984 29.1765 48.7576 29.2809 48.803C29.3854 48.8483 29.4953 48.8692 29.6139 48.8692H30.0053C30.124 48.8692 30.2338 48.8465 30.3383 48.803C30.441 48.7594 30.5313 48.7001 30.6093 48.6234C30.6872 48.5468 30.7457 48.4596 30.7917 48.3568C30.836 48.2557 30.859 48.1459 30.859 48.0291V47.7085L31.447 47.8026V47.996C31.447 48.1912 31.4098 48.3742 31.3354 48.5468L31.3319 48.545ZM30.8555 45.7878C30.8555 45.6711 30.8324 45.563 30.7882 45.4602C30.7439 45.3591 30.6837 45.2702 30.6057 45.1935C30.5296 45.1186 30.4393 45.0593 30.3348 45.014C30.2303 44.9704 30.1205 44.9478 30.0018 44.9478H29.6104C29.4917 44.9478 29.3819 44.9704 29.2774 45.014C29.1729 45.0576 29.0844 45.1168 29.0064 45.1935C28.9303 45.2685 28.8701 45.3574 28.824 45.4602C28.7797 45.5613 28.7567 45.6711 28.7567 45.7878V46.5024H30.8501V45.7878H30.8555Z" fill="#606161"/>
<path d="M34.2079 49.3169C34.0291 49.3169 33.8608 49.2838 33.7032 49.2176C33.5455 49.1513 33.4092 49.0607 33.2923 48.9439C33.1754 48.8272 33.0833 48.693 33.0142 48.5396C32.9451 48.3862 32.9115 48.2207 32.9115 48.0464V45.0487H32.0312V44.4979H32.9115V43.3407L33.4995 43.2466V44.4979H34.7428V45.0487H33.4995V48.0743C33.4995 48.1719 33.5172 48.2625 33.5544 48.3444C33.5916 48.4281 33.6412 48.5013 33.7049 48.5623C33.7687 48.625 33.8431 48.6738 33.9299 48.7104C34.0167 48.747 34.1088 48.7644 34.2079 48.7644H34.7428V49.3152H34.2079V49.3169Z" fill="#606161"/>
<path d="M39.7483 49.317H39.4277L38.2801 45.6849L38.2606 45.4357L38.2411 45.6849L37.0934 49.317H36.7675L35.1328 44.498H35.7297L36.8968 48.1406L36.9163 48.3898L36.9358 48.1406L38.0835 44.498H38.4377L39.5801 48.1406L39.5995 48.3898L39.619 48.1406L40.7862 44.498H41.383L39.7483 49.317Z" fill="#606161"/>
<path d="M45.035 48.545C44.9606 48.7176 44.8579 48.8674 44.7268 48.9964C44.5958 49.1254 44.4435 49.2265 44.2681 49.2997C44.0928 49.3729 43.9068 49.4095 43.7085 49.4095H43.317C43.1187 49.4095 42.9327 49.3729 42.7574 49.2997C42.582 49.2265 42.4297 49.1254 42.2987 48.9964C42.1676 48.8674 42.0649 48.7176 41.9905 48.545C41.9161 48.3725 41.8789 48.1895 41.8789 47.9943V45.821C41.8789 45.6258 41.9161 45.4428 41.9905 45.2702C42.0649 45.0977 42.1676 44.9478 42.2987 44.8188C42.4297 44.6898 42.582 44.5888 42.7574 44.5156C42.9327 44.4424 43.1187 44.4058 43.317 44.4058H43.7085C43.9068 44.4058 44.0928 44.4424 44.2681 44.5156C44.4435 44.5888 44.5958 44.6898 44.7268 44.8188C44.8579 44.9478 44.9606 45.0977 45.035 45.2702C45.1094 45.4428 45.1466 45.6258 45.1466 45.821V47.9943C45.1466 48.1895 45.1094 48.3725 45.035 48.545ZM44.5586 45.7878C44.5586 45.6711 44.5356 45.563 44.4913 45.4602C44.447 45.3591 44.3868 45.2702 44.3089 45.1935C44.2327 45.1186 44.1424 45.0593 44.0379 45.014C43.9334 44.9704 43.8236 44.9478 43.7049 44.9478H43.3135C43.1948 44.9478 43.085 44.9704 42.9805 45.014C42.876 45.0576 42.7875 45.1168 42.7096 45.1935C42.6334 45.2685 42.5732 45.3574 42.5271 45.4602C42.4829 45.5613 42.4598 45.6711 42.4598 45.7878V48.0274C42.4598 48.1442 42.4829 48.2522 42.5271 48.355C42.5714 48.4579 42.6316 48.545 42.7096 48.6217C42.7857 48.6966 42.876 48.7559 42.9805 48.8012C43.085 48.8465 43.1948 48.8674 43.3135 48.8674H43.7049C43.8236 48.8674 43.9334 48.8448 44.0379 48.8012C44.1406 48.7576 44.2309 48.6984 44.3089 48.6217C44.3868 48.545 44.4452 48.4579 44.4913 48.355C44.5356 48.254 44.5586 48.1442 44.5586 48.0274V45.7878Z" fill="#606161"/>
<path d="M47.5666 45.0486C47.4479 45.0486 47.3381 45.0712 47.2336 45.1148C47.1291 45.1584 47.0405 45.2177 46.9626 45.2943C46.8865 45.3693 46.8262 45.4582 46.7802 45.561C46.7359 45.6621 46.7129 45.7719 46.7129 45.8886V49.3186H46.1249V44.4996H46.3215L46.642 44.9893C46.7766 44.8098 46.9431 44.6687 47.1468 44.5641C47.3487 44.4595 47.5701 44.4072 47.8092 44.4072H48.1528V45.0521H47.5648L47.5666 45.0486Z" fill="#606161"/>
<path d="M48.9375 49.3169V42.5703H49.5255V49.3169H48.9375ZM51.6384 49.3169L49.6406 46.9082L51.6384 44.4996H52.4035L50.3579 46.9082L52.4035 49.3169H51.6384Z" fill="#606161"/>
<path d="M56.7335 43.1194C56.6343 43.1194 56.5422 43.1368 56.459 43.1734C56.374 43.21 56.2996 43.2588 56.2358 43.3215C56.1721 43.3843 56.1225 43.4575 56.0853 43.5429C56.0481 43.6283 56.0304 43.7189 56.0304 43.8165V44.498H57.1727V45.0487H56.0304V49.3169H55.4424V45.0487H54.5586V44.498H55.4424V43.8444C55.4424 43.6684 55.476 43.5028 55.5433 43.3477C55.6106 43.1926 55.7027 43.0566 55.8214 42.9399C55.9401 42.8231 56.0764 42.7325 56.2323 42.6662C56.3881 42.6 56.5564 42.5669 56.7335 42.5669H57.2737V43.1176H56.7335V43.1194Z" fill="#606161"/>
<path d="M60.8241 48.545C60.7497 48.7176 60.647 48.8674 60.5159 48.9964C60.3848 49.1254 60.2325 49.2265 60.0572 49.2997C59.8818 49.3729 59.6959 49.4095 59.4975 49.4095H59.1061C58.9077 49.4095 58.7218 49.3729 58.5464 49.2997C58.3711 49.2265 58.2188 49.1254 58.0877 48.9964C57.9567 48.8674 57.8539 48.7176 57.7795 48.545C57.7052 48.3725 57.668 48.1895 57.668 47.9943V45.821C57.668 45.6258 57.7052 45.4428 57.7795 45.2702C57.8539 45.0977 57.9567 44.9478 58.0877 44.8188C58.2188 44.6898 58.3711 44.5888 58.5464 44.5156C58.7218 44.4424 58.9077 44.4058 59.1061 44.4058H59.4975C59.6959 44.4058 59.8818 44.4424 60.0572 44.5156C60.2325 44.5888 60.3848 44.6898 60.5159 44.8188C60.647 44.9478 60.7497 45.0977 60.8241 45.2702C60.8985 45.4428 60.9357 45.6258 60.9357 45.821V47.9943C60.9357 48.1895 60.8985 48.3725 60.8241 48.545ZM60.3476 45.7878C60.3476 45.6711 60.3246 45.563 60.2803 45.4602C60.2361 45.3591 60.1758 45.2702 60.0979 45.1935C60.0218 45.1186 59.9314 45.0593 59.8269 45.014C59.7224 44.9704 59.6126 44.9478 59.494 44.9478H59.1026C58.9839 44.9478 58.8741 44.9704 58.7696 45.014C58.6651 45.0576 58.5765 45.1168 58.4986 45.1935C58.4225 45.2685 58.3622 45.3574 58.3162 45.4602C58.2719 45.5613 58.2489 45.6711 58.2489 45.7878V48.0274C58.2489 48.1442 58.2719 48.2522 58.3162 48.355C58.3605 48.4579 58.4207 48.545 58.4986 48.6217C58.5748 48.6966 58.6651 48.7559 58.7696 48.8012C58.8741 48.8465 58.9839 48.8674 59.1026 48.8674H59.494C59.6126 48.8674 59.7224 48.8448 59.8269 48.8012C59.9297 48.7576 60.02 48.6984 60.0979 48.6217C60.1758 48.545 60.2343 48.4579 60.2803 48.355C60.3246 48.254 60.3476 48.1442 60.3476 48.0274V45.7878Z" fill="#606161"/>
<path d="M63.3557 45.0486C63.2371 45.0486 63.1273 45.0712 63.0228 45.1148C62.9183 45.1584 62.8297 45.2177 62.7518 45.2943C62.6756 45.3693 62.6154 45.4582 62.5694 45.561C62.5251 45.6621 62.5021 45.7719 62.5021 45.8886V49.3186H61.9141V44.4996H62.1107L62.4312 44.9893C62.5658 44.8098 62.7323 44.6687 62.936 44.5641C63.1379 44.4595 63.3593 44.4072 63.5984 44.4072H63.942V45.0521H63.354L63.3557 45.0486Z" fill="#606161"/>
<path d="M70.5133 48.3045C70.4265 48.505 70.3061 48.681 70.152 48.8309C69.9979 48.9808 69.8191 49.0993 69.6136 49.1864C69.4082 49.2736 69.1885 49.3154 68.9565 49.3154H66.7852V42.5688H68.9565C69.1885 42.5688 69.4082 42.6124 69.6136 42.6978C69.8191 42.7832 69.9979 42.9017 70.152 43.0534C70.3043 43.2032 70.4248 43.381 70.5133 43.5832C70.6019 43.7854 70.6444 44.0015 70.6444 44.2298V47.6597C70.6444 47.888 70.6001 48.1041 70.5133 48.3045ZM70.028 44.2298C70.028 44.0799 69.9997 43.9387 69.9413 43.808C69.8846 43.6773 69.8049 43.564 69.7039 43.4647C69.603 43.3653 69.4879 43.2886 69.355 43.2311C69.2222 43.1736 69.0805 43.1457 68.9264 43.1457H67.4015V48.735H68.9264C69.0787 48.735 69.2222 48.7071 69.355 48.6496C69.4879 48.5921 69.603 48.5172 69.7039 48.4196C69.8049 48.322 69.8828 48.2087 69.9413 48.078C69.9979 47.9473 70.028 47.8078 70.028 47.6562V44.2263V44.2298Z" fill="#606161"/>
<path d="M71.6719 43.3404V42.5684H72.3555V43.3404H71.6719ZM71.7197 49.3167V44.4977H72.3077V49.3167H71.7197Z" fill="#606161"/>
<path d="M76.6901 50.4602C76.6157 50.624 76.513 50.7634 76.3819 50.8785C76.2508 50.9935 76.0985 51.0841 75.9232 51.1486C75.7478 51.2131 75.5619 51.2445 75.3635 51.2445H75.1191C74.9207 51.2445 74.7348 51.2114 74.5594 51.1486C74.3841 51.0841 74.2318 50.9935 74.1007 50.8785C73.9697 50.7634 73.8669 50.6223 73.7925 50.4602C73.7182 50.2964 73.681 50.1186 73.681 49.9234V49.9042C73.681 49.716 73.7164 49.5435 73.7855 49.3866C73.8563 49.2297 73.9519 49.0938 74.0724 48.977C73.9201 48.8864 73.7979 48.7627 73.7075 48.6075C73.6172 48.4524 73.5712 48.2799 73.5712 48.0917C73.5712 47.9226 73.6083 47.764 73.681 47.6194C73.7536 47.4747 73.8545 47.3544 73.9821 47.2638C73.8297 47.1314 73.7075 46.9745 73.619 46.788C73.5304 46.6033 73.4844 46.4011 73.4844 46.1815V45.819C73.4844 45.6238 73.5216 45.4408 73.5959 45.2683C73.6703 45.0957 73.7731 44.9458 73.9041 44.8169C74.0352 44.6879 74.1875 44.5868 74.3628 44.5136C74.5382 44.4404 74.7241 44.4038 74.9225 44.4038H75.1669C75.406 44.4038 75.6274 44.4561 75.8293 44.5607C76.0312 44.6652 76.1995 44.8081 76.3341 44.9859L76.6546 44.4962H76.8512V46.1815C76.8512 46.3767 76.814 46.5597 76.7397 46.7323C76.6653 46.9048 76.5625 47.0547 76.4315 47.1836C76.3004 47.3126 76.1481 47.4137 75.9728 47.4869C75.7974 47.5601 75.6115 47.5967 75.4131 47.5967H74.5612C74.4939 47.5967 74.4301 47.6106 74.3699 47.6368C74.3097 47.6629 74.2566 47.6995 74.2105 47.7431C74.1645 47.7867 74.1291 47.839 74.1025 47.9C74.0777 47.961 74.0635 48.0237 74.0635 48.0899C74.0635 48.1561 74.0759 48.2189 74.1025 48.2782C74.1273 48.3374 74.1645 48.3897 74.2105 48.435C74.2566 48.4803 74.3097 48.5152 74.3699 48.5413C74.4301 48.5675 74.4939 48.5797 74.5612 48.5797H75.3653C75.5636 48.5797 75.7496 48.6128 75.925 48.6755C76.1003 48.74 76.2526 48.8306 76.3837 48.9457C76.5147 49.0607 76.6175 49.2019 76.6918 49.3639C76.7662 49.5278 76.8034 49.7055 76.8034 49.9007V49.9199C76.8034 50.1151 76.7662 50.2929 76.6918 50.4567L76.6901 50.4602ZM76.2668 45.7876C76.2668 45.6709 76.2437 45.5628 76.1995 45.46C76.1552 45.3589 76.0932 45.27 76.0153 45.1933C75.9373 45.1184 75.847 45.0591 75.7425 45.0138C75.638 44.9685 75.5282 44.9476 75.4096 44.9476H74.9225C74.8038 44.9476 74.694 44.9702 74.5895 45.0138C74.485 45.0574 74.3965 45.1166 74.3203 45.1933C74.2442 45.27 74.184 45.3571 74.1379 45.46C74.0919 45.5628 74.0706 45.6709 74.0706 45.7876V46.2164C74.0706 46.3331 74.0936 46.4412 74.1379 46.544C74.1822 46.6468 74.2424 46.734 74.3203 46.8107C74.3983 46.8874 74.4868 46.9449 74.5895 46.9902C74.6923 47.0338 74.8038 47.0564 74.9225 47.0564H75.4096C75.5282 47.0564 75.638 47.0338 75.7425 46.9902C75.8453 46.9466 75.9373 46.8874 76.0153 46.8107C76.0932 46.7357 76.1552 46.6468 76.1995 46.544C76.2437 46.4429 76.2668 46.3331 76.2668 46.2164V45.7876ZM76.242 49.8763C76.242 49.7596 76.219 49.6567 76.1747 49.5626C76.1304 49.4703 76.0702 49.3918 75.9923 49.3291C75.9161 49.2663 75.8258 49.2175 75.723 49.1827C75.6186 49.1478 75.5087 49.1304 75.3901 49.1304H75.089C74.9703 49.1304 74.8605 49.1478 74.756 49.1827C74.6533 49.2175 74.563 49.2663 74.485 49.3291C74.4071 49.3918 74.3487 49.4703 74.3026 49.5626C74.2583 49.655 74.2353 49.7596 74.2353 49.8763V49.9513C74.2353 50.068 74.2583 50.1709 74.3026 50.2615C74.3469 50.3521 74.4071 50.4306 74.485 50.495C74.5612 50.5595 74.6515 50.6083 74.756 50.6432C74.8587 50.678 74.9703 50.6955 75.089 50.6955H75.3901C75.5087 50.6955 75.6186 50.678 75.723 50.6432C75.8258 50.6083 75.9161 50.5595 75.9923 50.495C76.0684 50.4306 76.1286 50.3539 76.1747 50.2615C76.219 50.1709 76.242 50.0663 76.242 49.9513V49.8763Z" fill="#606161"/>
<path d="M77.8828 43.3409V42.5688H78.5665V43.3409H77.8828ZM77.9306 49.3171V44.4982H78.5186V49.3171H77.9306Z" fill="#606161"/>
<path d="M81.4814 49.3169C81.3025 49.3169 81.1342 49.2838 80.9766 49.2176C80.819 49.1513 80.6826 49.0607 80.5657 48.9439C80.4488 48.8272 80.3567 48.693 80.2877 48.5396C80.2186 48.3862 80.1849 48.2207 80.1849 48.0464V45.0487H79.3047V44.4979H80.1849V43.3407L80.7729 43.2466V44.4979H82.0162V45.0487H80.7729V48.0743C80.7729 48.1719 80.7906 48.2625 80.8278 48.3444C80.865 48.4281 80.9146 48.5013 80.9784 48.5623C81.0421 48.6233 81.1165 48.6738 81.2033 48.7104C81.2901 48.747 81.3822 48.7644 81.4814 48.7644H82.0162V49.3152H81.4814V49.3169Z" fill="#606161"/>
<path d="M85.9747 49.3168L85.6488 48.8375C85.5142 49.0101 85.3478 49.1495 85.1458 49.2541C84.9457 49.3586 84.7243 49.4109 84.4852 49.4109H84.3364C84.1381 49.4109 83.9521 49.3743 83.7768 49.3011C83.6014 49.2279 83.4491 49.1268 83.3181 48.9979C83.187 48.8689 83.0843 48.719 83.0099 48.5465C82.9355 48.3739 82.8983 48.1909 82.8983 47.9957V47.9487C82.8983 47.7535 82.9355 47.5705 83.0099 47.3979C83.0843 47.2254 83.187 47.0755 83.3181 46.9465C83.4491 46.8176 83.6014 46.7165 83.7768 46.6433C83.9521 46.5701 84.1381 46.5335 84.3364 46.5335H85.5798V45.7893C85.5798 45.6725 85.5567 45.5645 85.5125 45.4616C85.4682 45.3606 85.408 45.2717 85.33 45.195C85.2539 45.1201 85.1636 45.0608 85.0591 45.0155C84.9546 44.9702 84.8448 44.9493 84.7261 44.9493H84.3825C84.2638 44.9493 84.154 44.9719 84.0495 45.0155C83.945 45.0591 83.8565 45.1183 83.7786 45.195C83.7024 45.2699 83.6422 45.3588 83.5961 45.4616C83.5501 45.5645 83.5288 45.6725 83.5288 45.7893V45.9636L82.9408 45.8695V45.8224C82.9408 45.6272 82.978 45.4442 83.0524 45.2717C83.1268 45.0991 83.2295 44.9493 83.3606 44.8203C83.4916 44.6913 83.6439 44.5902 83.8193 44.517C83.9946 44.4438 84.1806 44.4072 84.379 44.4072H84.7225C84.9209 44.4072 85.1069 44.4438 85.2822 44.517C85.4576 44.5902 85.6099 44.6913 85.7409 44.8203C85.872 44.9493 85.9747 45.0991 86.0491 45.2717C86.1235 45.4442 86.1607 45.6272 86.1607 45.8224V49.3186H85.9641L85.9747 49.3168ZM85.5833 46.9831H84.34C84.2213 46.9831 84.1115 47.0058 84.007 47.0494C83.9025 47.0929 83.814 47.1539 83.7378 47.2306C83.6617 47.3073 83.6014 47.3962 83.5554 47.499C83.5093 47.6019 83.4881 47.7099 83.4881 47.8267V48.0289C83.4881 48.1456 83.5111 48.2537 83.5554 48.3565C83.5997 48.4593 83.6599 48.5465 83.7378 48.6232C83.814 48.6981 83.9043 48.7574 84.007 48.8027C84.1097 48.848 84.2213 48.8689 84.34 48.8689H84.7314C84.8501 48.8689 84.9599 48.8462 85.0644 48.8027C85.1689 48.7591 85.2574 48.6998 85.3353 48.6232C85.4133 48.5465 85.4717 48.4593 85.5178 48.3565C85.562 48.2554 85.5851 48.1456 85.5851 48.0289V46.9849L85.5833 46.9831Z" fill="#606161"/>
<path d="M87.3477 49.3169V42.5703H87.9357V49.3169H87.3477Z" fill="#606161"/>
<path d="M94.992 48.3985C94.9052 48.599 94.7848 48.775 94.6307 48.9249C94.4766 49.0748 94.2995 49.1933 94.0958 49.2804C93.8922 49.3658 93.6743 49.4094 93.4405 49.4094H92.9535C92.7215 49.4094 92.5019 49.3658 92.2964 49.2804C92.091 49.195 91.9121 49.0748 91.758 48.9249C91.6057 48.775 91.4852 48.599 91.3967 48.3985C91.3081 48.1981 91.2656 47.982 91.2656 47.7537V44.1303C91.2656 43.902 91.3099 43.6859 91.3967 43.4855C91.4835 43.285 91.6057 43.109 91.758 42.9591C91.9103 42.8092 92.091 42.6907 92.2964 42.6036C92.5019 42.5182 92.7215 42.4746 92.9535 42.4746H93.4405C93.6726 42.4746 93.8922 42.5182 94.0958 42.6036C94.2995 42.6907 94.4784 42.8092 94.6307 42.9591C94.783 43.109 94.9035 43.285 94.992 43.4855C95.0788 43.6859 95.1231 43.902 95.1231 44.1303V44.4039L94.5067 44.4981V44.1321C94.5067 43.9822 94.4784 43.841 94.4217 43.7103C94.3651 43.5796 94.2854 43.4663 94.1879 43.3687C94.0905 43.2711 93.9736 43.1944 93.8408 43.1386C93.708 43.0829 93.5663 43.0532 93.4122 43.0532H92.9818C92.8295 43.0532 92.6861 43.0811 92.5532 43.1386C92.4204 43.1961 92.3053 43.2711 92.2043 43.3687C92.1034 43.4663 92.0254 43.5796 91.967 43.7103C91.9085 43.841 91.8802 43.9804 91.8802 44.1321V47.7554C91.8802 47.9053 91.9085 48.0465 91.967 48.1772C92.0254 48.3079 92.1034 48.4212 92.2043 48.5205C92.3053 48.6199 92.4204 48.6966 92.5532 48.7541C92.6861 48.8116 92.8277 48.8395 92.9818 48.8395H93.4122C93.5645 48.8395 93.708 48.8116 93.8408 48.7541C93.9736 48.6966 94.0888 48.6199 94.1879 48.5205C94.2871 48.4212 94.3651 48.3079 94.4217 48.1772C94.4784 48.0465 94.5067 47.9071 94.5067 47.7554V47.3877L95.1231 47.487V47.7554C95.1231 47.9837 95.0788 48.1998 94.992 48.4003V48.3985Z" fill="#606161"/>
<path d="M99.2616 48.545C99.1872 48.7176 99.0845 48.8674 98.9534 48.9964C98.8223 49.1254 98.67 49.2265 98.4947 49.2997C98.3193 49.3729 98.1334 49.4095 97.935 49.4095H97.5436C97.3452 49.4095 97.1593 49.3729 96.9839 49.2997C96.8086 49.2265 96.6563 49.1254 96.5252 48.9964C96.3942 48.8674 96.2914 48.7176 96.217 48.545C96.1427 48.3725 96.1055 48.1895 96.1055 47.9943V45.821C96.1055 45.6258 96.1427 45.4428 96.217 45.2702C96.2914 45.0977 96.3942 44.9478 96.5252 44.8188C96.6563 44.6898 96.8086 44.5888 96.9839 44.5156C97.1593 44.4424 97.3452 44.4058 97.5436 44.4058H97.935C98.1334 44.4058 98.3193 44.4424 98.4947 44.5156C98.67 44.5888 98.8223 44.6898 98.9534 44.8188C99.0845 44.9478 99.1872 45.0977 99.2616 45.2702C99.336 45.4428 99.3732 45.6258 99.3732 45.821V47.9943C99.3732 48.1895 99.336 48.3725 99.2616 48.545ZM98.7851 45.7878C98.7851 45.6711 98.7621 45.563 98.7178 45.4602C98.6736 45.3591 98.6133 45.2702 98.5354 45.1935C98.4593 45.1186 98.3689 45.0593 98.2644 45.014C98.1599 44.9687 98.0501 44.9478 97.9315 44.9478H97.5401C97.4214 44.9478 97.3116 44.9704 97.2071 45.014C97.1026 45.0576 97.014 45.1168 96.9379 45.1935C96.8617 45.2702 96.8015 45.3574 96.7555 45.4602C96.7094 45.563 96.6882 45.6711 96.6882 45.7878V48.0274C96.6882 48.1442 96.7112 48.2522 96.7555 48.355C96.7997 48.4579 96.86 48.545 96.9379 48.6217C97.014 48.6966 97.1044 48.7559 97.2071 48.8012C97.3098 48.8465 97.4214 48.8674 97.5401 48.8674H97.9315C98.0501 48.8674 98.1599 48.8448 98.2644 48.8012C98.3689 48.7576 98.4575 48.6984 98.5354 48.6217C98.6133 48.545 98.6718 48.4579 98.7178 48.355C98.7621 48.254 98.7851 48.1442 98.7851 48.0274V45.7878Z" fill="#606161"/>
<path d="M105.523 49.3171V45.7878C105.523 45.6711 105.5 45.563 105.456 45.4602C105.411 45.3591 105.351 45.2702 105.273 45.1935C105.197 45.1186 105.107 45.0593 105.002 45.014C104.898 44.9687 104.788 44.9478 104.669 44.9478H104.377C104.258 44.9478 104.148 44.9704 104.044 45.014C103.939 45.0576 103.849 45.1168 103.771 45.1935C103.693 45.2685 103.631 45.3574 103.587 45.4602C103.543 45.5613 103.52 45.6711 103.52 45.7878V49.3171H102.937V45.7878C102.937 45.6711 102.914 45.563 102.87 45.4602C102.825 45.3574 102.763 45.2702 102.686 45.1935C102.608 45.1186 102.517 45.0593 102.413 45.014C102.308 44.9687 102.198 44.9478 102.08 44.9478H101.788C101.669 44.9478 101.559 44.9704 101.455 45.014C101.35 45.0576 101.262 45.1168 101.185 45.1935C101.109 45.2702 101.049 45.3574 101.003 45.4602C100.957 45.563 100.936 45.6711 100.936 45.7878V49.3171H100.348V44.4981H100.544L100.865 44.9879C100.999 44.8084 101.168 44.6672 101.37 44.5626C101.571 44.458 101.793 44.4058 102.032 44.4058H102.08C102.358 44.4058 102.608 44.4737 102.831 44.6079C103.054 44.7421 103.226 44.9216 103.348 45.1447C103.408 45.0349 103.483 44.9338 103.573 44.8432C103.661 44.7526 103.761 44.6742 103.869 44.6097C103.977 44.5452 104.095 44.4946 104.223 44.4598C104.35 44.4232 104.483 44.4058 104.62 44.4058H104.667C104.866 44.4058 105.052 44.4424 105.227 44.5156C105.402 44.5888 105.555 44.6898 105.686 44.8188C105.817 44.9478 105.92 45.0977 105.994 45.2702C106.068 45.4428 106.106 45.6258 106.106 45.821V49.3171H105.518H105.523Z" fill="#606161"/>
<path d="M112.261 49.3171V45.7878C112.261 45.6711 112.238 45.563 112.194 45.4602C112.15 45.3591 112.089 45.2702 112.011 45.1935C111.935 45.1186 111.845 45.0593 111.74 45.014C111.636 44.9687 111.526 44.9478 111.407 44.9478H111.115C110.997 44.9478 110.887 44.9704 110.782 45.014C110.678 45.0576 110.587 45.1168 110.509 45.1935C110.432 45.2685 110.37 45.3574 110.325 45.4602C110.281 45.5613 110.258 45.6711 110.258 45.7878V49.3171H109.675V45.7878C109.675 45.6711 109.652 45.563 109.608 45.4602C109.564 45.3574 109.502 45.2702 109.424 45.1935C109.346 45.1186 109.256 45.0593 109.151 45.014C109.047 44.9687 108.937 44.9478 108.818 44.9478H108.526C108.407 44.9478 108.297 44.9704 108.193 45.014C108.088 45.0576 108 45.1168 107.924 45.1935C107.848 45.2702 107.787 45.3574 107.741 45.4602C107.695 45.563 107.674 45.6711 107.674 45.7878V49.3171H107.086V44.4981H107.283L107.603 44.9879C107.738 44.8084 107.906 44.6672 108.108 44.5626C108.31 44.458 108.531 44.4058 108.77 44.4058H108.818C109.096 44.4058 109.346 44.4737 109.569 44.6079C109.792 44.7421 109.964 44.9216 110.086 45.1447C110.146 45.0349 110.221 44.9338 110.311 44.8432C110.4 44.7526 110.499 44.6742 110.607 44.6097C110.715 44.5452 110.834 44.4946 110.961 44.4598C111.089 44.4232 111.221 44.4058 111.358 44.4058H111.406C111.604 44.4058 111.79 44.4424 111.965 44.5156C112.141 44.5888 112.293 44.6898 112.424 44.8188C112.555 44.9478 112.658 45.0977 112.732 45.2702C112.807 45.4428 112.844 45.6258 112.844 45.821V49.3171H112.256H112.261Z" fill="#606161"/>
<path d="M116.988 48.545C116.914 48.7176 116.811 48.8674 116.68 48.9964C116.549 49.1254 116.397 49.2265 116.221 49.2997C116.046 49.3729 115.86 49.4095 115.662 49.4095H115.27C115.072 49.4095 114.886 49.3729 114.711 49.2997C114.535 49.2265 114.383 49.1254 114.252 48.9964C114.121 48.8674 114.018 48.7176 113.944 48.545C113.869 48.3725 113.832 48.1895 113.832 47.9943V45.821C113.832 45.6258 113.869 45.4428 113.944 45.2702C114.018 45.0977 114.121 44.9478 114.252 44.8188C114.383 44.6898 114.535 44.5888 114.711 44.5156C114.886 44.4424 115.072 44.4058 115.27 44.4058H115.662C115.86 44.4058 116.046 44.4424 116.221 44.5156C116.397 44.5888 116.549 44.6898 116.68 44.8188C116.811 44.9478 116.914 45.0977 116.988 45.2702C117.063 45.4428 117.1 45.6258 117.1 45.821V46.9555H114.417V48.0291C114.417 48.1459 114.44 48.254 114.484 48.3568C114.528 48.4596 114.588 48.5468 114.666 48.6234C114.742 48.6984 114.833 48.7576 114.935 48.803C115.038 48.8483 115.15 48.8692 115.268 48.8692H115.66C115.778 48.8692 115.888 48.8465 115.993 48.803C116.097 48.7594 116.186 48.7001 116.264 48.6234C116.342 48.5468 116.4 48.4596 116.446 48.3568C116.49 48.2557 116.513 48.1459 116.513 48.0291V47.7085L117.101 47.8026V47.996C117.101 48.1912 117.064 48.3742 116.99 48.5468L116.988 48.545ZM116.512 45.7878C116.512 45.6711 116.489 45.563 116.444 45.4602C116.4 45.3591 116.34 45.2702 116.262 45.1935C116.186 45.1186 116.096 45.0593 115.991 45.014C115.887 44.9687 115.777 44.9478 115.658 44.9478H115.267C115.148 44.9478 115.038 44.9704 114.934 45.014C114.829 45.0576 114.741 45.1168 114.664 45.1935C114.588 45.2702 114.528 45.3574 114.482 45.4602C114.436 45.563 114.415 45.6711 114.415 45.7878V46.5024H116.51V45.7878H116.512Z" fill="#606161"/>
<path d="M119.518 45.0486C119.399 45.0486 119.29 45.0712 119.185 45.1148C119.081 45.1584 118.992 45.2177 118.916 45.2943C118.84 45.371 118.779 45.4582 118.733 45.561C118.687 45.6638 118.666 45.7719 118.666 45.8886V49.3186H118.078V44.4996H118.275L118.595 44.9893C118.73 44.8098 118.898 44.6687 119.1 44.5641C119.302 44.4595 119.523 44.4072 119.762 44.4072H120.106V45.0521H119.518V45.0486Z" fill="#606161"/>
<path d="M123.851 48.545C123.777 48.7176 123.674 48.8674 123.543 48.9964C123.412 49.1254 123.26 49.2265 123.085 49.2997C122.909 49.3729 122.723 49.4095 122.525 49.4095H122.133C121.935 49.4095 121.749 49.3729 121.574 49.2997C121.398 49.2265 121.246 49.1254 121.115 48.9964C120.984 48.8674 120.881 48.7176 120.807 48.545C120.733 48.3725 120.695 48.1895 120.695 47.9943V45.821C120.695 45.6258 120.733 45.4428 120.807 45.2702C120.881 45.0977 120.984 44.9478 121.115 44.8188C121.246 44.6898 121.398 44.5888 121.574 44.5156C121.749 44.4424 121.935 44.4058 122.133 44.4058H122.525C122.723 44.4058 122.909 44.4424 123.085 44.5156C123.26 44.5888 123.412 44.6898 123.543 44.8188C123.674 44.9478 123.777 45.0977 123.851 45.2702C123.926 45.4428 123.963 45.6258 123.963 45.821V46.0144L123.375 46.1085V45.7878C123.375 45.6711 123.352 45.563 123.308 45.4602C123.263 45.3591 123.203 45.2702 123.125 45.1935C123.049 45.1186 122.959 45.0593 122.854 45.014C122.75 44.9687 122.64 44.9478 122.521 44.9478H122.13C122.011 44.9478 121.901 44.9704 121.797 45.014C121.692 45.0576 121.604 45.1168 121.528 45.1935C121.452 45.2702 121.391 45.3574 121.345 45.4602C121.299 45.563 121.278 45.6711 121.278 45.7878V48.0274C121.278 48.1442 121.301 48.2522 121.345 48.355C121.39 48.4579 121.45 48.545 121.528 48.6217C121.604 48.6966 121.694 48.7559 121.797 48.8012C121.9 48.8465 122.011 48.8674 122.13 48.8674H122.521C122.64 48.8674 122.75 48.8448 122.854 48.8012C122.959 48.7576 123.047 48.6984 123.125 48.6217C123.203 48.545 123.262 48.4579 123.308 48.355C123.352 48.254 123.375 48.1442 123.375 48.0274V47.7067L123.963 47.8008V47.9943C123.963 48.1895 123.926 48.3725 123.851 48.545Z" fill="#606161"/>
<path d="M128.105 48.545C128.031 48.7176 127.928 48.8674 127.797 48.9964C127.666 49.1254 127.514 49.2265 127.338 49.2997C127.163 49.3729 126.977 49.4095 126.779 49.4095H126.387C126.189 49.4095 126.003 49.3729 125.828 49.2997C125.652 49.2265 125.5 49.1254 125.369 48.9964C125.238 48.8674 125.135 48.7176 125.061 48.545C124.986 48.3725 124.949 48.1895 124.949 47.9943V45.821C124.949 45.6258 124.986 45.4428 125.061 45.2702C125.135 45.0977 125.238 44.9478 125.369 44.8188C125.5 44.6898 125.652 44.5888 125.828 44.5156C126.003 44.4424 126.189 44.4058 126.387 44.4058H126.779C126.977 44.4058 127.163 44.4424 127.338 44.5156C127.514 44.5888 127.666 44.6898 127.797 44.8188C127.928 44.9478 128.031 45.0977 128.105 45.2702C128.18 45.4428 128.217 45.6258 128.217 45.821V46.9555H125.534V48.0291C125.534 48.1459 125.557 48.254 125.601 48.3568C125.645 48.4596 125.705 48.5468 125.783 48.6234C125.86 48.6984 125.95 48.7576 126.053 48.803C126.155 48.8483 126.267 48.8692 126.386 48.8692H126.777C126.896 48.8692 127.005 48.8465 127.11 48.803C127.214 48.7594 127.303 48.7001 127.381 48.6234C127.459 48.5468 127.517 48.4596 127.563 48.3568C127.608 48.2557 127.631 48.1459 127.631 48.0291V47.7085L128.219 47.8026V47.996C128.219 48.1912 128.181 48.3742 128.107 48.5468L128.105 48.545ZM127.629 45.7878C127.629 45.6711 127.606 45.563 127.562 45.4602C127.517 45.3591 127.457 45.2702 127.379 45.1935C127.303 45.1186 127.213 45.0593 127.108 45.014C127.004 44.9687 126.894 44.9478 126.775 44.9478H126.384C126.265 44.9478 126.155 44.9704 126.051 45.014C125.946 45.0576 125.858 45.1168 125.782 45.1935C125.705 45.2702 125.645 45.3574 125.599 45.4602C125.553 45.563 125.532 45.6711 125.532 45.7878V46.5024H127.627V45.7878H127.629Z" fill="#606161"/>
<path d="M15.6158 6.89648C20.3128 6.89648 24.0888 8.30122 26.9455 11.1124C29.8023 13.9236 31.2316 17.6394 31.2316 22.2614C31.2316 26.8834 29.797 30.5748 26.9314 33.3964C24.064 36.2181 20.2915 37.628 15.6176 37.628C10.9436 37.628 7.19422 36.2129 4.31795 33.3807C1.43813 30.5504 0 26.8433 0 22.2614C0 17.6795 1.43282 13.948 4.30024 11.1281C7.16765 8.30644 10.9401 6.89648 15.6158 6.89648ZM15.6158 13.0487C12.0258 13.0487 9.34788 14.443 7.58032 17.235C6.69477 18.6363 6.25376 20.3112 6.25376 22.2614C6.25376 24.0426 6.65049 25.639 7.44394 27.049C8.27636 28.5304 9.47717 29.6545 11.0428 30.4266C12.4668 31.1255 13.9899 31.4758 15.6176 31.4758C19.2058 31.4758 21.8855 30.0763 23.6531 27.2756C24.5386 25.8848 24.9796 24.2151 24.9796 22.2631C24.9796 19.3421 24.025 17.052 22.1122 15.3911C20.3216 13.8313 18.1573 13.0505 15.6158 13.0505V13.0487Z" fill="url(#paint0_linear_63_260)"/>
<path d="M124.41 28.8947L128.968 33.3807C127.139 35.2212 124.831 36.4725 122.045 37.1331C120.683 37.4625 119.224 37.628 117.669 37.628C113.013 37.628 109.247 36.2129 106.369 33.3807C103.493 30.5504 102.055 26.8433 102.055 22.2614C102.055 17.6795 103.488 13.948 106.355 11.1281C109.221 8.30644 112.993 6.89648 117.669 6.89648C122.344 6.89648 126.143 8.30122 129 11.1124L124.41 15.6299C122.621 13.9079 120.373 13.0487 117.669 13.0487C114.08 13.0487 111.403 14.443 109.633 17.235C108.749 18.6363 108.307 20.3112 108.307 22.2614C108.307 24.0426 108.705 25.639 109.497 27.049C110.331 28.5304 111.53 29.6545 113.096 30.4266C114.52 31.1255 116.045 31.4758 117.671 31.4758C120.375 31.4758 122.623 30.6166 124.411 28.8947H124.41Z" fill="url(#paint1_linear_63_260)"/>
<path d="M80.3775 12.3936C80.8468 12.3936 81.2276 12.0188 81.2276 11.557C81.2276 11.0951 80.8468 10.7222 80.3775 10.7222C79.9081 10.7222 79.5273 11.0969 79.5273 11.557C79.5273 12.0171 79.9081 12.3936 80.3775 12.3936Z" fill="url(#paint2_linear_63_260)"/>
<path d="M69.4805 21.7266C69.4805 21.8259 69.6593 21.8277 69.6611 21.7266C69.6611 21.676 69.6222 21.6377 69.5708 21.6377C69.5194 21.6377 69.4805 21.676 69.4805 21.7266Z" fill="url(#paint3_linear_63_260)"/>
<path d="M94.7112 11.1121C92.8639 9.29606 90.6323 8.07084 88.02 7.42773L86.4206 9.00327C86.7625 9.78754 86.9538 10.6503 86.9538 11.5565C86.9538 12.2502 86.8422 12.9194 86.635 13.5469C87.8251 13.9338 88.9073 14.5438 89.8778 15.389C91.7889 17.05 92.7435 19.3401 92.7435 22.2611C92.7435 24.2131 92.3025 25.8827 91.4169 27.2735C89.6494 30.0742 86.9715 31.4737 83.3814 31.4737H74.0176V23.4689C73.3109 25.2065 71.5859 26.4369 69.5722 26.4369C68.9328 26.4369 68.3235 26.3114 67.7656 26.0884V37.6277H83.3814C88.0571 37.6277 91.8296 36.2178 94.6952 33.3961C97.5644 30.5744 98.9955 26.8639 98.9955 22.2611C98.9955 17.6582 97.568 13.9233 94.7129 11.1121H94.7112Z" fill="url(#paint4_linear_63_260)"/>
<path d="M84.9339 13.3432L80.7771 11.5986C80.5487 11.5028 80.3149 11.7311 80.4141 11.9559L82.1869 16.0464C82.2312 16.1492 82.3357 16.2172 82.4544 16.2119C82.5695 16.2067 82.6704 16.1335 82.7059 16.0255L83.2531 14.3924L84.9127 13.8539C85.0225 13.819 85.0986 13.7197 85.1022 13.6064C85.1075 13.4931 85.0402 13.3885 84.9339 13.3432ZM82.9467 13.9166C82.8635 13.9445 82.798 14.0072 82.7696 14.0909L82.4083 15.168L81.1933 12.3655L84.0413 13.5611L82.9467 13.9166Z" fill="#939598"/>
<path d="M80.3747 8.54395C78.6869 8.54395 77.3125 9.89639 77.3125 11.5573C77.3125 13.2183 78.6869 14.5707 80.3747 14.5707C80.5961 14.5707 80.7768 14.3929 80.7768 14.1751C80.7768 13.9572 80.5961 13.7794 80.3747 13.7794C79.1297 13.7794 78.1166 12.7825 78.1166 11.5573C78.1166 10.3321 79.1297 9.3352 80.3747 9.3352C81.6198 9.3352 82.6329 10.3321 82.6329 11.5573C82.6329 11.7752 82.8135 11.9529 83.0349 11.9529C83.2563 11.9529 83.437 11.7752 83.437 11.5573C83.437 9.89639 82.0626 8.54395 80.3747 8.54395Z" fill="#44823D"/>
<path d="M83.8024 8.18277C82.8832 7.27824 81.6647 6.77979 80.3735 6.77979C79.0824 6.77979 77.8639 7.27824 76.9447 8.18277C75.0549 10.0424 75.0549 13.0697 76.9447 14.9311C77.8639 15.8356 79.0824 16.3341 80.3735 16.3341C80.5949 16.3341 80.7756 16.1563 80.7756 15.9384C80.7756 15.7206 80.5949 15.5428 80.3735 15.5428C78.1402 15.5428 76.323 13.7546 76.323 11.5569C76.323 9.35919 78.1402 7.57104 80.3735 7.57104C82.6069 7.57104 84.424 9.35919 84.424 11.5569C84.424 11.7748 84.6047 11.9525 84.8261 11.9525C85.0475 11.9525 85.2281 11.7748 85.2281 11.5569C85.2281 10.2864 84.7216 9.08731 83.8024 8.18277Z" fill="#F29C49"/>
<path d="M33.1211 37.628H39.3731V17.9461L51.8611 27.7775V21.6479L33.1211 6.89648V37.628Z" fill="url(#paint5_linear_63_260)"/>
<path d="M73.7997 11.5568C73.7997 10.6506 73.9892 9.78786 74.3328 9.00358L73.2418 7.92825C72.0817 8.04328 70.9978 7.62674 70.2167 6.89648H56.3242V32.7045L62.5762 37.6263V13.0487H73.9786C73.8634 12.5694 73.8015 12.0692 73.8015 11.5568H73.7997Z" fill="url(#paint6_linear_63_260)"/>
<path d="M87.8907 17.1046C87.5436 17.1046 87.2212 17.2039 86.9414 17.366L85.3439 15.7939C85.1384 16.0275 84.917 16.2453 84.6797 16.4475L86.2772 18.0196C86.1107 18.2949 86.0098 18.6121 86.0098 18.9537C86.0098 19.9733 86.8528 20.8029 87.8889 20.8029C88.925 20.8029 89.7681 19.9733 89.7681 18.9537C89.7681 17.9342 88.925 17.1046 87.8889 17.1046H87.8907ZM87.8907 19.8774C87.3718 19.8774 86.952 19.4626 86.952 18.9537C86.952 18.4448 87.3735 18.03 87.8907 18.03C88.4079 18.03 88.8294 18.4448 88.8294 18.9537C88.8294 19.4626 88.4079 19.8774 87.8907 19.8774Z" fill="url(#paint7_linear_63_260)"/>
<path d="M89.772 0C88.2169 0 86.9541 1.24439 86.9541 2.77286C86.9541 3.25215 87.0781 3.7018 87.296 4.09568L84.6836 6.66638C84.9209 6.86855 85.1423 7.0864 85.3478 7.31994L87.884 4.82419C88.3834 5.27036 89.0458 5.54573 89.7737 5.54573C91.3288 5.54573 92.5916 4.30134 92.5916 2.77286C92.5916 1.24439 91.327 0 89.7737 0H89.772ZM89.772 4.62202C88.7359 4.62202 87.8928 3.79243 87.8928 2.77286C87.8928 1.7533 88.7359 0.923707 89.772 0.923707C90.8081 0.923707 91.6511 1.7533 91.6511 2.77286C91.6511 3.79243 90.8081 4.62202 89.772 4.62202Z" fill="url(#paint8_linear_63_260)"/>
<path d="M72.8596 6.00935C73.2067 6.00935 73.5291 5.91001 73.8089 5.74792L75.4065 7.31997C75.6119 7.08643 75.8333 6.86857 76.0706 6.6664L74.4731 5.09436C74.6378 4.81899 74.7387 4.50353 74.7387 4.16019C74.7387 3.14063 73.8957 2.31104 72.8596 2.31104C71.8235 2.31104 70.9805 3.14063 70.9805 4.16019C70.9805 5.17976 71.8235 6.00935 72.8596 6.00935ZM72.8596 3.23649C73.3785 3.23649 73.7983 3.65128 73.7983 4.16019C73.7983 4.6691 73.3768 5.0839 72.8596 5.0839C72.3424 5.0839 71.9209 4.6691 71.9209 4.16019C71.9209 3.65128 72.3424 3.23649 72.8596 3.23649Z" fill="url(#paint9_linear_63_260)"/>
<path d="M76.0699 16.447C75.8326 16.2449 75.6112 16.027 75.4057 15.7935L71.4615 19.6748C70.9603 19.2286 70.2997 18.9532 69.5717 18.9532C68.0167 18.9532 66.7539 20.1976 66.7539 21.7261C66.7539 23.2546 68.0185 24.499 69.5717 24.499C71.125 24.499 72.3896 23.2546 72.3896 21.7261C72.3896 21.2468 72.2656 20.7972 72.0477 20.4033L76.0699 16.4453V16.447ZM69.57 23.5753C68.5339 23.5753 67.6908 22.7457 67.6908 21.7261C67.6908 20.7065 68.5339 19.8769 69.57 19.8769C70.6061 19.8769 71.4491 20.7065 71.4491 21.7261C71.4491 22.7457 70.6061 23.5753 69.57 23.5753Z" fill="url(#paint10_linear_63_260)"/>
<path d="M80.8436 19.9192V18.0107C80.6878 18.0212 80.5319 18.0282 80.3725 18.0282C80.2131 18.0282 80.059 18.0212 79.9032 18.0107V19.9192C78.5731 20.1405 77.5547 21.2786 77.5547 22.6519C77.5547 24.1822 78.8192 25.4248 80.3725 25.4248C81.9258 25.4248 83.1903 24.1804 83.1903 22.6519C83.1903 21.2803 82.172 20.1405 80.8419 19.9192H80.8436ZM80.3725 24.5011C79.3364 24.5011 78.4934 23.6715 78.4934 22.6519C78.4934 21.6324 79.3364 20.8028 80.3725 20.8028C81.4086 20.8028 82.2516 21.6324 82.2516 22.6519C82.2516 23.6715 81.4086 24.5011 80.3725 24.5011Z" fill="url(#paint11_linear_63_260)"/>
<defs>
<linearGradient id="paint0_linear_63_260" x1="21.007" y1="23.5128" x2="107.821" y2="44.3815" gradientUnits="userSpaceOnUse">
<stop stop-color="#1C75BC"/>
<stop offset="1" stop-color="#00AEEF"/>
</linearGradient>
<linearGradient id="paint1_linear_63_260" x1="26.4162" y1="1.01439" x2="113.229" y2="21.8849" gradientUnits="userSpaceOnUse">
<stop stop-color="#1C75BC"/>
<stop offset="1" stop-color="#00AEEF"/>
</linearGradient>
<linearGradient id="paint2_linear_63_260" x1="77.1682" y1="10.8599" x2="82.6945" y2="12.0998" gradientUnits="userSpaceOnUse">
<stop stop-color="#1C75BC"/>
<stop offset="1" stop-color="#00AEEF"/>
</linearGradient>
<linearGradient id="paint3_linear_63_260" x1="69.2325" y1="21.6464" x2="69.8179" y2="21.7776" gradientUnits="userSpaceOnUse">
<stop stop-color="#1C75BC"/>
<stop offset="1" stop-color="#00AEEF"/>
</linearGradient>
<linearGradient id="paint4_linear_63_260" x1="26.7805" y1="11.4328" x2="124.811" y2="33.4094" gradientUnits="userSpaceOnUse">
<stop stop-color="#1C75BC"/>
<stop offset="1" stop-color="#00AEEF"/>
</linearGradient>
<linearGradient id="paint5_linear_63_260" x1="28.9431" y1="20.8636" x2="93.7281" y2="43.262" gradientUnits="userSpaceOnUse">
<stop stop-color="#1C75BC"/>
<stop offset="1" stop-color="#00AEEF"/>
</linearGradient>
<linearGradient id="paint6_linear_63_260" x1="32.3966" y1="10.8789" x2="97.1817" y2="33.279" gradientUnits="userSpaceOnUse">
<stop offset="0.05" stop-color="#1C75BC"/>
<stop offset="1" stop-color="#00AEEF"/>
</linearGradient>
<linearGradient id="paint7_linear_63_260" x1="73.4102" y1="15.2502" x2="95.5902" y2="20.581" gradientUnits="userSpaceOnUse">
<stop stop-color="#1C75BC"/>
<stop offset="1" stop-color="#00AEEF"/>
</linearGradient>
<linearGradient id="paint8_linear_63_260" x1="72.091" y1="0.0209141" x2="99.3189" y2="6.56632" gradientUnits="userSpaceOnUse">
<stop stop-color="#1C75BC"/>
<stop offset="1" stop-color="#00AEEF"/>
</linearGradient>
<linearGradient id="paint9_linear_63_260" x1="60.0085" y1="1.50236" x2="82.1921" y2="6.83498" gradientUnits="userSpaceOnUse">
<stop stop-color="#1C75BC"/>
<stop offset="1" stop-color="#00AEEF"/>
</linearGradient>
<linearGradient id="paint10_linear_63_260" x1="51.8465" y1="15.3804" x2="83.2292" y2="22.9248" gradientUnits="userSpaceOnUse">
<stop stop-color="#1C75BC"/>
<stop offset="1" stop-color="#00AEEF"/>
</linearGradient>
<linearGradient id="paint11_linear_63_260" x1="66.8076" y1="18.5441" x2="89.1786" y2="23.9216" gradientUnits="userSpaceOnUse">
<stop stop-color="#1C75BC"/>
<stop offset="1" stop-color="#00AEEF"/>
</linearGradient>
</defs>
</svg>
