<svg width="47" height="47" viewBox="0 0 47 47" fill="none" xmlns="http://www.w3.org/2000/svg">
<circle cx="23.5" cy="23.5" r="23.5" fill="#F7F7F7"/>
<path d="M13.85 23.5028L13.85 23.5028C13.8519 23.616 13.8636 23.737 13.9091 23.8608C13.9549 23.9853 14.0319 24.1048 14.1539 24.2215L21.5213 31.8246L13.85 23.5028ZM13.85 23.5028V23.5002M13.85 23.5028V23.5002M13.85 23.5002C13.85 23.3692 13.8898 23.2277 13.9433 23.1051C13.9968 22.9824 14.0706 22.8637 14.1519 22.7804C14.1521 22.7803 14.1522 22.7801 14.1524 22.7799L21.5215 15.1748L21.5215 15.1748M13.85 23.5002L21.5215 15.1748M21.5215 15.1748L21.523 15.1733M21.5215 15.1748L21.523 15.1733M21.523 15.1733C21.9218 14.773 22.5688 14.7278 23.0305 15.1313L23.0306 15.1313M21.523 15.1733L23.0306 15.1313M23.0306 15.1313C23.4573 15.5046 23.4636 16.2156 23.0752 16.6143M23.0306 15.1313L23.0752 16.6143M23.0752 16.6143L17.4066 22.4553H32.0789C32.6665 22.4553 33.15 22.9191 33.15 23.5C33.15 24.0812 32.6661 24.5446 32.0789 24.5446H17.4066L23.0752 30.3856L23.0752 16.6143ZM23.0353 31.8639C23.437 31.4807 23.4677 30.7888 23.0754 30.3858L23.0353 31.8639ZM23.0353 31.8639C22.6098 32.2702 21.9147 32.2318 21.5215 31.8248L23.0353 31.8639Z" fill="#19486D" stroke="#19486D" stroke-width="0.3"/>
</svg>
