<svg width="18" height="18" viewBox="0 0 18 18" fill="none" xmlns="http://www.w3.org/2000/svg">
<path d="M17.7013 16.2973L14.4709 13.091C16.9933 9.86254 16.7278 5.26296 13.8291 2.36617C12.3024 0.840332 10.2668 0 8.09837 0C5.93001 0 3.89434 0.840332 2.36761 2.36617C0.840845 3.892 0 5.92635 0 8.09342C0 10.2605 0.840845 12.2949 2.36761 13.8207C3.89438 15.3465 5.92997 16.1868 8.09837 16.1868C9.89057 16.1868 11.6607 15.5898 13.0768 14.462L16.2851 17.7125C16.4842 17.9115 16.7276 18 16.9932 18C17.2587 18 17.5021 17.8894 17.7014 17.7125C18.0996 17.3366 18.0996 16.6954 17.7013 16.2973ZM14.2054 8.09338C14.2054 9.72978 13.5638 11.2555 12.4132 12.4054C11.2626 13.5554 9.71376 14.1965 8.09852 14.1965C6.48329 14.1965 4.93452 13.5553 3.78386 12.4054C2.63321 11.2555 1.99166 9.70763 1.99166 8.09338C1.99166 6.45699 2.63325 4.93131 3.78386 3.78136C4.93448 2.6314 6.48329 1.99025 8.09852 1.99025C9.73592 1.99025 11.2625 2.63144 12.4132 3.78136C13.5636 4.93111 14.2054 6.45695 14.2054 8.09338Z" fill="#B9CEDB"/>
</svg>
