<svg width="92" height="88" viewBox="0 0 92 88" fill="none" xmlns="http://www.w3.org/2000/svg">
<path d="M31.3506 3.1377C22.7393 3.1377 15.7666 10.5239 15.7666 19.63V32.1187C15.7666 41.2319 22.746 48.611 31.3506 48.611C39.9552 48.611 46.9346 41.2248 46.9346 32.1187V19.63C46.9346 10.5168 39.9552 3.1377 31.3506 3.1377Z" fill="#FFD9C0"/>
<path d="M31.3509 48.6181C28.2692 48.6181 25.3965 47.6689 22.9756 46.0347V48.6181C22.9756 53.5136 26.7249 57.4815 31.3509 57.4815C35.9769 57.4815 39.7262 53.5136 39.7262 48.6181V46.0347C37.3053 47.6689 34.4326 48.6181 31.3509 48.6181Z" fill="#F4C8B5"/>
<path d="M62.4988 80.6607L57.4277 61.478C55.4182 53.8706 48.8704 48.6182 41.4054 48.6182H39.7263C39.7263 53.5138 35.977 57.4816 31.351 57.4816C26.725 57.4816 22.9757 53.5138 22.9757 48.6182H21.2966C13.8316 48.6182 7.28378 53.8777 5.27425 61.478L0.203207 80.6607C-0.7611 84.3003 1.82837 87.9113 5.39563 87.9113H57.3064C60.8804 87.9113 63.4631 84.3003 62.4988 80.6607Z" fill="#0C78BE"/>
<path d="M30.8587 0.125886C21.3572 0.404206 13.9058 8.90369 13.9058 18.9661V25.7457C13.9058 27.2443 15.0589 28.4646 16.475 28.4646C17.709 28.4646 18.761 27.544 18.997 26.2595L20.9526 17.6601C21.4921 15.669 23.2117 14.2917 25.174 14.2917H37.5279C39.4835 14.2917 41.2098 15.6619 41.7493 17.6601L43.7049 26.2595C43.9409 27.5369 44.9996 28.4646 46.2269 28.4646C47.643 28.4646 48.7961 27.2443 48.7961 25.7457V18.5807C48.7961 8.21859 40.7175 -0.152435 30.8587 0.125886Z" fill="#A67C52"/>
<path d="M16.475 28.4647C15.3825 28.4647 14.4519 27.7368 14.0811 26.7163V29.8349C14.0811 30.9625 14.5801 31.9759 15.3556 32.6253C16.1985 33.3318 17.4393 32.6538 17.4393 31.5191V28.2506C17.1358 28.3791 16.8121 28.4576 16.4682 28.4576L16.475 28.4647Z" fill="#F4C8B5"/>
<path d="M46.2269 19.1876C45.883 19.1876 45.5593 19.1091 45.2559 18.9806V22.2491C45.2559 23.3838 46.5034 24.0618 47.3396 23.3552C48.1151 22.7058 48.6141 21.6996 48.6141 20.5649V17.4463C48.2432 18.4668 47.3126 19.1947 46.2202 19.1947L46.2269 19.1876Z" fill="#F4C8B5"/>
<path d="M89.1743 49.375H46.6143V81.494H89.1743V49.375Z" fill="#FBB03B"/>
<path d="M88.6223 87.9179H45.1398C43.7144 87.9179 42.561 86.4813 42.561 84.706C42.561 82.9307 43.7144 81.4941 45.1398 81.4941H88.6223C90.0476 81.4941 91.201 82.9307 91.201 84.706C91.201 86.4813 90.0476 87.9179 88.6223 87.9179Z" fill="#025388"/>
<path d="M84.9873 40.8101H68.1042H48.7747L42.561 49.3751H68.1042H91.201L84.9873 40.8101Z" fill="#935000"/>
<path d="M91.201 49.375H42.561V57.9401H91.201V49.375Z" fill="#BCC2C6"/>
<path d="M46.1077 60.0813C44.149 60.0813 42.561 58.544 42.561 56.6476V49.375H49.6544V56.6476C49.6544 58.544 48.0664 60.0813 46.1077 60.0813Z" fill="#FF1D25"/>
<path d="M53.201 60.0813C51.2422 60.0813 49.6543 58.544 49.6543 56.6476V49.375H56.7476V56.6476C56.7476 58.544 55.1597 60.0813 53.201 60.0813Z" fill="#E6E6E6"/>
<path d="M60.2942 60.0813C58.3355 60.0813 56.7476 58.544 56.7476 56.6476V49.375H63.8409V56.6476C63.8409 58.544 62.253 60.0813 60.2942 60.0813Z" fill="#FF1D25"/>
<path d="M66.8808 60.0813C65.2019 60.0813 63.8408 58.544 63.8408 56.6476V49.375H69.9208V56.6476C69.9208 58.544 68.5597 60.0813 66.8808 60.0813Z" fill="#E6E6E6"/>
<path d="M73.4676 60.0813C71.5088 60.0813 69.9209 58.544 69.9209 56.6476V49.375H77.0142V56.6476C77.0142 58.544 75.4263 60.0813 73.4676 60.0813Z" fill="#FF1D25"/>
<path d="M80.5608 60.0813C78.6021 60.0813 77.0142 58.544 77.0142 56.6476V49.375H84.1075V56.6476C84.1075 58.544 82.5196 60.0813 80.5608 60.0813Z" fill="#E6E6E6"/>
<path d="M87.6541 60.0813C85.6953 60.0813 84.1074 58.544 84.1074 56.6476V49.375H91.2008V56.6476C91.2008 58.544 89.6128 60.0813 87.6541 60.0813Z" fill="#FF1D25"/>
<path d="M83.0939 81.4942H71.9473V68.4364C71.9473 65.6005 74.4375 63.2935 77.5206 63.2935C80.5938 63.2935 83.0939 65.5913 83.0939 68.4364V81.4942Z" fill="#E6E6E6"/>
<path d="M72.97 81.4939V68.0305C72.97 66.0091 74.5594 64.3638 76.5121 64.3638C78.4649 64.3638 80.0543 66.0091 80.0543 68.0305V81.4939H72.9609H72.97Z" fill="#3FA9F5"/>
<path d="M77.0355 64.3638C76.6727 64.3638 76.3252 64.4484 76.001 64.5894C77.1514 65.1065 77.9775 66.451 77.9775 68.0305V81.4939H80.0543V68.0305C80.0543 66.0091 78.7032 64.3638 77.0433 64.3638H77.0355Z" fill="#2399E2"/>
<path d="M64.9901 64.3638H54.5845C52.9808 64.3638 51.6807 65.6386 51.6807 67.2112V72.2227C51.6807 73.7953 52.9808 75.0701 54.5845 75.0701H64.9901C66.5939 75.0701 67.894 73.7953 67.894 72.2227V67.2112C67.894 65.6386 66.5939 64.3638 64.9901 64.3638Z" fill="#E6E6E6"/>
<path d="M64.8545 73.0402V67.465C64.8545 66.935 64.4784 66.5054 64.0145 66.5054H54.5478C54.0839 66.5054 53.7078 66.935 53.7078 67.465V73.0402C53.7078 73.5702 54.0839 73.9998 54.5478 73.9998H64.0145C64.4784 73.9998 64.8545 73.5702 64.8545 73.0402Z" fill="#3FA9F5"/>
<path d="M64.6677 66.515H54.0042C53.8431 66.515 53.7075 66.6691 53.7075 66.8522V73.7012C53.7075 73.836 53.7753 73.9516 53.877 73.9998L64.8542 66.5921C64.8033 66.5439 64.7355 66.5054 64.6677 66.5054V66.515Z" fill="#55BEFF"/>
</svg>
