<svg width="103" height="78" viewBox="0 0 103 78" fill="none" xmlns="http://www.w3.org/2000/svg">
<path d="M6.03864 13H69.9606C73.2936 13 75.9992 15.6633 75.9992 18.9442V72.0526C75.9992 75.3335 73.2936 77.9968 69.9606 77.9968H6.03864C2.70562 77.9968 0 75.3335 0 72.0526V18.9442C0 15.6633 2.70562 13 6.03864 13Z" fill="#F7CB15"/>
<path d="M29.3794 13H46.6196V41.4053C46.6196 44.6862 43.9139 47.3495 40.5809 47.3495H35.4213C32.0883 47.3495 29.3827 44.6862 29.3827 41.4053V13H29.3794Z" fill="#E7AD27"/>
<path d="M21.4948 73.6094H7.15309C6.00614 73.6094 5.07812 72.6959 5.07812 71.5669C5.07812 70.4379 6.00614 69.5244 7.15309 69.5244H21.4981C22.6451 69.5244 23.5731 70.4379 23.5731 71.5669C23.5731 72.6959 22.6451 73.6094 21.4981 73.6094H21.4948Z" fill="#FEDE3A"/>
<path d="M21.498 62.2134H7.14967C6.0037 62.2134 5.07471 63.1278 5.07471 64.2559V64.2591C5.07471 65.3871 6.0037 66.3016 7.14967 66.3016H21.498C22.6439 66.3016 23.5729 65.3871 23.5729 64.2591V64.2559C23.5729 63.1278 22.6439 62.2134 21.498 62.2134Z" fill="#FEDE3A"/>
<path d="M76.5695 3.10107H53.9115C52.3255 3.10107 51.0371 4.37454 51.0371 5.94936V40.8352C51.0371 42.4068 52.3222 43.6835 53.9115 43.6835H76.5695V3.10107Z" fill="#E7AD27"/>
<path d="M99.7148 0H53.9115C52.324 0 51.0371 1.27522 51.0371 2.84829V37.7342C51.0371 39.3072 52.324 40.5824 53.9115 40.5824H99.7148C101.302 40.5824 102.589 39.3072 102.589 37.7342V2.84829C102.589 1.27522 101.302 0 99.7148 0Z" fill="#F1FBFF"/>
<path d="M96.2552 35.1675H96.9354C97.3327 35.1675 97.6548 34.8483 97.6548 34.4546V9.44863C97.6548 9.05491 97.3327 8.73575 96.9354 8.73575H96.2552C95.8579 8.73575 95.5358 9.05491 95.5358 9.44863V34.4546C95.5358 34.8483 95.8579 35.1675 96.2552 35.1675Z" fill="#1CAEE4"/>
<path d="M58.0153 31.8398H59.8367C60.2341 31.8398 60.5562 31.5207 60.5562 31.127V9.44886C60.5562 9.05515 60.2341 8.73598 59.8367 8.73598H58.0153C57.618 8.73598 57.2959 9.05515 57.2959 9.44886V31.127C57.2959 31.5207 57.618 31.8398 58.0153 31.8398Z" fill="#1CAEE4"/>
<path d="M64.1501 35.1675H64.3856C64.7829 35.1675 65.105 34.8483 65.105 34.4546V9.44863C65.105 9.05491 64.7829 8.73575 64.3856 8.73575H64.1501C63.7528 8.73575 63.4307 9.05491 63.4307 9.44863V34.4546C63.4307 34.8483 63.7528 35.1675 64.1501 35.1675Z" fill="#1CAEE4"/>
<path d="M85.0521 31.8398H86.8865C87.2839 31.8398 87.606 31.5207 87.606 31.127V9.44886C87.606 9.05515 87.2839 8.73598 86.8865 8.73598H85.0521C84.6547 8.73598 84.3327 9.05515 84.3327 9.44886V31.127C84.3327 31.5207 84.6547 31.8398 85.0521 31.8398Z" fill="#1CAEE4"/>
<path d="M91.1967 31.8398H92.181C92.5783 31.8398 92.9004 31.5207 92.9004 31.127V9.44886C92.9004 9.05515 92.5783 8.73598 92.181 8.73598H91.1967C90.7994 8.73598 90.4773 9.05515 90.4773 9.44886V31.127C90.4773 31.5207 90.7994 31.8398 91.1967 31.8398Z" fill="#1CAEE4"/>
<path d="M68.6953 31.8398H74.6566C75.0539 31.8398 75.376 31.5207 75.376 31.127V9.44886C75.376 9.05515 75.0539 8.73598 74.6566 8.73598H68.6953C68.298 8.73598 67.9759 9.05515 67.9759 9.44886V31.127C67.9759 31.5207 68.298 31.8398 68.6953 31.8398Z" fill="#1CAEE4"/>
<path d="M78.9437 35.1675H80.7357C81.133 35.1675 81.4551 34.8483 81.4551 34.4546V9.44863C81.4551 9.05491 81.133 8.73575 80.7357 8.73575H78.9437C78.5464 8.73575 78.2243 9.05491 78.2243 9.44863V34.4546C78.2243 34.8483 78.5464 35.1675 78.9437 35.1675Z" fill="#1CAEE4"/>
</svg>
