<svg width="19" height="17" viewBox="0 0 19 17" fill="none" xmlns="http://www.w3.org/2000/svg">
<path d="M0.303326 8.49986V8.50152C0.30512 8.6075 0.316011 8.71769 0.357199 8.82968C0.398539 8.94208 0.468418 9.05104 0.58112 9.15875L7.63569 16.4389L0.303326 8.49986ZM0.303326 8.49986C0.303326 8.38262 0.339167 8.25337 0.38891 8.13936C0.438686 8.02527 0.506741 7.91648 0.579887 7.84168C0.579966 7.8416 0.580046 7.84152 0.580124 7.84144L7.63581 0.559794L7.63581 0.559787M0.303326 8.49986L7.63581 0.559787M7.63581 0.559787L7.63677 0.558819M7.63581 0.559787L7.63677 0.558819M7.63677 0.558819C8.00231 0.191856 8.59515 0.15016 9.01909 0.520682L9.01912 0.520707M7.63677 0.558819L9.01912 0.520707M9.01912 0.520707C9.4074 0.860314 9.4142 1.51128 9.0594 1.87571M9.01912 0.520707L9.0594 1.87571M9.0594 1.87571C9.05937 1.87574 9.05935 1.87576 9.05932 1.87579M9.0594 1.87571L9.05932 1.87579M9.05932 1.87579L3.55831 7.54404H17.7118C18.251 7.54404 18.6927 7.9693 18.6927 8.49958C18.6927 9.03022 18.2506 9.45512 17.7118 9.45512H3.55831L9.05932 15.1234L9.05932 1.87579ZM9.02231 16.4752C9.38969 16.1247 9.41692 15.4907 9.05944 15.1235L9.02231 16.4752ZM9.02231 16.4752C8.63347 16.8465 7.99601 16.812 7.63581 16.4391L9.02231 16.4752Z" fill="white" stroke="white" stroke-width="0.197872"/>
</svg>
