<svg width="379" height="428" viewBox="0 0 379 428" fill="none" xmlns="http://www.w3.org/2000/svg">
<path d="M107.172 106.544C124.73 94.0392 146.266 88.4136 167.696 90.7341C189.126 93.0546 208.959 103.16 223.433 119.133C237.907 135.106 246.015 155.836 246.219 177.391C246.422 198.945 238.708 219.825 224.539 236.069C210.37 252.313 190.731 262.791 169.349 265.516C147.966 268.242 126.327 263.024 108.536 250.854C90.7455 238.683 78.0404 220.406 72.8311 199.49C67.6218 178.573 70.2707 156.472 80.2752 137.379L96.3668 145.811C88.4276 160.962 86.3256 178.501 90.4595 195.099C94.5934 211.698 104.676 226.202 118.794 235.86C132.912 245.518 150.084 249.658 167.052 247.495C184.02 245.333 199.604 237.017 210.848 224.127C222.093 211.236 228.214 194.667 228.053 177.562C227.891 160.458 221.457 144.007 209.971 131.332C198.485 118.656 182.747 110.637 165.74 108.795C148.734 106.954 131.644 111.418 117.711 121.341L107.172 106.544Z" fill="#1C75BC"/>
<path d="M82.2504 133.811C87.6976 124.493 94.8128 116.256 103.241 109.512L114.591 123.696C107.903 129.048 102.257 135.585 97.9341 142.979L82.2504 133.811Z" fill="#F29C49"/>
<path d="M17.3691 70.3379C17.3691 70.0449 17.3236 69.7845 17.2324 69.5566C17.1478 69.3288 16.9948 69.1204 16.7734 68.9316C16.5521 68.7428 16.2396 68.5605 15.8359 68.3848C15.4388 68.2025 14.931 68.0169 14.3125 67.8281C13.6354 67.6198 13.0104 67.3887 12.4375 67.1348C11.8711 66.8743 11.3763 66.5749 10.9531 66.2363C10.5299 65.8913 10.2012 65.4974 9.9668 65.0547C9.73242 64.6055 9.61523 64.0879 9.61523 63.502C9.61523 62.9225 9.73568 62.3952 9.97656 61.9199C10.224 61.4447 10.5723 61.0345 11.0215 60.6895C11.4772 60.3379 12.0143 60.0677 12.6328 59.8789C13.2513 59.6836 13.9349 59.5859 14.6836 59.5859C15.7383 59.5859 16.6465 59.7812 17.4082 60.1719C18.1764 60.5625 18.7656 61.0866 19.1758 61.7441C19.5924 62.4017 19.8008 63.1276 19.8008 63.9219H17.3691C17.3691 63.4531 17.2682 63.0397 17.0664 62.6816C16.8711 62.3171 16.5716 62.0306 16.168 61.8223C15.7708 61.6139 15.2663 61.5098 14.6543 61.5098C14.0749 61.5098 13.5931 61.5977 13.209 61.7734C12.8249 61.9492 12.5384 62.1868 12.3496 62.4863C12.1608 62.7858 12.0664 63.1243 12.0664 63.502C12.0664 63.7689 12.1283 64.013 12.252 64.2344C12.3757 64.4492 12.5645 64.651 12.8184 64.8398C13.0723 65.0221 13.3913 65.1947 13.7754 65.3574C14.1595 65.5202 14.612 65.6764 15.1328 65.8262C15.9206 66.0605 16.6074 66.321 17.1934 66.6074C17.7793 66.8874 18.2676 67.2064 18.6582 67.5645C19.0488 67.9225 19.3418 68.3294 19.5371 68.7852C19.7324 69.2344 19.8301 69.7454 19.8301 70.3184C19.8301 70.9173 19.7096 71.4577 19.4688 71.9395C19.2279 72.4147 18.8828 72.8216 18.4336 73.1602C17.9909 73.4922 17.457 73.7493 16.832 73.9316C16.2135 74.1074 15.5234 74.1953 14.7617 74.1953C14.0781 74.1953 13.4043 74.1042 12.7402 73.9219C12.0827 73.7396 11.4837 73.4629 10.9434 73.0918C10.403 72.7142 9.97331 72.2454 9.6543 71.6855C9.33529 71.1191 9.17578 70.4583 9.17578 69.7031H11.627C11.627 70.1654 11.7051 70.5592 11.8613 70.8848C12.0241 71.2103 12.2487 71.4772 12.5352 71.6855C12.8216 71.8874 13.1536 72.0371 13.5312 72.1348C13.9154 72.2324 14.3255 72.2812 14.7617 72.2812C15.3346 72.2812 15.8132 72.1999 16.1973 72.0371C16.5879 71.8743 16.8809 71.6465 17.0762 71.3535C17.2715 71.0605 17.3691 70.722 17.3691 70.3379ZM26.4219 74.1953C25.6406 74.1953 24.9342 74.0684 24.3027 73.8145C23.6777 73.554 23.1439 73.1927 22.7012 72.7305C22.265 72.2682 21.9297 71.7246 21.6953 71.0996C21.4609 70.4746 21.3438 69.8008 21.3438 69.0781V68.6875C21.3438 67.8607 21.4642 67.112 21.7051 66.4414C21.946 65.7708 22.2812 65.1979 22.7109 64.7227C23.1406 64.2409 23.6484 63.873 24.2344 63.6191C24.8203 63.3652 25.4551 63.2383 26.1387 63.2383C26.8939 63.2383 27.5547 63.3652 28.1211 63.6191C28.6875 63.873 29.1562 64.2311 29.5273 64.6934C29.9049 65.1491 30.1849 65.6927 30.3672 66.3242C30.556 66.9557 30.6504 67.6523 30.6504 68.4141V69.4199H22.4863V67.7305H28.3262V67.5449C28.3132 67.1217 28.2285 66.7246 28.0723 66.3535C27.9225 65.9824 27.6914 65.6829 27.3789 65.4551C27.0664 65.2272 26.6497 65.1133 26.1289 65.1133C25.7383 65.1133 25.39 65.1979 25.084 65.3672C24.7845 65.5299 24.5339 65.7676 24.332 66.0801C24.1302 66.3926 23.974 66.7702 23.8633 67.2129C23.7591 67.6491 23.707 68.1406 23.707 68.6875V69.0781C23.707 69.5404 23.7689 69.9701 23.8926 70.3672C24.0228 70.7578 24.2116 71.0996 24.459 71.3926C24.7064 71.6855 25.0059 71.9167 25.3574 72.0859C25.709 72.2487 26.1094 72.3301 26.5586 72.3301C27.125 72.3301 27.6296 72.2161 28.0723 71.9883C28.515 71.7604 28.8991 71.4382 29.2246 71.0215L30.4648 72.2227C30.237 72.5547 29.9408 72.8737 29.5762 73.1797C29.2116 73.4792 28.7656 73.7233 28.2383 73.9121C27.7174 74.1009 27.112 74.1953 26.4219 74.1953ZM35.0059 59V74H32.6426V59H35.0059ZM40.1035 59V74H37.7402V59H40.1035ZM47.3398 74.1953C46.5586 74.1953 45.8522 74.0684 45.2207 73.8145C44.5957 73.554 44.0618 73.1927 43.6191 72.7305C43.1829 72.2682 42.8477 71.7246 42.6133 71.0996C42.3789 70.4746 42.2617 69.8008 42.2617 69.0781V68.6875C42.2617 67.8607 42.3822 67.112 42.623 66.4414C42.8639 65.7708 43.1992 65.1979 43.6289 64.7227C44.0586 64.2409 44.5664 63.873 45.1523 63.6191C45.7383 63.3652 46.373 63.2383 47.0566 63.2383C47.8118 63.2383 48.4727 63.3652 49.0391 63.6191C49.6055 63.873 50.0742 64.2311 50.4453 64.6934C50.8229 65.1491 51.1029 65.6927 51.2852 66.3242C51.474 66.9557 51.5684 67.6523 51.5684 68.4141V69.4199H43.4043V67.7305H49.2441V67.5449C49.2311 67.1217 49.1465 66.7246 48.9902 66.3535C48.8405 65.9824 48.6094 65.6829 48.2969 65.4551C47.9844 65.2272 47.5677 65.1133 47.0469 65.1133C46.6562 65.1133 46.3079 65.1979 46.002 65.3672C45.7025 65.5299 45.4518 65.7676 45.25 66.0801C45.0482 66.3926 44.8919 66.7702 44.7812 67.2129C44.6771 67.6491 44.625 68.1406 44.625 68.6875V69.0781C44.625 69.5404 44.6868 69.9701 44.8105 70.3672C44.9408 70.7578 45.1296 71.0996 45.377 71.3926C45.6243 71.6855 45.9238 71.9167 46.2754 72.0859C46.627 72.2487 47.0273 72.3301 47.4766 72.3301C48.043 72.3301 48.5475 72.2161 48.9902 71.9883C49.4329 71.7604 49.8171 71.4382 50.1426 71.0215L51.3828 72.2227C51.1549 72.5547 50.8587 72.8737 50.4941 73.1797C50.1296 73.4792 49.6836 73.7233 49.1562 73.9121C48.6354 74.1009 48.0299 74.1953 47.3398 74.1953ZM55.7676 65.4453V74H53.4141V63.4336H55.6602L55.7676 65.4453ZM59 63.3652L58.9805 65.5527C58.8372 65.5267 58.681 65.5072 58.5117 65.4941C58.349 65.4811 58.1862 65.4746 58.0234 65.4746C57.6198 65.4746 57.265 65.5332 56.959 65.6504C56.653 65.7611 56.3958 65.9238 56.1875 66.1387C55.9857 66.347 55.8294 66.6009 55.7188 66.9004C55.6081 67.1999 55.543 67.5352 55.5234 67.9062L54.9863 67.9453C54.9863 67.2812 55.0514 66.666 55.1816 66.0996C55.3118 65.5332 55.5072 65.0352 55.7676 64.6055C56.0345 64.1758 56.3665 63.8405 56.7637 63.5996C57.1673 63.3587 57.6328 63.2383 58.1602 63.2383C58.3034 63.2383 58.4564 63.2513 58.6191 63.2773C58.7884 63.3034 58.9154 63.3327 59 63.3652ZM66.4023 71.1387C66.4023 70.9043 66.3438 70.6927 66.2266 70.5039C66.1094 70.3086 65.8848 70.1328 65.5527 69.9766C65.2272 69.8203 64.7454 69.6771 64.1074 69.5469C63.5475 69.4232 63.0332 69.2767 62.5645 69.1074C62.1022 68.9316 61.7051 68.7201 61.373 68.4727C61.041 68.2253 60.7839 67.9323 60.6016 67.5938C60.4193 67.2552 60.3281 66.8646 60.3281 66.4219C60.3281 65.9922 60.4225 65.5853 60.6113 65.2012C60.8001 64.8171 61.0703 64.4785 61.4219 64.1855C61.7734 63.8926 62.1999 63.6615 62.7012 63.4922C63.209 63.3229 63.7754 63.2383 64.4004 63.2383C65.2858 63.2383 66.0443 63.388 66.6758 63.6875C67.3138 63.9805 67.8021 64.3809 68.1406 64.8887C68.4792 65.39 68.6484 65.9564 68.6484 66.5879H66.2949C66.2949 66.3079 66.2233 66.0475 66.0801 65.8066C65.9434 65.5592 65.735 65.3607 65.4551 65.2109C65.1751 65.0547 64.8236 64.9766 64.4004 64.9766C63.9967 64.9766 63.6615 65.0417 63.3945 65.1719C63.1341 65.2956 62.9388 65.4583 62.8086 65.6602C62.6849 65.862 62.623 66.0833 62.623 66.3242C62.623 66.5 62.6556 66.6595 62.7207 66.8027C62.7923 66.9395 62.9095 67.0664 63.0723 67.1836C63.235 67.2943 63.4564 67.3984 63.7363 67.4961C64.0228 67.5938 64.3809 67.6882 64.8105 67.7793C65.6178 67.9486 66.3112 68.1667 66.8906 68.4336C67.4766 68.694 67.9258 69.0326 68.2383 69.4492C68.5508 69.8594 68.707 70.3802 68.707 71.0117C68.707 71.4805 68.6061 71.9102 68.4043 72.3008C68.209 72.6849 67.9225 73.0202 67.5449 73.3066C67.1673 73.5866 66.7148 73.8047 66.1875 73.9609C65.6667 74.1172 65.0807 74.1953 64.4297 74.1953C63.4727 74.1953 62.6621 74.026 61.998 73.6875C61.334 73.3424 60.8294 72.903 60.4844 72.3691C60.1458 71.8288 59.9766 71.2689 59.9766 70.6895H62.252C62.278 71.1257 62.3984 71.474 62.6133 71.7344C62.8346 71.9883 63.1081 72.1738 63.4336 72.291C63.7656 72.4017 64.1074 72.457 64.459 72.457C64.8822 72.457 65.237 72.4017 65.5234 72.291C65.8099 72.1738 66.028 72.0176 66.1777 71.8223C66.3275 71.6204 66.4023 71.3926 66.4023 71.1387Z" fill="#19486D"/>
<path d="M18.9805 16.5039V45H13.3555V22.9883L6.59766 25.1367V20.7031L18.375 16.5039H18.9805ZM33.5312 32.0508L29.0391 30.9766L30.6602 16.5625H46.6367V21.1133H35.2891L34.5859 27.4219C34.9635 27.2005 35.5365 26.9661 36.3047 26.7188C37.0729 26.4583 37.9323 26.3281 38.8828 26.3281C40.263 26.3281 41.487 26.543 42.5547 26.9727C43.6224 27.4023 44.5273 28.0273 45.2695 28.8477C46.0247 29.668 46.5977 30.6706 46.9883 31.8555C47.3789 33.0404 47.5742 34.3815 47.5742 35.8789C47.5742 37.1419 47.3789 38.3464 46.9883 39.4922C46.5977 40.625 46.0052 41.6406 45.2109 42.5391C44.4167 43.4245 43.4206 44.1211 42.2227 44.6289C41.0247 45.1367 39.6055 45.3906 37.9648 45.3906C36.7409 45.3906 35.556 45.2083 34.4102 44.8438C33.2773 44.4792 32.2552 43.9388 31.3438 43.2227C30.4453 42.5065 29.7227 41.6406 29.1758 40.625C28.6419 39.5964 28.362 38.4245 28.3359 37.1094H33.9219C34 37.9167 34.2083 38.6133 34.5469 39.1992C34.8984 39.7721 35.3607 40.2148 35.9336 40.5273C36.5065 40.8398 37.1771 40.9961 37.9453 40.9961C38.6615 40.9961 39.2734 40.8594 39.7812 40.5859C40.2891 40.3125 40.6992 39.9349 41.0117 39.4531C41.3242 38.9583 41.5521 38.3854 41.6953 37.7344C41.8516 37.0703 41.9297 36.3542 41.9297 35.5859C41.9297 34.8177 41.8385 34.1211 41.6562 33.4961C41.474 32.8711 41.194 32.3307 40.8164 31.875C40.4388 31.4193 39.957 31.0677 39.3711 30.8203C38.7982 30.5729 38.1276 30.4492 37.3594 30.4492C36.3177 30.4492 35.5104 30.612 34.9375 30.9375C34.3776 31.263 33.9089 31.6341 33.5312 32.0508ZM57.6523 16.5625V45H51.793V16.5625H57.6523ZM74.6836 16.5625L63.4141 30.6055L56.9102 37.5977L55.8555 32.0508L60.25 26.0352L67.4961 16.5625H74.6836ZM68.0234 45L59.6445 31.8555L63.9805 28.2227L74.957 45H68.0234Z" fill="#19486D"/>
<path d="M300.328 227.574H296.705L296.686 225.787H299.85C300.383 225.787 300.836 225.709 301.207 225.553C301.585 225.39 301.871 225.159 302.066 224.859C302.262 224.553 302.359 224.186 302.359 223.756C302.359 223.281 302.268 222.893 302.086 222.594C301.904 222.294 301.624 222.076 301.246 221.939C300.875 221.803 300.4 221.734 299.82 221.734H297.447V234H294.996V219.781H299.82C300.602 219.781 301.298 219.856 301.91 220.006C302.529 220.156 303.053 220.39 303.482 220.709C303.919 221.021 304.247 221.419 304.469 221.9C304.697 222.382 304.811 222.955 304.811 223.619C304.811 224.205 304.671 224.742 304.391 225.23C304.111 225.712 303.697 226.106 303.15 226.412C302.604 226.718 301.923 226.9 301.109 226.959L300.328 227.574ZM300.221 234H295.934L297.037 232.057H300.221C300.774 232.057 301.236 231.965 301.607 231.783C301.979 231.594 302.255 231.337 302.438 231.012C302.626 230.68 302.721 230.292 302.721 229.85C302.721 229.387 302.639 228.987 302.477 228.648C302.314 228.303 302.057 228.04 301.705 227.857C301.354 227.669 300.895 227.574 300.328 227.574H297.574L297.594 225.787H301.178L301.734 226.461C302.516 226.487 303.157 226.66 303.658 226.979C304.166 227.298 304.544 227.711 304.791 228.219C305.038 228.727 305.162 229.273 305.162 229.859C305.162 230.764 304.964 231.523 304.566 232.135C304.176 232.747 303.613 233.212 302.877 233.531C302.141 233.844 301.256 234 300.221 234ZM313.756 231.51V223.434H316.119V234H313.893L313.756 231.51ZM314.088 229.312L314.879 229.293C314.879 230.003 314.801 230.657 314.645 231.256C314.488 231.848 314.247 232.366 313.922 232.809C313.596 233.245 313.18 233.587 312.672 233.834C312.164 234.075 311.555 234.195 310.846 234.195C310.331 234.195 309.859 234.12 309.43 233.971C309 233.821 308.629 233.59 308.316 233.277C308.01 232.965 307.773 232.558 307.604 232.057C307.434 231.555 307.35 230.956 307.35 230.26V223.434H309.703V230.279C309.703 230.663 309.749 230.986 309.84 231.246C309.931 231.5 310.055 231.705 310.211 231.861C310.367 232.018 310.549 232.128 310.758 232.193C310.966 232.258 311.188 232.291 311.422 232.291C312.092 232.291 312.62 232.161 313.004 231.9C313.395 231.633 313.671 231.275 313.834 230.826C314.003 230.377 314.088 229.872 314.088 229.312ZM321.598 232.848L324.469 223.434H326.988L322.75 235.611C322.652 235.872 322.525 236.155 322.369 236.461C322.213 236.767 322.008 237.057 321.754 237.33C321.507 237.61 321.197 237.835 320.826 238.004C320.455 238.18 320.006 238.268 319.479 238.268C319.27 238.268 319.068 238.248 318.873 238.209C318.684 238.176 318.505 238.141 318.336 238.102L318.326 236.305C318.391 236.311 318.469 236.318 318.561 236.324C318.658 236.331 318.736 236.334 318.795 236.334C319.186 236.334 319.511 236.285 319.771 236.188C320.032 236.096 320.243 235.947 320.406 235.738C320.576 235.53 320.719 235.25 320.836 234.898L321.598 232.848ZM319.977 223.434L322.486 231.344L322.906 233.824L321.275 234.244L317.438 223.434H319.977ZM332.857 234.195C332.076 234.195 331.37 234.068 330.738 233.814C330.113 233.554 329.579 233.193 329.137 232.73C328.701 232.268 328.365 231.725 328.131 231.1C327.896 230.475 327.779 229.801 327.779 229.078V228.688C327.779 227.861 327.9 227.112 328.141 226.441C328.382 225.771 328.717 225.198 329.146 224.723C329.576 224.241 330.084 223.873 330.67 223.619C331.256 223.365 331.891 223.238 332.574 223.238C333.329 223.238 333.99 223.365 334.557 223.619C335.123 223.873 335.592 224.231 335.963 224.693C336.34 225.149 336.62 225.693 336.803 226.324C336.992 226.956 337.086 227.652 337.086 228.414V229.42H328.922V227.73H334.762V227.545C334.749 227.122 334.664 226.725 334.508 226.354C334.358 225.982 334.127 225.683 333.814 225.455C333.502 225.227 333.085 225.113 332.564 225.113C332.174 225.113 331.826 225.198 331.52 225.367C331.22 225.53 330.969 225.768 330.768 226.08C330.566 226.393 330.41 226.77 330.299 227.213C330.195 227.649 330.143 228.141 330.143 228.688V229.078C330.143 229.54 330.204 229.97 330.328 230.367C330.458 230.758 330.647 231.1 330.895 231.393C331.142 231.686 331.441 231.917 331.793 232.086C332.145 232.249 332.545 232.33 332.994 232.33C333.561 232.33 334.065 232.216 334.508 231.988C334.951 231.76 335.335 231.438 335.66 231.021L336.9 232.223C336.673 232.555 336.376 232.874 336.012 233.18C335.647 233.479 335.201 233.723 334.674 233.912C334.153 234.101 333.548 234.195 332.857 234.195ZM341.285 225.445V234H338.932V223.434H341.178L341.285 225.445ZM344.518 223.365L344.498 225.553C344.355 225.527 344.199 225.507 344.029 225.494C343.867 225.481 343.704 225.475 343.541 225.475C343.137 225.475 342.783 225.533 342.477 225.65C342.171 225.761 341.913 225.924 341.705 226.139C341.503 226.347 341.347 226.601 341.236 226.9C341.126 227.2 341.061 227.535 341.041 227.906L340.504 227.945C340.504 227.281 340.569 226.666 340.699 226.1C340.829 225.533 341.025 225.035 341.285 224.605C341.552 224.176 341.884 223.84 342.281 223.6C342.685 223.359 343.15 223.238 343.678 223.238C343.821 223.238 343.974 223.251 344.137 223.277C344.306 223.303 344.433 223.333 344.518 223.365ZM351.92 231.139C351.92 230.904 351.861 230.693 351.744 230.504C351.627 230.309 351.402 230.133 351.07 229.977C350.745 229.82 350.263 229.677 349.625 229.547C349.065 229.423 348.551 229.277 348.082 229.107C347.62 228.932 347.223 228.72 346.891 228.473C346.559 228.225 346.301 227.932 346.119 227.594C345.937 227.255 345.846 226.865 345.846 226.422C345.846 225.992 345.94 225.585 346.129 225.201C346.318 224.817 346.588 224.479 346.939 224.186C347.291 223.893 347.717 223.661 348.219 223.492C348.727 223.323 349.293 223.238 349.918 223.238C350.803 223.238 351.562 223.388 352.193 223.688C352.831 223.98 353.32 224.381 353.658 224.889C353.997 225.39 354.166 225.956 354.166 226.588H351.812C351.812 226.308 351.741 226.048 351.598 225.807C351.461 225.559 351.253 225.361 350.973 225.211C350.693 225.055 350.341 224.977 349.918 224.977C349.514 224.977 349.179 225.042 348.912 225.172C348.652 225.296 348.456 225.458 348.326 225.66C348.202 225.862 348.141 226.083 348.141 226.324C348.141 226.5 348.173 226.66 348.238 226.803C348.31 226.939 348.427 227.066 348.59 227.184C348.753 227.294 348.974 227.398 349.254 227.496C349.54 227.594 349.898 227.688 350.328 227.779C351.135 227.949 351.829 228.167 352.408 228.434C352.994 228.694 353.443 229.033 353.756 229.449C354.068 229.859 354.225 230.38 354.225 231.012C354.225 231.48 354.124 231.91 353.922 232.301C353.727 232.685 353.44 233.02 353.062 233.307C352.685 233.587 352.232 233.805 351.705 233.961C351.184 234.117 350.598 234.195 349.947 234.195C348.99 234.195 348.18 234.026 347.516 233.688C346.852 233.342 346.347 232.903 346.002 232.369C345.663 231.829 345.494 231.269 345.494 230.689H347.77C347.796 231.126 347.916 231.474 348.131 231.734C348.352 231.988 348.626 232.174 348.951 232.291C349.283 232.402 349.625 232.457 349.977 232.457C350.4 232.457 350.755 232.402 351.041 232.291C351.327 232.174 351.546 232.018 351.695 231.822C351.845 231.62 351.92 231.393 351.92 231.139Z" fill="#19486D"/>
<path d="M293.434 201.605V206H273.98V202.25L283.18 192.387C284.104 191.358 284.833 190.453 285.367 189.672C285.901 188.878 286.285 188.168 286.52 187.543C286.767 186.905 286.891 186.299 286.891 185.727C286.891 184.867 286.747 184.132 286.461 183.52C286.174 182.895 285.751 182.413 285.191 182.074C284.645 181.736 283.967 181.566 283.16 181.566C282.301 181.566 281.559 181.775 280.934 182.191C280.322 182.608 279.853 183.188 279.527 183.93C279.215 184.672 279.059 185.512 279.059 186.449H273.414C273.414 184.757 273.818 183.207 274.625 181.801C275.432 180.382 276.572 179.255 278.043 178.422C279.514 177.576 281.259 177.152 283.277 177.152C285.27 177.152 286.949 177.478 288.316 178.129C289.697 178.767 290.738 179.691 291.441 180.902C292.158 182.1 292.516 183.533 292.516 185.199C292.516 186.137 292.366 187.055 292.066 187.953C291.767 188.839 291.337 189.724 290.777 190.609C290.23 191.482 289.566 192.367 288.785 193.266C288.004 194.164 287.138 195.095 286.188 196.059L281.246 201.605H293.434ZM310.66 177.504V206H305.035V183.988L298.277 186.137V181.703L310.055 177.504H310.66ZM325.68 189.34H328.688C329.651 189.34 330.445 189.177 331.07 188.852C331.695 188.513 332.158 188.044 332.457 187.445C332.77 186.833 332.926 186.124 332.926 185.316C332.926 184.587 332.783 183.943 332.496 183.383C332.223 182.81 331.799 182.367 331.227 182.055C330.654 181.729 329.931 181.566 329.059 181.566C328.368 181.566 327.73 181.703 327.145 181.977C326.559 182.25 326.09 182.634 325.738 183.129C325.387 183.624 325.211 184.223 325.211 184.926H319.566C319.566 183.363 319.983 182.003 320.816 180.844C321.663 179.685 322.796 178.78 324.215 178.129C325.634 177.478 327.197 177.152 328.902 177.152C330.829 177.152 332.516 177.465 333.961 178.09C335.406 178.702 336.533 179.607 337.34 180.805C338.147 182.003 338.551 183.487 338.551 185.258C338.551 186.156 338.342 187.029 337.926 187.875C337.509 188.708 336.91 189.464 336.129 190.141C335.361 190.805 334.423 191.339 333.316 191.742C332.21 192.133 330.966 192.328 329.586 192.328H325.68V189.34ZM325.68 193.617V190.707H329.586C331.135 190.707 332.496 190.883 333.668 191.234C334.84 191.586 335.823 192.094 336.617 192.758C337.411 193.409 338.01 194.184 338.414 195.082C338.818 195.967 339.02 196.951 339.02 198.031C339.02 199.359 338.766 200.544 338.258 201.586C337.75 202.615 337.034 203.487 336.109 204.203C335.198 204.919 334.13 205.466 332.906 205.844C331.682 206.208 330.348 206.391 328.902 206.391C327.704 206.391 326.526 206.228 325.367 205.902C324.221 205.564 323.18 205.062 322.242 204.398C321.318 203.721 320.576 202.875 320.016 201.859C319.469 200.831 319.195 199.613 319.195 198.207H324.84C324.84 198.936 325.022 199.587 325.387 200.16C325.751 200.733 326.253 201.182 326.891 201.508C327.542 201.833 328.264 201.996 329.059 201.996C329.957 201.996 330.725 201.833 331.363 201.508C332.014 201.169 332.509 200.701 332.848 200.102C333.199 199.49 333.375 198.78 333.375 197.973C333.375 196.931 333.186 196.098 332.809 195.473C332.431 194.835 331.891 194.366 331.188 194.066C330.484 193.767 329.651 193.617 328.688 193.617H325.68ZM346.148 177.562H351.109L358.414 198.441L365.719 177.562H370.68L360.406 206H356.422L346.148 177.562ZM343.473 177.562H348.414L349.312 197.914V206H343.473V177.562ZM368.414 177.562H373.375V206H367.516V197.914L368.414 177.562Z" fill="#19486D"/>
<path d="M87 118.223L59 95.2227H19" stroke="#00AEEF"/>
<circle cx="3.5" cy="3.5" r="3.5" transform="matrix(-1 0 0 1 20 91.2227)" fill="#00AEEF"/>
<path d="M243 235L271 258H311" stroke="#00AEEF"/>
<circle cx="3.5" cy="3.5" r="3.5" transform="matrix(1 0 0 -1 310 262)" fill="#00AEEF"/>
<path d="M116.959 195.166C116.279 195.166 115.667 195.055 115.125 194.834C114.583 194.613 114.121 194.306 113.739 193.913C113.362 193.514 113.072 193.052 112.867 192.526C112.668 191.995 112.568 191.425 112.568 190.816V190.484C112.568 189.793 112.668 189.165 112.867 188.6C113.066 188.03 113.349 187.54 113.714 187.131C114.079 186.721 114.516 186.406 115.025 186.185C115.535 185.963 116.096 185.853 116.71 185.853C117.347 185.853 117.909 185.96 118.396 186.176C118.882 186.387 119.289 186.685 119.616 187.073C119.942 187.46 120.188 187.925 120.354 188.467C120.521 189.004 120.604 189.599 120.604 190.252V191.173H113.564V189.663H118.445V189.497C118.434 189.148 118.368 188.83 118.246 188.542C118.124 188.249 117.936 188.016 117.682 187.845C117.427 187.668 117.098 187.579 116.694 187.579C116.367 187.579 116.082 187.651 115.839 187.795C115.601 187.933 115.402 188.132 115.241 188.393C115.086 188.647 114.97 188.951 114.893 189.306C114.815 189.66 114.776 190.053 114.776 190.484V190.816C114.776 191.193 114.826 191.541 114.926 191.862C115.031 192.183 115.183 192.463 115.382 192.701C115.587 192.933 115.831 193.116 116.113 193.249C116.401 193.376 116.727 193.439 117.092 193.439C117.552 193.439 117.967 193.351 118.337 193.174C118.714 192.991 119.04 192.723 119.317 192.369L120.421 193.514C120.233 193.791 119.978 194.056 119.657 194.311C119.342 194.566 118.96 194.773 118.512 194.934C118.063 195.089 117.546 195.166 116.959 195.166ZM129.311 191.024H131.594C131.533 191.832 131.309 192.549 130.921 193.174C130.534 193.794 129.994 194.281 129.303 194.635C128.611 194.989 127.773 195.166 126.788 195.166C126.029 195.166 125.346 195.033 124.737 194.768C124.134 194.496 123.617 194.112 123.185 193.614C122.759 193.11 122.432 192.507 122.206 191.804C121.979 191.096 121.865 190.302 121.865 189.422V188.5C121.865 187.621 121.981 186.826 122.214 186.118C122.446 185.41 122.778 184.807 123.21 184.309C123.647 183.805 124.17 183.418 124.779 183.146C125.393 182.875 126.079 182.74 126.837 182.74C127.822 182.74 128.655 182.922 129.336 183.288C130.017 183.647 130.545 184.143 130.921 184.773C131.298 185.404 131.525 186.129 131.602 186.948H129.319C129.275 186.439 129.164 186.007 128.987 185.653C128.816 185.299 128.556 185.031 128.207 184.848C127.864 184.66 127.407 184.566 126.837 184.566C126.395 184.566 126.005 184.649 125.667 184.815C125.335 184.981 125.058 185.23 124.837 185.562C124.616 185.889 124.45 186.298 124.339 186.791C124.228 187.278 124.173 187.842 124.173 188.484V189.422C124.173 190.036 124.223 190.587 124.322 191.074C124.422 191.561 124.577 191.973 124.787 192.311C124.997 192.648 125.269 192.905 125.601 193.083C125.933 193.26 126.328 193.348 126.788 193.348C127.347 193.348 127.8 193.26 128.149 193.083C128.503 192.905 128.771 192.645 128.954 192.302C129.142 191.959 129.261 191.533 129.311 191.024ZM132.806 190.601V190.426C132.806 189.768 132.9 189.162 133.088 188.608C133.276 188.049 133.55 187.565 133.91 187.156C134.269 186.746 134.709 186.428 135.229 186.201C135.75 185.969 136.342 185.853 137.006 185.853C137.681 185.853 138.279 185.969 138.799 186.201C139.325 186.428 139.767 186.746 140.127 187.156C140.487 187.565 140.761 188.049 140.949 188.608C141.137 189.162 141.231 189.768 141.231 190.426V190.601C141.231 191.254 141.137 191.86 140.949 192.418C140.761 192.972 140.487 193.456 140.127 193.871C139.767 194.281 139.327 194.599 138.807 194.826C138.287 195.053 137.692 195.166 137.022 195.166C136.358 195.166 135.764 195.053 135.238 194.826C134.712 194.599 134.269 194.281 133.91 193.871C133.55 193.456 133.276 192.972 133.088 192.418C132.9 191.86 132.806 191.254 132.806 190.601ZM134.997 190.426V190.601C134.997 190.993 135.036 191.361 135.113 191.705C135.191 192.048 135.31 192.349 135.47 192.609C135.631 192.869 135.838 193.074 136.093 193.224C136.353 193.368 136.663 193.439 137.022 193.439C137.377 193.439 137.681 193.368 137.936 193.224C138.19 193.074 138.398 192.869 138.558 192.609C138.724 192.349 138.846 192.048 138.923 191.705C139.001 191.361 139.04 190.993 139.04 190.601V190.426C139.04 190.039 139.001 189.676 138.923 189.339C138.846 188.996 138.724 188.694 138.558 188.434C138.398 188.168 138.187 187.961 137.927 187.812C137.673 187.657 137.366 187.579 137.006 187.579C136.652 187.579 136.347 187.657 136.093 187.812C135.838 187.961 135.631 188.168 135.47 188.434C135.31 188.694 135.191 188.996 135.113 189.339C135.036 189.676 134.997 190.039 134.997 190.426ZM145.008 187.861V195H142.816V186.019H144.883L145.008 187.861ZM144.684 190.186H144.012C144.012 189.56 144.086 188.985 144.236 188.459C144.391 187.933 144.618 187.477 144.917 187.089C145.215 186.696 145.583 186.392 146.021 186.176C146.463 185.96 146.975 185.853 147.556 185.853C147.96 185.853 148.331 185.913 148.668 186.035C149.006 186.151 149.297 186.337 149.54 186.591C149.789 186.84 149.98 187.167 150.113 187.571C150.246 187.969 150.312 188.448 150.312 189.007V195H148.121V189.231C148.121 188.81 148.06 188.481 147.938 188.243C147.822 188.005 147.653 187.839 147.432 187.745C147.21 187.646 146.945 187.596 146.635 187.596C146.292 187.596 145.996 187.665 145.747 187.803C145.503 187.936 145.301 188.121 145.141 188.359C144.986 188.597 144.869 188.871 144.792 189.181C144.72 189.491 144.684 189.826 144.684 190.186ZM150.146 189.779L149.241 189.945C149.247 189.38 149.324 188.852 149.474 188.359C149.623 187.861 149.842 187.427 150.129 187.056C150.423 186.68 150.785 186.387 151.217 186.176C151.654 185.96 152.158 185.853 152.728 185.853C153.17 185.853 153.569 185.916 153.923 186.043C154.283 186.165 154.59 186.362 154.844 186.633C155.099 186.898 155.292 187.244 155.425 187.67C155.564 188.097 155.633 188.617 155.633 189.231V195H153.425V189.223C153.425 188.785 153.364 188.451 153.242 188.218C153.126 187.986 152.957 187.825 152.736 187.737C152.514 187.643 152.254 187.596 151.956 187.596C151.651 187.596 151.386 187.654 151.159 187.77C150.937 187.881 150.749 188.036 150.594 188.235C150.445 188.434 150.331 188.667 150.254 188.932C150.182 189.192 150.146 189.474 150.146 189.779ZM159.783 187.861V195H157.592V186.019H159.659L159.783 187.861ZM159.459 190.186H158.787C158.787 189.56 158.862 188.985 159.011 188.459C159.166 187.933 159.393 187.477 159.692 187.089C159.991 186.696 160.359 186.392 160.796 186.176C161.239 185.96 161.75 185.853 162.332 185.853C162.736 185.853 163.106 185.913 163.444 186.035C163.781 186.151 164.072 186.337 164.315 186.591C164.564 186.84 164.755 187.167 164.888 187.571C165.021 187.969 165.087 188.448 165.087 189.007V195H162.896V189.231C162.896 188.81 162.835 188.481 162.713 188.243C162.597 188.005 162.428 187.839 162.207 187.745C161.986 187.646 161.72 187.596 161.41 187.596C161.067 187.596 160.771 187.665 160.522 187.803C160.278 187.936 160.076 188.121 159.916 188.359C159.761 188.597 159.645 188.871 159.567 189.181C159.495 189.491 159.459 189.826 159.459 190.186ZM164.921 189.779L164.017 189.945C164.022 189.38 164.1 188.852 164.249 188.359C164.398 187.861 164.617 187.427 164.905 187.056C165.198 186.68 165.561 186.387 165.992 186.176C166.429 185.96 166.933 185.853 167.503 185.853C167.946 185.853 168.344 185.916 168.698 186.043C169.058 186.165 169.365 186.362 169.62 186.633C169.874 186.898 170.068 187.244 170.201 187.67C170.339 188.097 170.408 188.617 170.408 189.231V195H168.2V189.223C168.2 188.785 168.139 188.451 168.018 188.218C167.901 187.986 167.733 187.825 167.511 187.737C167.29 187.643 167.03 187.596 166.731 187.596C166.427 187.596 166.161 187.654 165.934 187.77C165.713 187.881 165.525 188.036 165.37 188.235C165.22 188.434 165.107 188.667 165.029 188.932C164.957 189.192 164.921 189.474 164.921 189.779ZM176.41 195.166C175.729 195.166 175.118 195.055 174.575 194.834C174.033 194.613 173.571 194.306 173.189 193.913C172.813 193.514 172.522 193.052 172.317 192.526C172.118 191.995 172.019 191.425 172.019 190.816V190.484C172.019 189.793 172.118 189.165 172.317 188.6C172.517 188.03 172.799 187.54 173.164 187.131C173.529 186.721 173.966 186.406 174.476 186.185C174.985 185.963 175.546 185.853 176.161 185.853C176.797 185.853 177.359 185.96 177.846 186.176C178.333 186.387 178.739 186.685 179.066 187.073C179.392 187.46 179.639 187.925 179.805 188.467C179.971 189.004 180.054 189.599 180.054 190.252V191.173H173.015V189.663H177.896V189.497C177.884 189.148 177.818 188.83 177.696 188.542C177.575 188.249 177.386 188.016 177.132 187.845C176.877 187.668 176.548 187.579 176.144 187.579C175.818 187.579 175.533 187.651 175.289 187.795C175.051 187.933 174.852 188.132 174.691 188.393C174.536 188.647 174.42 188.951 174.343 189.306C174.265 189.66 174.227 190.053 174.227 190.484V190.816C174.227 191.193 174.276 191.541 174.376 191.862C174.481 192.183 174.633 192.463 174.833 192.701C175.037 192.933 175.281 193.116 175.563 193.249C175.851 193.376 176.177 193.439 176.542 193.439C177.002 193.439 177.417 193.351 177.788 193.174C178.164 192.991 178.49 192.723 178.767 192.369L179.871 193.514C179.683 193.791 179.428 194.056 179.107 194.311C178.792 194.566 178.41 194.773 177.962 194.934C177.514 195.089 176.996 195.166 176.41 195.166ZM183.714 187.853V195H181.523V186.019H183.598L183.714 187.853ZM186.445 185.96L186.412 188.002C186.29 187.98 186.152 187.964 185.997 187.953C185.848 187.942 185.707 187.936 185.574 187.936C185.236 187.936 184.94 187.983 184.686 188.077C184.431 188.166 184.218 188.296 184.046 188.467C183.88 188.639 183.753 188.849 183.665 189.098C183.576 189.342 183.526 189.618 183.515 189.928L183.042 189.87C183.042 189.3 183.1 188.772 183.216 188.285C183.333 187.798 183.501 187.372 183.723 187.006C183.944 186.641 184.221 186.359 184.553 186.16C184.89 185.955 185.278 185.853 185.715 185.853C185.837 185.853 185.967 185.864 186.105 185.886C186.249 185.902 186.362 185.927 186.445 185.96ZM191.168 193.439C191.478 193.439 191.755 193.379 191.999 193.257C192.242 193.135 192.436 192.964 192.58 192.742C192.729 192.521 192.809 192.264 192.82 191.97H194.887C194.876 192.579 194.705 193.124 194.373 193.605C194.041 194.087 193.598 194.469 193.044 194.751C192.497 195.028 191.882 195.166 191.202 195.166C190.51 195.166 189.907 195.05 189.392 194.817C188.877 194.585 188.449 194.261 188.105 193.846C187.768 193.431 187.513 192.95 187.342 192.402C187.176 191.854 187.093 191.267 187.093 190.642V190.376C187.093 189.751 187.176 189.165 187.342 188.617C187.513 188.069 187.768 187.587 188.105 187.172C188.449 186.757 188.877 186.434 189.392 186.201C189.907 185.969 190.507 185.853 191.193 185.853C191.918 185.853 192.555 185.994 193.103 186.276C193.656 186.558 194.088 186.957 194.397 187.471C194.713 187.986 194.876 188.592 194.887 189.289H192.82C192.809 188.968 192.737 188.68 192.604 188.426C192.472 188.171 192.284 187.966 192.04 187.812C191.797 187.657 191.5 187.579 191.152 187.579C190.781 187.579 190.471 187.657 190.222 187.812C189.979 187.966 189.788 188.18 189.649 188.451C189.517 188.716 189.423 189.015 189.367 189.347C189.317 189.674 189.292 190.017 189.292 190.376V190.642C189.292 191.007 189.317 191.356 189.367 191.688C189.423 192.02 189.517 192.319 189.649 192.584C189.788 192.845 189.979 193.052 190.222 193.207C190.471 193.362 190.787 193.439 191.168 193.439ZM200.382 195.166C199.702 195.166 199.09 195.055 198.548 194.834C198.006 194.613 197.543 194.306 197.162 193.913C196.785 193.514 196.495 193.052 196.29 192.526C196.091 191.995 195.991 191.425 195.991 190.816V190.484C195.991 189.793 196.091 189.165 196.29 188.6C196.489 188.03 196.771 187.54 197.137 187.131C197.502 186.721 197.939 186.406 198.448 186.185C198.957 185.963 199.519 185.853 200.133 185.853C200.77 185.853 201.331 185.96 201.818 186.176C202.305 186.387 202.712 186.685 203.039 187.073C203.365 187.46 203.611 187.925 203.777 188.467C203.943 189.004 204.026 189.599 204.026 190.252V191.173H196.987V189.663H201.868V189.497C201.857 189.148 201.791 188.83 201.669 188.542C201.547 188.249 201.359 188.016 201.104 187.845C200.85 187.668 200.521 187.579 200.117 187.579C199.79 187.579 199.505 187.651 199.262 187.795C199.024 187.933 198.825 188.132 198.664 188.393C198.509 188.647 198.393 188.951 198.315 189.306C198.238 189.66 198.199 190.053 198.199 190.484V190.816C198.199 191.193 198.249 191.541 198.349 191.862C198.454 192.183 198.606 192.463 198.805 192.701C199.01 192.933 199.253 193.116 199.536 193.249C199.823 193.376 200.15 193.439 200.515 193.439C200.974 193.439 201.389 193.351 201.76 193.174C202.137 192.991 202.463 192.723 202.74 192.369L203.844 193.514C203.656 193.791 203.401 194.056 203.08 194.311C202.765 194.566 202.383 194.773 201.935 194.934C201.486 195.089 200.969 195.166 200.382 195.166ZM136.923 215.207V217H130.498V215.207H136.923ZM131.195 204.914V217H128.913V204.914H131.195ZM136.084 209.903V211.654H130.498V209.903H136.084ZM136.898 204.914V206.715H130.498V204.914H136.898ZM140.492 209.936V217H138.301V208.019H140.359L140.492 209.936ZM140.144 212.186H139.496C139.502 211.533 139.59 210.94 139.762 210.409C139.933 209.878 140.174 209.421 140.484 209.04C140.799 208.658 141.173 208.364 141.604 208.16C142.036 207.955 142.518 207.853 143.049 207.853C143.48 207.853 143.871 207.913 144.219 208.035C144.568 208.157 144.867 208.351 145.116 208.616C145.37 208.882 145.564 209.23 145.697 209.662C145.835 210.088 145.904 210.614 145.904 211.239V217H143.696V211.223C143.696 210.813 143.635 210.489 143.514 210.251C143.397 210.014 143.226 209.845 142.999 209.745C142.778 209.646 142.504 209.596 142.177 209.596C141.84 209.596 141.544 209.665 141.289 209.803C141.04 209.936 140.83 210.121 140.658 210.359C140.492 210.597 140.365 210.871 140.276 211.181C140.188 211.491 140.144 211.826 140.144 212.186ZM152.786 215.091V210.949C152.786 210.644 152.733 210.382 152.628 210.16C152.523 209.939 152.362 209.767 152.146 209.646C151.931 209.524 151.657 209.463 151.325 209.463C151.031 209.463 150.774 209.513 150.553 209.612C150.337 209.712 150.171 209.853 150.055 210.036C149.938 210.213 149.88 210.417 149.88 210.65H147.681C147.681 210.279 147.769 209.928 147.946 209.596C148.123 209.258 148.375 208.959 148.702 208.699C149.034 208.434 149.429 208.226 149.889 208.077C150.354 207.927 150.874 207.853 151.449 207.853C152.13 207.853 152.736 207.969 153.267 208.201C153.804 208.428 154.224 208.771 154.529 209.23C154.839 209.69 154.994 210.268 154.994 210.965V214.883C154.994 215.332 155.021 215.716 155.077 216.037C155.138 216.353 155.226 216.626 155.342 216.859V217H153.109C153.004 216.773 152.924 216.485 152.869 216.137C152.813 215.783 152.786 215.434 152.786 215.091ZM153.093 211.53L153.109 212.833H151.723C151.38 212.833 151.078 212.869 150.818 212.941C150.558 213.007 150.345 213.107 150.179 213.24C150.013 213.367 149.889 213.522 149.806 213.705C149.723 213.882 149.681 214.084 149.681 214.311C149.681 214.532 149.731 214.731 149.831 214.908C149.936 215.085 150.085 215.226 150.279 215.332C150.478 215.431 150.71 215.481 150.976 215.481C151.363 215.481 151.701 215.403 151.989 215.249C152.277 215.088 152.501 214.894 152.661 214.667C152.822 214.441 152.907 214.225 152.918 214.02L153.549 214.966C153.472 215.193 153.356 215.434 153.201 215.688C153.046 215.943 152.847 216.181 152.603 216.402C152.36 216.624 152.066 216.806 151.723 216.95C151.38 217.094 150.982 217.166 150.528 217.166C149.947 217.166 149.427 217.05 148.967 216.817C148.508 216.585 148.146 216.267 147.88 215.863C147.614 215.459 147.481 215 147.481 214.485C147.481 214.009 147.57 213.588 147.747 213.223C147.924 212.858 148.187 212.551 148.536 212.302C148.884 212.047 149.316 211.856 149.831 211.729C150.351 211.596 150.946 211.53 151.615 211.53H153.093ZM156.961 204.25H159.161V215.016L158.945 217H156.961V204.25ZM164.938 212.418V212.592C164.938 213.262 164.863 213.876 164.714 214.435C164.57 214.994 164.351 215.478 164.058 215.888C163.765 216.292 163.4 216.607 162.962 216.834C162.531 217.055 162.024 217.166 161.443 217.166C160.89 217.166 160.409 217.058 159.999 216.842C159.595 216.626 159.255 216.322 158.978 215.929C158.701 215.531 158.48 215.063 158.314 214.526C158.148 213.984 158.023 213.392 157.94 212.75V212.277C158.023 211.629 158.148 211.037 158.314 210.5C158.48 209.964 158.701 209.496 158.978 209.098C159.255 208.699 159.595 208.392 159.999 208.176C160.403 207.96 160.879 207.853 161.427 207.853C162.013 207.853 162.525 207.966 162.962 208.193C163.405 208.414 163.77 208.73 164.058 209.139C164.351 209.543 164.57 210.025 164.714 210.583C164.863 211.137 164.938 211.748 164.938 212.418ZM162.738 212.592V212.418C162.738 212.036 162.708 211.676 162.647 211.339C162.586 210.996 162.486 210.694 162.348 210.434C162.21 210.174 162.022 209.969 161.784 209.82C161.546 209.67 161.247 209.596 160.887 209.596C160.544 209.596 160.251 209.654 160.007 209.77C159.769 209.886 159.57 210.047 159.41 210.251C159.255 210.456 159.133 210.697 159.044 210.974C158.961 211.25 158.906 211.549 158.878 211.87V213.165C158.917 213.591 159.008 213.976 159.152 214.319C159.296 214.656 159.509 214.925 159.792 215.124C160.079 215.323 160.45 215.423 160.904 215.423C161.258 215.423 161.554 215.354 161.792 215.215C162.03 215.071 162.218 214.872 162.356 214.618C162.495 214.358 162.592 214.056 162.647 213.713C162.708 213.37 162.738 212.996 162.738 212.592ZM168.856 204.25V217H166.656V204.25H168.856ZM174.982 217.166C174.301 217.166 173.69 217.055 173.147 216.834C172.605 216.613 172.143 216.306 171.761 215.913C171.385 215.514 171.094 215.052 170.89 214.526C170.69 213.995 170.591 213.425 170.591 212.816V212.484C170.591 211.793 170.69 211.165 170.89 210.6C171.089 210.03 171.371 209.54 171.736 209.131C172.102 208.721 172.539 208.406 173.048 208.185C173.557 207.963 174.119 207.853 174.733 207.853C175.369 207.853 175.931 207.96 176.418 208.176C176.905 208.387 177.312 208.685 177.638 209.073C177.965 209.46 178.211 209.925 178.377 210.467C178.543 211.004 178.626 211.599 178.626 212.252V213.173H171.587V211.663H176.468V211.497C176.457 211.148 176.39 210.83 176.269 210.542C176.147 210.249 175.959 210.016 175.704 209.845C175.45 209.668 175.12 209.579 174.716 209.579C174.39 209.579 174.105 209.651 173.861 209.795C173.623 209.933 173.424 210.132 173.264 210.393C173.109 210.647 172.993 210.951 172.915 211.306C172.838 211.66 172.799 212.053 172.799 212.484V212.816C172.799 213.193 172.849 213.541 172.948 213.862C173.053 214.183 173.206 214.463 173.405 214.701C173.61 214.933 173.853 215.116 174.135 215.249C174.423 215.376 174.75 215.439 175.115 215.439C175.574 215.439 175.989 215.351 176.36 215.174C176.736 214.991 177.063 214.723 177.339 214.369L178.443 215.514C178.255 215.791 178.001 216.056 177.68 216.311C177.364 216.566 176.982 216.773 176.534 216.934C176.086 217.089 175.569 217.166 174.982 217.166ZM185.482 215.091V204.25H187.69V217H185.698L185.482 215.091ZM179.713 212.617V212.443C179.713 211.757 179.791 211.134 179.946 210.575C180.106 210.011 180.339 209.527 180.643 209.123C180.947 208.719 181.315 208.406 181.747 208.185C182.184 207.963 182.68 207.853 183.233 207.853C183.77 207.853 184.237 207.96 184.636 208.176C185.04 208.392 185.383 208.699 185.665 209.098C185.953 209.496 186.182 209.969 186.354 210.517C186.526 211.059 186.65 211.657 186.728 212.31V212.783C186.65 213.42 186.526 214.003 186.354 214.535C186.182 215.066 185.953 215.531 185.665 215.929C185.383 216.322 185.04 216.626 184.636 216.842C184.232 217.058 183.759 217.166 183.216 217.166C182.668 217.166 182.176 217.053 181.739 216.826C181.307 216.599 180.939 216.281 180.635 215.871C180.336 215.462 180.106 214.98 179.946 214.427C179.791 213.873 179.713 213.27 179.713 212.617ZM181.913 212.443V212.617C181.913 213.005 181.946 213.367 182.013 213.705C182.079 214.042 182.187 214.341 182.336 214.601C182.486 214.856 182.677 215.055 182.909 215.199C183.147 215.343 183.435 215.415 183.772 215.415C184.204 215.415 184.558 215.32 184.835 215.132C185.117 214.939 185.336 214.676 185.491 214.344C185.646 214.006 185.745 213.627 185.79 213.207V211.903C185.767 211.571 185.709 211.264 185.615 210.982C185.527 210.7 185.399 210.456 185.233 210.251C185.073 210.047 184.874 209.886 184.636 209.77C184.398 209.654 184.116 209.596 183.789 209.596C183.451 209.596 183.164 209.67 182.926 209.82C182.688 209.964 182.494 210.166 182.345 210.426C182.195 210.686 182.085 210.987 182.013 211.331C181.946 211.674 181.913 212.044 181.913 212.443Z" fill="#19486D"/>
<path fill-rule="evenodd" clip-rule="evenodd" d="M152.535 165.072C150.361 165.072 148.57 166.863 148.57 169.037C148.57 171.21 150.361 173.001 152.535 173.001C154.708 173.001 156.499 171.21 156.499 169.037C156.499 166.863 154.708 165.072 152.535 165.072ZM152.535 167.715C153.28 167.715 153.856 168.291 153.856 169.037C153.856 169.782 153.28 170.358 152.535 170.358C151.789 170.358 151.213 169.782 151.213 169.037C151.213 168.291 151.789 167.715 152.535 167.715Z" fill="#19486D"/>
<path fill-rule="evenodd" clip-rule="evenodd" d="M165.749 165.072C163.576 165.072 161.785 166.863 161.785 169.037C161.785 171.21 163.576 173.001 165.749 173.001C167.923 173.001 169.714 171.21 169.714 169.037C169.714 166.863 167.923 165.072 165.749 165.072ZM165.749 167.715C166.495 167.715 167.071 168.291 167.071 169.037C167.071 169.782 166.495 170.358 165.749 170.358C165.004 170.358 164.428 169.782 164.428 169.037C164.428 168.291 165.004 167.715 165.749 167.715Z" fill="#19486D"/>
<path fill-rule="evenodd" clip-rule="evenodd" d="M168.879 141.584L166.197 143.772L165.33 142.964C165.074 142.726 164.733 142.598 164.384 142.611C164.034 142.623 163.703 142.773 163.464 143.029C163.225 143.285 163.098 143.625 163.11 143.975C163.122 144.325 163.273 144.656 163.528 144.895L165.237 146.492H165.237C165.47 146.709 165.775 146.835 166.093 146.845C166.412 146.856 166.724 146.751 166.971 146.549L170.551 143.633L170.551 143.633C170.822 143.411 170.994 143.091 171.03 142.743C171.065 142.394 170.961 142.046 170.739 141.774C170.518 141.502 170.198 141.329 169.849 141.293C169.5 141.257 169.151 141.362 168.879 141.584Z" fill="#32BD9C"/>
<path fill-rule="evenodd" clip-rule="evenodd" d="M139.321 136.001C138.592 136.001 138 136.592 138 137.322C138 138.052 138.592 138.644 139.321 138.644H140.893L145.957 162.703C146.087 163.313 146.626 163.751 147.25 163.751H169.714C170.444 163.751 171.036 163.159 171.036 162.429C171.036 161.699 170.444 161.108 169.714 161.108H148.321L147.763 158.465L168.393 158.465C169 158.465 169.528 158.052 169.676 157.463L171.387 150.572C173.558 149.154 175 146.703 175 143.929C175 139.566 171.434 136 167.071 136C163.634 136 160.693 138.213 159.6 141.286H144.148L143.258 137.05C143.129 136.438 142.59 136 141.965 136L139.321 136.001ZM167.071 138.644C170.006 138.644 172.357 140.994 172.357 143.929C172.357 146.864 170.006 149.215 167.071 149.215C164.137 149.215 161.786 146.864 161.786 143.929C161.786 140.994 164.137 138.644 167.071 138.644ZM144.705 143.929H159.143C159.143 148.292 162.708 151.858 167.071 151.858C167.515 151.858 167.948 151.817 168.372 151.747L167.361 155.822H147.25C147.237 155.825 147.224 155.827 147.211 155.83L144.705 143.929Z" fill="#19486D"/>
<path d="M102.123 366.653H102.587C104.54 366.653 106.216 366.417 107.616 365.945C109.032 365.457 110.196 364.757 111.107 363.846C112.019 362.934 112.694 361.819 113.134 360.501C113.573 359.166 113.793 357.653 113.793 355.96V349.222C113.793 347.936 113.663 346.805 113.402 345.828C113.158 344.852 112.8 344.046 112.328 343.411C111.872 342.76 111.335 342.272 110.717 341.946C110.115 341.621 109.447 341.458 108.715 341.458C107.934 341.458 107.242 341.653 106.64 342.044C106.037 342.418 105.525 342.931 105.102 343.582C104.695 344.233 104.377 344.982 104.149 345.828C103.938 346.658 103.832 347.529 103.832 348.44C103.832 349.352 103.938 350.223 104.149 351.053C104.361 351.867 104.678 352.591 105.102 353.226C105.525 353.844 106.054 354.34 106.688 354.715C107.323 355.073 108.072 355.252 108.935 355.252C109.765 355.252 110.505 355.097 111.156 354.788C111.824 354.463 112.385 354.039 112.841 353.519C113.313 352.998 113.671 352.42 113.915 351.785C114.175 351.15 114.306 350.507 114.306 349.856L116.625 351.126C116.625 352.265 116.381 353.388 115.893 354.495C115.404 355.602 114.721 356.611 113.842 357.522C112.979 358.418 111.978 359.134 110.839 359.671C109.7 360.208 108.479 360.477 107.177 360.477C105.517 360.477 104.044 360.175 102.758 359.573C101.472 358.955 100.382 358.108 99.4863 357.034C98.6074 355.944 97.9401 354.674 97.4844 353.226C97.0286 351.777 96.8008 350.206 96.8008 348.514C96.8008 346.788 97.0775 345.169 97.6309 343.655C98.2005 342.142 99.0062 340.807 100.048 339.651C101.106 338.496 102.367 337.592 103.832 336.941C105.313 336.274 106.957 335.94 108.764 335.94C110.57 335.94 112.214 336.29 113.695 336.99C115.176 337.69 116.446 338.683 117.504 339.969C118.562 341.238 119.376 342.76 119.945 344.534C120.531 346.308 120.824 348.278 120.824 350.442V352.884C120.824 355.195 120.572 357.343 120.067 359.329C119.579 361.315 118.839 363.113 117.846 364.725C116.869 366.32 115.648 367.687 114.184 368.826C112.735 369.965 111.05 370.836 109.13 371.438C107.209 372.041 105.061 372.342 102.685 372.342H102.123V366.653ZM130.834 366.653H131.298C133.251 366.653 134.927 366.417 136.327 365.945C137.743 365.457 138.907 364.757 139.818 363.846C140.73 362.934 141.405 361.819 141.845 360.501C142.284 359.166 142.504 357.653 142.504 355.96V349.222C142.504 347.936 142.374 346.805 142.113 345.828C141.869 344.852 141.511 344.046 141.039 343.411C140.583 342.76 140.046 342.272 139.428 341.946C138.826 341.621 138.158 341.458 137.426 341.458C136.645 341.458 135.953 341.653 135.351 342.044C134.748 342.418 134.236 342.931 133.812 343.582C133.406 344.233 133.088 344.982 132.86 345.828C132.649 346.658 132.543 347.529 132.543 348.44C132.543 349.352 132.649 350.223 132.86 351.053C133.072 351.867 133.389 352.591 133.812 353.226C134.236 353.844 134.765 354.34 135.399 354.715C136.034 355.073 136.783 355.252 137.646 355.252C138.476 355.252 139.216 355.097 139.867 354.788C140.535 354.463 141.096 354.039 141.552 353.519C142.024 352.998 142.382 352.42 142.626 351.785C142.886 351.15 143.017 350.507 143.017 349.856L145.336 351.126C145.336 352.265 145.092 353.388 144.604 354.495C144.115 355.602 143.432 356.611 142.553 357.522C141.69 358.418 140.689 359.134 139.55 359.671C138.41 360.208 137.19 360.477 135.888 360.477C134.228 360.477 132.755 360.175 131.469 359.573C130.183 358.955 129.092 358.108 128.197 357.034C127.318 355.944 126.651 354.674 126.195 353.226C125.74 351.777 125.512 350.206 125.512 348.514C125.512 346.788 125.788 345.169 126.342 343.655C126.911 342.142 127.717 340.807 128.759 339.651C129.817 338.496 131.078 337.592 132.543 336.941C134.024 336.274 135.668 335.94 137.475 335.94C139.281 335.94 140.925 336.29 142.406 336.99C143.887 337.69 145.157 338.683 146.215 339.969C147.273 341.238 148.087 342.76 148.656 344.534C149.242 346.308 149.535 348.278 149.535 350.442V352.884C149.535 355.195 149.283 357.343 148.778 359.329C148.29 361.315 147.549 363.113 146.557 364.725C145.58 366.32 144.359 367.687 142.895 368.826C141.446 369.965 139.761 370.836 137.841 371.438C135.92 372.041 133.772 372.342 131.396 372.342H130.834V366.653ZM155.199 368.606C155.199 367.565 155.557 366.694 156.273 365.994C157.006 365.294 157.974 364.944 159.179 364.944C160.383 364.944 161.343 365.294 162.06 365.994C162.792 366.694 163.158 367.565 163.158 368.606C163.158 369.648 162.792 370.519 162.06 371.219C161.343 371.919 160.383 372.269 159.179 372.269C157.974 372.269 157.006 371.919 156.273 371.219C155.557 370.519 155.199 369.648 155.199 368.606ZM193.017 362.259C193.017 364.489 192.496 366.368 191.454 367.898C190.412 369.412 188.98 370.56 187.157 371.341C185.351 372.106 183.3 372.488 181.005 372.488C178.71 372.488 176.651 372.106 174.828 371.341C173.005 370.56 171.565 369.412 170.507 367.898C169.449 366.368 168.92 364.489 168.92 362.259C168.92 360.761 169.221 359.41 169.823 358.206C170.425 356.985 171.264 355.944 172.338 355.081C173.428 354.202 174.706 353.535 176.171 353.079C177.636 352.607 179.231 352.371 180.956 352.371C183.267 352.371 185.334 352.778 187.157 353.592C188.98 354.406 190.412 355.553 191.454 357.034C192.496 358.515 193.017 360.257 193.017 362.259ZM185.937 361.795C185.937 360.704 185.725 359.769 185.302 358.987C184.895 358.19 184.317 357.579 183.568 357.156C182.82 356.733 181.949 356.521 180.956 356.521C179.963 356.521 179.092 356.733 178.344 357.156C177.595 357.579 177.009 358.19 176.586 358.987C176.179 359.769 175.976 360.704 175.976 361.795C175.976 362.869 176.179 363.797 176.586 364.578C177.009 365.359 177.595 365.962 178.344 366.385C179.109 366.792 179.996 366.995 181.005 366.995C182.014 366.995 182.885 366.792 183.617 366.385C184.366 365.962 184.936 365.359 185.326 364.578C185.733 363.797 185.937 362.869 185.937 361.795ZM192.26 345.877C192.26 347.684 191.78 349.287 190.819 350.687C189.859 352.07 188.524 353.152 186.815 353.934C185.123 354.715 183.186 355.105 181.005 355.105C178.808 355.105 176.854 354.715 175.146 353.934C173.437 353.152 172.102 352.07 171.142 350.687C170.181 349.287 169.701 347.684 169.701 345.877C169.701 343.729 170.181 341.922 171.142 340.457C172.118 338.976 173.453 337.853 175.146 337.088C176.854 336.323 178.791 335.94 180.956 335.94C183.153 335.94 185.098 336.323 186.791 337.088C188.5 337.853 189.835 338.976 190.795 340.457C191.771 341.922 192.26 343.729 192.26 345.877ZM185.229 346.194C185.229 345.234 185.058 344.404 184.716 343.704C184.374 342.988 183.886 342.435 183.251 342.044C182.632 341.653 181.868 341.458 180.956 341.458C180.077 341.458 179.32 341.645 178.686 342.02C178.067 342.394 177.587 342.939 177.245 343.655C176.92 344.355 176.757 345.201 176.757 346.194C176.757 347.155 176.92 348.001 177.245 348.733C177.587 349.45 178.075 350.011 178.71 350.418C179.345 350.825 180.11 351.028 181.005 351.028C181.9 351.028 182.657 350.825 183.275 350.418C183.91 350.011 184.39 349.45 184.716 348.733C185.058 348.001 185.229 347.155 185.229 346.194ZM197.68 345.169V343.289C197.68 341.938 197.973 340.709 198.559 339.603C199.145 338.496 200.007 337.609 201.146 336.941C202.286 336.274 203.686 335.94 205.346 335.94C207.055 335.94 208.479 336.274 209.618 336.941C210.774 337.609 211.636 338.496 212.206 339.603C212.792 340.709 213.085 341.938 213.085 343.289V345.169C213.085 346.487 212.792 347.7 212.206 348.807C211.636 349.913 210.782 350.8 209.643 351.468C208.503 352.135 207.095 352.469 205.419 352.469C203.726 352.469 202.302 352.135 201.146 351.468C200.007 350.8 199.145 349.913 198.559 348.807C197.973 347.7 197.68 346.487 197.68 345.169ZM202.343 343.289V345.169C202.343 345.739 202.449 346.284 202.66 346.805C202.888 347.309 203.23 347.724 203.686 348.05C204.158 348.359 204.727 348.514 205.395 348.514C206.094 348.514 206.664 348.359 207.104 348.05C207.543 347.724 207.868 347.309 208.08 346.805C208.292 346.284 208.397 345.739 208.397 345.169V343.289C208.397 342.687 208.284 342.133 208.056 341.629C207.844 341.108 207.51 340.693 207.055 340.384C206.615 340.058 206.046 339.896 205.346 339.896C204.695 339.896 204.141 340.058 203.686 340.384C203.23 340.693 202.888 341.108 202.66 341.629C202.449 342.133 202.343 342.687 202.343 343.289ZM214.672 365.164V363.284C214.672 361.95 214.965 360.729 215.551 359.622C216.153 358.515 217.024 357.628 218.163 356.961C219.319 356.294 220.735 355.96 222.411 355.96C224.104 355.96 225.52 356.294 226.659 356.961C227.799 357.628 228.661 358.515 229.247 359.622C229.833 360.729 230.126 361.95 230.126 363.284V365.164C230.126 366.499 229.833 367.719 229.247 368.826C228.677 369.933 227.823 370.82 226.684 371.487C225.544 372.155 224.136 372.488 222.46 372.488C220.767 372.488 219.343 372.155 218.188 371.487C217.032 370.82 216.153 369.933 215.551 368.826C214.965 367.719 214.672 366.499 214.672 365.164ZM219.359 363.284V365.164C219.359 365.75 219.49 366.303 219.75 366.824C220.01 367.345 220.368 367.76 220.824 368.069C221.296 368.379 221.841 368.533 222.46 368.533C223.241 368.533 223.852 368.379 224.291 368.069C224.73 367.76 225.032 367.345 225.194 366.824C225.373 366.303 225.463 365.75 225.463 365.164V363.284C225.463 362.698 225.349 362.153 225.121 361.648C224.893 361.128 224.551 360.713 224.096 360.403C223.656 360.078 223.095 359.915 222.411 359.915C221.728 359.915 221.158 360.078 220.702 360.403C220.263 360.713 219.929 361.128 219.701 361.648C219.473 362.153 219.359 362.698 219.359 363.284ZM224.145 341.531L206.786 369.314L203.368 367.508L220.727 339.725L224.145 341.531Z" fill="#19486D"/>
<path d="M91.4424 398.854C91.4424 398.678 91.3984 398.52 91.3105 398.378C91.2227 398.231 91.0542 398.1 90.8052 397.982C90.561 397.865 90.1997 397.758 89.7212 397.66C89.3013 397.567 88.9155 397.458 88.564 397.331C88.2173 397.199 87.9194 397.04 87.6704 396.854C87.4214 396.669 87.2285 396.449 87.0918 396.195C86.9551 395.941 86.8867 395.648 86.8867 395.316C86.8867 394.994 86.9575 394.689 87.0991 394.401C87.2407 394.113 87.4434 393.859 87.707 393.639C87.9707 393.419 88.2905 393.246 88.6665 393.119C89.0474 392.992 89.4722 392.929 89.9409 392.929C90.605 392.929 91.1738 393.041 91.6475 393.266C92.126 393.485 92.4922 393.786 92.7461 394.167C93 394.542 93.127 394.967 93.127 395.441H91.3618C91.3618 395.231 91.3081 395.036 91.2007 394.855C91.0981 394.669 90.9419 394.521 90.7319 394.408C90.522 394.291 90.2583 394.232 89.9409 394.232C89.6382 394.232 89.3867 394.281 89.1865 394.379C88.9912 394.472 88.8447 394.594 88.7471 394.745C88.6543 394.896 88.6079 395.062 88.6079 395.243C88.6079 395.375 88.6323 395.495 88.6812 395.602C88.7349 395.705 88.8228 395.8 88.9448 395.888C89.0669 395.971 89.2329 396.049 89.4429 396.122C89.6577 396.195 89.9263 396.266 90.2485 396.334C90.854 396.461 91.374 396.625 91.8086 396.825C92.248 397.021 92.585 397.274 92.8193 397.587C93.0537 397.895 93.1709 398.285 93.1709 398.759C93.1709 399.11 93.0952 399.433 92.9438 399.726C92.7974 400.014 92.5825 400.265 92.2993 400.48C92.0161 400.69 91.6768 400.854 91.2812 400.971C90.8906 401.088 90.4512 401.146 89.9629 401.146C89.2451 401.146 88.6372 401.02 88.1392 400.766C87.6411 400.507 87.2627 400.177 87.0039 399.777C86.75 399.372 86.623 398.952 86.623 398.517H88.3296C88.3491 398.844 88.4395 399.105 88.6006 399.301C88.7666 399.491 88.9717 399.63 89.2158 399.718C89.4648 399.801 89.7212 399.843 89.9849 399.843C90.3022 399.843 90.5684 399.801 90.7832 399.718C90.998 399.63 91.1616 399.513 91.2739 399.367C91.3862 399.215 91.4424 399.044 91.4424 398.854ZM98.21 401.146C97.624 401.146 97.0942 401.051 96.6206 400.861C96.1519 400.666 95.7515 400.395 95.4194 400.048C95.0923 399.701 94.8408 399.293 94.665 398.825C94.4893 398.356 94.4014 397.851 94.4014 397.309V397.016C94.4014 396.396 94.4917 395.834 94.6724 395.331C94.853 394.828 95.1045 394.398 95.4268 394.042C95.749 393.681 96.1299 393.405 96.5693 393.214C97.0088 393.024 97.4849 392.929 97.9976 392.929C98.564 392.929 99.0596 393.024 99.4844 393.214C99.9092 393.405 100.261 393.673 100.539 394.02C100.822 394.362 101.032 394.77 101.169 395.243C101.311 395.717 101.381 396.239 101.381 396.811V397.565H95.2583V396.298H99.6382V396.159C99.6284 395.841 99.5649 395.543 99.4478 395.265C99.3354 394.987 99.1621 394.762 98.9277 394.591C98.6934 394.42 98.3809 394.335 97.9902 394.335C97.6973 394.335 97.436 394.398 97.2065 394.525C96.9819 394.647 96.7939 394.826 96.6426 395.06C96.4912 395.294 96.374 395.578 96.291 395.91C96.2129 396.237 96.1738 396.605 96.1738 397.016V397.309C96.1738 397.655 96.2202 397.978 96.313 398.275C96.4106 398.568 96.5522 398.825 96.7378 399.044C96.9233 399.264 97.1479 399.438 97.4116 399.564C97.6753 399.687 97.9756 399.748 98.3125 399.748C98.7373 399.748 99.1157 399.662 99.4478 399.491C99.7798 399.32 100.068 399.079 100.312 398.766L101.242 399.667C101.071 399.916 100.849 400.155 100.576 400.385C100.302 400.609 99.9678 400.792 99.5723 400.934C99.1816 401.076 98.7275 401.146 98.21 401.146ZM104.648 389.75V401H102.875V389.75H104.648ZM108.471 389.75V401H106.699V389.75H108.471ZM113.898 401.146C113.312 401.146 112.783 401.051 112.309 400.861C111.84 400.666 111.44 400.395 111.108 400.048C110.781 399.701 110.529 399.293 110.354 398.825C110.178 398.356 110.09 397.851 110.09 397.309V397.016C110.09 396.396 110.18 395.834 110.361 395.331C110.542 394.828 110.793 394.398 111.115 394.042C111.438 393.681 111.818 393.405 112.258 393.214C112.697 393.024 113.173 392.929 113.686 392.929C114.252 392.929 114.748 393.024 115.173 393.214C115.598 393.405 115.949 393.673 116.228 394.02C116.511 394.362 116.721 394.77 116.857 395.243C116.999 395.717 117.07 396.239 117.07 396.811V397.565H110.947V396.298H115.327V396.159C115.317 395.841 115.253 395.543 115.136 395.265C115.024 394.987 114.851 394.762 114.616 394.591C114.382 394.42 114.069 394.335 113.679 394.335C113.386 394.335 113.125 394.398 112.895 394.525C112.67 394.647 112.482 394.826 112.331 395.06C112.18 395.294 112.062 395.578 111.979 395.91C111.901 396.237 111.862 396.605 111.862 397.016V397.309C111.862 397.655 111.909 397.978 112.001 398.275C112.099 398.568 112.241 398.825 112.426 399.044C112.612 399.264 112.836 399.438 113.1 399.564C113.364 399.687 113.664 399.748 114.001 399.748C114.426 399.748 114.804 399.662 115.136 399.491C115.468 399.32 115.756 399.079 116 398.766L116.931 399.667C116.76 399.916 116.538 400.155 116.264 400.385C115.991 400.609 115.656 400.792 115.261 400.934C114.87 401.076 114.416 401.146 113.898 401.146ZM120.219 394.584V401H118.454V393.075H120.139L120.219 394.584ZM122.644 393.024L122.629 394.665C122.521 394.645 122.404 394.63 122.277 394.621C122.155 394.611 122.033 394.606 121.911 394.606C121.608 394.606 121.342 394.65 121.113 394.738C120.883 394.821 120.69 394.943 120.534 395.104C120.383 395.26 120.266 395.451 120.183 395.675C120.1 395.9 120.051 396.151 120.036 396.43L119.633 396.459C119.633 395.961 119.682 395.5 119.78 395.075C119.877 394.65 120.024 394.276 120.219 393.954C120.419 393.632 120.668 393.38 120.966 393.2C121.269 393.019 121.618 392.929 122.014 392.929C122.121 392.929 122.236 392.938 122.358 392.958C122.485 392.978 122.58 393 122.644 393.024ZM128.195 398.854C128.195 398.678 128.151 398.52 128.063 398.378C127.976 398.231 127.807 398.1 127.558 397.982C127.314 397.865 126.953 397.758 126.474 397.66C126.054 397.567 125.668 397.458 125.317 397.331C124.97 397.199 124.672 397.04 124.423 396.854C124.174 396.669 123.981 396.449 123.845 396.195C123.708 395.941 123.64 395.648 123.64 395.316C123.64 394.994 123.71 394.689 123.852 394.401C123.994 394.113 124.196 393.859 124.46 393.639C124.724 393.419 125.043 393.246 125.419 393.119C125.8 392.992 126.225 392.929 126.694 392.929C127.358 392.929 127.927 393.041 128.4 393.266C128.879 393.485 129.245 393.786 129.499 394.167C129.753 394.542 129.88 394.967 129.88 395.441H128.115C128.115 395.231 128.061 395.036 127.954 394.855C127.851 394.669 127.695 394.521 127.485 394.408C127.275 394.291 127.011 394.232 126.694 394.232C126.391 394.232 126.14 394.281 125.939 394.379C125.744 394.472 125.598 394.594 125.5 394.745C125.407 394.896 125.361 395.062 125.361 395.243C125.361 395.375 125.385 395.495 125.434 395.602C125.488 395.705 125.576 395.8 125.698 395.888C125.82 395.971 125.986 396.049 126.196 396.122C126.411 396.195 126.679 396.266 127.001 396.334C127.607 396.461 128.127 396.625 128.562 396.825C129.001 397.021 129.338 397.274 129.572 397.587C129.807 397.895 129.924 398.285 129.924 398.759C129.924 399.11 129.848 399.433 129.697 399.726C129.55 400.014 129.335 400.265 129.052 400.48C128.769 400.69 128.43 400.854 128.034 400.971C127.644 401.088 127.204 401.146 126.716 401.146C125.998 401.146 125.39 401.02 124.892 400.766C124.394 400.507 124.016 400.177 123.757 399.777C123.503 399.372 123.376 398.952 123.376 398.517H125.083C125.102 398.844 125.192 399.105 125.354 399.301C125.52 399.491 125.725 399.63 125.969 399.718C126.218 399.801 126.474 399.843 126.738 399.843C127.055 399.843 127.321 399.801 127.536 399.718C127.751 399.63 127.915 399.513 128.027 399.367C128.139 399.215 128.195 399.044 128.195 398.854ZM139.672 399.411V395.631C139.672 395.348 139.621 395.104 139.519 394.899C139.416 394.694 139.26 394.535 139.05 394.423C138.845 394.311 138.586 394.254 138.273 394.254C137.985 394.254 137.736 394.303 137.526 394.401C137.316 394.499 137.153 394.63 137.036 394.796C136.918 394.962 136.86 395.15 136.86 395.36H135.102C135.102 395.048 135.178 394.745 135.329 394.452C135.48 394.159 135.7 393.898 135.988 393.668C136.276 393.439 136.621 393.258 137.021 393.126C137.421 392.995 137.871 392.929 138.369 392.929C138.964 392.929 139.492 393.029 139.951 393.229C140.415 393.429 140.778 393.732 141.042 394.137C141.311 394.538 141.445 395.041 141.445 395.646V399.169C141.445 399.53 141.469 399.855 141.518 400.143C141.572 400.426 141.647 400.673 141.745 400.883V401H139.936C139.853 400.81 139.787 400.568 139.738 400.275C139.694 399.977 139.672 399.689 139.672 399.411ZM139.929 396.181L139.943 397.272H138.676C138.349 397.272 138.061 397.304 137.812 397.367C137.563 397.426 137.355 397.514 137.189 397.631C137.023 397.748 136.899 397.89 136.816 398.056C136.733 398.222 136.691 398.41 136.691 398.62C136.691 398.83 136.74 399.022 136.838 399.198C136.936 399.369 137.077 399.503 137.263 399.601C137.453 399.699 137.683 399.748 137.951 399.748C138.312 399.748 138.627 399.674 138.896 399.528C139.169 399.376 139.384 399.193 139.541 398.979C139.697 398.759 139.78 398.551 139.79 398.356L140.361 399.14C140.302 399.34 140.202 399.555 140.061 399.784C139.919 400.014 139.733 400.233 139.504 400.443C139.279 400.648 139.008 400.817 138.691 400.949C138.378 401.081 138.017 401.146 137.607 401.146C137.089 401.146 136.628 401.044 136.223 400.839C135.817 400.629 135.5 400.348 135.271 399.997C135.041 399.64 134.926 399.237 134.926 398.788C134.926 398.368 135.004 397.997 135.161 397.675C135.322 397.348 135.556 397.074 135.864 396.854C136.176 396.635 136.557 396.469 137.006 396.356C137.456 396.239 137.968 396.181 138.544 396.181H139.929ZM145.063 394.584V401H143.298V393.075H144.982L145.063 394.584ZM147.487 393.024L147.473 394.665C147.365 394.645 147.248 394.63 147.121 394.621C146.999 394.611 146.877 394.606 146.755 394.606C146.452 394.606 146.186 394.65 145.957 394.738C145.727 394.821 145.534 394.943 145.378 395.104C145.227 395.26 145.109 395.451 145.026 395.675C144.943 395.9 144.895 396.151 144.88 396.43L144.477 396.459C144.477 395.961 144.526 395.5 144.624 395.075C144.721 394.65 144.868 394.276 145.063 393.954C145.263 393.632 145.512 393.38 145.81 393.2C146.113 393.019 146.462 392.929 146.857 392.929C146.965 392.929 147.08 392.938 147.202 392.958C147.329 392.978 147.424 393 147.487 393.024ZM151.94 401.146C151.354 401.146 150.825 401.051 150.351 400.861C149.882 400.666 149.482 400.395 149.15 400.048C148.823 399.701 148.571 399.293 148.396 398.825C148.22 398.356 148.132 397.851 148.132 397.309V397.016C148.132 396.396 148.222 395.834 148.403 395.331C148.583 394.828 148.835 394.398 149.157 394.042C149.479 393.681 149.86 393.405 150.3 393.214C150.739 393.024 151.215 392.929 151.728 392.929C152.294 392.929 152.79 393.024 153.215 393.214C153.64 393.405 153.991 393.673 154.27 394.02C154.553 394.362 154.763 394.77 154.899 395.243C155.041 395.717 155.112 396.239 155.112 396.811V397.565H148.989V396.298H153.369V396.159C153.359 395.841 153.295 395.543 153.178 395.265C153.066 394.987 152.893 394.762 152.658 394.591C152.424 394.42 152.111 394.335 151.721 394.335C151.428 394.335 151.167 394.398 150.937 394.525C150.712 394.647 150.524 394.826 150.373 395.06C150.222 395.294 150.104 395.578 150.021 395.91C149.943 396.237 149.904 396.605 149.904 397.016V397.309C149.904 397.655 149.951 397.978 150.043 398.275C150.141 398.568 150.283 398.825 150.468 399.044C150.654 399.264 150.878 399.438 151.142 399.564C151.406 399.687 151.706 399.748 152.043 399.748C152.468 399.748 152.846 399.662 153.178 399.491C153.51 399.32 153.798 399.079 154.042 398.766L154.973 399.667C154.802 399.916 154.58 400.155 154.306 400.385C154.033 400.609 153.698 400.792 153.303 400.934C152.912 401.076 152.458 401.146 151.94 401.146ZM159.887 397.125V396.957C159.887 396.386 159.97 395.856 160.136 395.368C160.302 394.875 160.542 394.447 160.854 394.086C161.171 393.72 161.557 393.437 162.011 393.236C162.47 393.031 162.988 392.929 163.564 392.929C164.145 392.929 164.663 393.031 165.117 393.236C165.576 393.437 165.964 393.72 166.281 394.086C166.599 394.447 166.84 394.875 167.006 395.368C167.172 395.856 167.255 396.386 167.255 396.957V397.125C167.255 397.697 167.172 398.227 167.006 398.715C166.84 399.203 166.599 399.63 166.281 399.997C165.964 400.358 165.578 400.641 165.124 400.846C164.67 401.046 164.155 401.146 163.579 401.146C162.998 401.146 162.478 401.046 162.019 400.846C161.564 400.641 161.179 400.358 160.861 399.997C160.544 399.63 160.302 399.203 160.136 398.715C159.97 398.227 159.887 397.697 159.887 397.125ZM161.652 396.957V397.125C161.652 397.482 161.689 397.819 161.762 398.136C161.835 398.454 161.95 398.732 162.106 398.971C162.263 399.21 162.463 399.398 162.707 399.535C162.951 399.672 163.242 399.74 163.579 399.74C163.906 399.74 164.189 399.672 164.428 399.535C164.672 399.398 164.873 399.21 165.029 398.971C165.185 398.732 165.3 398.454 165.373 398.136C165.451 397.819 165.49 397.482 165.49 397.125V396.957C165.49 396.605 165.451 396.273 165.373 395.961C165.3 395.644 165.183 395.363 165.021 395.119C164.865 394.875 164.665 394.684 164.421 394.547C164.182 394.406 163.896 394.335 163.564 394.335C163.232 394.335 162.944 394.406 162.7 394.547C162.46 394.684 162.263 394.875 162.106 395.119C161.95 395.363 161.835 395.644 161.762 395.961C161.689 396.273 161.652 396.605 161.652 396.957ZM173.503 399.132V393.075H175.275V401H173.605L173.503 399.132ZM173.752 397.484L174.345 397.47C174.345 398.002 174.287 398.493 174.169 398.942C174.052 399.386 173.872 399.774 173.627 400.106C173.383 400.434 173.071 400.69 172.69 400.875C172.309 401.056 171.853 401.146 171.32 401.146C170.935 401.146 170.581 401.09 170.258 400.978C169.936 400.866 169.658 400.692 169.423 400.458C169.194 400.224 169.016 399.918 168.889 399.542C168.762 399.167 168.698 398.717 168.698 398.195V393.075H170.463V398.209C170.463 398.498 170.498 398.739 170.566 398.935C170.634 399.125 170.727 399.279 170.844 399.396C170.961 399.513 171.098 399.596 171.254 399.645C171.411 399.694 171.577 399.718 171.752 399.718C172.255 399.718 172.651 399.621 172.939 399.425C173.232 399.225 173.439 398.957 173.562 398.62C173.688 398.283 173.752 397.904 173.752 397.484ZM180.717 393.075V394.364H176.25V393.075H180.717ZM177.539 391.134H179.304V398.81C179.304 399.054 179.338 399.242 179.406 399.374C179.479 399.501 179.58 399.586 179.707 399.63C179.833 399.674 179.982 399.696 180.153 399.696C180.275 399.696 180.393 399.689 180.505 399.674C180.617 399.66 180.708 399.645 180.776 399.63L180.783 400.978C180.637 401.022 180.466 401.061 180.271 401.095C180.08 401.129 179.86 401.146 179.611 401.146C179.206 401.146 178.847 401.076 178.535 400.934C178.222 400.788 177.978 400.551 177.802 400.224C177.626 399.896 177.539 399.462 177.539 398.92V391.134ZM185.478 397.125V396.957C185.478 396.386 185.561 395.856 185.727 395.368C185.893 394.875 186.132 394.447 186.445 394.086C186.762 393.72 187.148 393.437 187.602 393.236C188.061 393.031 188.579 392.929 189.155 392.929C189.736 392.929 190.253 393.031 190.708 393.236C191.167 393.437 191.555 393.72 191.872 394.086C192.189 394.447 192.431 394.875 192.597 395.368C192.763 395.856 192.846 396.386 192.846 396.957V397.125C192.846 397.697 192.763 398.227 192.597 398.715C192.431 399.203 192.189 399.63 191.872 399.997C191.555 400.358 191.169 400.641 190.715 400.846C190.261 401.046 189.746 401.146 189.169 401.146C188.588 401.146 188.068 401.046 187.609 400.846C187.155 400.641 186.77 400.358 186.452 399.997C186.135 399.63 185.893 399.203 185.727 398.715C185.561 398.227 185.478 397.697 185.478 397.125ZM187.243 396.957V397.125C187.243 397.482 187.28 397.819 187.353 398.136C187.426 398.454 187.541 398.732 187.697 398.971C187.854 399.21 188.054 399.398 188.298 399.535C188.542 399.672 188.833 399.74 189.169 399.74C189.497 399.74 189.78 399.672 190.019 399.535C190.263 399.398 190.463 399.21 190.62 398.971C190.776 398.732 190.891 398.454 190.964 398.136C191.042 397.819 191.081 397.482 191.081 397.125V396.957C191.081 396.605 191.042 396.273 190.964 395.961C190.891 395.644 190.773 395.363 190.612 395.119C190.456 394.875 190.256 394.684 190.012 394.547C189.772 394.406 189.487 394.335 189.155 394.335C188.823 394.335 188.535 394.406 188.291 394.547C188.051 394.684 187.854 394.875 187.697 395.119C187.541 395.363 187.426 395.644 187.353 395.961C187.28 396.273 187.243 396.605 187.243 396.957ZM196.713 401H194.948V392.313C194.948 391.723 195.058 391.227 195.278 390.827C195.502 390.421 195.822 390.116 196.237 389.911C196.652 389.701 197.143 389.596 197.709 389.596C197.885 389.596 198.059 389.608 198.229 389.633C198.4 389.652 198.566 389.684 198.728 389.728L198.684 391.09C198.586 391.066 198.479 391.049 198.361 391.039C198.249 391.029 198.127 391.024 197.995 391.024C197.727 391.024 197.495 391.076 197.299 391.178C197.109 391.276 196.962 391.42 196.86 391.61C196.762 391.801 196.713 392.035 196.713 392.313V401ZM198.347 393.075V394.364H193.732V393.075H198.347ZM205.136 394.584V401H203.371V393.075H205.056L205.136 394.584ZM207.561 393.024L207.546 394.665C207.438 394.645 207.321 394.63 207.194 394.621C207.072 394.611 206.95 394.606 206.828 394.606C206.525 394.606 206.259 394.65 206.03 394.738C205.8 394.821 205.607 394.943 205.451 395.104C205.3 395.26 205.183 395.451 205.1 395.675C205.017 395.9 204.968 396.151 204.953 396.43L204.55 396.459C204.55 395.961 204.599 395.5 204.697 395.075C204.794 394.65 204.941 394.276 205.136 393.954C205.336 393.632 205.585 393.38 205.883 393.2C206.186 393.019 206.535 392.929 206.931 392.929C207.038 392.929 207.153 392.938 207.275 392.958C207.402 392.978 207.497 393 207.561 393.024ZM212.014 401.146C211.428 401.146 210.898 401.051 210.424 400.861C209.956 400.666 209.555 400.395 209.223 400.048C208.896 399.701 208.645 399.293 208.469 398.825C208.293 398.356 208.205 397.851 208.205 397.309V397.016C208.205 396.396 208.295 395.834 208.476 395.331C208.657 394.828 208.908 394.398 209.23 394.042C209.553 393.681 209.934 393.405 210.373 393.214C210.812 393.024 211.289 392.929 211.801 392.929C212.368 392.929 212.863 393.024 213.288 393.214C213.713 393.405 214.064 393.673 214.343 394.02C214.626 394.362 214.836 394.77 214.973 395.243C215.114 395.717 215.185 396.239 215.185 396.811V397.565H209.062V396.298H213.442V396.159C213.432 395.841 213.369 395.543 213.251 395.265C213.139 394.987 212.966 394.762 212.731 394.591C212.497 394.42 212.185 394.335 211.794 394.335C211.501 394.335 211.24 394.398 211.01 394.525C210.786 394.647 210.598 394.826 210.446 395.06C210.295 395.294 210.178 395.578 210.095 395.91C210.017 396.237 209.978 396.605 209.978 397.016V397.309C209.978 397.655 210.024 397.978 210.117 398.275C210.214 398.568 210.356 398.825 210.542 399.044C210.727 399.264 210.952 399.438 211.215 399.564C211.479 399.687 211.779 399.748 212.116 399.748C212.541 399.748 212.919 399.662 213.251 399.491C213.583 399.32 213.872 399.079 214.116 398.766L215.046 399.667C214.875 399.916 214.653 400.155 214.379 400.385C214.106 400.609 213.771 400.792 213.376 400.934C212.985 401.076 212.531 401.146 212.014 401.146ZM221.03 399.411V395.631C221.03 395.348 220.979 395.104 220.876 394.899C220.773 394.694 220.617 394.535 220.407 394.423C220.202 394.311 219.943 394.254 219.631 394.254C219.343 394.254 219.094 394.303 218.884 394.401C218.674 394.499 218.51 394.63 218.393 394.796C218.276 394.962 218.217 395.15 218.217 395.36H216.459C216.459 395.048 216.535 394.745 216.687 394.452C216.838 394.159 217.058 393.898 217.346 393.668C217.634 393.439 217.978 393.258 218.378 393.126C218.779 392.995 219.228 392.929 219.726 392.929C220.322 392.929 220.849 393.029 221.308 393.229C221.772 393.429 222.136 393.732 222.399 394.137C222.668 394.538 222.802 395.041 222.802 395.646V399.169C222.802 399.53 222.827 399.855 222.875 400.143C222.929 400.426 223.005 400.673 223.103 400.883V401H221.293C221.21 400.81 221.145 400.568 221.096 400.275C221.052 399.977 221.03 399.689 221.03 399.411ZM221.286 396.181L221.301 397.272H220.034C219.707 397.272 219.418 397.304 219.169 397.367C218.92 397.426 218.713 397.514 218.547 397.631C218.381 397.748 218.256 397.89 218.173 398.056C218.09 398.222 218.049 398.41 218.049 398.62C218.049 398.83 218.098 399.022 218.195 399.198C218.293 399.369 218.435 399.503 218.62 399.601C218.811 399.699 219.04 399.748 219.309 399.748C219.67 399.748 219.985 399.674 220.253 399.528C220.527 399.376 220.742 399.193 220.898 398.979C221.054 398.759 221.137 398.551 221.147 398.356L221.718 399.14C221.66 399.34 221.56 399.555 221.418 399.784C221.276 400.014 221.091 400.233 220.861 400.443C220.637 400.648 220.366 400.817 220.048 400.949C219.736 401.081 219.375 401.146 218.964 401.146C218.447 401.146 217.985 401.044 217.58 400.839C217.175 400.629 216.857 400.348 216.628 399.997C216.398 399.64 216.284 399.237 216.284 398.788C216.284 398.368 216.362 397.997 216.518 397.675C216.679 397.348 216.914 397.074 217.221 396.854C217.534 396.635 217.915 396.469 218.364 396.356C218.813 396.239 219.326 396.181 219.902 396.181H221.286ZM227.885 399.74C228.173 399.74 228.432 399.684 228.662 399.572C228.896 399.455 229.084 399.293 229.226 399.088C229.372 398.883 229.453 398.646 229.467 398.378H231.13C231.12 398.891 230.969 399.357 230.676 399.777C230.383 400.197 229.995 400.531 229.511 400.78C229.028 401.024 228.493 401.146 227.907 401.146C227.302 401.146 226.774 401.044 226.325 400.839C225.876 400.629 225.502 400.341 225.205 399.975C224.907 399.608 224.682 399.186 224.531 398.708C224.384 398.229 224.311 397.716 224.311 397.169V396.913C224.311 396.366 224.384 395.854 224.531 395.375C224.682 394.892 224.907 394.467 225.205 394.101C225.502 393.734 225.876 393.449 226.325 393.244C226.774 393.034 227.299 392.929 227.9 392.929C228.535 392.929 229.091 393.056 229.57 393.31C230.048 393.559 230.424 393.908 230.698 394.357C230.976 394.801 231.12 395.319 231.13 395.91H229.467C229.453 395.617 229.379 395.353 229.248 395.119C229.121 394.879 228.94 394.689 228.706 394.547C228.476 394.406 228.2 394.335 227.878 394.335C227.521 394.335 227.226 394.408 226.992 394.555C226.757 394.696 226.574 394.892 226.442 395.141C226.311 395.385 226.215 395.661 226.157 395.968C226.103 396.271 226.076 396.586 226.076 396.913V397.169C226.076 397.497 226.103 397.814 226.157 398.122C226.21 398.429 226.303 398.705 226.435 398.949C226.572 399.188 226.757 399.381 226.992 399.528C227.226 399.669 227.524 399.74 227.885 399.74ZM234.228 389.75V401H232.47V389.75H234.228ZM233.92 396.745L233.349 396.737C233.354 396.19 233.43 395.685 233.576 395.221C233.728 394.757 233.938 394.354 234.206 394.013C234.479 393.666 234.807 393.4 235.188 393.214C235.568 393.024 235.991 392.929 236.455 392.929C236.845 392.929 237.197 392.982 237.509 393.09C237.827 393.197 238.1 393.371 238.33 393.61C238.559 393.844 238.732 394.152 238.85 394.533C238.972 394.909 239.033 395.368 239.033 395.91V401H237.26V395.895C237.26 395.514 237.204 395.211 237.092 394.987C236.984 394.762 236.826 394.601 236.616 394.503C236.406 394.401 236.149 394.35 235.847 394.35C235.529 394.35 235.249 394.413 235.004 394.54C234.765 394.667 234.565 394.84 234.404 395.06C234.243 395.28 234.121 395.534 234.038 395.822C233.959 396.11 233.92 396.417 233.92 396.745ZM103.564 424H101.799V415.313C101.799 414.723 101.909 414.227 102.128 413.827C102.353 413.421 102.673 413.116 103.088 412.911C103.503 412.701 103.994 412.596 104.56 412.596C104.736 412.596 104.909 412.608 105.08 412.633C105.251 412.652 105.417 412.684 105.578 412.728L105.534 414.09C105.437 414.066 105.329 414.049 105.212 414.039C105.1 414.029 104.978 414.024 104.846 414.024C104.577 414.024 104.345 414.076 104.15 414.178C103.959 414.276 103.813 414.42 103.71 414.61C103.613 414.801 103.564 415.035 103.564 415.313V424ZM105.197 416.075V417.364H100.583V416.075H105.197ZM108.251 417.584V424H106.486V416.075H108.171L108.251 417.584ZM110.676 416.024L110.661 417.665C110.554 417.645 110.437 417.63 110.31 417.621C110.188 417.611 110.065 417.606 109.943 417.606C109.641 417.606 109.375 417.65 109.145 417.738C108.916 417.821 108.723 417.943 108.566 418.104C108.415 418.26 108.298 418.451 108.215 418.675C108.132 418.9 108.083 419.151 108.068 419.43L107.666 419.459C107.666 418.961 107.714 418.5 107.812 418.075C107.91 417.65 108.056 417.276 108.251 416.954C108.452 416.632 108.701 416.38 108.999 416.2C109.301 416.019 109.65 415.929 110.046 415.929C110.153 415.929 110.268 415.938 110.39 415.958C110.517 415.978 110.612 416 110.676 416.024ZM111.254 420.125V419.957C111.254 419.386 111.337 418.856 111.503 418.368C111.669 417.875 111.909 417.447 112.221 417.086C112.539 416.72 112.924 416.437 113.378 416.236C113.837 416.031 114.355 415.929 114.931 415.929C115.512 415.929 116.03 416.031 116.484 416.236C116.943 416.437 117.331 416.72 117.648 417.086C117.966 417.447 118.208 417.875 118.374 418.368C118.54 418.856 118.623 419.386 118.623 419.957V420.125C118.623 420.697 118.54 421.227 118.374 421.715C118.208 422.203 117.966 422.63 117.648 422.997C117.331 423.358 116.945 423.641 116.491 423.846C116.037 424.046 115.522 424.146 114.946 424.146C114.365 424.146 113.845 424.046 113.386 423.846C112.932 423.641 112.546 423.358 112.229 422.997C111.911 422.63 111.669 422.203 111.503 421.715C111.337 421.227 111.254 420.697 111.254 420.125ZM113.02 419.957V420.125C113.02 420.482 113.056 420.819 113.129 421.136C113.203 421.454 113.317 421.732 113.474 421.971C113.63 422.21 113.83 422.398 114.074 422.535C114.318 422.672 114.609 422.74 114.946 422.74C115.273 422.74 115.556 422.672 115.795 422.535C116.04 422.398 116.24 422.21 116.396 421.971C116.552 421.732 116.667 421.454 116.74 421.136C116.818 420.819 116.857 420.482 116.857 420.125V419.957C116.857 419.605 116.818 419.273 116.74 418.961C116.667 418.644 116.55 418.363 116.389 418.119C116.232 417.875 116.032 417.684 115.788 417.547C115.549 417.406 115.263 417.335 114.931 417.335C114.599 417.335 114.311 417.406 114.067 417.547C113.828 417.684 113.63 417.875 113.474 418.119C113.317 418.363 113.203 418.644 113.129 418.961C113.056 419.273 113.02 419.605 113.02 419.957ZM121.867 417.687V424H120.102V416.075H121.765L121.867 417.687ZM121.582 419.745L120.981 419.737C120.981 419.19 121.049 418.685 121.186 418.221C121.323 417.757 121.523 417.354 121.787 417.013C122.05 416.666 122.377 416.4 122.768 416.214C123.164 416.024 123.62 415.929 124.138 415.929C124.499 415.929 124.829 415.982 125.126 416.09C125.429 416.192 125.69 416.356 125.91 416.581C126.135 416.805 126.306 417.093 126.423 417.445C126.545 417.796 126.606 418.221 126.606 418.719V424H124.841V418.873C124.841 418.487 124.782 418.185 124.665 417.965C124.553 417.745 124.389 417.589 124.174 417.496C123.964 417.398 123.713 417.35 123.42 417.35C123.088 417.35 122.805 417.413 122.57 417.54C122.341 417.667 122.153 417.84 122.006 418.06C121.86 418.28 121.752 418.534 121.684 418.822C121.616 419.11 121.582 419.417 121.582 419.745ZM126.496 419.276L125.668 419.459C125.668 418.98 125.734 418.529 125.866 418.104C126.003 417.674 126.201 417.298 126.459 416.976C126.723 416.649 127.048 416.393 127.434 416.207C127.819 416.021 128.261 415.929 128.759 415.929C129.165 415.929 129.526 415.985 129.843 416.097C130.166 416.205 130.439 416.375 130.664 416.61C130.888 416.844 131.059 417.149 131.176 417.525C131.293 417.896 131.352 418.346 131.352 418.873V424H129.58V418.866C129.58 418.465 129.521 418.155 129.404 417.936C129.292 417.716 129.13 417.564 128.92 417.481C128.71 417.394 128.459 417.35 128.166 417.35C127.893 417.35 127.651 417.401 127.441 417.503C127.236 417.601 127.062 417.74 126.921 417.921C126.779 418.097 126.672 418.299 126.599 418.529C126.53 418.758 126.496 419.007 126.496 419.276ZM136.567 420.125V419.957C136.567 419.386 136.65 418.856 136.816 418.368C136.982 417.875 137.221 417.447 137.534 417.086C137.851 416.72 138.237 416.437 138.691 416.236C139.15 416.031 139.667 415.929 140.244 415.929C140.825 415.929 141.342 416.031 141.796 416.236C142.255 416.437 142.644 416.72 142.961 417.086C143.278 417.447 143.52 417.875 143.686 418.368C143.852 418.856 143.935 419.386 143.935 419.957V420.125C143.935 420.697 143.852 421.227 143.686 421.715C143.52 422.203 143.278 422.63 142.961 422.997C142.644 423.358 142.258 423.641 141.804 423.846C141.35 424.046 140.834 424.146 140.258 424.146C139.677 424.146 139.157 424.046 138.698 423.846C138.244 423.641 137.858 423.358 137.541 422.997C137.224 422.63 136.982 422.203 136.816 421.715C136.65 421.227 136.567 420.697 136.567 420.125ZM138.332 419.957V420.125C138.332 420.482 138.369 420.819 138.442 421.136C138.515 421.454 138.63 421.732 138.786 421.971C138.942 422.21 139.143 422.398 139.387 422.535C139.631 422.672 139.921 422.74 140.258 422.74C140.585 422.74 140.869 422.672 141.108 422.535C141.352 422.398 141.552 422.21 141.708 421.971C141.865 421.732 141.979 421.454 142.053 421.136C142.131 420.819 142.17 420.482 142.17 420.125V419.957C142.17 419.605 142.131 419.273 142.053 418.961C141.979 418.644 141.862 418.363 141.701 418.119C141.545 417.875 141.345 417.684 141.101 417.547C140.861 417.406 140.576 417.335 140.244 417.335C139.912 417.335 139.624 417.406 139.379 417.547C139.14 417.684 138.942 417.875 138.786 418.119C138.63 418.363 138.515 418.644 138.442 418.961C138.369 419.273 138.332 419.605 138.332 419.957ZM147.165 417.767V424H145.4V416.075H147.062L147.165 417.767ZM146.85 419.745L146.279 419.737C146.284 419.176 146.362 418.661 146.513 418.192C146.669 417.723 146.884 417.32 147.158 416.983C147.436 416.646 147.768 416.388 148.154 416.207C148.54 416.021 148.969 415.929 149.443 415.929C149.824 415.929 150.168 415.982 150.476 416.09C150.788 416.192 151.054 416.361 151.274 416.595C151.499 416.83 151.669 417.135 151.787 417.511C151.904 417.882 151.962 418.338 151.962 418.88V424H150.19V418.873C150.19 418.492 150.134 418.192 150.021 417.972C149.914 417.748 149.755 417.589 149.545 417.496C149.34 417.398 149.084 417.35 148.776 417.35C148.474 417.35 148.203 417.413 147.963 417.54C147.724 417.667 147.521 417.84 147.355 418.06C147.194 418.28 147.07 418.534 146.982 418.822C146.894 419.11 146.85 419.417 146.85 419.745ZM155.654 412.75V424H153.881V412.75H155.654ZM159.477 416.075V424H157.705V416.075H159.477ZM157.587 413.995C157.587 413.727 157.675 413.504 157.851 413.329C158.032 413.148 158.281 413.058 158.598 413.058C158.911 413.058 159.157 413.148 159.338 413.329C159.519 413.504 159.609 413.727 159.609 413.995C159.609 414.259 159.519 414.479 159.338 414.654C159.157 414.83 158.911 414.918 158.598 414.918C158.281 414.918 158.032 414.83 157.851 414.654C157.675 414.479 157.587 414.259 157.587 413.995ZM163.161 417.767V424H161.396V416.075H163.059L163.161 417.767ZM162.846 419.745L162.275 419.737C162.28 419.176 162.358 418.661 162.509 418.192C162.666 417.723 162.88 417.32 163.154 416.983C163.432 416.646 163.764 416.388 164.15 416.207C164.536 416.021 164.965 415.929 165.439 415.929C165.82 415.929 166.164 415.982 166.472 416.09C166.784 416.192 167.05 416.361 167.27 416.595C167.495 416.83 167.666 417.135 167.783 417.511C167.9 417.882 167.958 418.338 167.958 418.88V424H166.186V418.873C166.186 418.492 166.13 418.192 166.018 417.972C165.91 417.748 165.751 417.589 165.542 417.496C165.336 417.398 165.08 417.35 164.772 417.35C164.47 417.35 164.199 417.413 163.959 417.54C163.72 417.667 163.518 417.84 163.352 418.06C163.19 418.28 163.066 418.534 162.978 418.822C162.89 419.11 162.846 419.417 162.846 419.745ZM173.254 424.146C172.668 424.146 172.138 424.051 171.665 423.861C171.196 423.666 170.795 423.395 170.463 423.048C170.136 422.701 169.885 422.293 169.709 421.825C169.533 421.356 169.445 420.851 169.445 420.309V420.016C169.445 419.396 169.536 418.834 169.716 418.331C169.897 417.828 170.148 417.398 170.471 417.042C170.793 416.681 171.174 416.405 171.613 416.214C172.053 416.024 172.529 415.929 173.042 415.929C173.608 415.929 174.104 416.024 174.528 416.214C174.953 416.405 175.305 416.673 175.583 417.02C175.866 417.362 176.076 417.77 176.213 418.243C176.354 418.717 176.425 419.239 176.425 419.811V420.565H170.302V419.298H174.682V419.159C174.672 418.841 174.609 418.543 174.492 418.265C174.379 417.987 174.206 417.762 173.972 417.591C173.737 417.42 173.425 417.335 173.034 417.335C172.741 417.335 172.48 417.398 172.25 417.525C172.026 417.647 171.838 417.826 171.687 418.06C171.535 418.294 171.418 418.578 171.335 418.91C171.257 419.237 171.218 419.605 171.218 420.016V420.309C171.218 420.655 171.264 420.978 171.357 421.275C171.455 421.568 171.596 421.825 171.782 422.044C171.967 422.264 172.192 422.438 172.456 422.564C172.719 422.687 173.02 422.748 173.356 422.748C173.781 422.748 174.16 422.662 174.492 422.491C174.824 422.32 175.112 422.079 175.356 421.766L176.286 422.667C176.115 422.916 175.893 423.155 175.62 423.385C175.346 423.609 175.012 423.792 174.616 423.934C174.226 424.076 173.771 424.146 173.254 424.146ZM181.545 412.75H183.31V422.308L183.142 424H181.545V412.75ZM188.481 419.964V420.118C188.481 420.704 188.415 421.244 188.283 421.737C188.156 422.225 187.961 422.65 187.697 423.011C187.438 423.373 187.116 423.653 186.73 423.854C186.35 424.049 185.908 424.146 185.405 424.146C184.912 424.146 184.482 424.054 184.116 423.868C183.75 423.683 183.442 423.419 183.193 423.077C182.949 422.735 182.751 422.328 182.6 421.854C182.448 421.38 182.341 420.858 182.277 420.287V419.796C182.341 419.22 182.448 418.697 182.6 418.229C182.751 417.755 182.949 417.347 183.193 417.005C183.442 416.659 183.747 416.393 184.108 416.207C184.475 416.021 184.902 415.929 185.39 415.929C185.898 415.929 186.345 416.026 186.73 416.222C187.121 416.417 187.446 416.695 187.705 417.057C187.963 417.413 188.156 417.838 188.283 418.331C188.415 418.824 188.481 419.369 188.481 419.964ZM186.716 420.118V419.964C186.716 419.608 186.687 419.273 186.628 418.961C186.569 418.644 186.472 418.365 186.335 418.126C186.203 417.887 186.022 417.699 185.793 417.562C185.568 417.42 185.288 417.35 184.951 417.35C184.638 417.35 184.37 417.403 184.145 417.511C183.92 417.618 183.732 417.765 183.581 417.95C183.43 418.136 183.31 418.351 183.222 418.595C183.139 418.839 183.083 419.103 183.054 419.386V420.711C183.098 421.078 183.19 421.415 183.332 421.722C183.479 422.025 183.684 422.269 183.947 422.455C184.211 422.635 184.55 422.726 184.965 422.726C185.292 422.726 185.568 422.66 185.793 422.528C186.018 422.396 186.196 422.213 186.328 421.979C186.464 421.739 186.562 421.461 186.621 421.144C186.684 420.826 186.716 420.484 186.716 420.118ZM194.743 422.132V416.075H196.516V424H194.846L194.743 422.132ZM194.992 420.484L195.585 420.47C195.585 421.002 195.527 421.493 195.41 421.942C195.292 422.386 195.112 422.774 194.868 423.106C194.624 423.434 194.311 423.69 193.93 423.875C193.549 424.056 193.093 424.146 192.561 424.146C192.175 424.146 191.821 424.09 191.499 423.978C191.176 423.866 190.898 423.692 190.664 423.458C190.434 423.224 190.256 422.918 190.129 422.542C190.002 422.167 189.938 421.717 189.938 421.195V416.075H191.704V421.209C191.704 421.498 191.738 421.739 191.806 421.935C191.875 422.125 191.967 422.279 192.084 422.396C192.202 422.513 192.338 422.596 192.495 422.645C192.651 422.694 192.817 422.718 192.993 422.718C193.496 422.718 193.891 422.621 194.179 422.425C194.472 422.225 194.68 421.957 194.802 421.62C194.929 421.283 194.992 420.904 194.992 420.484ZM200.625 423.136L202.778 416.075H204.667L201.489 425.208C201.416 425.404 201.32 425.616 201.203 425.846C201.086 426.075 200.932 426.292 200.742 426.498C200.556 426.708 200.324 426.876 200.046 427.003C199.768 427.135 199.431 427.201 199.035 427.201C198.879 427.201 198.728 427.186 198.581 427.157C198.439 427.132 198.305 427.105 198.178 427.076L198.171 425.729C198.22 425.733 198.278 425.738 198.347 425.743C198.42 425.748 198.479 425.75 198.522 425.75C198.815 425.75 199.06 425.714 199.255 425.641C199.45 425.572 199.609 425.46 199.731 425.304C199.858 425.147 199.965 424.938 200.053 424.674L200.625 423.136ZM199.409 416.075L201.291 422.008L201.606 423.868L200.383 424.183L197.504 416.075H199.409ZM209.069 424.146C208.483 424.146 207.954 424.051 207.48 423.861C207.011 423.666 206.611 423.395 206.279 423.048C205.952 422.701 205.7 422.293 205.524 421.825C205.349 421.356 205.261 420.851 205.261 420.309V420.016C205.261 419.396 205.351 418.834 205.532 418.331C205.712 417.828 205.964 417.398 206.286 417.042C206.608 416.681 206.989 416.405 207.429 416.214C207.868 416.024 208.344 415.929 208.857 415.929C209.423 415.929 209.919 416.024 210.344 416.214C210.769 416.405 211.12 416.673 211.398 417.02C211.682 417.362 211.892 417.77 212.028 418.243C212.17 418.717 212.241 419.239 212.241 419.811V420.565H206.118V419.298H210.498V419.159C210.488 418.841 210.424 418.543 210.307 418.265C210.195 417.987 210.021 417.762 209.787 417.591C209.553 417.42 209.24 417.335 208.85 417.335C208.557 417.335 208.295 417.398 208.066 417.525C207.841 417.647 207.653 417.826 207.502 418.06C207.351 418.294 207.233 418.578 207.15 418.91C207.072 419.237 207.033 419.605 207.033 420.016V420.309C207.033 420.655 207.08 420.978 207.172 421.275C207.27 421.568 207.412 421.825 207.597 422.044C207.783 422.264 208.007 422.438 208.271 422.564C208.535 422.687 208.835 422.748 209.172 422.748C209.597 422.748 209.975 422.662 210.307 422.491C210.639 422.32 210.927 422.079 211.171 421.766L212.102 422.667C211.931 422.916 211.708 423.155 211.435 423.385C211.162 423.609 210.827 423.792 210.432 423.934C210.041 424.076 209.587 424.146 209.069 424.146ZM215.39 417.584V424H213.625V416.075H215.31L215.39 417.584ZM217.814 416.024L217.8 417.665C217.692 417.645 217.575 417.63 217.448 417.621C217.326 417.611 217.204 417.606 217.082 417.606C216.779 417.606 216.513 417.65 216.284 417.738C216.054 417.821 215.861 417.943 215.705 418.104C215.554 418.26 215.437 418.451 215.354 418.675C215.271 418.9 215.222 419.151 215.207 419.43L214.804 419.459C214.804 418.961 214.853 418.5 214.951 418.075C215.048 417.65 215.195 417.276 215.39 416.954C215.59 416.632 215.839 416.38 216.137 416.2C216.44 416.019 216.789 415.929 217.185 415.929C217.292 415.929 217.407 415.938 217.529 415.958C217.656 415.978 217.751 416 217.814 416.024ZM223.366 421.854C223.366 421.678 223.322 421.52 223.234 421.378C223.146 421.231 222.978 421.1 222.729 420.982C222.485 420.865 222.124 420.758 221.645 420.66C221.225 420.567 220.839 420.458 220.488 420.331C220.141 420.199 219.843 420.04 219.594 419.854C219.345 419.669 219.152 419.449 219.016 419.195C218.879 418.941 218.811 418.648 218.811 418.316C218.811 417.994 218.881 417.689 219.023 417.401C219.165 417.113 219.367 416.859 219.631 416.639C219.895 416.419 220.214 416.246 220.59 416.119C220.971 415.992 221.396 415.929 221.865 415.929C222.529 415.929 223.098 416.041 223.571 416.266C224.05 416.485 224.416 416.786 224.67 417.167C224.924 417.542 225.051 417.967 225.051 418.441H223.286C223.286 418.231 223.232 418.036 223.125 417.855C223.022 417.669 222.866 417.521 222.656 417.408C222.446 417.291 222.182 417.232 221.865 417.232C221.562 417.232 221.311 417.281 221.11 417.379C220.915 417.472 220.769 417.594 220.671 417.745C220.578 417.896 220.532 418.062 220.532 418.243C220.532 418.375 220.556 418.495 220.605 418.602C220.659 418.705 220.747 418.8 220.869 418.888C220.991 418.971 221.157 419.049 221.367 419.122C221.582 419.195 221.85 419.266 222.172 419.334C222.778 419.461 223.298 419.625 223.732 419.825C224.172 420.021 224.509 420.274 224.743 420.587C224.978 420.895 225.095 421.285 225.095 421.759C225.095 422.11 225.019 422.433 224.868 422.726C224.721 423.014 224.506 423.265 224.223 423.48C223.94 423.69 223.601 423.854 223.205 423.971C222.814 424.088 222.375 424.146 221.887 424.146C221.169 424.146 220.561 424.02 220.063 423.766C219.565 423.507 219.187 423.177 218.928 422.777C218.674 422.372 218.547 421.952 218.547 421.517H220.253C220.273 421.844 220.363 422.105 220.524 422.301C220.69 422.491 220.896 422.63 221.14 422.718C221.389 422.801 221.645 422.843 221.909 422.843C222.226 422.843 222.492 422.801 222.707 422.718C222.922 422.63 223.085 422.513 223.198 422.367C223.31 422.215 223.366 422.044 223.366 421.854Z" fill="#19486D"/>
</svg>
