<svg width="775" height="254" viewBox="0 0 775 254" fill="none" xmlns="http://www.w3.org/2000/svg">
<line x1="29" y1="169.6" x2="256" y2="169.6" stroke="#7D9BBA" stroke-width="0.8" stroke-dasharray="3.59 3.59"/>
<g filter="url(#filter0_d_3418_1022)">
<rect x="259.019" y="72.9629" width="258.631" height="138.262" rx="17.9652" fill="white"/>
<rect x="259.468" y="73.412" width="257.733" height="137.363" rx="17.5161" stroke="#92CFD6" stroke-width="0.898262"/>
</g>
<path d="M305.496 173.022C305.369 173.312 305.197 173.566 304.975 173.783C304.755 173.999 304.496 174.17 304.202 174.296C303.908 174.419 303.591 174.482 303.256 174.482H302.552C302.217 174.482 301.9 174.419 301.603 174.296C301.307 174.173 301.048 173.999 300.826 173.783C300.606 173.566 300.432 173.312 300.304 173.022C300.176 172.733 300.115 172.421 300.115 172.091V166.858C300.115 166.528 300.179 166.216 300.304 165.927C300.429 165.637 300.603 165.383 300.826 165.167C301.046 164.95 301.307 164.779 301.603 164.653C301.9 164.53 302.217 164.467 302.552 164.467H303.256C303.591 164.467 303.908 164.53 304.202 164.653C304.496 164.779 304.755 164.95 304.975 165.167C305.195 165.383 305.369 165.637 305.496 165.927C305.622 166.216 305.686 166.528 305.686 166.858V172.091C305.686 172.421 305.622 172.733 305.496 173.022ZM304.796 166.858C304.796 166.642 304.755 166.438 304.67 166.249C304.586 166.06 304.473 165.897 304.333 165.756C304.189 165.615 304.023 165.504 303.831 165.423C303.639 165.343 303.435 165.3 303.212 165.3H302.591C302.371 165.3 302.163 165.34 301.972 165.423C301.78 165.504 301.613 165.615 301.468 165.756C301.322 165.897 301.209 166.06 301.125 166.249C301.041 166.438 301 166.639 301 166.858V172.091C301 172.308 301.041 172.511 301.125 172.7C301.209 172.889 301.322 173.053 301.468 173.196C301.613 173.34 301.78 173.45 301.972 173.533C302.163 173.614 302.368 173.657 302.591 173.657H303.212C303.432 173.657 303.639 173.616 303.831 173.533C304.023 173.453 304.189 173.34 304.333 173.196C304.476 173.053 304.588 172.889 304.67 172.7C304.752 172.511 304.796 172.31 304.796 172.091V166.858Z" fill="#606161"/>
<path d="M311.804 173.234C311.697 173.483 311.549 173.699 311.359 173.885C311.17 174.072 310.95 174.218 310.697 174.323C310.444 174.429 310.175 174.482 309.888 174.482H309.674C309.356 174.482 309.062 174.419 308.789 174.291C308.515 174.162 308.285 173.986 308.09 173.762V177.133H307.241V167.386H307.525L307.988 168.094C308.182 167.834 308.423 167.63 308.717 167.479C309.009 167.328 309.328 167.253 309.674 167.253H309.888C310.175 167.253 310.444 167.306 310.697 167.412C310.95 167.517 311.17 167.663 311.359 167.849C311.549 168.036 311.697 168.252 311.804 168.501C311.912 168.751 311.965 169.015 311.965 169.297V172.436C311.965 172.718 311.912 172.982 311.804 173.231V173.234ZM311.116 169.252C311.116 169.083 311.083 168.927 311.019 168.778C310.955 168.632 310.868 168.504 310.756 168.393C310.646 168.285 310.515 168.199 310.364 168.134C310.213 168.071 310.055 168.038 309.883 168.038H309.318C309.147 168.038 308.988 168.071 308.837 168.134C308.686 168.197 308.558 168.282 308.446 168.393C308.336 168.501 308.249 168.63 308.182 168.778C308.118 168.924 308.085 169.083 308.085 169.252V172.486C308.085 172.655 308.118 172.811 308.182 172.959C308.246 173.108 308.333 173.234 308.446 173.344C308.556 173.453 308.686 173.538 308.837 173.604C308.988 173.669 309.147 173.699 309.318 173.699H309.883C310.055 173.699 310.213 173.666 310.364 173.604C310.513 173.541 310.643 173.455 310.756 173.344C310.868 173.234 310.953 173.108 311.019 172.959C311.083 172.813 311.116 172.655 311.116 172.486V169.252Z" fill="#606161"/>
<path d="M317.947 173.234C317.839 173.483 317.691 173.7 317.502 173.886C317.312 174.072 317.092 174.218 316.839 174.324C316.586 174.43 316.317 174.482 316.031 174.482H315.466C315.179 174.482 314.91 174.43 314.657 174.324C314.404 174.218 314.184 174.072 313.995 173.886C313.805 173.7 313.657 173.483 313.55 173.234C313.442 172.985 313.388 172.72 313.388 172.439V169.3C313.388 169.018 313.442 168.754 313.55 168.504C313.657 168.255 313.805 168.039 313.995 167.852C314.184 167.666 314.404 167.52 314.657 167.414C314.91 167.309 315.179 167.256 315.466 167.256H316.031C316.317 167.256 316.586 167.309 316.839 167.414C317.092 167.52 317.312 167.666 317.502 167.852C317.691 168.039 317.839 168.255 317.947 168.504C318.054 168.754 318.108 169.018 318.108 169.3V170.938H314.233V172.489C314.233 172.658 314.266 172.814 314.33 172.962C314.394 173.111 314.481 173.236 314.593 173.347C314.703 173.455 314.834 173.541 314.985 173.606C315.136 173.672 315.294 173.702 315.466 173.702H316.031C316.202 173.702 316.361 173.669 316.512 173.606C316.66 173.544 316.791 173.458 316.903 173.347C317.016 173.236 317.1 173.111 317.167 172.962C317.23 172.816 317.264 172.658 317.264 172.489V172.026L318.113 172.162V172.441C318.113 172.723 318.059 172.987 317.952 173.236L317.947 173.234ZM317.259 169.252C317.259 169.083 317.225 168.927 317.161 168.779C317.097 168.633 317.01 168.504 316.898 168.394C316.788 168.285 316.657 168.2 316.507 168.134C316.356 168.071 316.197 168.039 316.026 168.039H315.46C315.289 168.039 315.13 168.071 314.98 168.134C314.829 168.197 314.701 168.283 314.588 168.394C314.478 168.502 314.391 168.63 314.325 168.779C314.261 168.925 314.227 169.083 314.227 169.252V170.284H317.251V169.252H317.259Z" fill="#606161"/>
<path d="M323.395 174.349V169.252C323.395 169.083 323.362 168.927 323.298 168.779C323.234 168.633 323.147 168.504 323.035 168.394C322.925 168.285 322.794 168.2 322.643 168.134C322.492 168.071 322.334 168.039 322.162 168.039H321.597C321.426 168.039 321.267 168.071 321.116 168.134C320.965 168.197 320.837 168.283 320.725 168.394C320.615 168.502 320.528 168.63 320.461 168.779C320.397 168.925 320.364 169.083 320.364 169.252V174.349H319.515V167.389H319.799L320.262 168.097C320.456 167.837 320.697 167.633 320.991 167.482C321.282 167.331 321.602 167.256 321.947 167.256H322.162C322.449 167.256 322.717 167.309 322.971 167.414C323.224 167.52 323.444 167.666 323.633 167.852C323.822 168.039 323.971 168.255 324.078 168.504C324.186 168.754 324.239 169.018 324.239 169.3V174.349H323.39H323.395Z" fill="#606161"/>
<path d="M334.019 174.348L329.891 167.252L329.809 166.832V174.348H328.919V164.604H329.382L333.51 171.705L333.6 172.121V164.604H334.49V174.348H334.019Z" fill="#606161"/>
<path d="M340.614 173.234C340.506 173.483 340.358 173.7 340.169 173.886C339.979 174.072 339.759 174.218 339.506 174.324C339.253 174.43 338.984 174.482 338.698 174.482H338.133C337.846 174.482 337.578 174.43 337.324 174.324C337.071 174.218 336.851 174.072 336.662 173.886C336.473 173.7 336.324 173.483 336.217 173.234C336.109 172.985 336.056 172.72 336.056 172.439V169.3C336.056 169.018 336.109 168.754 336.217 168.504C336.324 168.255 336.473 168.039 336.662 167.852C336.851 167.666 337.071 167.52 337.324 167.414C337.578 167.309 337.846 167.256 338.133 167.256H338.698C338.984 167.256 339.253 167.309 339.506 167.414C339.759 167.52 339.979 167.666 340.169 167.852C340.358 168.039 340.506 168.255 340.614 168.504C340.721 168.754 340.775 169.018 340.775 169.3V170.938H336.9V172.489C336.9 172.658 336.933 172.814 336.997 172.962C337.061 173.111 337.148 173.236 337.26 173.347C337.37 173.455 337.501 173.541 337.652 173.606C337.803 173.672 337.961 173.702 338.133 173.702H338.698C338.869 173.702 339.028 173.669 339.179 173.606C339.327 173.544 339.458 173.458 339.57 173.347C339.683 173.236 339.767 173.111 339.834 172.962C339.898 172.816 339.931 172.658 339.931 172.489V172.026L340.78 172.162V172.441C340.78 172.723 340.726 172.987 340.619 173.236L340.614 173.234ZM339.926 169.252C339.926 169.083 339.892 168.927 339.828 168.779C339.765 168.633 339.678 168.504 339.565 168.394C339.455 168.285 339.325 168.2 339.174 168.134C339.023 168.071 338.864 168.039 338.693 168.039H338.127C337.956 168.039 337.797 168.071 337.647 168.134C337.496 168.197 337.368 168.283 337.255 168.394C337.145 168.502 337.058 168.63 336.992 168.779C336.928 168.925 336.895 169.083 336.895 169.252V170.284H339.918V169.252H339.926Z" fill="#606161"/>
<path d="M344.764 174.348C344.506 174.348 344.263 174.3 344.035 174.205C343.808 174.109 343.611 173.978 343.442 173.809C343.273 173.641 343.14 173.447 343.04 173.225C342.94 173.004 342.892 172.765 342.892 172.513V168.184H341.621V167.388H342.892V165.717L343.741 165.581V167.388H345.537V168.184H343.741V172.553C343.741 172.694 343.767 172.825 343.82 172.944C343.874 173.064 343.946 173.17 344.038 173.258C344.13 173.349 344.237 173.419 344.363 173.472C344.488 173.525 344.621 173.55 344.764 173.55H345.537V174.346H344.764V174.348Z" fill="#606161"/>
<path d="M352.774 174.348H352.311L350.654 169.103L350.626 168.743L350.597 169.103L348.94 174.348H348.469L346.108 167.389H346.97L348.656 172.649L348.684 173.009L348.712 172.649L350.37 167.389H350.881L352.531 172.649L352.559 173.009L352.588 172.649L354.273 167.389H355.135L352.774 174.348Z" fill="#606161"/>
<path d="M360.407 173.234C360.3 173.483 360.151 173.7 359.962 173.886C359.773 174.072 359.553 174.218 359.3 174.324C359.046 174.43 358.778 174.482 358.491 174.482H357.926C357.639 174.482 357.371 174.43 357.118 174.324C356.864 174.218 356.644 174.072 356.455 173.886C356.266 173.7 356.117 173.483 356.01 173.234C355.903 172.985 355.849 172.72 355.849 172.439V169.3C355.849 169.018 355.903 168.754 356.01 168.504C356.117 168.255 356.266 168.039 356.455 167.852C356.644 167.666 356.864 167.52 357.118 167.414C357.371 167.309 357.639 167.256 357.926 167.256H358.491C358.778 167.256 359.046 167.309 359.3 167.414C359.553 167.52 359.773 167.666 359.962 167.852C360.151 168.039 360.3 168.255 360.407 168.504C360.515 168.754 360.568 169.018 360.568 169.3V172.439C360.568 172.72 360.515 172.985 360.407 173.234ZM359.719 169.252C359.719 169.083 359.686 168.927 359.622 168.779C359.558 168.633 359.471 168.504 359.358 168.394C359.248 168.285 359.118 168.2 358.967 168.134C358.816 168.071 358.657 168.039 358.486 168.039H357.921C357.749 168.039 357.591 168.071 357.44 168.134C357.289 168.197 357.161 168.283 357.049 168.394C356.939 168.502 356.852 168.63 356.785 168.779C356.721 168.925 356.688 169.083 356.688 169.252V172.486C356.688 172.655 356.721 172.811 356.785 172.96C356.849 173.108 356.936 173.234 357.049 173.345C357.159 173.453 357.289 173.539 357.44 173.604C357.591 173.669 357.749 173.7 357.921 173.7H358.486C358.657 173.7 358.816 173.667 358.967 173.604C359.115 173.541 359.246 173.455 359.358 173.345C359.471 173.234 359.555 173.108 359.622 172.96C359.686 172.814 359.719 172.655 359.719 172.486V169.252Z" fill="#606161"/>
<path d="M364.064 168.184C363.893 168.184 363.735 168.217 363.584 168.28C363.433 168.343 363.305 168.428 363.192 168.539C363.082 168.647 362.995 168.776 362.929 168.924C362.865 169.07 362.832 169.229 362.832 169.397V174.351H361.982V167.391H362.266L362.729 168.099C362.924 167.839 363.164 167.635 363.458 167.484C363.75 167.333 364.07 167.258 364.415 167.258H364.911V168.189H364.062L364.064 168.184Z" fill="#606161"/>
<path d="M366.046 174.348V164.604H366.895V174.348H366.046ZM369.946 174.348L367.061 170.87L369.946 167.391H371.051L368.097 170.87L371.051 174.348H369.946Z" fill="#606161"/>
<path d="M377.299 165.398C377.156 165.398 377.023 165.423 376.903 165.476C376.78 165.528 376.672 165.599 376.58 165.69C376.488 165.78 376.417 165.886 376.363 166.009C376.309 166.133 376.284 166.263 376.284 166.404V167.389H377.933V168.184H376.284V174.348H375.434V168.184H374.158V167.389H375.434V166.445C375.434 166.19 375.483 165.951 375.58 165.727C375.677 165.503 375.81 165.307 375.982 165.138C376.153 164.97 376.35 164.839 376.575 164.743C376.8 164.647 377.043 164.6 377.299 164.6H378.079V165.395H377.299V165.398Z" fill="#606161"/>
<path d="M383.208 173.234C383.1 173.483 382.952 173.7 382.762 173.886C382.573 174.072 382.353 174.218 382.1 174.324C381.847 174.43 381.578 174.482 381.292 174.482H380.726C380.44 174.482 380.171 174.43 379.918 174.324C379.665 174.218 379.445 174.072 379.256 173.886C379.066 173.7 378.918 173.483 378.81 173.234C378.703 172.985 378.649 172.72 378.649 172.439V169.3C378.649 169.018 378.703 168.754 378.81 168.504C378.918 168.255 379.066 168.039 379.256 167.852C379.445 167.666 379.665 167.52 379.918 167.414C380.171 167.309 380.44 167.256 380.726 167.256H381.292C381.578 167.256 381.847 167.309 382.1 167.414C382.353 167.52 382.573 167.666 382.762 167.852C382.952 168.039 383.1 168.255 383.208 168.504C383.315 168.754 383.369 169.018 383.369 169.3V172.439C383.369 172.72 383.315 172.985 383.208 173.234ZM382.519 169.252C382.519 169.083 382.486 168.927 382.422 168.779C382.358 168.633 382.271 168.504 382.159 168.394C382.049 168.285 381.918 168.2 381.767 168.134C381.616 168.071 381.458 168.039 381.287 168.039H380.721C380.55 168.039 380.391 168.071 380.24 168.134C380.089 168.197 379.962 168.283 379.849 168.394C379.739 168.502 379.652 168.63 379.586 168.779C379.522 168.925 379.488 169.083 379.488 169.252V172.486C379.488 172.655 379.522 172.811 379.586 172.96C379.649 173.108 379.736 173.234 379.849 173.345C379.959 173.453 380.089 173.539 380.24 173.604C380.391 173.669 380.55 173.7 380.721 173.7H381.287C381.458 173.7 381.616 173.667 381.767 173.604C381.916 173.541 382.046 173.455 382.159 173.345C382.271 173.234 382.356 173.108 382.422 172.96C382.486 172.814 382.519 172.655 382.519 172.486V169.252Z" fill="#606161"/>
<path d="M386.865 168.184C386.694 168.184 386.535 168.217 386.384 168.28C386.233 168.343 386.105 168.428 385.993 168.539C385.883 168.647 385.796 168.776 385.729 168.924C385.665 169.07 385.632 169.229 385.632 169.397V174.351H384.783V167.391H385.067L385.53 168.099C385.724 167.839 385.965 167.635 386.259 167.484C386.55 167.333 386.87 167.258 387.215 167.258H387.712V168.189H386.862L386.865 168.184Z" fill="#606161"/>
<path d="M397.206 172.886C397.081 173.176 396.907 173.43 396.684 173.646C396.462 173.863 396.203 174.034 395.906 174.16C395.61 174.286 395.293 174.346 394.957 174.346H391.821V164.603H394.957C395.293 164.603 395.61 164.665 395.906 164.789C396.203 164.912 396.462 165.083 396.684 165.302C396.904 165.519 397.078 165.776 397.206 166.067C397.334 166.359 397.395 166.672 397.395 167.001V171.955C397.395 172.285 397.331 172.597 397.206 172.886ZM396.505 167.001C396.505 166.785 396.464 166.581 396.38 166.392C396.298 166.203 396.183 166.04 396.037 165.896C395.891 165.753 395.725 165.642 395.533 165.559C395.341 165.476 395.137 165.436 394.914 165.436H392.712V173.508H394.914C395.134 173.508 395.341 173.468 395.533 173.385C395.725 173.302 395.891 173.193 396.037 173.052C396.183 172.911 396.295 172.748 396.38 172.559C396.462 172.37 396.505 172.169 396.505 171.95V166.996V167.001Z" fill="#606161"/>
<path d="M398.878 165.718V164.603H399.865V165.718H398.878ZM398.947 174.349V167.389H399.796V174.349H398.947Z" fill="#606161"/>
<path d="M406.122 176C406.014 176.236 405.866 176.438 405.677 176.604C405.487 176.77 405.267 176.901 405.014 176.994C404.761 177.087 404.492 177.133 404.206 177.133H403.853C403.566 177.133 403.298 177.085 403.044 176.994C402.791 176.901 402.571 176.77 402.382 176.604C402.193 176.438 402.044 176.234 401.937 176C401.829 175.763 401.776 175.506 401.776 175.225V175.197C401.776 174.925 401.827 174.676 401.927 174.449C402.029 174.223 402.167 174.026 402.341 173.858C402.121 173.727 401.945 173.548 401.814 173.324C401.684 173.1 401.617 172.851 401.617 172.579C401.617 172.335 401.671 172.106 401.776 171.897C401.881 171.688 402.026 171.514 402.211 171.383C401.991 171.192 401.814 170.966 401.686 170.696C401.558 170.429 401.492 170.138 401.492 169.82V169.297C401.492 169.015 401.546 168.751 401.653 168.501C401.76 168.252 401.909 168.036 402.098 167.849C402.287 167.663 402.507 167.517 402.761 167.412C403.014 167.306 403.282 167.253 403.569 167.253H403.922C404.267 167.253 404.587 167.328 404.879 167.479C405.17 167.63 405.413 167.837 405.608 168.094L406.07 167.386H406.354V169.82C406.354 170.102 406.301 170.367 406.193 170.616C406.086 170.865 405.937 171.081 405.748 171.268C405.559 171.454 405.339 171.6 405.086 171.706C404.832 171.811 404.564 171.864 404.277 171.864H403.047C402.95 171.864 402.858 171.884 402.771 171.922C402.684 171.96 402.607 172.013 402.541 172.076C402.474 172.139 402.423 172.214 402.385 172.302C402.349 172.39 402.328 172.481 402.328 172.577C402.328 172.672 402.346 172.763 402.385 172.848C402.42 172.934 402.474 173.01 402.541 173.075C402.607 173.14 402.684 173.191 402.771 173.229C402.858 173.266 402.95 173.284 403.047 173.284H404.208C404.495 173.284 404.763 173.332 405.017 173.422C405.27 173.515 405.49 173.646 405.679 173.812C405.868 173.979 406.017 174.182 406.124 174.417C406.232 174.653 406.285 174.91 406.285 175.192V175.22C406.285 175.501 406.232 175.758 406.124 175.995L406.122 176ZM405.51 169.252C405.51 169.083 405.477 168.927 405.413 168.778C405.349 168.632 405.26 168.504 405.147 168.393C405.035 168.285 404.904 168.199 404.753 168.134C404.602 168.068 404.444 168.038 404.272 168.038H403.569C403.397 168.038 403.239 168.071 403.088 168.134C402.937 168.197 402.809 168.282 402.699 168.393C402.589 168.504 402.502 168.63 402.436 168.778C402.369 168.927 402.339 169.083 402.339 169.252V169.871C402.339 170.039 402.372 170.195 402.436 170.344C402.5 170.492 402.587 170.618 402.699 170.729C402.812 170.84 402.94 170.923 403.088 170.988C403.236 171.051 403.397 171.084 403.569 171.084H404.272C404.444 171.084 404.602 171.051 404.753 170.988C404.902 170.925 405.035 170.84 405.147 170.729C405.26 170.621 405.349 170.492 405.413 170.344C405.477 170.198 405.51 170.039 405.51 169.871V169.252ZM405.474 175.157C405.474 174.988 405.441 174.839 405.377 174.704C405.313 174.57 405.226 174.457 405.114 174.366C405.004 174.276 404.873 174.205 404.725 174.155C404.574 174.104 404.416 174.079 404.244 174.079H403.809C403.638 174.079 403.479 174.104 403.328 174.155C403.18 174.205 403.05 174.276 402.937 174.366C402.825 174.457 402.74 174.57 402.674 174.704C402.61 174.837 402.576 174.988 402.576 175.157V175.265C402.576 175.433 402.61 175.582 402.674 175.713C402.738 175.844 402.825 175.957 402.937 176.05C403.047 176.143 403.177 176.214 403.328 176.264C403.477 176.314 403.638 176.34 403.809 176.34H404.244C404.416 176.34 404.574 176.314 404.725 176.264C404.873 176.214 405.004 176.143 405.114 176.05C405.224 175.957 405.311 175.846 405.377 175.713C405.441 175.582 405.474 175.431 405.474 175.265V175.157Z" fill="#606161"/>
<path d="M407.85 165.718V164.603H408.837V165.718H407.85ZM407.919 174.349V167.389H408.768V174.349H407.919Z" fill="#606161"/>
<path d="M413.043 174.348C412.784 174.348 412.541 174.3 412.314 174.205C412.086 174.109 411.889 173.978 411.72 173.809C411.551 173.641 411.418 173.447 411.319 173.225C411.219 173.004 411.17 172.765 411.17 172.513V168.184H409.899V167.388H411.17V165.717L412.02 165.581V167.388H413.815V168.184H412.02V172.553C412.02 172.694 412.045 172.825 412.099 172.944C412.153 173.064 412.224 173.17 412.316 173.258C412.408 173.346 412.516 173.419 412.641 173.472C412.766 173.525 412.899 173.55 413.043 173.55H413.815V174.346H413.043V174.348Z" fill="#606161"/>
<path d="M419.535 174.348L419.065 173.656C418.87 173.905 418.63 174.107 418.338 174.258C418.049 174.409 417.729 174.484 417.384 174.484H417.169C416.883 174.484 416.614 174.432 416.361 174.326C416.108 174.22 415.888 174.074 415.698 173.888C415.509 173.702 415.361 173.485 415.253 173.236C415.146 172.987 415.092 172.722 415.092 172.441V172.373C415.092 172.091 415.146 171.826 415.253 171.577C415.361 171.328 415.509 171.111 415.698 170.925C415.888 170.739 416.108 170.593 416.361 170.487C416.614 170.382 416.883 170.329 417.169 170.329H418.965V169.254C418.965 169.085 418.931 168.929 418.868 168.781C418.804 168.635 418.717 168.506 418.604 168.396C418.494 168.287 418.364 168.202 418.213 168.136C418.062 168.071 417.903 168.041 417.732 168.041H417.236C417.064 168.041 416.906 168.073 416.755 168.136C416.604 168.199 416.476 168.285 416.363 168.396C416.253 168.504 416.166 168.632 416.1 168.781C416.033 168.929 416.003 169.085 416.003 169.254V169.506L415.153 169.37V169.302C415.153 169.02 415.207 168.755 415.315 168.506C415.422 168.257 415.57 168.041 415.76 167.854C415.949 167.668 416.169 167.522 416.422 167.416C416.675 167.311 416.944 167.258 417.23 167.258H417.727C418.013 167.258 418.282 167.311 418.535 167.416C418.788 167.522 419.008 167.668 419.198 167.854C419.387 168.041 419.535 168.257 419.643 168.506C419.75 168.755 419.804 169.02 419.804 169.302V174.351H419.52L419.535 174.348ZM418.97 170.978H417.174C417.003 170.978 416.844 171.011 416.693 171.074C416.542 171.137 416.415 171.225 416.305 171.336C416.195 171.446 416.108 171.575 416.041 171.723C415.975 171.872 415.944 172.028 415.944 172.196V172.488C415.944 172.657 415.977 172.813 416.041 172.962C416.105 173.11 416.192 173.236 416.305 173.347C416.415 173.455 416.545 173.54 416.693 173.606C416.842 173.671 417.003 173.702 417.174 173.702H417.74C417.911 173.702 418.069 173.669 418.22 173.606C418.371 173.543 418.499 173.457 418.612 173.347C418.724 173.236 418.809 173.11 418.875 172.962C418.939 172.816 418.972 172.657 418.972 172.488V170.981L418.97 170.978Z" fill="#606161"/>
<path d="M421.517 174.348V164.604H422.366V174.348H421.517Z" fill="#606161"/>
<path d="M432.555 173.022C432.429 173.312 432.256 173.566 432.033 173.783C431.81 173.999 431.555 174.17 431.261 174.296C430.966 174.419 430.652 174.482 430.314 174.482H429.611C429.276 174.482 428.958 174.419 428.662 174.296C428.365 174.173 428.107 173.999 427.884 173.783C427.664 173.566 427.49 173.312 427.362 173.022C427.234 172.733 427.173 172.421 427.173 172.091V166.858C427.173 166.528 427.237 166.216 427.362 165.927C427.488 165.637 427.664 165.383 427.884 165.167C428.104 164.95 428.365 164.779 428.662 164.653C428.958 164.53 429.276 164.467 429.611 164.467H430.314C430.649 164.467 430.966 164.53 431.261 164.653C431.555 164.779 431.813 164.95 432.033 165.167C432.253 165.383 432.427 165.637 432.555 165.927C432.68 166.216 432.744 166.528 432.744 166.858V167.253L431.854 167.389V166.861C431.854 166.644 431.813 166.44 431.731 166.251C431.649 166.063 431.534 165.899 431.394 165.758C431.253 165.617 431.084 165.506 430.892 165.426C430.7 165.345 430.496 165.302 430.273 165.302H429.652C429.432 165.302 429.224 165.343 429.033 165.426C428.841 165.509 428.674 165.617 428.529 165.758C428.383 165.899 428.27 166.063 428.186 166.251C428.102 166.44 428.061 166.642 428.061 166.861V172.094C428.061 172.31 428.102 172.514 428.186 172.703C428.27 172.892 428.383 173.055 428.529 173.199C428.674 173.342 428.841 173.453 429.033 173.536C429.224 173.619 429.429 173.659 429.652 173.659H430.273C430.493 173.659 430.7 173.619 430.892 173.536C431.084 173.453 431.25 173.342 431.394 173.199C431.537 173.055 431.649 172.892 431.731 172.703C431.813 172.514 431.854 172.313 431.854 172.094V171.562L432.744 171.706V172.094C432.744 172.423 432.68 172.735 432.555 173.025V173.022Z" fill="#606161"/>
<path d="M438.724 173.234C438.617 173.483 438.468 173.7 438.279 173.886C438.09 174.072 437.87 174.218 437.617 174.324C437.363 174.43 437.095 174.482 436.808 174.482H436.243C435.957 174.482 435.688 174.43 435.435 174.324C435.182 174.218 434.962 174.072 434.772 173.886C434.583 173.7 434.435 173.483 434.327 173.234C434.22 172.985 434.166 172.72 434.166 172.439V169.3C434.166 169.018 434.22 168.754 434.327 168.504C434.435 168.255 434.583 168.039 434.772 167.852C434.962 167.666 435.182 167.52 435.435 167.414C435.688 167.309 435.957 167.256 436.243 167.256H436.808C437.095 167.256 437.363 167.309 437.617 167.414C437.87 167.52 438.09 167.666 438.279 167.852C438.468 168.039 438.617 168.255 438.724 168.504C438.832 168.754 438.885 169.018 438.885 169.3V172.439C438.885 172.72 438.832 172.985 438.724 173.234ZM438.036 169.252C438.036 169.083 438.003 168.927 437.939 168.779C437.875 168.633 437.788 168.504 437.676 168.394C437.566 168.285 437.435 168.2 437.284 168.134C437.133 168.069 436.975 168.039 436.803 168.039H436.238C436.067 168.039 435.908 168.071 435.757 168.134C435.606 168.197 435.478 168.283 435.368 168.394C435.258 168.504 435.171 168.63 435.105 168.779C435.038 168.927 435.008 169.083 435.008 169.252V172.486C435.008 172.655 435.041 172.811 435.105 172.96C435.169 173.108 435.256 173.234 435.368 173.345C435.478 173.453 435.609 173.539 435.757 173.604C435.905 173.669 436.067 173.7 436.238 173.7H436.803C436.975 173.7 437.133 173.667 437.284 173.604C437.435 173.541 437.563 173.455 437.676 173.345C437.788 173.234 437.873 173.108 437.939 172.96C438.003 172.814 438.036 172.655 438.036 172.486V169.252Z" fill="#606161"/>
<path d="M447.767 174.349V169.252C447.767 169.083 447.733 168.927 447.67 168.779C447.606 168.633 447.519 168.504 447.406 168.394C447.296 168.285 447.166 168.2 447.015 168.134C446.864 168.069 446.705 168.039 446.534 168.039H446.112C445.94 168.039 445.782 168.071 445.631 168.134C445.48 168.197 445.349 168.283 445.237 168.394C445.124 168.502 445.035 168.63 444.971 168.779C444.907 168.925 444.874 169.083 444.874 169.252V174.349H444.032V169.252C444.032 169.083 443.999 168.927 443.935 168.779C443.871 168.63 443.781 168.504 443.669 168.394C443.556 168.285 443.426 168.2 443.275 168.134C443.124 168.069 442.966 168.039 442.794 168.039H442.372C442.201 168.039 442.042 168.071 441.891 168.134C441.74 168.197 441.612 168.283 441.502 168.394C441.392 168.504 441.305 168.63 441.239 168.779C441.172 168.927 441.142 169.083 441.142 169.252V174.349H440.293V167.389H440.576L441.039 168.097C441.234 167.837 441.477 167.633 441.768 167.482C442.06 167.331 442.38 167.256 442.725 167.256H442.794C443.196 167.256 443.556 167.354 443.879 167.548C444.201 167.742 444.449 168.001 444.626 168.323C444.713 168.165 444.82 168.019 444.95 167.888C445.078 167.757 445.222 167.643 445.378 167.55C445.534 167.457 445.705 167.384 445.889 167.334C446.073 167.281 446.265 167.256 446.462 167.256H446.531C446.818 167.256 447.086 167.309 447.34 167.414C447.593 167.52 447.813 167.666 448.002 167.852C448.191 168.039 448.34 168.255 448.447 168.504C448.555 168.754 448.608 169.018 448.608 169.3V174.349H447.759H447.767Z" fill="#606161"/>
<path d="M457.493 174.349V169.252C457.493 169.083 457.46 168.927 457.396 168.779C457.332 168.633 457.245 168.504 457.133 168.394C457.023 168.285 456.892 168.2 456.741 168.134C456.59 168.069 456.432 168.039 456.26 168.039H455.838C455.667 168.039 455.508 168.071 455.357 168.134C455.206 168.197 455.076 168.283 454.963 168.394C454.851 168.502 454.761 168.63 454.697 168.779C454.633 168.925 454.6 169.083 454.6 169.252V174.349H453.759V169.252C453.759 169.083 453.725 168.927 453.661 168.779C453.598 168.63 453.508 168.504 453.395 168.394C453.283 168.285 453.152 168.2 453.002 168.134C452.851 168.069 452.692 168.039 452.521 168.039H452.099C451.927 168.039 451.769 168.071 451.618 168.134C451.467 168.197 451.339 168.283 451.229 168.394C451.119 168.504 451.032 168.63 450.965 168.779C450.899 168.927 450.868 169.083 450.868 169.252V174.349H450.019V167.389H450.303L450.766 168.097C450.96 167.837 451.203 167.633 451.495 167.482C451.787 167.331 452.106 167.256 452.452 167.256H452.521C452.922 167.256 453.283 167.354 453.605 167.548C453.927 167.742 454.176 168.001 454.352 168.323C454.439 168.165 454.547 168.019 454.677 167.888C454.805 167.757 454.948 167.643 455.104 167.55C455.26 167.457 455.432 167.384 455.616 167.334C455.8 167.281 455.992 167.256 456.189 167.256H456.258C456.544 167.256 456.813 167.309 457.066 167.414C457.319 167.52 457.539 167.666 457.729 167.852C457.918 168.039 458.066 168.255 458.174 168.504C458.281 168.754 458.335 169.018 458.335 169.3V174.349H457.486H457.493Z" fill="#606161"/>
<path d="M464.318 173.234C464.21 173.483 464.062 173.7 463.873 173.886C463.683 174.072 463.463 174.218 463.21 174.324C462.957 174.43 462.688 174.482 462.402 174.482H461.837C461.55 174.482 461.282 174.43 461.028 174.324C460.775 174.218 460.555 174.072 460.366 173.886C460.177 173.7 460.028 173.483 459.921 173.234C459.813 172.985 459.76 172.72 459.76 172.439V169.3C459.76 169.018 459.813 168.754 459.921 168.504C460.028 168.255 460.177 168.039 460.366 167.852C460.555 167.666 460.775 167.52 461.028 167.414C461.282 167.309 461.55 167.256 461.837 167.256H462.402C462.688 167.256 462.957 167.309 463.21 167.414C463.463 167.52 463.683 167.666 463.873 167.852C464.062 168.039 464.21 168.255 464.318 168.504C464.425 168.754 464.479 169.018 464.479 169.3V170.938H460.604V172.489C460.604 172.658 460.637 172.814 460.701 172.962C460.765 173.111 460.852 173.236 460.964 173.347C461.074 173.455 461.205 173.541 461.353 173.606C461.501 173.672 461.663 173.702 461.834 173.702H462.399C462.571 173.702 462.729 173.669 462.88 173.606C463.031 173.544 463.159 173.458 463.272 173.347C463.384 173.236 463.469 173.111 463.535 172.962C463.599 172.816 463.632 172.658 463.632 172.489V172.026L464.481 172.162V172.441C464.481 172.723 464.428 172.987 464.32 173.236L464.318 173.234ZM463.63 169.252C463.63 169.083 463.596 168.927 463.532 168.779C463.469 168.633 463.382 168.504 463.269 168.394C463.159 168.285 463.029 168.2 462.878 168.134C462.727 168.069 462.568 168.039 462.397 168.039H461.831C461.66 168.039 461.501 168.071 461.351 168.134C461.2 168.197 461.072 168.283 460.962 168.394C460.852 168.504 460.765 168.63 460.698 168.779C460.632 168.927 460.601 169.083 460.601 169.252V170.284H463.627V169.252H463.63Z" fill="#606161"/>
<path d="M467.976 168.184C467.805 168.184 467.646 168.217 467.495 168.28C467.344 168.343 467.216 168.428 467.106 168.539C466.996 168.65 466.909 168.776 466.843 168.924C466.776 169.073 466.746 169.229 466.746 169.397V174.351H465.896V167.391H466.18L466.643 168.099C466.838 167.839 467.081 167.635 467.372 167.484C467.664 167.333 467.984 167.258 468.329 167.258H468.825V168.189H467.976V168.184Z" fill="#606161"/>
<path d="M474.241 173.234C474.133 173.483 473.985 173.7 473.796 173.886C473.606 174.072 473.386 174.218 473.133 174.324C472.88 174.43 472.611 174.482 472.325 174.482H471.76C471.473 174.482 471.204 174.43 470.951 174.324C470.698 174.218 470.478 174.072 470.289 173.886C470.099 173.7 469.951 173.483 469.844 173.234C469.736 172.985 469.683 172.72 469.683 172.439V169.3C469.683 169.018 469.736 168.754 469.844 168.504C469.951 168.255 470.099 168.039 470.289 167.852C470.478 167.666 470.698 167.52 470.951 167.414C471.204 167.309 471.473 167.256 471.76 167.256H472.325C472.611 167.256 472.88 167.309 473.133 167.414C473.386 167.52 473.606 167.666 473.796 167.852C473.985 168.039 474.133 168.255 474.241 168.504C474.348 168.754 474.402 169.018 474.402 169.3V169.579L473.553 169.715V169.252C473.553 169.083 473.519 168.927 473.455 168.779C473.391 168.633 473.305 168.504 473.192 168.394C473.082 168.285 472.952 168.2 472.801 168.134C472.65 168.069 472.491 168.039 472.32 168.039H471.754C471.583 168.039 471.424 168.071 471.274 168.134C471.123 168.197 470.995 168.283 470.885 168.394C470.775 168.504 470.688 168.63 470.621 168.779C470.555 168.927 470.524 169.083 470.524 169.252V172.486C470.524 172.655 470.557 172.811 470.621 172.96C470.685 173.108 470.772 173.234 470.885 173.345C470.995 173.453 471.125 173.539 471.274 173.604C471.422 173.669 471.583 173.7 471.754 173.7H472.32C472.491 173.7 472.65 173.667 472.801 173.604C472.952 173.541 473.079 173.455 473.192 173.345C473.305 173.234 473.389 173.108 473.455 172.96C473.519 172.814 473.553 172.655 473.553 172.486V172.023L474.402 172.159V172.439C474.402 172.72 474.348 172.985 474.241 173.234Z" fill="#606161"/>
<path d="M480.381 173.234C480.274 173.483 480.125 173.7 479.936 173.886C479.747 174.072 479.527 174.218 479.274 174.324C479.02 174.43 478.752 174.482 478.465 174.482H477.9C477.614 174.482 477.345 174.43 477.092 174.324C476.838 174.218 476.619 174.072 476.429 173.886C476.24 173.7 476.092 173.483 475.984 173.234C475.877 172.985 475.823 172.72 475.823 172.439V169.3C475.823 169.018 475.877 168.754 475.984 168.504C476.092 168.255 476.24 168.039 476.429 167.852C476.619 167.666 476.838 167.52 477.092 167.414C477.345 167.309 477.614 167.256 477.9 167.256H478.465C478.752 167.256 479.02 167.309 479.274 167.414C479.527 167.52 479.747 167.666 479.936 167.852C480.125 168.039 480.274 168.255 480.381 168.504C480.489 168.754 480.542 169.018 480.542 169.3V170.938H476.667V172.489C476.667 172.658 476.7 172.814 476.764 172.962C476.828 173.111 476.915 173.236 477.028 173.347C477.138 173.455 477.268 173.541 477.417 173.606C477.565 173.672 477.726 173.702 477.897 173.702H478.463C478.634 173.702 478.793 173.669 478.944 173.606C479.095 173.544 479.222 173.458 479.335 173.347C479.448 173.236 479.532 173.111 479.598 172.962C479.662 172.816 479.696 172.658 479.696 172.489V172.026L480.545 172.162V172.441C480.545 172.723 480.491 172.987 480.384 173.236L480.381 173.234ZM479.693 169.252C479.693 169.083 479.66 168.927 479.596 168.779C479.532 168.633 479.445 168.504 479.332 168.394C479.222 168.285 479.092 168.2 478.941 168.134C478.79 168.069 478.632 168.039 478.46 168.039H477.895C477.724 168.039 477.565 168.071 477.414 168.134C477.263 168.197 477.135 168.283 477.025 168.394C476.915 168.504 476.828 168.63 476.762 168.779C476.695 168.927 476.665 169.083 476.665 169.252V170.284H479.691V169.252H479.693Z" fill="#606161"/>
<path d="M317.916 113.082C324.699 113.082 330.153 115.111 334.279 119.171C338.405 123.231 340.469 128.597 340.469 135.273C340.469 141.948 338.397 147.279 334.258 151.354C330.117 155.43 324.669 157.466 317.918 157.466C311.168 157.466 305.753 155.422 301.599 151.332C297.44 147.244 295.363 141.89 295.363 135.273C295.363 128.655 297.432 123.266 301.573 119.194C305.715 115.118 311.163 113.082 317.916 113.082ZM317.916 121.967C312.731 121.967 308.863 123.981 306.311 128.013C305.032 130.037 304.395 132.456 304.395 135.273C304.395 137.845 304.968 140.151 306.114 142.187C307.316 144.327 309.05 145.95 311.311 147.065C313.368 148.075 315.568 148.581 317.918 148.581C323.101 148.581 326.971 146.559 329.524 142.514C330.803 140.506 331.439 138.094 331.439 135.275C331.439 131.057 330.061 127.749 327.298 125.35C324.712 123.098 321.586 121.97 317.916 121.97V121.967Z" fill="url(#paint0_linear_3418_1022)"/>
<path d="M475.041 144.853L481.625 151.332C478.983 153.99 475.65 155.797 471.626 156.751C469.659 157.227 467.551 157.466 465.305 157.466C458.581 157.466 453.143 155.422 448.986 151.332C444.832 147.244 442.755 141.89 442.755 135.273C442.755 128.655 444.824 123.266 448.966 119.194C453.104 115.118 458.553 113.082 465.305 113.082C472.058 113.082 477.545 115.111 481.671 119.171L475.041 125.695C472.457 123.208 469.211 121.967 465.305 121.967C460.123 121.967 456.256 123.981 453.7 128.013C452.424 130.037 451.784 132.456 451.784 135.273C451.784 137.845 452.36 140.151 453.503 142.187C454.708 144.327 456.44 145.95 458.701 147.065C460.757 148.075 462.96 148.581 465.308 148.581C469.214 148.581 472.46 147.34 475.043 144.853H475.041Z" fill="url(#paint1_linear_3418_1022)"/>
<path d="M411.444 121.021C412.121 121.021 412.671 120.48 412.671 119.813C412.671 119.146 412.121 118.607 411.444 118.607C410.766 118.607 410.216 119.149 410.216 119.813C410.216 120.478 410.766 121.021 411.444 121.021Z" fill="url(#paint2_linear_3418_1022)"/>
<path d="M395.703 134.501C395.703 134.644 395.962 134.647 395.965 134.501C395.965 134.428 395.908 134.372 395.834 134.372C395.76 134.372 395.703 134.428 395.703 134.501Z" fill="url(#paint3_linear_3418_1022)"/>
<path d="M432.144 119.171C429.476 116.548 426.253 114.778 422.48 113.85L420.17 116.125C420.664 117.258 420.94 118.504 420.94 119.813C420.94 120.814 420.779 121.781 420.48 122.687C422.199 123.246 423.761 124.127 425.163 125.348C427.923 127.746 429.302 131.054 429.302 135.273C429.302 138.092 428.665 140.503 427.386 142.512C424.833 146.557 420.966 148.578 415.781 148.578H402.257V137.017C401.237 139.526 398.745 141.304 395.837 141.304C394.913 141.304 394.033 141.122 393.228 140.8V157.466H415.781C422.534 157.466 427.982 155.429 432.121 151.354C436.264 147.279 438.331 141.92 438.331 135.273C438.331 128.625 436.27 123.231 432.146 119.171H432.144Z" fill="url(#paint4_linear_3418_1022)"/>
<path d="M418.032 122.394L412.029 119.874C411.699 119.736 411.361 120.066 411.504 120.39L414.065 126.298C414.129 126.446 414.28 126.545 414.451 126.537C414.617 126.529 414.763 126.424 414.814 126.268L415.605 123.909L418.002 123.131C418.16 123.081 418.27 122.938 418.275 122.774C418.283 122.61 418.186 122.459 418.032 122.394ZM415.162 123.222C415.042 123.262 414.947 123.353 414.906 123.474L414.385 125.029L412.63 120.982L416.743 122.708L415.162 123.222Z" fill="#939598"/>
<path d="M411.448 115.462C409.01 115.462 407.025 117.415 407.025 119.814C407.025 122.213 409.01 124.166 411.448 124.166C411.767 124.166 412.028 123.909 412.028 123.595C412.028 123.28 411.767 123.023 411.448 123.023C409.649 123.023 408.186 121.583 408.186 119.814C408.186 118.044 409.649 116.605 411.448 116.605C413.246 116.605 414.709 118.044 414.709 119.814C414.709 120.129 414.97 120.385 415.29 120.385C415.609 120.385 415.87 120.129 415.87 119.814C415.87 117.415 413.885 115.462 411.448 115.462Z" fill="#44823D"/>
<path d="M416.397 114.94C415.07 113.634 413.31 112.914 411.445 112.914C409.58 112.914 407.82 113.634 406.493 114.94C403.764 117.626 403.764 121.998 406.493 124.687C407.82 125.993 409.58 126.713 411.445 126.713C411.765 126.713 412.026 126.456 412.026 126.141C412.026 125.827 411.765 125.57 411.445 125.57C408.22 125.57 405.595 122.987 405.595 119.813C405.595 116.639 408.22 114.057 411.445 114.057C414.671 114.057 417.295 116.639 417.295 119.813C417.295 120.128 417.556 120.385 417.876 120.385C418.195 120.385 418.456 120.128 418.456 119.813C418.456 117.978 417.725 116.247 416.397 114.94Z" fill="#F29C49"/>
<path d="M343.202 157.466H352.231V129.04L370.267 143.239V134.387L343.202 113.082V157.466Z" fill="url(#paint5_linear_3418_1022)"/>
<path d="M401.95 119.813C401.95 118.504 402.224 117.258 402.72 116.125L401.144 114.572C399.469 114.738 397.903 114.137 396.775 113.082H376.711V150.355L385.741 157.463V121.967H402.208C402.042 121.275 401.953 120.553 401.953 119.813H401.95Z" fill="url(#paint6_linear_3418_1022)"/>
<path d="M422.299 127.825C421.798 127.825 421.332 127.969 420.928 128.203L418.621 125.933C418.324 126.27 418.005 126.585 417.662 126.877L419.969 129.147C419.729 129.545 419.583 130.003 419.583 130.496C419.583 131.969 420.8 133.167 422.297 133.167C423.793 133.167 425.011 131.969 425.011 130.496C425.011 129.024 423.793 127.825 422.297 127.825H422.299ZM422.299 131.83C421.55 131.83 420.944 131.231 420.944 130.496C420.944 129.761 421.552 129.162 422.299 129.162C423.046 129.162 423.655 129.761 423.655 130.496C423.655 131.231 423.046 131.83 422.299 131.83Z" fill="url(#paint7_linear_3418_1022)"/>
<path d="M425.011 103.123C422.765 103.123 420.941 104.92 420.941 107.128C420.941 107.82 421.12 108.469 421.435 109.038L417.662 112.751C418.005 113.043 418.324 113.358 418.621 113.695L422.284 110.09C423.005 110.735 423.962 111.132 425.013 111.132C427.259 111.132 429.083 109.335 429.083 107.128C429.083 104.92 427.257 103.123 425.013 103.123H425.011ZM425.011 109.798C423.514 109.798 422.297 108.6 422.297 107.128C422.297 105.655 423.514 104.457 425.011 104.457C426.507 104.457 427.725 105.655 427.725 107.128C427.725 108.6 426.507 109.798 425.011 109.798Z" fill="url(#paint8_linear_3418_1022)"/>
<path d="M400.589 111.801C401.091 111.801 401.556 111.658 401.96 111.424L404.268 113.694C404.564 113.357 404.884 113.042 405.227 112.75L402.92 110.48C403.158 110.082 403.303 109.626 403.303 109.131C403.303 107.658 402.086 106.46 400.589 106.46C399.093 106.46 397.876 107.658 397.876 109.131C397.876 110.603 399.093 111.801 400.589 111.801ZM400.589 107.797C401.339 107.797 401.945 108.396 401.945 109.131C401.945 109.866 401.336 110.465 400.589 110.465C399.843 110.465 399.234 109.866 399.234 109.131C399.234 108.396 399.843 107.797 400.589 107.797Z" fill="url(#paint9_linear_3418_1022)"/>
<path d="M405.225 126.877C404.882 126.585 404.562 126.27 404.266 125.933L398.569 131.538C397.845 130.894 396.891 130.496 395.84 130.496C393.594 130.496 391.77 132.293 391.77 134.501C391.77 136.708 393.596 138.506 395.84 138.506C398.083 138.506 399.909 136.708 399.909 134.501C399.909 133.809 399.73 133.159 399.416 132.59L405.225 126.874V126.877ZM395.837 137.171C394.341 137.171 393.123 135.973 393.123 134.501C393.123 133.028 394.341 131.83 395.837 131.83C397.334 131.83 398.551 133.028 398.551 134.501C398.551 135.973 397.334 137.171 395.837 137.171Z" fill="url(#paint10_linear_3418_1022)"/>
<path d="M412.12 131.891V129.135C411.895 129.15 411.67 129.16 411.44 129.16C411.21 129.16 410.987 129.15 410.762 129.135V131.891C408.841 132.211 407.37 133.854 407.37 135.838C407.37 138.048 409.197 139.842 411.44 139.842C413.683 139.842 415.51 138.045 415.51 135.838C415.51 133.857 414.039 132.211 412.118 131.891H412.12ZM411.44 138.508C409.944 138.508 408.726 137.31 408.726 135.838C408.726 134.365 409.944 133.167 411.44 133.167C412.936 133.167 414.154 134.365 414.154 135.838C414.154 137.31 412.936 138.508 411.44 138.508Z" fill="url(#paint11_linear_3418_1022)"/>
<line x1="169.2" y1="38.6535" x2="256.157" y2="88.8107" stroke="#7D9BBA" stroke-width="0.8" stroke-dasharray="3.59 3.59"/>
<line x1="82.0986" y1="78.6124" x2="256.266" y2="122.928" stroke="#7D9BBA" stroke-width="0.8" stroke-dasharray="3.59 3.59"/>
<line x1="142.044" y1="131.602" x2="255.773" y2="144.064" stroke="#7D9BBA" stroke-width="0.8" stroke-dasharray="3.59 3.59"/>
<path d="M121 149C132.598 149 142 139.598 142 128C142 116.402 132.598 107 121 107C109.402 107 100 116.402 100 128C100 139.598 109.402 149 121 149Z" stroke="#104467" stroke-width="0.8" stroke-miterlimit="10"/>
<path d="M125.579 120.65V123.925C125.579 125.108 125.109 126.242 124.273 127.079C123.436 127.915 122.302 128.385 121.119 128.385H120.9C120.314 128.385 119.734 128.27 119.193 128.046C118.652 127.821 118.16 127.493 117.746 127.079C117.332 126.665 117.003 126.173 116.779 125.632C116.555 125.091 116.439 124.511 116.439 123.925V120.65C116.439 120.65 119.347 121.924 121.608 120.068C121.65 120.033 121.701 120.009 121.755 120.001C121.81 119.993 121.865 120 121.916 120.021C121.967 120.042 122.011 120.077 122.043 120.121C122.075 120.166 122.095 120.218 122.099 120.273L122.127 120.638C122.132 120.695 122.149 120.75 122.178 120.799C122.206 120.848 122.246 120.89 122.293 120.921C122.34 120.953 122.394 120.974 122.45 120.981C122.506 120.989 122.563 120.984 122.618 120.967C123.308 120.748 124.613 120.277 125.282 119.714C125.308 119.692 125.34 119.678 125.373 119.673C125.407 119.669 125.442 119.674 125.472 119.689C125.503 119.703 125.529 119.726 125.548 119.755C125.566 119.783 125.576 119.817 125.576 119.851L125.579 120.65Z" stroke="#104467" stroke-width="0.8" stroke-miterlimit="10"/>
<path d="M117.066 129.559H124.724C125.819 129.559 126.87 129.994 127.644 130.768C128.419 131.543 128.854 132.593 128.854 133.689V139.559H112.936V133.689C112.936 132.593 113.371 131.543 114.145 130.768C114.92 129.994 115.97 129.559 117.066 129.559Z" fill="#F39D48" stroke="#0D4568" stroke-width="0.8" stroke-miterlimit="10"/>
<path d="M116.734 129.558C116.734 129.558 113.702 128.228 112.936 127.101C112.936 127.101 114.361 124.078 114.452 120.67C114.543 117.261 117.412 114.474 120.894 114.444C120.894 114.444 126.872 114.115 127.79 120.343C127.79 120.343 127.79 124.838 129.065 126.812C129.065 126.812 128.205 129.136 124.855 129.552" stroke="#104467" stroke-width="0.8" stroke-miterlimit="10"/>
<line x1="113.898" y1="230.285" x2="255.413" y2="192.873" stroke="#7D9BBA" stroke-width="0.8" stroke-dasharray="3.59 3.59"/>
<line y1="-0.449131" x2="226.099" y2="-0.449131" transform="matrix(-1 8.74228e-08 8.74228e-08 1 747 170.487)" stroke="#7D9BBA" stroke-width="0.898262" stroke-dasharray="3.59 3.59"/>
<line y1="-0.449131" x2="96.2452" y2="-0.449131" transform="matrix(-0.861934 0.50702 0.50702 0.861934 604 40.3594)" stroke="#7D9BBA" stroke-width="0.898262" stroke-dasharray="3.59 3.59"/>
<line y1="-0.449131" x2="175.191" y2="-0.449131" transform="matrix(-0.965616 0.259973 0.259973 0.965616 690 77.7705)" stroke="#7D9BBA" stroke-width="0.898262" stroke-dasharray="3.59 3.59"/>
<line y1="-0.449131" x2="106.341" y2="-0.449131" transform="matrix(-0.994251 0.107073 0.107073 0.994251 627 133.075)" stroke="#7D9BBA" stroke-width="0.898262" stroke-dasharray="3.59 3.59"/>
<line y1="-0.449131" x2="146.377" y2="-0.449131" transform="matrix(-0.966786 -0.255587 -0.255587 0.966786 663 230.672)" stroke="#7D9BBA" stroke-width="0.898262" stroke-dasharray="3.59 3.59"/>
<path d="M41.5 105C63.8675 105 82 86.8675 82 64.5C82 42.1325 63.8675 24 41.5 24C19.1325 24 1 42.1325 1 64.5C1 86.8675 19.1325 105 41.5 105Z" stroke="#104467" stroke-width="0.8" stroke-miterlimit="10"/>
<path d="M33.2014 68.3281H49.7575C51.87 68.3281 53.8959 69.1673 55.3897 70.661C56.8834 72.1548 57.7226 74.1807 57.7226 76.2932V88.7367H25.2363V76.2932C25.2363 74.1807 26.0755 72.1548 27.5693 70.661C29.063 69.1673 31.0889 68.3281 33.2014 68.3281Z" fill="#F39D48" stroke="#0D4568" stroke-width="0.8" stroke-miterlimit="10"/>
<path d="M41.5207 65.6724H41.0745C38.6618 65.6696 36.3489 64.709 34.6441 63.0018C32.9392 61.2946 31.9819 58.9803 31.9824 56.5676V49.8839C31.9813 49.6071 32.046 49.3341 32.1711 49.0873C32.2962 48.8404 32.4782 48.6268 32.702 48.4641C32.9258 48.3014 33.1851 48.1942 33.4585 48.1514C33.7319 48.1085 34.0116 48.1312 34.2745 48.2177L37.1184 49.1607C39.8332 50.0615 42.7663 50.0615 45.481 49.1607L48.3271 48.2177C48.5895 48.1306 48.8689 48.1072 49.1422 48.1492C49.4155 48.1912 49.6749 48.2975 49.8991 48.4594C50.1233 48.6212 50.3059 48.834 50.4318 49.0802C50.5577 49.3263 50.6233 49.5989 50.6233 49.8754V56.5592C50.6247 57.7554 50.3903 58.9402 49.9335 60.0458C49.4767 61.1515 48.8064 62.1562 47.961 63.0025C47.1156 63.8489 46.1116 64.5204 45.0066 64.9785C43.9015 65.4366 42.7169 65.6724 41.5207 65.6724Z" stroke="#104467" stroke-width="0.8" stroke-miterlimit="10"/>
<path d="M50.623 51.0352C52.581 51.0352 54.169 52.3503 54.169 53.9721C54.169 55.5939 52.581 56.907 50.623 56.907" stroke="#104467" stroke-width="0.8" stroke-miterlimit="10"/>
<path d="M31.9834 51.6836C30.0254 51.6836 28.4375 52.9967 28.4375 54.6184C28.4375 56.2402 30.0254 57.5533 31.9834 57.5533" stroke="#104467" stroke-width="0.8" stroke-miterlimit="10"/>
<path d="M29.2181 53.1604C28.6983 51.8045 28.4324 50.3646 28.4336 48.9125C28.4336 42.1082 34.1912 36.5938 41.2936 36.5938C48.396 36.5938 54.1537 42.1082 54.1537 48.9125C54.1542 50.1046 53.9753 51.29 53.6229 52.4288" stroke="#104467" stroke-width="0.8" stroke-miterlimit="10"/>
<path d="M152.18 16.5156C153.292 16.5156 154.193 17.2625 154.193 18.1835C154.193 19.1045 153.292 19.8502 152.18 19.8502" stroke="#104467" stroke-width="0.8" stroke-miterlimit="10"/>
<path d="M142.008 16.5156C140.896 16.5156 139.994 17.2625 139.994 18.1835C139.994 19.1045 140.896 19.8502 142.008 19.8502" stroke="#104467" stroke-width="0.8" stroke-miterlimit="10"/>
<path d="M147 47C159.703 47 170 36.7026 170 24C170 11.2975 159.703 1 147 1C134.297 1 124 11.2975 124 24C124 36.7026 134.297 47 147 47Z" stroke="#104467" stroke-width="0.8" stroke-miterlimit="10"/>
<path d="M142.691 25.7109H151.079C152.279 25.7109 153.429 26.1875 154.277 27.0358C155.126 27.8841 155.602 29.0346 155.602 30.2343V36.6634H138.168V30.2343C138.168 29.0346 138.645 27.8841 139.493 27.0358C140.341 26.1875 141.492 25.7109 142.691 25.7109Z" fill="#F39D48" stroke="#0D4568" stroke-width="0.8" stroke-miterlimit="10"/>
<path d="M152.016 16.949C152.016 14.1855 149.776 11.9453 147.013 11.9453C144.25 11.9453 142.01 14.1855 142.01 16.949V19.4203C142.01 22.1837 144.25 24.424 147.013 24.424C149.776 24.424 152.016 22.1837 152.016 19.4203V16.949Z" stroke="#104467" stroke-width="0.8" stroke-miterlimit="10"/>
<path d="M142.01 16.5129H142.561C142.985 16.5119 143.392 16.352 143.704 16.0647C144.015 15.7774 144.207 15.3837 144.242 14.9615L144.437 12.6523" stroke="#104467" stroke-width="0.8" stroke-miterlimit="10"/>
<path d="M152.03 16.5129H151.479C151.056 16.5119 150.648 16.352 150.336 16.0647C150.025 15.7774 149.833 15.3837 149.798 14.9615L149.604 12.6523" stroke="#104467" stroke-width="0.8" stroke-miterlimit="10"/>
<path d="M102.96 250.49V245.395C102.96 243.234 102.102 241.163 100.574 239.635C99.047 238.108 96.9755 237.25 94.8154 237.25C92.6552 237.25 90.5834 238.108 89.0558 239.635C87.5281 241.163 86.6696 243.234 86.6692 245.395V250.706L86.5781 251.109C86.5781 251.109 90.8216 253.249 95.0616 252.991C95.0616 252.991 100.459 252.723 102.837 250.891L102.96 250.49Z" fill="#F39D48" stroke="#0D4568" stroke-width="0.8" stroke-miterlimit="10"/>
<path d="M94.5 253C104.165 253 112 245.165 112 235.5C112 225.835 104.165 218 94.5 218C84.835 218 77 225.835 77 235.5C77 245.165 84.835 253 94.5 253Z" stroke="#104467" stroke-width="0.8" stroke-miterlimit="10"/>
<path d="M95.2008 235.261C98.3623 235.261 100.925 232.698 100.925 229.537C100.925 226.375 98.3623 223.812 95.2008 223.812C92.0394 223.812 89.4766 226.375 89.4766 229.537C89.4766 232.698 92.0394 235.261 95.2008 235.261Z" stroke="#104467" stroke-width="0.8" stroke-miterlimit="10"/>
<path d="M20.8664 175.852V173.523C20.8664 172.536 20.4741 171.589 19.7759 170.89C19.0777 170.192 18.1307 169.8 17.1432 169.8C16.1557 169.8 15.2086 170.192 14.5102 170.89C13.8119 171.588 13.4194 172.535 13.4192 173.523V175.951L13.3776 176.135C13.3776 176.135 15.3175 177.114 17.2558 176.996C17.2558 176.996 19.723 176.873 20.8101 176.036L20.8664 175.852Z" fill="#F39D48" stroke="#0D4568" stroke-width="0.7" stroke-miterlimit="10"/>
<path d="M17 177C21.4183 177 25 173.418 25 169C25 164.582 21.4183 161 17 161C12.5817 161 9 164.582 9 169C9 173.418 12.5817 177 17 177Z" stroke="#104467" stroke-width="0.7" stroke-miterlimit="10"/>
<path d="M17.3199 168.89C18.7652 168.89 19.9367 167.718 19.9367 166.273C19.9367 164.828 18.7652 163.656 17.3199 163.656C15.8747 163.656 14.7031 164.828 14.7031 166.273C14.7031 167.718 15.8747 168.89 17.3199 168.89Z" stroke="#104467" stroke-width="0.7" stroke-miterlimit="10"/>
<path d="M732.5 100C754.868 100 773 81.8675 773 59.5C773 37.1325 754.868 19 732.5 19C710.132 19 692 37.1325 692 59.5C692 81.8675 710.132 100 732.5 100Z" stroke="#104467" stroke-width="0.8" stroke-miterlimit="10"/>
<path d="M713.988 55.1169V44.1726C713.988 41.2913 715.133 38.528 717.17 36.4906C719.208 34.4532 721.971 33.3086 724.852 33.3086H738.655C741.537 33.3086 744.3 34.4532 746.337 36.4906C748.375 38.528 749.519 41.2913 749.519 44.1726V55.1169" stroke="#104467" stroke-width="0.9" stroke-miterlimit="10"/>
<path d="M718.348 64.0648C717.44 64.8366 715.781 65.564 714.497 65.564C711.624 65.564 709.338 63.1493 709.338 60.2779C709.338 58.8978 709.886 57.5742 710.862 56.5983C711.838 55.6225 713.161 55.0742 714.542 55.0742C717.415 55.0742 719.654 57.0216 719.654 59.8951" stroke="#104467" stroke-width="0.9" stroke-miterlimit="10"/>
<path d="M745.193 60.0389C745.193 57.1654 747.46 55.0742 750.334 55.0742C751.695 55.1017 752.992 55.6619 753.945 56.6345C754.898 57.6072 755.432 58.9149 755.432 60.2768C755.432 61.6387 754.898 62.9464 753.945 63.9191C752.992 64.8917 751.695 65.4519 750.334 65.4794C748.871 65.4567 747.473 64.8687 746.435 63.8386" stroke="#104467" stroke-width="0.9" stroke-miterlimit="10"/>
<path d="M722.335 58.75H742.374C743.432 58.75 744.446 59.1702 745.194 59.918C745.942 60.6659 746.362 61.6802 746.362 62.7378V68.4215H718.348V62.7378C718.348 61.6802 718.768 60.6659 719.516 59.918C720.264 59.1702 721.278 58.75 722.335 58.75Z" fill="#F39D48" stroke="#0D4568" stroke-width="0.9" stroke-miterlimit="10"/>
<path d="M751.318 65.5742V74.9052C751.319 75.2988 751.241 75.6885 751.091 76.0522C750.94 76.4158 750.72 76.7462 750.441 77.0245C750.163 77.3028 749.833 77.5234 749.469 77.6739C749.105 77.8244 748.716 77.9017 748.322 77.9014H716.248C715.855 77.9017 715.465 77.8244 715.101 77.6739C714.738 77.5234 714.407 77.3028 714.129 77.0245C713.851 76.7462 713.63 76.4158 713.479 76.0522C713.329 75.6885 713.252 75.2988 713.252 74.9052V65.5742" stroke="#104467" stroke-width="0.9" stroke-miterlimit="10"/>
<path d="M715.701 77.8906L716.124 83.0329H719.232L719.655 77.8906" stroke="#104467" stroke-width="0.9" stroke-miterlimit="10"/>
<path d="M744.775 77.8906L745.198 83.0329H748.307L748.729 77.8906" stroke="#104467" stroke-width="0.9" stroke-miterlimit="10"/>
<path d="M728.798 46.7235C728.798 46.1945 728.37 45.7656 727.841 45.7656C727.312 45.7656 726.883 46.1945 726.883 46.7235V49.7788C726.883 50.3078 727.312 50.7367 727.841 50.7367C728.37 50.7367 728.798 50.3078 728.798 49.7788V46.7235Z" fill="#104467"/>
<path d="M729.28 49.1227C729.809 49.1227 730.238 48.6939 730.238 48.1649C730.238 47.6359 729.809 47.207 729.28 47.207H726.225C725.696 47.207 725.267 47.6359 725.267 48.1649C725.267 48.6939 725.696 49.1227 726.225 49.1227H729.28Z" fill="#104467"/>
<path d="M725.037 39.0907C725.037 38.5617 724.608 38.1328 724.079 38.1328C723.55 38.1328 723.121 38.5617 723.121 39.0907V42.146C723.121 42.675 723.55 43.1039 724.079 43.1039C724.608 43.1039 725.037 42.675 725.037 42.146V39.0907Z" fill="#104467"/>
<path d="M725.519 41.4899C726.048 41.4899 726.477 41.0611 726.477 40.5321C726.477 40.0031 726.048 39.5742 725.519 39.5742H722.463C721.934 39.5742 721.506 40.0031 721.506 40.5321C721.506 41.0611 721.934 41.4899 722.463 41.4899H725.519Z" fill="#104467"/>
<path d="M733.547 39.0907C733.547 38.5617 733.118 38.1328 732.589 38.1328C732.06 38.1328 731.631 38.5617 731.631 39.0907V42.146C731.631 42.675 732.06 43.1039 732.589 43.1039C733.118 43.1039 733.547 42.675 733.547 42.146V39.0907Z" fill="#104467"/>
<path d="M734.027 41.4899C734.556 41.4899 734.984 41.0611 734.984 40.5321C734.984 40.0031 734.556 39.5742 734.027 39.5742H730.971C730.442 39.5742 730.013 40.0031 730.013 40.5321C730.013 41.0611 730.442 41.4899 730.971 41.4899H734.027Z" fill="#104467"/>
<path d="M741.586 39.0907C741.586 38.5617 741.157 38.1328 740.628 38.1328C740.099 38.1328 739.67 38.5617 739.67 39.0907V42.146C739.67 42.675 740.099 43.1039 740.628 43.1039C741.157 43.1039 741.586 42.675 741.586 42.146V39.0907Z" fill="#104467"/>
<path d="M742.066 41.4899C742.595 41.4899 743.023 41.0611 743.023 40.5321C743.023 40.0031 742.595 39.5742 742.066 39.5742H739.01C738.481 39.5742 738.052 40.0031 738.052 40.5321C738.052 41.0611 738.481 41.4899 739.01 41.4899H742.066Z" fill="#104467"/>
<path d="M737.289 46.7235C737.289 46.1945 736.86 45.7656 736.331 45.7656C735.802 45.7656 735.373 46.1945 735.373 46.7235V49.7788C735.373 50.3078 735.802 50.7367 736.331 50.7367C736.86 50.7367 737.289 50.3078 737.289 49.7788V46.7235Z" fill="#104467"/>
<path d="M737.771 49.1227C738.3 49.1227 738.729 48.6939 738.729 48.1649C738.729 47.6359 738.3 47.207 737.771 47.207H734.715C734.186 47.207 733.757 47.6359 733.757 48.1649C733.757 48.6939 734.186 49.1227 734.715 49.1227H737.771Z" fill="#104467"/>
<path d="M622.387 15.1984V22.5244L626.423 21.1339L624.809 14.2773H624.309L622.387 15.1984Z" fill="#F39D48"/>
<path d="M633.426 15.0382V22.3642L629.391 20.9737L631.004 14.1172H631.504L633.426 15.0382Z" fill="#F39D48"/>
<path d="M625.243 16.1133C625.243 16.1133 628.869 17.5135 630.717 16.1133L631.1 14.2617C631.1 14.2617 628.106 16.0245 624.811 14.2737L625.243 16.1133Z" fill="#F39D48"/>
<path d="M629.58 21.1702L633.523 22.5115V15.1867C633.523 15.1867 631.902 14.3869 631.602 14.2669C631.523 14.23 631.438 14.2109 631.351 14.2109C631.265 14.2109 631.179 14.23 631.101 14.2669L629.488 21.1234V41.9367H636.933V23.507" stroke="#104467" stroke-width="0.8" stroke-miterlimit="10"/>
<path d="M633.523 16.4034C633.523 16.2834 636.136 17.4109 636.515 17.7051C636.893 17.9993 641.678 26.4469 641.678 26.4469L636.929 29.7251" stroke="#104467" stroke-width="0.8" stroke-miterlimit="10"/>
<path d="M626.331 21.1792L622.388 22.5205V15.1957C622.388 15.1957 624.01 14.3948 624.309 14.2747C624.387 14.2378 624.473 14.2188 624.56 14.2188C624.646 14.2188 624.732 14.2378 624.81 14.2747L626.427 21.13V41.9458H618.982V23.516" stroke="#104467" stroke-width="0.8" stroke-miterlimit="10"/>
<path d="M622.388 16.416C622.388 16.2899 619.776 17.4247 619.398 17.7188C619.02 18.013 614.234 26.4594 614.234 26.4594L618.982 29.7376" stroke="#104467" stroke-width="0.8" stroke-miterlimit="10"/>
<path d="M624.811 14.2728C624.811 14.2728 627.846 16.0356 631.218 14.2188" stroke="#104467" stroke-width="0.52" stroke-miterlimit="10"/>
<path d="M626.424 39.7266H629.488" stroke="#104467" stroke-width="0.8" stroke-miterlimit="10"/>
<path d="M625.191 15.8945C625.191 15.8945 628.428 17.9359 630.715 15.8945" stroke="#104467" stroke-width="0.52" stroke-miterlimit="10"/>
<path d="M628 51C640.703 51 651 40.7025 651 28C651 15.2974 640.703 5 628 5C615.297 5 605 15.2974 605 28C605 40.7025 615.297 51 628 51Z" stroke="#104467" stroke-width="0.8" stroke-miterlimit="10"/>
<path d="M759.072 162.32V166.143L761.178 165.417L760.336 161.84H760.075L759.072 162.32Z" fill="#F39D48"/>
<path d="M764.83 162.238V166.061L762.725 165.335L763.567 161.758H763.827L764.83 162.238Z" fill="#F39D48"/>
<path d="M760.561 162.798C760.561 162.798 762.454 163.529 763.418 162.798L763.618 161.832C763.618 161.832 762.055 162.752 760.336 161.838L760.561 162.798Z" fill="#F39D48"/>
<path d="M762.825 165.436L764.882 166.135V162.314C764.882 162.314 764.037 161.897 763.88 161.834C763.839 161.815 763.795 161.805 763.749 161.805C763.704 161.805 763.66 161.815 763.619 161.834L762.777 165.411V176.27H766.662V166.655" stroke="#104467" stroke-width="0.7" stroke-miterlimit="10"/>
<path d="M764.881 162.95C764.881 162.887 766.244 163.476 766.441 163.629C766.639 163.783 769.135 168.19 769.135 168.19L766.658 169.9" stroke="#104467" stroke-width="0.7" stroke-miterlimit="10"/>
<path d="M761.129 165.44L759.072 166.14V162.318C759.072 162.318 759.918 161.9 760.074 161.838C760.115 161.819 760.16 161.809 760.205 161.809C760.25 161.809 760.294 161.819 760.335 161.838L761.179 165.414V176.275H757.295V166.659" stroke="#104467" stroke-width="0.7" stroke-miterlimit="10"/>
<path d="M759.072 162.954C759.072 162.889 757.71 163.481 757.512 163.634C757.315 163.788 754.818 168.194 754.818 168.194L757.296 169.905" stroke="#104467" stroke-width="0.7" stroke-miterlimit="10"/>
<path d="M760.336 161.837C760.336 161.837 761.92 162.756 763.679 161.809" stroke="#104467" stroke-width="0.7" stroke-miterlimit="10"/>
<path d="M761.178 175.117H762.777" stroke="#104467" stroke-width="0.7" stroke-miterlimit="10"/>
<path d="M760.5 163C760.5 163 762.672 163 763.5 163" stroke="#104467" stroke-width="0.7" stroke-miterlimit="10"/>
<path d="M762 181C768.627 181 774 175.627 774 169C774 162.373 768.627 157 762 157C755.373 157 750 162.373 750 169C750 175.627 755.373 181 762 181Z" stroke="#104467" stroke-width="0.75" stroke-miterlimit="10"/>
<path d="M652.5 150C664.374 150 674 140.374 674 128.5C674 116.626 664.374 107 652.5 107C640.626 107 631 116.626 631 128.5C631 140.374 640.626 150 652.5 150Z" stroke="#104467" stroke-width="0.8" stroke-miterlimit="10"/>
<path d="M641.489 127.831C641.489 127.831 662.902 127.759 662.902 127.795V129.254H648.266C648.266 129.254 646.929 129.178 646.929 131.146V134.6C646.929 134.6 646.89 135.867 645.5 135.979C645.5 135.979 644.17 136.256 644.17 134.141V130.334C644.17 130.334 643.955 129.256 642.721 129.256H641.486L641.489 127.831Z" fill="#F39D48"/>
<path d="M662.462 123.82H641.714C640.602 123.82 639.701 124.721 639.701 125.832C639.701 126.944 640.602 127.844 641.714 127.844H662.462C663.573 127.844 664.474 126.944 664.474 125.832C664.474 124.721 663.573 123.82 662.462 123.82Z" stroke="#104467" stroke-width="0.8" stroke-miterlimit="10"/>
<path d="M640.934 123.97C640.022 123.818 640.127 123.072 640.127 123.072C640.127 118.616 645.509 115.004 652.148 115.004C658.788 115.004 664.17 118.616 664.17 123.072C664.17 123.072 664.17 123.95 663.241 123.97" stroke="#104467" stroke-width="0.8" stroke-miterlimit="10"/>
<path d="M662.906 134.572V135.287C662.906 136.49 662.428 137.645 661.576 138.496C660.725 139.348 659.57 139.826 658.366 139.826H646.032C645.435 139.826 644.845 139.709 644.294 139.481C643.743 139.253 643.243 138.918 642.821 138.497C642.4 138.075 642.065 137.575 641.837 137.024C641.609 136.473 641.492 135.883 641.492 135.287V134.555" stroke="#104467" stroke-width="0.8" stroke-miterlimit="10"/>
<path d="M641.408 131.043L641.491 127.828H662.905V131.139" stroke="#104467" stroke-width="0.8" stroke-miterlimit="10"/>
<path d="M662.902 129.246H648.266C647.912 129.246 647.572 129.387 647.321 129.638C647.07 129.888 646.929 130.228 646.929 130.583V134.595C646.929 134.961 646.784 135.311 646.525 135.57C646.266 135.829 645.916 135.974 645.55 135.974C645.184 135.974 644.833 135.829 644.574 135.57C644.316 135.311 644.17 134.961 644.17 134.595V130.583C644.17 130.228 644.029 129.888 643.779 129.638C643.528 129.387 643.188 129.246 642.833 129.246H641.486" stroke="#104467" stroke-width="0.8" stroke-miterlimit="10"/>
<path d="M644.173 134.488H641.387C640.895 134.488 640.422 134.292 640.074 133.944C639.726 133.596 639.53 133.124 639.529 132.631C639.527 132.39 639.573 132.15 639.664 131.927C639.756 131.703 639.891 131.5 640.062 131.329C640.232 131.158 640.435 131.023 640.659 130.932C640.883 130.841 641.122 130.795 641.364 130.797C641.364 130.797 641.7 133.2 642.834 132.368C642.834 132.368 643.883 131.687 644.173 132.024" stroke="#104467" stroke-width="0.8" stroke-miterlimit="10"/>
<path d="M647.018 132.715C647.018 132.715 647.782 132.626 648.675 131.972C649.011 131.804 649.391 131.749 649.76 131.816C650.129 131.883 650.466 132.068 650.721 132.343C650.721 132.343 652.145 133.503 653.5 132.414C653.5 132.414 654.597 131.316 655.73 132.059C656.864 132.802 657.562 133.467 658.979 132.219C658.979 132.219 660.116 131.321 661.163 132.022C661.242 132.077 661.326 132.124 661.413 132.162C661.734 132.296 662.448 132.499 662.785 131.862C662.868 131.697 662.908 131.515 662.903 131.331V130.777C663.929 130.777 664.69 131.608 664.69 132.634C664.69 133.126 664.494 133.599 664.146 133.947C663.798 134.295 663.326 134.491 662.833 134.491H647.018" stroke="#104467" stroke-width="0.8" stroke-miterlimit="10"/>
<path d="M682.5 252C692.165 252 700 244.165 700 234.5C700 224.835 692.165 217 682.5 217C672.835 217 665 224.835 665 234.5C665 244.165 672.835 252 682.5 252Z" stroke="#104467" stroke-width="0.7" stroke-miterlimit="10"/>
<path d="M688.51 230.449H676.611V244.78H688.51V230.449Z" stroke="#104467" stroke-width="0.7" stroke-miterlimit="10"/>
<path d="M681.473 244.652V230.452L678.91 226.555" stroke="#104467" stroke-width="0.7" stroke-miterlimit="10"/>
<path d="M676.691 235.809C676.676 235.856 681.473 235.809 681.473 235.809" stroke="#104467" stroke-width="0.7" stroke-miterlimit="10"/>
<path d="M681.475 239.371H676.611" stroke="#104467" stroke-width="0.7" stroke-miterlimit="10"/>
<path d="M676.611 230.452L678.912 226.555H686.137L688.51 230.452" stroke="#104467" stroke-width="0.7" stroke-miterlimit="10"/>
<path d="M678.91 226.552V224.199H686.104V226.552" stroke="#104467" stroke-width="0.7" stroke-miterlimit="10"/>
<path d="M686.807 237.232C686.873 238.276 685.959 239.125 684.913 239.125C684.411 239.125 683.929 238.926 683.574 238.571C683.219 238.216 683.02 237.734 683.02 237.232C683.02 237.232 683.05 235.755 684.913 234.238C684.913 234.238 686.711 235.755 686.807 237.232Z" fill="#F39D48" stroke="#0D4568" stroke-width="0.7" stroke-miterlimit="10"/>
<defs>
<filter id="filter0_d_3418_1022" x="232.071" y="55.8959" width="312.526" height="192.157" filterUnits="userSpaceOnUse" color-interpolation-filters="sRGB">
<feFlood flood-opacity="0" result="BackgroundImageFix"/>
<feColorMatrix in="SourceAlpha" type="matrix" values="0 0 0 0 0 0 0 0 0 0 0 0 0 0 0 0 0 0 127 0" result="hardAlpha"/>
<feOffset dy="9.88088"/>
<feGaussianBlur stdDeviation="13.4739"/>
<feComposite in2="hardAlpha" operator="out"/>
<feColorMatrix type="matrix" values="0 0 0 0 0.819375 0 0 0 0 0.8625 0 0 0 0 0.854659 0 0 0 1 0"/>
<feBlend mode="normal" in2="BackgroundImageFix" result="effect1_dropShadow_3418_1022"/>
<feBlend mode="normal" in="SourceGraphic" in2="effect1_dropShadow_3418_1022" result="shape"/>
</filter>
<linearGradient id="paint0_linear_3418_1022" x1="325.702" y1="137.08" x2="451.083" y2="167.22" gradientUnits="userSpaceOnUse">
<stop stop-color="#1C75BC"/>
<stop offset="1" stop-color="#00AEEF"/>
</linearGradient>
<linearGradient id="paint1_linear_3418_1022" x1="333.514" y1="104.587" x2="458.893" y2="134.729" gradientUnits="userSpaceOnUse">
<stop stop-color="#1C75BC"/>
<stop offset="1" stop-color="#00AEEF"/>
</linearGradient>
<linearGradient id="paint2_linear_3418_1022" x1="406.809" y1="118.806" x2="414.79" y2="120.597" gradientUnits="userSpaceOnUse">
<stop stop-color="#1C75BC"/>
<stop offset="1" stop-color="#00AEEF"/>
</linearGradient>
<linearGradient id="paint3_linear_3418_1022" x1="395.344" y1="134.385" x2="396.191" y2="134.574" gradientUnits="userSpaceOnUse">
<stop stop-color="#1C75BC"/>
<stop offset="1" stop-color="#00AEEF"/>
</linearGradient>
<linearGradient id="paint4_linear_3418_1022" x1="334.035" y1="119.634" x2="475.615" y2="151.374" gradientUnits="userSpaceOnUse">
<stop stop-color="#1C75BC"/>
<stop offset="1" stop-color="#00AEEF"/>
</linearGradient>
<linearGradient id="paint5_linear_3418_1022" x1="337.168" y1="133.254" x2="430.733" y2="165.603" gradientUnits="userSpaceOnUse">
<stop stop-color="#1C75BC"/>
<stop offset="1" stop-color="#00AEEF"/>
</linearGradient>
<linearGradient id="paint6_linear_3418_1022" x1="342.154" y1="118.834" x2="435.719" y2="151.185" gradientUnits="userSpaceOnUse">
<stop offset="0.05" stop-color="#1C75BC"/>
<stop offset="1" stop-color="#00AEEF"/>
</linearGradient>
<linearGradient id="paint7_linear_3418_1022" x1="401.386" y1="125.147" x2="433.419" y2="132.846" gradientUnits="userSpaceOnUse">
<stop stop-color="#1C75BC"/>
<stop offset="1" stop-color="#00AEEF"/>
</linearGradient>
<linearGradient id="paint8_linear_3418_1022" x1="399.475" y1="103.153" x2="438.799" y2="112.606" gradientUnits="userSpaceOnUse">
<stop stop-color="#1C75BC"/>
<stop offset="1" stop-color="#00AEEF"/>
</linearGradient>
<linearGradient id="paint9_linear_3418_1022" x1="382.029" y1="105.292" x2="414.068" y2="112.994" gradientUnits="userSpaceOnUse">
<stop stop-color="#1C75BC"/>
<stop offset="1" stop-color="#00AEEF"/>
</linearGradient>
<linearGradient id="paint10_linear_3418_1022" x1="370.24" y1="125.336" x2="415.565" y2="136.232" gradientUnits="userSpaceOnUse">
<stop stop-color="#1C75BC"/>
<stop offset="1" stop-color="#00AEEF"/>
</linearGradient>
<linearGradient id="paint11_linear_3418_1022" x1="391.849" y1="129.905" x2="424.158" y2="137.671" gradientUnits="userSpaceOnUse">
<stop stop-color="#1C75BC"/>
<stop offset="1" stop-color="#00AEEF"/>
</linearGradient>
</defs>
</svg>
