<svg width="34" height="30" viewBox="0 0 34 30" fill="none" xmlns="http://www.w3.org/2000/svg">
<path d="M9.39611 14.2754L5.37527 10.5397C5.20693 10.3837 5.08521 10.184 5.02368 9.9628L4.99095 9.84498C4.93457 9.64262 4.93036 9.42927 4.97872 9.22485C5.02708 9.02042 5.12643 8.83158 5.26751 8.67593C5.40859 8.52028 5.5868 8.40291 5.78551 8.33476C5.98421 8.26661 6.19695 8.24991 6.40386 8.2862C6.63563 8.32718 6.85098 8.43323 7.02475 8.59197L11.1494 12.3613L16.5027 4.61041C16.5456 4.54812 16.6014 4.49577 16.6663 4.45691C16.7312 4.41804 16.8037 4.39358 16.8789 4.38515C16.9541 4.37673 17.0302 4.38455 17.1021 4.40809C17.174 4.43163 17.24 4.47033 17.2957 4.52158L21.9262 8.77993C21.9771 8.82662 22.0371 8.8624 22.1024 8.88506C22.1677 8.90773 22.2369 8.9168 22.3058 8.91172C22.3748 8.90664 22.4419 8.88752 22.5032 8.85553C22.5644 8.82353 22.6185 8.77935 22.6621 8.72569L25.2373 5.54642L23.5663 4.213C23.4846 4.14749 23.4221 4.06122 23.3853 3.96323C23.3484 3.86524 23.3386 3.75915 23.3569 3.65607C23.3751 3.55298 23.4208 3.45671 23.4891 3.37735C23.5573 3.29798 23.6457 3.23845 23.7449 3.20499L30.1792 1.03093C30.2763 0.997967 30.3805 0.99121 30.4811 1.01134C30.5817 1.03147 30.6752 1.07777 30.7522 1.14557C30.8292 1.21338 30.887 1.30029 30.9197 1.39755C30.9524 1.4948 30.9589 1.59895 30.9385 1.69951L29.6434 8.11041C29.6233 8.20996 29.5776 8.30254 29.5108 8.37902C29.444 8.45549 29.3584 8.5132 29.2624 8.54645C29.1664 8.57969 29.0635 8.58732 28.9637 8.56857C28.8639 8.54982 28.7707 8.50535 28.6933 8.43956L27.1504 7.13045L22.8491 11.9854C22.7591 12.0865 22.6326 12.1478 22.4975 12.1559C22.3624 12.1639 22.2295 12.1181 22.1281 12.0284L17.506 7.92807C17.4488 7.87741 17.3813 7.83975 17.3081 7.81768C17.2349 7.79561 17.1578 7.78966 17.0821 7.80024C17.0064 7.81081 16.9339 7.83766 16.8695 7.87893C16.8052 7.92021 16.7505 7.97494 16.7094 8.03934L12.7203 14.281" fill="#F39D48"/>
<path d="M9.39611 14.2754L5.37527 10.5397C5.20693 10.3837 5.08521 10.184 5.02368 9.9628L4.99095 9.84498C4.93457 9.64262 4.93036 9.42927 4.97872 9.22485C5.02708 9.02042 5.12643 8.83158 5.26751 8.67593C5.40859 8.52028 5.5868 8.40291 5.78551 8.33476C5.98421 8.26661 6.19695 8.24991 6.40386 8.2862C6.63563 8.32718 6.85098 8.43323 7.02475 8.59197L11.1494 12.3613L16.5027 4.61041C16.5456 4.54812 16.6014 4.49577 16.6663 4.45691C16.7312 4.41804 16.8037 4.39358 16.8789 4.38515C16.9541 4.37673 17.0302 4.38455 17.1021 4.40809C17.174 4.43163 17.24 4.47033 17.2957 4.52158L21.9262 8.77993C21.9771 8.82662 22.0371 8.8624 22.1024 8.88506C22.1677 8.90773 22.2369 8.9168 22.3058 8.91172C22.3748 8.90664 22.4419 8.88752 22.5032 8.85553C22.5644 8.82353 22.6185 8.77935 22.6621 8.72569L25.2373 5.54642L23.5663 4.213C23.4846 4.14749 23.4221 4.06122 23.3853 3.96323C23.3484 3.86524 23.3386 3.75915 23.3569 3.65607C23.3751 3.55298 23.4208 3.45671 23.4891 3.37735C23.5573 3.29798 23.6457 3.23845 23.7449 3.20499L30.1792 1.03093C30.2763 0.997967 30.3805 0.99121 30.4811 1.01134C30.5817 1.03147 30.6752 1.07777 30.7522 1.14557C30.8292 1.21338 30.887 1.30029 30.9197 1.39755C30.9524 1.4948 30.9589 1.59895 30.9385 1.69951L29.6434 8.11041C29.6233 8.20996 29.5776 8.30254 29.5108 8.37902C29.444 8.45549 29.3584 8.5132 29.2624 8.54645C29.1664 8.57969 29.0635 8.58732 28.9637 8.56857C28.8639 8.54982 28.7707 8.50535 28.6933 8.43956L27.1505 7.13045L22.8491 11.9854C22.7591 12.0865 22.6326 12.1478 22.4975 12.1559C22.3624 12.1639 22.2295 12.1181 22.1281 12.0284L17.506 7.92807C17.4488 7.87741 17.3813 7.83975 17.3081 7.81768C17.2349 7.79561 17.1578 7.78966 17.0821 7.80024C17.0064 7.81081 16.9339 7.83766 16.8695 7.87893C16.8052 7.92021 16.7505 7.97494 16.7094 8.03934L12.7203 14.281" stroke="#0D4568" stroke-width="0.7" stroke-miterlimit="10"/>
<path d="M33.6522 29H0.347774C0.155704 29 0 29.1749 0 29.3907V29.6093C0 29.8251 0.155704 30 0.347774 30H33.6522C33.8443 30 34 29.8251 34 29.6093V29.3907C34 29.1749 33.8443 29 33.6522 29Z" fill="#104467"/>
<path d="M31.3612 14.2881C31.3306 18.1009 29.7944 21.7471 27.0875 24.4324C24.3805 27.1176 20.7221 28.6244 16.9091 28.6244C13.0962 28.6244 9.43778 27.1176 6.73081 24.4324C4.02384 21.7471 2.4877 18.1009 2.45703 14.2881H31.3612Z" stroke="#104467" stroke-width="0.7" stroke-miterlimit="10"/>
<path d="M23.7699 14.2754C23.7699 22.8342 20.6841 28.7429 16.8728 28.7429C13.0614 28.7429 9.97656 22.8342 9.97656 14.2754" stroke="#104467" stroke-width="0.7" stroke-miterlimit="10"/>
<path d="M6.41797 24.4109C8.56865 21.5954 12.4221 19.7168 16.8226 19.7168C21.2539 19.7168 25.1345 21.6216 27.273 24.4717" stroke="#104467" stroke-width="0.7" stroke-miterlimit="10"/>
</svg>
