<svg width="33" height="34" viewBox="0 0 33 34" fill="none" xmlns="http://www.w3.org/2000/svg">
<path d="M28.4745 33.1533H0.294266C0.131748 33.1533 0 33.3013 0 33.4839V33.6689C0 33.8515 0.131748 33.9995 0.294266 33.9995H28.4745C28.6371 33.9995 28.7688 33.8515 28.7688 33.6689V33.4839C28.7688 33.3013 28.6371 33.1533 28.4745 33.1533Z" fill="#104467"/>
<path d="M27.994 19.8266C27.994 27.4016 21.8534 33.1933 14.2792 33.1933C12.3407 33.1914 10.4246 32.7785 8.65729 31.9819C6.89 31.1853 5.31164 30.0232 4.02632 28.572C2.74099 27.1209 1.77789 25.4138 1.20054 23.5632C0.623179 21.7127 0.44468 19.7608 0.676811 17.8362C0.908942 15.9116 1.54643 14.0581 2.54723 12.3979C3.54804 10.7377 4.88942 9.30854 6.48292 8.20464C8.07642 7.10073 9.88584 6.34717 11.7919 5.99365C13.6979 5.64014 15.6572 5.6947 17.5406 6.15373" stroke="#104467" stroke-width="0.592299" stroke-miterlimit="10"/>
<path d="M9.22255 6.73242L8.88945 7.98095C8.61892 8.96746 8.59988 10.006 8.83407 11.0018C8.97411 11.5794 8.97095 12.2448 8.97095 12.7947V13.7623C8.97014 14.6758 9.27016 15.5642 9.82466 16.2902C10.2524 16.852 10.4557 17.5529 10.3951 18.2564C10.3707 18.588 10.2227 18.8983 9.98032 19.1259C9.73794 19.3534 9.41892 19.4817 9.08647 19.4851H6.24761C5.84537 19.4825 5.45328 19.3586 5.12255 19.1297C4.79183 18.9007 4.53785 18.5773 4.3938 18.2018L4.11213 17.4842C4.00883 17.2141 3.81932 16.9857 3.57298 16.8344C3.32664 16.683 3.03724 16.6172 2.74967 16.6471C2.43127 16.6819 2.1097 16.6216 1.82554 16.4738L1.13086 16.0086" stroke="#104467" stroke-width="0.592299" stroke-miterlimit="10"/>
<path d="M1.92773 25.451C1.92773 25.451 5.58945 25.7856 6.12668 25.6424C6.66391 25.4992 8.19727 24.7381 8.77406 24.8196C9.19327 24.8915 9.60822 24.9863 10.0171 25.1036C10.5386 25.2461 10.9975 25.5587 11.321 25.992C11.6444 26.4252 11.8137 26.9541 11.802 27.4946C11.7941 27.9504 11.8289 28.3223 11.9603 28.365C12.3179 28.4726 14.7516 29.331 14.7516 29.4386V33.1906" stroke="#104467" stroke-width="0.592299" stroke-miterlimit="10"/>
<path d="M27.8662 4.24707C29.6277 5.14108 31.0375 6.60126 31.8691 8.39302C32.7008 10.1848 32.906 12.2041 32.4517 14.1265C31.9975 16.0489 30.9102 17.7628 29.3645 18.9929C27.8189 20.2229 25.9046 20.8977 23.9293 20.9087C21.954 20.9198 20.0323 20.2665 18.473 19.0538C16.9136 17.8412 15.8072 16.1395 15.3315 14.2223C14.8558 12.3051 15.0384 10.2836 15.8499 8.48266C16.6614 6.6817 18.0548 5.20583 19.8062 4.29217" stroke="#104467" stroke-width="0.592299" stroke-miterlimit="10"/>
<path d="M26.7047 6.58008C27.9728 7.22371 28.9877 8.27492 29.5864 9.56482C30.185 10.8547 30.3327 12.3084 30.0057 13.6924C29.6787 15.0763 28.8959 16.3102 27.7832 17.1957C26.6705 18.0812 25.2924 18.5669 23.8703 18.5748C22.4483 18.5828 21.0649 18.1125 19.9423 17.2395C18.8198 16.3665 18.0233 15.1415 17.6808 13.7613C17.3383 12.3811 17.4697 10.9258 18.0539 9.62929C18.6381 8.33278 19.6412 7.27028 20.902 6.61252" stroke="#104467" stroke-width="0.592299" stroke-miterlimit="10"/>
<path d="M26.1037 9.66113C26.6104 10.1026 26.9746 10.6845 27.1501 11.3332C27.3256 11.9819 27.3045 12.6681 27.0895 13.3048C26.8744 13.9415 26.4752 14.5 25.9423 14.9095C25.4094 15.319 24.7669 15.5609 24.0963 15.6048C23.4257 15.6486 22.7572 15.4923 22.1756 15.1556C21.594 14.819 21.1254 14.3172 20.8294 13.7139C20.5333 13.1106 20.4231 12.4329 20.5127 11.7669C20.6023 11.1009 20.8877 10.4765 21.3327 9.97287" stroke="#104467" stroke-width="0.592299" stroke-miterlimit="10"/>
<path d="M28.1016 5.34374C28.3136 2.95429 26.1568 1 23.7578 1C23.6977 1 23.6384 0.999999 23.579 1.00396C20.7402 1.11868 18.865 4.00026 19.7812 6.69037C20.2821 8.16518 21.404 10.5776 23.7602 12.5153C23.761 12.5153 27.8073 8.69767 28.1016 5.34374Z" fill="#F39D48" stroke="#0D4568" stroke-width="0.592299" stroke-miterlimit="10"/>
<path d="M23.833 6.23145C24.5444 6.23145 25.1211 5.65475 25.1211 4.94336C25.1211 4.23197 24.5444 3.65527 23.833 3.65527C23.1216 3.65527 22.5449 4.23197 22.5449 4.94336C22.5449 5.65475 23.1216 6.23145 23.833 6.23145Z" fill="white" stroke="#104467" stroke-width="0.592299" stroke-miterlimit="10"/>
<path d="M23.4422 29.682C23.4422 29.682 21.6635 28.9644 22.2554 26.0306C22.8472 23.0968 22.8456 21.9235 24.7461 20.8672" stroke="#104467" stroke-width="0.592299" stroke-miterlimit="10"/>
</svg>
