<svg width="29" height="39" viewBox="0 0 29 39" fill="none" xmlns="http://www.w3.org/2000/svg">
<path d="M27.7575 38.0723H0.286856C0.12843 38.0723 0 38.2344 0 38.4343V38.637C0 38.837 0.12843 38.9991 0.286856 38.9991H27.7575C27.9159 38.9991 28.0443 38.837 28.0443 38.637V38.4343C28.0443 38.2344 27.9159 38.0723 27.7575 38.0723Z" fill="#104467"/>
<path d="M16.6101 24.7783V24.9523H18.0513V25.9711H16.5355C16.4444 26.5261 16.2705 26.9692 16.0137 27.3006C15.7652 27.6236 15.409 27.8597 14.9451 28.0088C14.4813 28.1496 13.8807 28.22 13.1435 28.22V29.0028C13.1435 29.4584 13.2388 29.8187 13.4293 30.0837C13.6281 30.3488 13.9594 30.4813 14.4233 30.4813C15.2682 30.4813 15.6906 30.005 15.6906 29.0525H16.9952C16.987 29.8891 16.7592 30.5227 16.3119 30.9535C15.8729 31.3759 15.2351 31.5871 14.3984 31.5871C13.5618 31.5871 12.9199 31.3552 12.4726 30.8913C12.0336 30.4275 11.8141 29.7773 11.8141 28.9407V27.2385C12.7335 27.2385 13.4086 27.2136 13.8393 27.1639C14.2701 27.1059 14.589 26.99 14.796 26.816C15.0114 26.6421 15.1522 26.3604 15.2185 25.9711H11.2922V24.9523H15.2806V24.7783V23.8465H11.2922V22.8152H18.0513V23.8465H16.6101V24.7783Z" fill="#0D4568"/>
<path d="M14.0613 38.115C19.6061 38.115 24.1011 33.0643 24.1011 26.8339C24.1011 20.6035 19.6061 15.5527 14.0613 15.5527C8.51646 15.5527 4.02148 20.6035 4.02148 26.8339C4.02148 33.0643 8.51646 38.115 14.0613 38.115Z" stroke="#104467" stroke-width="0.648772" stroke-miterlimit="10"/>
<path d="M20.9986 9.36916C21.0318 9.3687 21.0647 9.37565 21.0955 9.3896C21.1263 9.40355 21.1543 9.42422 21.1779 9.45042C21.2015 9.47662 21.2202 9.50783 21.233 9.54223C21.2458 9.57663 21.2524 9.61354 21.2524 9.65082V17.5373C21.2524 17.7808 21.4838 17.9776 21.7738 17.9776H22.7934C23.0796 17.9776 23.2377 18.2584 23.0564 18.4456L19.9775 21.6374C19.9035 21.7047 19.8112 21.7414 19.716 21.7414C19.6208 21.7414 19.5285 21.7047 19.4545 21.6374L16.0825 18.2523C15.8966 18.066 16.0532 17.7808 16.3416 17.7808H17.3019C17.5903 17.7808 17.8233 17.5841 17.8233 17.3406V9.68809C17.8235 9.6139 17.8496 9.54278 17.8961 9.49008C17.9425 9.43739 18.0056 9.40734 18.0716 9.40643L20.9986 9.36916Z" fill="#F39D48" stroke="#0D4568" stroke-width="0.55609" stroke-miterlimit="10"/>
<path d="M12.9784 13.3732C12.9453 13.3737 12.9124 13.3667 12.8817 13.3528C12.8509 13.3388 12.823 13.3181 12.7995 13.2919C12.7759 13.2657 12.7572 13.2345 12.7445 13.2001C12.7318 13.1657 12.7253 13.1288 12.7255 13.0916V5.20508C12.7255 4.96155 12.4941 4.76396 12.2033 4.76396H11.1837C10.8975 4.76396 10.7402 4.48403 10.9206 4.29683L14.0004 1.1041C14.0742 1.03676 14.1664 1 14.2615 1C14.3565 1 14.4487 1.03676 14.5225 1.1041L17.8954 4.48923C18.0805 4.67642 17.9239 4.96068 17.6355 4.96068H16.6752C16.3875 4.96068 16.1538 5.15828 16.1538 5.40094V13.0543C16.1538 13.1286 16.1277 13.1998 16.0812 13.2526C16.0347 13.3053 15.9715 13.3353 15.9055 13.336L12.9784 13.3732Z" stroke="#0D4568" stroke-width="0.55609" stroke-miterlimit="10"/>
</svg>
