<svg width="34" height="20" viewBox="0 0 34 20" fill="none" xmlns="http://www.w3.org/2000/svg">
<path d="M33.6522 19H0.347774C0.155704 19 0 19.1749 0 19.3907V19.6093C0 19.8251 0.155704 20 0.347774 20H33.6522C33.8443 20 34 19.8251 34 19.6093V19.3907C34 19.1749 33.8443 19 33.6522 19Z" fill="#104467"/>
<path d="M8.45117 19.6401C8.45117 17.5527 9.28039 15.5508 10.7564 14.0748C12.2324 12.5987 14.2343 11.7695 16.3217 11.7695C18.4091 11.7695 20.411 12.5987 21.8871 14.0748C23.3631 15.5508 24.1923 17.5527 24.1923 19.6401" stroke="#104467" stroke-width="0.7" stroke-miterlimit="10"/>
<path d="M1.96289 19.6394C1.96341 18.6434 2.2188 17.664 2.70478 16.7946C3.19075 15.9252 3.89113 15.1946 4.73927 14.6723C5.58741 14.1501 6.55508 13.8536 7.5502 13.811C8.54532 13.7684 9.53478 13.9812 10.4244 14.4291" stroke="#104467" stroke-width="0.7" stroke-miterlimit="10"/>
<path d="M30.733 19.6394C30.7325 18.6434 30.4771 17.664 29.9911 16.7946C29.5051 15.9252 28.8048 15.1946 27.9566 14.6723C27.1085 14.1501 26.1408 13.8536 25.1457 13.811C24.1506 13.7684 23.1611 13.9812 22.2715 14.4291" stroke="#104467" stroke-width="0.7" stroke-miterlimit="10"/>
<path d="M16.7026 10.0927C19.2135 10.0927 21.249 8.05724 21.249 5.54636C21.249 3.03547 19.2135 1 16.7026 1C14.1917 1 12.1562 3.03547 12.1562 5.54636C12.1562 8.05724 14.1917 10.0927 16.7026 10.0927Z" fill="#F39D48" stroke="#0D4568" stroke-width="0.7" stroke-miterlimit="10"/>
<path d="M25.442 11.9913C27.2587 11.9913 28.7316 10.5185 28.7316 8.70172C28.7316 6.88492 27.2587 5.41211 25.442 5.41211C23.6252 5.41211 22.1523 6.88492 22.1523 8.70172C22.1523 10.5185 23.6252 11.9913 25.442 11.9913Z" stroke="#104467" stroke-width="0.7" stroke-miterlimit="10"/>
<path d="M8.28961 12.1329C10.1064 12.1329 11.5792 10.6601 11.5792 8.84332C11.5792 7.02652 10.1064 5.55371 8.28961 5.55371C6.47281 5.55371 5 7.02652 5 8.84332C5 10.6601 6.47281 12.1329 8.28961 12.1329Z" stroke="#104467" stroke-width="0.7" stroke-miterlimit="10"/>
</svg>
