<svg width="34" height="28" viewBox="0 0 34 28" fill="none" xmlns="http://www.w3.org/2000/svg">
<path d="M18.8221 13.619C20.0479 13.2767 23.5564 10.6847 23.5564 10.6847V9.72528C23.5564 8.50126 24.6785 8.45358 24.6785 8.45358H26.3195L29.5343 4.49726C29.0761 7.20899 30.2506 7.13231 30.2506 7.13231C30.9164 7.26977 31.3185 6.48711 31.3185 6.48711V1.92392C31.3063 0.888787 30.532 1.0038 30.532 1.0038L26.658 1.43113C25.5771 1.54989 25.6509 2.1792 25.6509 2.1792C25.4452 3.15168 26.4869 3.41069 26.4869 3.41069L27.8035 3.37703L27.9269 3.54067C27.1087 4.77778 23.1505 8.18334 23.1505 8.18334C21.1738 9.90856 16.0439 12.7353 16.0439 12.7353L14.502 13.4553C14.502 13.4553 9.65922 15.2086 7.39539 15.4695L3.76541 15.9258C3.76541 15.9258 2.72467 16.4289 3.48489 17.4041L4.55649 17.5089L4.96232 17.4247C4.96232 17.4247 5.38778 16.2802 6.04046 16.1231C6.32777 16.0786 6.61854 16.0604 6.90915 16.0689C7.37201 16.0857 10.7318 16.1727 10.7318 16.1727L11.0422 16.2372L11.3171 16.3943L14.0878 15.5246C14.0878 15.5246 14.2448 13.6545 15.2875 13.5956C16.3301 13.5367 18.8183 13.6255 18.8183 13.6255" fill="#F39D48"/>
<path d="M33.6522 27H0.347774C0.155704 27 0 27.1749 0 27.3907V27.6093C0 27.8251 0.155704 28 0.347774 28H33.6522C33.8443 28 34 27.8251 34 27.6093V27.3907C34 27.1749 33.8443 27 33.6522 27Z" fill="#104467"/>
<path d="M24.6854 8.45215H28.9307C29.2283 8.45215 29.5137 8.57037 29.7241 8.78081C29.9346 8.99124 30.0528 9.27665 30.0528 9.57425L30.0518 27.5H23.5586L23.5596 9.57799C23.5591 9.43 23.5879 9.28338 23.6443 9.14657C23.7007 9.00975 23.7836 8.88544 23.8882 8.7808C23.9929 8.67616 24.1172 8.59325 24.254 8.53685C24.3908 8.48044 24.5374 8.45166 24.6854 8.45215Z" stroke="#104467" stroke-width="0.7" stroke-miterlimit="10"/>
<path d="M15.3329 13.6621H19.5781C19.8757 13.6621 20.1611 13.7803 20.3716 13.9908C20.582 14.2012 20.7002 14.4866 20.7002 14.7842V27.4998H14.207L14.207 14.788C14.2065 14.64 14.2353 14.4933 14.2917 14.3565C14.3481 14.2197 14.431 14.0954 14.5357 13.9908C14.6403 13.8861 14.7646 13.8032 14.9014 13.7468C15.0383 13.6904 15.1849 13.6616 15.3329 13.6621Z" stroke="#104467" stroke-width="0.7" stroke-miterlimit="10"/>
<path d="M6.22154 16.1719H10.4668C10.7644 16.1719 11.0498 16.2901 11.2602 16.5005C11.4707 16.711 11.5889 16.9964 11.5889 17.294V27.4998H5.09571L5.09571 17.2977C5.09522 17.1497 5.124 17.0031 5.1804 16.8663C5.23681 16.7295 5.31971 16.6052 5.42436 16.5005C5.529 16.3959 5.65331 16.313 5.79012 16.2566C5.92694 16.2002 6.07356 16.1714 6.22154 16.1719Z" stroke="#104467" stroke-width="0.7" stroke-miterlimit="10"/>
<path d="M14.3083 15.5303C13.319 15.8706 12.2748 16.1802 11.1758 16.4588" stroke="#104467" stroke-width="0.7" stroke-miterlimit="10"/>
<path d="M23.6212 10.6592C22.082 11.8138 20.4396 12.8239 18.7148 13.6767" stroke="#104467" stroke-width="0.7" stroke-miterlimit="10"/>
<path d="M5.09651 17.5112C4.7711 17.5449 4.44195 17.5761 4.10907 17.6047C3.90308 17.621 3.69818 17.5622 3.53212 17.4392C3.42318 17.3589 3.33482 17.2539 3.27424 17.1329C3.21367 17.0118 3.18261 16.8781 3.18362 16.7428C3.18462 16.6074 3.21765 16.4742 3.28001 16.3541C3.34237 16.234 3.43229 16.1303 3.54241 16.0516L3.57607 16.0282C3.7129 15.9304 3.87553 15.8751 4.04361 15.8692C5.94088 15.7954 18.1511 14.879 27.9816 3.47009C27.9896 3.46112 27.9947 3.45002 27.9963 3.43816C27.998 3.4263 27.9961 3.41422 27.9909 3.40343C27.9857 3.39264 27.9774 3.38363 27.9671 3.37752C27.9568 3.37141 27.945 3.36849 27.933 3.3691L26.6407 3.41585C26.3905 3.42472 26.1464 3.33776 25.9581 3.17273L25.9488 3.16432C25.7688 3.00713 25.6525 2.7896 25.6216 2.55265C25.5908 2.3157 25.6476 2.07565 25.7814 1.87765C25.8608 1.75923 25.9651 1.65962 26.0871 1.5858C26.209 1.51198 26.3456 1.46574 26.4874 1.45032L30.5353 1.00428C30.6333 0.993438 30.7325 1.00324 30.8265 1.03306C30.9205 1.06288 31.0072 1.11206 31.081 1.17742C31.1548 1.24279 31.2141 1.32289 31.2551 1.41257C31.2961 1.50225 31.3178 1.59952 31.3189 1.69811L31.3722 6.16966C31.3736 6.31015 31.3444 6.44925 31.2865 6.5773C31.2287 6.70535 31.1437 6.81929 31.0375 6.91118C30.8454 7.07683 30.5957 7.15994 30.3426 7.14243C30.0896 7.12492 29.8537 7.0082 29.6863 6.81767L29.5572 6.58764C29.4936 6.30712 29.4544 6.26597 29.474 5.88633L29.5498 4.51738C29.551 4.51268 29.5505 4.50768 29.5483 4.50334C29.5461 4.499 29.5424 4.49563 29.5379 4.49388C29.5333 4.49214 29.5283 4.49214 29.5238 4.49389C29.5192 4.49564 29.5155 4.49901 29.5133 4.50335C29.2627 4.90917 28.2145 6.5306 26.1367 8.50829" stroke="#104467" stroke-width="0.7" stroke-miterlimit="10"/>
</svg>
