<svg width="34" height="32" viewBox="0 0 34 32" fill="none" xmlns="http://www.w3.org/2000/svg">
<path d="M33.6522 31H0.347774C0.155704 31 0 31.1749 0 31.3907V31.6093C0 31.8251 0.155704 32 0.347774 32H33.6522C33.8443 32 34 31.8251 34 31.6093V31.3907C34 31.1749 33.8443 31 33.6522 31Z" fill="#104467"/>
<path d="M6.59745 17.043H5.89147C4.77133 17.043 3.86328 17.951 3.86328 19.0712V28.6258C3.86328 29.7459 4.77133 30.654 5.89147 30.654H6.59745C7.71759 30.654 8.62564 29.7459 8.62564 28.6258V19.0712C8.62564 17.951 7.71759 17.043 6.59745 17.043Z" stroke="#104467" stroke-width="0.8" stroke-miterlimit="10"/>
<path d="M11.2311 16.4932L8.625 19.0712" stroke="#104467" stroke-width="0.7" stroke-miterlimit="10"/>
<path d="M17.6328 25.0999H26.1149C26.292 25.1011 26.4675 25.0674 26.6316 25.0007C26.7956 24.934 26.9448 24.8356 27.0708 24.7111C27.1967 24.5867 27.2969 24.4386 27.3655 24.2753C27.4342 24.1121 27.4699 23.937 27.4708 23.7599C27.4699 23.5831 27.4342 23.4082 27.3658 23.2451C27.2973 23.0821 27.1974 22.9341 27.0718 22.8097C26.9461 22.6853 26.7972 22.5868 26.6335 22.5199C26.4698 22.453 26.2945 22.4191 26.1177 22.4199H23.2751" stroke="#104467" stroke-width="0.7" stroke-miterlimit="10"/>
<path d="M17.6328 27.7786H25.609C25.7859 27.7795 25.9611 27.7455 26.1248 27.6786C26.2885 27.6118 26.4374 27.5133 26.5631 27.3889C26.6887 27.2645 26.7886 27.1165 26.8571 26.9535C26.9256 26.7904 26.9612 26.6155 26.9621 26.4387C26.9601 26.0817 26.8165 25.7401 26.5628 25.489C26.309 25.238 25.966 25.0979 25.609 25.0996" stroke="#104467" stroke-width="0.7" stroke-miterlimit="10"/>
<path d="M23.403 27.7793C23.5801 27.778 23.7558 27.8116 23.9199 27.8782C24.084 27.9449 24.2334 28.0433 24.3595 28.1678C24.4855 28.2922 24.5857 28.4404 24.6544 28.6036C24.7231 28.7669 24.7589 28.9422 24.7598 29.1193C24.7581 29.4763 24.6147 29.8179 24.3611 30.0692C24.1076 30.3205 23.7646 30.4608 23.4077 30.4593H11.3517C10.9538 30.4593 10.5605 30.3732 10.199 30.2069C9.83746 30.0407 9.51615 29.7982 9.25711 29.4961L8.625 28.7602" stroke="#104467" stroke-width="0.7" stroke-miterlimit="10"/>
<path d="M17.826 22.4189H24.3894C24.7447 22.4189 25.0856 22.2777 25.3369 22.0264C25.5881 21.7752 25.7293 21.4343 25.7293 21.0789C25.7291 20.7236 25.5878 20.383 25.3366 20.1317C25.0853 19.8805 24.7447 19.7392 24.3894 19.739H12.3353L8.26953 5.40234L14.3017 3.77344" stroke="#104467" stroke-width="0.8" stroke-miterlimit="10"/>
<path d="M14.8142 19.7399L14.5 1H29.8521V31.6182" stroke="#104467" stroke-width="0.8" stroke-miterlimit="10"/>
<path d="M17.2695 19.7409V6.40389C17.2695 6.40389 18.8947 6.50862 19.4202 4.14941H24.7604C24.7604 4.14941 25.2962 6.66664 27.1832 6.50862V22.7163" stroke="#104467" stroke-width="0.8" stroke-miterlimit="10"/>
<path d="M22.0716 17.9147C23.2589 17.9147 24.2214 16.9523 24.2214 15.765C24.2214 14.5777 23.2589 13.6152 22.0716 13.6152C20.8843 13.6152 19.9219 14.5777 19.9219 15.765C19.9219 16.9523 20.8843 17.9147 22.0716 17.9147Z" fill="#F39D48" stroke="#0D4568" stroke-width="0.8" stroke-miterlimit="10"/>
<path d="M14.7986 18.7544L11.8438 9.29796C11.8438 9.29796 13.6989 9.09691 13.7653 6.81719L14.5938 6.59277" stroke="#104467" stroke-width="0.8" stroke-miterlimit="10"/>
</svg>
