<svg width="34" height="27" viewBox="0 0 34 27" fill="none" xmlns="http://www.w3.org/2000/svg">
<path d="M33.6522 26H0.347774C0.155704 26 0 26.1749 0 26.3907V26.6093C0 26.8251 0.155704 27 0.347774 27H33.6522C33.8443 27 34 26.8251 34 26.6093V26.3907C34 26.1749 33.8443 26 33.6522 26Z" fill="#104467"/>
<path d="M22.2539 9.97582V1.47502C22.2538 1.4126 22.266 1.35078 22.2898 1.29309C22.3136 1.2354 22.3486 1.18299 22.3928 1.13886C22.4369 1.09472 22.4893 1.05974 22.547 1.03591C22.6047 1.01208 22.6665 0.999878 22.7289 1H24.5879C24.7138 1 24.8347 1.05005 24.9237 1.13913C25.0128 1.22821 25.0629 1.34904 25.0629 1.47502V9.87577" fill="#F39D48"/>
<path d="M17.8242 9.91618V4.78166C17.8242 4.65568 17.8743 4.53485 17.9634 4.44577C18.0524 4.35669 18.1733 4.30664 18.2992 4.30664H20.1582C20.2841 4.30689 20.4048 4.35701 20.4938 4.44604C20.5828 4.53507 20.6329 4.65575 20.6332 4.78166V9.81613" fill="#F39D48"/>
<path d="M17.8236 10.9625L15.5523 15.2807H3.63662C3.5855 15.2807 3.53533 15.2669 3.49135 15.2408C3.44738 15.2148 3.41122 15.1774 3.38665 15.1325C3.36209 15.0877 3.35002 15.0371 3.35172 14.986C3.35342 14.9349 3.36881 14.8852 3.3963 14.8421L6.51853 9.96289H28.4714L31.2448 14.2643C31.3092 14.3639 31.3455 14.4791 31.3499 14.5977C31.3544 14.7163 31.3268 14.8339 31.27 14.9381C31.2133 15.0423 31.1295 15.1293 31.0275 15.1899C30.9255 15.2505 30.809 15.2825 30.6903 15.2826H19.3759L17.6927 10.6212L17.487 10.0508" stroke="#104467" stroke-width="0.7" stroke-miterlimit="10"/>
<path d="M6.75 15.2822V26.6977" stroke="#104467" stroke-width="0.7" stroke-miterlimit="10"/>
<path d="M28.2109 15.2822V26.6977" stroke="#104467" stroke-width="0.7" stroke-miterlimit="10"/>
<path d="M17.8242 10.9629V26.6965" stroke="#104467" stroke-width="0.7" stroke-miterlimit="10"/>
<path d="M8.80469 9.96252V6.88518C8.80469 6.75919 8.85473 6.63837 8.94382 6.54929C9.0329 6.4602 9.15372 6.41016 9.27971 6.41016H11.1386C11.2646 6.4104 11.3852 6.46053 11.4743 6.54956C11.5633 6.63859 11.6134 6.75927 11.6137 6.88518V9.86247" stroke="#104467" stroke-width="0.7" stroke-miterlimit="10"/>
<path d="M13.3301 9.96083V5.8549C13.33 5.79249 13.3422 5.73066 13.366 5.67297C13.3898 5.61529 13.4248 5.56287 13.4689 5.51874C13.5131 5.4746 13.5655 5.43962 13.6232 5.41579C13.6809 5.39196 13.7427 5.37976 13.8051 5.37988H15.6612C15.7872 5.37988 15.908 5.42993 15.9971 5.51901C16.0862 5.6081 16.1363 5.72892 16.1363 5.8549V9.86078" stroke="#104467" stroke-width="0.7" stroke-miterlimit="10"/>
<path d="M17.8242 9.91618V4.78166C17.8242 4.65568 17.8743 4.53485 17.9634 4.44577C18.0524 4.35669 18.1733 4.30664 18.2992 4.30664H20.1582C20.2841 4.30689 20.4048 4.35701 20.4938 4.44604C20.5828 4.53507 20.6329 4.65575 20.6332 4.78166V9.81613" stroke="#104467" stroke-width="0.7" stroke-miterlimit="10"/>
<path d="M22.2539 9.97582V1.47502C22.2538 1.4126 22.266 1.35078 22.2898 1.29309C22.3136 1.2354 22.3486 1.18299 22.3928 1.13886C22.4369 1.09472 22.4893 1.05974 22.547 1.03591C22.6047 1.01208 22.6665 0.999878 22.7289 1H24.5879C24.7138 1 24.8347 1.05005 24.9237 1.13913C25.0128 1.22821 25.0629 1.34904 25.0629 1.47502V9.87577" stroke="#104467" stroke-width="0.7" stroke-miterlimit="10"/>
</svg>
