<svg width="436" height="345" viewBox="0 0 436 345" fill="none" xmlns="http://www.w3.org/2000/svg">
<path d="M379.672 223.285C367.687 249.862 349.997 273.474 327.859 292.443C305.72 311.413 279.676 325.275 251.577 333.045C223.477 340.815 194.011 342.303 165.272 337.402C136.533 332.501 109.226 321.332 85.2892 304.689C61.3528 288.045 41.3749 266.335 26.7743 241.101C12.1737 215.866 3.30871 187.726 0.808875 158.68C-1.69096 129.633 2.23573 100.392 12.31 73.034C22.3844 45.6759 38.3592 20.8717 59.0998 0.383057L134.851 77.0658C125.368 86.4329 118.065 97.7731 113.459 110.281C108.853 122.789 107.058 136.157 108.201 149.437C109.344 162.717 113.397 175.582 120.072 187.119C126.747 198.656 135.881 208.582 146.824 216.191C157.768 223.8 170.252 228.906 183.391 231.147C196.531 233.387 210.002 232.707 222.849 229.155C235.696 225.603 247.603 219.265 257.724 210.592C267.846 201.92 275.933 191.125 281.413 178.974L379.672 223.285Z" fill="#F7E3CB"/>
<g clip-path="url(#clip0_10_94)">
<path d="M158.844 60.9583H416.182C426.425 60.9583 434.721 69.2546 434.721 79.4969V244.04C434.721 254.282 426.425 262.579 416.182 262.579H158.844C148.601 262.579 140.305 254.282 140.305 244.04V79.4457C140.356 69.2546 148.653 60.9583 158.844 60.9583Z" fill="white" stroke="black" stroke-width="1.48" stroke-miterlimit="10"/>
<path d="M140.356 83.0305V67.4622C140.356 59.678 146.655 53.379 154.44 53.379H420.535C428.32 53.379 434.619 59.678 434.619 67.4622V83.0305H140.356Z" fill="#A7D7FC" stroke="black" stroke-width="1.48" stroke-miterlimit="10"/>
<path d="M154.849 70.8934C156.518 70.8934 157.871 69.5406 157.871 67.8719C157.871 66.2032 156.518 64.8504 154.849 64.8504C153.18 64.8504 151.828 66.2032 151.828 67.8719C151.828 69.5406 153.18 70.8934 154.849 70.8934Z" fill="black" stroke="black" stroke-width="1.48" stroke-miterlimit="10"/>
<path d="M165.501 70.8934C167.17 70.8934 168.523 69.5406 168.523 67.8719C168.523 66.2032 167.17 64.8504 165.501 64.8504C163.833 64.8504 162.48 66.2032 162.48 67.8719C162.48 69.5406 163.833 70.8934 165.501 70.8934Z" fill="black" stroke="black" stroke-width="1.48" stroke-miterlimit="10"/>
<path d="M176.102 70.8934C177.771 70.8934 179.124 69.5406 179.124 67.8719C179.124 66.2032 177.771 64.8504 176.102 64.8504C174.433 64.8504 173.081 66.2032 173.081 67.8719C173.081 69.5406 174.433 70.8934 176.102 70.8934Z" fill="black" stroke="black" stroke-width="1.48" stroke-miterlimit="10"/>
<path d="M322.674 157.781C325.149 142.538 314.798 128.175 299.554 125.701C284.311 123.227 269.948 133.578 267.474 148.821C264.999 164.064 275.351 178.427 290.594 180.902C305.837 183.376 320.2 173.025 322.674 157.781Z" stroke="black" stroke-width="1.48" stroke-miterlimit="10"/>
<path d="M344.588 132.603H383.97Z" fill="#FCB332"/>
<path d="M344.588 132.603H383.97" stroke="black" stroke-width="1.48" stroke-miterlimit="10"/>
<path d="M344.588 140.183H397.08Z" fill="#FCB332"/>
<path d="M344.588 140.183H397.08" stroke="black" stroke-width="1.48" stroke-miterlimit="10"/>
<path d="M344.588 152.166H397.08Z" fill="#FCB332"/>
<path d="M344.588 152.166H397.08" stroke="black" stroke-width="1.48" stroke-miterlimit="10"/>
<path d="M344.588 158.465H370.809Z" fill="#FCB332"/>
<path d="M344.588 158.465H370.809" stroke="black" stroke-width="1.48" stroke-miterlimit="10"/>
<path d="M346.637 166.096H402.816C406.094 166.096 408.808 169.476 408.808 173.675C408.808 177.875 406.145 181.255 402.816 181.255H346.637C343.359 181.255 340.645 177.875 340.645 173.675C340.696 169.476 343.359 166.096 346.637 166.096Z" stroke="black" stroke-width="1.48" stroke-miterlimit="10"/>
<path d="M282.264 147.865C281.957 145.406 283.339 143.102 285.593 142.18L289.843 140.439C290.355 141.924 290.765 143.102 291.072 144.075V144.126C291.482 145.304 292.609 146.123 293.889 146.072L305.412 145.56C309.304 145.406 312.94 147.352 314.937 150.681L277.399 164.867L273.814 155.649L278.935 153.549C281.188 152.627 282.571 150.271 282.264 147.865Z" fill="white" stroke="black" stroke-width="1.64" stroke-miterlimit="10"/>
<path d="M278.884 168.861L316.32 154.112L314.937 150.63L286.566 160.975C285.337 161.436 284.005 161.589 282.674 161.436C281.547 161.282 280.369 161.436 279.242 161.743L276.477 162.562L278.884 168.861Z" fill="#F19D48" stroke="black" stroke-width="1.64" stroke-miterlimit="10"/>
<path d="M282.264 146.84C282.264 146.84 283.288 154.01 295.886 150.579C297.883 150.015 299.522 149.555 300.854 149.145" stroke="black" stroke-width="1.64" stroke-miterlimit="10"/>
<path d="M297.064 144.792C297.064 144.792 294.862 145.355 295.528 147.916" stroke="black" stroke-width="1.64" stroke-miterlimit="10" stroke-linecap="round"/>
<path d="M295.067 144.229C295.067 144.229 292.865 144.792 293.53 147.352" stroke="black" stroke-width="1.64" stroke-miterlimit="10" stroke-linecap="round"/>
<path d="M293.018 143.665C293.018 143.665 290.816 144.228 291.482 146.789" stroke="black" stroke-width="1.64" stroke-miterlimit="10" stroke-linecap="round"/>
<path d="M295.016 142.539C295.016 142.539 293.53 136.086 295.989 136.7C298.447 137.315 297.32 141.412 296.296 140.49C295.272 139.568 297.218 136.905 299.164 137.571C301.059 138.237 298.805 141.463 296.296 143.051" stroke="black" stroke-width="1.64" stroke-miterlimit="10" stroke-linecap="round"/>
<path d="M330.352 276.559C330.352 276.559 257.375 174.802 238.017 174.802C223.114 174.802 210.977 205.887 239.809 257.201" fill="white"/>
<path d="M330.352 276.559C330.352 276.559 257.375 174.802 238.017 174.802C223.114 174.802 210.977 205.887 239.809 257.201" stroke="black" stroke-width="2" stroke-miterlimit="10" stroke-linecap="round"/>
<path d="M176.563 205.119C179.38 184.891 196.689 169.834 217.123 169.834C237.556 169.834 255.992 185.915 257.887 207.014L267.054 304.931H162.633L176.563 205.119Z" fill="white"/>
<path d="M258.758 213.057L267.105 304.931H162.633L176.563 205.119C179.38 184.891 196.689 169.834 217.123 169.834" stroke="black" stroke-width="2" stroke-miterlimit="10" stroke-linecap="round"/>
<path d="M261.984 250.442H170.213L164.989 287.826H265.466L261.984 250.442Z" fill="#EF9D46" stroke="black" stroke-width="2" stroke-miterlimit="10"/>
<path d="M134.67 226.052C118.527 260.044 114.319 287.735 118.527 304.935C147.975 304.935 146.478 304.935 203.877 308L209.867 294.208L167.235 290.664C167.235 290.664 212.376 186.761 212.989 177.03C213.449 169.706 199.186 164.526 174.546 180.379C157.369 191.522 143.566 207.322 134.67 226.052Z" fill="white"/>
<path d="M167.294 288.031C167.294 288.031 182.76 253.258 195.716 222.429" stroke="black" stroke-width="2" stroke-miterlimit="10" stroke-linecap="round"/>
<path d="M238.017 177.158V167.735C238.017 163.894 234.944 160.821 231.103 160.821H201.913C198.072 160.821 194.999 163.894 194.999 167.735V170.859C189.366 172.19 182.504 175.058 174.566 180.077C157.359 190.985 143.531 206.502 134.621 224.836C116.492 261.657 115.211 287.314 117.209 302.217" stroke="black" stroke-width="2" stroke-miterlimit="10" stroke-linecap="round"/>
<path d="M238.017 177.106V167.735C238.017 163.894 234.944 160.821 231.103 160.821H201.913C198.072 160.821 194.999 163.894 194.999 167.735V170.859C189.366 172.19 182.504 175.058 174.566 180.077" fill="white"/>
<path d="M238.017 177.106V167.735C238.017 163.894 234.944 160.821 231.103 160.821H201.913C198.072 160.821 194.999 163.894 194.999 167.735V170.859C189.366 172.19 182.504 175.058 174.566 180.077" stroke="black" stroke-width="2" stroke-miterlimit="10" stroke-linecap="round"/>
<path d="M225.009 101.006H246.313C251.69 101.006 256.095 105.359 256.095 110.787C256.095 111.863 255.89 112.989 255.531 114.014C254.507 116.779 253.124 119.391 251.383 121.798C249.796 124 248.925 126.663 248.925 129.428C248.925 134.754 244.623 139.005 239.297 139.005H232.691L225.009 101.006Z" fill="black" stroke="black" stroke-width="1.52" stroke-miterlimit="10" stroke-linecap="round"/>
<path d="M163.145 133.218C163.504 133.218 163.862 133.218 164.17 133.269V126.765C164.17 116.779 172.261 108.688 182.196 108.688H197.406V129.736C197.406 142.897 186.754 153.6 173.593 153.6H164.17V153.549C163.811 153.6 163.504 153.6 163.145 153.6C157.512 153.651 152.903 149.145 152.852 143.563C152.801 137.981 157.307 133.32 162.889 133.269C162.992 133.218 163.043 133.218 163.145 133.218Z" fill="black" stroke="black" stroke-width="1.52" stroke-miterlimit="10" stroke-linecap="round"/>
<path d="M197.391 121.173C201.746 121.173 205.277 117.642 205.277 113.286C205.277 108.931 201.746 105.4 197.391 105.4C193.035 105.4 189.504 108.931 189.504 113.286C189.504 117.642 193.035 121.173 197.391 121.173Z" fill="#F19D48" stroke="black" stroke-width="1.52" stroke-miterlimit="10"/>
<path d="M207.802 132.399L204.473 170.244L228.594 178.95V132.808" fill="#FC9797"/>
<path d="M228.645 178.95V132.808" stroke="black" stroke-width="1.52" stroke-miterlimit="10" stroke-linecap="round"/>
<path d="M228.594 148.428C228.594 148.428 222.346 149.042 217.788 146.123C219.017 153.191 228.594 161.282 228.594 161.282V148.428Z" fill="black"/>
<path d="M224.241 149.037C233.32 149.037 240.68 141.677 240.68 132.598C240.68 123.519 233.32 116.159 224.241 116.159C215.162 116.159 207.802 123.519 207.802 132.598C207.802 141.677 215.162 149.037 224.241 149.037Z" fill="#FC9797"/>
<path d="M217.788 147.711C226.136 151.244 235.764 147.352 239.348 139.005C242.882 130.657 238.99 121.03 230.642 117.445C228.594 116.574 226.443 116.113 224.241 116.113" stroke="black" stroke-width="1.52" stroke-miterlimit="10" stroke-linecap="round"/>
<path d="M199.25 129.531L206.624 145.662C206.624 145.662 215.381 145.662 215.791 134.447C210.363 132.347 212.872 124.461 216.61 125.69C220.349 126.919 219.939 135.676 219.939 135.676C219.939 135.676 221.271 135.164 221.783 129.633C222.09 126.816 224.343 124.666 227.16 124.563C232.793 124.256 239.195 119.852 242.933 113.143C244.982 109.507 246.057 105.359 246.057 101.159C235.098 100.955 222.653 100.955 213.538 101.006C203.859 101.006 196.023 108.841 196.023 118.52C196.023 120.978 196.535 123.385 197.509 125.639L199.25 129.531Z" fill="black" stroke="black" stroke-width="1.52" stroke-miterlimit="10" stroke-linecap="round"/>
<path d="M206.573 145.714L204.525 170.244" stroke="black" stroke-width="1.52" stroke-miterlimit="10" stroke-linecap="round"/>
<path d="M163.76 133.218H174.975Z" fill="#FCB332"/>
<path d="M163.76 133.218H174.975" stroke="black" stroke-width="1.52" stroke-miterlimit="10" stroke-linecap="round"/>
<path d="M232.691 189.397C230.694 194.723 204.473 185.147 200.479 183.201C196.484 181.255 196.177 166.352 200.223 166.045C220.605 174.495 233.971 167.325 233.971 167.325C233.971 167.325 234.688 184.071 232.691 189.397Z" fill="white"/>
<path d="M200.223 166.096C220.605 174.546 233.971 167.376 233.971 167.376" stroke="black" stroke-width="2" stroke-miterlimit="10" stroke-linecap="round"/>
<path d="M206.983 177.516C197.509 175.724 195.255 170.756 195.255 170.756" stroke="black" stroke-width="2" stroke-miterlimit="10" stroke-linecap="round"/>
<path d="M163.76 304.931C161.763 304.931 160.124 306.57 160.124 308.567V315.992C160.175 322.087 165.092 327.054 171.186 327.054H313.047C319.141 327.054 324.109 322.087 324.109 315.992H215.74C209.39 315.992 204.115 311.23 203.398 304.931H163.76Z" fill="white" stroke="black" stroke-width="2" stroke-miterlimit="10" stroke-linecap="round"/>
<path d="M221.527 231.903C223.883 229.086 227.365 227.448 231.001 227.448H341.413C342.386 227.448 343.359 227.55 344.332 227.806C350.99 229.394 355.087 236.102 353.448 242.76L338.187 306.416C336.856 311.998 331.837 315.941 326.101 315.941H215.74C209.39 315.941 204.115 311.179 203.398 304.88C203.244 303.446 203.347 302.012 203.654 300.629L218.915 236.973C219.273 235.385 219.99 233.9 220.912 232.62L221.527 231.903Z" fill="white" stroke="black" stroke-width="2" stroke-miterlimit="10" stroke-linecap="round"/>
<path d="M294.598 275.309C296.826 268.241 293.537 260.906 287.252 258.924C280.967 256.943 274.066 261.065 271.838 268.133C269.609 275.2 272.898 282.535 279.183 284.517C285.468 286.499 292.369 282.376 294.598 275.309Z" fill="#EF9D46" stroke="black" stroke-width="2" stroke-miterlimit="10"/>
</g>
<defs>
<clipPath id="clip0_10_94">
<rect width="319.1" height="291.031" fill="white" transform="translate(116 53)"/>
</clipPath>
</defs>
</svg>
