<svg width="160" height="16" viewBox="0 0 160 16" fill="none" xmlns="http://www.w3.org/2000/svg">
<path d="M159.707 8.70711C160.098 8.31658 160.098 7.68342 159.707 7.29289L153.343 0.928932C152.953 0.538408 152.319 0.538408 151.929 0.928932C151.538 1.31946 151.538 1.95262 151.929 2.34315L157.586 8L151.929 13.6569C151.538 14.0474 151.538 14.6805 151.929 15.0711C152.319 15.4616 152.953 15.4616 153.343 15.0711L159.707 8.70711ZM159 7H158.006V9H159V7ZM156.019 7L154.031 7V9H156.019V7ZM152.044 7H150.056V9L152.044 9V7ZM148.069 7H146.081V9H148.069V7ZM144.094 7H142.106V9H144.094V7ZM140.119 7H138.131V9L140.119 9V7ZM136.144 7H134.156V9H136.144V7ZM132.169 7H130.181V9H132.169V7ZM128.194 7H126.206V9H128.194V7ZM124.219 7H122.231V9H124.219V7ZM120.244 7L118.256 7V9H120.244V7ZM116.269 7H114.281V9H116.269V7ZM112.294 7L110.306 7V9H112.294V7ZM108.319 7H106.331V9H108.319V7ZM104.344 7H102.356V9H104.344V7ZM100.369 7H98.3813V9H100.369V7ZM96.3938 7H94.4063V9H96.3938V7ZM92.4188 7L90.4313 7V9H92.4188V7ZM88.4438 7H86.4563V9H88.4438V7ZM84.4688 7H82.4812V9H84.4688V7ZM80.4937 7H78.5062V9L80.4937 9V7ZM76.5187 7L74.5312 7V9H76.5187V7ZM72.5437 7H70.5562V9H72.5437V7ZM68.5687 7L66.5812 7V9H68.5687V7ZM64.5937 7H62.6062V9L64.5937 9V7ZM60.6187 7H58.6312V9H60.6187V7ZM56.6437 7H54.6562V9H56.6437V7ZM52.6687 7H50.6812V9L52.6687 9V7ZM48.6937 7L46.7062 7V9H48.6937V7ZM44.7187 7H42.7312V9H44.7187V7ZM40.7437 7L38.7562 7V9H40.7437V7ZM36.7687 7H34.7812V9L36.7687 9V7ZM32.7937 7L30.8062 7V9H32.7937V7ZM28.8187 7H26.8312V9H28.8187V7ZM24.8437 7L22.8562 7V9H24.8437V7ZM20.8687 7H18.8811V9H20.8687V7ZM16.8936 7H14.9061V9H16.8936V7ZM12.9186 7H10.9312V9H12.9186V7ZM8.94363 7H6.95615V9H8.94363V7ZM4.96863 7L2.98114 7V9H4.96863V7ZM0.993622 7H0V9H0.993622V7Z" fill="#7D9BBA"/>
</svg>
