<svg width="130" height="41" viewBox="0 0 130 41" fill="none" xmlns="http://www.w3.org/2000/svg">
<rect x="0.5" y="0.5" width="129" height="40" rx="20" fill="white" stroke="#D0DEEB"/>
<path d="M99.5303 21.5303C99.8232 21.2374 99.8232 20.7626 99.5303 20.4697L94.7574 15.6967C94.4645 15.4038 93.9896 15.4038 93.6967 15.6967C93.4038 15.9896 93.4038 16.4645 93.6967 16.7574L97.9393 21L93.6967 25.2426C93.4038 25.5355 93.4038 26.0104 93.6967 26.3033C93.9896 26.5962 94.4645 26.5962 94.7574 26.3033L99.5303 21.5303ZM75 21.75L99 21.75L99 20.25L75 20.25L75 21.75Z" fill="#1C75BC"/>
<path opacity="0.5" d="M31.4697 20.4697C31.1768 20.7626 31.1768 21.2374 31.4697 21.5303L36.2426 26.3033C36.5355 26.5962 37.0104 26.5962 37.3033 26.3033C37.5962 26.0104 37.5962 25.5355 37.3033 25.2426L33.0607 21L37.3033 16.7574C37.5962 16.4645 37.5962 15.9896 37.3033 15.6967C37.0104 15.4038 36.5355 15.4038 36.2426 15.6967L31.4697 20.4697ZM56 20.25L32 20.25V21.75L56 21.75V20.25Z" fill="#1A3634"/>
</svg>
