<svg width="606" height="215" viewBox="0 0 606 215" fill="none" xmlns="http://www.w3.org/2000/svg">
<path d="M4.22961 10.0558C3.98431 9.92903 3.68265 10.0251 3.55584 10.2704L1.48936 14.2678C1.36255 14.5132 1.45861 14.8148 1.70391 14.9416C1.94921 15.0684 2.25087 14.9724 2.37768 14.7271L4.21455 11.1738L7.76785 13.0106C8.01315 13.1375 8.31481 13.0414 8.44162 12.7961C8.56843 12.5508 8.47237 12.2491 8.22707 12.1223L4.22961 10.0558ZM3.52357 10.6517C3.78903 11.4853 4.06371 12.3092 4.34742 13.1235L5.29174 12.7944C5.011 11.9887 4.73917 11.1734 4.47643 10.3483L3.52357 10.6517ZM6.16734 17.9195C6.82937 19.5278 7.52868 21.0954 8.26367 22.6232L9.16481 22.1897C8.43826 20.6794 7.7468 19.1294 7.09206 17.5388L6.16734 17.9195ZM10.6387 27.2045C11.4835 28.7201 12.3656 30.1931 13.2831 31.6243L14.125 31.0846C13.2186 29.6707 12.347 28.2154 11.5122 26.7176L10.6387 27.2045ZM16.1944 35.8679C17.2164 37.2619 18.2742 38.6121 19.3658 39.9199L20.1335 39.2791C19.0553 37.9873 18.0104 36.6536 17.0009 35.2766L16.1944 35.8679ZM22.7873 43.767C23.9745 45.0206 25.1949 46.2307 26.4462 47.3984L27.1285 46.6673C25.892 45.5134 24.6862 44.3179 23.5134 43.0794L22.7873 43.767ZM30.3168 50.7972C31.6426 51.8929 32.9978 52.9465 34.38 53.9594L34.9711 53.1528C33.6042 52.1512 32.2644 51.1094 30.9538 50.0264L30.3168 50.7972ZM38.6157 56.8841C40.0545 57.8198 41.518 58.7156 43.0041 59.5731L43.5038 58.7069C42.0328 57.8581 40.5844 56.9715 39.1609 56.0458L38.6157 56.8841ZM47.5255 62.0305C49.0516 62.8111 50.5978 63.5547 52.1617 64.2626L52.574 63.3516C51.0242 62.6501 49.4924 61.9134 47.9809 61.1402L47.5255 62.0305ZM56.894 66.2762C58.4843 66.9114 60.09 67.5125 61.7086 68.0806L62.0399 67.1371C60.4341 66.5734 58.8417 65.9773 57.2649 65.3475L56.894 66.2762ZM66.5928 69.6852C68.2303 70.1876 69.8784 70.6585 71.535 71.0993L71.7921 70.1329C70.1473 69.6952 68.5112 69.2277 66.8861 68.7292L66.5928 69.6852ZM76.5246 72.3317C78.1951 72.7134 79.8718 73.0662 81.5524 73.3914L81.7423 72.4096C80.0724 72.0865 78.4066 71.736 76.7473 71.3569L76.5246 72.3317ZM86.6101 74.2865C88.3036 74.5589 89.9988 74.8047 91.6935 75.0252L91.8225 74.0336C90.1375 73.8143 88.4522 73.5699 86.7689 73.2992L86.6101 74.2865ZM96.7971 75.6146C98.5068 75.7874 100.213 75.9357 101.915 76.0608L101.988 75.0635C100.296 74.939 98.598 74.7915 96.8977 74.6196L96.7971 75.6146ZM107.042 76.3695C108.761 76.4505 110.473 76.5088 112.174 76.5457L112.196 75.5459C110.503 75.5092 108.8 75.4512 107.089 75.3706L107.042 76.3695ZM117.308 76.5936C119.033 76.5886 120.744 76.5624 122.439 76.5167L122.412 75.5171C120.725 75.5626 119.022 75.5886 117.305 75.5936L117.308 76.5936ZM127.567 76.3174C129.295 76.2298 131.003 76.1225 132.687 75.9972L132.613 75C130.937 75.1246 129.237 75.2314 127.516 75.3187L127.567 76.3174ZM137.8 75.5562C139.533 75.386 141.235 75.1976 142.904 74.9929L142.782 74.0004C141.121 74.2041 139.427 74.3916 137.702 74.561L137.8 75.5562ZM147.996 74.3038C149.734 74.046 151.428 73.7714 153.073 73.4826L152.9 72.4977C151.264 72.785 149.579 73.0581 147.849 73.3146L147.996 74.3038ZM158.127 72.5197C158.971 72.3458 159.798 72.1684 160.609 71.988L160.391 71.012C159.586 71.1912 158.764 71.3674 157.925 71.5402L158.127 72.5197Z" fill="#799BB6"/>
<path d="M3.72961 175.539C3.48431 175.666 3.18265 175.57 3.05584 175.324L0.989357 171.327C0.862547 171.082 0.958606 170.78 1.20391 170.653C1.44921 170.526 1.75087 170.622 1.87768 170.868L3.71455 174.421L7.26785 172.584C7.51315 172.457 7.81481 172.553 7.94162 172.799C8.06843 173.044 7.97237 173.346 7.72707 173.472L3.72961 175.539ZM3.02357 174.943C3.28903 174.109 3.56371 173.286 3.84742 172.471L4.79174 172.8C4.511 173.606 4.23917 174.421 3.97643 175.246L3.02357 174.943ZM5.66734 167.675C6.32937 166.067 7.02868 164.499 7.76367 162.971L8.66481 163.405C7.93826 164.915 7.2468 166.465 6.59206 168.056L5.66734 167.675ZM10.1387 158.39C10.9835 156.875 11.8656 155.402 12.7831 153.97L13.625 154.51C12.7186 155.924 11.847 157.379 11.0122 158.877L10.1387 158.39ZM15.6944 149.727C16.7164 148.333 17.7742 146.983 18.8658 145.675L19.6335 146.316C18.5553 147.607 17.5104 148.941 16.5009 150.318L15.6944 149.727ZM22.2873 141.828C23.4745 140.574 24.6949 139.364 25.9462 138.196L26.6285 138.927C25.392 140.081 24.1862 141.277 23.0134 142.515L22.2873 141.828ZM29.8168 134.798C31.1426 133.702 32.4978 132.648 33.88 131.635L34.4711 132.442C33.1042 133.444 31.7644 134.485 30.4538 135.568L29.8168 134.798ZM38.1157 128.711C39.5545 127.775 41.018 126.879 42.5041 126.022L43.0038 126.888C41.5328 127.737 40.0844 128.623 38.6609 129.549L38.1157 128.711ZM47.0255 123.564C48.5516 122.784 50.0978 122.04 51.6617 121.332L52.074 122.243C50.5242 122.945 48.9924 123.681 47.4809 124.454L47.0255 123.564ZM56.394 119.319C57.9843 118.683 59.59 118.082 61.2086 117.514L61.5399 118.458C59.9341 119.021 58.3417 119.617 56.7649 120.247L56.394 119.319ZM66.0928 115.909C67.7303 115.407 69.3784 114.936 71.035 114.495L71.2921 115.462C69.6473 115.899 68.0112 116.367 66.3861 116.866L66.0928 115.909ZM76.0246 113.263C77.6951 112.881 79.3718 112.529 81.0524 112.203L81.2423 113.185C79.5724 113.508 77.9066 113.859 76.2473 114.238L76.0246 113.263ZM86.1101 111.308C87.8036 111.036 89.4988 110.79 91.1935 110.57L91.3225 111.561C89.6375 111.78 87.9522 112.025 86.2689 112.296L86.1101 111.308ZM96.2971 109.98C98.0068 109.807 99.7135 109.659 101.415 109.534L101.488 110.531C99.7957 110.656 98.098 110.803 96.3977 110.975L96.2971 109.98ZM106.542 109.225C108.261 109.144 109.973 109.086 111.674 109.049L111.696 110.049C110.003 110.086 108.3 110.144 106.589 110.224L106.542 109.225ZM116.808 109.001C118.533 109.006 120.244 109.032 121.939 109.078L121.912 110.078C120.225 110.032 118.522 110.006 116.805 110.001L116.808 109.001ZM127.067 109.277C128.795 109.365 130.503 109.472 132.187 109.598L132.113 110.595C130.437 110.47 128.737 110.363 127.016 110.276L127.067 109.277ZM137.3 110.039C139.033 110.209 140.735 110.397 142.404 110.602L142.282 111.594C140.621 111.391 138.927 111.203 137.202 111.034L137.3 110.039ZM147.496 111.291C149.234 111.549 150.928 111.823 152.573 112.112L152.4 113.097C150.764 112.81 149.079 112.537 147.349 112.28L147.496 111.291ZM157.627 113.075C158.471 113.249 159.298 113.426 160.109 113.607L159.891 114.583C159.086 114.404 158.264 114.227 157.425 114.054L157.627 113.075Z" fill="#799BB6"/>
<path d="M602.27 9.55584C602.516 9.42903 602.817 9.52509 602.944 9.77039L605.011 13.7678C605.137 14.0132 605.041 14.3148 604.796 14.4416C604.551 14.5684 604.249 14.4724 604.122 14.2271L602.285 10.6738L598.732 12.5106C598.487 12.6375 598.185 12.5414 598.058 12.2961C597.932 12.0508 598.028 11.7491 598.273 11.6223L602.27 9.55584ZM602.976 10.1517C602.711 10.9853 602.436 11.8092 602.153 12.6235L601.208 12.2944C601.489 11.4887 601.761 10.6734 602.024 9.84829L602.976 10.1517ZM600.333 17.4195C599.671 19.0278 598.971 20.5954 598.236 22.1232L597.335 21.6897C598.062 20.1794 598.753 18.6294 599.408 17.0388L600.333 17.4195ZM595.861 26.7045C595.016 28.2201 594.134 29.6931 593.217 31.1243L592.375 30.5846C593.281 29.1707 594.153 27.7154 594.988 26.2176L595.861 26.7045ZM590.306 35.3679C589.284 36.7619 588.226 38.1121 587.134 39.4199L586.366 38.7791C587.445 37.4873 588.49 36.1536 589.499 34.7766L590.306 35.3679ZM583.713 43.267C582.526 44.5206 581.305 45.7307 580.054 46.8984L579.372 46.1673C580.608 45.0134 581.814 43.8179 582.987 42.5794L583.713 43.267ZM576.183 50.2972C574.857 51.3929 573.502 52.4465 572.12 53.4594L571.529 52.6528C572.896 51.6512 574.236 50.6094 575.546 49.5264L576.183 50.2972ZM567.884 56.3841C566.446 57.3198 564.982 58.2156 563.496 59.0731L562.996 58.2069C564.467 57.3581 565.916 56.4715 567.339 55.5458L567.884 56.3841ZM558.974 61.5305C557.448 62.3111 555.902 63.0547 554.338 63.7626L553.926 62.8516C555.476 62.1501 557.008 61.4134 558.519 60.6402L558.974 61.5305ZM549.606 65.7762C548.016 66.4114 546.41 67.0125 544.791 67.5806L544.46 66.6371C546.066 66.0734 547.658 65.4773 549.235 64.8475L549.606 65.7762ZM539.907 69.1852C538.27 69.6876 536.622 70.1585 534.965 70.5993L534.708 69.6329C536.353 69.1952 537.989 68.7277 539.614 68.2292L539.907 69.1852ZM529.975 71.8317C528.305 72.2134 526.628 72.5662 524.948 72.8914L524.758 71.9096C526.428 71.5865 528.093 71.236 529.753 70.8569L529.975 71.8317ZM519.89 73.7865C518.196 74.0589 516.501 74.3047 514.806 74.5252L514.677 73.5336C516.362 73.3143 518.048 73.0699 519.731 72.7992L519.89 73.7865ZM509.703 75.1146C507.993 75.2874 506.287 75.4357 504.585 75.5608L504.512 74.5635C506.204 74.439 507.902 74.2915 509.602 74.1196L509.703 75.1146ZM499.458 75.8695C497.739 75.9505 496.027 76.0088 494.326 76.0457L494.304 75.0459C495.997 75.0092 497.7 74.9512 499.411 74.8706L499.458 75.8695ZM489.192 76.0936C487.467 76.0886 485.756 76.0624 484.061 76.0167L484.088 75.0171C485.775 75.0626 487.478 75.0886 489.195 75.0936L489.192 76.0936ZM478.933 75.8174C477.205 75.7298 475.497 75.6225 473.813 75.4972L473.887 74.5C475.563 74.6246 477.263 74.7314 478.984 74.8187L478.933 75.8174ZM468.7 75.0562C466.967 74.886 465.265 74.6976 463.596 74.4929L463.718 73.5004C465.379 73.7041 467.073 73.8916 468.798 74.061L468.7 75.0562ZM458.504 73.8038C456.766 73.546 455.072 73.2714 453.427 72.9826L453.6 71.9977C455.236 72.285 456.921 72.5581 458.651 72.8146L458.504 73.8038ZM448.373 72.0197C447.529 71.8458 446.702 71.6684 445.891 71.488L446.109 70.512C446.914 70.6912 447.736 70.8674 448.575 71.0402L448.373 72.0197Z" fill="#799BB6"/>
<path d="M602.27 175.539C602.516 175.666 602.817 175.57 602.944 175.324L605.011 171.327C605.137 171.082 605.041 170.78 604.796 170.653C604.551 170.526 604.249 170.622 604.122 170.868L602.285 174.421L598.732 172.584C598.487 172.457 598.185 172.553 598.058 172.799C597.932 173.044 598.028 173.346 598.273 173.472L602.27 175.539ZM602.976 174.943C602.711 174.109 602.436 173.286 602.153 172.471L601.208 172.8C601.489 173.606 601.761 174.421 602.024 175.246L602.976 174.943ZM600.333 167.675C599.671 166.067 598.971 164.499 598.236 162.971L597.335 163.405C598.062 164.915 598.753 166.465 599.408 168.056L600.333 167.675ZM595.861 158.39C595.016 156.875 594.134 155.402 593.217 153.97L592.375 154.51C593.281 155.924 594.153 157.379 594.988 158.877L595.861 158.39ZM590.306 149.727C589.284 148.333 588.226 146.983 587.134 145.675L586.366 146.316C587.445 147.607 588.49 148.941 589.499 150.318L590.306 149.727ZM583.713 141.828C582.526 140.574 581.305 139.364 580.054 138.196L579.372 138.927C580.608 140.081 581.814 141.277 582.987 142.515L583.713 141.828ZM576.183 134.798C574.857 133.702 573.502 132.648 572.12 131.635L571.529 132.442C572.896 133.444 574.236 134.485 575.546 135.568L576.183 134.798ZM567.884 128.711C566.446 127.775 564.982 126.879 563.496 126.022L562.996 126.888C564.467 127.737 565.916 128.623 567.339 129.549L567.884 128.711ZM558.974 123.564C557.448 122.784 555.902 122.04 554.338 121.332L553.926 122.243C555.476 122.945 557.008 123.681 558.519 124.454L558.974 123.564ZM549.606 119.319C548.016 118.683 546.41 118.082 544.791 117.514L544.46 118.458C546.066 119.021 547.658 119.617 549.235 120.247L549.606 119.319ZM539.907 115.909C538.27 115.407 536.622 114.936 534.965 114.495L534.708 115.462C536.353 115.899 537.989 116.367 539.614 116.866L539.907 115.909ZM529.975 113.263C528.305 112.881 526.628 112.529 524.948 112.203L524.758 113.185C526.428 113.508 528.093 113.859 529.753 114.238L529.975 113.263ZM519.89 111.308C518.196 111.036 516.501 110.79 514.806 110.57L514.677 111.561C516.362 111.78 518.048 112.025 519.731 112.296L519.89 111.308ZM509.703 109.98C507.993 109.807 506.287 109.659 504.585 109.534L504.512 110.531C506.204 110.656 507.902 110.803 509.602 110.975L509.703 109.98ZM499.458 109.225C497.739 109.144 496.027 109.086 494.326 109.049L494.304 110.049C495.997 110.086 497.7 110.144 499.411 110.224L499.458 109.225ZM489.192 109.001C487.467 109.006 485.756 109.032 484.061 109.078L484.088 110.078C485.775 110.032 487.478 110.006 489.195 110.001L489.192 109.001ZM478.933 109.277C477.205 109.365 475.497 109.472 473.813 109.598L473.887 110.595C475.563 110.47 477.263 110.363 478.984 110.276L478.933 109.277ZM468.7 110.039C466.967 110.209 465.265 110.397 463.596 110.602L463.718 111.594C465.379 111.391 467.073 111.203 468.798 111.034L468.7 110.039ZM458.504 111.291C456.766 111.549 455.072 111.823 453.427 112.112L453.6 113.097C455.236 112.81 456.921 112.537 458.651 112.28L458.504 111.291ZM448.373 113.075C447.529 113.249 446.702 113.426 445.891 113.607L446.109 114.583C446.914 114.404 447.736 114.227 448.575 114.054L448.373 113.075Z" fill="#799BB6"/>
<g filter="url(#filter0_d_1850_1196)">
<rect x="158" y="19.5" width="287.924" height="153.921" rx="20" fill="white"/>
<rect x="158.5" y="20" width="286.924" height="152.921" rx="19.5" stroke="#92CFD6"/>
</g>
<path d="M209.74 130.893C209.598 131.215 209.407 131.498 209.159 131.739C208.915 131.98 208.627 132.171 208.3 132.311C207.972 132.448 207.619 132.518 207.246 132.518H206.463C206.09 132.518 205.737 132.448 205.406 132.311C205.076 132.173 204.788 131.98 204.541 131.739C204.296 131.498 204.102 131.215 203.96 130.893C203.817 130.571 203.749 130.223 203.749 129.856V124.03C203.749 123.663 203.82 123.316 203.96 122.993C204.099 122.671 204.293 122.388 204.541 122.147C204.786 121.906 205.076 121.716 205.406 121.576C205.737 121.438 206.09 121.368 206.463 121.368H207.246C207.619 121.368 207.972 121.438 208.3 121.576C208.627 121.716 208.915 121.906 209.159 122.147C209.404 122.388 209.598 122.671 209.74 122.993C209.88 123.316 209.951 123.663 209.951 124.03V129.856C209.951 130.223 209.88 130.571 209.74 130.893ZM208.96 124.03C208.96 123.789 208.915 123.562 208.821 123.352C208.727 123.142 208.601 122.96 208.445 122.803C208.285 122.646 208.1 122.523 207.887 122.433C207.673 122.343 207.445 122.296 207.197 122.296H206.506C206.261 122.296 206.03 122.341 205.816 122.433C205.603 122.523 205.418 122.646 205.255 122.803C205.093 122.96 204.968 123.142 204.874 123.352C204.78 123.562 204.734 123.786 204.734 124.03V129.856C204.734 130.097 204.78 130.324 204.874 130.534C204.968 130.744 205.093 130.926 205.255 131.086C205.418 131.246 205.603 131.369 205.816 131.462C206.03 131.551 206.258 131.599 206.506 131.599H207.197C207.442 131.599 207.673 131.554 207.887 131.462C208.1 131.372 208.285 131.246 208.445 131.086C208.604 130.926 208.73 130.744 208.821 130.534C208.912 130.324 208.96 130.1 208.96 129.856V124.03Z" fill="#606161"/>
<path d="M216.764 131.128C216.644 131.405 216.479 131.646 216.268 131.853C216.058 132.061 215.813 132.223 215.531 132.341C215.249 132.459 214.95 132.518 214.631 132.518H214.392C214.039 132.518 213.711 132.448 213.406 132.305C213.102 132.162 212.845 131.966 212.629 131.716V135.468H211.684V124.618H212L212.515 125.406C212.732 125.117 212.999 124.89 213.327 124.722C213.651 124.554 214.007 124.47 214.392 124.47H214.631C214.95 124.47 215.249 124.529 215.531 124.646C215.813 124.764 216.058 124.926 216.268 125.134C216.479 125.341 216.644 125.582 216.764 125.86C216.883 126.137 216.943 126.431 216.943 126.745V130.239C216.943 130.553 216.883 130.847 216.764 131.125V131.128ZM215.998 126.695C215.998 126.507 215.961 126.333 215.89 126.168C215.818 126.005 215.722 125.862 215.596 125.739C215.474 125.619 215.329 125.523 215.161 125.45C214.993 125.38 214.816 125.344 214.625 125.344H213.996C213.805 125.344 213.629 125.38 213.461 125.45C213.292 125.521 213.15 125.616 213.025 125.739C212.902 125.86 212.806 126.003 212.732 126.168C212.66 126.33 212.623 126.507 212.623 126.695V130.295C212.623 130.483 212.66 130.657 212.732 130.822C212.803 130.988 212.9 131.128 213.025 131.251C213.147 131.372 213.292 131.467 213.461 131.54C213.629 131.612 213.805 131.646 213.996 131.646H214.625C214.816 131.646 214.993 131.61 215.161 131.54C215.326 131.47 215.471 131.374 215.596 131.251C215.722 131.128 215.815 130.988 215.89 130.822C215.961 130.66 215.998 130.483 215.998 130.295V126.695Z" fill="#606161"/>
<path d="M223.6 131.129C223.48 131.406 223.315 131.647 223.104 131.855C222.894 132.062 222.649 132.224 222.367 132.342C222.085 132.46 221.786 132.519 221.467 132.519H220.838C220.519 132.519 220.22 132.46 219.938 132.342C219.656 132.224 219.411 132.062 219.2 131.855C218.99 131.647 218.824 131.406 218.705 131.129C218.585 130.851 218.525 130.557 218.525 130.243V126.749C218.525 126.435 218.585 126.141 218.705 125.864C218.824 125.586 218.99 125.345 219.2 125.138C219.411 124.93 219.656 124.768 219.938 124.65C220.22 124.532 220.519 124.474 220.838 124.474H221.467C221.786 124.474 222.085 124.532 222.367 124.65C222.649 124.768 222.894 124.93 223.104 125.138C223.315 125.345 223.48 125.586 223.6 125.864C223.719 126.141 223.779 126.435 223.779 126.749V128.573H219.465V130.299C219.465 130.487 219.502 130.661 219.573 130.826C219.645 130.992 219.741 131.132 219.867 131.255C219.989 131.375 220.134 131.471 220.302 131.544C220.47 131.616 220.647 131.65 220.838 131.65H221.467C221.658 131.65 221.834 131.614 222.002 131.544C222.167 131.473 222.313 131.378 222.438 131.255C222.563 131.132 222.657 130.992 222.731 130.826C222.803 130.664 222.84 130.487 222.84 130.299V129.784L223.785 129.935V130.246C223.785 130.56 223.725 130.854 223.606 131.132L223.6 131.129ZM222.834 126.696C222.834 126.508 222.797 126.334 222.726 126.169C222.654 126.006 222.558 125.864 222.432 125.74C222.31 125.62 222.165 125.524 221.997 125.452C221.829 125.382 221.652 125.345 221.461 125.345H220.832C220.641 125.345 220.465 125.382 220.297 125.452C220.129 125.522 219.986 125.617 219.861 125.74C219.738 125.861 219.642 126.004 219.568 126.169C219.496 126.331 219.459 126.508 219.459 126.696V127.845H222.825V126.696H222.834Z" fill="#606161"/>
<path d="M229.666 132.37V126.696C229.666 126.508 229.629 126.334 229.558 126.169C229.487 126.006 229.39 125.864 229.265 125.74C229.142 125.62 228.997 125.524 228.829 125.452C228.661 125.382 228.484 125.345 228.293 125.345H227.664C227.473 125.345 227.297 125.382 227.129 125.452C226.961 125.522 226.818 125.617 226.693 125.74C226.571 125.861 226.474 126.004 226.4 126.169C226.329 126.331 226.292 126.508 226.292 126.696V132.37H225.346V124.622H225.662L226.178 125.41C226.394 125.121 226.662 124.894 226.989 124.726C227.314 124.558 227.67 124.474 228.054 124.474H228.293C228.612 124.474 228.911 124.532 229.193 124.65C229.475 124.768 229.72 124.93 229.931 125.138C230.142 125.345 230.307 125.586 230.426 125.864C230.546 126.141 230.606 126.435 230.606 126.749V132.37H229.66H229.666Z" fill="#606161"/>
<path d="M241.495 132.369L236.899 124.469L236.808 124.001V132.369H235.817V121.521H236.332L240.928 129.426L241.028 129.889V121.521H242.019V132.369H241.495Z" fill="#606161"/>
<path d="M248.833 131.129C248.714 131.406 248.548 131.647 248.338 131.855C248.127 132.062 247.882 132.224 247.6 132.342C247.318 132.46 247.019 132.519 246.7 132.519H246.071C245.752 132.519 245.453 132.46 245.171 132.342C244.889 132.224 244.644 132.062 244.434 131.855C244.223 131.647 244.058 131.406 243.938 131.129C243.819 130.851 243.759 130.557 243.759 130.243V126.749C243.759 126.435 243.819 126.141 243.938 125.864C244.058 125.586 244.223 125.345 244.434 125.138C244.644 124.93 244.889 124.768 245.171 124.65C245.453 124.532 245.752 124.474 246.071 124.474H246.7C247.019 124.474 247.318 124.532 247.6 124.65C247.882 124.768 248.127 124.93 248.338 125.138C248.548 125.345 248.714 125.586 248.833 125.864C248.953 126.141 249.013 126.435 249.013 126.749V128.573H244.699V130.299C244.699 130.487 244.736 130.661 244.807 130.826C244.878 130.992 244.975 131.132 245.1 131.255C245.222 131.375 245.368 131.471 245.536 131.544C245.704 131.616 245.88 131.65 246.071 131.65H246.7C246.891 131.65 247.068 131.614 247.236 131.544C247.401 131.473 247.546 131.378 247.671 131.255C247.797 131.132 247.891 130.992 247.965 130.826C248.036 130.664 248.073 130.487 248.073 130.299V129.784L249.018 129.935V130.246C249.018 130.56 248.959 130.854 248.839 131.132L248.833 131.129ZM248.067 126.696C248.067 126.508 248.03 126.334 247.959 126.169C247.888 126.006 247.791 125.864 247.666 125.74C247.543 125.62 247.398 125.524 247.23 125.452C247.062 125.382 246.885 125.345 246.695 125.345H246.065C245.875 125.345 245.698 125.382 245.53 125.452C245.362 125.522 245.22 125.617 245.094 125.74C244.972 125.861 244.875 126.004 244.801 126.169C244.73 126.331 244.693 126.508 244.693 126.696V127.845H248.059V126.696H248.067Z" fill="#606161"/>
<path d="M253.457 132.369C253.169 132.369 252.899 132.316 252.645 132.21C252.392 132.103 252.172 131.957 251.985 131.77C251.797 131.582 251.649 131.366 251.537 131.12C251.426 130.873 251.372 130.607 251.372 130.327V125.507H249.957V124.621H251.372V122.761L252.318 122.609V124.621H254.317V125.507H252.318V130.371C252.318 130.528 252.346 130.674 252.406 130.806C252.466 130.94 252.546 131.058 252.648 131.156C252.751 131.257 252.87 131.335 253.01 131.394C253.149 131.453 253.297 131.481 253.457 131.481H254.317V132.367H253.457V132.369Z" fill="#606161"/>
<path d="M262.372 132.369H261.857L260.011 126.529L259.98 126.129L259.949 126.529L258.103 132.369H257.58L254.951 124.621H255.911L257.787 130.478L257.819 130.878L257.85 130.478L259.695 124.621H260.265L262.102 130.478L262.133 130.878L262.164 130.478L264.041 124.621H265L262.372 132.369Z" fill="#606161"/>
<path d="M270.869 131.129C270.75 131.406 270.585 131.647 270.374 131.855C270.163 132.062 269.918 132.224 269.636 132.342C269.354 132.46 269.055 132.519 268.737 132.519H268.107C267.788 132.519 267.489 132.46 267.207 132.342C266.925 132.224 266.681 132.062 266.47 131.855C266.259 131.647 266.094 131.406 265.974 131.129C265.855 130.851 265.795 130.557 265.795 130.243V126.749C265.795 126.435 265.855 126.141 265.974 125.864C266.094 125.586 266.259 125.345 266.47 125.138C266.681 124.93 266.925 124.768 267.207 124.65C267.489 124.532 267.788 124.474 268.107 124.474H268.737C269.055 124.474 269.354 124.532 269.636 124.65C269.918 124.768 270.163 124.93 270.374 125.138C270.585 125.345 270.75 125.586 270.869 125.864C270.989 126.141 271.049 126.435 271.049 126.749V130.243C271.049 130.557 270.989 130.851 270.869 131.129ZM270.103 126.696C270.103 126.508 270.066 126.334 269.995 126.169C269.924 126.006 269.827 125.864 269.702 125.74C269.579 125.62 269.434 125.524 269.266 125.452C269.098 125.382 268.922 125.345 268.731 125.345H268.101C267.911 125.345 267.734 125.382 267.566 125.452C267.398 125.522 267.256 125.617 267.13 125.74C267.008 125.861 266.911 126.004 266.837 126.169C266.766 126.331 266.729 126.508 266.729 126.696V130.297C266.729 130.484 266.766 130.658 266.837 130.823C266.908 130.989 267.005 131.129 267.13 131.252C267.253 131.373 267.398 131.468 267.566 131.541C267.734 131.614 267.911 131.647 268.101 131.647H268.731C268.922 131.647 269.098 131.611 269.266 131.541C269.431 131.471 269.577 131.375 269.702 131.252C269.827 131.129 269.921 130.989 269.995 130.823C270.066 130.661 270.103 130.484 270.103 130.297V126.696Z" fill="#606161"/>
<path d="M274.941 125.507C274.75 125.507 274.573 125.543 274.405 125.613C274.237 125.683 274.095 125.779 273.969 125.902C273.847 126.022 273.75 126.165 273.676 126.331C273.605 126.493 273.568 126.67 273.568 126.857V132.372H272.623V124.624H272.939L273.454 125.412C273.67 125.123 273.938 124.896 274.266 124.728C274.59 124.56 274.946 124.476 275.331 124.476H275.883V125.512H274.938L274.941 125.507Z" fill="#606161"/>
<path d="M277.146 132.369V121.521H278.091V132.369H277.146ZM281.489 132.369L278.277 128.496L281.489 124.624H282.719L279.43 128.496L282.719 132.369H281.489Z" fill="#606161"/>
<path d="M289.674 122.404C289.515 122.404 289.367 122.432 289.233 122.491C289.096 122.55 288.976 122.628 288.874 122.729C288.771 122.83 288.692 122.948 288.632 123.085C288.572 123.222 288.544 123.368 288.544 123.525V124.62H290.38V125.506H288.544V132.368H287.598V125.506H286.177V124.62H287.598V123.57C287.598 123.287 287.652 123.02 287.761 122.771C287.869 122.522 288.017 122.303 288.208 122.115C288.398 121.928 288.618 121.782 288.868 121.675C289.119 121.569 289.389 121.516 289.674 121.516H290.543V122.401H289.674V122.404Z" fill="#606161"/>
<path d="M296.255 131.129C296.135 131.406 295.97 131.647 295.759 131.855C295.548 132.062 295.304 132.224 295.022 132.342C294.74 132.46 294.441 132.519 294.122 132.519H293.492C293.174 132.519 292.875 132.46 292.593 132.342C292.311 132.224 292.066 132.062 291.855 131.855C291.644 131.647 291.479 131.406 291.36 131.129C291.24 130.851 291.18 130.557 291.18 130.243V126.749C291.18 126.435 291.24 126.141 291.36 125.864C291.479 125.586 291.644 125.345 291.855 125.138C292.066 124.93 292.311 124.768 292.593 124.65C292.875 124.532 293.174 124.474 293.492 124.474H294.122C294.441 124.474 294.74 124.532 295.022 124.65C295.304 124.768 295.548 124.93 295.759 125.138C295.97 125.345 296.135 125.586 296.255 125.864C296.374 126.141 296.434 126.435 296.434 126.749V130.243C296.434 130.557 296.374 130.851 296.255 131.129ZM295.489 126.696C295.489 126.508 295.452 126.334 295.38 126.169C295.309 126.006 295.212 125.864 295.087 125.74C294.965 125.62 294.819 125.524 294.651 125.452C294.483 125.382 294.307 125.345 294.116 125.345H293.487C293.296 125.345 293.119 125.382 292.951 125.452C292.783 125.522 292.641 125.617 292.516 125.74C292.393 125.861 292.296 126.004 292.222 126.169C292.151 126.331 292.114 126.508 292.114 126.696V130.297C292.114 130.484 292.151 130.658 292.222 130.823C292.294 130.989 292.39 131.129 292.516 131.252C292.638 131.373 292.783 131.468 292.951 131.541C293.119 131.614 293.296 131.647 293.487 131.647H294.116C294.307 131.647 294.483 131.611 294.651 131.541C294.817 131.471 294.962 131.375 295.087 131.252C295.212 131.129 295.306 130.989 295.38 130.823C295.452 130.661 295.489 130.484 295.489 130.297V126.696Z" fill="#606161"/>
<path d="M300.326 125.507C300.135 125.507 299.958 125.543 299.79 125.613C299.622 125.683 299.48 125.779 299.355 125.902C299.232 126.022 299.135 126.165 299.061 126.331C298.99 126.493 298.953 126.67 298.953 126.857V132.372H298.008V124.624H298.324L298.839 125.412C299.056 125.123 299.323 124.896 299.651 124.728C299.976 124.56 300.331 124.476 300.716 124.476H301.268V125.512H300.323L300.326 125.507Z" fill="#606161"/>
<path d="M311.836 130.742C311.697 131.064 311.503 131.347 311.255 131.588C311.007 131.829 310.72 132.019 310.389 132.159C310.059 132.3 309.706 132.367 309.333 132.367H305.842V121.52H309.333C309.706 121.52 310.059 121.59 310.389 121.727C310.72 121.864 311.007 122.055 311.255 122.299C311.5 122.54 311.694 122.825 311.836 123.15C311.978 123.475 312.047 123.823 312.047 124.19V129.705C312.047 130.072 311.976 130.419 311.836 130.742ZM311.056 124.19C311.056 123.949 311.01 123.722 310.916 123.512C310.825 123.302 310.697 123.12 310.535 122.96C310.372 122.8 310.187 122.677 309.974 122.584C309.76 122.492 309.532 122.447 309.285 122.447H306.833V131.434H309.285C309.529 131.434 309.76 131.389 309.974 131.296C310.187 131.204 310.372 131.083 310.535 130.926C310.697 130.77 310.822 130.587 310.916 130.377C311.007 130.167 311.056 129.943 311.056 129.699V124.184V124.19Z" fill="#606161"/>
<path d="M313.699 122.761V121.52H314.798V122.761H313.699ZM313.776 132.37V124.622H314.722V132.37H313.776Z" fill="#606161"/>
<path d="M321.764 134.207C321.644 134.471 321.479 134.695 321.269 134.88C321.058 135.065 320.813 135.21 320.531 135.314C320.249 135.418 319.95 135.468 319.631 135.468H319.238C318.919 135.468 318.62 135.415 318.338 135.314C318.056 135.21 317.812 135.065 317.601 134.88C317.39 134.695 317.225 134.468 317.105 134.207C316.986 133.944 316.926 133.658 316.926 133.344V133.313C316.926 133.011 316.983 132.733 317.094 132.481C317.208 132.229 317.362 132.01 317.555 131.823C317.31 131.677 317.114 131.478 316.969 131.229C316.823 130.979 316.749 130.702 316.749 130.399C316.749 130.127 316.809 129.872 316.926 129.64C317.043 129.407 317.205 129.214 317.41 129.068C317.165 128.855 316.969 128.603 316.826 128.303C316.684 128.006 316.61 127.681 316.61 127.328V126.745C316.61 126.431 316.67 126.137 316.789 125.86C316.909 125.582 317.074 125.341 317.285 125.134C317.495 124.926 317.74 124.764 318.022 124.646C318.304 124.529 318.603 124.47 318.922 124.47H319.315C319.7 124.47 320.055 124.554 320.38 124.722C320.705 124.89 320.975 125.12 321.192 125.406L321.707 124.618H322.023V127.328C322.023 127.642 321.963 127.936 321.844 128.213C321.724 128.491 321.559 128.732 321.348 128.939C321.138 129.147 320.893 129.309 320.611 129.427C320.329 129.544 320.03 129.603 319.711 129.603H318.341C318.233 129.603 318.13 129.626 318.034 129.668C317.937 129.71 317.851 129.769 317.777 129.839C317.703 129.909 317.646 129.993 317.604 130.091C317.564 130.189 317.541 130.29 317.541 130.396C317.541 130.503 317.561 130.604 317.604 130.699C317.644 130.794 317.703 130.878 317.777 130.951C317.851 131.024 317.937 131.08 318.034 131.122C318.13 131.164 318.233 131.184 318.341 131.184H319.634C319.953 131.184 320.252 131.237 320.534 131.338C320.816 131.442 321.061 131.587 321.271 131.772C321.482 131.957 321.647 132.184 321.767 132.445C321.886 132.708 321.946 132.994 321.946 133.308V133.339C321.946 133.652 321.886 133.938 321.767 134.202L321.764 134.207ZM321.083 126.695C321.083 126.507 321.046 126.333 320.975 126.168C320.904 126.005 320.804 125.862 320.679 125.739C320.554 125.619 320.409 125.523 320.241 125.45C320.073 125.378 319.896 125.344 319.705 125.344H318.922C318.731 125.344 318.555 125.38 318.387 125.45C318.219 125.521 318.076 125.616 317.954 125.739C317.831 125.862 317.735 126.003 317.661 126.168C317.587 126.333 317.552 126.507 317.552 126.695V127.384C317.552 127.572 317.589 127.745 317.661 127.911C317.732 128.076 317.829 128.216 317.954 128.34C318.079 128.463 318.222 128.555 318.387 128.628C318.552 128.698 318.731 128.735 318.922 128.735H319.705C319.896 128.735 320.073 128.698 320.241 128.628C320.406 128.558 320.554 128.463 320.679 128.34C320.804 128.219 320.904 128.076 320.975 127.911C321.046 127.748 321.083 127.572 321.083 127.384V126.695ZM321.044 133.269C321.044 133.081 321.007 132.916 320.935 132.764C320.864 132.616 320.767 132.49 320.642 132.389C320.52 132.288 320.374 132.209 320.209 132.153C320.041 132.097 319.865 132.069 319.674 132.069H319.19C318.999 132.069 318.822 132.097 318.654 132.153C318.489 132.209 318.344 132.288 318.219 132.389C318.093 132.49 317.999 132.616 317.925 132.764C317.854 132.913 317.817 133.081 317.817 133.269V133.389C317.817 133.577 317.854 133.742 317.925 133.888C317.997 134.034 318.093 134.16 318.219 134.263C318.341 134.367 318.486 134.445 318.654 134.502C318.82 134.558 318.999 134.586 319.19 134.586H319.674C319.865 134.586 320.041 134.558 320.209 134.502C320.374 134.445 320.52 134.367 320.642 134.263C320.765 134.16 320.861 134.036 320.935 133.888C321.007 133.742 321.044 133.574 321.044 133.389V133.269Z" fill="#606161"/>
<path d="M323.687 122.761V121.52H324.786V122.761H323.687ZM323.764 132.37V124.622H324.709V132.37H323.764Z" fill="#606161"/>
<path d="M329.468 132.369C329.18 132.369 328.91 132.316 328.656 132.21C328.403 132.103 328.184 131.957 327.996 131.77C327.808 131.582 327.66 131.366 327.549 131.12C327.438 130.873 327.384 130.607 327.384 130.327V125.507H325.968V124.621H327.384V122.761L328.329 122.609V124.621H330.328V125.507H328.329V130.371C328.329 130.528 328.357 130.674 328.417 130.806C328.477 130.94 328.557 131.058 328.659 131.156C328.762 131.254 328.881 131.335 329.021 131.394C329.16 131.453 329.309 131.481 329.468 131.481H330.328V132.367H329.468V132.369Z" fill="#606161"/>
<path d="M336.697 132.369L336.173 131.599C335.957 131.876 335.689 132.1 335.365 132.268C335.043 132.437 334.687 132.521 334.302 132.521H334.063C333.744 132.521 333.445 132.462 333.163 132.344C332.881 132.226 332.637 132.064 332.426 131.857C332.215 131.649 332.05 131.408 331.93 131.131C331.811 130.853 331.751 130.559 331.751 130.245V130.17C331.751 129.856 331.811 129.562 331.93 129.284C332.05 129.007 332.215 128.766 332.426 128.558C332.637 128.351 332.881 128.188 333.163 128.071C333.445 127.953 333.744 127.894 334.063 127.894H336.062V126.698C336.062 126.51 336.025 126.336 335.954 126.171C335.883 126.008 335.786 125.865 335.661 125.742C335.538 125.622 335.393 125.526 335.225 125.454C335.057 125.381 334.881 125.347 334.69 125.347H334.137C333.946 125.347 333.77 125.383 333.602 125.454C333.434 125.524 333.292 125.619 333.166 125.742C333.044 125.863 332.947 126.006 332.873 126.171C332.799 126.336 332.765 126.51 332.765 126.698V126.978L331.819 126.827V126.751C331.819 126.437 331.879 126.143 331.999 125.865C332.118 125.588 332.283 125.347 332.494 125.14C332.705 124.932 332.95 124.77 333.232 124.652C333.514 124.534 333.813 124.476 334.132 124.476H334.684C335.003 124.476 335.302 124.534 335.584 124.652C335.866 124.77 336.111 124.932 336.321 125.14C336.532 125.347 336.697 125.588 336.817 125.865C336.936 126.143 336.996 126.437 336.996 126.751V132.372H336.68L336.697 132.369ZM336.068 128.617H334.069C333.878 128.617 333.702 128.654 333.534 128.724C333.366 128.794 333.223 128.892 333.101 129.015C332.978 129.138 332.881 129.281 332.807 129.447C332.733 129.612 332.699 129.786 332.699 129.973V130.299C332.699 130.486 332.736 130.66 332.807 130.825C332.879 130.991 332.975 131.131 333.101 131.254C333.223 131.375 333.368 131.47 333.534 131.543C333.699 131.616 333.878 131.649 334.069 131.649H334.698C334.889 131.649 335.066 131.613 335.234 131.543C335.402 131.473 335.544 131.377 335.669 131.254C335.795 131.131 335.889 130.991 335.963 130.825C336.034 130.663 336.071 130.486 336.071 130.299V128.62L336.068 128.617Z" fill="#606161"/>
<path d="M338.902 132.369V121.521H339.848V132.369H338.902Z" fill="#606161"/>
<path d="M351.191 130.893C351.052 131.215 350.858 131.498 350.61 131.739C350.362 131.98 350.078 132.171 349.75 132.311C349.423 132.448 349.072 132.518 348.697 132.518H347.913C347.54 132.518 347.187 132.448 346.857 132.311C346.527 132.173 346.239 131.98 345.991 131.739C345.746 131.498 345.553 131.215 345.41 130.893C345.268 130.571 345.2 130.223 345.2 129.856V124.03C345.2 123.663 345.271 123.316 345.41 122.993C345.55 122.671 345.746 122.388 345.991 122.147C346.236 121.906 346.527 121.716 346.857 121.576C347.187 121.438 347.54 121.368 347.913 121.368H348.697C349.07 121.368 349.423 121.438 349.75 121.576C350.078 121.716 350.365 121.906 350.61 122.147C350.855 122.388 351.049 122.671 351.191 122.993C351.331 123.316 351.402 123.663 351.402 124.03V124.47L350.411 124.621V124.033C350.411 123.792 350.365 123.565 350.274 123.355C350.183 123.145 350.055 122.963 349.898 122.806C349.742 122.649 349.554 122.525 349.34 122.436C349.127 122.346 348.899 122.298 348.651 122.298H347.959C347.714 122.298 347.484 122.343 347.27 122.436C347.056 122.528 346.871 122.649 346.709 122.806C346.547 122.963 346.421 123.145 346.327 123.355C346.233 123.565 346.188 123.789 346.188 124.033V129.859C346.188 130.1 346.233 130.327 346.327 130.537C346.421 130.747 346.547 130.929 346.709 131.089C346.871 131.249 347.056 131.372 347.27 131.464C347.484 131.557 347.711 131.602 347.959 131.602H348.651C348.896 131.602 349.127 131.557 349.34 131.464C349.554 131.372 349.739 131.249 349.898 131.089C350.058 130.929 350.183 130.747 350.274 130.537C350.365 130.327 350.411 130.103 350.411 129.859V129.268L351.402 129.427V129.859C351.402 130.226 351.331 130.573 351.191 130.896V130.893Z" fill="#606161"/>
<path d="M358.057 131.129C357.937 131.406 357.772 131.647 357.561 131.855C357.351 132.062 357.106 132.224 356.824 132.342C356.542 132.46 356.243 132.519 355.924 132.519H355.295C354.976 132.519 354.677 132.46 354.395 132.342C354.113 132.224 353.868 132.062 353.657 131.855C353.447 131.647 353.281 131.406 353.162 131.129C353.042 130.851 352.982 130.557 352.982 130.243V126.749C352.982 126.435 353.042 126.141 353.162 125.864C353.281 125.586 353.447 125.345 353.657 125.138C353.868 124.93 354.113 124.768 354.395 124.65C354.677 124.532 354.976 124.474 355.295 124.474H355.924C356.243 124.474 356.542 124.532 356.824 124.65C357.106 124.768 357.351 124.93 357.561 125.138C357.772 125.345 357.937 125.586 358.057 125.864C358.176 126.141 358.236 126.435 358.236 126.749V130.243C358.236 130.557 358.176 130.851 358.057 131.129ZM357.291 126.696C357.291 126.508 357.254 126.334 357.183 126.169C357.111 126.006 357.015 125.864 356.889 125.74C356.767 125.62 356.622 125.524 356.454 125.452C356.286 125.379 356.109 125.345 355.918 125.345H355.289C355.098 125.345 354.922 125.382 354.754 125.452C354.586 125.522 354.443 125.617 354.321 125.74C354.198 125.864 354.102 126.004 354.027 126.169C353.953 126.334 353.919 126.508 353.919 126.696V130.297C353.919 130.484 353.956 130.658 354.027 130.823C354.099 130.989 354.196 131.129 354.321 131.252C354.443 131.373 354.588 131.468 354.754 131.541C354.919 131.614 355.098 131.647 355.289 131.647H355.918C356.109 131.647 356.286 131.611 356.454 131.541C356.622 131.471 356.764 131.375 356.889 131.252C357.015 131.129 357.109 130.989 357.183 130.823C357.254 130.661 357.291 130.484 357.291 130.297V126.696Z" fill="#606161"/>
<path d="M368.123 132.37V126.696C368.123 126.508 368.086 126.334 368.015 126.169C367.944 126.006 367.847 125.864 367.722 125.74C367.6 125.62 367.454 125.524 367.286 125.452C367.118 125.379 366.942 125.345 366.751 125.345H366.281C366.09 125.345 365.914 125.382 365.746 125.452C365.578 125.522 365.432 125.617 365.307 125.74C365.182 125.861 365.082 126.004 365.011 126.169C364.94 126.331 364.903 126.508 364.903 126.696V132.37H363.966V126.696C363.966 126.508 363.929 126.334 363.858 126.169C363.787 126.004 363.687 125.864 363.562 125.74C363.436 125.62 363.291 125.524 363.123 125.452C362.955 125.379 362.778 125.345 362.588 125.345H362.118C361.927 125.345 361.751 125.382 361.582 125.452C361.414 125.522 361.272 125.617 361.15 125.74C361.027 125.864 360.93 126.004 360.856 126.169C360.782 126.334 360.748 126.508 360.748 126.696V132.37H359.803V124.622H360.119L360.634 125.41C360.851 125.121 361.121 124.894 361.446 124.726C361.77 124.558 362.126 124.474 362.511 124.474H362.588C363.035 124.474 363.436 124.583 363.795 124.799C364.154 125.014 364.43 125.303 364.627 125.662C364.723 125.485 364.843 125.323 364.988 125.177C365.131 125.031 365.29 124.905 365.464 124.801C365.637 124.698 365.828 124.617 366.033 124.561C366.238 124.502 366.452 124.474 366.671 124.474H366.748C367.067 124.474 367.366 124.532 367.648 124.65C367.93 124.768 368.175 124.93 368.385 125.138C368.596 125.345 368.761 125.586 368.881 125.864C369.001 126.141 369.06 126.435 369.06 126.749V132.37H368.115H368.123Z" fill="#606161"/>
<path d="M378.952 132.37V126.696C378.952 126.508 378.915 126.334 378.843 126.169C378.772 126.006 378.675 125.864 378.55 125.74C378.428 125.62 378.282 125.524 378.114 125.452C377.946 125.379 377.77 125.345 377.579 125.345H377.109C376.918 125.345 376.742 125.382 376.574 125.452C376.406 125.522 376.261 125.617 376.135 125.74C376.01 125.861 375.91 126.004 375.839 126.169C375.768 126.331 375.731 126.508 375.731 126.696V132.37H374.794V126.696C374.794 126.508 374.757 126.334 374.686 126.169C374.615 126.004 374.515 125.864 374.39 125.74C374.264 125.62 374.119 125.524 373.951 125.452C373.783 125.379 373.607 125.345 373.416 125.345H372.946C372.755 125.345 372.579 125.382 372.411 125.452C372.243 125.522 372.1 125.617 371.978 125.74C371.855 125.864 371.759 126.004 371.684 126.169C371.61 126.334 371.576 126.508 371.576 126.696V132.37H370.631V124.622H370.947L371.462 125.41C371.679 125.121 371.949 124.894 372.274 124.726C372.599 124.558 372.955 124.474 373.339 124.474H373.416C373.863 124.474 374.264 124.583 374.623 124.799C374.982 125.014 375.258 125.303 375.455 125.662C375.552 125.485 375.671 125.323 375.816 125.177C375.959 125.031 376.118 124.905 376.292 124.801C376.466 124.698 376.656 124.617 376.861 124.561C377.066 124.502 377.28 124.474 377.499 124.474H377.576C377.895 124.474 378.194 124.532 378.476 124.65C378.758 124.768 379.003 124.93 379.214 125.138C379.424 125.345 379.589 125.586 379.709 125.864C379.829 126.141 379.888 126.435 379.888 126.749V132.37H378.943H378.952Z" fill="#606161"/>
<path d="M386.549 131.129C386.429 131.406 386.264 131.647 386.054 131.855C385.843 132.062 385.598 132.224 385.316 132.342C385.034 132.46 384.735 132.519 384.416 132.519H383.787C383.468 132.519 383.169 132.46 382.887 132.342C382.605 132.224 382.36 132.062 382.15 131.855C381.939 131.647 381.774 131.406 381.654 131.129C381.534 130.851 381.475 130.557 381.475 130.243V126.749C381.475 126.435 381.534 126.141 381.654 125.864C381.774 125.586 381.939 125.345 382.15 125.138C382.36 124.93 382.605 124.768 382.887 124.65C383.169 124.532 383.468 124.474 383.787 124.474H384.416C384.735 124.474 385.034 124.532 385.316 124.65C385.598 124.768 385.843 124.93 386.054 125.138C386.264 125.345 386.429 125.586 386.549 125.864C386.669 126.141 386.728 126.435 386.728 126.749V128.573H382.414V130.299C382.414 130.487 382.451 130.661 382.523 130.826C382.594 130.992 382.691 131.132 382.816 131.255C382.938 131.375 383.084 131.471 383.249 131.544C383.414 131.616 383.593 131.65 383.784 131.65H384.413C384.604 131.65 384.781 131.614 384.949 131.544C385.117 131.473 385.259 131.378 385.384 131.255C385.51 131.132 385.604 130.992 385.678 130.826C385.749 130.664 385.786 130.487 385.786 130.299V129.784L386.731 129.935V130.246C386.731 130.56 386.672 130.854 386.552 131.132L386.549 131.129ZM385.783 126.696C385.783 126.508 385.746 126.334 385.675 126.169C385.604 126.006 385.507 125.864 385.382 125.74C385.259 125.62 385.114 125.524 384.946 125.452C384.778 125.379 384.601 125.345 384.411 125.345H383.781C383.59 125.345 383.414 125.382 383.246 125.452C383.078 125.522 382.935 125.617 382.813 125.74C382.691 125.864 382.594 126.004 382.52 126.169C382.446 126.334 382.411 126.508 382.411 126.696V127.845H385.78V126.696H385.783Z" fill="#606161"/>
<path d="M390.625 125.507C390.434 125.507 390.257 125.543 390.089 125.613C389.921 125.683 389.779 125.779 389.656 125.902C389.534 126.025 389.437 126.165 389.363 126.331C389.289 126.496 389.255 126.67 389.255 126.857V132.372H388.31V124.624H388.626L389.141 125.412C389.357 125.123 389.628 124.896 389.953 124.728C390.277 124.56 390.633 124.476 391.018 124.476H391.57V125.512H390.625V125.507Z" fill="#606161"/>
<path d="M397.596 131.129C397.477 131.406 397.312 131.647 397.101 131.855C396.89 132.062 396.645 132.224 396.363 132.342C396.081 132.46 395.782 132.519 395.464 132.519H394.834C394.515 132.519 394.216 132.46 393.934 132.342C393.652 132.224 393.408 132.062 393.197 131.855C392.986 131.647 392.821 131.406 392.701 131.129C392.582 130.851 392.522 130.557 392.522 130.243V126.749C392.522 126.435 392.582 126.141 392.701 125.864C392.821 125.586 392.986 125.345 393.197 125.138C393.408 124.93 393.652 124.768 393.934 124.65C394.216 124.532 394.515 124.474 394.834 124.474H395.464C395.782 124.474 396.081 124.532 396.363 124.65C396.645 124.768 396.89 124.93 397.101 125.138C397.312 125.345 397.477 125.586 397.596 125.864C397.716 126.141 397.776 126.435 397.776 126.749V127.06L396.83 127.211V126.696C396.83 126.508 396.793 126.334 396.722 126.169C396.651 126.006 396.554 125.864 396.429 125.74C396.306 125.62 396.161 125.524 395.993 125.452C395.825 125.379 395.649 125.345 395.458 125.345H394.829C394.638 125.345 394.461 125.382 394.293 125.452C394.125 125.522 393.983 125.617 393.86 125.74C393.738 125.864 393.641 126.004 393.567 126.169C393.493 126.334 393.459 126.508 393.459 126.696V130.297C393.459 130.484 393.496 130.658 393.567 130.823C393.638 130.989 393.735 131.129 393.86 131.252C393.983 131.373 394.128 131.468 394.293 131.541C394.458 131.614 394.638 131.647 394.829 131.647H395.458C395.649 131.647 395.825 131.611 395.993 131.541C396.161 131.471 396.304 131.375 396.429 131.252C396.554 131.129 396.648 130.989 396.722 130.823C396.793 130.661 396.83 130.484 396.83 130.297V129.781L397.776 129.932V130.243C397.776 130.557 397.716 130.851 397.596 131.129Z" fill="#606161"/>
<path d="M404.433 131.129C404.313 131.406 404.148 131.647 403.937 131.855C403.727 132.062 403.482 132.224 403.2 132.342C402.918 132.46 402.619 132.519 402.3 132.519H401.671C401.352 132.519 401.053 132.46 400.771 132.342C400.489 132.224 400.244 132.062 400.033 131.855C399.823 131.647 399.657 131.406 399.538 131.129C399.418 130.851 399.358 130.557 399.358 130.243V126.749C399.358 126.435 399.418 126.141 399.538 125.864C399.657 125.586 399.823 125.345 400.033 125.138C400.244 124.93 400.489 124.768 400.771 124.65C401.053 124.532 401.352 124.474 401.671 124.474H402.3C402.619 124.474 402.918 124.532 403.2 124.65C403.482 124.768 403.727 124.93 403.937 125.138C404.148 125.345 404.313 125.586 404.433 125.864C404.552 126.141 404.612 126.435 404.612 126.749V128.573H400.298V130.299C400.298 130.487 400.335 130.661 400.406 130.826C400.478 130.992 400.574 131.132 400.7 131.255C400.822 131.375 400.967 131.471 401.132 131.544C401.298 131.616 401.477 131.65 401.668 131.65H402.297C402.488 131.65 402.664 131.614 402.832 131.544C403.001 131.473 403.143 131.378 403.268 131.255C403.393 131.132 403.487 130.992 403.561 130.826C403.633 130.664 403.67 130.487 403.67 130.299V129.784L404.615 129.935V130.246C404.615 130.56 404.555 130.854 404.436 131.132L404.433 131.129ZM403.667 126.696C403.667 126.508 403.63 126.334 403.559 126.169C403.487 126.006 403.391 125.864 403.265 125.74C403.143 125.62 402.998 125.524 402.83 125.452C402.662 125.379 402.485 125.345 402.294 125.345H401.665C401.474 125.345 401.298 125.382 401.13 125.452C400.962 125.522 400.819 125.617 400.697 125.74C400.574 125.864 400.478 126.004 400.403 126.169C400.329 126.334 400.295 126.508 400.295 126.696V127.845H403.664V126.696H403.667Z" fill="#606161"/>
<path d="M223.567 64.1641C231.119 64.1641 237.19 66.4226 241.784 70.9425C246.377 75.4625 248.675 81.4367 248.675 88.8681C248.675 96.2995 246.368 102.235 241.761 106.771C237.151 111.308 231.085 113.575 223.57 113.575C216.055 113.575 210.027 111.3 205.402 106.746C200.772 102.195 198.46 96.235 198.46 88.8681C198.46 81.5012 200.764 75.5017 205.374 70.9678C209.984 66.431 216.05 64.1641 223.567 64.1641ZM223.567 74.0558C217.795 74.0558 213.49 76.2975 210.648 80.7866C209.224 83.0396 208.515 85.7325 208.515 88.8681C208.515 91.7319 209.153 94.2987 210.428 96.5657C211.767 98.9476 213.698 100.755 216.215 101.996C218.504 103.12 220.953 103.683 223.57 103.683C229.34 103.683 233.648 101.433 236.49 96.93C237.914 94.6938 238.623 92.0094 238.623 88.8709C238.623 84.1744 237.088 80.4924 234.012 77.8219C231.134 75.3139 227.654 74.0586 223.567 74.0586V74.0558Z" fill="url(#paint0_linear_1850_1196)"/>
<path d="M398.489 99.5332L405.818 106.746C402.877 109.705 399.166 111.717 394.687 112.779C392.497 113.309 390.151 113.575 387.651 113.575C380.164 113.575 374.11 111.3 369.483 106.746C364.858 102.195 362.546 96.235 362.546 88.8681C362.546 81.5012 364.85 75.5017 369.46 70.9678C374.067 66.431 380.133 64.1641 387.651 64.1641C395.168 64.1641 401.276 66.4226 405.87 70.9425L398.489 78.2058C395.612 75.4372 391.999 74.0558 387.651 74.0558C381.881 74.0558 377.576 76.2975 374.731 80.7866C373.31 83.0396 372.598 85.7325 372.598 88.8681C372.598 91.7319 373.239 94.2987 374.512 96.5657C375.853 98.9476 377.781 100.755 380.298 101.996C382.587 103.12 385.039 103.683 387.653 103.683C392.002 103.683 395.615 102.302 398.491 99.5332H398.489Z" fill="url(#paint1_linear_1850_1196)"/>
<path d="M327.689 73.0017C328.443 73.0017 329.055 72.3993 329.055 71.6567C329.055 70.9141 328.443 70.3145 327.689 70.3145C326.934 70.3145 326.322 70.9169 326.322 71.6567C326.322 72.3965 326.934 73.0017 327.689 73.0017Z" fill="url(#paint2_linear_1850_1196)"/>
<path d="M310.167 88.0074C310.167 88.1674 310.456 88.1702 310.458 88.0074C310.458 87.926 310.396 87.8643 310.313 87.8643C310.23 87.8643 310.167 87.926 310.167 88.0074Z" fill="url(#paint3_linear_1850_1196)"/>
<path d="M350.735 70.9424C347.765 68.0225 344.177 66.0526 339.976 65.0186L337.405 67.5517C337.955 68.8127 338.262 70.1998 338.262 71.6569C338.262 72.7722 338.083 73.8482 337.75 74.857C339.663 75.4791 341.403 76.4599 342.964 77.8189C346.036 80.4894 347.571 84.1715 347.571 88.8679C347.571 92.0064 346.862 94.6909 345.438 96.927C342.596 101.43 338.291 103.68 332.519 103.68H317.463V90.8098C316.327 93.6036 313.553 95.582 310.316 95.582C309.288 95.582 308.308 95.3802 307.411 95.0215V113.575H332.519C340.036 113.575 346.102 111.308 350.709 106.771C355.322 102.234 357.623 96.2685 357.623 88.8679C357.623 81.4674 355.328 75.4623 350.738 70.9424H350.735Z" fill="url(#paint4_linear_1850_1196)"/>
<path d="M335.024 74.5305L328.34 71.7256C327.973 71.5714 327.597 71.9385 327.756 72.3L330.607 78.8767C330.678 79.0421 330.846 79.1513 331.037 79.1429C331.222 79.1345 331.384 79.0168 331.441 78.8431L332.321 76.2175L334.989 75.3516C335.166 75.2955 335.288 75.1358 335.294 74.9537C335.303 74.7715 335.194 74.6034 335.024 74.5305ZM331.829 75.4525C331.695 75.4973 331.589 75.5982 331.544 75.7327L330.963 77.4644L329.009 72.9585L333.588 74.8808L331.829 75.4525Z" fill="#939598"/>
<path d="M327.695 66.8125C324.981 66.8125 322.771 68.987 322.771 71.6575C322.771 74.328 324.981 76.5024 327.695 76.5024C328.05 76.5024 328.341 76.2166 328.341 75.8664C328.341 75.5161 328.05 75.2303 327.695 75.2303C325.693 75.2303 324.064 73.6274 324.064 71.6575C324.064 69.6875 325.693 68.0847 327.695 68.0847C329.696 68.0847 331.325 69.6875 331.325 71.6575C331.325 72.0077 331.616 72.2936 331.972 72.2936C332.328 72.2936 332.618 72.0077 332.618 71.6575C332.618 68.987 330.408 66.8125 327.695 66.8125Z" fill="#44823D"/>
<path d="M333.204 66.2323C331.726 64.778 329.767 63.9766 327.691 63.9766C325.615 63.9766 323.656 64.778 322.178 66.2323C319.139 69.2222 319.139 74.0896 322.178 77.0824C323.656 78.5367 325.615 79.3381 327.691 79.3381C328.047 79.3381 328.337 79.0523 328.337 78.702C328.337 78.3518 328.047 78.0659 327.691 78.0659C324.1 78.0659 321.178 75.1909 321.178 71.6573C321.178 68.1238 324.1 65.2488 327.691 65.2488C331.282 65.2488 334.203 68.1238 334.203 71.6573C334.203 72.0076 334.494 72.2934 334.85 72.2934C335.206 72.2934 335.496 72.0076 335.496 71.6573C335.496 69.6146 334.682 67.6867 333.204 66.2323Z" fill="#F29C49"/>
<path d="M251.717 113.575H261.769V81.9299L281.848 97.737V87.8817L251.717 64.1641V113.575Z" fill="url(#paint5_linear_1850_1196)"/>
<path d="M317.119 71.6571C317.119 70.2 317.424 68.8129 317.976 67.5519L316.222 65.823C314.357 66.0079 312.614 65.3382 311.358 64.1641H289.021V105.659L299.074 113.572V74.0558H317.407C317.221 73.2852 317.122 72.4809 317.122 71.6571H317.119Z" fill="url(#paint6_linear_1850_1196)"/>
<path d="M339.777 80.576C339.219 80.576 338.701 80.7357 338.251 80.9963L335.682 78.4688C335.352 78.8442 334.996 79.1945 334.614 79.5196L337.183 82.0471C336.915 82.4899 336.753 82.9999 336.753 83.5491C336.753 85.1884 338.108 86.5222 339.774 86.5222C341.44 86.5222 342.795 85.1884 342.795 83.5491C342.795 81.9098 341.44 80.576 339.774 80.576H339.777ZM339.777 85.0343C338.943 85.0343 338.268 84.3673 338.268 83.5491C338.268 82.7309 338.945 82.0639 339.777 82.0639C340.608 82.0639 341.286 82.7309 341.286 83.5491C341.286 84.3673 340.608 85.0343 339.777 85.0343Z" fill="url(#paint7_linear_1850_1196)"/>
<path d="M342.795 53.0762C340.295 53.0762 338.265 55.0769 338.265 57.5344C338.265 58.305 338.464 59.028 338.814 59.6613L334.614 63.7945C334.996 64.1196 335.352 64.4698 335.682 64.8453L339.76 60.8326C340.563 61.55 341.628 61.9927 342.798 61.9927C345.299 61.9927 347.329 59.992 347.329 57.5344C347.329 55.0769 345.296 53.0762 342.798 53.0762H342.795ZM342.795 60.5076C341.13 60.5076 339.774 59.1737 339.774 57.5344C339.774 55.8952 341.13 54.5613 342.795 54.5613C344.461 54.5613 345.817 55.8952 345.817 57.5344C345.817 59.1737 344.461 60.5076 342.795 60.5076Z" fill="url(#paint8_linear_1850_1196)"/>
<path d="M315.609 62.7372C316.167 62.7372 316.685 62.5775 317.135 62.3169L319.704 64.8445C320.034 64.469 320.39 64.1187 320.771 63.7937L318.203 61.2661C318.468 60.8234 318.63 60.3162 318.63 59.7641C318.63 58.1249 317.275 56.791 315.609 56.791C313.943 56.791 312.587 58.1249 312.587 59.7641C312.587 61.4034 313.943 62.7372 315.609 62.7372ZM315.609 58.279C316.443 58.279 317.118 58.9459 317.118 59.7641C317.118 60.5824 316.44 61.2493 315.609 61.2493C314.777 61.2493 314.099 60.5824 314.099 59.7641C314.099 58.9459 314.777 58.279 315.609 58.279Z" fill="url(#paint9_linear_1850_1196)"/>
<path d="M320.768 79.5196C320.386 79.1945 320.03 78.8442 319.7 78.4688L313.359 84.7092C312.553 83.9919 311.49 83.5491 310.32 83.5491C307.82 83.5491 305.79 85.5499 305.79 88.0074C305.79 90.4649 307.823 92.4657 310.32 92.4657C312.817 92.4657 314.851 90.4649 314.851 88.0074C314.851 87.2368 314.651 86.5138 314.301 85.8805L320.768 79.5168V79.5196ZM310.317 90.9805C308.651 90.9805 307.296 89.6467 307.296 88.0074C307.296 86.3681 308.651 85.0343 310.317 85.0343C311.983 85.0343 313.339 86.3681 313.339 88.0074C313.339 89.6467 311.983 90.9805 310.317 90.9805Z" fill="url(#paint10_linear_1850_1196)"/>
<path d="M328.445 85.1026V82.0342C328.194 82.051 327.944 82.0622 327.687 82.0622C327.431 82.0622 327.183 82.051 326.933 82.0342V85.1026C324.794 85.4584 323.157 87.2883 323.157 89.4964C323.157 91.9567 325.19 93.9547 327.687 93.9547C330.185 93.9547 332.218 91.9539 332.218 89.4964C332.218 87.2911 330.58 85.4584 328.442 85.1026H328.445ZM327.687 92.4695C326.021 92.4695 324.666 91.1357 324.666 89.4964C324.666 87.8571 326.021 86.5233 327.687 86.5233C329.353 86.5233 330.709 87.8571 330.709 89.4964C330.709 91.1357 329.353 92.4695 327.687 92.4695Z" fill="url(#paint11_linear_1850_1196)"/>
<defs>
<filter id="filter0_d_1850_1196" x="128" y="0.5" width="347.924" height="213.922" filterUnits="userSpaceOnUse" color-interpolation-filters="sRGB">
<feFlood flood-opacity="0" result="BackgroundImageFix"/>
<feColorMatrix in="SourceAlpha" type="matrix" values="0 0 0 0 0 0 0 0 0 0 0 0 0 0 0 0 0 0 127 0" result="hardAlpha"/>
<feOffset dy="11"/>
<feGaussianBlur stdDeviation="15"/>
<feComposite in2="hardAlpha" operator="out"/>
<feColorMatrix type="matrix" values="0 0 0 0 0.819375 0 0 0 0 0.8625 0 0 0 0 0.854659 0 0 0 1 0"/>
<feBlend mode="normal" in2="BackgroundImageFix" result="effect1_dropShadow_1850_1196"/>
<feBlend mode="normal" in="SourceGraphic" in2="effect1_dropShadow_1850_1196" result="shape"/>
</filter>
<linearGradient id="paint0_linear_1850_1196" x1="232.236" y1="90.8801" x2="371.817" y2="124.433" gradientUnits="userSpaceOnUse">
<stop stop-color="#1C75BC"/>
<stop offset="1" stop-color="#00AEEF"/>
</linearGradient>
<linearGradient id="paint1_linear_1850_1196" x1="240.933" y1="54.7067" x2="380.512" y2="88.2628" gradientUnits="userSpaceOnUse">
<stop stop-color="#1C75BC"/>
<stop offset="1" stop-color="#00AEEF"/>
</linearGradient>
<linearGradient id="paint2_linear_1850_1196" x1="322.529" y1="70.5358" x2="331.414" y2="72.5295" gradientUnits="userSpaceOnUse">
<stop stop-color="#1C75BC"/>
<stop offset="1" stop-color="#00AEEF"/>
</linearGradient>
<linearGradient id="paint3_linear_1850_1196" x1="309.768" y1="87.8783" x2="310.711" y2="88.0896" gradientUnits="userSpaceOnUse">
<stop stop-color="#1C75BC"/>
<stop offset="1" stop-color="#00AEEF"/>
</linearGradient>
<linearGradient id="paint4_linear_1850_1196" x1="241.514" y1="71.458" x2="399.13" y2="106.793" gradientUnits="userSpaceOnUse">
<stop stop-color="#1C75BC"/>
<stop offset="1" stop-color="#00AEEF"/>
</linearGradient>
<linearGradient id="paint5_linear_1850_1196" x1="245" y1="86.6208" x2="349.163" y2="122.633" gradientUnits="userSpaceOnUse">
<stop stop-color="#1C75BC"/>
<stop offset="1" stop-color="#00AEEF"/>
</linearGradient>
<linearGradient id="paint6_linear_1850_1196" x1="250.55" y1="70.5671" x2="354.713" y2="106.583" gradientUnits="userSpaceOnUse">
<stop offset="0.05" stop-color="#1C75BC"/>
<stop offset="1" stop-color="#00AEEF"/>
</linearGradient>
<linearGradient id="paint7_linear_1850_1196" x1="316.495" y1="77.5945" x2="352.156" y2="86.1655" gradientUnits="userSpaceOnUse">
<stop stop-color="#1C75BC"/>
<stop offset="1" stop-color="#00AEEF"/>
</linearGradient>
<linearGradient id="paint8_linear_1850_1196" x1="314.368" y1="53.1098" x2="358.145" y2="63.6337" gradientUnits="userSpaceOnUse">
<stop stop-color="#1C75BC"/>
<stop offset="1" stop-color="#00AEEF"/>
</linearGradient>
<linearGradient id="paint9_linear_1850_1196" x1="294.946" y1="55.4908" x2="330.614" y2="64.0647" gradientUnits="userSpaceOnUse">
<stop stop-color="#1C75BC"/>
<stop offset="1" stop-color="#00AEEF"/>
</linearGradient>
<linearGradient id="paint10_linear_1850_1196" x1="281.821" y1="77.8046" x2="332.279" y2="89.9346" gradientUnits="userSpaceOnUse">
<stop stop-color="#1C75BC"/>
<stop offset="1" stop-color="#00AEEF"/>
</linearGradient>
<linearGradient id="paint11_linear_1850_1196" x1="305.877" y1="82.8916" x2="341.846" y2="91.5378" gradientUnits="userSpaceOnUse">
<stop stop-color="#1C75BC"/>
<stop offset="1" stop-color="#00AEEF"/>
</linearGradient>
</defs>
</svg>
