<svg width="96" height="81" viewBox="0 0 96 81" fill="none" xmlns="http://www.w3.org/2000/svg">
<path d="M92.7639 77.1494H0.958655C0.429206 77.1494 0 77.7641 0 78.5225V79.291C0 80.0493 0.429206 80.664 0.958655 80.664H92.7639C93.2933 80.664 93.7225 80.0493 93.7225 79.291V78.5225C93.7225 77.7641 93.2933 77.1494 92.7639 77.1494Z" fill="#104467"/>
<path d="M20.8973 42.877H13.5811C12.121 42.877 10.9374 44.0606 10.9374 45.5207V74.2543C10.9374 75.7144 12.121 76.898 13.5811 76.898H20.8973C22.3573 76.898 23.541 75.7144 23.541 74.2543V45.5207C23.541 44.0606 22.3573 42.877 20.8973 42.877Z" stroke="#104467" stroke-miterlimit="10"/>
<path d="M23.5391 47.3575C23.5391 47.3575 27.5943 47.7185 29.9468 45.6082C32.2994 43.4979 38.7165 38.1918 45.2151 44.1617C47.5322 46.2354 50.5328 47.3816 53.6423 47.3807H62.6845C63.9342 47.3807 65.1327 47.8772 66.0164 48.7609C66.9001 49.6446 67.3966 50.8431 67.3966 52.0928C67.3966 53.3426 66.9001 54.5411 66.0164 55.4248C65.1327 56.3085 63.9342 56.8049 62.6845 56.8049H47.8052" stroke="#104467" stroke-miterlimit="10"/>
<path d="M66.2646 55.1548L85.3854 44.3517C86.6638 43.5534 88.2068 43.2951 89.6755 43.6336C91.1443 43.972 92.4186 44.8796 93.2187 46.1569C93.6147 46.7899 93.8821 47.4948 94.0056 48.2311C94.1292 48.9675 94.1065 49.721 93.9389 50.4486C93.7713 51.1762 93.462 51.8636 93.0287 52.4717C92.5954 53.0798 92.0465 53.5966 91.4135 53.9925L62.2582 72.3936L60.4088 73.5583C50.5444 79.6749 42.8509 75.7291 42.8509 75.7291C38.3135 74.3479 35.1644 73.5583 35.1644 73.5583H23.5391" stroke="#104467" stroke-miterlimit="10"/>
<path d="M61.8509 24.6095L61.632 24.0901C60.7851 21.7526 60.7338 19.2009 61.486 16.8312C62.2383 14.4616 63.752 12.4067 65.792 10.9857L77.2193 3.0243C79.6747 1.31423 82.7087 0.649496 85.6541 1.17629C88.5995 1.70308 91.2151 3.37826 92.9255 5.83338C94.6357 8.28908 95.3005 11.3235 94.7737 14.2693C94.2469 17.2151 92.5717 19.831 90.1164 21.5419L78.6891 29.5009C76.5726 30.9751 74.0151 31.6799 71.4422 31.4981C68.8693 31.3163 66.4363 30.2588 64.5482 28.5017L64.2873 28.1197" stroke="#104467" stroke-miterlimit="10"/>
<path d="M67.6343 20.5779L67.6506 20.1121C67.5756 19.2113 67.7388 18.3067 68.124 17.489C68.5091 16.6713 69.1025 15.9694 69.8447 15.4535L80.4731 8.04884C81.596 7.26692 82.9835 6.96287 84.3305 7.20353C85.6775 7.44419 86.8739 8.20987 87.6565 9.33226C88.4385 10.4552 88.7425 11.8426 88.5019 13.1896C88.2612 14.5367 87.4955 15.733 86.3731 16.5157L75.7424 23.9204C74.9875 24.4463 74.1056 24.7608 73.1882 24.8313C72.2708 24.9017 71.3513 24.7255 70.5249 24.321L70.1592 24.1556" stroke="#104467" stroke-miterlimit="10"/>
<path d="M51.9062 47.2549L58.6192 42.5964C60.5978 41.2177 62.0829 39.2417 62.8571 36.9577C63.6313 34.6738 63.6538 32.202 62.9213 29.9043C62.8475 29.6802 62.762 29.4602 62.6651 29.2451" stroke="#104467" stroke-miterlimit="10"/>
<path d="M60.1229 25.3241C58.2477 23.4664 55.7808 22.3244 53.151 22.0968C50.5212 21.8691 47.8947 22.5701 45.7281 24.078L34.2985 32.0394C32.1759 33.5187 30.6259 35.6822 29.9081 38.1679C29.1902 40.6535 29.348 43.3103 30.3551 45.6934" stroke="#104467" stroke-miterlimit="10"/>
<path d="M45.2188 44.3038L54.8712 37.5792C55.5291 37.122 56.0714 36.5176 56.4547 35.814C56.838 35.1104 57.0519 34.3271 57.0793 33.5263V33.1396" stroke="#104467" stroke-miterlimit="10"/>
<path d="M54.7698 29.1968C53.0671 28.1254 50.7216 27.8948 48.9676 29.1176L38.3439 36.5223C37.4721 37.1294 36.809 37.9907 36.445 38.9888C36.0811 39.9868 36.0341 41.0728 36.3105 42.0986" stroke="#104467" stroke-miterlimit="10"/>
<path d="M72.7619 17.0297L49.1811 33.4212C48.2138 34.0936 47.9748 35.4228 48.6472 36.3901C49.3196 37.3574 50.6488 37.5965 51.6161 36.9241L75.1968 20.5326C76.1641 19.8602 76.4032 18.531 75.7308 17.5637C75.0584 16.5964 73.7292 16.3573 72.7619 17.0297Z" fill="#F39D48" stroke="#0D4568" stroke-miterlimit="10"/>
<path d="M71.4607 47.73C74.9469 47.73 77.773 44.9039 77.773 41.4177C77.773 37.9316 74.9469 35.1055 71.4607 35.1055C67.9745 35.1055 65.1484 37.9316 65.1484 41.4177C65.1484 44.9039 67.9745 47.73 71.4607 47.73Z" fill="white" stroke="#104467" stroke-width="0.607407" stroke-miterlimit="10"/>
<path d="M72.9198 39.99V40.116H73.9638V40.854H72.8658C72.7998 41.256 72.6738 41.577 72.4878 41.817C72.3078 42.051 72.0498 42.222 71.7138 42.33C71.3778 42.432 70.9428 42.483 70.4088 42.483V43.05C70.4088 43.38 70.4778 43.641 70.6158 43.833C70.7598 44.025 70.9998 44.121 71.3358 44.121C71.9478 44.121 72.2538 43.776 72.2538 43.086H73.1988C73.1928 43.692 73.0278 44.151 72.7038 44.463C72.3858 44.769 71.9238 44.922 71.3178 44.922C70.7118 44.922 70.2468 44.754 69.9228 44.418C69.6048 44.082 69.4458 43.611 69.4458 43.005V41.772C70.1118 41.772 70.6008 41.754 70.9128 41.718C71.2248 41.676 71.4558 41.592 71.6058 41.466C71.7618 41.34 71.8638 41.136 71.9118 40.854H69.0678V40.116H71.9568V39.99V39.315H69.0678V38.568H73.9638V39.315H72.9198V39.99Z" fill="#104467"/>
</svg>
