<svg width="79" height="81" viewBox="0 0 79 81" fill="none" xmlns="http://www.w3.org/2000/svg">
<path d="M77.2124 77.8838H1.78761C1.35262 77.8838 1 78.2742 1 78.7557V79.2437C1 79.7253 1.35262 80.1157 1.78761 80.1157H77.2124C77.6474 80.1157 78 79.7253 78 79.2437V78.7557C78 78.2742 77.6474 77.8838 77.2124 77.8838Z" fill="#104467"/>
<path d="M21.3795 23.464V78.3874H8.8639V23.464H2.17499C2.02929 23.4639 1.88694 23.4203 1.76626 23.3387C1.64558 23.257 1.55209 23.1412 1.49782 23.0059C1.44356 22.8707 1.43101 22.7224 1.46178 22.58C1.49255 22.4375 1.56523 22.3076 1.67048 22.2068L14.887 9.59408C14.9566 9.52779 15.0385 9.47589 15.1282 9.44136C15.2179 9.40682 15.3135 9.39033 15.4095 9.39282C15.5056 9.39532 15.6002 9.41676 15.6879 9.45591C15.7757 9.49505 15.8548 9.55114 15.9208 9.62095L27.6941 22.1159C27.791 22.2187 27.856 22.3474 27.8811 22.4865C27.9063 22.6255 27.8905 22.7689 27.8358 22.8991C27.7811 23.0294 27.6897 23.1409 27.5728 23.2203C27.4559 23.2996 27.3185 23.3434 27.1772 23.3461L21.3795 23.464Z" stroke="#104467" stroke-miterlimit="10"/>
<path d="M71.3365 23.4631V78.3866H58.8189V23.4631H52.13C51.9844 23.4627 51.8424 23.4187 51.722 23.337C51.6016 23.2552 51.5085 23.1393 51.4545 23.0041C51.4005 22.869 51.3881 22.7208 51.4189 22.5786C51.4498 22.4364 51.5224 22.3066 51.6275 22.206L64.842 9.59323C64.9827 9.45986 65.1706 9.38779 65.3645 9.39283C65.5583 9.39787 65.7422 9.4796 65.8758 9.6201L77.647 22.115C77.7438 22.2177 77.8088 22.3463 77.834 22.4851C77.8592 22.624 77.8436 22.7672 77.7891 22.8973C77.7347 23.0275 77.6436 23.1391 77.527 23.2186C77.4104 23.2981 77.2733 23.3421 77.1322 23.3453L71.3365 23.4631Z" stroke="#104467" stroke-miterlimit="10"/>
<path d="M34.3358 78.385H34.1291V14.9552H27.4464C27.3008 14.9547 27.1588 14.9108 27.0384 14.829C26.9181 14.7472 26.8249 14.6313 26.7709 14.4962C26.7169 14.3611 26.7045 14.2129 26.7353 14.0707C26.7662 13.9284 26.8388 13.7987 26.9439 13.6981L40.1584 1.08529C40.2279 1.019 40.3099 0.967102 40.3996 0.932566C40.4892 0.89803 40.5848 0.881538 40.6809 0.884036C40.7769 0.886533 40.8716 0.907968 40.9593 0.947117C41.047 0.986265 41.1262 1.04236 41.1922 1.11217L52.9655 13.6071C53.0623 13.7098 53.1272 13.8383 53.1525 13.9772C53.1777 14.116 53.1621 14.2592 53.1076 14.3894C53.0531 14.5196 52.9621 14.6312 52.8455 14.7107C52.7289 14.7902 52.5918 14.8342 52.4507 14.8373L46.6612 14.9614V78.7655" stroke="#104467" stroke-miterlimit="10"/>
<path d="M40.5439 67.5908C51.7692 67.5908 60.8691 58.4909 60.8691 47.2656C60.8691 36.0403 51.7692 26.9404 40.5439 26.9404C29.3186 26.9404 20.2188 36.0403 20.2188 47.2656C20.2188 58.4909 29.3186 67.5908 40.5439 67.5908Z" fill="white" stroke="#104467" stroke-miterlimit="10"/>
<path d="M44.4112 43.088V43.424H47.1952V45.392H44.2672C44.0912 46.464 43.7552 47.32 43.2592 47.96C42.7792 48.584 42.0912 49.04 41.1952 49.328C40.2992 49.6 39.1392 49.736 37.7152 49.736V51.248C37.7152 52.128 37.8992 52.824 38.2672 53.336C38.6512 53.848 39.2912 54.104 40.1872 54.104C41.8192 54.104 42.6352 53.184 42.6352 51.344H45.1552C45.1392 52.96 44.6992 54.184 43.8352 55.016C42.9872 55.832 41.7552 56.24 40.1392 56.24C38.5232 56.24 37.2832 55.792 36.4192 54.896C35.5712 54 35.1472 52.744 35.1472 51.128V47.84C36.9232 47.84 38.2272 47.792 39.0592 47.696C39.8912 47.584 40.5072 47.36 40.9072 47.024C41.3232 46.688 41.5952 46.144 41.7232 45.392H34.1392V43.424H41.8432V43.088V41.288H34.1392V39.296H47.1952V41.288H44.4112V43.088Z" fill="#F39D48"/>
<path d="M44.4112 43.424H44.1135V43.7217H44.4112V43.424ZM47.1952 43.424H47.4929V43.1263H47.1952V43.424ZM47.1952 45.392V45.6897H47.4929V45.392H47.1952ZM44.2672 45.392V45.0943H44.0143L43.9734 45.3438L44.2672 45.392ZM43.2592 47.96L43.0238 47.7776L43.0232 47.7785L43.2592 47.96ZM41.1952 49.328L41.2816 49.6129L41.2863 49.6114L41.1952 49.328ZM37.7152 49.736V49.4383H37.4175V49.736H37.7152ZM38.2672 53.336L38.0254 53.5098L38.029 53.5146L38.2672 53.336ZM42.6352 51.344V51.0463H42.3375V51.344H42.6352ZM45.1552 51.344L45.4528 51.3469L45.4558 51.0463H45.1552V51.344ZM43.8352 55.016L44.0416 55.2305L44.0417 55.2304L43.8352 55.016ZM36.4192 54.896L36.2029 55.1006L36.2049 55.1026L36.4192 54.896ZM35.1472 47.84V47.5423H34.8495V47.84H35.1472ZM39.0592 47.696L39.0933 47.9918L39.0989 47.991L39.0592 47.696ZM40.9072 47.024L40.7201 46.7924L40.7157 46.7961L40.9072 47.024ZM41.7232 45.392L42.0166 45.442L42.0758 45.0943H41.7232V45.392ZM34.1392 45.392H33.8415V45.6897H34.1392V45.392ZM34.1392 43.424V43.1263H33.8415V43.424H34.1392ZM41.8432 43.424V43.7217H42.1409V43.424H41.8432ZM41.8432 41.288H42.1409V40.9903H41.8432V41.288ZM34.1392 41.288H33.8415V41.5857H34.1392V41.288ZM34.1392 39.296V38.9983H33.8415V39.296H34.1392ZM47.1952 39.296H47.4929V38.9983H47.1952V39.296ZM47.1952 41.288V41.5857H47.4929V41.288H47.1952ZM44.4112 41.288V40.9903H44.1135V41.288H44.4112ZM44.1135 43.088V43.424H44.7089V43.088H44.1135ZM44.4112 43.7217H47.1952V43.1263H44.4112V43.7217ZM46.8975 43.424V45.392H47.4929V43.424H46.8975ZM47.1952 45.0943H44.2672V45.6897H47.1952V45.0943ZM43.9734 45.3438C43.8028 46.3829 43.4809 47.1879 43.0239 47.7776L43.4945 48.1424C44.0294 47.4521 44.3795 46.5451 44.5609 45.4402L43.9734 45.3438ZM43.0232 47.7785C42.5867 48.3459 41.954 48.7714 41.1041 49.0446L41.2863 49.6114C42.2283 49.3086 42.9716 48.8221 43.4951 48.1415L43.0232 47.7785ZM41.1087 49.0431C40.2513 49.3034 39.1234 49.4383 37.7152 49.4383V50.0337C39.1549 50.0337 40.347 49.8966 41.2816 49.6129L41.1087 49.0431ZM37.4175 49.736V51.248H38.0129V49.736H37.4175ZM37.4175 51.248C37.4175 52.1664 37.6092 52.9306 38.0254 53.5097L38.5089 53.1623C38.1891 52.7174 38.0129 52.0896 38.0129 51.248H37.4175ZM38.029 53.5146C38.4895 54.1286 39.2374 54.4017 40.1872 54.4017V53.8063C39.3449 53.8063 38.8128 53.5674 38.5053 53.1574L38.029 53.5146ZM40.1872 54.4017C41.0589 54.4017 41.7644 54.1543 42.2459 53.6115C42.7213 53.0755 42.9329 52.3017 42.9329 51.344H42.3375C42.3375 52.2263 42.141 52.8325 41.8004 53.2165C41.4659 53.5937 40.9474 53.8063 40.1872 53.8063V54.4017ZM42.6352 51.6417H45.1552V51.0463H42.6352V51.6417ZM44.8575 51.3411C44.842 52.9058 44.4173 54.0421 43.6287 54.8016L44.0417 55.2304C44.981 54.3259 45.4363 53.0142 45.4528 51.3469L44.8575 51.3411ZM43.6287 54.8015C42.8542 55.5468 41.7074 55.9423 40.1392 55.9423V56.5377C41.8029 56.5377 43.1201 56.1172 44.0416 55.2305L43.6287 54.8015ZM40.1392 55.9423C38.5787 55.9423 37.4259 55.5112 36.6335 54.6894L36.2049 55.1026C37.1404 56.0728 38.4676 56.5377 40.1392 56.5377V55.9423ZM36.6354 54.6914C35.8543 53.8661 35.4449 52.6922 35.4449 51.128H34.8495C34.8495 52.7958 35.288 54.1339 36.2029 55.1006L36.6354 54.6914ZM35.4449 51.128V47.84H34.8495V51.128H35.4449ZM35.1472 48.1377C36.9249 48.1377 38.2433 48.0898 39.0933 47.9917L39.025 47.4003C38.2111 47.4942 36.9214 47.5423 35.1472 47.5423V48.1377ZM39.0989 47.991C39.956 47.8757 40.6366 47.6401 41.0986 47.2519L40.7157 46.7961C40.3777 47.0799 39.8263 47.2923 39.0194 47.401L39.0989 47.991ZM41.0942 47.2556C41.5866 46.8579 41.8816 46.2353 42.0166 45.442L41.4297 45.342C41.3087 46.0527 41.0597 46.5181 40.7201 46.7924L41.0942 47.2556ZM41.7232 45.0943H34.1392V45.6897H41.7232V45.0943ZM34.4369 45.392V43.424H33.8415V45.392H34.4369ZM34.1392 43.7217H41.8432V43.1263H34.1392V43.7217ZM42.1409 43.424V43.088H41.5455V43.424H42.1409ZM42.1409 43.088V41.288H41.5455V43.088H42.1409ZM41.8432 40.9903H34.1392V41.5857H41.8432V40.9903ZM34.4369 41.288V39.296H33.8415V41.288H34.4369ZM34.1392 39.5937H47.1952V38.9983H34.1392V39.5937ZM46.8975 39.296V41.288H47.4929V39.296H46.8975ZM47.1952 40.9903H44.4112V41.5857H47.1952V40.9903ZM44.1135 41.288V43.088H44.7089V41.288H44.1135Z" fill="#104467"/>
</svg>
