<svg width="108" height="70" viewBox="0 0 108 70" fill="none" xmlns="http://www.w3.org/2000/svg">
<path d="M101.251 66.5586H21.3059C20.63 66.5586 20.082 67.1065 20.082 67.7825V68.4675C20.082 69.1434 20.63 69.6913 21.3059 69.6913H101.251C101.927 69.6913 102.475 69.1434 102.475 68.4675V67.7825C102.475 67.1065 101.927 66.5586 101.251 66.5586Z" fill="#104467"/>
<path d="M69.3716 64.6055V59.6689C69.3719 58.6324 69.168 57.606 68.7715 56.6484C68.3751 55.6907 67.7939 54.8205 67.0611 54.0875C66.3283 53.3545 65.4582 52.773 64.5007 52.3763C63.5431 51.9796 62.5168 51.7754 61.4803 51.7754C60.4438 51.7754 59.4175 51.9796 58.4599 52.3763C57.5024 52.773 56.6323 53.3545 55.8995 54.0875C55.1667 54.8205 54.5855 55.6907 54.1891 56.6484C53.7926 57.606 53.5887 58.6324 53.589 59.6689V64.8133L53.5 65.2038C53.5 65.2038 57.61 67.2793 61.7201 67.0304C61.7201 67.0304 66.9444 66.7701 69.2551 64.996L69.3716 64.6055Z" fill="#F39D48" stroke="#0D4568" stroke-miterlimit="10"/>
<path d="M61.1749 67.0451C70.5395 67.0451 78.131 59.4536 78.131 50.089C78.131 40.7243 70.5395 33.1328 61.1749 33.1328C51.8103 33.1328 44.2188 40.7243 44.2188 50.089C44.2188 59.4536 51.8103 67.0451 61.1749 67.0451Z" stroke="#104467" stroke-miterlimit="10"/>
<path d="M99.091 37.4807C103.667 37.4807 107.377 33.7709 107.377 29.1945C107.377 24.6181 103.667 20.9082 99.091 20.9082C94.5146 20.9082 90.8047 24.6181 90.8047 29.1945C90.8047 33.7709 94.5146 37.4807 99.091 37.4807Z" stroke="#104467" stroke-miterlimit="10"/>
<path d="M40.0679 35.005C47.1967 35.005 52.9757 29.226 52.9757 22.0972C52.9757 14.9685 47.1967 9.18945 40.0679 9.18945C32.9392 9.18945 27.1602 14.9685 27.1602 22.0972C27.1602 29.226 32.9392 35.005 40.0679 35.005Z" stroke="#104467" stroke-miterlimit="10"/>
<path d="M6.71246 14.9113C10.0896 14.9113 12.8273 12.1736 12.8273 8.79646C12.8273 5.41934 10.0896 2.68164 6.71246 2.68164C3.33535 2.68164 0.597656 5.41934 0.597656 8.79646C0.597656 12.1736 3.33535 14.9113 6.71246 14.9113Z" stroke="#104467" stroke-miterlimit="10"/>
<path d="M61.8548 49.8572C64.918 49.8572 67.4011 47.374 67.4011 44.3109C67.4011 41.2478 64.918 38.7646 61.8548 38.7646C58.7917 38.7646 56.3086 41.2478 56.3086 44.3109C56.3086 47.374 58.7917 49.8572 61.8548 49.8572Z" stroke="#104467" stroke-miterlimit="10"/>
<path d="M45.7127 33.2779V29.7707C45.7127 28.284 45.1221 26.8581 44.0708 25.8069C43.0196 24.7556 41.5938 24.165 40.1071 24.165C38.6201 24.165 37.1941 24.7556 36.1425 25.8067C35.0909 26.8579 34.4998 28.2837 34.4992 29.7707V33.424L34.4375 33.7026C34.4375 33.7026 37.3579 35.1753 40.276 34.9972C40.276 34.9972 43.9888 34.8123 45.6282 33.5519L45.7127 33.2779Z" stroke="#104467" stroke-miterlimit="10"/>
<path d="M40.359 22.7962C42.5356 22.7962 44.3001 21.0317 44.3001 18.8551C44.3001 16.6785 42.5356 14.9141 40.359 14.9141C38.1824 14.9141 36.418 16.6785 36.418 18.8551C36.418 21.0317 38.1824 22.7962 40.359 22.7962Z" stroke="#104467" stroke-miterlimit="10"/>
<path d="M77.1133 44.3093L92.2313 33.8516" stroke="#104467" stroke-miterlimit="10"/>
<path d="M12.1875 11.5244L27.8056 18.0297" stroke="#104467" stroke-miterlimit="10"/>
<path d="M19.178 52.5903C21.5135 52.5903 23.4067 50.6971 23.4067 48.3616C23.4067 46.0261 21.5135 44.1328 19.178 44.1328C16.8425 44.1328 14.9492 46.0261 14.9492 48.3616C14.9492 50.6971 16.8425 52.5903 19.178 52.5903Z" fill="white" stroke="#104467" stroke-miterlimit="10"/>
<path d="M71.6292 14.9147C75.4717 14.9147 78.5866 11.7998 78.5866 7.95737C78.5866 4.11492 75.4717 1 71.6292 1C67.7868 1 64.6719 4.11492 64.6719 7.95737C64.6719 11.7998 67.7868 14.9147 71.6292 14.9147Z" fill="white" stroke="#104467" stroke-miterlimit="10"/>
</svg>
