<svg width="89" height="71" viewBox="0 0 89 71" fill="none" xmlns="http://www.w3.org/2000/svg">
<path d="M88.0897 67.5332H0.91035C0.407579 67.5332 0 68.0579 0 68.7052V69.3612C0 70.0085 0.407579 70.5332 0.91035 70.5332H88.0897C88.5924 70.5332 89 70.0085 89 69.3612V68.7052C89 68.0579 88.5924 67.5332 88.0897 67.5332Z" fill="#104467"/>
<path d="M16.7212 0.500977H72.2318C74.1905 0.500977 76.069 1.27907 77.454 2.66408C78.839 4.04909 79.6171 5.92757 79.6171 7.88627V67.9406H9.33594V7.88627C9.33594 5.92757 10.114 4.04909 11.499 2.66408C12.8841 1.27907 14.7625 0.500977 16.7212 0.500977Z" stroke="#104467" stroke-miterlimit="10"/>
<path d="M9.33594 12.5137H79.6171" stroke="#104467" stroke-miterlimit="10"/>
<path d="M55.6661 8.63192C56.5625 8.63192 57.2891 7.90524 57.2891 7.00883C57.2891 6.11243 56.5625 5.38574 55.6661 5.38574C54.7696 5.38574 54.043 6.11243 54.043 7.00883C54.043 7.90524 54.7696 8.63192 55.6661 8.63192Z" stroke="#104467" stroke-miterlimit="10"/>
<path d="M62.0684 8.63192C62.9648 8.63192 63.6915 7.90524 63.6915 7.00883C63.6915 6.11243 62.9648 5.38574 62.0684 5.38574C61.172 5.38574 60.4453 6.11243 60.4453 7.00883C60.4453 7.90524 61.172 8.63192 62.0684 8.63192Z" stroke="#104467" stroke-miterlimit="10"/>
<path d="M68.752 8.63192C69.6484 8.63192 70.3751 7.90524 70.3751 7.00883C70.3751 6.11243 69.6484 5.38574 68.752 5.38574C67.8556 5.38574 67.1289 6.11243 67.1289 7.00883C67.1289 7.90524 67.8556 8.63192 68.752 8.63192Z" stroke="#104467" stroke-miterlimit="10"/>
<path d="M60.2041 35.7891H66.35C66.8434 35.7891 67.3165 35.9851 67.6654 36.3339C68.0143 36.6828 68.2103 37.156 68.2103 37.6493V68.9392H58.3555V37.64C58.3579 37.1503 58.5534 36.6812 58.8995 36.3347C59.2456 35.9882 59.7144 35.7921 60.2041 35.7891Z" stroke="#104467" stroke-miterlimit="10"/>
<path d="M41.3487 42.7207H47.5085C48.0019 42.7207 48.475 42.9167 48.8239 43.2656C49.1728 43.6144 49.3688 44.0876 49.3688 44.581V68.9413H39.5V44.5694C39.503 44.08 39.6988 43.6116 40.0448 43.2655C40.3909 42.9195 40.8593 42.7238 41.3487 42.7207Z" stroke="#104467" stroke-miterlimit="10"/>
<path d="M22.6073 49.4023H28.7625C29.2559 49.4023 29.729 49.5983 30.0779 49.9472C30.4268 50.2961 30.6228 50.7692 30.6228 51.2626V68.9515H20.7656V51.251C20.7687 50.7628 20.9634 50.2954 21.308 49.9496C21.6525 49.6038 22.1192 49.4072 22.6073 49.4023Z" stroke="#104467" stroke-miterlimit="10"/>
<path d="M60.6831 26.4097L59.2879 30.6256C59.2604 30.7079 59.2603 30.7969 59.2876 30.8793C59.3148 30.9617 59.368 31.033 59.4391 31.0827C59.5102 31.1324 59.5956 31.1578 59.6823 31.155C59.769 31.1522 59.8525 31.1215 59.9204 31.0674L63.6967 28.0654L66.8546 30.4605C66.9234 30.5129 67.0073 30.5417 67.0939 30.5426C67.1804 30.5436 67.2649 30.5166 67.3349 30.4656C67.4049 30.4147 67.4566 30.3426 67.4823 30.26C67.508 30.1774 67.5064 30.0887 67.4777 30.007L66.1942 26.2865L69.0381 23.9844C69.1032 23.9322 69.1505 23.861 69.1734 23.7807C69.1963 23.7004 69.1936 23.615 69.1657 23.5363C69.1379 23.4575 69.0862 23.3894 69.0179 23.3414C68.9496 23.2934 68.8681 23.2678 68.7846 23.2682H65.2384L63.6944 19.4523C63.6634 19.3757 63.6095 19.3106 63.5402 19.2657C63.4708 19.2208 63.3893 19.1984 63.3068 19.2014C63.2242 19.2045 63.1446 19.2329 63.0788 19.2828C63.0129 19.3326 62.964 19.4016 62.9387 19.4802L61.8086 23.031H57.5602C57.4773 23.0319 57.3967 23.0583 57.3293 23.1065C57.2619 23.1547 57.211 23.2225 57.1833 23.3006C57.1557 23.3787 57.1527 23.4634 57.1748 23.5433C57.1968 23.6232 57.2429 23.6943 57.3067 23.7472L60.4738 26.233L60.6831 26.4097Z" fill="#F39D48" stroke="#0D4568" stroke-miterlimit="10"/>
<path d="M41.561 32.9875L40.1658 37.2033C40.1375 37.2858 40.1367 37.3752 40.1637 37.4581C40.1906 37.5411 40.2438 37.613 40.3151 37.6631C40.3865 37.7132 40.4722 37.7388 40.5593 37.7359C40.6464 37.7331 40.7303 37.7021 40.7983 37.6474L44.5746 34.6454L47.7231 37.0382C47.7918 37.0901 47.8754 37.1186 47.9615 37.1195C48.0477 37.1204 48.1318 37.0936 48.2016 37.0431C48.2714 36.9926 48.3231 36.9211 48.3491 36.839C48.3752 36.7569 48.3742 36.6686 48.3463 36.5871L47.0627 32.8665L49.9066 30.5645C49.9709 30.512 50.0173 30.441 50.0396 30.3611C50.062 30.2812 50.059 30.1964 50.0313 30.1183C50.0035 30.0401 49.9523 29.9724 49.8846 29.9245C49.8169 29.8766 49.7361 29.8508 49.6532 29.8506H46.114L44.57 26.0324C44.5389 25.9558 44.4851 25.8907 44.4157 25.8458C44.3464 25.8009 44.2649 25.7785 44.1823 25.7815C44.0998 25.7846 44.0202 25.813 43.9543 25.8628C43.8885 25.9127 43.8395 25.9816 43.8142 26.0603L42.6841 29.6134H38.4404C38.3574 29.6136 38.2766 29.6394 38.2089 29.6873C38.1412 29.7353 38.09 29.8029 38.0622 29.8811C38.0345 29.9592 38.0316 30.044 38.0539 30.1239C38.0762 30.2038 38.1227 30.2748 38.1869 30.3273L41.354 32.8154L41.561 32.9875Z" fill="white" stroke="#104467" stroke-miterlimit="10"/>
<path d="M22.9344 40.0392L21.5276 44.248C21.5001 44.3303 21.5 44.4193 21.5272 44.5017C21.5545 44.5841 21.6076 44.6555 21.6788 44.7052C21.7499 44.7549 21.8352 44.7802 21.922 44.7775C22.0087 44.7747 22.0922 44.744 22.1601 44.6898L25.9364 41.6902L29.0966 44.0853C29.1661 44.1403 29.2519 44.1709 29.3406 44.1722C29.4293 44.1735 29.5159 44.1454 29.587 44.0923C29.6581 44.0393 29.7096 43.9642 29.7336 43.8788C29.7577 43.7935 29.7528 43.7025 29.7197 43.6202L28.4362 39.8996L31.2801 37.5976C31.3452 37.5453 31.3925 37.4741 31.4154 37.3938C31.4383 37.3135 31.4356 37.2281 31.4077 37.1494C31.3799 37.0707 31.3282 37.0026 31.2599 36.9546C31.1916 36.9065 31.1101 36.8809 31.0266 36.8813H27.4897L25.9457 33.0864C25.9151 33.009 25.8613 32.943 25.7916 32.8975C25.722 32.852 25.64 32.8292 25.5568 32.8323C25.4737 32.8354 25.3935 32.8641 25.3274 32.9146C25.2613 32.9651 25.2125 33.0349 25.1877 33.1143L24.0575 36.6674H19.8115C19.7285 36.6676 19.6477 36.6934 19.58 36.7414C19.5123 36.7893 19.4611 36.8569 19.4333 36.9351C19.4056 37.0132 19.4027 37.0981 19.425 37.1779C19.4473 37.2578 19.4938 37.3288 19.558 37.3813L22.7228 39.8694L22.9344 40.0392Z" fill="white" stroke="#104467" stroke-miterlimit="10"/>
<path d="M9.33033 35.7896C13.4823 35.7896 16.8482 32.4237 16.8482 28.2717C16.8482 24.1198 13.4823 20.7539 9.33033 20.7539C5.17835 20.7539 1.8125 24.1198 1.8125 28.2717C1.8125 32.4237 5.17835 35.7896 9.33033 35.7896Z" fill="#F2FDFA" stroke="#104467" stroke-miterlimit="10"/>
<path d="M12.6341 34.7796V32.7379C12.6341 31.8745 12.2911 31.0464 11.6806 30.4359C11.0701 29.8254 10.242 29.4824 9.37862 29.4824C8.51522 29.4824 7.68717 29.8254 7.07665 30.4359C6.46613 31.0464 6.12314 31.8745 6.12314 32.7379V34.8679L6.08594 35.0284C6.08594 35.0284 7.75088 35.8771 9.45768 35.7841C9.45768 35.7841 11.6179 35.6748 12.5736 34.9423L12.6341 34.7796Z" stroke="#104467" stroke-miterlimit="10"/>
<path d="M9.50214 27.6527C10.7697 27.6527 11.7973 26.6252 11.7973 25.3576C11.7973 24.0901 10.7697 23.0625 9.50214 23.0625C8.23459 23.0625 7.20703 24.0901 7.20703 25.3576C7.20703 26.6252 8.23459 27.6527 9.50214 27.6527Z" stroke="#104467" stroke-miterlimit="10"/>
</svg>
