<svg width="570" height="365" viewBox="0 0 570 365" fill="none" xmlns="http://www.w3.org/2000/svg">
<mask id="mask0_115_137" style="mask-type:alpha" maskUnits="userSpaceOnUse" x="0" y="0" width="570" height="365">
<rect width="570" height="365" fill="#D9D9D9"/>
</mask>
<g mask="url(#mask0_115_137)">
<path d="M516.238 233.285C504.253 259.862 486.563 283.474 464.425 302.443C442.286 321.413 416.242 335.275 388.143 343.045C360.043 350.815 330.578 352.303 301.838 347.402C273.099 342.501 245.792 331.332 221.855 314.689C197.919 298.045 177.941 276.335 163.34 251.101C148.74 225.866 139.875 197.726 137.375 168.68C134.875 139.633 138.802 110.392 148.876 83.034C158.951 55.6759 174.925 30.8717 195.666 10.3831L271.417 87.0658C261.934 96.4329 254.631 107.773 250.025 120.281C245.419 132.789 243.624 146.157 244.767 159.437C245.91 172.717 249.963 185.582 256.638 197.119C263.313 208.656 272.447 218.582 283.39 226.191C294.334 233.8 306.818 238.906 319.958 241.147C333.097 243.387 346.568 242.707 359.415 239.155C372.262 235.603 384.169 229.265 394.29 220.592C404.412 211.92 412.499 201.125 417.979 188.974L516.238 233.285Z" fill="#F7E3CB"/>
<path d="M165.199 194.638C165.199 177.187 177.856 162.304 195.244 159.21C175.431 155.708 156.446 168.665 152.838 188.276C149.231 207.887 162.419 226.564 182.292 230.124C186.55 230.883 190.986 230.883 195.244 230.124C177.856 227.031 165.199 212.089 165.199 194.638Z" fill="black" stroke="black" stroke-width="2" stroke-miterlimit="10" stroke-linecap="round"/>
<path d="M194.663 229.531C211.03 229.531 224.298 213.661 224.298 194.085C224.298 174.509 211.03 158.639 194.663 158.639C178.296 158.639 165.028 174.509 165.028 194.085C165.028 213.661 178.296 229.531 194.663 229.531Z" fill="#FCB332" stroke="black" stroke-width="2" stroke-miterlimit="10" stroke-linecap="round"/>
<path d="M374.218 210.936L374.276 124.936H459.056V202.061" fill="black"/>
<path d="M374.218 210.936L374.276 124.936H459.056V202.061" stroke="black" stroke-width="2" stroke-miterlimit="10"/>
<path d="M418.556 206.835V124.92H504.111V197.851" fill="#FC9797"/>
<path d="M418.556 206.835V124.92H504.111V197.851" stroke="black" stroke-width="2" stroke-miterlimit="10" stroke-linecap="round"/>
<path d="M118.438 99.2076L168.938 133.265C171.874 135.262 175.925 134.498 177.922 131.562C179.801 128.803 179.331 125.103 176.806 122.931L131.944 84.1753L118.438 99.2076Z" fill="#FC9797" stroke="black" stroke-width="2" stroke-miterlimit="10" stroke-linecap="round"/>
<path d="M133.881 93.4526L148.738 102.143L155.901 106.312L186.436 124.163C189.489 125.983 193.423 124.926 195.303 121.873C197.005 118.996 196.301 115.355 193.658 113.359L146.389 77.5394L133.881 93.4526Z" fill="#FC9797"/>
<path d="M150.849 103.254L155.814 106.139L186.55 124.04C189.623 125.865 193.584 124.805 195.475 121.743C197.189 118.858 196.48 115.207 193.82 113.205L146.239 77.2871L133.649 93.2442" stroke="black" stroke-width="2" stroke-miterlimit="10" stroke-linecap="round"/>
<path d="M145.271 83.4612L199.654 111.42C202.839 113.072 206.732 111.833 208.443 108.648C209.976 105.699 209.092 102.042 206.319 100.213L156.95 66.8273L145.271 83.4612Z" fill="#FC9797"/>
<path d="M160.017 91.0703L199.654 111.42C202.839 113.072 206.732 111.833 208.443 108.648C209.976 105.699 209.092 102.042 206.319 100.213L156.95 66.8273L145.271 83.4612" stroke="black" stroke-width="2" stroke-miterlimit="10" stroke-linecap="round"/>
<path d="M153.406 75.5343L200.363 93.1446C203.684 94.3856 207.354 92.7309 208.694 89.4807C209.976 86.3487 208.694 82.7439 205.781 81.1483L165.291 58.6923L153.406 75.5343Z" fill="#FC9797"/>
<path d="M137.969 112.694L168.514 60.8447L159.762 55.3526C143.021 44.9 123.695 39.2308 103.958 39.0537L92.9734 38.9355L96.3216 102.124C107.717 110.805 122.05 114.702 136.265 112.872L137.969 112.694Z" fill="#FC9797"/>
<path d="M162.772 79.3023L200.294 93.1602C203.641 94.3933 207.341 92.7492 208.691 89.5196C209.983 86.4074 208.691 82.8255 205.755 81.24L159.543 55.7556C159.543 55.7556 123.9 35.7908 93.4239 39.6076L0.587585 18.7032L8.92583 87.3469L96.771 102.379C108.163 111.011 122.49 114.887 136.701 113.066L138.462 112.831L153.729 87.5231" fill="#FC9797"/>
<path d="M162.772 79.3023L200.294 93.1602C203.641 94.3933 207.341 92.7492 208.691 89.5196C209.983 86.4074 208.691 82.8255 205.755 81.24L159.543 55.7556C159.543 55.7556 123.9 35.7908 93.4239 39.6076L0.587585 18.7032L8.92583 87.3469L96.771 102.379C108.163 111.011 122.49 114.887 136.701 113.066L138.462 112.831L153.729 87.5231" stroke="black" stroke-width="2" stroke-miterlimit="10" stroke-linecap="round"/>
<path d="M0.411621 18.7622L57.4288 31.4457L62.3025 128.392L0.411621 120.172" fill="white"/>
<path d="M0.411621 18.7622L57.4288 31.4457L62.3025 128.392L0.411621 120.172" stroke="black" stroke-width="2" stroke-miterlimit="10" stroke-linecap="round"/>
<path d="M64.4752 128.744C57.605 128.392 52.3202 122.461 52.7312 115.591L53.7882 96.9178L78.5681 100.089L77.6285 117.059C77.2175 123.87 71.3455 129.096 64.4752 128.744Z" fill="black" stroke="black" stroke-width="2" stroke-miterlimit="10" stroke-linecap="round"/>
<path d="M78.5676 100.09L53.7878 96.9187L57.4871 31.5046L82.1495 37.0243" fill="#FC9797"/>
<path d="M78.5676 100.09L53.7878 96.9187L57.4871 31.5046L82.1495 37.0243" stroke="black" stroke-width="2" stroke-miterlimit="10" stroke-linecap="round"/>
<path d="M206.308 132.009L167.326 75.2208C166.558 74.113 165.141 73.5882 163.782 73.8798L137.145 80.2932C136.082 80.5264 135.255 81.2843 134.841 82.2755L107.141 154.222C106.491 155.913 107.318 157.779 109.031 158.42C109.621 158.653 110.33 158.712 110.98 158.537L204.299 136.964C206.071 136.556 207.194 134.807 206.78 133.058C206.721 132.708 206.544 132.358 206.308 132.009Z" fill="black" stroke="black" stroke-width="2" stroke-miterlimit="10"/>
<path d="M221.003 127.731L169.379 75.9361C168.081 74.6383 166.016 74.6383 164.718 75.9361C164.364 76.2901 164.069 76.703 163.951 77.1749L139.643 146.136C139.053 147.847 139.938 149.734 141.649 150.324C142.239 150.501 142.888 150.56 143.478 150.442L219.41 133.276C221.18 132.863 222.301 131.093 221.888 129.323C221.77 128.733 221.416 128.144 221.003 127.731Z" fill="#CFEDFF" stroke="black" stroke-width="2" stroke-miterlimit="10"/>
<path d="M138.888 61.0166L175.487 99.4952L172.969 102.363C168.695 107.203 161.433 107.681 156.573 103.498L143.104 91.8473C143.104 91.8473 128.875 102.722 115.055 97.5832" fill="#FC9797"/>
<path d="M138.888 61.0166L175.487 99.4952L172.969 102.363C168.695 107.203 161.433 107.681 156.573 103.498L143.104 91.8473C143.104 91.8473 128.875 102.722 115.055 97.5832" stroke="black" stroke-width="2" stroke-miterlimit="10" stroke-linecap="round"/>
<path d="M97.6221 239.991L557.84 192.342Z" fill="#FC9797"/>
<path d="M97.6221 239.991L557.84 192.342" stroke="black" stroke-width="2" stroke-miterlimit="10" stroke-linecap="round"/>
<path d="M320.177 239.991C333.335 239.991 344.002 229.324 344.002 216.166C344.002 203.008 333.335 192.342 320.177 192.342C307.019 192.342 296.353 203.008 296.353 216.166C296.353 229.324 307.019 239.991 320.177 239.991Z" fill="white" stroke="black" stroke-width="2" stroke-miterlimit="10"/>
<path d="M320.177 224.882C324.991 224.882 328.893 220.98 328.893 216.166C328.893 211.352 324.991 207.449 320.177 207.449C315.363 207.449 311.461 211.352 311.461 216.166C311.461 220.98 315.363 224.882 320.177 224.882Z" fill="black" stroke="black" stroke-width="2" stroke-miterlimit="10"/>
<path d="M488.771 99.3648C488.771 88.4509 496.099 78.8348 506.705 75.8851C493.597 72.2274 479.952 79.7787 476.258 92.6985C472.564 105.677 480.191 119.187 493.239 122.845C497.649 124.084 502.296 124.084 506.646 122.845C496.099 119.895 488.771 110.279 488.771 99.3648Z" fill="black" stroke="black" stroke-width="2" stroke-miterlimit="10" stroke-linecap="round"/>
<path d="M0 61.0166L55.784 71.4761" stroke="black" stroke-width="2" stroke-miterlimit="10" stroke-linecap="round"/>
<path d="M0 104.017L52.2975 112.152" stroke="black" stroke-width="2" stroke-miterlimit="10" stroke-linecap="round"/>
<path d="M0 91.2328L54.6219 99.368" stroke="black" stroke-width="2" stroke-miterlimit="10" stroke-linecap="round"/>
<path d="M0 76.1252L54.6219 84.2604" stroke="black" stroke-width="2" stroke-miterlimit="10" stroke-linecap="round"/>
</g>
</svg>
