<svg width="19" height="17" viewBox="0 0 19 17" fill="none" xmlns="http://www.w3.org/2000/svg">
<path d="M18.2221 8.43925C18.2221 8.24961 18.1027 7.9976 17.9814 7.87517L11.1489 0.903621C10.8299 0.586968 10.3131 0.550354 9.94131 0.871584C9.60887 1.15906 9.60053 1.71942 9.90794 2.03152L15.3925 7.61891H1.46094C0.989098 7.61891 0.606934 7.98619 0.606934 8.43899C0.606934 8.89209 0.989411 9.25907 1.46094 9.25907H15.3925L9.90794 14.8465C9.60054 15.1585 9.62228 15.7052 9.94131 16.0061C10.2779 16.3239 10.835 16.2956 11.1489 15.9741L17.9814 9.00281C18.1822 8.81374 18.2188 8.63176 18.2221 8.43925Z" fill="#222352"/>
</svg>
