<svg width="550" height="361" viewBox="0 0 550 361" fill="none" xmlns="http://www.w3.org/2000/svg">
<path d="M28.465 12.1348H409.917C425.092 12.1348 437.382 24.4228 437.382 39.5954V283.511C437.382 298.683 425.092 310.971 409.917 310.971H28.465C13.29 310.914 1 298.626 1 283.511V39.5954C1 24.4228 13.29 12.1348 28.465 12.1348Z" fill="white" stroke="black" stroke-width="1.48" stroke-miterlimit="10"/>
<path d="M1 44.9024V21.8839C1 10.3459 10.3473 1 21.8872 1H416.437C427.977 1 437.324 10.3459 437.324 21.8839V44.9024H1Z" fill="#A7D7FC" stroke="black" stroke-width="1.48" stroke-miterlimit="10"/>
<path d="M22.4644 26.903C24.95 26.903 26.965 24.8884 26.965 22.4032C26.965 19.918 24.95 17.9033 22.4644 17.9033C19.9788 17.9033 17.9639 19.918 17.9639 22.4032C17.9639 24.8884 19.9788 26.903 22.4644 26.903Z" fill="black" stroke="black" stroke-width="1.48" stroke-miterlimit="10"/>
<path d="M38.274 26.903C40.7596 26.903 42.7746 24.8884 42.7746 22.4032C42.7746 19.918 40.7596 17.9033 38.274 17.9033C35.7884 17.9033 33.7734 19.918 33.7734 22.4032C33.7734 24.8884 35.7884 26.903 38.274 26.903Z" fill="black" stroke="black" stroke-width="1.48" stroke-miterlimit="10"/>
<path d="M54.026 26.903C56.5116 26.903 58.5265 24.8884 58.5265 22.4032C58.5265 19.918 56.5116 17.9033 54.026 17.9033C51.5404 17.9033 49.5254 19.918 49.5254 22.4032C49.5254 24.8884 51.5404 26.903 54.026 26.903Z" fill="black" stroke="black" stroke-width="1.48" stroke-miterlimit="10"/>
<path d="M45.6593 170.033L49.2367 156.476C49.9868 153.534 52.814 151.687 55.8144 152.034L75.8939 154.572C78.2596 154.86 80.5675 153.764 81.8369 151.745C83.9718 148.399 86.3952 145.284 89.1071 142.399C90.7227 140.669 91.1843 138.188 90.3188 135.996L82.7601 117.131C81.6061 114.304 82.7601 111.131 85.4143 109.631L97.6466 102.766C100.301 101.266 103.59 102.016 105.436 104.439L117.668 120.708C119.053 122.554 121.419 123.477 123.727 122.958C127.016 122.265 130.362 121.861 133.767 121.688C136.075 121.573 138.094 120.131 138.96 118.054L146.749 99.1891C147.903 96.42 150.961 94.8623 153.846 95.67L167.405 99.2468C170.348 99.9968 172.194 102.824 171.848 105.824L169.31 125.957C169.021 128.323 170.117 130.63 172.137 131.9C175.483 134.034 178.599 136.457 181.484 139.169C183.215 140.784 185.696 141.245 187.889 140.38L206.757 132.823C209.584 131.669 212.757 132.823 214.257 135.476L221.124 147.707C222.624 150.361 221.874 153.649 219.508 155.495L203.237 167.725C201.39 169.11 200.467 171.475 200.987 173.783C201.679 177.071 202.083 180.417 202.256 183.821C202.371 186.129 203.814 188.148 205.891 189.013L224.759 196.801C227.528 197.955 229.086 201.013 228.278 203.897L224.701 217.455C223.951 220.397 221.124 222.243 218.123 221.897L197.986 219.358C195.621 219.07 193.313 220.224 192.043 222.243C189.908 225.589 187.485 228.704 184.773 231.589C183.157 233.319 182.696 235.8 183.561 237.992L191.062 256.857C192.216 259.684 191.062 262.857 188.408 264.357L176.176 271.222C173.522 272.664 170.233 271.972 168.386 269.549L156.212 253.165C154.827 251.319 152.461 250.396 150.153 250.915C146.864 251.607 143.518 252.011 140.114 252.184C137.806 252.3 135.786 253.742 134.921 255.819L127.131 274.684C125.977 277.453 122.919 279.01 120.034 278.203L106.475 274.626C103.532 273.876 101.686 271.049 102.032 268.049L104.571 247.973C104.859 245.608 103.763 243.3 101.743 242.031C98.3967 239.896 95.2809 237.473 92.396 234.762C90.665 233.146 88.1839 232.685 85.9913 233.55L67.1235 241.108C64.2963 242.261 61.1228 241.108 59.6226 238.454L52.7563 226.224C51.2562 223.57 51.9486 220.281 54.3719 218.435L70.6432 206.205C72.5473 204.82 73.4128 202.455 72.9512 200.147C72.2588 196.859 71.8549 193.513 71.6818 190.109C71.5664 187.802 70.1239 185.783 68.0467 184.917L49.179 177.129C46.4094 176.033 44.8515 172.975 45.6593 170.033Z" fill="#F39D48" stroke="black" stroke-width="1.48" stroke-miterlimit="10"/>
<path d="M136.941 227.608C159.407 227.608 177.619 209.399 177.619 186.936C177.619 164.474 159.407 146.265 136.941 146.265C114.475 146.265 96.2627 164.474 96.2627 186.936C96.2627 209.399 114.475 227.608 136.941 227.608Z" stroke="black" stroke-width="1.48" stroke-miterlimit="10"/>
<path d="M136.941 203.667C146.182 203.667 153.674 196.176 153.674 186.936C153.674 177.696 146.182 170.206 136.941 170.206C127.7 170.206 120.208 177.696 120.208 186.936C120.208 196.176 127.7 203.667 136.941 203.667Z" fill="black"/>
<path d="M229.086 178.282L230.01 168.244C230.183 166.11 231.971 164.437 234.106 164.321L248.646 163.687C250.377 163.629 251.878 162.533 252.512 160.975C253.609 158.379 254.936 155.841 256.494 153.476C257.417 152.091 257.475 150.245 256.551 148.803L248.935 136.341C247.781 134.495 248.185 132.072 249.916 130.746L257.763 124.4C259.436 123.015 261.86 123.13 263.475 124.63L274.092 134.668C275.304 135.822 277.092 136.168 278.65 135.534C280.901 134.668 283.209 133.919 285.574 133.399C287.19 133.053 288.459 131.784 288.805 130.169L292.037 115.919C292.498 113.785 294.46 112.342 296.653 112.573L306.692 113.438C308.827 113.611 310.558 115.4 310.616 117.534L311.251 132.072C311.308 133.803 312.405 135.303 313.962 135.938C316.559 137.034 319.098 138.361 321.463 139.918C322.848 140.841 324.695 140.899 326.137 139.976L338.6 132.361C340.447 131.207 342.87 131.669 344.197 133.342L350.544 141.13C351.929 142.803 351.813 145.226 350.313 146.841L340.273 157.514C339.119 158.725 338.773 160.514 339.408 162.071C340.273 164.321 341.024 166.629 341.543 168.994C341.889 170.61 343.158 171.879 344.774 172.225L359.083 175.456C361.218 175.917 362.661 177.936 362.43 180.071L361.507 190.109C361.334 192.244 359.545 193.974 357.41 194.032L342.87 194.667C341.139 194.724 339.639 195.82 339.004 197.378C337.908 199.974 336.581 202.512 335.023 204.878C334.1 206.262 334.042 208.108 334.965 209.551L342.581 222.012C343.735 223.858 343.274 226.281 341.6 227.608L333.811 233.954C332.138 235.338 329.714 235.223 328.099 233.723L317.482 223.685C316.27 222.531 314.482 222.185 312.924 222.819C310.674 223.685 308.366 224.435 306 224.954C304.384 225.3 303.115 226.569 302.769 228.185L299.538 242.492C299.076 244.626 297.056 246.069 294.922 245.838L284.882 244.915C282.747 244.742 281.016 242.953 280.958 240.819L280.324 226.281C280.266 224.55 279.17 223.05 277.612 222.416C275.015 221.32 272.476 219.993 270.111 218.435C268.726 217.512 266.88 217.454 265.437 218.377L252.974 225.992C251.128 227.146 248.704 226.742 247.377 225.012L241.03 217.166C239.645 215.493 239.761 213.07 241.261 211.454L251.301 200.839C252.455 199.628 252.801 197.84 252.166 196.282C251.301 194.032 250.551 191.724 250.031 189.359C249.685 187.744 248.416 186.475 246.8 186.128L232.491 182.898C230.356 182.436 228.913 180.475 229.086 178.282Z" fill="#F39D48" stroke="black" stroke-width="1.48" stroke-miterlimit="10"/>
<path d="M295.788 208.397C311.912 208.397 324.984 195.328 324.984 179.206C324.984 163.084 311.912 150.015 295.788 150.015C279.663 150.015 266.592 163.084 266.592 179.206C266.592 195.328 279.663 208.397 295.788 208.397Z" stroke="black" stroke-width="1.48" stroke-miterlimit="10"/>
<path d="M295.788 191.206C302.416 191.206 307.789 185.834 307.789 179.207C307.789 172.579 302.416 167.207 295.788 167.207C289.159 167.207 283.786 172.579 283.786 179.207C283.786 185.834 289.159 191.206 295.788 191.206Z" fill="black"/>
<path d="M431.843 235.686L537.606 254.839V354.586L417.303 310.683" fill="#FC9797"/>
<path d="M537.606 354.585L417.303 310.683" stroke="black" stroke-width="1.48" stroke-miterlimit="10" stroke-linecap="round"/>
<path d="M431.843 235.686L549.146 256.973" stroke="black" stroke-width="1.48" stroke-miterlimit="10" stroke-linecap="round"/>
<path d="M364.969 315.528L343.967 314.49L313.848 281.029C307.443 273.934 308.02 262.972 315.117 256.569C316.675 255.184 318.464 254.088 320.368 253.338L383.549 228.646L433.113 235.973L418.572 309.644L412.687 313.278C400.108 319.97 385.453 321.528 371.778 317.547L364.969 315.528Z" fill="#FC9797"/>
<path d="M412.455 242.724C402.012 245.147 396.934 244.743 386.317 240.128" stroke="black" stroke-width="1.48" stroke-miterlimit="10" stroke-linecap="round"/>
<path d="M334.1 174.764C333.407 166.688 328.445 159.592 321.117 156.13L303.23 147.708C298.903 145.688 293.768 146.092 289.844 148.861L305.538 171.418C309.52 177.13 308.077 184.918 302.422 188.899C296.71 192.879 288.921 191.495 284.94 185.783V185.726L269.188 163.226C265.264 165.995 263.071 170.611 263.475 175.399L265.149 195.129C265.841 203.206 270.803 210.302 278.131 213.763L303.057 225.474L304.673 226.455C308.308 228.59 311.308 231.647 313.443 235.282L379.278 348.47C386.664 361.105 404.32 363.989 417.706 354.643C431.093 345.297 434.555 327.76 425.265 316.452L341.947 215.321C338.831 211.571 336.927 207.013 336.408 202.167L334.1 174.764Z" fill="#CFEDFF" stroke="black" stroke-width="1.48" stroke-miterlimit="10" stroke-linecap="round"/>
<path d="M414.244 291.242C384.24 291.242 375.874 254.724 375.874 254.724L358.448 267.3C352.101 271.858 343.331 270.588 338.6 264.358L335.772 260.666L364.565 231.994C368.95 227.667 375.124 225.705 381.24 226.744L433.169 235.916" fill="#FC9797"/>
<path d="M414.244 291.242C384.24 291.242 375.874 254.724 375.874 254.724L358.448 267.3C352.101 271.858 343.331 270.588 338.6 264.358L335.772 260.666L364.565 231.994C368.95 227.667 375.124 225.705 381.24 226.744L433.169 235.916" stroke="black" stroke-width="1.48" stroke-miterlimit="10" stroke-linecap="round"/>
<path d="M350.371 321.413C356.256 325.971 364.449 325.971 370.392 321.413L388.51 307.395C391.683 305.029 392.491 300.587 390.241 297.299C388.164 294.183 384.009 293.145 380.721 294.876L339.119 309.241L350.371 321.413Z" fill="#FC9797" stroke="black" stroke-width="1.48" stroke-miterlimit="10" stroke-linecap="round"/>
<path d="M337.965 308.318C342.408 312.933 349.448 313.971 355.044 310.798L381.528 295.684C385.337 293.664 386.895 288.991 385.048 285.126C383.317 281.434 379.047 279.646 375.182 280.972L325.329 293.376L337.965 308.318Z" fill="#FC9797" stroke="black" stroke-width="1.48" stroke-miterlimit="10" stroke-linecap="round"/>
<path d="M325.329 293.491C329.715 298.568 336.869 300.356 343.101 297.876L375.124 285.241C379.163 283.741 381.298 279.299 379.913 275.203C378.644 271.338 374.547 268.223 367.565 270.703L324.579 272.146C319.848 272.723 316.501 276.934 317.078 281.665C317.251 283.395 318.002 285.011 319.098 286.28L325.329 293.491Z" fill="#FC9797"/>
<path d="M313.79 280.741L325.33 293.491C329.715 298.567 336.87 300.356 343.101 297.875L375.125 285.241C379.164 283.741 381.299 279.299 379.914 275.203C378.644 271.337 374.605 269.03 370.624 269.895L337.505 278.087" stroke="#1D2B47" stroke-width="1.48" stroke-miterlimit="10" stroke-linecap="round"/>
<path d="M314.251 280.684C318.636 285.76 325.791 287.491 332.022 285.068L364.046 272.434C368.085 270.934 370.22 266.492 368.835 262.396C367.565 258.531 361.565 256.627 357.583 257.492L328.041 265.338L317.655 264.011L314.251 280.684Z" fill="#FC9797"/>
<path d="M314.251 280.683C318.636 285.76 325.791 287.49 332.022 285.067L364.046 272.433C368.085 270.933 370.22 266.491 368.835 262.395C367.565 258.53 363.526 256.222 359.545 257.088L326.426 265.28" stroke="black" stroke-width="1.48" stroke-miterlimit="10" stroke-linecap="round"/>
<path d="M371.432 92.5547H412.514H371.432Z" fill="#FCB332"/>
<path d="M371.432 92.5547H412.514" stroke="black" stroke-width="1.48" stroke-miterlimit="10"/>
<path d="M371.432 114.766H426.246H371.432Z" fill="#FCB332"/>
<path d="M371.432 114.766H426.246" stroke="black" stroke-width="1.48" stroke-miterlimit="10"/>
<path d="M371.432 136.919H426.246H371.432Z" fill="#FCB332"/>
<path d="M371.432 136.919H426.246" stroke="black" stroke-width="1.48" stroke-miterlimit="10"/>
<path d="M371.432 159.13H426.246H371.432Z" fill="#FCB332"/>
<path d="M371.432 159.13H426.246" stroke="black" stroke-width="1.48" stroke-miterlimit="10"/>
<path d="M371.432 181.282H426.246H371.432Z" fill="#FCB332"/>
<path d="M371.432 181.282H426.246" stroke="black" stroke-width="1.48" stroke-miterlimit="10"/>
<path d="M398.839 203.436H426.246H398.839Z" fill="#FCB332"/>
<path d="M398.839 203.436H426.246" stroke="black" stroke-width="1.48" stroke-miterlimit="10"/>
<path d="M26.0416 61.748H100.532C104.917 61.748 108.437 65.2672 108.437 69.6516C108.437 74.0361 104.917 77.5552 100.532 77.5552H26.0416C21.6564 77.5552 18.1367 74.0361 18.1367 69.6516C18.1367 65.2672 21.6564 61.748 26.0416 61.748Z" stroke="black" stroke-width="1.48" stroke-miterlimit="10"/>
<path d="M22.4062 280.51H49.4097V295.048H22.4062V280.51Z" stroke="black" stroke-width="1.48" stroke-miterlimit="10"/>
<path d="M339.062 210.936L323.079 223.108L339.062 210.936Z" fill="#FCB332"/>
<path d="M339.062 210.936L323.079 223.108" stroke="black" stroke-width="1.48" stroke-miterlimit="10"/>
</svg>
