<svg width="52" height="42" viewBox="0 0 52 42" fill="none" xmlns="http://www.w3.org/2000/svg">
<path d="M34.834 33.52L40.1522 30.2344" stroke="#0F4568" stroke-width="0.578122" stroke-miterlimit="10"/>
<path d="M34.834 34.375L40.1522 37.6619" stroke="#0F4568" stroke-width="0.578122" stroke-miterlimit="10"/>
<path d="M41.4859 31.3018C42.3799 31.3018 43.1046 30.5771 43.1046 29.6831C43.1046 28.7892 42.3799 28.0645 41.4859 28.0645C40.5919 28.0645 39.8672 28.7892 39.8672 29.6831C39.8672 30.5771 40.5919 31.3018 41.4859 31.3018Z" stroke="#0F4568" stroke-width="0.578122" stroke-miterlimit="10"/>
<path d="M41.4859 39.8096C42.3799 39.8096 43.1046 39.0849 43.1046 38.191C43.1046 37.297 42.3799 36.5723 41.4859 36.5723C40.5919 36.5723 39.8672 37.297 39.8672 38.191C39.8672 39.0849 40.5919 39.8096 41.4859 39.8096Z" stroke="#0F4568" stroke-width="0.578122" stroke-miterlimit="10"/>
<path d="M33.3627 35.3602C34.1747 35.3602 34.8329 34.702 34.8329 33.8901C34.8329 33.0781 34.1747 32.4199 33.3627 32.4199C32.5508 32.4199 31.8926 33.0781 31.8926 33.8901C31.8926 34.702 32.5508 35.3602 33.3627 35.3602Z" stroke="#0F4568" stroke-width="0.578122" stroke-miterlimit="10"/>
<path d="M10.1147 11.84C10.1147 11.84 4.96533 11.0071 5.03388 14.9161" stroke="#0F4568" stroke-width="0.578122" stroke-miterlimit="10"/>
<path d="M10.1147 17.7402C10.1147 17.7402 4.96533 18.573 5.03388 14.6641" stroke="#0F4568" stroke-width="0.578122" stroke-miterlimit="10"/>
<path d="M34.1074 17.8419C34.1074 17.8419 39.2568 17.0091 39.1882 20.9181" stroke="#0F4568" stroke-width="0.578122" stroke-miterlimit="10"/>
<path d="M34.1074 23.7422C34.1074 23.7422 39.2568 24.575 39.1882 20.666" stroke="#0F4568" stroke-width="0.578122" stroke-miterlimit="10"/>
<path d="M37.168 4.46718L48.4264 1" stroke="#0F4568" stroke-width="0.578122" stroke-miterlimit="10" stroke-linecap="round"/>
<path d="M42.7969 11.3165L48.4261 1" stroke="#0F4568" stroke-width="0.578122" stroke-miterlimit="10" stroke-linecap="round"/>
<path d="M41.3965 6.63812L48.4273 1" stroke="#0F4568" stroke-width="0.578122" stroke-miterlimit="10" stroke-linecap="round"/>
<path d="M42.7981 11.317L41.3965 6.63867" stroke="#0F4568" stroke-width="0.578122" stroke-miterlimit="10" stroke-linecap="round"/>
<path d="M37.168 4.4668L41.3956 6.63775" stroke="#0F4568" stroke-width="0.578122" stroke-miterlimit="10" stroke-linecap="round"/>
<path d="M31.8906 11.84C32.9647 11.6928 34.0273 11.4503 35.0468 11.0821C36.9701 10.3877 38.7272 9.23871 40.1352 7.75586" stroke="#0F4568" stroke-width="0.578122" stroke-miterlimit="10" stroke-linecap="round"/>
<path d="M34.1086 16.3385V23.0228C34.1086 24.3901 33.1006 25.534 31.7929 25.7498C31.6457 25.779 31.4946 25.7904 31.3397 25.7904H28.9999H19.4896L16.7207 29.1307C16.7207 29.1307 16.7207 23.8099 16.7207 23.0215V16.3373C16.7207 14.8151 17.9661 13.5684 19.4896 13.5684H28.9999H31.3397C31.4946 13.5684 31.6457 13.5811 31.7929 13.609C33.1006 13.8273 34.1086 14.9712 34.1086 16.3385Z" stroke="#0F4568" stroke-width="0.578122" stroke-miterlimit="10"/>
<path d="M31.793 25.7515V37.8492C31.793 39.3295 30.5933 40.5292 29.113 40.5292H12.7953C11.315 40.5292 10.1152 39.3295 10.1152 37.8492V5.41442C10.1152 3.93411 11.315 2.73438 12.7953 2.73438H29.113C30.5933 2.73438 31.793 3.93411 31.793 5.41442V13.6082V13.612C31.6457 13.5828 31.4947 13.5714 31.3398 13.5714H29V8.37885C29 6.89854 27.8002 5.6988 26.3199 5.6988H15.7889C14.3086 5.6988 13.1089 6.89854 13.1089 8.37885V32.3279C13.1089 33.8082 14.3086 35.0079 15.7889 35.0079H26.3199C27.8002 35.0079 29 33.8082 29 32.3279V25.9636V25.7922H31.3398C31.4947 25.7922 31.6457 25.7795 31.793 25.7515ZM22.2332 37.9711C22.3665 37.1509 21.6708 36.4552 20.8507 36.5885C20.3543 36.6698 19.9543 37.0697 19.8731 37.5661C19.7398 38.3862 20.4355 39.0819 21.2556 38.9486C21.752 38.8674 22.152 38.4675 22.2332 37.9711Z" stroke="#0F4568" stroke-width="0.578122" stroke-miterlimit="10"/>
<path d="M22.234 37.5663C22.3673 38.3864 21.6716 39.0821 20.8514 38.9488C20.355 38.8676 19.9551 38.4677 19.8739 37.9713C19.7406 37.1511 20.4363 36.4554 21.2564 36.5887C21.7528 36.67 22.1527 37.0699 22.234 37.5663Z" stroke="#0F4568" stroke-width="0.578122" stroke-miterlimit="10"/>
<path d="M31.7929 25.7518C31.6457 25.781 31.4946 25.7924 31.3397 25.7924H28.9999H19.4896L16.7207 29.1326C16.7207 29.1326 16.7207 23.8119 16.7207 23.0235V16.3392C16.7207 14.817 17.9661 13.5703 19.4896 13.5703H28.9999H31.3397C31.4946 13.5703 31.6457 13.583 31.7929 13.6109C33.0993 13.8268 34.1086 14.9706 34.1086 16.338V23.0222C34.1074 24.3921 33.0993 25.5347 31.7929 25.7518Z" fill="#F49E49" stroke="#0F4568" stroke-width="0.578122" stroke-miterlimit="10"/>
<path d="M28.6345 17.817H22.1966C21.9021 17.817 21.6621 17.5783 21.6621 17.2825C21.6621 16.988 21.9008 16.748 22.1966 16.748H28.6345C28.9291 16.748 29.169 16.9867 29.169 17.2825C29.1678 17.5771 28.9291 17.817 28.6345 17.817Z" fill="#0F4568"/>
<path d="M28.6345 20.4186H22.1966C21.9021 20.4186 21.6621 20.1799 21.6621 19.8841C21.6621 19.5896 21.9008 19.3496 22.1966 19.3496H28.6345C28.9291 19.3496 29.169 19.5883 29.169 19.8841C29.1678 20.1799 28.9291 20.4186 28.6345 20.4186Z" fill="#0F4568"/>
<path d="M28.6345 23.2369H22.1966C21.9021 23.2369 21.6621 22.9983 21.6621 22.7025C21.6621 22.4079 21.9008 22.168 22.1966 22.168H28.6345C28.9291 22.168 29.169 22.4066 29.169 22.7025C29.1678 22.9983 28.9291 23.2369 28.6345 23.2369Z" fill="#0F4568"/>
<path d="M51.3208 41.1832H0.680485C0.304695 41.1832 0 40.8785 0 40.5027C0 40.127 0.304695 39.8223 0.680485 39.8223H51.3195C51.6953 39.8223 52 40.127 52 40.5027C52.0013 40.8785 51.6966 41.1832 51.3208 41.1832Z" fill="#0F4568"/>
</svg>
