<svg width="467" height="353" viewBox="0 0 467 353" fill="none" xmlns="http://www.w3.org/2000/svg">
<path d="M385.672 228.285C373.687 254.862 355.997 278.474 333.859 297.443C311.72 316.413 285.676 330.275 257.577 338.045C229.477 345.815 200.011 347.303 171.272 342.402C142.533 337.501 115.226 326.332 91.2892 309.689C67.3528 293.045 47.3749 271.335 32.7743 246.101C18.1737 220.866 9.3087 192.726 6.80886 163.68C4.30902 134.633 8.23571 105.392 18.31 78.034C28.3843 50.6759 44.3591 25.8717 65.0998 5.38306L140.851 82.0658C131.368 91.4329 124.065 102.773 119.459 115.281C114.853 127.789 113.058 141.157 114.201 154.437C115.344 167.717 119.397 180.582 126.072 192.119C132.747 203.656 141.881 213.582 152.824 221.191C163.768 228.8 176.252 233.906 189.391 236.147C202.531 238.387 216.002 237.707 228.849 234.155C241.696 230.603 253.603 224.265 263.724 215.592C273.846 206.92 281.933 196.125 287.413 183.974L385.672 228.285Z" fill="#F7E3CB"/>
<path d="M376.035 246.975C376.035 246.975 292.061 129.883 269.786 129.883C252.637 129.883 238.671 165.653 271.848 224.7" fill="white"/>
<path d="M376.035 246.975C376.035 246.975 292.061 129.883 269.786 129.883C252.637 129.883 238.671 165.653 271.848 224.7" stroke="black" stroke-width="1.17858" stroke-miterlimit="10" stroke-linecap="round"/>
<path d="M199.129 164.769C202.371 141.492 222.289 124.167 245.801 124.167C270.139 124.167 290.529 142.671 292.709 166.949L303.257 279.622H183.042L199.129 164.769Z" fill="white"/>
<path d="M293.652 173.903L303.257 279.622H183.042L199.129 164.769C202.371 141.492 222.289 124.167 245.801 124.167" stroke="black" stroke-width="1.17858" stroke-miterlimit="10" stroke-linecap="round"/>
<path d="M297.424 216.922H191.822L185.812 259.94H301.431L297.424 216.922Z" fill="#EF9D46" stroke="black" stroke-width="1.17858" stroke-miterlimit="10"/>
<path d="M268.372 244.206C269.256 244.972 270.199 245.62 271.26 246.209L292.356 220.634C291.767 219.927 291.119 219.279 290.47 218.689L257.883 190.462L234.075 214.387L268.372 244.206Z" fill="#FC9797"/>
<path d="M150.866 187.398C115.391 259.527 136.016 294.414 135.957 294.472C151.691 326.294 208.735 336.194 233.544 308.144L243.385 298.303L288.937 245.443C287.935 244.913 271.671 246.74 270.787 245.974L233.897 214.447L188.463 260.176C188.463 260.176 240.497 143.142 241.205 132.181C241.735 123.931 225.294 118.097 196.89 135.953C177.031 148.505 161.12 166.301 150.866 187.398Z" fill="white"/>
<path d="M269.785 132.594V121.751C269.785 117.331 266.25 113.796 261.83 113.796H228.24C223.821 113.796 220.285 117.331 220.285 121.751V125.346C213.803 126.878 205.906 130.178 196.772 135.953C176.972 148.505 161.061 166.36 150.807 187.457C115.332 259.586 135.957 294.472 135.957 294.472C151.691 326.294 208.735 336.194 233.544 308.144L243.385 298.303L288.937 245.443C287.936 244.913 271.671 246.74 270.787 245.974L233.897 214.447L188.463 260.176C188.463 260.176 206.26 220.163 221.169 184.687" stroke="black" stroke-width="1.17858" stroke-miterlimit="10" stroke-linecap="round"/>
<path d="M269.845 132.535V121.751C269.845 117.331 266.309 113.796 261.889 113.796H228.3C223.88 113.796 220.344 117.331 220.344 121.751V125.346C213.862 126.878 205.966 130.178 196.832 135.953" fill="white"/>
<path d="M269.845 132.535V121.751C269.845 117.331 266.309 113.796 261.889 113.796H228.3C223.88 113.796 220.344 117.331 220.344 121.751V125.346C213.862 126.878 205.966 130.178 196.832 135.953" stroke="black" stroke-width="1.17858" stroke-miterlimit="10" stroke-linecap="round"/>
<path d="M292.297 220.634L307.677 202.013L277.329 170.957L257.882 190.521L290.47 218.748C291.059 219.338 291.708 219.986 292.297 220.634Z" fill="#FC9797"/>
<path d="M292.297 220.693L271.201 246.209C278.154 250.04 286.876 248.508 292.12 242.497C297.542 236.25 297.601 226.999 292.297 220.693Z" fill="black" stroke="black" stroke-width="1.17858" stroke-miterlimit="10"/>
<path d="M213.155 235.366L249.514 265.95C255.879 271.313 265.249 271.195 271.495 265.715L288.997 245.443C287.995 244.913 271.731 246.739 270.847 245.973L233.957 214.446L213.155 235.366Z" stroke="black" stroke-width="1.17858" stroke-miterlimit="10" stroke-linecap="round"/>
<path d="M250.87 197.534L285.049 160.939L287.053 162.589C290.47 165.359 291.001 170.309 288.349 173.786L262.715 207.139L250.87 197.534Z" fill="#FC9797"/>
<path d="M292.062 208.495C293.122 190.58 280.983 183.332 280.983 183.332L288.349 173.726C291.06 170.25 290.47 165.241 287.053 162.471L285.049 160.821L250.87 197.416" stroke="#1A1C35" stroke-width="0.895724" stroke-miterlimit="10" stroke-linecap="round"/>
<path d="M292.474 196.12L333.017 197.416C335.315 197.475 337.142 199.243 337.319 201.541C337.496 203.957 335.669 206.079 333.253 206.314L291.767 209.968L292.474 196.12Z" fill="#FC9797" stroke="#1A1C35" stroke-width="0.895724" stroke-miterlimit="10" stroke-linecap="round"/>
<path d="M295.538 189.873L335.551 183.214C337.79 182.861 339.971 184.216 340.56 186.396C341.208 188.753 339.853 191.17 337.496 191.877L314.278 198.654L308.856 200.245L297.542 203.545L295.538 189.873Z" fill="#FC9797"/>
<path d="M297.542 203.604L295.538 189.873L335.551 183.214C337.79 182.861 339.971 184.216 340.56 186.396C341.208 188.753 339.853 191.17 337.496 191.877L314.278 198.654L310.506 199.773" stroke="#1A1C35" stroke-width="0.895724" stroke-miterlimit="10" stroke-linecap="round"/>
<path d="M295.479 180.267L334.549 169.189C336.729 168.6 339.027 169.719 339.852 171.782C340.736 174.021 339.676 176.614 337.436 177.557L299.015 193.644L295.479 180.267Z" fill="#FC9797"/>
<path d="M299.015 193.644L295.479 180.267L334.549 169.189C336.729 168.6 339.027 169.719 339.852 171.782C340.736 174.021 339.735 176.614 337.495 177.557L309.504 189.284" stroke="#1A1C35" stroke-width="0.895724" stroke-miterlimit="10" stroke-linecap="round"/>
<path d="M293.652 170.25L323.706 159.878C325.887 159.112 328.244 160.114 329.246 162.176C330.306 164.357 329.422 167.009 327.242 168.128L296.599 183.98L293.652 170.25Z" fill="#FC9797"/>
<path d="M308.09 209.438C302.433 217.452 293.888 222.933 284.283 224.7L248.572 199.479L269.845 177.027L296.717 169.307L308.738 208.495L308.09 209.438Z" fill="#FC9797"/>
<path d="M267.252 91.4026C273.696 91.4026 278.92 86.1787 278.92 79.7346C278.92 73.2906 273.696 68.0667 267.252 68.0667C260.808 68.0667 255.584 73.2906 255.584 79.7346C255.584 86.1787 260.808 91.4026 267.252 91.4026Z" fill="#EF9D46" stroke="black" stroke-width="1.17858" stroke-miterlimit="10"/>
<path d="M254.464 78.6735C266.962 78.6735 277.093 68.5423 277.093 56.0447C277.093 43.5472 266.962 33.4159 254.464 33.4159C241.967 33.4159 231.835 43.5472 231.835 56.0447C231.835 68.5423 241.967 78.6735 254.464 78.6735Z" stroke="#EF9D46" stroke-width="4.12505" stroke-miterlimit="10"/>
<path d="M254.464 76.7882C265.823 76.7882 275.031 67.5804 275.031 56.2219C275.031 44.8635 265.823 35.6556 254.464 35.6556C243.106 35.6556 233.898 44.8635 233.898 56.2219C233.898 67.5804 243.106 76.7882 254.464 76.7882Z" stroke="black" stroke-width="1.17858" stroke-miterlimit="10"/>
<path d="M254.464 79.7934C267.938 79.7934 278.861 68.8706 278.861 55.3967C278.861 41.9228 267.938 31 254.464 31C240.99 31 230.068 41.9228 230.068 55.3967C230.068 68.8706 240.99 79.7934 254.464 79.7934Z" stroke="black" stroke-width="1.17858" stroke-miterlimit="10"/>
<path d="M308.739 208.495L308.032 209.497C302.374 217.57 293.771 223.168 284.106 225.054" stroke="#1A1C35" stroke-width="0.895724" stroke-miterlimit="10" stroke-linecap="round"/>
<path d="M234.075 214.329L271.908 174.964" stroke="#1A1C35" stroke-width="0.895724" stroke-miterlimit="10" stroke-linecap="round"/>
<path d="M282.397 173.668L323.707 159.878C325.887 159.112 328.244 160.114 329.246 162.177C330.307 164.357 329.423 167.009 327.242 168.128L304.672 180.032" stroke="#1A1C35" stroke-width="0.895724" stroke-miterlimit="10" stroke-linecap="round"/>
<path d="M258.943 82.7403V140.255L228.889 129.353L233.014 82.21" fill="#FC9797"/>
<path d="M258.943 82.7397V140.255" stroke="black" stroke-width="1.17858" stroke-miterlimit="10" stroke-linecap="round"/>
<path d="M228.889 129.353L233.014 82.21" stroke="black" stroke-width="1.17858" stroke-miterlimit="10" stroke-linecap="round"/>
<path d="M258.943 118.215C258.943 118.215 247.039 108.08 245.448 99.2992C251.164 102.953 258.943 102.187 258.943 102.187V118.215Z" fill="black" stroke="black" stroke-width="1.17858" stroke-miterlimit="10"/>
<path d="M253.522 102.893C264.815 102.893 273.97 93.7384 273.97 82.445C273.97 71.1516 264.815 61.9966 253.522 61.9966C242.228 61.9966 233.073 71.1516 233.073 82.445C233.073 93.7384 242.228 102.893 253.522 102.893Z" fill="#FC9797"/>
<path d="M253.52 61.9968C256.29 61.9968 259.001 62.5272 261.535 63.6468C271.965 68.0665 276.797 80.0881 272.319 90.5186C267.899 100.949 255.878 105.781 245.447 101.303" stroke="black" stroke-width="1.17858" stroke-miterlimit="10" stroke-linecap="round"/>
<path d="M214.686 74.6075C217.161 83.4469 222.76 92.4631 231.481 98.8274C231.481 98.8274 242.383 98.8274 242.855 84.8612C236.137 82.2683 239.201 72.4271 243.915 73.9593C248.571 75.4914 248.571 84.8612 248.571 84.8612C248.571 84.8612 254.228 81.2076 252.696 69.8342H269.785C282.396 69.8342 292.591 59.6395 292.591 47.0286V46.7929C292.65 40.6643 288.643 35.2428 282.75 33.4749C275.501 31.2945 202.783 43.7875 214.686 74.6075Z" fill="black" stroke="black" stroke-width="1.17858" stroke-miterlimit="10"/>
<path d="M170.843 279.092L188.463 259.94" stroke="black" stroke-width="1.17858" stroke-miterlimit="10" stroke-linecap="round"/>
<path d="M263.657 146.678C261.359 152.807 231.187 141.787 226.591 139.548C221.994 137.308 221.641 120.16 226.296 119.806C249.75 129.53 265.13 121.28 265.13 121.28C265.13 121.28 265.955 140.549 263.657 146.678Z" fill="white"/>
<path d="M226.297 119.865C249.75 129.588 265.131 121.338 265.131 121.338" stroke="black" stroke-width="1.17858" stroke-miterlimit="10" stroke-linecap="round"/>
<path d="M234.075 133.006C223.173 130.944 220.58 125.228 220.58 125.228" stroke="black" stroke-width="1.17858" stroke-miterlimit="10" stroke-linecap="round"/>
<path d="M228.712 84.3312C236.458 84.3312 242.738 78.0519 242.738 70.306C242.738 62.5602 236.458 56.2809 228.712 56.2809C220.966 56.2809 214.687 62.5602 214.687 70.306C214.687 78.0519 220.966 84.3312 228.712 84.3312Z" fill="black" stroke="black" stroke-width="1.17858" stroke-miterlimit="10"/>
<path d="M237.67 278.031C235.489 278.031 233.663 279.799 233.663 282.039V290.112C233.663 296.771 239.084 302.133 245.743 302.192H400.609C407.268 302.192 412.631 296.83 412.689 290.112H294.477C287.583 290.112 281.808 284.926 281.042 278.031H245.861H237.67Z" fill="white" stroke="black" stroke-width="1.17858" stroke-miterlimit="10" stroke-linecap="round"/>
<path d="M300.724 198.418C303.317 195.354 307.089 193.586 311.096 193.586H431.488C432.549 193.586 433.61 193.704 434.67 193.998C441.919 195.707 446.338 203.015 444.629 210.322L427.953 279.799C426.479 285.928 421.058 290.171 414.811 290.171H294.478C287.583 290.171 281.808 284.985 281.042 278.09C280.865 276.558 280.983 274.967 281.337 273.494L298.014 204.016C298.426 202.307 299.133 200.716 300.194 199.243L300.724 198.418Z" fill="white" stroke="black" stroke-width="1.17858" stroke-miterlimit="10" stroke-linecap="round"/>
<path d="M380.483 245.698C382.91 238 379.317 230.007 372.457 227.844C365.598 225.681 358.069 230.168 355.642 237.865C353.215 245.563 356.808 253.557 363.668 255.719C370.528 257.882 378.056 253.395 380.483 245.698Z" fill="#D7E8F0"/>
<path d="M254.464 33.4159C241.971 33.4159 231.835 43.5517 231.835 56.0447C231.835 68.5377 241.971 78.7325 254.464 78.7325" stroke="#EF9D46" stroke-width="4.12505" stroke-miterlimit="10"/>
<path d="M254.464 35.6556C243.091 35.6556 233.898 44.8486 233.898 56.2219C233.898 67.5953 243.091 76.7882 254.464 76.7882" stroke="black" stroke-width="1.17858" stroke-miterlimit="10"/>
<path d="M254.464 31C241.028 31 230.068 41.9019 230.068 55.3967C230.068 68.8915 240.969 79.7934 254.464 79.7934" stroke="black" stroke-width="1.17858" stroke-miterlimit="10"/>
<path d="M242.325 92.4043C250.754 92.4043 257.588 85.5709 257.588 77.1416C257.588 68.7122 250.754 61.8789 242.325 61.8789C233.896 61.8789 227.062 68.7122 227.062 77.1416C227.062 85.5709 233.896 92.4043 242.325 92.4043Z" fill="#EF9D46" stroke="black" stroke-width="1.17858" stroke-miterlimit="10"/>
<path d="M241.971 84.5079C246.137 84.5079 249.514 81.1308 249.514 76.9649C249.514 72.7991 246.137 69.422 241.971 69.422C237.806 69.422 234.429 72.7991 234.429 76.9649C234.429 81.1308 237.806 84.5079 241.971 84.5079Z" fill="black" stroke="black" stroke-width="1.17858" stroke-miterlimit="10"/>
<path d="M272.438 103.247C274.195 103.247 275.62 101.822 275.62 100.065C275.62 98.3075 274.195 96.8828 272.438 96.8828C270.68 96.8828 269.255 98.3075 269.255 100.065C269.255 101.822 270.68 103.247 272.438 103.247Z" fill="black"/>
<path d="M250.103 90.2236C250.103 90.2236 257.293 102.245 270.021 100.654" stroke="black" stroke-width="1.76788" stroke-miterlimit="10"/>
</svg>
