<svg width="326" height="332" viewBox="0 0 326 332" fill="none" xmlns="http://www.w3.org/2000/svg">
<g opacity="0.4" clip-path="url(#clip0_1_56)">
<path d="M54.1301 313.918C83.3371 313.918 107.014 290.241 107.014 261.034C107.014 231.827 83.3371 208.15 54.1301 208.15C24.9231 208.15 1.24609 231.827 1.24609 261.034C1.24609 290.241 24.9231 313.918 54.1301 313.918Z" fill="white" stroke="black" stroke-miterlimit="10" stroke-linecap="round"/>
<path d="M54.1317 313.879C68.7957 313.879 82.7967 307.795 92.7807 297.07L90.2457 292.117C86.9697 285.76 80.2227 281.938 73.0857 282.445L71.6817 282.562L71.5647 282.757C62.9847 298.786 51.2457 309.199 45.3567 306.04C41.1447 303.739 41.0667 295.12 44.5377 284.512C39.9747 285.136 35.8017 287.476 32.9547 291.103L22.9707 303.739C32.0187 310.33 42.8997 313.918 54.1317 313.879Z" fill="white" stroke="black" stroke-width="0.729268" stroke-miterlimit="10" stroke-linecap="round"/>
<path d="M45.3551 306.119C51.2441 309.278 62.9831 298.826 71.5631 282.836L71.6801 282.641L45.6671 284.513C45.2771 284.552 44.9261 284.591 44.5361 284.63C41.0651 295.199 41.1431 303.857 45.3551 306.119Z" fill="#FC9797" stroke="black" stroke-width="0.729268" stroke-miterlimit="10" stroke-linecap="round"/>
<path d="M66.0259 258.148L68.7169 286.033L49.2559 295.783V258.499" fill="#FC9797"/>
<path d="M49.2559 295.784V258.5" stroke="black" stroke-width="0.729268" stroke-miterlimit="10" stroke-linecap="round"/>
<path d="M66.0254 258.148L68.3654 282.991" stroke="black" stroke-width="0.729268" stroke-miterlimit="10" stroke-linecap="round"/>
<path d="M49.2559 271.136C49.2559 271.136 54.2869 271.604 57.9919 269.264C56.9779 274.958 49.2559 281.51 49.2559 281.51V271.136Z" fill="black"/>
<path d="M36.2695 237.869H35.9185C31.5895 237.869 28.0405 241.691 28.0405 246.41V251.519C28.0795 252.689 27.1825 253.664 26.0125 253.703C23.5945 253.703 21.6445 255.809 21.6445 258.422V258.773C21.6445 261.386 23.5945 263.492 26.0125 263.492H46.1755C46.2145 263.531 46.4875 238.805 36.2695 237.869Z" fill="black"/>
<path d="M52.7659 271.604C60.0892 271.604 66.0259 265.667 66.0259 258.344C66.0259 251.021 60.0892 245.084 52.7659 245.084C45.4426 245.084 39.5059 251.021 39.5059 258.344C39.5059 265.667 45.4426 271.604 52.7659 271.604Z" fill="#FC9797"/>
<path d="M57.9922 270.551C51.2452 273.359 43.4842 270.2 40.6762 263.414C37.8682 256.667 41.0272 248.906 47.8132 246.098C49.4122 245.435 51.0892 245.084 52.8052 245.084" stroke="black" stroke-width="0.729268" stroke-miterlimit="10" stroke-linecap="round"/>
<path d="M56.3157 260.84C56.3157 260.84 55.2627 260.411 54.8337 256.004C54.5997 253.742 52.7667 251.987 50.5047 251.87C43.6017 251.519 35.1777 248.516 35.1777 238.025C44.0307 237.83 54.0927 237.869 61.4637 237.908C68.2107 237.986 73.6317 243.485 73.5927 250.232C73.5927 251.012 73.5147 251.792 73.3587 252.533C72.1497 258.266 70.0437 263.804 67.0797 268.913C67.0797 268.913 60.0207 268.913 59.7087 259.865C64.0767 258.188 62.0487 251.792 59.0457 252.806C55.9257 253.82 56.3157 260.84 56.3157 260.84Z" fill="black"/>
<path d="M272.025 328.115C301.232 328.115 324.909 304.438 324.909 275.231C324.909 246.024 301.232 222.347 272.025 222.347C242.818 222.347 219.141 246.024 219.141 275.231C219.141 304.438 242.818 328.115 272.025 328.115Z" fill="white" stroke="black" stroke-miterlimit="10" stroke-linecap="round"/>
<path d="M308.138 306.353C304.862 299.996 298.115 296.174 290.978 296.681L289.574 296.798L263.522 298.67C263.132 298.709 262.781 298.748 262.391 298.787C257.828 299.411 253.655 301.751 250.808 305.378L240.863 317.975C262.469 333.731 292.421 330.845 310.673 311.306L308.138 306.353Z" fill="white" stroke="black" stroke-miterlimit="10" stroke-linecap="round"/>
<path d="M266.837 292.508L261.455 295.784C258.92 297.344 257.243 299.996 256.97 302.96L256.424 309.005L267.851 301.634L266.837 292.508Z" fill="white" stroke="black" stroke-miterlimit="10" stroke-linecap="round"/>
<path d="M260.441 300.268L263.483 312.358C263.483 312.358 279.59 296.914 280.253 296.563L279.239 290.479" fill="white"/>
<path d="M260.441 300.268L263.483 312.358C263.483 312.358 279.59 296.914 280.253 296.563L279.239 290.479" stroke="black" stroke-miterlimit="10" stroke-linecap="round"/>
<path d="M249.872 257.604H263.483V273.399H249.872C245.504 273.399 241.994 269.85 241.994 265.521C241.994 261.114 245.504 257.604 249.872 257.604Z" fill="black" stroke="black" stroke-width="0.729268" stroke-miterlimit="10"/>
<path d="M281.93 272.384L284.27 299.255L265.16 309.98V272.696" fill="#FC9797"/>
<path d="M265.16 308.966V272.696" stroke="black" stroke-width="0.729268" stroke-miterlimit="10" stroke-linecap="round"/>
<path d="M281.932 272.384L284.272 297.578" stroke="#1D2B47" stroke-width="0.729268" stroke-miterlimit="10" stroke-linecap="round"/>
<path d="M265.16 285.332C265.16 285.332 270.191 285.8 273.896 283.46C272.882 289.154 265.16 295.706 265.16 295.706V285.332Z" fill="black" stroke="black" stroke-width="0.729268" stroke-miterlimit="10"/>
<path d="M268.67 285.799C275.993 285.799 281.93 279.863 281.93 272.539C281.93 265.216 275.993 259.279 268.67 259.279C261.347 259.279 255.41 265.216 255.41 272.539C255.41 279.863 261.347 285.799 268.67 285.799Z" fill="#FC9797"/>
<path d="M273.897 284.746C267.15 287.554 259.389 284.395 256.581 277.609C253.773 270.862 256.932 263.101 263.718 260.293C265.317 259.63 266.994 259.279 268.71 259.279" stroke="black" stroke-width="0.729268" stroke-miterlimit="10" stroke-linecap="round"/>
<path d="M283.295 284.786C283.295 284.786 275.924 283.109 275.573 274.061C279.941 272.384 277.913 265.988 274.91 267.002C271.868 268.016 272.219 275.075 272.219 275.075C272.219 275.075 269.177 272.384 270.191 264.662H257.087C250.691 264.662 245.348 259.787 244.724 253.43C244.685 253.079 244.685 252.728 244.646 252.416C244.646 252.377 244.646 252.377 244.646 252.338C244.646 252.299 244.646 252.299 244.646 252.26C244.724 247.151 248.936 243.095 254.045 243.173C256.814 243.212 259.388 244.499 261.104 246.644C262.976 241.925 268.358 239.585 273.116 241.496C276.626 242.9 278.927 246.293 278.927 250.076C278.927 250.349 278.927 249.92 278.888 250.934C282.554 248.126 287.819 248.828 290.666 252.494C293.084 255.692 292.928 260.138 290.276 263.141C290.276 263.141 294.644 264.935 294.059 271.721C293.357 279.092 283.295 284.786 283.295 284.786Z" fill="black" stroke="black" stroke-width="0.729268" stroke-miterlimit="10"/>
<path d="M263.482 312.32L268.318 303.272C270.424 299.294 273.661 296.018 277.561 293.834L283.645 290.48L286.141 292.976C288.013 294.848 288.013 297.89 286.141 299.723C286.102 299.762 286.024 299.84 285.985 299.879L274.87 309.98L271.555 306.431" fill="white"/>
<path d="M263.482 312.32L268.318 303.272C270.424 299.294 273.661 296.018 277.561 293.834L283.645 290.48L286.141 292.976C288.013 294.848 288.013 297.89 286.141 299.723C286.102 299.762 286.024 299.84 285.985 299.879L274.87 309.98L271.555 306.431" stroke="black" stroke-width="0.729268" stroke-miterlimit="10" stroke-linecap="round"/>
<path d="M173.044 106.634C202.251 106.634 225.928 82.9572 225.928 53.7502C225.928 24.5432 202.251 0.866211 173.044 0.866211C143.837 0.866211 120.16 24.5432 120.16 53.7502C120.16 82.9572 143.837 106.634 173.044 106.634Z" fill="white" stroke="black" stroke-miterlimit="10" stroke-linecap="round"/>
<path d="M165.477 20.5215H176.514C185.679 20.5215 193.557 27.0735 195.195 36.1215L195.936 40.0995C196.794 44.8185 200.889 48.2115 205.686 48.2115C211.848 48.2115 217.152 52.5015 218.439 58.5465L219.453 63.4215C220.545 68.6475 217.23 73.7955 212.004 74.8875C211.341 75.0435 210.678 75.0825 209.976 75.0825H173.55L165.477 20.5215Z" fill="black"/>
<path d="M209.156 84.9112C205.88 78.5542 199.133 74.7322 191.996 75.2392L190.592 75.3562L164.54 77.2282C164.15 77.2672 163.799 77.3062 163.409 77.3452C158.846 77.9692 154.673 80.3092 151.826 83.9362L141.842 96.5332C163.448 112.289 193.4 109.442 211.652 89.8642L209.156 84.9112Z" fill="white" stroke="black" stroke-width="0.729268" stroke-miterlimit="10" stroke-linecap="round"/>
<path d="M162.785 86.5096V74.4196C162.785 73.2886 163.682 72.3916 164.813 72.3916H187.589C188.72 72.3916 189.617 73.2886 189.617 74.4196V78.4366" fill="white"/>
<path d="M162.785 86.5096V74.4196C162.785 73.2886 163.682 72.3916 164.813 72.3916H187.589C188.72 72.3916 189.617 73.2886 189.617 74.4196V78.4366" stroke="black" stroke-width="0.729268" stroke-miterlimit="10"/>
<path d="M169.376 20.5215H152.177C147.809 20.5215 144.26 24.0315 144.26 28.3995C144.26 29.2965 144.416 30.1935 144.689 31.0515C145.508 33.3135 146.639 35.4195 148.043 37.3305C149.33 39.1245 150.032 41.2695 150.071 43.4925C150.071 47.7825 153.542 51.2535 157.832 51.2535H163.175L169.376 20.5215Z" fill="black"/>
<path d="M183.26 45.8721L185.951 76.4091L166.49 83.4681V46.1841" fill="#FC9797"/>
<path d="M166.49 83.4676V46.1836" stroke="black" stroke-width="0.729268" stroke-miterlimit="10" stroke-linecap="round"/>
<path d="M166.49 58.8202C166.49 58.8202 171.521 59.2882 175.226 56.9482C174.212 62.6422 166.49 69.1942 166.49 69.1942V58.8202Z" fill="black"/>
<path d="M170 59.2876C177.324 59.2876 183.26 53.3509 183.26 46.0276C183.26 38.7043 177.324 32.7676 170 32.7676C162.677 32.7676 156.74 38.7043 156.74 46.0276C156.74 53.3509 162.677 59.2876 170 59.2876Z" fill="#FC9797"/>
<path d="M175.188 58.2346C168.441 61.0426 160.68 57.8836 157.872 51.0976C155.064 44.3506 158.223 36.5896 165.009 33.7816C166.608 33.1186 168.285 32.7676 170.001 32.7676" stroke="black" stroke-width="0.729268" stroke-miterlimit="10" stroke-linecap="round"/>
<path d="M189.969 43.9218L184.041 56.9478C184.041 56.9478 176.982 56.9478 176.67 47.8998C181.038 46.2228 179.01 39.8268 176.007 40.8408C173.004 41.8548 173.316 48.9138 173.316 48.9138C173.316 48.9138 172.263 48.4848 171.834 44.0388C171.6 41.7768 169.728 40.0218 167.466 39.9438C162.942 39.6708 157.755 36.1218 154.713 30.7398C153.036 27.7758 152.178 24.4608 152.139 21.0678C160.992 20.8728 171.054 20.9118 178.425 20.9508C186.264 20.9508 192.582 27.3078 192.582 35.1078C192.582 37.0578 192.153 39.0078 191.373 40.8408L189.969 43.9218Z" fill="black"/>
<path d="M184.277 56.5968C184.277 56.5968 177.218 56.5968 176.906 47.5488C181.274 45.8718 179.246 39.4758 176.243 40.4898C173.24 41.5038 173.552 48.5628 173.552 48.5628C173.552 48.5628 172.499 48.1338 172.07 43.6878C171.836 41.4258 169.964 39.6708 167.702 39.5928C163.178 39.3198 157.991 35.7708 154.949 30.3888C153.272 27.4248 152.414 24.1098 152.375 20.7168" stroke="black" stroke-width="0.729268" stroke-miterlimit="10"/>
<path d="M185.954 76.4478L184.277 56.6357" stroke="black" stroke-width="0.729268" stroke-miterlimit="10" stroke-linecap="round"/>
<path d="M189.659 56.6357H184.277" stroke="black" stroke-width="0.729268" stroke-miterlimit="10" stroke-linecap="round"/>
<path d="M164.461 75.0829C164.461 75.0829 176.551 78.1249 187.627 74.4199C187.978 80.4649 175.186 92.2429 169.804 91.5409C164.422 90.8389 164.149 78.4369 164.461 75.0829Z" fill="white"/>
<path d="M164.463 75.0829C164.463 75.0829 176.553 78.1249 187.629 74.4199" stroke="black" stroke-width="0.905923" stroke-miterlimit="9.999"/>
<path d="M166.447 77.8906V82.4146Z" fill="#EF9D46"/>
<path d="M166.447 77.8906V82.4146" stroke="black" stroke-width="0.905923" stroke-miterlimit="9.999"/>
<path d="M170.816 78.5537V83.0777Z" fill="#EF9D46"/>
<path d="M170.816 78.5537V83.0777" stroke="black" stroke-width="0.905923" stroke-miterlimit="9.999"/>
<path d="M175.184 78.8662V83.3902Z" fill="#EF9D46"/>
<path d="M175.184 78.8662V83.3902" stroke="black" stroke-width="0.905923" stroke-miterlimit="9.999"/>
<path d="M179.863 78.8662V83.3902Z" fill="#EF9D46"/>
<path d="M179.863 78.8662V83.3902" stroke="black" stroke-width="0.905923" stroke-miterlimit="9.999"/>
<path d="M184.23 77.54V82.064Z" fill="#EF9D46"/>
<path d="M184.23 77.54V82.064" stroke="black" stroke-width="0.905923" stroke-miterlimit="9.999"/>
<path d="M278.535 199.103C286.647 154.994 267.927 110.261 230.838 85.0673C229.512 84.1703 227.679 84.5213 226.782 85.8473C225.885 87.1733 226.236 89.0063 227.562 89.9033C262.701 113.771 280.485 156.125 272.802 197.933L266.835 196.685L269.214 212.012C269.019 212.792 269.136 213.611 269.565 214.313L269.916 216.614C270.033 217.472 270.852 218.018 271.671 217.901C272.1 217.823 272.451 217.589 272.685 217.277L284.502 200.39L278.535 199.103Z" fill="#EF9D46" stroke="black" stroke-width="0.905923" stroke-miterlimit="9.999"/>
<path d="M214.382 282.017C213.797 280.535 212.12 279.755 210.638 280.34C186.497 289.778 159.704 290.09 135.329 281.276L138.02 275.66L117.935 273.944C117.077 273.866 116.336 274.49 116.258 275.348C116.219 275.777 116.375 276.167 116.648 276.479L130.259 291.962L132.833 286.58C143.48 290.519 154.673 292.781 166.022 293.366C167.972 293.483 169.961 293.522 171.911 293.522C185.912 293.522 199.796 290.909 212.822 285.8C214.226 285.215 214.967 283.538 214.382 282.017Z" fill="#EF9D46" stroke="black" stroke-width="0.905923" stroke-miterlimit="9.999"/>
<path d="M114.737 79.6465L94.7296 84.4825L98.1226 89.0455C65.3236 114.357 48.7486 156.009 55.6516 197.232C55.8856 198.636 57.0946 199.65 58.5376 199.65C58.6936 199.65 58.8495 199.65 59.0055 199.611C60.6045 199.338 61.6576 197.856 61.3846 196.257C54.8716 157.218 70.5496 117.711 101.594 93.7255L105.533 98.9905L116.414 81.9865C116.882 81.2845 116.687 80.3095 115.946 79.8415C115.595 79.6075 115.166 79.5295 114.737 79.6465Z" fill="#EF9D46" stroke="black" stroke-width="0.905923" stroke-miterlimit="9.999"/>
<path d="M168.324 237.401C197.94 237.401 221.949 213.393 221.949 183.776C221.949 154.16 197.94 130.151 168.324 130.151C138.708 130.151 114.699 154.16 114.699 183.776C114.699 213.393 138.708 237.401 168.324 237.401Z" fill="#CFEDFF" stroke="black" stroke-width="0.629617" stroke-miterlimit="10"/>
<path d="M141.841 114.473C153.386 114.473 162.745 105.114 162.745 93.569C162.745 82.0241 153.386 72.665 141.841 72.665C130.297 72.665 120.938 82.0241 120.938 93.569C120.938 105.114 130.297 114.473 141.841 114.473Z" fill="#EF9D46" stroke="black" stroke-width="0.905923" stroke-miterlimit="9.999"/>
<path d="M22.9704 321.68C34.5154 321.68 43.8744 312.321 43.8744 300.776C43.8744 289.231 34.5154 279.872 22.9704 279.872C11.4254 279.872 2.06641 289.231 2.06641 300.776C2.06641 312.321 11.4254 321.68 22.9704 321.68Z" fill="#EF9D46" stroke="black" stroke-width="0.905923" stroke-miterlimit="9.999"/>
<path d="M244.646 330.884C256.191 330.884 265.55 321.525 265.55 309.98C265.55 298.435 256.191 289.076 244.646 289.076C233.101 289.076 223.742 298.435 223.742 309.98C223.742 321.525 233.101 330.884 244.646 330.884Z" fill="#EF9D46" stroke="black" stroke-width="0.905923" stroke-miterlimit="9.999"/>
<path d="M127.956 90.9952L128.502 88.9282C128.619 88.4992 129.048 88.1872 129.516 88.2652L132.558 88.6552C132.909 88.6942 133.26 88.5382 133.455 88.2262C133.767 87.7192 134.157 87.2512 134.547 86.7832C134.781 86.5102 134.859 86.1592 134.742 85.8082L133.611 82.9222C133.455 82.4932 133.611 82.0252 134.001 81.7912L135.873 80.7382C136.263 80.5042 136.77 80.6212 137.043 80.9722L138.915 83.4292C139.149 83.7022 139.5 83.8582 139.851 83.7802C140.358 83.6632 140.865 83.6242 141.372 83.5852C141.723 83.5852 142.035 83.3512 142.152 83.0392L143.322 80.1532C143.478 79.7242 143.946 79.4902 144.414 79.6072L146.481 80.1532C146.91 80.2702 147.222 80.6992 147.144 81.1672L146.754 84.2092C146.715 84.5602 146.871 84.9112 147.183 85.1062C147.69 85.4182 148.158 85.8082 148.626 86.1982C148.899 86.4322 149.25 86.5102 149.601 86.3932L152.487 85.2622C152.916 85.1062 153.384 85.2622 153.618 85.6522L154.671 87.5242C154.905 87.9142 154.788 88.4212 154.437 88.6942L151.98 90.5662C151.707 90.8002 151.551 91.1512 151.629 91.5022C151.746 92.0092 151.785 92.5162 151.824 93.0232C151.824 93.3742 152.058 93.6862 152.37 93.8032L155.256 94.9732C155.685 95.1292 155.919 95.5972 155.802 96.0652L155.256 98.1322C155.139 98.5612 154.71 98.8732 154.242 98.7952L151.2 98.4052C150.849 98.3662 150.498 98.5222 150.303 98.8342C149.991 99.3412 149.601 99.8092 149.211 100.277C148.977 100.55 148.899 100.901 149.016 101.252L150.147 104.138C150.303 104.567 150.147 105.035 149.757 105.269L147.885 106.322C147.495 106.556 146.988 106.439 146.715 106.088L144.843 103.631C144.609 103.358 144.258 103.202 143.907 103.28C143.4 103.397 142.893 103.436 142.386 103.475C142.035 103.475 141.723 103.709 141.606 104.021L140.436 106.907C140.28 107.336 139.812 107.57 139.344 107.453L137.277 106.907C136.848 106.79 136.536 106.361 136.614 105.893L137.004 102.851C137.043 102.5 136.887 102.149 136.575 101.954C136.068 101.642 135.6 101.252 135.132 100.862C134.859 100.628 134.508 100.55 134.157 100.667L131.271 101.798C130.842 101.954 130.374 101.798 130.14 101.408L129.087 99.5362C128.853 99.1462 128.97 98.6392 129.321 98.3662L131.778 96.4942C132.051 96.2602 132.207 95.9092 132.129 95.5582C132.012 95.0512 131.973 94.5442 131.934 94.0372C131.934 93.6862 131.7 93.3742 131.388 93.2572L128.502 92.0872C128.073 91.8922 127.839 91.4242 127.956 90.9952Z" fill="#CFEDFF" stroke="black" stroke-width="0.75" stroke-miterlimit="10"/>
<path d="M141.842 99.7702C145.266 99.7702 148.043 96.9939 148.043 93.5692C148.043 90.1444 145.266 87.3682 141.842 87.3682C138.417 87.3682 135.641 90.1444 135.641 93.5692C135.641 96.9939 138.417 99.7702 141.842 99.7702Z" stroke="black" stroke-width="0.634146" stroke-miterlimit="10"/>
<path d="M141.842 96.1042C143.242 96.1042 144.377 94.9692 144.377 93.5692C144.377 92.1691 143.242 91.0342 141.842 91.0342C140.442 91.0342 139.307 92.1691 139.307 93.5692C139.307 94.9692 140.442 96.1042 141.842 96.1042Z" fill="black"/>
<path d="M249.426 305.573L250.596 300.191C250.674 299.879 250.947 299.684 251.259 299.684H256.758" stroke="black" stroke-width="0.45" stroke-miterlimit="10"/>
<path d="M232.852 303.389L235.894 315.674C236.011 316.298 236.557 316.727 237.181 316.727H248.608C249.232 316.727 249.739 316.298 249.895 315.713L252.976 303.428L233.07 303.389H232.852Z" fill="#CFEDFF" stroke="black" stroke-width="0.45" stroke-miterlimit="10"/>
<path d="M235.934 303.389L238.04 315.674C238.118 316.298 238.508 316.727 238.937 316.727H246.854C247.283 316.727 247.634 316.298 247.751 315.713L249.896 303.428H235.934V303.389Z" fill="#CFEDFF" stroke="black" stroke-width="0.45" stroke-miterlimit="10"/>
<path d="M238.975 303.389L240.184 315.674C240.223 316.298 240.457 316.727 240.691 316.727H245.215C245.449 316.727 245.683 316.298 245.722 315.713L246.931 303.428H238.975V303.389Z" fill="#CFEDFF" stroke="black" stroke-width="0.45" stroke-miterlimit="10"/>
<path d="M241.432 303.389L241.9 315.674C241.939 316.298 242.017 316.727 242.095 316.727H243.811C243.889 316.727 243.967 316.298 244.006 315.713L244.474 303.428H241.432V303.389Z" fill="#CFEDFF" stroke="black" stroke-width="0.45" stroke-miterlimit="10"/>
<path d="M250.287 314.035L248.883 319.573C248.766 320.08 248.298 320.47 247.752 320.47H236.52" stroke="black" stroke-width="0.45" stroke-miterlimit="10"/>
<path d="M252.43 305.573L253.756 300.191C253.834 299.879 254.107 299.683 254.419 299.683" stroke="black" stroke-width="0.45" stroke-miterlimit="10"/>
<path d="M246.112 323.084C246.564 323.084 246.931 322.682 246.931 322.187C246.931 321.692 246.564 321.29 246.112 321.29C245.66 321.29 245.293 321.692 245.293 322.187C245.293 322.682 245.66 323.084 246.112 323.084Z" fill="black" stroke="black" stroke-width="0.339721" stroke-miterlimit="10"/>
<path d="M251.804 299.099H257.147C257.459 299.099 257.693 299.333 257.693 299.645C257.693 299.957 257.459 300.191 257.147 300.191H251.804C251.492 300.191 251.258 299.957 251.258 299.645C251.258 299.372 251.492 299.099 251.804 299.099Z" fill="white" stroke="black" stroke-width="0.42" stroke-miterlimit="10"/>
<path d="M238.389 323.084C238.842 323.084 239.208 322.682 239.208 322.187C239.208 321.692 238.842 321.29 238.389 321.29C237.937 321.29 237.57 321.692 237.57 322.187C237.57 322.682 237.937 323.084 238.389 323.084Z" fill="black" stroke="black" stroke-width="0.339721" stroke-miterlimit="10"/>
<path d="M234.217 308.849H251.611Z" fill="#CFEDFF"/>
<path d="M234.217 308.849H251.611" stroke="black" stroke-width="0.45" stroke-miterlimit="10"/>
<path d="M233.475 305.846H252.312Z" fill="#CFEDFF"/>
<path d="M233.475 305.846H252.312" stroke="black" stroke-width="0.45" stroke-miterlimit="10"/>
<path d="M234.918 311.852H250.83Z" fill="#CFEDFF"/>
<path d="M234.918 311.852H250.83" stroke="black" stroke-width="0.45" stroke-miterlimit="10"/>
<path d="M235.738 314.815H250.09Z" fill="#CFEDFF"/>
<path d="M235.738 314.815H250.09" stroke="black" stroke-width="0.45" stroke-miterlimit="10"/>
<path d="M34.0467 291.455H11.9727V312.671H34.0467V291.455Z" fill="#CFEDFF" stroke="black" stroke-width="0.4" stroke-miterlimit="10"/>
<path d="M9.47512 295.745C10.2551 295.745 10.9571 295.355 11.2691 294.77L12.9461 291.377H10.2161L8.57812 294.653C8.53912 294.731 8.50012 294.848 8.50012 294.926C8.53912 295.433 8.96812 295.745 9.47512 295.745Z" fill="#F19D48"/>
<path d="M10.2164 291.494C10.1774 291.494 10.1384 291.455 10.1384 291.455C10.0994 291.416 10.1384 291.338 10.2164 291.338H12.9464C13.0244 291.338 13.0634 291.416 13.0634 291.455L12.6344 292.313L11.4254 294.77C11.1914 295.316 10.6064 295.706 9.94344 295.823C9.51444 295.901 9.08544 295.862 8.77344 295.628C8.46144 295.394 8.34444 295.004 8.50044 294.692C8.53944 294.575 8.77344 294.614 8.69544 294.731C8.69544 294.77 8.69544 294.77 8.65644 294.809C8.53944 295.16 8.81244 295.55 9.24144 295.628C9.67044 295.745 10.2164 295.589 10.5674 295.355C10.9574 295.121 11.1134 294.809 11.2694 294.458L11.8544 293.288L12.7904 291.377L12.9074 291.494H10.2164Z" fill="black"/>
<path d="M12.2055 295.745C12.9855 295.745 13.6875 295.355 13.9995 294.77L15.6765 291.377H12.9465L11.3085 294.653C11.2695 294.731 11.2305 294.848 11.2305 294.926C11.2695 295.433 11.6985 295.745 12.2055 295.745Z" fill="white"/>
<path d="M12.945 291.494C12.906 291.494 12.867 291.455 12.867 291.455C12.828 291.416 12.867 291.338 12.945 291.338H15.675C15.753 291.338 15.792 291.416 15.792 291.455L15.363 292.313L14.154 294.77C13.92 295.316 13.335 295.706 12.672 295.823C12.243 295.901 11.814 295.862 11.502 295.628C11.19 295.394 11.073 295.004 11.229 294.692C11.268 294.575 11.502 294.614 11.424 294.731C11.424 294.77 11.424 294.77 11.385 294.809C11.268 295.16 11.541 295.55 11.97 295.628C12.399 295.745 12.945 295.589 13.296 295.355C13.686 295.121 13.842 294.809 13.998 294.458L14.583 293.288L15.519 291.377L15.636 291.494H12.945Z" fill="black"/>
<path d="M14.8949 295.745C15.6749 295.745 16.4159 295.355 16.6889 294.77L18.3659 291.377H15.6359L13.9979 294.653C13.9589 294.731 13.9199 294.848 13.9199 294.926C13.9589 295.433 14.3879 295.745 14.8949 295.745Z" fill="#F19D48"/>
<path d="M15.6383 291.494C15.5993 291.494 15.5603 291.455 15.5603 291.455C15.5213 291.416 15.5603 291.338 15.6383 291.338H18.3683C18.4463 291.338 18.4853 291.416 18.4853 291.455L18.0563 292.313L16.8473 294.77C16.6133 295.316 16.0283 295.706 15.3653 295.823C14.9363 295.901 14.5073 295.862 14.1953 295.628C13.8833 295.394 13.7663 295.004 13.9223 294.692C13.9613 294.575 14.1953 294.614 14.1173 294.731C14.1173 294.77 14.1173 294.77 14.0783 294.809C13.9613 295.16 14.2343 295.55 14.6633 295.628C15.0923 295.745 15.6383 295.589 15.9893 295.355C16.3793 295.121 16.5353 294.809 16.6913 294.458L17.2763 293.288L18.2123 291.377L18.3293 291.494H15.6383Z" fill="black"/>
<path d="M17.6252 295.745C18.4052 295.745 19.1072 295.355 19.4192 294.77L21.0962 291.377H18.3662L16.7282 294.653C16.6892 294.731 16.6502 294.848 16.6502 294.926C16.6892 295.433 17.1182 295.745 17.6252 295.745Z" fill="white"/>
<path d="M18.3668 291.494C18.3278 291.494 18.2888 291.455 18.2888 291.455C18.2498 291.416 18.2888 291.338 18.3668 291.338H21.0968C21.1748 291.338 21.2138 291.416 21.2138 291.455L20.7848 292.313L19.5758 294.77C19.3418 295.316 18.7568 295.706 18.0938 295.823C17.6648 295.901 17.2358 295.862 16.9238 295.628C16.6118 295.394 16.4948 295.004 16.6508 294.692C16.6898 294.575 16.9238 294.614 16.8458 294.731C16.8458 294.77 16.8458 294.77 16.8068 294.809C16.6898 295.16 16.9628 295.55 17.3918 295.628C17.8208 295.745 18.3668 295.589 18.7178 295.355C19.1078 295.121 19.2638 294.809 19.4198 294.458L20.0048 293.288L20.9408 291.377L21.0578 291.494H18.3668Z" fill="black"/>
<path d="M20.3566 295.745C21.1366 295.745 21.8386 295.355 22.1506 294.77L23.8276 291.377H21.1366L19.4986 294.653C19.4596 294.731 19.4206 294.848 19.4206 294.926C19.3816 295.433 19.8106 295.745 20.3566 295.745Z" fill="#F19D48"/>
<path d="M21.0602 291.494C21.0212 291.494 20.9822 291.455 20.9822 291.455C20.9432 291.416 20.9822 291.338 21.0602 291.338H23.7902C23.8682 291.338 23.9072 291.416 23.9072 291.455L23.4782 292.313L22.2692 294.77C22.0352 295.316 21.4502 295.706 20.7872 295.823C20.3582 295.901 19.9292 295.862 19.6172 295.628C19.3052 295.394 19.1882 295.004 19.3442 294.692C19.3832 294.575 19.6172 294.614 19.5392 294.731C19.5392 294.77 19.5392 294.77 19.5002 294.809C19.3832 295.16 19.6562 295.55 20.0852 295.628C20.5142 295.745 21.0602 295.589 21.4112 295.355C21.8012 295.121 21.9572 294.809 22.1132 294.458L22.6982 293.288L23.6342 291.377L23.7512 291.494H21.0602Z" fill="black"/>
<path d="M23.0474 295.745C23.8274 295.745 24.5294 295.355 24.8414 294.77L26.5184 291.377H23.7884L22.1504 294.653C22.1114 294.731 22.0724 294.848 22.0724 294.926C22.1114 295.433 22.5404 295.745 23.0474 295.745Z" fill="white"/>
<path d="M23.7867 291.494C23.7477 291.494 23.7087 291.455 23.6697 291.455C23.6307 291.416 23.6697 291.338 23.7477 291.338H26.4777C26.5557 291.338 26.5947 291.416 26.5947 291.455L26.1657 292.313L24.9567 294.77C24.7227 295.316 24.1377 295.706 23.4747 295.823C23.0457 295.901 22.6167 295.862 22.3047 295.628C21.9927 295.394 21.8757 295.004 22.0317 294.692C22.0707 294.575 22.3047 294.614 22.2267 294.731C22.2267 294.77 22.2267 294.77 22.1877 294.809C22.0707 295.16 22.3437 295.55 22.7727 295.628C23.2017 295.745 23.7477 295.589 24.0987 295.355C24.4887 295.121 24.6447 294.809 24.8007 294.458L25.3857 293.288L26.3217 291.377L26.4387 291.494H23.7867Z" fill="black"/>
<path d="M25.7385 295.745C26.5185 295.745 27.2205 295.355 27.5325 294.77L29.2095 291.377H26.4795L24.8415 294.653C24.8025 294.731 24.7635 294.848 24.7635 294.926C24.8025 295.433 25.2315 295.745 25.7385 295.745Z" fill="#F19D48"/>
<path d="M26.4801 291.494C26.4411 291.494 26.4021 291.455 26.4021 291.455C26.3631 291.416 26.4021 291.338 26.4801 291.338H29.2101C29.2881 291.338 29.3271 291.416 29.3271 291.455L28.8981 292.313L27.6891 294.77C27.4551 295.316 26.8701 295.706 26.2071 295.823C25.7781 295.901 25.3491 295.862 25.0371 295.628C24.7251 295.394 24.6081 295.004 24.7641 294.692C24.8031 294.575 25.0371 294.614 24.9591 294.731C24.9591 294.77 24.9591 294.77 24.9201 294.809C24.8031 295.16 25.0761 295.55 25.5051 295.628C25.9341 295.745 26.4801 295.589 26.8311 295.355C27.2211 295.121 27.3771 294.809 27.5331 294.458L28.1181 293.288L29.0541 291.377L29.1711 291.494H26.4801Z" fill="black"/>
<path d="M28.4672 295.745C29.2472 295.745 29.9492 295.355 30.2612 294.77L31.9382 291.377H29.2082L27.5702 294.692C27.5312 294.77 27.4922 294.887 27.4922 294.965C27.5312 295.433 27.9602 295.745 28.4672 295.745Z" fill="white"/>
<path d="M29.2086 291.494C29.1696 291.494 29.1696 291.455 29.1306 291.455C29.0916 291.416 29.1306 291.338 29.2086 291.338H31.9386C32.0166 291.338 32.0556 291.416 32.0556 291.455L31.6266 292.313L30.4176 294.77C30.1836 295.316 29.5986 295.706 28.9356 295.823C28.5066 295.901 28.0776 295.862 27.7656 295.628C27.4536 295.394 27.3366 295.004 27.4926 294.692C27.5316 294.575 27.7656 294.614 27.6876 294.731C27.6876 294.77 27.6876 294.77 27.6486 294.809C27.5316 295.16 27.8046 295.55 28.2336 295.628C28.6626 295.745 29.2086 295.589 29.5596 295.355C29.9496 295.121 30.1056 294.809 30.2616 294.458L30.8466 293.288L31.7826 291.377L31.8996 291.494H29.2086Z" fill="black"/>
<path d="M31.1975 295.745C31.9775 295.745 32.6795 295.355 32.9915 294.77L34.6685 291.377H31.9385L30.3005 294.653C30.2615 294.731 30.2225 294.848 30.2225 294.926C30.2225 295.433 30.6515 295.745 31.1975 295.745Z" fill="#F19D48"/>
<path d="M31.9019 291.494C31.8629 291.494 31.8239 291.455 31.7849 291.455C31.7459 291.416 31.7849 291.338 31.8629 291.338H34.5929C34.6709 291.338 34.7099 291.416 34.7099 291.455L34.2809 292.313L33.0719 294.77C32.8379 295.316 32.2529 295.706 31.5899 295.823C31.1609 295.901 30.7319 295.862 30.4199 295.628C30.1079 295.394 29.9909 295.004 30.1469 294.692C30.1859 294.575 30.4199 294.614 30.3419 294.731C30.3419 294.77 30.3419 294.77 30.3029 294.809C30.1859 295.16 30.4589 295.55 30.8879 295.628C31.3169 295.745 31.8629 295.55 32.2139 295.355C32.6039 295.121 32.7599 294.809 32.9159 294.458L33.5009 293.288L34.4369 291.377L34.5539 291.494H31.9019Z" fill="black"/>
<path d="M33.891 295.745C34.71 295.745 35.373 295.355 35.685 294.77L37.362 291.377H34.632L32.994 294.653C32.955 294.731 32.916 294.848 32.916 294.926C32.955 295.433 33.345 295.745 33.891 295.745Z" fill="white"/>
<path d="M34.6305 291.494C34.5915 291.494 34.5525 291.455 34.5525 291.455C34.5135 291.416 34.5525 291.338 34.6305 291.338H37.3605C37.4385 291.338 37.4775 291.416 37.4775 291.455L37.0485 292.313L35.8395 294.77C35.6055 295.316 35.0205 295.706 34.3575 295.823C33.9285 295.901 33.4995 295.862 33.1875 295.628C32.8755 295.394 32.7585 295.004 32.9145 294.692C32.9535 294.575 33.1875 294.614 33.1095 294.731C33.1095 294.77 33.1095 294.77 33.0705 294.809C32.9535 295.16 33.2265 295.55 33.6555 295.628C34.0845 295.745 34.5915 295.589 34.9815 295.355C35.3715 295.121 35.5275 294.809 35.6835 294.458L36.2685 293.288L37.2045 291.377L37.3215 291.494H34.6305Z" fill="black"/>
<path d="M10.2553 291.455C10.2553 291.377 10.1383 291.338 10.0993 291.416C9.55335 292.508 9.04635 293.561 8.50035 294.653C8.46135 294.731 8.61735 294.77 8.65635 294.692C9.20235 293.639 9.70935 292.547 10.2553 291.455Z" fill="black"/>
<path d="M23.516 311.306C27.4146 311.306 30.575 308.145 30.575 304.246C30.575 300.348 27.4146 297.188 23.516 297.188C19.6175 297.188 16.457 300.348 16.457 304.246C16.457 308.145 19.6175 311.306 23.516 311.306Z" stroke="black" stroke-width="0.4" stroke-miterlimit="10.0002"/>
<path d="M25.7029 302.141C25.8589 302.726 26.4049 303.155 26.9899 303.194L28.3939 303.233V305.729L18.2539 305.807C18.4099 304.832 19.1119 304.052 20.0479 303.74L22.8169 302.804C23.1289 302.687 23.3239 302.414 23.3239 302.102C23.3239 301.829 23.2849 301.517 23.2849 301.127L24.4549 301.166C25.0009 301.127 25.5469 301.517 25.7029 302.141Z" fill="white" stroke="black" stroke-width="0.3" stroke-miterlimit="10"/>
<path d="M28.3939 305.065L27.6529 305.143C27.3409 305.182 27.0679 305.26 26.8339 305.377C26.5219 305.533 26.2099 305.611 25.8589 305.611L18.2539 305.767V306.703L28.4329 306.781L28.3939 305.065Z" fill="#F19D48" stroke="black" stroke-width="0.3" stroke-miterlimit="10"/>
<path d="M21.4531 304.13C21.8041 304.091 22.2331 304.052 22.7401 304.013C26.0161 303.662 25.5871 301.907 25.5871 301.907" stroke="black" stroke-width="0.3" stroke-miterlimit="10"/>
<path d="M22.5829 303.35C22.5049 302.687 21.9199 302.765 21.9199 302.765" stroke="black" stroke-width="0.3" stroke-miterlimit="10" stroke-linecap="round"/>
<path d="M23.0107 303.038C22.9327 302.375 22.3477 302.453 22.3477 302.453" stroke="black" stroke-width="0.3" stroke-miterlimit="10" stroke-linecap="round"/>
<path d="M23.4403 302.726C23.3623 302.063 22.7773 302.141 22.7773 302.141" stroke="black" stroke-width="0.3" stroke-miterlimit="10" stroke-linecap="round"/>
<path d="M21.9583 302.297C21.2173 302.141 20.3983 301.595 20.7883 301.283C21.1783 300.971 21.8803 301.4 21.7243 301.712C21.5683 302.024 20.9443 301.166 21.4513 300.776C21.9973 300.425 22.2313 302.063 22.2313 302.063" stroke="black" stroke-width="0.3" stroke-miterlimit="10" stroke-linecap="round"/>
<path d="M176.826 214.04L166.335 218.72C165.633 219.032 164.775 218.72 164.424 218.018C164.112 217.355 164.346 216.536 165.009 216.185L176.943 209.126" stroke="#1D2B47" stroke-width="0.452962" stroke-miterlimit="10" stroke-linecap="round"/>
<path d="M186.418 179.291C186.418 169.58 178.54 161.702 168.829 161.702C159.118 161.702 151.24 169.58 151.24 179.291C151.24 184.205 153.307 188.924 156.934 192.239C159.157 194.306 160.444 197.192 160.444 200.234V208.463H177.175V200.195C177.175 197.153 178.462 194.267 180.724 192.2C184.39 188.885 186.418 184.205 186.418 179.291Z" fill="#EF9D46" stroke="black" stroke-width="0.7" stroke-miterlimit="9.999"/>
<path d="M167.427 203.432V174.689C167.427 174.065 166.881 173.558 166.218 173.558H165.945C165.321 173.558 164.775 174.065 164.736 174.689C164.736 175.313 165.282 175.82 165.945 175.82H171.678C172.302 175.82 172.848 175.313 172.887 174.689C172.887 174.065 172.341 173.558 171.678 173.558H171.132C170.508 173.558 169.962 174.065 169.923 174.689V203.432" stroke="black" stroke-width="0.7" stroke-miterlimit="10"/>
<path d="M177.334 209.828H177.217V208.424H177.334C178.036 208.385 178.621 207.8 178.582 207.098C178.543 206.396 177.997 205.85 177.334 205.85H177.217V203.471H160.486V205.85H160.174C159.472 205.889 158.887 206.474 158.926 207.176C158.965 207.878 159.511 208.424 160.174 208.424H160.486V209.828H160.174C159.472 209.828 158.887 210.413 158.887 211.115C158.887 211.817 159.472 212.402 160.174 212.402H160.525C160.837 216.77 164.464 220.163 168.871 220.163C173.278 220.163 176.905 216.77 177.217 212.402H177.334C178.036 212.402 178.621 211.817 178.621 211.115C178.621 210.374 178.075 209.828 177.334 209.828Z" fill="white" stroke="black" stroke-width="0.7" stroke-miterlimit="10"/>
<path d="M177.254 205.811H165.164Z" fill="white"/>
<path d="M177.254 205.811H165.164" stroke="black" stroke-width="0.7" stroke-miterlimit="10"/>
<path d="M160.523 208.463H171.872Z" fill="white"/>
<path d="M160.523 208.463H171.872" stroke="black" stroke-width="0.7" stroke-miterlimit="10"/>
<path d="M177.253 209.828H168.361Z" fill="white"/>
<path d="M177.253 209.828H168.361" stroke="black" stroke-width="0.7" stroke-miterlimit="10"/>
<path d="M160.523 212.402H171.521Z" fill="white"/>
<path d="M160.523 212.402H171.521" stroke="black" stroke-width="0.7" stroke-miterlimit="10"/>
<path d="M170.118 219.11V220.631C170.118 221.567 169.338 222.347 168.402 222.347C167.466 222.347 166.686 221.567 166.686 220.631V218.72" fill="white"/>
<path d="M170.118 219.11V220.631C170.118 221.567 169.338 222.347 168.402 222.347C167.466 222.347 166.686 221.567 166.686 220.631V218.72" stroke="black" stroke-width="0.7" stroke-miterlimit="10"/>
<path d="M156.142 184.113C155.362 184.113 154.699 183.528 154.621 182.748C154.504 181.695 154.465 180.681 154.465 179.628C154.504 178.77 155.206 178.107 156.025 178.146C156.883 178.185 157.546 178.887 157.507 179.706C157.468 180.603 157.507 181.5 157.624 182.397C157.702 183.216 157.117 183.996 156.298 184.074C156.259 184.113 156.22 184.113 156.142 184.113Z" fill="white" stroke="black" stroke-width="0.7" stroke-miterlimit="10"/>
<path d="M156.519 176.047C155.662 176.002 155.035 175.306 155.08 174.449C155.088 174.293 155.135 174.139 155.182 173.985C156.986 168.652 159.5 166.87 162.343 165.535C163.065 165.183 163.946 165.502 164.34 166.187C164.73 166.949 164.486 167.874 163.721 168.302C163.682 168.3 163.68 168.339 163.641 168.337L163.401 168.442C163.242 168.512 159.64 170.158 158.06 174.957C157.829 175.648 157.181 176.082 156.519 176.047Z" fill="white" stroke="black" stroke-width="0.7" stroke-miterlimit="10"/>
<path d="M156.664 153.355L158.575 157.294Z" fill="#CFEDFF"/>
<path d="M156.664 153.355L158.575 157.294" stroke="black" stroke-width="0.8" stroke-miterlimit="10" stroke-linecap="round"/>
<path d="M180.14 153.355L178.736 157.294Z" fill="#CFEDFF"/>
<path d="M180.14 153.355L178.736 157.294" stroke="black" stroke-width="0.8" stroke-miterlimit="10" stroke-linecap="round"/>
<path d="M190.943 170.243L193.985 169.034Z" fill="#CFEDFF"/>
<path d="M190.943 170.243L193.985 169.034" stroke="black" stroke-width="0.8" stroke-miterlimit="10" stroke-linecap="round"/>
<path d="M189.148 187.637L190.981 188.456Z" fill="#CFEDFF"/>
<path d="M189.148 187.637L190.981 188.456" stroke="black" stroke-width="0.8" stroke-miterlimit="10" stroke-linecap="round"/>
<path d="M145.741 170.243L141.607 169.619Z" fill="#CFEDFF"/>
<path d="M145.741 170.243L141.607 169.619" stroke="black" stroke-width="0.8" stroke-miterlimit="10" stroke-linecap="round"/>
<path d="M149.369 188.456L146.951 190.562Z" fill="#CFEDFF"/>
<path d="M149.369 188.456L146.951 190.562" stroke="black" stroke-width="0.8" stroke-miterlimit="10" stroke-linecap="round"/>
</g>
<defs>
<clipPath id="clip0_1_56">
<rect width="326" height="332" fill="white"/>
</clipPath>
</defs>
</svg>
