<svg width="13" height="12" viewBox="0 0 13 12" fill="none" xmlns="http://www.w3.org/2000/svg">
<path d="M12.15 6.00262L12.15 6.00262C12.1488 6.07249 12.1417 6.1511 12.1121 6.23285C12.0823 6.31518 12.0326 6.39297 11.9563 6.4674L7.6918 10.9388L12.15 6.00262ZM12.15 6.00262V6.00014M12.15 6.00262V6.00014M12.15 6.00014C12.15 5.91214 12.124 5.82048 12.0911 5.74378C12.0581 5.667 12.0117 5.59021 11.958 5.5344C11.9579 5.53429 11.9578 5.53418 11.9577 5.53407L7.69162 1.06071L7.69163 1.0607M12.15 6.00014L7.69163 1.0607M7.69163 1.0607L7.69018 1.05922M7.69163 1.0607L7.69018 1.05922M7.69018 1.05922C7.4362 0.800158 7.0226 0.771115 6.72936 1.03151L6.72931 1.03155M7.69018 1.05922L6.72931 1.03155M6.72931 1.03155C6.45469 1.2756 6.45231 1.73338 6.69965 1.99165M6.72931 1.03155L6.69965 1.99165M6.69965 1.99165L6.69983 1.99184M6.69965 1.99165L6.69983 1.99184M6.69983 1.99184L9.88233 5.32369H1.53329C1.15765 5.32369 0.85 5.62472 0.85 5.99997C0.85 6.37549 1.15791 6.67625 1.53329 6.67625H9.88233L6.69984 10.0081C6.69979 10.0081 6.69975 10.0082 6.69971 10.0082C6.44825 10.2707 6.46878 10.7159 6.72456 10.9638C6.99759 11.2286 7.44098 11.2026 7.69161 10.939L6.69983 1.99184Z" fill="#1C75BC" stroke="#1C75BC" stroke-width="0.3"/>
</svg>
