<svg width="11" height="11" viewBox="0 0 11 11" fill="none" xmlns="http://www.w3.org/2000/svg">
<path d="M5.5 0C2.46814 0 0 2.46812 0 5.5C0 8.53188 2.46812 11 5.5 11C8.53188 11 11 8.53188 11 5.5C11 2.46812 8.53188 0 5.5 0ZM5.74379 1.87393C6.27709 1.87393 6.68836 2.30053 6.68836 2.8338C6.68836 3.36706 6.26177 3.79366 5.74379 3.79366C5.2105 3.79366 4.78393 3.35188 4.78393 2.81859C4.78393 2.3005 5.22581 1.87393 5.74379 1.87393ZM7.09975 8.31853C7.08455 8.39473 7.02355 8.48613 6.96265 8.54702C6.61227 8.89741 6.20088 9.11071 5.69811 9.11071C5.46962 9.11071 5.22584 9.11071 4.99723 9.0802C4.61634 9.01931 4.12875 8.54691 4.20495 8.04425C4.25065 7.69386 4.31165 7.35868 4.35735 7.00829C4.46405 6.41411 4.57064 5.81993 4.66203 5.22574C4.66203 5.19524 4.67723 5.14954 4.67723 5.11904C4.67723 4.87525 4.60103 4.78386 4.35723 4.75336C4.25053 4.73817 4.14394 4.72286 4.03723 4.69247C3.91534 4.64677 3.85444 4.55537 3.86964 4.44868C3.88483 4.34198 3.94584 4.28108 4.08293 4.25058C4.15913 4.23539 4.23533 4.23539 4.29622 4.23539H5.17988H6.10924C6.33773 4.23539 6.45963 4.34209 6.47492 4.57057C6.47492 4.75336 6.44442 4.93624 6.41402 5.11904C6.29212 5.80461 6.17023 6.475 6.04834 7.16057C6.00265 7.38906 5.95695 7.61766 5.94164 7.83095C5.92645 7.93765 5.94164 8.05944 5.97214 8.16613C6.00265 8.30323 6.10924 8.37943 6.26165 8.36423C6.38354 8.34903 6.50544 8.30333 6.61203 8.25753C6.70343 8.22703 6.79483 8.15083 6.88622 8.12043C7.02352 8.07473 7.14544 8.16614 7.09975 8.31853Z" fill="#00AEEF"/>
</svg>
