<svg width="355" height="332" viewBox="0 0 355 332" fill="none" xmlns="http://www.w3.org/2000/svg">
<path d="M354.266 222.691C343.103 247.446 326.625 269.439 306.004 287.109C285.383 304.778 261.123 317.691 234.95 324.928C208.776 332.166 181.33 333.551 154.56 328.986C127.79 324.422 102.354 314.018 80.0583 298.515C57.7624 283.012 39.1536 262.79 25.5536 239.285C11.9536 215.78 3.69615 189.568 1.36763 162.512C-0.960885 135.456 2.6967 108.22 12.0806 82.7364C21.4645 57.2532 36.3445 34.1489 55.6637 15.0644L126.223 86.4918C117.391 95.217 110.588 105.78 106.297 117.431C102.007 129.081 100.335 141.534 101.4 153.903C102.464 166.273 106.239 178.257 112.457 189.003C118.675 199.749 127.183 208.995 137.376 216.082C147.57 223.17 159.199 227.926 171.437 230.013C183.676 232.1 196.224 231.467 208.191 228.158C220.157 224.849 231.248 218.946 240.676 210.867C250.104 202.789 257.637 192.734 262.741 181.416L354.266 222.691Z" fill="#F7E3CB"/>
<g clip-path="url(#clip0_1_163)">
<path d="M183.945 273.663C247.108 273.663 298.312 222.601 298.312 159.613C298.312 96.6242 247.108 45.562 183.945 45.562C120.782 45.562 69.5781 96.6242 69.5781 159.613C69.5781 222.601 120.782 273.663 183.945 273.663Z" fill="#CFEDFF" stroke="black" stroke-width="1.43" stroke-miterlimit="10"/>
<path d="M292.232 149.52C287.068 149.52 282.861 145.325 282.861 140.175C282.861 135.025 278.655 130.83 273.49 130.83H241.046C233.966 130.83 228.26 136.562 228.26 143.581V143.996C228.468 150.891 234.132 156.332 241.046 156.332H250V172.53C250 177.68 254.207 181.875 259.371 181.875H296.147C298.271 171.325 298.854 160.526 297.938 149.811C297.188 149.603 296.439 149.52 295.647 149.52H292.232Z" fill="#A7D7FC" stroke="black" stroke-width="1.43" stroke-miterlimit="10" stroke-linecap="round"/>
<path d="M145.837 132.491H130.885C124.055 132.491 118.516 126.967 118.516 120.156C118.516 115.006 114.309 110.811 109.145 110.811H80.6155C67.1213 139.137 65.9552 171.74 77.3669 200.938C77.8667 202.268 78.4081 203.555 78.9912 204.843H106.188C121.265 204.843 133.468 192.673 133.468 177.638V170.37C133.468 163.558 139.007 158.034 145.837 158.034C152.668 158.034 158.623 152.303 158.623 145.284C158.623 138.265 152.917 132.491 145.837 132.491Z" fill="#A7D7FC" stroke="black" stroke-width="1.43" stroke-miterlimit="10" stroke-linecap="round"/>
<path d="M168.91 46.5173V64.8335C168.91 76.8367 178.656 86.5139 190.651 86.5555C202.687 86.5555 212.433 96.2743 212.433 108.277V110.811C212.433 117.622 217.972 123.146 224.803 123.146H256.789C263.619 123.146 269.158 117.622 269.158 110.811H287.275C265.826 65.415 217.389 40.0381 168.91 46.5173Z" fill="#A7D7FC" stroke="black" stroke-width="1.43" stroke-miterlimit="10" stroke-linecap="round"/>
<path d="M266.201 191.22H278.987C282.278 191.22 284.943 193.878 284.943 197.159C284.943 200.44 282.278 203.098 278.987 203.098H266.201C262.911 203.098 260.246 200.44 260.246 197.159C260.204 193.878 262.869 191.22 266.201 191.22Z" fill="#A7D7FC" stroke="black" stroke-width="1.43" stroke-miterlimit="10" stroke-linecap="round"/>
<path d="M129.636 104.623C129.636 101.217 132.426 98.434 135.842 98.434H145.462C145.462 94.1976 148.919 90.7919 153.126 90.7919H156.541C160.789 90.7919 164.204 94.2392 164.204 98.434V103.127C164.204 107.364 160.747 110.769 156.541 110.769H135.842C132.385 110.769 129.636 108.028 129.636 104.623Z" fill="#A7D7FC" stroke="black" stroke-width="1.43" stroke-miterlimit="10" stroke-linecap="round"/>
<path d="M222.637 224.82H229.884C232.966 224.82 235.423 227.312 235.423 230.344C235.423 233.418 232.924 235.868 229.884 235.868H222.637C219.555 235.868 217.098 233.376 217.098 230.344C217.098 227.312 219.597 224.82 222.637 224.82Z" fill="#A7D7FC" stroke="black" stroke-width="1.43" stroke-miterlimit="10" stroke-linecap="round"/>
<path d="M221.304 251.194H219.18C211.267 251.194 204.853 244.798 204.853 236.906C204.853 222.577 193.192 210.948 178.823 210.99C164.454 210.99 152.792 222.577 152.792 236.906C152.792 241.683 148.878 245.587 144.088 245.587H143.755L125.138 244.881C120.848 244.715 116.683 246.501 113.809 249.74C145.546 274.328 187.944 280.475 225.386 265.938C228.718 264.651 231.966 263.197 235.132 261.619C233.383 255.43 227.76 251.194 221.304 251.194Z" fill="#A7D7FC" stroke="black" stroke-width="1.43" stroke-miterlimit="10" stroke-linecap="round"/>
<path d="M278.529 119.367C290.421 119.367 300.062 109.753 300.062 97.8942C300.062 86.0351 290.421 76.4215 278.529 76.4215C266.637 76.4215 256.997 86.0351 256.997 97.8942C256.997 109.753 266.637 119.367 278.529 119.367Z" fill="black"/>
<path d="M278.029 118.453C289.921 118.453 299.562 108.84 299.562 96.9805C299.562 85.1214 289.921 75.5077 278.029 75.5077C266.138 75.5077 256.497 85.1214 256.497 96.9805C256.497 108.84 266.138 118.453 278.029 118.453Z" fill="white"/>
<path d="M278.029 118.578C272.24 118.578 266.826 116.335 262.744 112.265C258.663 108.194 256.414 102.754 256.372 97.0219C256.372 91.2488 258.621 85.8494 262.702 81.7376C266.784 77.6674 272.24 75.4246 277.988 75.383H278.029C283.818 75.383 289.233 77.6258 293.314 81.6961C297.396 85.7664 299.645 91.2072 299.686 96.9389C299.686 102.712 297.437 108.111 293.356 112.223C289.274 116.293 283.818 118.536 278.029 118.578ZM278.029 75.5907C266.201 75.5907 256.58 85.1849 256.58 96.9804C256.58 108.776 266.201 118.329 278.029 118.329H278.071C289.899 118.329 299.478 108.734 299.478 96.9389C299.478 91.2488 297.229 85.8494 293.189 81.8207C289.108 77.8335 283.735 75.5907 278.029 75.5907Z" fill="white"/>
<mask id="mask0_1_163" style="mask-type:luminance" maskUnits="userSpaceOnUse" x="256" y="75" width="44" height="44">
<path d="M278.029 118.453C289.921 118.453 299.562 108.84 299.562 96.9805C299.562 85.1214 289.921 75.5077 278.029 75.5077C266.138 75.5077 256.497 85.1214 256.497 96.9805C256.497 108.84 266.138 118.453 278.029 118.453Z" fill="white"/>
</mask>
<g mask="url(#mask0_1_163)">
<path d="M268.283 95.1943C268.283 95.1943 269.075 88.7151 271.449 85.6417H283.652C283.652 85.6417 286.067 88.9643 287.65 95.1943H268.283Z" fill="black"/>
<path d="M273.115 92.4531L272.657 100.386L277.571 105.079L282.569 100.386L281.986 92.5362L273.115 92.4531Z" fill="#FC9797"/>
<path d="M277.571 105.329C277.529 105.329 277.446 105.328 277.404 105.287L272.49 100.552C272.448 100.511 272.407 100.428 272.407 100.386L272.906 92.4531C272.906 92.3285 272.99 92.2455 273.115 92.2455L281.944 92.3285C282.069 92.3285 282.152 92.4116 282.152 92.5362L282.735 100.386C282.735 100.469 282.736 100.511 282.652 100.552L277.654 105.245C277.696 105.287 277.613 105.329 277.571 105.329ZM272.865 100.303L277.571 104.789L282.319 100.303L281.736 92.7854L273.323 92.6608L272.865 100.303Z" fill="black"/>
<path d="M277.28 92.5777L273.031 94.4052C273.864 95.2774 276.738 98.1017 281.361 98.6416C281.736 98.6832 282.111 98.7247 282.444 98.7247L281.986 92.5777H277.28Z" fill="black"/>
<path d="M277.529 96.025C281.347 96.025 284.443 92.9382 284.443 89.1305C284.443 85.3227 281.347 82.2359 277.529 82.2359C273.711 82.2359 270.615 85.3227 270.615 89.1305C270.615 92.9382 273.711 96.025 277.529 96.025Z" fill="#FC9797"/>
<path d="M277.529 96.2742C273.572 96.2742 270.365 93.0761 270.365 89.1305C270.365 85.1848 273.572 81.9867 277.529 81.9867C281.486 81.9867 284.693 85.1848 284.693 89.1305C284.693 93.0761 281.486 96.2742 277.529 96.2742ZM277.529 82.4436C273.822 82.4436 270.824 85.434 270.824 89.1305C270.824 92.8269 273.822 95.8173 277.529 95.8173C281.236 95.8173 284.234 92.8269 284.234 89.1305C284.234 85.4755 281.236 82.4436 277.529 82.4436Z" fill="black"/>
<path d="M277.529 82.2357C273.697 82.2357 270.49 85.2262 270.49 89.0472C270.49 89.7533 270.699 90.5424 270.907 91.207C273.947 90.3348 276.53 88.2581 278.029 85.4754L279.57 82.568C278.945 82.3603 278.237 82.2357 277.529 82.2357Z" fill="black"/>
<path d="M277.613 82.2359L279.279 84.4372C280.528 86.1401 282.194 87.4691 284.152 88.3413L284.443 88.4659C284.318 84.7695 281.195 82.1529 277.613 82.2359Z" fill="black"/>
<path d="M276.197 92.8269C276.655 93.1592 277.238 93.4084 277.904 93.4084C279.32 93.4084 280.486 92.3701 280.695 90.9995L276.197 92.8269Z" fill="white"/>
<path d="M294.772 109.648C290.649 102.006 282.611 100.386 282.527 100.386L281.153 103.044L277.571 104.581L274.198 103.21L272.657 100.386C267.825 101.84 263.785 105.204 261.495 109.731L259.662 113.344C263.91 118.91 270.616 122.482 278.154 122.482C285.693 122.482 292.481 118.868 296.729 113.261L294.772 109.648Z" fill="#CFEDFF"/>
<path d="M277.571 104.581L274.614 105.495C273.656 105.785 272.657 105.079 272.657 104.082V100.386L277.571 104.581Z" fill="white"/>
<path d="M274.156 105.785C273.781 105.785 273.448 105.661 273.156 105.453C272.698 105.121 272.448 104.622 272.448 104.082V100.386C272.448 100.303 272.49 100.22 272.573 100.178C272.657 100.137 272.74 100.137 272.823 100.22L277.779 104.415C277.821 104.456 277.863 104.539 277.863 104.622C277.863 104.705 277.779 104.747 277.696 104.789L274.739 105.702C274.489 105.785 274.322 105.785 274.156 105.785ZM272.865 100.843V104.041C272.865 104.456 273.073 104.83 273.406 105.079C273.739 105.328 274.156 105.412 274.531 105.287L277.113 104.498L272.865 100.843Z" fill="black"/>
<path d="M277.613 104.581L280.57 105.495C281.528 105.785 282.527 105.079 282.527 104.082L282.569 100.386L277.613 104.581Z" fill="white"/>
<path d="M281.028 105.785C280.861 105.785 280.695 105.744 280.528 105.702L277.571 104.789C277.488 104.747 277.446 104.705 277.404 104.622C277.404 104.539 277.404 104.456 277.488 104.415L282.444 100.22C282.527 100.178 282.611 100.137 282.694 100.178C282.777 100.22 282.819 100.303 282.819 100.386L282.777 104.082C282.777 104.622 282.527 105.121 282.069 105.453C281.736 105.661 281.361 105.785 281.028 105.785ZM278.029 104.498L280.611 105.287C280.986 105.412 281.403 105.328 281.736 105.079C282.069 104.83 282.277 104.456 282.277 104.041L282.319 100.843L278.029 104.498Z" fill="black"/>
<path d="M277.613 114.923C277.488 114.923 277.404 114.84 277.404 114.715V106.616C277.404 106.491 277.488 106.408 277.613 106.408C277.738 106.408 277.821 106.491 277.821 106.616V114.715C277.821 114.84 277.696 114.923 277.613 114.923Z" fill="white"/>
</g>
<path d="M278.029 118.661C266.035 118.661 256.289 108.942 256.289 96.9805C256.289 91.1658 258.538 85.7249 262.661 81.6131C266.784 77.5013 272.24 75.2585 278.029 75.2585H278.071C283.86 75.2585 289.316 77.5013 293.439 81.6131C297.563 85.7249 299.812 91.1658 299.812 96.9389C299.812 108.901 290.066 118.661 278.029 118.661ZM278.029 75.7154C266.243 75.7154 256.705 85.2681 256.705 97.022C256.705 108.776 266.285 118.246 278.029 118.246H278.071C289.816 118.246 299.395 108.693 299.354 96.9389C299.354 91.2489 297.105 85.9326 293.106 81.9039C289.066 77.9167 283.735 75.7154 278.029 75.7154Z" fill="black"/>
<path d="M60.7908 188.08C77.7892 188.08 91.5691 174.338 91.5691 157.387C91.5691 140.435 77.7892 126.693 60.7908 126.693C43.7924 126.693 30.0125 140.435 30.0125 157.387C30.0125 174.338 43.7924 188.08 60.7908 188.08Z" fill="black"/>
<path d="M60.1657 186.414C77.1641 186.414 90.944 172.673 90.944 155.721C90.944 138.77 77.1641 125.028 60.1657 125.028C43.1673 125.028 29.3873 138.77 29.3873 155.721C29.3873 172.673 43.1673 186.414 60.1657 186.414Z" fill="white"/>
<path d="M60.2073 186.61C59.6242 186.61 58.9995 186.61 58.4164 186.568C41.3405 185.613 28.2628 170.951 29.2624 153.964C29.7205 145.741 33.3856 138.14 39.5912 132.658C45.7552 127.175 53.7101 124.393 61.9982 124.849C70.2446 125.306 77.8663 128.961 83.3639 135.15C88.8615 141.297 91.652 149.23 91.1939 157.495C90.1943 173.9 76.4919 186.61 60.2073 186.61ZM60.124 125.265C52.6273 125.265 45.4637 127.964 39.8411 132.99C33.7604 138.389 30.137 145.865 29.6789 154.006C28.721 170.785 41.632 185.197 58.4164 186.153C75.2424 187.108 89.6945 174.233 90.6524 157.495C91.1106 149.354 88.4034 141.546 82.9474 135.482C77.5331 129.418 70.0364 125.805 61.8732 125.348C61.3318 125.265 60.7487 125.265 60.124 125.265Z" fill="white"/>
<mask id="mask1_1_163" style="mask-type:luminance" maskUnits="userSpaceOnUse" x="29" y="125" width="62" height="62">
<path d="M60.1657 186.414C77.1641 186.414 90.944 172.673 90.944 155.721C90.944 138.77 77.1641 125.028 60.1657 125.028C43.1673 125.028 29.3873 138.77 29.3873 155.721C29.3873 172.673 43.1673 186.414 60.1657 186.414Z" fill="white"/>
</mask>
<g mask="url(#mask1_1_163)">
<path d="M60.5405 163.932H62.1231C73.8264 163.808 83.947 172.031 86.196 183.536L88.2785 194.21L35.0932 194.75L36.9257 184.035C38.8832 172.53 48.8372 164.057 60.5405 163.932Z" fill="#CFEDFF"/>
<path d="M69.9947 165.137C67.4125 164.306 64.6221 163.891 61.7483 163.891H60.957C57.9166 163.932 54.9596 164.472 52.2524 165.469C53.5019 169.207 57.042 171.865 61.1652 171.824C65.3717 171.824 68.9119 168.999 69.9947 165.137Z" fill="#FC9797"/>
<path d="M61.0819 172.322C56.8754 172.322 53.1687 169.664 51.8359 165.635C51.7526 165.428 51.8776 165.178 52.0858 165.095C54.9179 164.057 57.9166 163.517 60.9153 163.475H61.7067C64.5388 163.434 67.3709 163.849 70.078 164.721C70.2863 164.805 70.4529 165.054 70.3696 165.261C69.2034 169.373 65.4134 172.281 61.1236 172.322H61.0819ZM52.8355 165.801C54.1683 169.249 57.4585 171.491 61.2069 171.45C64.9552 171.408 68.2871 168.958 69.4949 165.469C66.996 164.721 64.4138 164.348 61.8316 164.389H61.0403C58.1665 164.389 55.4177 164.888 52.8355 165.801Z" fill="black"/>
<path d="M65.8825 152.616L56.054 152.723L56.1978 165.764L66.0263 165.656L65.8825 152.616Z" fill="#FC9797"/>
<path d="M56.1677 166.175C56.0427 166.175 55.9594 166.134 55.8761 166.051C55.7928 165.968 55.7512 165.843 55.7512 165.718L55.6263 152.677C55.6263 152.428 55.8345 152.22 56.0844 152.22L65.9135 152.096C66.0384 152.096 66.1633 152.137 66.2466 152.22C66.3299 152.303 66.3716 152.428 66.3716 152.552L66.4965 165.594C66.4965 165.843 66.2883 166.051 66.0384 166.051L56.1677 166.175ZM56.5009 153.134L56.6258 165.303L65.5803 165.22L65.4553 153.051L56.5009 153.134Z" fill="black"/>
<path d="M65.8715 153.715L56.0424 153.84L56.0841 157.578C56.5006 158.284 58.1249 160.776 61.3318 161.773C63.331 162.396 65.0385 162.188 65.9548 162.022L65.8715 153.715Z" fill="black"/>
<path d="M67.4125 149.894L59.5409 148.067L51.5861 149.977L51.4611 136.728L67.2043 136.562L67.4125 149.894Z" fill="black"/>
<path d="M59.5956 158.484C63.9657 158.436 67.4653 154.492 67.4122 149.676C67.359 144.859 63.7733 140.993 59.4032 141.041C55.0331 141.089 51.5335 145.032 51.5866 149.849C51.6398 154.666 55.2255 158.532 59.5956 158.484Z" fill="#FC9797"/>
<path d="M59.5409 158.948C57.3336 158.948 55.2511 158.035 53.6685 156.332C52.0858 154.629 51.2112 152.345 51.1696 149.894C51.1279 144.827 54.8346 140.674 59.416 140.632C61.665 140.632 63.7891 141.546 65.3717 143.249C66.9544 144.952 67.829 147.236 67.8707 149.686C67.9123 154.753 64.2056 158.907 59.6242 158.948H59.5409ZM59.4993 141.504H59.416C55.2928 141.546 52.0025 145.284 52.0442 149.852C52.0858 152.054 52.8772 154.13 54.2932 155.709C55.7093 157.245 57.5418 158.076 59.4993 158.076H59.5826C63.7058 158.035 66.996 154.297 66.9544 149.728C66.9127 147.527 66.1214 145.45 64.7054 143.872C63.2893 142.335 61.4568 141.504 59.4993 141.504Z" fill="black"/>
<path d="M56.0841 154.504C56.5422 155.003 57.2086 155.376 57.9583 155.543C59.6242 155.833 61.2069 154.878 61.7483 153.341L56.0841 154.504Z" fill="white"/>
</g>
<path d="M60.2073 186.859C59.6242 186.859 58.9995 186.859 58.4164 186.817C41.2155 185.82 28.0546 171.118 29.0542 153.964C29.5123 145.658 33.219 138.057 39.4247 132.492C45.6303 126.968 53.6685 124.185 61.9982 124.642C70.3279 125.099 77.9496 128.795 83.5305 134.984C89.0698 141.172 91.8602 149.188 91.4021 157.495C90.4025 174.025 76.6169 186.859 60.2073 186.859ZM60.124 125.472C52.6689 125.472 45.5886 128.172 39.9661 133.156C33.927 138.514 30.3453 145.948 29.8871 154.006C28.9292 170.661 41.757 184.99 58.4164 185.945C75.1175 186.9 89.4863 174.108 90.4442 157.495C90.9023 149.437 88.1952 141.67 82.7809 135.648C77.4082 129.626 69.9531 126.054 61.8732 125.597C61.3318 125.472 60.7487 125.472 60.124 125.472Z" fill="black"/>
<path d="M191.692 223.284C205.677 223.284 217.014 211.978 217.014 198.031C217.014 184.085 205.677 172.779 191.692 172.779C177.706 172.779 166.369 184.085 166.369 198.031C166.369 211.978 177.706 223.284 191.692 223.284Z" fill="black"/>
<path d="M191.193 221.913C205.178 221.913 216.515 210.607 216.515 196.661C216.515 182.714 205.178 171.408 191.193 171.408C177.207 171.408 165.87 182.714 165.87 196.661C165.87 210.607 177.207 221.913 191.193 221.913Z" fill="white"/>
<path d="M191.192 222.079C190.692 222.079 190.193 222.079 189.734 222.038C182.946 221.664 176.698 218.632 172.159 213.565C167.619 208.498 165.328 201.977 165.745 195.165C166.536 181.169 178.614 170.412 192.65 171.242C199.439 171.616 205.686 174.648 210.226 179.715C214.765 184.782 217.056 191.303 216.639 198.114C215.89 211.613 204.603 222.079 191.192 222.079ZM191.192 171.574C177.99 171.574 166.869 181.916 166.078 195.207C165.703 201.894 167.952 208.332 172.409 213.316C176.865 218.3 183.029 221.29 189.734 221.664C196.44 222.038 202.895 219.795 207.893 215.351C212.891 210.907 215.89 204.76 216.265 198.073C216.639 191.386 214.39 184.948 209.934 179.964C205.478 174.98 199.314 171.99 192.608 171.616C192.15 171.616 191.65 171.574 191.192 171.574Z" fill="white"/>
<mask id="mask2_1_163" style="mask-type:luminance" maskUnits="userSpaceOnUse" x="165" y="171" width="52" height="51">
<path d="M191.193 221.913C205.178 221.913 216.515 210.607 216.515 196.661C216.515 182.714 205.178 171.408 191.193 171.408C177.207 171.408 165.87 182.714 165.87 196.661C165.87 210.607 177.207 221.913 191.193 221.913Z" fill="white"/>
</mask>
<g mask="url(#mask2_1_163)">
<path d="M174.158 207.709C170.368 207.709 166.62 208.207 162.996 209.162V225.443H219.014V207.709H174.158Z" fill="#CFEDFF"/>
<path d="M200.688 176.226V186.153C200.688 189.808 197.731 192.756 194.066 192.756H191.067L181.821 194.542V191.51C181.821 188.271 183.612 185.28 186.528 183.744L200.688 176.226Z" fill="black"/>
<path d="M183.196 208.248L191.775 214.645V197.284H183.196V208.248Z" fill="#FC9797"/>
<path d="M191.775 215.018C191.692 215.018 191.609 214.977 191.567 214.935L182.987 208.539C182.904 208.456 182.862 208.373 182.862 208.248V197.242C182.862 197.034 183.029 196.91 183.196 196.91H191.775C191.983 196.91 192.108 197.076 192.108 197.242V214.645C192.108 214.769 192.025 214.894 191.9 214.977C191.9 215.018 191.817 215.018 191.775 215.018ZM183.529 208.082L191.4 213.938V197.574H183.529V208.082Z" fill="black"/>
<path d="M183.195 200.523V197.284H191.775V204.469C190.984 204.635 189.443 204.801 187.693 204.22C184.903 203.306 183.529 201.105 183.195 200.523Z" fill="black"/>
<path d="M188.693 202.434C192.465 202.434 195.523 199.068 195.523 194.916C195.523 190.764 192.465 187.399 188.693 187.399C184.921 187.399 181.863 190.764 181.863 194.916C181.863 199.068 184.921 202.434 188.693 202.434Z" fill="#FC9797"/>
<path d="M188.693 202.766C184.736 202.766 181.529 199.236 181.529 194.875C181.529 190.514 184.736 186.983 188.693 186.983C192.65 186.983 195.856 190.514 195.856 194.875C195.856 199.236 192.65 202.766 188.693 202.766ZM188.693 187.731C185.111 187.731 182.237 190.929 182.237 194.916C182.237 198.903 185.153 202.102 188.693 202.102C192.233 202.102 195.148 198.903 195.148 194.916C195.148 190.929 192.233 187.731 188.693 187.731Z" fill="black"/>
<path d="M188.693 202.766C186.486 202.766 185.028 202.392 183.196 200.44C183.071 200.316 183.071 200.066 183.237 199.942C183.362 199.817 183.612 199.817 183.737 199.983C185.361 201.769 186.653 202.102 188.693 202.102C192.275 202.102 195.149 198.904 195.149 194.916C195.149 190.929 192.233 187.731 188.693 187.731C186.403 187.731 184.32 189.019 183.154 191.22C183.071 191.386 182.863 191.469 182.696 191.344C182.529 191.261 182.446 191.054 182.571 190.888C183.862 188.52 186.236 187.067 188.735 187.067C192.692 187.067 195.899 190.597 195.899 194.958C195.899 199.319 192.65 202.766 188.693 202.766Z" fill="black"/>
<path d="M188.693 187.399C184.945 187.399 181.863 190.763 181.863 194.916C181.863 195.29 181.904 195.664 181.946 195.996L186.361 192.756H195.232C194.399 189.641 191.775 187.399 188.693 187.399Z" fill="black"/>
<path d="M186.527 198.28C187.069 198.779 187.818 199.153 188.61 199.236C190.442 199.402 192.066 198.239 192.525 196.536L186.527 198.28Z" fill="white"/>
</g>
<path d="M191.192 222.287C190.692 222.287 190.193 222.287 189.693 222.245C182.862 221.871 176.573 218.839 171.992 213.731C167.411 208.622 165.12 202.06 165.537 195.207C166.328 181.127 178.489 170.287 192.65 171.118C199.48 171.491 205.769 174.523 210.351 179.632C214.932 184.741 217.223 191.303 216.806 198.156C216.056 211.737 204.686 222.287 191.192 222.287ZM191.192 171.741C178.073 171.741 167.036 181.999 166.286 195.207C165.911 201.852 168.16 208.248 172.575 213.191C177.032 218.175 183.112 221.082 189.776 221.498C190.276 221.539 190.734 221.539 191.234 221.539C204.353 221.539 215.39 211.28 216.14 198.073C216.514 191.427 214.265 185.031 209.851 180.089C205.394 175.105 199.314 172.197 192.65 171.782C192.15 171.782 191.65 171.741 191.192 171.741Z" fill="black"/>
<path d="M157.915 120.821C189.796 120.821 215.64 94.5457 215.64 62.134C215.64 29.7222 189.796 3.44727 157.915 3.44727C126.035 3.44727 100.19 29.7222 100.19 62.134C100.19 94.5457 126.035 120.821 157.915 120.821Z" fill="black"/>
<path d="M156.541 118.287C188.422 118.287 214.266 92.012 214.266 59.6003C214.266 27.1885 188.422 0.913574 156.541 0.913574C124.661 0.913574 98.8164 27.1885 98.8164 59.6003C98.8164 92.012 124.661 118.287 156.541 118.287Z" fill="white"/>
<path d="M156.541 118.786C141.006 118.786 126.429 112.639 115.433 101.508C104.438 90.3353 98.3574 75.5079 98.3574 59.6837C98.3574 43.8594 104.396 29.032 115.35 17.818C126.345 6.64551 140.922 0.457031 156.457 0.457031H156.541C172.075 0.457031 186.652 6.60398 197.648 17.7349C208.643 28.9074 214.724 43.7348 214.724 59.5591C214.765 92.1628 188.693 118.744 156.624 118.786H156.541ZM156.541 1.37077H156.457C141.172 1.37077 126.803 7.47618 115.975 18.4825C105.188 29.4889 99.232 44.1086 99.232 59.6837C99.232 75.2587 105.229 89.8784 116.058 100.843C126.887 111.808 141.255 117.872 156.499 117.872H156.582C188.152 117.83 213.807 91.6644 213.807 59.5591C213.807 43.984 207.81 29.3643 196.981 18.3995C186.153 7.43464 171.784 1.37077 156.541 1.37077Z" fill="white"/>
<mask id="mask3_1_163" style="mask-type:luminance" maskUnits="userSpaceOnUse" x="98" y="0" width="117" height="119">
<path d="M156.541 118.287C188.422 118.287 214.266 92.012 214.266 59.6003C214.266 27.1885 188.422 0.913574 156.541 0.913574C124.661 0.913574 98.8164 27.1885 98.8164 59.6003C98.8164 92.012 124.661 118.287 156.541 118.287Z" fill="white"/>
</mask>
<g mask="url(#mask3_1_163)">
<path d="M156.166 73.805H160.706C164.996 73.805 169.036 69.7763 173.117 70.9392C180.947 73.2651 188.069 77.7092 193.65 83.9392L225.844 119.824L90.8613 119.99L122.972 84.0638C128.595 77.7922 135.717 73.3066 143.588 70.9808C147.545 69.7348 151.918 73.805 156.166 73.805Z" fill="#CFEDFF"/>
<path d="M90.8201 120.862C90.4453 120.862 90.1538 120.655 89.9872 120.322C89.8622 119.99 89.9039 119.616 90.1538 119.325L122.265 83.3991C127.929 77.0445 135.218 72.4342 143.297 70.0668C145.838 69.3192 148.379 70.3576 150.836 71.3959C152.585 72.1435 154.418 72.8911 156.125 72.8911H160.665C162.372 72.8911 164.163 72.1435 165.871 71.3959C168.245 70.3576 170.744 69.3192 173.284 70.0668C181.323 72.4342 188.569 77.0445 194.234 83.316L226.428 119.201C226.678 119.45 226.72 119.865 226.595 120.198C226.47 120.53 226.136 120.738 225.762 120.738L90.8201 120.862ZM145.088 71.6451C144.63 71.6451 144.214 71.6866 143.797 71.8112C136.009 74.0956 129.054 78.5397 123.598 84.6451L92.8609 119.035L223.762 118.91L192.943 84.562C187.528 78.4981 180.573 74.0956 172.826 71.8112C170.869 71.2298 168.786 72.102 166.621 73.0572C164.746 73.8464 162.789 74.677 160.707 74.677H156.167C154.126 74.677 152.127 73.8464 150.211 73.0572C148.379 72.3512 146.671 71.6451 145.088 71.6451Z" fill="black"/>
<path d="M173.118 70.939C169.078 69.7346 164.871 69.1116 160.582 69.1116H156.042C151.794 69.1116 147.629 69.7346 143.589 70.939C145.796 77.0444 151.585 81.447 158.374 81.4055C165.121 81.4055 170.869 77.0444 173.118 70.939Z" fill="#FC9797"/>
<path d="M158.333 82.3607C151.377 82.3607 145.13 77.9166 142.714 71.2713C142.631 71.0221 142.631 70.7729 142.756 70.5237C142.881 70.316 143.089 70.1084 143.297 70.0668C147.462 68.8208 151.71 68.1978 156 68.1978H160.582C164.871 68.1978 169.161 68.8208 173.326 70.0668C173.576 70.1499 173.784 70.316 173.867 70.5237C173.992 70.7314 173.992 71.0221 173.909 71.2713C171.535 77.8751 165.288 82.3607 158.333 82.3607ZM144.755 71.562C147.129 76.9614 152.46 80.5332 158.333 80.5332C164.163 80.5332 169.494 76.9614 171.868 71.562C168.162 70.5652 164.372 70.0253 160.582 70.0253H156C152.21 70.0253 148.462 70.5652 144.755 71.562Z" fill="black"/>
<path d="M165.901 49.0865L150.699 49.1023L150.723 71.655L165.925 71.6391L165.901 49.0865Z" fill="#FC9797"/>
<path d="M150.752 72.6003C150.252 72.6003 149.836 72.185 149.836 71.6866L149.794 49.134C149.794 48.6356 150.21 48.2202 150.71 48.2202H165.912C166.412 48.2202 166.828 48.6356 166.828 49.134L166.87 71.6866C166.87 72.185 166.453 72.6003 165.954 72.6003C165.454 72.6003 165.037 72.185 165.037 71.6866L164.996 50.0477H151.626L151.668 71.6866C151.626 72.185 151.252 72.6003 150.752 72.6003Z" fill="black"/>
<path d="M165.913 51.0029H150.711V57.9805C151.711 59.6003 154.376 63.2553 159.249 64.8751C161.873 65.7473 164.247 65.7473 165.913 65.5396V51.0029Z" fill="black"/>
<path d="M189.943 51.5429C189.36 30.9424 174.325 14.4536 155.875 14.4536C137.425 14.4536 122.389 31.0254 121.89 51.626L189.943 51.5429Z" fill="black"/>
<path d="M139.091 59.6835C134.884 59.6835 131.469 56.1947 131.469 51.9167C131.469 51.4183 131.885 51.003 132.385 51.003C132.885 51.003 133.301 51.4183 133.301 51.9167C133.301 53.495 133.926 54.9902 135.009 56.1116C136.092 57.233 137.591 57.856 139.132 57.856C140.673 57.856 142.173 57.233 143.255 56.1116C144.338 54.9902 144.963 53.495 144.963 51.9167C144.963 51.4183 145.379 51.003 145.879 51.003C146.379 51.003 146.796 51.4183 146.796 51.9167C146.796 53.9934 146.004 55.9455 144.546 57.3991C143.047 58.8528 141.131 59.6835 139.091 59.6835Z" fill="black"/>
<path d="M132.385 52.8305C131.885 52.8305 131.469 52.4151 131.469 51.9167C131.469 49.8401 132.26 47.888 133.718 46.4343C135.176 44.9807 137.091 44.15 139.132 44.15C141.173 44.15 143.089 44.9391 144.546 46.4343C146.004 47.888 146.796 49.8401 146.796 51.9167C146.796 52.4151 146.379 52.8305 145.879 52.8305C145.379 52.8305 144.963 52.4151 144.963 51.9167C144.963 50.3385 144.338 48.8433 143.255 47.7219C142.173 46.6005 140.673 45.9775 139.132 45.9775C137.591 45.9775 136.092 46.6005 135.009 47.7219C133.926 48.8433 133.301 50.3385 133.301 51.9167C133.26 52.4151 132.885 52.8305 132.385 52.8305Z" fill="white"/>
<path d="M172.825 59.6419C170.785 59.6419 168.869 58.8528 167.411 57.3576C165.953 55.9039 165.162 53.9518 165.162 51.8752C165.162 51.3768 165.579 50.9614 166.078 50.9614C166.578 50.9614 166.995 51.3768 166.995 51.8752C166.995 53.4534 167.619 54.9486 168.702 56.07C169.785 57.1914 171.284 57.8144 172.825 57.8144C176.032 57.8144 178.656 55.1563 178.656 51.8752C178.656 51.3768 179.073 50.9614 179.573 50.9614C180.072 50.9614 180.489 51.3768 180.489 51.8752C180.489 56.1531 177.074 59.6419 172.825 59.6419Z" fill="black"/>
<path d="M166.12 52.7889C165.621 52.7889 165.204 52.3736 165.204 51.8752C165.204 47.5973 168.619 44.1085 172.826 44.1085C174.867 44.1085 176.782 44.8976 178.24 46.3928C179.698 47.8465 180.489 49.7985 180.489 51.8752C180.489 52.3736 180.073 52.7889 179.573 52.7889C179.073 52.7889 178.657 52.3736 178.657 51.8752C178.657 50.2969 178.032 48.8017 176.949 47.6803C175.866 46.5589 174.367 45.9359 172.826 45.9359C169.619 45.9359 166.995 48.5941 166.995 51.8752C166.995 52.3736 166.62 52.7889 166.12 52.7889Z" fill="white"/>
<path d="M155.917 59.1435C163.323 59.1435 169.328 52.3934 169.328 44.0669C169.328 35.7403 163.323 28.9902 155.917 28.9902C148.51 28.9902 142.506 35.7403 142.506 44.0669C142.506 52.3934 148.51 59.1435 155.917 59.1435Z" fill="#FC9797"/>
<path d="M155.917 60.0989C148.004 60.0989 141.59 52.9136 141.59 44.1086C141.59 39.8306 143.048 35.8434 145.755 32.8115C148.462 29.7795 152.085 28.0767 155.917 28.0767C163.83 28.0767 170.244 35.2619 170.244 44.067C170.244 48.345 168.786 52.3322 166.079 55.3641C163.372 58.396 159.749 60.0989 155.917 60.0989ZM155.917 29.9041C152.585 29.9041 149.461 31.3578 147.087 34.0159C144.713 36.7156 143.381 40.2875 143.381 44.067C143.381 51.8753 149.003 58.2299 155.917 58.2299C159.249 58.2299 162.372 56.7762 164.746 54.1181C167.12 51.4184 168.453 47.8466 168.453 44.067C168.412 36.2587 162.789 29.9041 155.917 29.9041Z" fill="black"/>
<path d="M149.961 52.1659C150.752 53.0797 151.835 53.7442 153.084 53.9934C155.917 54.5749 158.624 52.9135 159.582 50.2554L149.961 52.1659Z" fill="white"/>
<path d="M171.952 40.7859C171.702 31.4409 164.871 23.9233 156.458 23.9233C148.045 23.9233 141.257 31.4409 141.007 40.7859H171.952Z" fill="black"/>
</g>
<path d="M156.541 119.242C140.923 119.242 126.221 113.054 115.142 101.84C104.064 90.5843 97.9414 75.6323 97.9414 59.6835C97.9414 43.7347 104.022 28.7826 115.059 17.5271C126.138 6.27154 140.839 0.0415334 156.499 0H156.583C172.201 0 186.903 6.18848 197.981 17.4025C209.06 28.658 215.182 43.6101 215.182 59.5589C215.224 92.4118 188.944 119.201 156.624 119.242H156.541ZM156.541 1.82747H156.458C141.298 1.82747 127.012 7.84981 116.308 18.8146C105.605 29.7379 99.6906 44.2746 99.6906 59.6835C99.6906 75.0924 105.646 89.6291 116.392 100.511C127.137 111.393 141.381 117.373 156.541 117.373H156.624C187.944 117.332 213.433 91.3735 213.391 59.5174C213.391 44.0669 207.436 29.5718 196.69 18.69C185.945 7.80828 171.701 1.82747 156.541 1.82747Z" fill="black"/>
<path d="M207.06 114.009C218.745 114.009 228.217 104.377 228.217 92.495C228.217 80.613 218.745 70.9807 207.06 70.9807C195.375 70.9807 185.902 80.613 185.902 92.495C185.902 104.377 195.375 114.009 207.06 114.009Z" fill="black"/>
<path d="M206.561 113.095C218.246 113.095 227.718 103.463 227.718 91.5809C227.718 79.6989 218.246 70.0666 206.561 70.0666C194.876 70.0666 185.403 79.6989 185.403 91.5809C185.403 103.463 194.876 113.095 206.561 113.095Z" fill="black" stroke="black" stroke-width="1.43" stroke-miterlimit="10" stroke-linecap="round"/>
<path d="M206.561 113.261C200.897 113.261 195.524 111.019 191.526 106.948C187.486 102.878 185.278 97.4372 185.278 91.6225C185.278 85.8079 187.486 80.4085 191.484 76.2967C195.524 72.1849 200.855 69.9421 206.561 69.9421H206.603C212.267 69.9421 217.639 72.1849 221.638 76.2552C225.678 80.3255 227.885 85.7663 227.885 91.581C227.885 103.501 218.347 113.22 206.561 113.261ZM206.561 70.2328C200.938 70.2328 195.649 72.4756 191.692 76.5044C187.736 80.5331 185.57 85.8909 185.57 91.581C185.57 97.2711 187.777 102.629 191.734 106.658C195.691 110.686 200.938 112.888 206.561 112.888H206.603C218.181 112.888 227.552 103.293 227.552 91.5395C227.552 85.8494 225.344 80.4916 221.388 76.4628C217.431 72.4756 212.142 70.2328 206.561 70.2328Z" fill="white"/>
<path d="M206.56 113.428C200.813 113.428 195.44 111.143 191.4 107.032C187.36 102.92 185.111 97.4374 185.111 91.5812C185.111 85.7249 187.319 80.2425 191.4 76.1307C195.44 72.0189 200.855 69.7346 206.56 69.7346H206.602C212.35 69.7346 217.722 72.0189 221.762 76.1307C225.802 80.2425 228.051 85.7249 228.051 91.5812C228.051 103.584 218.43 113.386 206.56 113.428ZM206.56 70.3991C200.98 70.3991 195.773 72.6004 191.817 76.6291C187.902 80.6163 185.736 85.9326 185.736 91.5812C185.736 97.2297 187.902 102.546 191.859 106.533C195.773 110.52 201.021 112.722 206.56 112.722H206.602C218.097 112.722 227.385 103.211 227.385 91.5396C227.385 85.8911 225.219 80.5748 221.262 76.5876C217.347 72.6004 212.1 70.3991 206.56 70.3991Z" fill="black"/>
<path d="M309.183 222.245C325.79 222.245 339.253 208.82 339.253 192.258C339.253 175.697 325.79 162.271 309.183 162.271C292.575 162.271 279.112 175.697 279.112 192.258C279.112 208.82 292.575 222.245 309.183 222.245Z" fill="black"/>
<path d="M308.599 220.75C308.016 220.75 307.433 220.75 306.85 220.709C290.232 219.753 277.446 205.507 278.404 188.894C279.362 172.322 293.647 159.571 310.307 160.527C326.924 161.482 339.711 175.728 338.753 192.341C338.295 200.357 334.713 207.75 328.715 213.108C323.093 218.092 316.013 220.75 308.599 220.75ZM308.516 160.817C292.814 160.817 279.612 173.111 278.695 188.936C277.738 205.341 290.357 219.463 306.85 220.418C314.805 220.875 322.51 218.217 328.466 212.9C334.421 207.584 337.961 200.316 338.42 192.341C339.377 175.936 326.758 161.814 310.265 160.859C309.682 160.859 309.099 160.817 308.516 160.817Z" fill="white"/>
<path d="M308.55 220.617C325.157 220.617 338.62 207.191 338.62 190.63C338.62 174.069 325.157 160.643 308.55 160.643C291.942 160.643 278.479 174.069 278.479 190.63C278.479 207.191 291.942 220.617 308.55 220.617Z" fill="white"/>
<mask id="mask4_1_163" style="mask-type:luminance" maskUnits="userSpaceOnUse" x="278" y="160" width="61" height="61">
<path d="M308.55 220.617C325.157 220.617 338.62 207.191 338.62 190.63C338.62 174.069 325.157 160.643 308.55 160.643C291.942 160.643 278.479 174.069 278.479 190.63C278.479 207.191 291.942 220.617 308.55 220.617Z" fill="white"/>
</mask>
<g mask="url(#mask4_1_163)">
<path d="M308.808 195.373C315.892 195.373 321.636 189.757 321.636 182.83C321.636 175.903 315.892 170.287 308.808 170.287C301.723 170.287 295.98 175.903 295.98 182.83C295.98 189.757 301.723 195.373 308.808 195.373Z" fill="black"/>
<path d="M312.431 193.504H302.519V207.958H312.431V193.504Z" fill="#FC9797"/>
<path d="M312.39 208.29H302.477C302.311 208.29 302.144 208.165 302.144 207.958V193.504C302.144 193.338 302.269 193.172 302.477 193.172H312.39C312.556 193.172 312.723 193.296 312.723 193.504V207.958C312.723 208.124 312.556 208.29 312.39 208.29ZM302.81 207.667H312.056V193.836H302.81V207.667Z" fill="black"/>
<path d="M302.519 197.242V193.504H312.431V201.769C311.557 201.936 309.766 202.185 307.725 201.479C304.477 200.44 302.936 197.948 302.519 197.242Z" fill="black"/>
<path d="M308.808 199.36C313.202 199.36 316.763 195.437 316.763 190.597C316.763 185.757 313.202 181.833 308.808 181.833C304.415 181.833 300.853 185.757 300.853 190.597C300.853 195.437 304.415 199.36 308.808 199.36Z" fill="#FC9797"/>
<path d="M308.808 199.692C304.227 199.692 300.52 195.622 300.52 190.597C300.52 185.571 304.227 181.501 308.808 181.501C313.39 181.501 317.096 185.571 317.096 190.597C317.055 195.622 313.348 199.692 308.808 199.692ZM308.808 182.165C304.602 182.165 301.186 185.945 301.186 190.638C301.186 195.331 304.602 199.111 308.808 199.111C313.015 199.111 316.43 195.331 316.43 190.638C316.43 185.945 313.015 182.165 308.808 182.165Z" fill="black"/>
<path d="M305.392 194.418C306.142 195.124 307.141 195.581 308.266 195.706C310.765 195.955 313.014 194.335 313.639 192.009L305.392 194.418Z" fill="white"/>
<path d="M346 235.12V222.66L336.213 205.798H312.057L308.642 208.29L302.853 205.798H286.026C274.99 205.798 266.077 214.727 266.077 225.692V227.852L273.324 235.12H346Z" fill="#CFEDFF"/>
<path d="M346 205.84H320.344V229.181H346V205.84Z" fill="#CFEDFF"/>
<path d="M295.272 235.12V205.798H286.026C274.99 205.798 266.077 214.727 266.077 225.692V235.12H295.272Z" fill="#CFEDFF"/>
<path d="M321.177 205.756H294.147C297.396 210.034 302.227 212.734 307.683 212.734C313.139 212.734 317.929 209.993 321.177 205.756Z" fill="#FC9797"/>
<path d="M307.642 213.025C302.311 213.025 297.271 210.45 293.856 205.923C293.773 205.84 293.773 205.715 293.814 205.59C293.856 205.466 293.981 205.424 294.106 205.424H321.136C321.261 205.424 321.386 205.507 321.427 205.59C321.469 205.715 321.469 205.84 321.386 205.923C318.012 210.45 312.973 213.025 307.642 213.025ZM294.772 206.047C298.062 210.076 302.727 212.402 307.642 212.402C312.556 212.402 317.221 210.117 320.511 206.047H294.772Z" fill="black"/>
<path d="M266.118 225.734C265.951 225.734 265.785 225.609 265.785 225.402C265.785 217.344 271.074 209.661 278.613 206.753C283.735 205.05 289.15 205.258 294.397 205.424C296.98 205.507 299.687 205.632 302.352 205.507C302.519 205.507 302.685 205.632 302.685 205.798C302.685 205.964 302.56 206.13 302.394 206.13C299.728 206.255 297.021 206.172 294.397 206.047C288.983 205.84 283.86 205.673 278.862 207.335C271.574 210.159 266.451 217.593 266.451 225.402C266.41 225.609 266.285 225.734 266.118 225.734Z" fill="black"/>
<path d="M332.256 206.172C325.633 206.172 319.011 206.172 312.597 206.13C312.431 206.13 312.264 206.006 312.264 205.798C312.264 205.632 312.389 205.466 312.597 205.466C320.302 205.507 328.257 205.507 336.254 205.507C336.42 205.507 336.587 205.632 336.587 205.84C336.587 206.006 336.462 206.172 336.254 206.172H332.256Z" fill="black"/>
</g>
<path d="M308.6 220.916C308.016 220.916 307.433 220.916 306.809 220.875C290.108 219.919 277.28 205.59 278.238 188.894C279.196 172.239 293.564 159.447 310.307 160.402C327.008 161.357 339.836 175.686 338.878 192.383C338.42 200.44 334.838 207.875 328.757 213.274C323.135 218.216 316.055 220.916 308.6 220.916ZM308.516 160.983C292.898 160.983 279.737 173.194 278.862 188.935C277.946 205.258 290.482 219.296 306.85 220.252C314.764 220.708 322.427 218.05 328.341 212.776C334.255 207.501 337.795 200.233 338.253 192.341C339.17 176.019 326.633 161.98 310.265 161.025C309.682 160.983 309.099 160.983 308.516 160.983Z" fill="black"/>
<path d="M216.473 92.0381H209.601V99.0988H205.977V92.0381H199.063V88.757H205.977V81.6963H209.601V88.757H216.514V92.0381H216.473Z" fill="white"/>
</g>
<defs>
<clipPath id="clip0_1_163">
<rect width="317" height="274" fill="white" transform="translate(29)"/>
</clipPath>
</defs>
</svg>
