<svg width="29" height="29" viewBox="0 0 29 29" fill="none" xmlns="http://www.w3.org/2000/svg">
<path d="M17.9979 7.58398H11.0017C10.096 7.58398 9.22746 7.94375 8.58707 8.58414C7.94668 9.22453 7.58691 10.0931 7.58691 10.9987V17.9986C7.58691 18.9043 7.94668 19.7728 8.58707 20.4132C8.90416 20.7303 9.2806 20.9818 9.6949 21.1534C10.1092 21.325 10.5532 21.4134 11.0017 21.4134H17.9979C18.9036 21.4134 19.7721 21.0536 20.4125 20.4132C21.0529 19.7728 21.4127 18.9043 21.4127 17.9986V11.0024C21.4131 10.5536 21.3252 10.1092 21.1538 9.69448C20.9824 9.27976 20.7309 8.9029 20.4138 8.58542C20.0967 8.26795 19.7201 8.0161 19.3055 7.84426C18.891 7.67243 18.4467 7.58398 17.9979 7.58398ZM14.4998 18.9774C13.6143 18.9774 12.7488 18.7148 12.0126 18.2229C11.2764 17.7309 10.7025 17.0318 10.3637 16.2137C10.0249 15.3957 9.93619 14.4955 10.1089 13.6271C10.2817 12.7587 10.7081 11.961 11.3342 11.3349C11.9603 10.7088 12.758 10.2824 13.6264 10.1096C14.4948 9.93689 15.395 10.0255 16.213 10.3644C17.0311 10.7032 17.7302 11.277 18.2222 12.0133C18.7141 12.7495 18.9767 13.615 18.9767 14.5005C18.9747 15.6872 18.5025 16.8248 17.6633 17.664C16.8241 18.5032 15.6865 18.9754 14.4998 18.9774ZM18.9875 11.1292C18.7725 11.1292 18.5622 11.0655 18.3834 10.946C18.2045 10.8265 18.0651 10.6566 17.9828 10.4579C17.9005 10.2592 17.879 10.0405 17.9209 9.82957C17.9629 9.61862 18.0665 9.42485 18.2186 9.27276C18.3707 9.12067 18.5644 9.01709 18.7754 8.97513C18.9863 8.93317 19.205 8.95471 19.4037 9.03702C19.6024 9.11933 19.7723 9.25871 19.8918 9.43755C20.0113 9.61639 20.075 9.82665 20.075 10.0417C20.075 10.3302 19.9605 10.6068 19.7565 10.8107C19.5526 11.0147 19.276 11.1292 18.9875 11.1292Z" fill="#838383"/>
<path d="M14.4996 17.2364C16.0111 17.2364 17.2364 16.0111 17.2364 14.4996C17.2364 12.988 16.0111 11.7627 14.4996 11.7627C12.988 11.7627 11.7627 12.988 11.7627 14.4996C11.7627 16.0111 12.988 17.2364 14.4996 17.2364Z" fill="#838383"/>
<path d="M14.5 0C11.6322 0 8.82875 0.85041 6.44424 2.44369C4.05973 4.03697 2.20122 6.30156 1.10375 8.95109C0.00628262 11.6006 -0.280866 14.5161 0.27862 17.3288C0.838106 20.1415 2.2191 22.7252 4.24696 24.753C6.27482 26.7809 8.85847 28.1619 11.6712 28.7214C14.4839 29.2809 17.3994 28.9937 20.0489 27.8963C22.6984 26.7988 24.963 24.9403 26.5563 22.5558C28.1496 20.1713 29 17.3678 29 14.5C29 10.6544 27.4723 6.96623 24.7531 4.24695C22.0338 1.52767 18.3456 0 14.5 0ZM23.1565 17.9981C23.1546 19.3656 22.6105 20.6766 21.6435 21.6435C20.6766 22.6105 19.3656 23.1546 17.9981 23.1565H11.0019C9.63438 23.1546 8.32345 22.6105 7.35648 21.6435C6.38951 20.6766 5.84542 19.3656 5.84351 17.9981V11.0019C5.84542 9.63438 6.38951 8.32344 7.35648 7.35647C8.32345 6.3895 9.63438 5.84542 11.0019 5.8435H17.9981C19.3656 5.84542 20.6766 6.3895 21.6435 7.35647C22.6105 8.32344 23.1546 9.63438 23.1565 11.0019V17.9981Z" fill="#838383"/>
</svg>
