<svg width="52" height="39" viewBox="0 0 52 39" fill="none" xmlns="http://www.w3.org/2000/svg">
<path d="M51.245 38.9996H0.679481C0.304245 38.9996 0 38.6953 0 38.3201C0 37.9449 0.304245 37.6406 0.679481 37.6406H51.2438C51.619 37.6406 51.9233 37.9449 51.9233 38.3201C51.9245 38.6953 51.6203 38.9996 51.245 38.9996Z" fill="#0F4568"/>
<path d="M24.0625 7.46117L40.7833 1.08089C41.5059 0.805802 42.3147 1.26597 42.3147 1.95306V38.3281" stroke="#0F4568" stroke-width="0.704009" stroke-miterlimit="10"/>
<path d="M24.0648 38.3282H9.20117V13.3648C9.20117 12.5091 9.8946 11.8145 10.7516 11.8145H15.6537" stroke="#0F4568" stroke-width="0.704009" stroke-miterlimit="10"/>
<path d="M36.8924 32.2012H29.375V38.3292H36.8924V32.2012Z" stroke="#0F4568" stroke-width="0.704009" stroke-miterlimit="10"/>
<path d="M37.8816 13.8357H33.3686L33.2305 12.7695H37.8816C38.1757 12.7695 38.4153 13.0079 38.4153 13.3032C38.414 13.5973 38.1757 13.8357 37.8816 13.8357Z" fill="#0F4568"/>
<path d="M37.8831 17.1366H34.3792C34.1865 17.1366 34.0293 16.9806 34.0293 16.7867V16.0273H37.8831C38.1772 16.0273 38.4168 16.2657 38.4168 16.561V16.6029C38.4155 16.8982 38.1772 17.1366 37.8831 17.1366Z" fill="#0F4568"/>
<path d="M37.8823 20.772H33.666V20.1978C33.666 19.9037 33.9043 19.6641 34.1997 19.6641H37.8823C38.1765 19.6641 38.416 19.9024 38.416 20.1978V20.2396C38.4148 20.5337 38.1765 20.772 37.8823 20.772Z" fill="#0F4568"/>
<path d="M37.882 24.4068H32.3828L32.7885 23.2988H37.8808C38.1749 23.2988 38.4145 23.5372 38.4145 23.8325V23.8744C38.4145 24.1685 38.1762 24.4068 37.882 24.4068Z" fill="#0F4568"/>
<path d="M37.8833 27.5166H30.9199V26.7192C30.9199 26.5696 31.0404 26.4492 31.1899 26.4492H37.8821C38.1762 26.4492 38.4158 26.6875 38.4158 26.9829C38.4158 27.2783 38.1774 27.5166 37.8833 27.5166Z" fill="#0F4568"/>
<path d="M20.3788 17.9783H20.337C20.0404 17.9783 19.8008 17.7374 19.8008 17.4421V16.1554C19.8008 15.8587 20.0416 15.6191 20.337 15.6191H20.3788C20.6755 15.6191 20.9151 15.86 20.9151 16.1554V17.4421C20.9151 17.7374 20.6755 17.9783 20.3788 17.9783Z" fill="#050606"/>
<path d="M14.9335 26.4295H14.8917C14.5951 26.4295 14.3555 26.1886 14.3555 25.8932V24.6065C14.3555 24.3099 14.5963 24.0703 14.8917 24.0703H14.9335C15.2302 24.0703 15.4698 24.3112 15.4698 24.6065V25.8932C15.4698 26.1886 15.2302 26.4295 14.9335 26.4295Z" fill="#0F4568"/>
<path d="M14.9335 30.7791H14.8917C14.5951 30.7791 14.3555 30.5382 14.3555 30.2429V28.9562C14.3555 28.6595 14.5963 28.4199 14.8917 28.4199H14.9335C15.2302 28.4199 15.4698 28.6608 15.4698 28.9562V30.2429C15.4698 30.5395 15.2302 30.7791 14.9335 30.7791Z" fill="#0F4568"/>
<path d="M18.3515 30.7799H18.3097C18.013 30.7799 17.7734 30.539 17.7734 30.2437V28.498L18.4149 29.6516L18.8332 30.3692C18.8332 30.6658 18.6481 30.7799 18.3515 30.7799Z" fill="#0F4568"/>
<path d="M14.9335 34.8318H14.8917C14.5951 34.8318 14.3555 34.591 14.3555 34.2956V33.0089C14.3555 32.7122 14.5963 32.4727 14.8917 32.4727H14.9335C15.2302 32.4727 15.4698 32.7135 15.4698 33.0089V34.2956C15.4698 34.591 15.2302 34.8318 14.9335 34.8318Z" fill="#0F4568"/>
<path d="M18.3515 34.8318H18.3097C18.013 34.8318 17.7734 34.591 17.7734 34.2956V33.0089C17.7734 32.7122 18.0143 32.4727 18.3097 32.4727H18.3515C18.6481 32.4727 18.8877 32.7135 18.8877 33.0089V34.2956C18.8877 34.591 18.6481 34.8318 18.3515 34.8318Z" fill="#0F4568"/>
<path d="M24.0611 38.2867C22.9227 36.4954 21.8058 34.7777 20.7296 33.0334C18.6797 29.7082 16.7173 26.3311 15.2303 22.7106C14.7118 21.4492 14.2758 20.1308 14.0057 18.7959C13.6115 16.8462 14.0298 14.946 14.9451 13.2054C16.9861 9.32758 20.2567 7.40576 24.6226 7.5376C29.5527 7.68719 33.6562 11.6158 34.2343 16.5192C34.4269 18.1482 34.0986 19.6707 33.5636 21.1754C32.5533 24.0112 31.1956 26.6873 29.6693 29.2696C27.9414 32.1916 26.1096 35.0515 24.3222 37.9368C24.2626 38.0306 24.1891 38.1155 24.0611 38.2867Z" stroke="#0F4568" stroke-width="0.704009" stroke-miterlimit="10"/>
<path d="M24.1135 12.4415C21.4716 12.4288 19.2659 14.5826 19.2443 17.194C19.2227 19.9272 21.388 22.1253 24.1097 22.1329C26.6996 22.1406 28.9193 19.9487 28.9383 17.3664C28.9599 14.6434 26.8149 12.4541 24.1135 12.4415Z" fill="#F49E49" stroke="#0F4568" stroke-width="0.704009" stroke-miterlimit="10"/>
</svg>
