<svg width="39" height="39" viewBox="0 0 39 39" fill="none" xmlns="http://www.w3.org/2000/svg">
<rect width="39" height="39" rx="7.63043" fill="white"/>
<path d="M29.3535 30.1222V17.3945" stroke="#0F4568" stroke-width="0.288692" stroke-miterlimit="10"/>
<path d="M31.1969 14.7725H7.44336L10.2083 11.7563H28.4739L31.1969 14.7725Z" stroke="#0F4568" stroke-width="0.288692" stroke-miterlimit="10"/>
<path d="M28.5574 10.4663H10.2305V11.756H28.5574V10.4663Z" fill="#F49E49"/>
<path d="M28.5566 11.756H10.2305V10.5846C10.2305 9.80731 10.8605 9.17651 11.6386 9.17651H27.1493C27.9266 9.17651 28.5574 9.80658 28.5574 10.5846V11.756H28.5566Z" stroke="#0F4568" stroke-width="0.288692" stroke-miterlimit="10"/>
<path d="M7.29176 14.8911C7.29176 14.8911 7.12721 17.2187 9.36818 17.485V30.1218" stroke="#0F4568" stroke-width="0.288692" stroke-miterlimit="10"/>
<path d="M9.36719 17.4854C12.0968 17.3144 11.4804 14.7725 11.4804 14.7725L13.2638 11.7563" stroke="#0F4568" stroke-width="0.288692" stroke-miterlimit="10"/>
<path d="M11.4277 16.1286C11.4277 16.1286 12.0217 17.5692 13.4558 17.4854C13.4558 17.4854 15.4947 17.4631 15.4629 14.7725L16.0576 11.7563" stroke="#0F4568" stroke-width="0.288692" stroke-miterlimit="10"/>
<path d="M15.2852 16.1286C15.2852 16.1286 15.8791 17.5692 17.3132 17.4854C17.3132 17.4854 19.3521 17.4631 19.3204 14.7725L19.3023 11.7563" stroke="#0F4568" stroke-width="0.288692" stroke-miterlimit="10"/>
<path d="M19.1016 16.1286C19.1016 16.1286 19.6955 17.5692 21.1296 17.4854C21.1296 17.4854 23.1685 17.4631 23.1368 14.7725L22.3652 11.7563" stroke="#0F4568" stroke-width="0.288692" stroke-miterlimit="10"/>
<path d="M22.9453 16.1296C22.9453 16.1296 23.5393 17.5701 24.9734 17.4864C24.9734 17.4864 27.0123 17.464 26.9805 14.7734" stroke="#0F4568" stroke-width="0.288692" stroke-miterlimit="10"/>
<path d="M26.7441 16.129C26.7441 16.129 27.3381 17.5696 28.7722 17.4859C28.7722 17.4859 31.3755 17.5912 31.3437 14.8999" stroke="#0F4568" stroke-width="0.288692" stroke-miterlimit="10"/>
<path d="M25.4277 11.7563L26.9787 14.7725" stroke="#0F4568" stroke-width="0.288692" stroke-miterlimit="10"/>
<path d="M27.8806 30.1224H22.0469V23.8469C22.0469 22.236 23.3525 20.9304 24.9634 20.9304C26.5743 20.9304 27.8799 22.236 27.8799 23.8469V30.1224H27.8806Z" stroke="#0F4568" stroke-width="0.288692" stroke-miterlimit="10"/>
<path d="M26.681 26.771C26.4832 26.771 26.3223 26.6107 26.3223 26.4123V25.6119C26.3223 25.4141 26.4825 25.2532 26.681 25.2532C26.8787 25.2532 27.0397 25.4134 27.0397 25.6119V26.4123C27.0397 26.61 26.8787 26.771 26.681 26.771Z" fill="#0F4568"/>
<path d="M10.2305 10.5845H28.5566" stroke="#0F4568" stroke-width="0.288692" stroke-miterlimit="10"/>
<path d="M10.3477 21.8293H12.1181L13.8127 27.9619H19.0265" stroke="#0F4568" stroke-width="0.288692" stroke-miterlimit="10"/>
<path d="M12.3691 22.7388H20.0707L19.0264 26.6902H13.4611" stroke="#0F4568" stroke-width="0.288692" stroke-miterlimit="10"/>
<path d="M14.5859 22.7388L14.9851 26.6902" stroke="#0F4568" stroke-width="0.288692" stroke-miterlimit="10"/>
<path d="M16.4316 22.7388V26.6902" stroke="#0F4568" stroke-width="0.288692" stroke-miterlimit="10"/>
<path d="M18.2759 22.7388L17.752 26.6902" stroke="#0F4568" stroke-width="0.288692" stroke-miterlimit="10"/>
<path d="M12.8164 24.7153H19.5711" stroke="#0F4568" stroke-width="0.288692" stroke-miterlimit="10"/>
<path d="M14.4811 29.743C14.7566 29.743 14.9799 29.5198 14.9799 29.2443C14.9799 28.9689 14.7566 28.7456 14.4811 28.7456C14.2057 28.7456 13.9824 28.9689 13.9824 29.2443C13.9824 29.5198 14.2057 29.743 14.4811 29.743Z" stroke="#0F4568" stroke-width="0.288692" stroke-miterlimit="10"/>
<path d="M18.1276 29.743C18.4031 29.743 18.6263 29.5198 18.6263 29.2443C18.6263 28.9689 18.4031 28.7456 18.1276 28.7456C17.8522 28.7456 17.6289 28.9689 17.6289 29.2443C17.6289 29.5198 17.8522 29.743 18.1276 29.743Z" stroke="#0F4568" stroke-width="0.288692" stroke-miterlimit="10"/>
<path d="M33.7631 30.5093H4.97474C4.76111 30.5093 4.58789 30.3361 4.58789 30.1224C4.58789 29.9088 4.76111 29.7356 4.97474 29.7356H33.7624C33.976 29.7356 34.1492 29.9088 34.1492 30.1224C34.15 30.3361 33.9767 30.5093 33.7631 30.5093Z" fill="#0F4568"/>
</svg>
