<svg width="15" height="10" viewBox="0 0 15 10" fill="none" xmlns="http://www.w3.org/2000/svg">
<path d="M15 5.00014C15 4.87844 14.9254 4.71672 14.8497 4.63815L10.5831 0.164231C10.3838 -0.0389775 10.0611 -0.0624742 9.82896 0.143672C9.62136 0.328159 9.61615 0.687762 9.80812 0.888048L13.233 4.47369H0.533295C0.238647 4.47369 0 4.70939 0 4.99997C0 5.29074 0.238842 5.52625 0.533295 5.52625H13.233L9.80812 9.1119C9.61616 9.31217 9.62973 9.66299 9.82896 9.85608C10.0392 10.06 10.387 10.0419 10.5831 9.83553L14.8497 5.3618C14.9751 5.24046 14.998 5.12368 15 5.00014Z" fill="white"/>
</svg>
