<svg width="16" height="10" viewBox="0 0 16 10" fill="none" xmlns="http://www.w3.org/2000/svg">
<path d="M0 5.00014C0 4.87844 0.0795631 4.71672 0.160316 4.63815L4.7114 0.164232C4.9239 -0.0389775 5.26816 -0.0624742 5.51578 0.143672C5.73721 0.328159 5.74277 0.687762 5.538 0.888048L1.88476 4.47369H15.4312C15.7454 4.47369 16 4.70939 16 4.99997C16 5.29074 15.7452 5.52625 15.4312 5.52625H1.88476L5.538 9.1119C5.74276 9.31217 5.72828 9.66299 5.51578 9.85609C5.29157 10.06 4.92052 10.0419 4.7114 9.83553L0.160316 5.3618C0.0265846 5.24046 0.00217819 5.12368 0 5.00014Z" fill="white"/>
</svg>
