<svg width="438" height="351" viewBox="0 0 438 351" fill="none" xmlns="http://www.w3.org/2000/svg">
<mask id="mask0_26_866" style="mask-type:alpha" maskUnits="userSpaceOnUse" x="0" y="0" width="438" height="351">
<rect width="438" height="351" fill="#D9D9D9"/>
</mask>
<g mask="url(#mask0_26_866)">
<path d="M373.267 223.691C362.104 248.446 345.626 270.44 325.005 288.109C304.383 305.779 280.124 318.691 253.951 325.928C227.777 333.166 200.33 334.551 173.561 329.987C146.791 325.422 121.355 315.018 99.0592 299.515C76.7633 284.012 58.1544 263.79 44.5545 240.285C30.9545 216.78 22.697 190.568 20.3685 163.512C18.04 136.456 21.6976 109.22 31.0815 83.7364C40.4654 58.2532 55.3454 35.1489 74.6646 16.0645L145.224 87.4919C136.392 96.2171 129.589 106.78 125.298 118.431C121.008 130.081 119.336 142.534 120.401 154.903C121.465 167.273 125.24 179.257 131.458 190.003C137.676 200.749 146.184 209.995 156.377 217.082C166.57 224.17 178.199 228.926 190.438 231.013C202.677 233.1 215.225 232.467 227.192 229.158C239.158 225.849 250.249 219.946 259.677 211.868C269.104 203.789 276.638 193.734 281.742 182.416L373.267 223.691Z" fill="#F7E3CB"/>
<mask id="mask1_26_866" style="mask-type:alpha" maskUnits="userSpaceOnUse" x="19" y="16" width="355" height="317">
<path d="M373.266 223.691C362.103 248.446 345.625 270.439 325.004 288.109C304.382 305.778 280.123 318.691 253.949 325.928C227.776 333.166 200.329 334.551 173.56 329.986C146.79 325.422 121.354 315.018 99.0581 299.515C76.7621 284.012 58.1533 263.79 44.5534 240.285C30.9534 216.78 22.6959 190.568 20.3674 163.512C18.0389 136.456 21.6965 109.22 31.0804 83.7364C40.4643 58.2532 55.3443 35.1489 74.6635 16.0644L145.223 87.4919C136.39 96.217 129.587 106.78 125.297 118.431C121.007 130.081 119.335 142.534 120.399 154.903C121.464 167.273 125.239 179.257 131.457 190.003C137.675 200.749 146.182 209.995 156.376 217.082C166.569 224.17 178.198 228.926 190.437 231.013C202.676 233.1 215.224 232.467 227.19 229.158C239.157 225.849 250.248 219.946 259.676 211.867C269.103 203.789 276.637 193.734 281.741 182.416L373.266 223.691Z" fill="#F7E3CB"/>
</mask>
<g mask="url(#mask1_26_866)">
<path d="M168.974 298.764H78.8317C70.865 298.764 64.3735 292.309 64.3735 284.279V86.8595C64.3735 78.878 70.8158 72.3745 78.8317 72.3745H168.974C176.941 72.3745 183.432 78.8287 183.432 86.8595V284.279C183.432 292.26 176.941 298.764 168.974 298.764Z" fill="black" stroke="black" stroke-width="1.52" stroke-miterlimit="10" stroke-linecap="round"/>
<path d="M180.088 298.764H89.995C82.0283 298.764 75.5369 292.309 75.5369 284.279V86.8595C75.5369 78.878 81.9791 72.3745 89.995 72.3745H180.137C188.104 72.3745 194.595 78.8287 194.595 86.8595V284.279C194.546 292.26 188.104 298.764 180.088 298.764Z" fill="white" stroke="black" stroke-width="1.52" stroke-miterlimit="10" stroke-linecap="round"/>
<path d="M93.6342 82.4253H113.403V85.4799C113.403 88.7317 115.961 91.3922 119.108 91.3922H150.975C154.122 91.3922 156.68 88.7317 156.68 85.4799V82.4253H176.449C181.514 82.4253 185.645 86.7117 185.645 91.9834V265.31C185.645 270.582 181.514 274.868 176.449 274.868H93.6342C88.5689 274.868 84.438 270.582 84.438 265.31V91.9834C84.4872 86.7117 88.5689 82.4253 93.6342 82.4253Z" fill="#CFEDFF" stroke="black" stroke-width="1.52" stroke-miterlimit="10" stroke-linecap="round"/>
<path d="M304.162 331.625H394.304C402.271 331.625 408.763 325.171 408.763 317.14V119.771C408.763 111.789 402.32 105.286 394.304 105.286H304.162C296.196 105.286 289.704 111.74 289.704 119.771V317.19C289.704 325.171 296.146 331.625 304.162 331.625Z" fill="black" stroke="black" stroke-width="1.52" stroke-miterlimit="10" stroke-linecap="round"/>
<path d="M292.999 331.625H383.141C391.108 331.625 397.6 325.171 397.6 317.14V119.771C397.6 111.789 391.157 105.286 383.141 105.286H292.999C285.032 105.286 278.541 111.74 278.541 119.771V317.19C278.59 325.171 285.032 331.625 292.999 331.625Z" fill="white" stroke="black" stroke-width="1.52" stroke-miterlimit="10" stroke-linecap="round"/>
<path d="M379.453 115.336H359.684V118.391C359.684 121.643 357.126 124.303 353.979 124.303H322.112C318.965 124.303 316.407 121.643 316.407 118.391V115.336H296.638C291.573 115.336 287.442 119.623 287.442 124.895V298.221C287.442 303.493 291.573 307.779 296.638 307.779H379.404C384.469 307.779 388.6 303.493 388.6 298.221V124.845C388.649 119.623 384.567 115.336 379.453 115.336Z" fill="#CFEDFF" stroke="black" stroke-width="1.52" stroke-miterlimit="10" stroke-linecap="round"/>
<path d="M352.651 118.884C354.064 118.884 355.209 117.737 355.209 116.322C355.209 114.907 354.064 113.76 352.651 113.76C351.239 113.76 350.094 114.907 350.094 116.322C350.094 117.737 351.239 118.884 352.651 118.884Z" fill="black" stroke="black" stroke-width="1.52" stroke-miterlimit="10" stroke-linecap="round"/>
<path d="M344.095 116.223H323.883Z" fill="#CFEDFF"/>
<path d="M344.095 116.223H323.883" stroke="black" stroke-width="1.52" stroke-miterlimit="10" stroke-linecap="round"/>
<path d="M204.529 104.153C206.644 104.202 208.365 102.527 208.414 100.408C208.414 99.9157 208.316 99.423 208.168 98.9796L201.628 82.5239H190.661L197.349 99.3738C198.53 102.231 201.333 104.153 204.529 104.153Z" fill="#F19D48"/>
<path d="M201.578 82.9674H190.612L191.054 82.3762L194.89 91.9835L197.202 97.7972C197.841 99.4724 198.529 101.049 200.054 102.182C201.529 103.315 203.693 104.054 205.463 103.562C207.234 103.069 208.267 101.197 207.775 99.3738C207.726 99.2753 207.726 99.1768 207.676 99.0782C207.48 98.5363 208.365 98.2899 208.562 98.8319C209.152 100.458 208.758 102.281 207.48 103.463C206.201 104.646 204.48 104.793 202.808 104.448C200.005 103.857 197.743 101.837 196.759 99.1768L191.89 87.0074L190.169 82.6718C190.12 82.4254 190.268 82.1298 190.563 82.0806H201.578C201.824 82.1791 201.972 82.4254 201.873 82.7211C201.824 82.7703 201.726 82.9181 201.578 82.9674Z" fill="black"/>
<path d="M193.563 104.153C195.677 104.202 197.398 102.527 197.448 100.408C197.448 99.9157 197.349 99.423 197.202 98.9796L190.661 82.5239H179.695L186.383 99.3738C187.563 102.231 190.415 104.153 193.563 104.153Z" fill="white"/>
<path d="M190.612 82.9674H179.695L180.137 82.3762L183.973 91.9836L186.284 97.7973C186.924 99.4724 187.612 101.049 189.137 102.182C190.612 103.315 192.776 104.054 194.546 103.562C196.317 103.069 197.398 101.197 196.858 99.4231C196.808 99.3246 196.808 99.2261 196.759 99.1275C196.562 98.5856 197.448 98.3392 197.644 98.8812C198.234 100.507 197.841 102.33 196.562 103.512C195.284 104.695 193.563 104.843 191.891 104.498C189.087 103.907 186.825 101.887 185.842 99.2261L180.973 87.0567L179.252 82.7211C179.203 82.4748 179.35 82.1792 179.645 82.1299H190.661C190.907 82.2284 191.055 82.4748 190.956 82.7704C190.858 82.8196 190.76 82.9182 190.612 82.9674Z" fill="black"/>
<path d="M182.694 104.153C184.809 104.202 186.53 102.527 186.579 100.408C186.579 99.9157 186.481 99.423 186.333 98.9796L179.793 82.5239H168.875L175.564 99.3738C176.646 102.231 179.498 104.153 182.694 104.153Z" fill="#F19D48"/>
<path d="M179.744 82.9674H168.826L169.269 82.3762L173.105 91.9836L175.416 97.7973C176.104 99.4724 176.744 101.049 178.268 102.182C179.744 103.315 181.907 104.054 183.678 103.562C185.448 103.069 186.481 101.197 185.989 99.4231C185.94 99.3246 185.94 99.2261 185.891 99.1275C185.694 98.5856 186.579 98.3392 186.776 98.8812C187.366 100.507 186.973 102.33 185.694 103.512C184.415 104.695 182.694 104.843 181.022 104.498C178.219 103.907 175.957 101.887 174.973 99.2261L170.105 87.0567L168.384 82.7211C168.334 82.4748 168.482 82.1792 168.777 82.1299H179.793C180.039 82.2284 180.186 82.4748 180.088 82.7704C179.989 82.7704 179.891 82.9182 179.744 82.9674Z" fill="black"/>
<path d="M171.728 104.153C173.842 104.202 175.563 102.527 175.613 100.408C175.613 99.9157 175.514 99.423 175.367 98.9796L168.826 82.5239H157.86L164.548 99.3738C165.728 102.231 168.58 104.153 171.728 104.153Z" fill="white"/>
<path d="M168.777 82.9674H157.811L158.253 82.3762L162.089 91.9836L164.4 97.7973C165.04 99.4724 165.728 101.049 167.253 102.182C168.728 103.315 170.892 104.054 172.662 103.562C174.433 103.069 175.465 101.197 174.973 99.4231C174.924 99.3246 174.924 99.2261 174.875 99.1275C174.678 98.5856 175.564 98.3392 175.76 98.8812C176.35 100.507 175.957 102.33 174.678 103.512C173.4 104.695 171.679 104.843 170.007 104.498C167.203 103.907 164.941 101.887 163.958 99.2261L159.089 87.0567L157.368 82.7211C157.319 82.4748 157.466 82.1792 157.761 82.1299H168.777C169.023 82.2284 169.171 82.4748 169.072 82.7704C169.023 82.7704 168.925 82.9182 168.777 82.9674Z" fill="black"/>
<path d="M160.81 104.153C162.925 104.202 164.646 102.527 164.646 100.408C164.646 99.9157 164.548 99.423 164.4 98.9796L157.86 82.5239H146.942L153.631 99.3738C154.811 102.231 157.663 104.153 160.81 104.153Z" fill="#F19D48"/>
<path d="M157.86 82.9674H146.942L147.385 82.3762L151.221 91.9836L153.532 97.7973C154.221 99.4724 154.86 101.049 156.384 102.182C157.86 103.315 160.024 104.054 161.794 103.562C163.564 103.069 164.597 101.197 164.105 99.4231C164.056 99.3246 164.056 99.2261 164.007 99.1275C163.81 98.5856 164.695 98.3392 164.892 98.8812C165.482 100.507 165.089 102.33 163.81 103.512C162.532 104.695 160.81 104.843 159.138 104.498C156.335 103.907 154.073 101.887 153.09 99.2261L148.221 87.0567L146.5 82.7211C146.451 82.4748 146.598 82.1792 146.893 82.1299H157.909C158.155 82.2284 158.302 82.4748 158.204 82.7704C158.155 82.7704 158.007 82.9182 157.86 82.9674Z" fill="black"/>
<path d="M149.893 104.153C152.008 104.202 153.729 102.527 153.729 100.408C153.729 99.9157 153.63 99.423 153.483 98.9796L146.942 82.5239H136.025L142.713 99.3738C143.893 102.231 146.746 104.153 149.893 104.153Z" fill="white"/>
<path d="M146.942 82.9674H136.025L136.468 82.3762L140.303 91.9836L142.615 97.7973C143.303 99.4724 143.942 101.049 145.467 102.182C146.942 103.315 149.106 104.054 150.877 103.562C152.647 103.069 153.68 101.197 153.188 99.4231C153.139 99.3246 153.139 99.2261 153.089 99.1275C152.893 98.5856 153.778 98.3392 153.975 98.8812C154.565 100.507 154.171 102.33 152.893 103.512C151.614 104.695 149.893 104.843 148.221 104.498C145.418 103.907 143.156 101.887 142.172 99.2261L137.304 87.0567L135.582 82.7211C135.533 82.4748 135.681 82.1792 135.976 82.1299H146.991C147.237 82.2284 147.385 82.4748 147.287 82.7704C147.188 82.7704 147.09 82.8689 146.942 82.9674Z" fill="black"/>
<path d="M138.976 104.153C141.09 104.202 142.812 102.527 142.861 100.408C142.861 99.9157 142.762 99.423 142.615 98.9796L136.074 82.5239H125.108L131.796 99.3738C132.976 102.231 135.828 104.153 138.976 104.153Z" fill="#F19D48"/>
<path d="M136.025 82.9674H125.108L125.55 82.3762L129.337 91.9836L131.648 97.7973C132.337 99.4724 132.976 101.049 134.5 102.182C135.976 103.315 138.14 104.054 139.91 103.562C141.68 103.069 142.713 101.197 142.221 99.4231C142.172 99.3246 142.172 99.2261 142.123 99.1275C141.926 98.5856 142.811 98.3392 143.008 98.8812C143.598 100.507 143.205 102.33 141.926 103.512C140.648 104.695 138.926 104.843 137.254 104.498C134.451 103.907 132.189 101.887 131.206 99.2261L126.337 87.0567L124.616 82.7211C124.567 82.4748 124.714 82.1792 125.009 82.1299H135.976C136.222 82.2284 136.369 82.4748 136.271 82.7704C136.32 82.8196 136.172 82.9182 136.025 82.9674Z" fill="black"/>
<path d="M128.058 104.153C130.173 104.202 131.894 102.527 131.943 100.408C131.943 99.9158 131.845 99.4231 131.697 98.9797L125.108 82.4747H114.19L120.878 99.3246C122.059 102.231 124.862 104.153 128.058 104.153Z" fill="white"/>
<path d="M125.108 82.9674H114.19L114.633 82.3762L118.469 91.9836L120.78 97.7973C121.468 99.4724 122.108 101.049 123.632 102.182C125.108 103.315 127.271 104.054 129.042 103.562C130.812 103.069 131.845 101.197 131.353 99.4231C131.304 99.3246 131.304 99.2261 131.255 99.1275C131.058 98.5856 131.943 98.3392 132.14 98.8812C132.73 100.507 132.337 102.33 131.058 103.512C129.779 104.695 128.058 104.843 126.386 104.498C123.583 103.907 121.321 101.887 120.337 99.2261L115.469 87.0567L113.748 82.7211C113.698 82.4748 113.846 82.1792 114.141 82.1299H125.108C125.353 82.2284 125.501 82.4748 125.403 82.7704C125.353 82.7704 125.255 82.8689 125.108 82.9674Z" fill="black"/>
<path d="M117.141 104.153C119.255 104.202 120.977 102.527 121.026 100.408C121.026 99.9157 120.927 99.423 120.78 98.9796L114.239 82.5239H103.273L109.961 99.3738C111.141 102.231 113.993 104.153 117.141 104.153Z" fill="#F19D48"/>
<path d="M114.19 82.9674H103.224L103.666 82.3762L107.502 91.9836L109.813 97.7973C110.502 99.4724 111.141 101.049 112.666 102.182C114.092 103.266 116.305 104.054 118.075 103.562C119.846 103.069 120.878 101.197 120.386 99.4231C120.337 99.3246 120.337 99.2261 120.288 99.1275C120.091 98.5856 120.977 98.3392 121.173 98.8812C121.763 100.507 121.37 102.33 120.091 103.512C118.813 104.695 117.092 104.843 115.42 104.498C112.616 103.907 110.354 101.887 109.371 99.2261L104.551 87.0567L102.83 82.7211C102.781 82.4748 102.928 82.1792 103.224 82.1299H114.239C114.485 82.2284 114.633 82.4748 114.534 82.7704C114.485 82.7704 114.338 82.9182 114.19 82.9674Z" fill="black"/>
<path d="M106.224 104.153C108.338 104.202 110.059 102.527 110.109 100.408C110.109 99.9157 110.01 99.423 109.863 98.9796L103.322 82.5239H92.3555L99.0436 99.3738C100.224 102.231 103.027 104.153 106.224 104.153Z" fill="white"/>
<path d="M103.273 82.9674H92.3063L92.7489 82.3762L96.5847 91.9836L98.8961 97.7973C99.5846 99.4724 100.224 101.049 101.748 102.182C103.273 103.315 105.388 104.054 107.158 103.562C108.928 103.069 109.961 101.197 109.469 99.4231C109.42 99.3246 109.42 99.2261 109.371 99.1275C109.174 98.5856 110.059 98.3392 110.256 98.8812C110.846 100.507 110.453 102.33 109.174 103.512C107.896 104.695 106.174 104.843 104.502 104.498C101.699 103.857 99.437 101.887 98.4535 99.2261L93.6341 87.0567L91.9129 82.7211C91.8637 82.4748 92.0112 82.1792 92.3063 82.1299H103.322C103.568 82.2284 103.715 82.4748 103.617 82.7704C103.519 82.7704 103.42 82.9182 103.273 82.9674Z" fill="black"/>
<path d="M95.306 104.153C97.4207 104.202 99.1419 102.527 99.191 100.408C99.191 99.9157 99.0927 99.423 98.9452 98.9796L92.4046 82.5239H81.438L88.1261 99.3738C89.3064 102.231 92.1587 104.153 95.306 104.153Z" fill="#F19D48"/>
<path d="M92.3554 82.9674H81.3888L81.8314 82.3762L85.6673 91.9836L87.9786 97.7973C88.6671 99.4724 89.3064 101.049 90.8309 102.182C92.3062 103.315 94.47 104.054 96.2404 103.562C98.0108 103.069 99.0435 101.197 98.5517 99.4231C98.5026 99.3246 98.5026 99.2261 98.4534 99.1275C98.2567 98.5856 99.1419 98.3392 99.3386 98.8812C99.9287 100.507 99.5353 102.33 98.2567 103.512C96.9781 104.695 95.2569 104.843 93.5848 104.498C90.7817 103.907 88.5196 101.887 87.536 99.2261L82.7166 87.0567L80.9954 82.7211C80.9462 82.4748 81.0938 82.1792 81.3888 82.1299H92.4046C92.6505 82.2284 92.798 82.4748 92.6996 82.7704C92.6013 82.7704 92.5029 82.8689 92.3554 82.9674Z" fill="black"/>
<path d="M201.382 82.8689C203.546 88.2392 205.66 93.6587 207.824 99.029C207.972 99.3739 208.512 99.2261 208.414 98.8812C206.25 93.5109 204.136 88.0914 201.972 82.7211C201.824 82.327 201.283 82.524 201.382 82.8689Z" fill="black"/>
<path d="M340.898 297.384C334.653 282.554 332.833 254.52 337.013 235.306L338.488 228.95" fill="#CFEDFF"/>
<path d="M340.898 297.384C334.653 282.554 332.833 254.52 337.013 235.306L338.488 228.95" stroke="black" stroke-width="1.52" stroke-miterlimit="10" stroke-linecap="round"/>
<path d="M338.193 227.62L348.324 220.131L354.373 217.421L360.225 226.191C366.864 242.499 367.847 252.944 367.503 262.502L366.913 279.105" fill="#CFEDFF"/>
<path d="M338.193 227.62L348.324 220.131L354.373 217.421L360.225 226.191C366.864 242.499 367.847 252.944 367.503 262.502L366.913 279.105" stroke="black" stroke-width="1.52" stroke-miterlimit="10" stroke-linecap="round"/>
<path d="M353.045 286.594C351.324 276.002 350.93 244.667 350.93 244.667C350.93 244.667 344.046 243.484 343.947 236.094" fill="#CFEDFF"/>
<path d="M353.045 286.594C351.324 276.002 350.93 244.667 350.93 244.667C350.93 244.667 344.046 243.484 343.947 236.094" stroke="black" stroke-width="1.52" stroke-miterlimit="10" stroke-linecap="round"/>
<path d="M266.886 158.102L279.181 151.599L298.802 191.506C298.802 191.506 335.735 182.441 346.996 182.49C351.176 182.49 331.997 206.73 331.997 206.73L308.49 210.474C296.589 211.657 285.328 204.759 280.951 193.625L266.886 158.102Z" fill="#FCB332"/>
<path d="M279.181 151.648L266.886 158.151L268.263 161.649L280.902 155.097L279.181 151.648Z" fill="#FC9797"/>
<path d="M347.046 182.539C336.915 178.548 298.852 191.555 298.852 191.555L283.705 160.812L262.805 167.956L277.902 197.96C287.443 216.534 301.261 215.943 316.752 212.297L332.047 206.828C331.997 206.779 350.931 184.066 347.046 182.539Z" fill="#F19D48"/>
<path d="M286.557 166.822L271.755 174.558C269.345 175.839 266.345 174.902 265.067 172.488C265.067 172.439 265.017 172.439 265.017 172.39L264.427 171.207" stroke="#1A1C35" stroke-width="1.52" stroke-miterlimit="10" stroke-linecap="round"/>
<path d="M347.045 182.539C336.915 178.548 298.851 191.555 298.851 191.555L283.705 160.812L262.804 167.956L277.902 197.96C287.442 216.534 301.261 215.943 316.752 212.297L332.046 206.828C331.997 206.779 350.93 184.066 347.045 182.539Z" stroke="#1A1C35" stroke-width="1.52" stroke-miterlimit="10" stroke-linecap="round"/>
<path d="M264.231 163.719C262.706 164.507 262.067 166.428 262.854 167.956C263.64 169.483 265.558 170.123 267.083 169.335L270.574 167.512L268.263 161.6L264.231 163.719Z" fill="black" stroke="black" stroke-width="1.52" stroke-miterlimit="10" stroke-linecap="round"/>
<path d="M280.902 155.097L268.263 161.649L270.575 167.562L283.656 160.812L280.902 155.097Z" fill="#FC9797"/>
<path d="M363.717 233.434L364.159 196.236C364.257 188.698 358.75 182.244 351.324 181.11C343.603 179.928 336.275 184.855 334.407 192.393L334.358 192.59C333.718 195.053 331.751 196.926 329.243 197.418C324.866 198.354 322.014 202.641 322.948 207.075C323.489 209.785 325.407 212.002 327.965 212.987C328.358 213.135 328.801 213.283 329.243 213.381L324.227 229.344L363.717 233.434Z" fill="#F19D48"/>
<path d="M337.603 186.234C336.079 188.008 334.948 190.176 334.407 192.442L334.358 192.639C333.718 195.103 331.751 196.975 329.243 197.468C324.866 198.404 322.014 202.69 322.948 207.124C323.489 209.834 325.407 212.051 327.965 213.036C328.358 213.184 328.801 213.332 329.243 213.431L324.227 229.394L363.717 233.483L364.11 196.285C364.208 188.747 358.7 182.293 351.275 181.16" stroke="black" stroke-width="1.52" stroke-miterlimit="10" stroke-linecap="round"/>
<path d="M268.263 161.6L264.231 163.719C262.706 164.507 262.067 166.428 262.854 167.956C263.64 169.483 265.558 170.123 267.083 169.335L283.656 160.861" stroke="black" stroke-width="1.52" stroke-miterlimit="10" stroke-linecap="round"/>
<path d="M279.131 151.599L284.295 162.093" stroke="black" stroke-width="1.52" stroke-miterlimit="10" stroke-linecap="round"/>
<path d="M266.837 158.151L270.673 167.364" stroke="black" stroke-width="1.52" stroke-miterlimit="10" stroke-linecap="round"/>
<path d="M352.602 152.732L344.242 151.352C342.127 151.007 340.111 152.436 339.767 154.555C339.718 154.998 339.718 155.441 339.767 155.836C339.964 157.018 340.357 158.102 340.898 159.186C341.39 160.171 341.537 161.255 341.39 162.339C341.045 164.408 342.472 166.379 344.537 166.724L347.143 167.167L352.602 152.732Z" fill="black" stroke="black" stroke-width="1.52" stroke-miterlimit="10" stroke-linecap="round"/>
<path d="M374.88 169.434C374.732 169.434 374.585 169.384 374.486 169.384L374.929 166.822C375.568 162.881 372.912 159.186 368.978 158.545L362.979 157.56L361.602 165.886C360.766 171.06 364.257 175.986 369.421 176.824L373.109 177.415C373.257 177.464 373.355 177.464 373.503 177.514C375.716 177.908 377.83 176.43 378.224 174.213C378.617 171.996 377.142 169.877 374.929 169.483C374.929 169.434 374.88 169.434 374.88 169.434Z" fill="black" stroke="black" stroke-width="1.52" stroke-miterlimit="10" stroke-linecap="round"/>
<path d="M362.684 162.487C364.422 162.487 365.831 161.075 365.831 159.334C365.831 157.592 364.422 156.18 362.684 156.18C360.946 156.18 359.537 157.592 359.537 159.334C359.537 161.075 360.946 162.487 362.684 162.487Z" fill="#F19D48" stroke="black" stroke-width="1.52" stroke-miterlimit="10"/>
<path d="M357.323 166.182L356.192 181.307L346.111 183.18L349.111 165" fill="#FC9797"/>
<path d="M346.111 183.229L349.111 165.049" stroke="black" stroke-width="1.52" stroke-miterlimit="10" stroke-linecap="round"/>
<path d="M348.128 171.158C348.128 171.158 350.537 171.799 352.553 170.961C351.619 173.671 347.292 176.233 347.292 176.233L348.128 171.158Z" fill="black"/>
<path d="M350.832 171.749C354.444 171.749 357.373 168.816 357.373 165.197C357.373 161.578 354.444 158.644 350.832 158.644C347.22 158.644 344.292 161.578 344.292 165.197C344.292 168.816 347.22 171.749 350.832 171.749Z" fill="#FC9797"/>
<path d="M352.405 171.602C348.914 172.439 345.324 170.321 344.488 166.773C343.652 163.275 345.767 159.679 349.307 158.841C350.143 158.644 351.029 158.595 351.914 158.742" stroke="black" stroke-width="1.52" stroke-miterlimit="10" stroke-linecap="round"/>
<path d="M360.913 165.64L356.979 171.552C356.979 171.552 353.537 170.961 354.127 166.527C356.389 166.034 355.897 162.782 354.373 163.029C352.848 163.275 352.406 166.773 352.406 166.773C352.406 166.773 351.914 166.478 352.061 164.261C352.11 163.127 351.373 162.142 350.242 161.896C348.029 161.403 345.816 159.235 344.783 156.378C344.193 154.801 344.045 153.126 344.34 151.451C348.668 152.091 353.586 152.879 357.176 153.52C360.962 154.16 363.569 157.757 362.929 161.551C362.782 162.536 362.389 163.423 361.897 164.261L360.913 165.64Z" fill="black" stroke="black" stroke-width="1.52" stroke-miterlimit="10" stroke-linecap="round"/>
<path d="M356.979 171.552L356.192 181.357" stroke="black" stroke-width="1.52" stroke-miterlimit="10" stroke-linecap="round"/>
<path d="M374.634 169.384L370.208 168.645Z" fill="#FCB332"/>
<path d="M374.634 169.384L370.208 168.645" stroke="black" stroke-width="1.52" stroke-miterlimit="10" stroke-linecap="round"/>
<path d="M343.209 184.904L343.554 179.583C343.603 178.893 344.242 178.351 344.931 178.401L356.586 179.484C357.274 179.534 357.815 180.174 357.766 180.913V180.963L357.471 183.771" fill="#F19D48"/>
<path d="M343.209 184.904L343.554 179.583C343.603 178.893 344.242 178.351 344.931 178.401L356.586 179.484C357.274 179.534 357.815 180.174 357.766 180.913V180.963L357.471 183.771" stroke="black" stroke-width="1.52" stroke-miterlimit="10" stroke-linecap="round"/>
<path d="M400.747 214.071L412.353 177.662L399.616 172.045L382.502 210.179L359.438 191.013L353.389 203.33L372.273 225.551C380.732 231.216 392.141 228.95 397.796 220.476C398.632 219.195 399.321 217.865 399.813 216.436L400.747 214.071Z" fill="#FC9797"/>
<path d="M407.583 208.849L403.206 218.604C397.354 230.724 382.306 232.3 372.323 225.6L348.57 205.301L357.422 183.722L362.88 185.988C365.536 186.875 367.897 188.451 369.814 190.471L384.469 206.04L394.305 183.771L416.336 188.698L407.583 208.849Z" fill="#F19D48"/>
<path d="M394.354 183.771L384.518 206.04L368.978 189.929C367.404 188.303 365.536 187.022 363.47 186.185L357.421 183.672" stroke="black" stroke-width="1.52" stroke-miterlimit="10" stroke-linecap="round"/>
<path d="M416.385 188.698L407.583 208.848L403.206 218.604C397.354 230.724 382.305 232.3 372.322 225.6L355.258 211.016" stroke="black" stroke-width="1.52" stroke-miterlimit="10" stroke-linecap="round"/>
<path d="M261.329 153.668L267.919 141.597L276.181 145.933L279.377 154.16L268.312 160.713C265.263 159.481 262.854 157.067 261.526 154.062L261.329 153.668Z" fill="#FC9797"/>
<path d="M258.673 152.239C258.723 153.618 259.706 154.85 261.083 155.146L265.312 156.082C266.05 156.279 266.788 155.835 266.984 155.096C267.181 154.407 266.837 153.668 266.197 153.421L259.116 149.086L258.673 152.239Z" fill="#FC9797" stroke="black" stroke-width="1.52" stroke-miterlimit="10" stroke-linecap="round"/>
<path d="M259.116 148.889C258.968 150.12 259.657 151.254 260.837 151.648L266.247 153.668C266.984 153.963 267.87 153.668 268.214 152.929C268.558 152.239 268.263 151.401 267.624 151.007L259.804 145.243L259.116 148.889Z" fill="#FC9797" stroke="black" stroke-width="1.52" stroke-miterlimit="10" stroke-linecap="round"/>
<path d="M268.263 160.713C265.214 159.481 264.034 158.496 262.165 155.441" stroke="black" stroke-width="1.52" stroke-miterlimit="10" stroke-linecap="round"/>
<path d="M259.756 145.243C259.559 146.475 260.149 147.755 261.28 148.347L266.985 151.5C267.673 151.894 268.608 151.697 269.001 151.007C269.394 150.367 269.05 148.495 268.46 148.002L260.592 140.464L259.756 145.243Z" fill="#FC9797"/>
<path d="M266.542 146.475L255.034 137.163C254.395 136.67 254.297 135.734 254.789 135.094C255.231 134.453 256.116 134.305 256.756 134.699L268.46 141.843L266.542 146.475Z" fill="#FC9797"/>
<path d="M272.689 144.307L256.805 134.699C256.166 134.305 255.28 134.453 254.838 135.094C254.346 135.734 254.444 136.67 255.084 137.163L262.214 142.681" stroke="black" stroke-width="1.52" stroke-miterlimit="10" stroke-linecap="round"/>
<path d="M260.346 141.252L259.756 145.194C259.559 146.425 260.149 147.706 261.28 148.297L266.985 151.451C267.673 151.845 268.608 151.648 269.001 150.958C269.394 150.317 269.247 149.431 268.657 148.987L263.493 145.144" stroke="black" stroke-width="1.52" stroke-miterlimit="10" stroke-linecap="round"/>
<path d="M268.558 156.673C267.821 151.598 271.411 147.953 271.411 147.953L267.476 146.918C266.05 146.524 265.165 145.095 265.509 143.666L265.706 142.779L273.329 143.518C274.509 143.617 275.542 144.307 276.083 145.292L279.377 152.14" fill="#FC9797"/>
<path d="M268.558 156.673C267.821 151.598 271.411 147.953 271.411 147.953L267.476 146.918C266.05 146.524 265.165 145.095 265.509 143.666L265.706 142.779L273.329 143.518C274.509 143.617 275.542 144.307 276.083 145.292L279.377 152.14" stroke="black" stroke-width="1.52" stroke-miterlimit="10" stroke-linecap="round"/>
<path d="M324.375 229.541C322.014 233.975 320.096 238.607 318.67 243.435C316.703 249.988 316.359 256.984 317.687 263.684C317.982 265.064 318.178 265.803 318.178 265.803" stroke="black" stroke-width="1.52" stroke-miterlimit="10" stroke-linecap="round"/>
<path d="M160.712 222.939L135.14 228.162Z" fill="white"/>
<path d="M160.712 222.939L135.14 228.162" stroke="black" stroke-width="1.55" stroke-miterlimit="10"/>
<path d="M148.713 220.328C137.796 211.213 138.976 219.885 134.697 225.403C132.632 228.063 123.485 216.929 122.993 223.629C122.649 228.507 117.141 230.477 118.321 250.776" fill="#CFEDFF"/>
<path d="M148.713 220.328C137.796 211.213 138.976 219.885 134.697 225.403C132.632 228.063 123.485 216.929 122.993 223.629C122.649 228.507 117.141 230.477 118.321 250.776" stroke="black" stroke-width="1.52" stroke-miterlimit="10" stroke-linecap="round"/>
<path d="M136.665 247.426C136.665 247.426 143.304 245.849 143.107 239.444" stroke="black" stroke-width="1.55" stroke-miterlimit="10"/>
<path d="M163.565 228.605C163.565 228.605 164.745 231.955 165.827 241.119C166.024 242.745 167.105 252.451 166.86 254.028C166.122 258.659 164.106 258.265 164.106 258.265" stroke="black" stroke-width="1.55" stroke-miterlimit="10"/>
<path d="M193.366 171.552L216.873 136.621L204.283 126.225L172.121 167.315L123.042 182.539L140.795 201.36L160.319 195.694C173.793 191.752 185.498 183.229 193.366 171.552Z" fill="#FC9797" stroke="black" stroke-width="1.55" stroke-miterlimit="10"/>
<path d="M117.485 192.393C117.289 185.84 120.731 179.682 126.386 176.43L126.239 174.755C126.141 173.523 127.026 172.39 128.304 172.291H128.403L140.402 171.848C141.533 171.799 142.517 172.587 142.713 173.72L143.107 175.986C147.631 178.253 150.975 182.342 152.303 187.22L152.844 189.19C158.548 187.663 164.45 191.013 165.974 196.778C167.499 202.542 164.155 208.405 158.401 209.932L163.368 228.359L118.813 236.045L117.485 192.393Z" fill="#CFEDFF" stroke="black" stroke-width="1.55" stroke-miterlimit="10" stroke-linecap="round"/>
<path d="M138.238 141.104C138.238 141.104 146.844 141.252 144.631 154.308C145.762 157.314 146.992 161.009 147.68 162.782C148.221 164.113 147.582 165.591 146.254 166.133C146.106 166.182 145.959 166.231 145.861 166.28L138.533 167.857L134.107 147.263" fill="black"/>
<path d="M138.238 141.104C138.238 141.104 146.844 141.252 144.631 154.308C145.762 157.314 146.992 161.009 147.68 162.782C148.221 164.113 147.582 165.591 146.254 166.133C146.106 166.182 145.959 166.231 145.861 166.28L138.533 167.857L134.107 147.263" stroke="black" stroke-width="1.55" stroke-miterlimit="10" stroke-linecap="round"/>
<path d="M201.333 139.035L205.906 117.16L207.48 115.287L209.496 114.745L215.102 115.879L245.592 122.284L252.035 124.008L253.166 126.225L252.822 129.083L248.937 149.135L247.953 150.071L246.035 151.253H243.822L203.497 142.779L201.48 140.464L201.333 139.035Z" fill="#F19D48"/>
<path d="M253.412 127.802C253.854 125.732 252.526 123.762 250.461 123.318L245.592 122.284L238.068 100.803C237.478 99.1274 236.298 97.9449 234.773 97.6493C233.249 97.3537 231.724 97.8957 230.495 99.2259L215.102 115.879L210.234 114.844C208.168 114.401 206.201 115.731 205.759 117.8L201.431 138.591C200.988 140.661 202.316 142.632 204.382 143.075L244.658 151.549C246.723 151.993 248.691 150.662 249.133 148.593L253.412 127.802ZM250.412 123.614C252.281 124.008 253.461 125.831 253.067 127.703L252.33 131.25C251.936 133.123 250.117 134.305 248.248 133.911L231.233 130.364L230.102 128.59L235.708 120.461L250.412 123.614ZM235.364 120.461L229.905 128.344L228.823 126.718C228.774 126.619 228.675 126.619 228.577 126.669L226.954 127.752L225.135 118.342L235.364 120.461ZM219.922 116.864L233.642 102.083C233.691 102.034 233.79 101.985 233.888 102.034C233.987 102.034 234.036 102.083 234.085 102.182L240.773 121.249L219.922 116.864ZM228.675 127.063L232.413 132.778L226.708 136.522L222.971 130.807L228.675 127.063ZM230.79 99.423C231.921 98.1913 233.396 97.6493 234.724 97.9449C236.101 98.2405 237.183 99.3245 237.773 100.901L245.199 122.185L241.117 121.347L234.38 102.083C234.331 101.886 234.134 101.739 233.937 101.739C233.741 101.689 233.544 101.739 233.396 101.886L219.528 116.815L215.447 115.977L230.79 99.423ZM206.054 117.849C206.447 115.977 208.267 114.795 210.135 115.189L224.84 118.293L226.708 127.949L224.938 129.083L207.922 125.535C206.054 125.141 204.873 123.318 205.267 121.446L206.054 117.849ZM212.398 144.405L204.382 142.73C202.513 142.336 201.333 140.513 201.726 138.641L205.021 122.924C205.316 124.353 206.447 125.535 207.922 125.831L215.938 127.506L212.398 144.405ZM222.43 146.524L212.693 144.504L215.004 133.32L224.741 135.34L222.43 146.524ZM224.84 135.044L215.102 133.024L216.233 127.605L224.594 129.378L222.627 130.659C222.528 130.709 222.528 130.807 222.577 130.906L224.938 134.551L224.84 135.044ZM226.266 147.361L222.774 146.622L225.233 134.847L226.512 136.818C226.544 136.851 226.577 136.867 226.61 136.867H226.708L228.675 135.586L226.266 147.361ZM236.298 149.431L226.561 147.411L228.872 136.227L238.609 138.247L236.298 149.431ZM238.708 137.951L228.97 135.931L229.118 135.34L232.757 132.975C232.855 132.926 232.855 132.827 232.806 132.729L231.528 130.758L239.888 132.531L238.708 137.951ZM244.658 151.204L236.642 149.529L240.183 132.63L248.199 134.305C249.723 134.601 251.199 133.96 252.035 132.827L248.74 148.544C248.346 150.367 246.527 151.598 244.658 151.204Z" fill="black" stroke="black" stroke-miterlimit="10"/>
<path d="M225.872 131.497L227.2 133.566C227.233 133.599 227.266 133.615 227.298 133.615H227.397L229.462 132.285C229.561 132.236 229.561 132.137 229.511 132.039L228.184 129.969C228.134 129.871 228.036 129.871 227.938 129.92L225.872 131.25C225.823 131.349 225.823 131.448 225.872 131.497ZM227.987 130.314L229.167 132.088L227.397 133.27L226.217 131.497L227.987 130.314Z" fill="black" stroke="black" stroke-miterlimit="10"/>
<path d="M218.643 141.449C219.627 141.646 220.561 141.006 220.758 140.07C220.954 139.084 220.315 138.148 219.381 137.951C218.397 137.754 217.463 138.394 217.266 139.331C217.02 140.267 217.66 141.252 218.643 141.449ZM219.282 138.247C220.069 138.394 220.61 139.183 220.414 139.971C220.266 140.759 219.479 141.301 218.692 141.104C217.905 140.956 217.365 140.168 217.561 139.38C217.758 138.591 218.496 138.05 219.282 138.247Z" fill="black" stroke="black" stroke-miterlimit="10"/>
<path d="M232.118 144.257C233.101 144.454 234.036 143.814 234.232 142.878C234.429 141.893 233.79 140.956 232.855 140.759C231.872 140.562 230.938 141.203 230.741 142.139C230.544 143.124 231.134 144.06 232.118 144.257ZM232.806 141.055C233.593 141.203 234.134 141.991 233.937 142.779C233.79 143.568 233.003 144.11 232.216 143.913C231.429 143.765 230.888 142.976 231.085 142.188C231.233 141.4 232.019 140.907 232.806 141.055Z" fill="black" stroke="black" stroke-miterlimit="10"/>
<path d="M126.977 158.496L129.14 176.183L141.041 177.809L136.517 156.624" fill="#FC9797"/>
<path d="M141.09 177.809L136.566 156.624" stroke="black" stroke-width="1.55" stroke-miterlimit="10" stroke-linecap="round"/>
<path d="M138.091 163.817C138.091 163.817 135.288 164.704 132.927 163.817C134.206 166.921 139.369 169.729 139.369 169.729L138.091 163.817Z" fill="black"/>
<path d="M134.55 164.704C138.814 164.704 142.271 161.241 142.271 156.969C142.271 152.697 138.814 149.234 134.55 149.234C130.286 149.234 126.829 152.697 126.829 156.969C126.829 161.241 130.286 164.704 134.55 164.704Z" fill="#FC9797"/>
<path d="M133.075 164.507C137.255 165.344 141.287 162.585 142.123 158.398C142.959 154.21 140.205 150.17 136.025 149.332C134.992 149.135 133.96 149.135 132.927 149.381" stroke="black" stroke-width="1.55" stroke-miterlimit="10" stroke-linecap="round"/>
<path d="M135.091 152.978C133.812 153.323 132.976 154.555 133.124 155.836C133.419 158.397 132.878 158.792 132.878 158.792C132.878 158.792 132.239 154.752 130.37 154.555C128.55 154.357 128.157 158.2 130.862 158.644L132.435 166.083C132.829 167.808 131.698 169.483 129.976 169.877C129.927 169.877 129.878 169.877 129.829 169.926L124.174 170.862C122.452 171.158 120.78 169.976 120.485 168.251C120.485 168.103 120.436 168.005 120.436 167.857L119.846 152.485C119.551 148.248 122.403 144.454 126.485 143.617C129.386 142.976 133.075 142.188 136.714 141.4L137.009 141.351C139.959 140.71 142.861 142.582 143.5 145.538C144.14 148.445 142.32 151.303 139.419 151.993L135.091 152.978Z" fill="black" stroke="black" stroke-width="1.55" stroke-miterlimit="10"/>
<path d="M128.501 170.123L129.19 176.183" stroke="black" stroke-width="1.55" stroke-miterlimit="10" stroke-linecap="round"/>
<path d="M141.484 173.818C141.484 173.818 133.763 175.346 128.255 174.262" stroke="black" stroke-width="1.55" stroke-miterlimit="10" stroke-linecap="round"/>
<path d="M128.599 175.198L128.649 177.267" stroke="black" stroke-width="1.55" stroke-miterlimit="10" stroke-linecap="round"/>
<path d="M130.862 175.789L130.911 177.858" stroke="black" stroke-width="1.55" stroke-miterlimit="10" stroke-linecap="round"/>
<path d="M133.222 176.085L133.271 178.154" stroke="black" stroke-width="1.55" stroke-miterlimit="10" stroke-linecap="round"/>
<path d="M141.041 174.853L141.287 176.922" stroke="black" stroke-width="1.55" stroke-miterlimit="10" stroke-linecap="round"/>
<path d="M138.73 175.395L138.976 177.464" stroke="black" stroke-width="1.55" stroke-miterlimit="10" stroke-linecap="round"/>
<path d="M136.271 176.233L136.517 178.302" stroke="black" stroke-width="1.55" stroke-miterlimit="10" stroke-linecap="round"/>
<path d="M146.844 204.414C146.844 204.414 138.336 210.179 130.468 205.892" stroke="black" stroke-width="1.55" stroke-miterlimit="10" stroke-linecap="round"/>
<path d="M141.484 173.818C141.484 173.818 133.763 175.346 128.255 174.262C128.55 176.775 128.993 179.238 129.632 181.652L143.254 181.159L141.484 173.818Z" fill="#CFEDFF"/>
<path d="M207.037 149.825L169.269 179.484L136.664 181.455C130.222 181.849 125.354 187.367 125.747 193.822C125.845 195.595 126.386 197.32 127.272 198.896C129.435 202.69 133.517 204.956 137.894 204.808L151.073 204.217C165.138 203.626 178.514 198.108 188.94 188.599L220.069 160.27" fill="#FC9797"/>
<path d="M207.037 149.825L169.269 179.484L136.664 181.455C130.222 181.849 125.354 187.367 125.747 193.822C125.845 195.595 126.386 197.32 127.272 198.896C129.435 202.69 133.517 204.956 137.894 204.808L151.073 204.217C165.138 203.626 178.514 198.108 188.94 188.599L220.069 160.27" stroke="black" stroke-width="1.55" stroke-miterlimit="10"/>
<path d="M210.873 154.062L221.495 142.287C222.626 141.055 222.528 139.183 221.348 138.049L220.659 137.36L206.742 150.071L210.873 154.062Z" fill="#FC9797"/>
<path d="M206.742 150.071L220.659 137.36L221.348 138.049C222.528 139.183 222.577 141.055 221.495 142.287L218.446 145.686C218.446 145.686 222.774 148.79 221.84 155.441" stroke="black" stroke-width="1.55" stroke-miterlimit="10" stroke-linecap="round"/>
<path d="M221.692 155.983L237.38 155.885C238.314 155.885 239.052 155.146 239.052 154.21C239.052 153.372 238.413 152.633 237.577 152.534L222.43 150.81L221.692 155.983Z" fill="#FC9797" stroke="black" stroke-width="1.55" stroke-miterlimit="10" stroke-linecap="round"/>
<path d="M224.053 153.766L228.38 152.879L230.446 152.436L239.347 150.613C240.232 150.416 240.822 149.578 240.625 148.642C240.478 147.805 239.691 147.213 238.855 147.312L223.659 148.593L224.053 153.766Z" fill="#FC9797"/>
<path d="M229.069 152.732L230.495 152.436L239.396 150.613C240.281 150.416 240.871 149.578 240.675 148.642C240.527 147.805 239.74 147.213 238.904 147.312L223.708 148.593L224.053 153.815" stroke="black" stroke-width="1.55" stroke-miterlimit="10" stroke-linecap="round"/>
<path d="M224.889 150.071L239.789 145.194C240.675 144.898 241.117 143.962 240.871 143.124C240.625 142.287 239.789 141.794 238.953 141.991L224.003 144.947L224.889 150.071Z" fill="#FC9797"/>
<path d="M228.97 148.741L239.839 145.194C240.724 144.898 241.166 143.962 240.921 143.124C240.675 142.287 239.839 141.794 239.003 141.991L224.053 144.947L224.987 150.071" stroke="black" stroke-width="1.55" stroke-miterlimit="10" stroke-linecap="round"/>
<path d="M224.299 146.376L236.298 141.35C237.134 141.006 237.577 140.02 237.233 139.183C236.937 138.394 236.052 137.902 235.216 138.148L223.61 141.153L224.299 146.376Z" fill="#FC9797"/>
<path d="M228.135 155.934L224.84 140.858L216.676 142.73L207.48 150.613L218.397 161.354C222.086 160.959 225.43 159.186 227.79 156.328L228.135 155.934Z" fill="#FC9797"/>
<path d="M218.397 161.403C222.086 161.009 225.479 159.137 227.84 156.279L228.135 155.934" stroke="black" stroke-width="1.55" stroke-miterlimit="10" stroke-linecap="round"/>
<path d="M227.446 145.144L236.298 141.35C237.134 141.006 237.576 140.02 237.232 139.183C236.937 138.394 236.052 137.902 235.216 138.148L219.332 142.09" stroke="black" stroke-width="1.55" stroke-miterlimit="10" stroke-linecap="round"/>
</g>
<path d="M180.088 298.764H89.9945C82.0278 298.764 75.5364 292.31 75.5364 284.279V86.86C75.5364 78.8784 81.9786 72.375 89.9945 72.375H180.137C188.104 72.375 194.595 78.8292 194.595 86.86V284.279C194.546 292.261 188.104 298.764 180.088 298.764Z" fill="white" stroke="black" stroke-width="1.52" stroke-miterlimit="10" stroke-linecap="round"/>
<path d="M93.6337 82.4258H113.403V85.4804C113.403 88.7322 115.96 91.3927 119.108 91.3927H150.975C154.122 91.3927 156.679 88.7322 156.679 85.4804V82.4258H176.448C181.514 82.4258 185.645 86.7121 185.645 91.9839V265.311C185.645 270.582 181.514 274.869 176.448 274.869H93.6337C88.5684 274.869 84.4375 270.582 84.4375 265.311V91.9839C84.4867 86.7121 88.5684 82.4258 93.6337 82.4258Z" fill="#CFEDFF" stroke="black" stroke-width="1.52" stroke-miterlimit="10" stroke-linecap="round"/>
<path d="M304.162 331.626H394.304C402.271 331.626 408.763 325.172 408.763 317.141V119.771C408.763 111.79 402.32 105.286 394.304 105.286H304.162C296.196 105.286 289.704 111.74 289.704 119.771V317.19C289.704 325.172 296.146 331.626 304.162 331.626Z" fill="black" stroke="black" stroke-width="1.52" stroke-miterlimit="10" stroke-linecap="round"/>
<path d="M292.999 331.626H383.141C391.108 331.626 397.6 325.172 397.6 317.141V119.771C397.6 111.79 391.157 105.286 383.141 105.286H292.999C285.032 105.286 278.541 111.74 278.541 119.771V317.19C278.59 325.172 285.032 331.626 292.999 331.626Z" fill="white" stroke="black" stroke-width="1.52" stroke-miterlimit="10" stroke-linecap="round"/>
<path d="M379.453 115.337H359.684V118.392C359.684 121.643 357.126 124.304 353.979 124.304H322.112C318.965 124.304 316.407 121.643 316.407 118.392V115.337H296.638C291.573 115.337 287.442 119.623 287.442 124.895V298.222C287.442 303.494 291.573 307.78 296.638 307.78H379.404C384.469 307.78 388.6 303.494 388.6 298.222V124.846C388.649 119.623 384.567 115.337 379.453 115.337Z" fill="#CFEDFF" stroke="black" stroke-width="1.52" stroke-miterlimit="10" stroke-linecap="round"/>
<path d="M352.651 118.884C354.064 118.884 355.209 117.737 355.209 116.322C355.209 114.907 354.064 113.76 352.651 113.76C351.239 113.76 350.094 114.907 350.094 116.322C350.094 117.737 351.239 118.884 352.651 118.884Z" fill="black" stroke="black" stroke-width="1.52" stroke-miterlimit="10" stroke-linecap="round"/>
<path d="M344.095 116.224H323.883Z" fill="#CFEDFF"/>
<path d="M344.095 116.224H323.883" stroke="black" stroke-width="1.52" stroke-miterlimit="10" stroke-linecap="round"/>
<path d="M204.529 104.153C206.643 104.203 208.365 102.527 208.414 100.409C208.414 99.9162 208.315 99.4235 208.168 98.9801L201.627 82.5244H190.661L197.349 99.3743C198.529 102.232 201.332 104.153 204.529 104.153Z" fill="#F19D48"/>
<path d="M201.578 82.9679H190.611L191.054 82.3767L194.89 91.984L197.201 97.7977C197.84 99.4729 198.529 101.049 200.053 102.183C201.529 103.316 203.693 104.055 205.463 103.562C207.233 103.069 208.266 101.197 207.774 99.3743C207.725 99.2758 207.725 99.1772 207.676 99.0787C207.479 98.5368 208.364 98.2904 208.561 98.8324C209.151 100.458 208.758 102.281 207.479 103.464C206.201 104.646 204.479 104.794 202.807 104.449C200.004 103.858 197.742 101.838 196.759 99.1772L191.89 87.0079L190.169 82.6723C190.12 82.4259 190.267 82.1303 190.562 82.0811H201.578C201.824 82.1796 201.971 82.4259 201.873 82.7215C201.824 82.7708 201.725 82.9186 201.578 82.9679Z" fill="black"/>
<path d="M193.562 104.153C195.677 104.203 197.398 102.527 197.447 100.409C197.447 99.9162 197.349 99.4235 197.201 98.9801L190.661 82.5244H179.694L186.382 99.3743C187.562 102.232 190.415 104.153 193.562 104.153Z" fill="white"/>
<path d="M190.611 82.9679H179.694L180.137 82.3767L183.973 91.9841L186.284 97.7978C186.923 99.4729 187.612 101.049 189.136 102.183C190.611 103.316 192.775 104.055 194.546 103.562C196.316 103.07 197.398 101.197 196.857 99.4236C196.808 99.3251 196.808 99.2266 196.759 99.128C196.562 98.5861 197.447 98.3397 197.644 98.8817C198.234 100.508 197.841 102.33 196.562 103.513C195.283 104.695 193.562 104.843 191.89 104.498C189.087 103.907 186.825 101.887 185.841 99.2266L180.973 87.0572L179.252 82.7216C179.202 82.4753 179.35 82.1796 179.645 82.1304H190.661C190.907 82.2289 191.054 82.4753 190.956 82.7709C190.857 82.8201 190.759 82.9187 190.611 82.9679Z" fill="black"/>
<path d="M182.694 104.153C184.808 104.203 186.53 102.527 186.579 100.409C186.579 99.9162 186.481 99.4235 186.333 98.9801L179.792 82.5244H168.875L175.563 99.3743C176.645 102.232 179.497 104.153 182.694 104.153Z" fill="#F19D48"/>
<path d="M179.743 82.9679H168.826L169.268 82.3767L173.104 91.9841L175.415 97.7978C176.104 99.4729 176.743 101.049 178.268 102.183C179.743 103.316 181.907 104.055 183.677 103.562C185.448 103.07 186.48 101.197 185.989 99.4236C185.939 99.3251 185.939 99.2266 185.89 99.128C185.694 98.5861 186.579 98.3397 186.775 98.8817C187.366 100.508 186.972 102.33 185.694 103.513C184.415 104.695 182.694 104.843 181.022 104.498C178.219 103.907 175.956 101.887 174.973 99.2266L170.104 87.0572L168.383 82.7216C168.334 82.4753 168.481 82.1796 168.777 82.1304H179.792C180.038 82.2289 180.186 82.4753 180.087 82.7709C179.989 82.7709 179.891 82.9187 179.743 82.9679Z" fill="black"/>
<path d="M171.727 104.153C173.842 104.203 175.563 102.527 175.612 100.409C175.612 99.9162 175.514 99.4235 175.366 98.9801L168.826 82.5244H157.859L164.547 99.3743C165.728 102.232 168.58 104.153 171.727 104.153Z" fill="white"/>
<path d="M168.777 82.9679H157.81L158.253 82.3767L162.089 91.9841L164.4 97.7978C165.039 99.4729 165.728 101.049 167.252 102.183C168.727 103.316 170.891 104.055 172.662 103.562C174.432 103.07 175.465 101.197 174.973 99.4236C174.924 99.3251 174.924 99.2266 174.875 99.128C174.678 98.5861 175.563 98.3397 175.76 98.8817C176.35 100.508 175.957 102.33 174.678 103.513C173.399 104.695 171.678 104.843 170.006 104.498C167.203 103.907 164.941 101.887 163.957 99.2266L159.089 87.0572L157.367 82.7216C157.318 82.4753 157.466 82.1796 157.761 82.1304H168.777C169.023 82.2289 169.17 82.4753 169.072 82.7709C169.023 82.7709 168.924 82.9187 168.777 82.9679Z" fill="black"/>
<path d="M160.81 104.153C162.925 104.203 164.646 102.527 164.646 100.409C164.646 99.9162 164.547 99.4235 164.4 98.9801L157.859 82.5244H146.942L153.63 99.3743C154.81 102.232 157.663 104.153 160.81 104.153Z" fill="#F19D48"/>
<path d="M157.859 82.9679H146.942L147.385 82.3767L151.22 91.9841L153.532 97.7978C154.22 99.4729 154.859 101.049 156.384 102.183C157.859 103.316 160.023 104.055 161.793 103.562C163.564 103.07 164.597 101.197 164.105 99.4236C164.056 99.3251 164.056 99.2266 164.006 99.128C163.81 98.5861 164.695 98.3397 164.892 98.8817C165.482 100.508 165.088 102.33 163.81 103.513C162.531 104.695 160.81 104.843 159.138 104.498C156.335 103.907 154.073 101.887 153.089 99.2266L148.221 87.0572L146.499 82.7216C146.45 82.4753 146.598 82.1796 146.893 82.1304H157.908C158.154 82.2289 158.302 82.4753 158.204 82.7709C158.154 82.7709 158.007 82.9187 157.859 82.9679Z" fill="black"/>
<path d="M149.892 104.153C152.007 104.203 153.728 102.527 153.728 100.409C153.728 99.9162 153.63 99.4235 153.482 98.9801L146.942 82.5244H136.024L142.713 99.3743C143.893 102.232 146.745 104.153 149.892 104.153Z" fill="white"/>
<path d="M146.942 82.9679H136.024L136.467 82.3767L140.303 91.9841L142.614 97.7978C143.303 99.4729 143.942 101.049 145.466 102.183C146.942 103.316 149.106 104.055 150.876 103.562C152.646 103.07 153.679 101.197 153.187 99.4236C153.138 99.3251 153.138 99.2266 153.089 99.128C152.892 98.5861 153.777 98.3397 153.974 98.8817C154.564 100.508 154.171 102.33 152.892 103.513C151.614 104.695 149.892 104.843 148.22 104.498C145.417 103.907 143.155 101.887 142.172 99.2266L137.303 87.0572L135.582 82.7216C135.533 82.4753 135.68 82.1796 135.975 82.1304H146.991C147.237 82.2289 147.384 82.4753 147.286 82.7709C147.188 82.7709 147.089 82.8694 146.942 82.9679Z" fill="black"/>
<path d="M138.975 104.153C141.09 104.203 142.811 102.527 142.86 100.409C142.86 99.9162 142.762 99.4235 142.614 98.9801L136.074 82.5244H125.107L131.795 99.3743C132.976 102.232 135.828 104.153 138.975 104.153Z" fill="#F19D48"/>
<path d="M136.024 82.9679H125.107L125.55 82.3767L129.336 91.9841L131.648 97.7978C132.336 99.4729 132.975 101.049 134.5 102.183C135.975 103.316 138.139 104.055 139.909 103.562C141.68 103.07 142.713 101.197 142.221 99.4236C142.172 99.3251 142.172 99.2266 142.122 99.128C141.926 98.5861 142.811 98.3397 143.008 98.8817C143.598 100.508 143.204 102.33 141.926 103.513C140.647 104.695 138.926 104.843 137.254 104.498C134.451 103.907 132.189 101.887 131.205 99.2266L126.336 87.0572L124.615 82.7216C124.566 82.4753 124.714 82.1796 125.009 82.1304H135.975C136.221 82.2289 136.369 82.4753 136.27 82.7709C136.32 82.8201 136.172 82.9187 136.024 82.9679Z" fill="black"/>
<path d="M128.058 104.153C130.172 104.203 131.894 102.528 131.943 100.409C131.943 99.9163 131.844 99.4236 131.697 98.9802L125.107 82.4752H114.19L120.878 99.3251C122.058 102.232 124.861 104.153 128.058 104.153Z" fill="white"/>
<path d="M125.107 82.9679H114.19L114.632 82.3767L118.468 91.9841L120.779 97.7978C121.468 99.4729 122.107 101.049 123.632 102.183C125.107 103.316 127.271 104.055 129.041 103.562C130.812 103.07 131.844 101.197 131.353 99.4236C131.303 99.3251 131.303 99.2266 131.254 99.128C131.058 98.5861 131.943 98.3397 132.139 98.8817C132.73 100.508 132.336 102.33 131.058 103.513C129.779 104.695 128.058 104.843 126.386 104.498C123.583 103.907 121.32 101.887 120.337 99.2266L115.468 87.0572L113.747 82.7216C113.698 82.4753 113.845 82.1796 114.141 82.1304H125.107C125.353 82.2289 125.501 82.4753 125.402 82.7709C125.353 82.7709 125.255 82.8694 125.107 82.9679Z" fill="black"/>
<path d="M117.14 104.153C119.255 104.203 120.976 102.527 121.025 100.409C121.025 99.9162 120.927 99.4235 120.779 98.9801L114.239 82.5244H103.272L109.96 99.3743C111.141 102.232 113.993 104.153 117.14 104.153Z" fill="#F19D48"/>
<path d="M114.19 82.9679H103.223L103.666 82.3767L107.501 91.9841L109.813 97.7978C110.501 99.4729 111.141 101.049 112.665 102.183C114.091 103.267 116.304 104.055 118.075 103.562C119.845 103.07 120.878 101.197 120.386 99.4236C120.337 99.3251 120.337 99.2266 120.288 99.128C120.091 98.5861 120.976 98.3397 121.173 98.8817C121.763 100.508 121.37 102.33 120.091 103.513C118.812 104.695 117.091 104.843 115.419 104.498C112.616 103.907 110.354 101.887 109.37 99.2266L104.551 87.0572L102.83 82.7216C102.78 82.4753 102.928 82.1796 103.223 82.1304H114.239C114.485 82.2289 114.632 82.4753 114.534 82.7709C114.485 82.7709 114.337 82.9187 114.19 82.9679Z" fill="black"/>
<path d="M106.223 104.153C108.338 104.203 110.059 102.527 110.108 100.409C110.108 99.9162 110.01 99.4235 109.862 98.9801L103.322 82.5244H92.355L99.0431 99.3743C100.223 102.232 103.026 104.153 106.223 104.153Z" fill="white"/>
<path d="M103.272 82.9679H92.3058L92.7484 82.3767L96.5843 91.9841L98.8956 97.7978C99.5841 99.4729 100.223 101.049 101.748 102.183C103.272 103.316 105.387 104.055 107.157 103.562C108.928 103.07 109.961 101.197 109.469 99.4236C109.42 99.3251 109.42 99.2266 109.37 99.128C109.174 98.5861 110.059 98.3397 110.256 98.8817C110.846 100.508 110.452 102.33 109.174 103.513C107.895 104.695 106.174 104.843 104.502 104.498C101.699 103.858 99.4365 101.887 98.453 99.2266L93.6336 87.0572L91.9124 82.7216C91.8632 82.4753 92.0108 82.1796 92.3058 82.1304H103.322C103.567 82.2289 103.715 82.4753 103.617 82.7709C103.518 82.7709 103.42 82.9187 103.272 82.9679Z" fill="black"/>
<path d="M95.3055 104.153C97.4202 104.203 99.1414 102.527 99.1906 100.409C99.1906 99.9162 99.0922 99.4235 98.9447 98.9801L92.4041 82.5244H81.4375L88.1256 99.3743C89.3059 102.232 92.1582 104.153 95.3055 104.153Z" fill="#F19D48"/>
<path d="M92.3549 82.9679H81.3883L81.8309 82.3767L85.6668 91.9841L87.9781 97.7978C88.6666 99.4729 89.3059 101.049 90.8304 102.183C92.3057 103.316 94.4695 104.055 96.2399 103.562C98.0103 103.07 99.043 101.197 98.5513 99.4236C98.5021 99.3251 98.5021 99.2266 98.4529 99.128C98.2562 98.5861 99.1414 98.3397 99.3381 98.8817C99.9282 100.508 99.5348 102.33 98.2562 103.513C96.9776 104.695 95.2564 104.843 93.5843 104.498C90.7812 103.907 88.5191 101.887 87.5355 99.2266L82.7161 87.0572L80.9949 82.7216C80.9457 82.4753 81.0933 82.1796 81.3883 82.1304H92.4041C92.65 82.2289 92.7975 82.4753 92.6991 82.7709C92.6008 82.7709 92.5024 82.8694 92.3549 82.9679Z" fill="black"/>
<path d="M201.381 82.8694C203.545 88.2397 205.66 93.6592 207.824 99.0295C207.971 99.3744 208.512 99.2266 208.414 98.8817C206.25 93.5114 204.135 88.0919 201.971 82.7216C201.824 82.3274 201.283 82.5245 201.381 82.8694Z" fill="black"/>
<path d="M340.897 297.385C334.652 282.555 332.832 254.521 337.012 235.306L338.487 228.951" fill="#CFEDFF"/>
<path d="M340.897 297.385C334.652 282.555 332.832 254.521 337.012 235.306L338.487 228.951" stroke="black" stroke-width="1.52" stroke-miterlimit="10" stroke-linecap="round"/>
<path d="M338.192 227.62L348.323 220.132L354.372 217.422L360.224 226.192C366.863 242.499 367.846 252.944 367.502 262.502L366.912 279.106" fill="#CFEDFF"/>
<path d="M338.192 227.62L348.323 220.132L354.372 217.422L360.224 226.192C366.863 242.499 367.846 252.944 367.502 262.502L366.912 279.106" stroke="black" stroke-width="1.52" stroke-miterlimit="10" stroke-linecap="round"/>
<path d="M353.044 286.595C351.323 276.002 350.929 244.667 350.929 244.667C350.929 244.667 344.045 243.485 343.946 236.094" fill="#CFEDFF"/>
<path d="M353.044 286.595C351.323 276.002 350.929 244.667 350.929 244.667C350.929 244.667 344.045 243.485 343.946 236.094" stroke="black" stroke-width="1.52" stroke-miterlimit="10" stroke-linecap="round"/>
<path d="M266.885 158.102L279.18 151.599L298.801 191.507C298.801 191.507 335.734 182.441 346.995 182.49C351.175 182.49 331.996 206.731 331.996 206.731L308.489 210.475C296.588 211.657 285.327 204.76 280.95 193.625L266.885 158.102Z" fill="#FCB332"/>
<path d="M279.18 151.648L266.885 158.152L268.262 161.65L280.901 155.097L279.18 151.648Z" fill="#FC9797"/>
<path d="M347.045 182.54C336.914 178.549 298.851 191.556 298.851 191.556L283.704 160.812L262.804 167.956L277.901 197.961C287.442 216.535 301.26 215.944 316.751 212.298L332.046 206.829C331.996 206.78 350.93 184.067 347.045 182.54Z" fill="#F19D48"/>
<path d="M286.556 166.823L271.754 174.558C269.344 175.839 266.344 174.903 265.066 172.489C265.066 172.439 265.016 172.439 265.016 172.39L264.426 171.208" stroke="#1A1C35" stroke-width="1.52" stroke-miterlimit="10" stroke-linecap="round"/>
<path d="M347.044 182.54C336.914 178.549 298.85 191.556 298.85 191.556L283.704 160.812L262.803 167.956L277.901 197.961C287.441 216.535 301.26 215.944 316.751 212.298L332.045 206.829C331.996 206.78 350.929 184.067 347.044 182.54Z" stroke="#1A1C35" stroke-width="1.52" stroke-miterlimit="10" stroke-linecap="round"/>
<path d="M264.23 163.719C262.705 164.507 262.066 166.429 262.853 167.956C263.639 169.483 265.557 170.124 267.082 169.336L270.573 167.513L268.262 161.6L264.23 163.719Z" fill="black" stroke="black" stroke-width="1.52" stroke-miterlimit="10" stroke-linecap="round"/>
<path d="M280.901 155.097L268.262 161.65L270.574 167.562L283.655 160.812L280.901 155.097Z" fill="#FC9797"/>
<path d="M363.716 233.434L364.158 196.236C364.256 188.698 358.749 182.244 351.323 181.111C343.602 179.928 336.275 184.855 334.406 192.393L334.357 192.59C333.717 195.054 331.75 196.926 329.242 197.419C324.865 198.355 322.013 202.641 322.947 207.075C323.488 209.785 325.406 212.002 327.964 212.988C328.357 213.135 328.8 213.283 329.242 213.382L324.226 229.345L363.716 233.434Z" fill="#F19D48"/>
<path d="M337.602 186.235C336.078 188.008 334.947 190.176 334.406 192.443L334.357 192.64C333.717 195.103 331.75 196.975 329.242 197.468C324.865 198.404 322.013 202.691 322.947 207.125C323.488 209.834 325.406 212.052 327.964 213.037C328.357 213.185 328.8 213.333 329.242 213.431L324.226 229.394L363.716 233.483L364.109 196.286C364.207 188.748 358.699 182.293 351.274 181.16" stroke="black" stroke-width="1.52" stroke-miterlimit="10" stroke-linecap="round"/>
<path d="M268.262 161.6L264.23 163.719C262.705 164.507 262.066 166.429 262.853 167.956C263.639 169.483 265.557 170.124 267.082 169.336L283.655 160.861" stroke="black" stroke-width="1.52" stroke-miterlimit="10" stroke-linecap="round"/>
<path d="M279.13 151.599L284.294 162.093" stroke="black" stroke-width="1.52" stroke-miterlimit="10" stroke-linecap="round"/>
<path d="M266.836 158.152L270.672 167.365" stroke="black" stroke-width="1.52" stroke-miterlimit="10" stroke-linecap="round"/>
<path d="M352.601 152.732L344.241 151.353C342.126 151.008 340.11 152.437 339.766 154.555C339.717 154.998 339.717 155.442 339.766 155.836C339.963 157.018 340.356 158.102 340.897 159.186C341.389 160.172 341.536 161.256 341.389 162.339C341.044 164.409 342.471 166.38 344.536 166.724L347.143 167.168L352.601 152.732Z" fill="black" stroke="black" stroke-width="1.52" stroke-miterlimit="10" stroke-linecap="round"/>
<path d="M374.879 169.434C374.731 169.434 374.584 169.385 374.485 169.385L374.928 166.823C375.567 162.881 372.911 159.186 368.977 158.546L362.978 157.56L361.601 165.887C360.765 171.06 364.256 175.987 369.42 176.824L373.108 177.416C373.256 177.465 373.354 177.465 373.502 177.514C375.715 177.908 377.829 176.43 378.223 174.213C378.616 171.996 377.141 169.878 374.928 169.483C374.928 169.434 374.879 169.434 374.879 169.434Z" fill="black" stroke="black" stroke-width="1.52" stroke-miterlimit="10" stroke-linecap="round"/>
<path d="M362.683 162.487C364.421 162.487 365.83 161.076 365.83 159.334C365.83 157.593 364.421 156.181 362.683 156.181C360.945 156.181 359.536 157.593 359.536 159.334C359.536 161.076 360.945 162.487 362.683 162.487Z" fill="#F19D48" stroke="black" stroke-width="1.52" stroke-miterlimit="10"/>
<path d="M357.322 166.182L356.191 181.308L346.11 183.18L349.11 165" fill="#FC9797"/>
<path d="M346.11 183.229L349.11 165.049" stroke="black" stroke-width="1.52" stroke-miterlimit="10" stroke-linecap="round"/>
<path d="M348.127 171.159C348.127 171.159 350.536 171.799 352.553 170.962C351.618 173.671 347.291 176.233 347.291 176.233L348.127 171.159Z" fill="black"/>
<path d="M350.831 171.75C354.443 171.75 357.372 168.816 357.372 165.197C357.372 161.578 354.443 158.644 350.831 158.644C347.219 158.644 344.291 161.578 344.291 165.197C344.291 168.816 347.219 171.75 350.831 171.75Z" fill="#FC9797"/>
<path d="M352.405 171.602C348.913 172.44 345.323 170.321 344.487 166.774C343.651 163.276 345.766 159.679 349.306 158.841C350.142 158.644 351.028 158.595 351.913 158.743" stroke="black" stroke-width="1.52" stroke-miterlimit="10" stroke-linecap="round"/>
<path d="M360.912 165.641L356.978 171.553C356.978 171.553 353.536 170.962 354.126 166.527C356.388 166.035 355.896 162.783 354.372 163.029C352.847 163.276 352.405 166.774 352.405 166.774C352.405 166.774 351.913 166.478 352.06 164.261C352.109 163.128 351.372 162.142 350.241 161.896C348.028 161.403 345.815 159.236 344.782 156.378C344.192 154.801 344.044 153.126 344.339 151.451C348.667 152.092 353.585 152.88 357.175 153.52C360.961 154.161 363.568 157.758 362.928 161.551C362.781 162.537 362.388 163.423 361.896 164.261L360.912 165.641Z" fill="black" stroke="black" stroke-width="1.52" stroke-miterlimit="10" stroke-linecap="round"/>
<path d="M356.978 171.553L356.191 181.357" stroke="black" stroke-width="1.52" stroke-miterlimit="10" stroke-linecap="round"/>
<path d="M374.633 169.385L370.207 168.646Z" fill="#FCB332"/>
<path d="M374.633 169.385L370.207 168.646" stroke="black" stroke-width="1.52" stroke-miterlimit="10" stroke-linecap="round"/>
<path d="M343.208 184.905L343.553 179.584C343.602 178.894 344.241 178.352 344.93 178.401L356.585 179.485C357.273 179.534 357.814 180.175 357.765 180.914V180.963L357.47 183.771" fill="#F19D48"/>
<path d="M343.208 184.905L343.553 179.584C343.602 178.894 344.241 178.352 344.93 178.401L356.585 179.485C357.273 179.534 357.814 180.175 357.765 180.914V180.963L357.47 183.771" stroke="black" stroke-width="1.52" stroke-miterlimit="10" stroke-linecap="round"/>
<path d="M400.746 214.071L412.352 177.662L399.615 172.045L382.501 210.179L359.437 191.014L353.388 203.331L372.272 225.551C380.731 231.217 392.14 228.951 397.795 220.476C398.631 219.195 399.32 217.865 399.812 216.436L400.746 214.071Z" fill="#FC9797"/>
<path d="M407.582 208.849L403.205 218.604C397.353 230.724 382.305 232.301 372.322 225.6L348.569 205.302L357.421 183.722L362.879 185.988C365.535 186.875 367.896 188.452 369.814 190.472L384.468 206.041L394.304 183.771L416.335 188.698L407.582 208.849Z" fill="#F19D48"/>
<path d="M412.598 190.028L408.812 188.747L410.729 182.737L414.614 184.067C416.237 184.757 416.975 186.629 416.286 188.206C415.696 189.634 414.123 190.423 412.598 190.028Z" fill="black" stroke="black" stroke-width="1.52" stroke-miterlimit="10" stroke-linecap="round"/>
<path d="M394.353 183.771L396.959 178.007L410.729 182.737L408.811 188.748L394.353 183.771Z" fill="#FC9797"/>
<path d="M394.353 183.771L384.517 206.041L368.977 189.93C367.403 188.304 365.535 187.023 363.469 186.185L357.42 183.673" stroke="black" stroke-width="1.52" stroke-miterlimit="10" stroke-linecap="round"/>
<path d="M401.238 167.759L394.353 183.87L394.402 183.771L412.598 190.028C414.27 190.472 415.991 189.486 416.483 187.762C416.876 186.235 416.089 184.658 414.663 184.018L410.778 182.687" stroke="black" stroke-width="1.52" stroke-miterlimit="10" stroke-linecap="round"/>
<path d="M408.811 188.747L412.352 178.007" stroke="black" stroke-width="1.52" stroke-miterlimit="10" stroke-linecap="round"/>
<path d="M392.189 189.191L407.237 194.66C409.893 196.138 413.188 195.152 414.663 192.541C414.761 192.393 414.811 192.245 414.86 192.098" stroke="black" stroke-width="1.52" stroke-miterlimit="10" stroke-linecap="round"/>
<path d="M416.384 188.698L407.582 208.849L403.205 218.604C397.353 230.724 382.304 232.301 372.321 225.6L355.257 211.017" stroke="black" stroke-width="1.52" stroke-miterlimit="10" stroke-linecap="round"/>
<path d="M261.328 153.668L267.918 141.597L276.18 145.933L279.376 154.161L268.311 160.714C265.262 159.482 262.853 157.068 261.525 154.062L261.328 153.668Z" fill="#FC9797"/>
<path d="M258.672 152.239C258.722 153.619 259.705 154.851 261.082 155.146L265.311 156.082C266.049 156.279 266.787 155.836 266.983 155.097C267.18 154.407 266.836 153.668 266.197 153.422L259.115 149.086L258.672 152.239Z" fill="#FC9797" stroke="black" stroke-width="1.52" stroke-miterlimit="10" stroke-linecap="round"/>
<path d="M259.115 148.889C258.967 150.121 259.656 151.254 260.836 151.648L266.246 153.668C266.983 153.964 267.869 153.668 268.213 152.929C268.557 152.239 268.262 151.402 267.623 151.008L259.803 145.243L259.115 148.889Z" fill="#FC9797" stroke="black" stroke-width="1.52" stroke-miterlimit="10" stroke-linecap="round"/>
<path d="M268.262 160.714C265.213 159.482 264.033 158.497 262.164 155.442" stroke="black" stroke-width="1.52" stroke-miterlimit="10" stroke-linecap="round"/>
<path d="M259.755 145.243C259.558 146.475 260.148 147.756 261.279 148.347L266.984 151.5C267.672 151.895 268.607 151.697 269 151.008C269.393 150.367 269.049 148.495 268.459 148.002L260.591 140.464L259.755 145.243Z" fill="#FC9797"/>
<path d="M266.541 146.475L255.033 137.163C254.394 136.671 254.296 135.734 254.788 135.094C255.23 134.453 256.115 134.306 256.755 134.7L268.459 141.844L266.541 146.475Z" fill="#FC9797"/>
<path d="M272.688 144.307L256.804 134.7C256.165 134.306 255.279 134.453 254.837 135.094C254.345 135.734 254.443 136.671 255.083 137.163L262.214 142.681" stroke="black" stroke-width="1.52" stroke-miterlimit="10" stroke-linecap="round"/>
<path d="M260.345 141.253L259.755 145.194C259.558 146.426 260.148 147.707 261.279 148.298L266.984 151.451C267.672 151.845 268.607 151.648 269 150.958C269.393 150.318 269.246 149.431 268.656 148.988L263.492 145.145" stroke="black" stroke-width="1.52" stroke-miterlimit="10" stroke-linecap="round"/>
<path d="M268.557 156.674C267.82 151.599 271.41 147.953 271.41 147.953L267.475 146.918C266.049 146.524 265.164 145.096 265.508 143.667L265.705 142.78L273.328 143.519C274.508 143.617 275.541 144.307 276.082 145.293L279.376 152.141" fill="#FC9797"/>
<path d="M268.557 156.674C267.82 151.599 271.41 147.953 271.41 147.953L267.475 146.918C266.049 146.524 265.164 145.096 265.508 143.667L265.705 142.78L273.328 143.519C274.508 143.617 275.541 144.307 276.082 145.293L279.376 152.141" stroke="black" stroke-width="1.52" stroke-miterlimit="10" stroke-linecap="round"/>
<path d="M412.598 172.735L424.794 166.823C425.532 166.478 425.827 165.641 425.483 164.901C425.188 164.212 424.401 163.916 423.712 164.162L411.221 168.449L412.598 172.735Z" fill="#FC9797" stroke="black" stroke-width="1.52" stroke-miterlimit="10" stroke-linecap="round"/>
<path d="M413.581 170.124L416.63 167.808L418.106 166.675L424.4 161.945C425.04 161.453 425.187 160.566 424.695 159.925C424.253 159.334 423.417 159.137 422.827 159.531L411.417 166.182L413.581 170.124Z" fill="#FC9797"/>
<path d="M417.122 167.463L418.155 166.675L424.45 161.945C425.089 161.453 425.236 160.566 424.745 159.925C424.302 159.334 423.466 159.137 422.876 159.531L411.467 166.182L413.68 170.124" stroke="black" stroke-width="1.52" stroke-miterlimit="10" stroke-linecap="round"/>
<path d="M412.893 166.921L422.728 157.61C423.319 157.068 423.319 156.181 422.778 155.59C422.286 155.048 421.45 154.949 420.86 155.393L410.237 163.276L412.893 166.921Z" fill="#FC9797"/>
<path d="M415.548 164.409L422.728 157.61C423.319 157.068 423.319 156.181 422.778 155.59C422.286 155.048 421.45 154.949 420.86 155.393L410.237 163.276L412.844 166.971" stroke="black" stroke-width="1.52" stroke-miterlimit="10" stroke-linecap="round"/>
<path d="M411.074 164.31L418.598 155.935C419.139 155.343 419.09 154.457 418.549 153.915C418.008 153.373 417.172 153.373 416.581 153.865L408.615 160.467L411.074 164.31Z" fill="#FC9797"/>
<path d="M417.565 170.321L409.401 159.778L402.172 165.148L398.73 173.622L412.008 178.105C414.713 176.43 416.68 173.819 417.467 170.715L417.565 170.321Z" fill="#FC9797"/>
<path d="M411.958 178.105C414.663 176.43 416.63 173.819 417.417 170.715L417.516 170.321L413.532 165.099" stroke="black" stroke-width="1.52" stroke-miterlimit="10" stroke-linecap="round"/>
<path d="M402.172 165.148L398.73 173.622" stroke="black" stroke-width="1.52" stroke-miterlimit="10" stroke-linecap="round"/>
<path d="M403.402 175.248L407.385 162.142C407.779 160.763 407.041 159.334 405.713 158.891L404.926 158.644L398.73 173.721L403.402 175.248Z" fill="#FC9797"/>
<path d="M398.681 173.671L404.877 158.595L405.664 158.841C406.992 159.285 407.778 160.763 407.336 162.093L406.205 165.887C406.205 165.887 410.729 166.675 412.45 172.292" stroke="black" stroke-width="1.52" stroke-miterlimit="10" stroke-linecap="round"/>
<path d="M412.598 162.586L418.548 155.935C419.089 155.343 419.04 154.457 418.499 153.915C417.958 153.373 417.122 153.373 416.532 153.865L407.483 161.354" stroke="black" stroke-width="1.52" stroke-miterlimit="10" stroke-linecap="round"/>
<path d="M324.374 229.542C322.013 233.976 320.095 238.607 318.669 243.435C316.702 249.988 316.358 256.984 317.686 263.685C317.981 265.064 318.177 265.803 318.177 265.803" stroke="black" stroke-width="1.52" stroke-miterlimit="10" stroke-linecap="round"/>
<path d="M160.712 222.94L135.139 228.162Z" fill="white"/>
<path d="M160.712 222.94L135.139 228.162" stroke="black" stroke-width="1.55" stroke-miterlimit="10"/>
<path d="M148.712 220.329C137.795 211.214 138.975 219.885 134.697 225.403C132.631 228.064 123.484 216.929 122.993 223.63C122.648 228.507 117.141 230.478 118.321 250.776" fill="#CFEDFF"/>
<path d="M148.712 220.329C137.795 211.214 138.975 219.885 134.697 225.403C132.631 228.064 123.484 216.929 122.993 223.63C122.648 228.507 117.141 230.478 118.321 250.776" stroke="black" stroke-width="1.52" stroke-miterlimit="10" stroke-linecap="round"/>
<path d="M136.664 247.426C136.664 247.426 143.303 245.85 143.106 239.445" stroke="black" stroke-width="1.55" stroke-miterlimit="10"/>
<path d="M163.564 228.606C163.564 228.606 164.744 231.956 165.826 241.12C166.023 242.746 167.105 252.452 166.859 254.028C166.121 258.659 164.105 258.265 164.105 258.265" stroke="black" stroke-width="1.55" stroke-miterlimit="10"/>
<path d="M193.365 171.553L216.872 136.621L204.283 126.226L172.121 167.316L123.042 182.54L140.795 201.36L160.318 195.694C173.793 191.753 185.497 183.229 193.365 171.553Z" fill="#FC9797" stroke="black" stroke-width="1.55" stroke-miterlimit="10"/>
<path d="M117.485 192.393C117.288 185.841 120.731 179.682 126.386 176.43L126.238 174.755C126.14 173.524 127.025 172.39 128.304 172.292H128.402L140.401 171.848C141.533 171.799 142.516 172.587 142.713 173.721L143.106 175.987C147.631 178.253 150.975 182.343 152.302 187.22L152.843 189.191C158.548 187.664 164.449 191.014 165.974 196.778C167.498 202.543 164.154 208.406 158.4 209.933L163.367 228.359L118.813 236.045L117.485 192.393Z" fill="#CFEDFF" stroke="black" stroke-width="1.55" stroke-miterlimit="10" stroke-linecap="round"/>
<path d="M138.238 141.105C138.238 141.105 146.844 141.253 144.631 154.309C145.762 157.314 146.991 161.009 147.68 162.783C148.221 164.113 147.581 165.591 146.254 166.133C146.106 166.182 145.958 166.232 145.86 166.281L138.533 167.858L134.107 147.263" fill="black"/>
<path d="M138.238 141.105C138.238 141.105 146.844 141.253 144.631 154.309C145.762 157.314 146.991 161.009 147.68 162.783C148.221 164.113 147.581 165.591 146.254 166.133C146.106 166.182 145.958 166.232 145.86 166.281L138.533 167.858L134.107 147.263" stroke="black" stroke-width="1.55" stroke-miterlimit="10" stroke-linecap="round"/>
<path d="M201.332 139.035L205.906 117.16L207.479 115.288L209.496 114.746L215.102 115.879L245.592 122.284L252.034 124.008L253.165 126.226L252.821 129.083L248.936 149.135L247.952 150.072L246.035 151.254H243.822L203.496 142.78L201.48 140.464L201.332 139.035Z" fill="#F19D48"/>
<path d="M253.411 127.802C253.854 125.733 252.526 123.762 250.46 123.319L245.592 122.284L238.068 100.803C237.478 99.1279 236.297 97.9454 234.773 97.6498C233.248 97.3542 231.724 97.8962 230.494 99.2264L215.102 115.879L210.233 114.845C208.168 114.401 206.201 115.731 205.758 117.801L201.431 138.592C200.988 140.661 202.316 142.632 204.381 143.075L244.658 151.55C246.723 151.993 248.69 150.663 249.133 148.593L253.411 127.802ZM250.411 123.614C252.28 124.008 253.46 125.831 253.067 127.704L252.329 131.251C251.936 133.123 250.116 134.306 248.248 133.911L231.232 130.364L230.101 128.59L235.707 120.461L250.411 123.614ZM235.363 120.461L229.904 128.344L228.822 126.718C228.773 126.62 228.675 126.62 228.577 126.669L226.954 127.753L225.134 118.343L235.363 120.461ZM219.921 116.865L233.642 102.084C233.691 102.035 233.789 101.985 233.888 102.035C233.986 102.035 234.035 102.084 234.084 102.183L240.773 121.249L219.921 116.865ZM228.675 127.063L232.412 132.778L226.708 136.523L222.97 130.808L228.675 127.063ZM230.79 99.4235C231.921 98.1918 233.396 97.6498 234.724 97.9454C236.101 98.241 237.183 99.3249 237.773 100.902L245.199 122.186L241.117 121.348L234.379 102.084C234.33 101.887 234.134 101.739 233.937 101.739C233.74 101.69 233.543 101.739 233.396 101.887L219.528 116.815L215.446 115.978L230.79 99.4235ZM206.053 117.85C206.447 115.978 208.266 114.795 210.135 115.189L224.839 118.293L226.708 127.95L224.937 129.083L207.922 125.536C206.053 125.142 204.873 123.319 205.266 121.447L206.053 117.85ZM212.397 144.406L204.381 142.731C202.512 142.336 201.332 140.513 201.726 138.641L205.021 122.925C205.316 124.353 206.447 125.536 207.922 125.831L215.938 127.507L212.397 144.406ZM222.429 146.524L212.692 144.504L215.004 133.32L224.741 135.34L222.429 146.524ZM224.839 135.045L215.102 133.025L216.233 127.605L224.593 129.379L222.626 130.66C222.528 130.709 222.528 130.808 222.577 130.906L224.937 134.552L224.839 135.045ZM226.265 147.362L222.774 146.623L225.232 134.848L226.511 136.818C226.544 136.851 226.577 136.868 226.609 136.868H226.708L228.675 135.587L226.265 147.362ZM236.297 149.431L226.56 147.411L228.872 136.227L238.609 138.247L236.297 149.431ZM238.707 137.951L228.97 135.931L229.117 135.34L232.757 132.975C232.855 132.926 232.855 132.828 232.806 132.729L231.527 130.758L239.887 132.532L238.707 137.951ZM244.658 151.205L236.642 149.53L240.182 132.63L248.198 134.306C249.723 134.601 251.198 133.961 252.034 132.828L248.739 148.544C248.346 150.367 246.526 151.599 244.658 151.205Z" fill="black" stroke="black" stroke-miterlimit="10"/>
<path d="M225.872 131.497L227.2 133.567C227.232 133.599 227.265 133.616 227.298 133.616H227.396L229.462 132.286C229.56 132.236 229.56 132.138 229.511 132.039L228.183 129.97C228.134 129.871 228.036 129.871 227.937 129.921L225.872 131.251C225.823 131.349 225.823 131.448 225.872 131.497ZM227.986 130.315L229.167 132.088L227.396 133.271L226.216 131.497L227.986 130.315Z" fill="black" stroke="black" stroke-miterlimit="10"/>
<path d="M218.643 141.45C219.626 141.647 220.561 141.006 220.757 140.07C220.954 139.085 220.315 138.149 219.38 137.951C218.397 137.754 217.462 138.395 217.266 139.331C217.02 140.267 217.659 141.252 218.643 141.45ZM219.282 138.247C220.069 138.395 220.61 139.183 220.413 139.972C220.265 140.76 219.479 141.302 218.692 141.105C217.905 140.957 217.364 140.169 217.561 139.38C217.757 138.592 218.495 138.05 219.282 138.247Z" fill="black" stroke="black" stroke-miterlimit="10"/>
<path d="M232.117 144.258C233.101 144.455 234.035 143.814 234.232 142.878C234.429 141.893 233.789 140.957 232.855 140.76C231.871 140.563 230.937 141.203 230.74 142.139C230.544 143.125 231.134 144.061 232.117 144.258ZM232.806 141.055C233.593 141.203 234.134 141.992 233.937 142.78C233.789 143.568 233.002 144.11 232.216 143.913C231.429 143.765 230.888 142.977 231.085 142.189C231.232 141.4 232.019 140.908 232.806 141.055Z" fill="black" stroke="black" stroke-miterlimit="10"/>
<path d="M126.976 158.496L129.14 176.184L141.041 177.81L136.517 156.624" fill="#FC9797"/>
<path d="M141.09 177.81L136.566 156.624" stroke="black" stroke-width="1.55" stroke-miterlimit="10" stroke-linecap="round"/>
<path d="M138.09 163.818C138.09 163.818 135.287 164.704 132.927 163.818C134.205 166.921 139.369 169.73 139.369 169.73L138.09 163.818Z" fill="black"/>
<path d="M134.549 164.704C138.814 164.704 142.27 161.241 142.27 156.969C142.27 152.697 138.814 149.234 134.549 149.234C130.285 149.234 126.829 152.697 126.829 156.969C126.829 161.241 130.285 164.704 134.549 164.704Z" fill="#FC9797"/>
<path d="M133.074 164.507C137.254 165.345 141.287 162.586 142.123 158.398C142.959 154.21 140.205 150.17 136.025 149.333C134.992 149.136 133.959 149.136 132.927 149.382" stroke="black" stroke-width="1.55" stroke-miterlimit="10" stroke-linecap="round"/>
<path d="M135.09 152.978C133.812 153.323 132.976 154.555 133.123 155.836C133.418 158.398 132.877 158.792 132.877 158.792C132.877 158.792 132.238 154.752 130.369 154.555C128.55 154.358 128.156 158.201 130.861 158.644L132.435 166.084C132.828 167.808 131.697 169.483 129.976 169.878C129.927 169.878 129.878 169.878 129.828 169.927L124.173 170.863C122.452 171.159 120.78 169.976 120.485 168.252C120.485 168.104 120.436 168.005 120.436 167.858L119.845 152.486C119.55 148.249 122.403 144.455 126.484 143.617C129.386 142.977 133.074 142.189 136.713 141.4L137.008 141.351C139.959 140.711 142.86 142.583 143.5 145.539C144.139 148.446 142.319 151.303 139.418 151.993L135.09 152.978Z" fill="black" stroke="black" stroke-width="1.55" stroke-miterlimit="10"/>
<path d="M128.501 170.124L129.189 176.184" stroke="black" stroke-width="1.55" stroke-miterlimit="10" stroke-linecap="round"/>
<path d="M141.483 173.819C141.483 173.819 133.763 175.346 128.255 174.262" stroke="black" stroke-width="1.55" stroke-miterlimit="10" stroke-linecap="round"/>
<path d="M128.599 175.198L128.648 177.268" stroke="black" stroke-width="1.55" stroke-miterlimit="10" stroke-linecap="round"/>
<path d="M130.861 175.79L130.91 177.859" stroke="black" stroke-width="1.55" stroke-miterlimit="10" stroke-linecap="round"/>
<path d="M133.221 176.085L133.271 178.155" stroke="black" stroke-width="1.55" stroke-miterlimit="10" stroke-linecap="round"/>
<path d="M141.041 174.854L141.287 176.923" stroke="black" stroke-width="1.55" stroke-miterlimit="10" stroke-linecap="round"/>
<path d="M138.729 175.396L138.975 177.465" stroke="black" stroke-width="1.55" stroke-miterlimit="10" stroke-linecap="round"/>
<path d="M136.271 176.233L136.516 178.302" stroke="black" stroke-width="1.55" stroke-miterlimit="10" stroke-linecap="round"/>
<path d="M146.844 204.415C146.844 204.415 138.336 210.179 130.468 205.893" stroke="black" stroke-width="1.55" stroke-miterlimit="10" stroke-linecap="round"/>
<path d="M141.483 173.819C141.483 173.819 133.763 175.346 128.255 174.262C128.55 176.775 128.992 179.239 129.632 181.653L143.254 181.16L141.483 173.819Z" fill="#CFEDFF"/>
<path d="M207.037 149.825L169.269 179.485L136.664 181.456C130.222 181.85 125.353 187.368 125.747 193.822C125.845 195.596 126.386 197.32 127.271 198.897C129.435 202.69 133.517 204.957 137.893 204.809L151.073 204.218C165.138 203.626 178.514 198.108 188.94 188.6L220.069 160.27" fill="#FC9797"/>
<path d="M207.037 149.825L169.269 179.485L136.664 181.456C130.222 181.85 125.353 187.368 125.747 193.822C125.845 195.596 126.386 197.32 127.271 198.897C129.435 202.69 133.517 204.957 137.893 204.809L151.073 204.218C165.138 203.626 178.514 198.108 188.94 188.6L220.069 160.27" stroke="black" stroke-width="1.55" stroke-miterlimit="10"/>
<path d="M210.873 154.062L221.495 142.287C222.626 141.055 222.528 139.183 221.347 138.05L220.659 137.36L206.742 150.072L210.873 154.062Z" fill="#FC9797"/>
<path d="M206.742 150.072L220.659 137.36L221.347 138.05C222.528 139.183 222.577 141.055 221.495 142.287L218.446 145.687C218.446 145.687 222.774 148.791 221.839 155.442" stroke="black" stroke-width="1.55" stroke-miterlimit="10" stroke-linecap="round"/>
<path d="M221.692 155.984L237.379 155.885C238.314 155.885 239.052 155.146 239.052 154.21C239.052 153.373 238.412 152.633 237.576 152.535L222.43 150.811L221.692 155.984Z" fill="#FC9797" stroke="black" stroke-width="1.55" stroke-miterlimit="10" stroke-linecap="round"/>
<path d="M224.052 153.767L228.38 152.88L230.445 152.436L239.346 150.613C240.231 150.416 240.822 149.579 240.625 148.643C240.477 147.805 239.691 147.214 238.855 147.312L223.659 148.593L224.052 153.767Z" fill="#FC9797"/>
<path d="M229.068 152.732L230.494 152.436L239.396 150.613C240.281 150.416 240.871 149.579 240.674 148.643C240.527 147.805 239.74 147.214 238.904 147.312L223.708 148.593L224.052 153.816" stroke="black" stroke-width="1.55" stroke-miterlimit="10" stroke-linecap="round"/>
<path d="M224.888 150.072L239.789 145.194C240.674 144.898 241.117 143.962 240.871 143.125C240.625 142.287 239.789 141.794 238.953 141.992L224.003 144.948L224.888 150.072Z" fill="#FC9797"/>
<path d="M228.97 148.741L239.838 145.194C240.723 144.898 241.166 143.962 240.92 143.125C240.674 142.287 239.838 141.794 239.002 141.992L224.052 144.948L224.987 150.072" stroke="black" stroke-width="1.55" stroke-miterlimit="10" stroke-linecap="round"/>
<path d="M224.298 146.376L236.298 141.351C237.134 141.006 237.576 140.021 237.232 139.183C236.937 138.395 236.052 137.902 235.216 138.149L223.61 141.154L224.298 146.376Z" fill="#FC9797"/>
<path d="M228.134 155.934L224.839 140.858L216.676 142.73L207.479 150.613L218.397 161.354C222.085 160.96 225.429 159.186 227.79 156.329L228.134 155.934Z" fill="#FC9797"/>
<path d="M218.397 161.403C222.085 161.009 225.479 159.137 227.839 156.279L228.134 155.935" stroke="black" stroke-width="1.55" stroke-miterlimit="10" stroke-linecap="round"/>
<path d="M227.445 145.145L236.297 141.351C237.133 141.006 237.576 140.021 237.232 139.183C236.937 138.395 236.051 137.902 235.215 138.149L219.331 142.09" stroke="black" stroke-width="1.55" stroke-miterlimit="10" stroke-linecap="round"/>
</g>
</svg>
