<svg width="39" height="39" viewBox="0 0 39 39" fill="none" xmlns="http://www.w3.org/2000/svg">
<path d="M36.0676 7.07203C37.7756 7.67224 39 9.29937 39 11.2125V30.7125C39 35.2895 35.2895 39 30.7125 39H11.2125C9.29937 39 7.67224 37.7756 7.07203 36.0676L11.1617 36.0742L30.7125 36.075C33.6742 36.075 36.075 33.6742 36.075 30.7125V11.2125L36.0672 11.1131L36.0676 7.07203ZM29.7313 0C32.1545 0 34.1188 1.96435 34.1188 4.3875V29.7313C34.1188 32.1545 32.1545 34.1188 29.7313 34.1188H4.3875C1.96435 34.1188 0 32.1545 0 29.7313V4.3875C0 1.96435 1.96435 0 4.3875 0H29.7313ZM29.7313 2.925H4.3875C3.57979 2.925 2.925 3.57979 2.925 4.3875V29.7313C2.925 30.5389 3.57979 31.1938 4.3875 31.1938H29.7313C30.5389 31.1938 31.1938 30.5389 31.1938 29.7313V4.3875C31.1938 3.57979 30.5389 2.925 29.7313 2.925ZM14.7832 18.2485L22.3659 10.6659C22.9371 10.0947 23.8629 10.0947 24.4341 10.6659C24.9534 11.1851 25.0006 11.9976 24.5757 12.5701L24.4341 12.7341L15.6591 21.5091C15.0823 22.0861 14.1596 22.0719 13.5985 21.5171L13.455 21.3525L10.53 17.4525C10.0454 16.8063 10.1763 15.8896 10.8225 15.405C11.4099 14.9644 12.2209 15.0326 12.7277 15.5341L12.87 15.6975L14.7832 18.2485Z" fill="#19486D"/>
</svg>
