<svg width="60" height="45" viewBox="0 0 60 45" fill="none" xmlns="http://www.w3.org/2000/svg">
<path d="M59.3832 44.5243H0.615656C0.275667 44.5243 0 44.2486 0 43.9086V43.5698C0 43.2298 0.275667 42.9541 0.615656 42.9541H59.3843C59.7243 42.9541 60 43.2298 60 43.5698V43.9086C60 44.2486 59.7243 44.5243 59.3832 44.5243Z" fill="#104467"/>
<path d="M45.6576 22.3531V12.0064C45.6576 12.0064 45.9941 10.0136 47.8526 9.65523C47.8526 9.65523 49.935 9.52084 49.958 12.4762C49.9798 15.4316 49.958 26.1137 49.958 26.1137C49.958 26.1137 49.8018 27.8377 48.5245 30.1223C47.2484 32.4069 42.77 40.7366 42.77 40.7366V43.2889L32.4922 43.3785V36.1227C32.4922 36.1227 32.6036 33.3465 35.6049 30.4348C35.6049 30.4348 39.2104 27.1876 40.8897 24.7916L42.8159 22.5748C42.8159 22.5748 44.4286 20.8278 45.8609 22.5748C45.8609 22.5748 47.0922 24.2093 45.7495 25.8438C44.4056 27.4782 40.1511 32.5873 40.1511 32.5873" stroke="#104467" stroke-width="0.459444" stroke-miterlimit="10"/>
<path d="M12.7984 22.3531V12.0064C12.7984 12.0064 12.4618 10.0136 10.6034 9.65523C10.6034 9.65523 8.52095 9.52084 8.49798 12.4762C8.47616 15.4316 8.49798 26.1137 8.49798 26.1137C8.49798 26.1137 8.65419 27.8377 9.93145 30.1223C11.2076 32.4069 15.686 40.7366 15.686 40.7366V43.2889L25.9638 43.3785V36.1227C25.9638 36.1227 25.8523 33.3465 22.851 30.4348C22.851 30.4348 19.2455 27.1876 17.5663 24.7916L15.64 22.5748C15.64 22.5748 14.0274 20.8278 12.5951 22.5748C12.5951 22.5748 11.3638 24.2093 12.7065 25.8438C14.0504 27.4782 18.3048 32.5873 18.3048 32.5873" stroke="#104467" stroke-width="0.459444" stroke-miterlimit="10"/>
<path d="M36.1435 4.70413L24.492 11.6222V13.4956L21.7422 11.984V10.1015L33.4534 3.21094L36.1435 4.70413Z" fill="#F39D48"/>
<path d="M17.6758 7.85261L29.4651 1L41.0868 7.44945L41.2269 20.6837L29.6328 27.3675L17.6758 20.8848V7.85261Z" stroke="#104467" stroke-width="0.459444" stroke-miterlimit="10"/>
<path d="M17.6758 7.85254L29.4513 14.3686V27.2687" stroke="#104467" stroke-width="0.459444" stroke-miterlimit="10"/>
<path d="M41.0925 7.44922L29.457 14.3685" stroke="#104467" stroke-width="0.459444" stroke-miterlimit="10"/>
<path d="M32.9608 21.4551H31.4492V22.9667H32.9608V21.4551Z" fill="#104467"/>
<path d="M36.0233 19.9434H34.5117V21.4549H36.0233V19.9434Z" fill="#104467"/>
<path d="M38.91 18.4326H37.3984V19.9442H38.91V18.4326Z" fill="#104467"/>
</svg>
