<svg width="61" height="47" viewBox="0 0 61 47" fill="none" xmlns="http://www.w3.org/2000/svg">
<g clip-path="url(#clip0_2544_888)">
<path d="M27.7807 15.7824H30.6778C31.3465 15.7824 31.8888 16.3247 31.8888 16.9934V46.0133H11.2617V16.9923C11.2617 16.3235 11.804 15.7812 12.4727 15.7812H21.0375" stroke="#104467" stroke-width="0.455696" stroke-miterlimit="10"/>
<path d="M31.7461 6.41211H47.5827C48.3255 6.41211 48.9281 7.01477 48.9281 7.75755V46.0144" stroke="#104467" stroke-width="0.455696" stroke-miterlimit="10"/>
<path d="M43.4594 6.41151H33.1914V3.48822C33.1914 2.9972 33.589 2.59961 34.08 2.59961H42.5719C43.0629 2.59961 43.4605 2.9972 43.4605 3.48822V6.41151H43.4594Z" stroke="#104467" stroke-width="0.455696" stroke-miterlimit="10"/>
<path d="M25.3487 46.0136H17.554C17.4959 46.0136 17.4492 45.9669 17.4492 45.9088V34.5404C17.4492 34.4823 17.4959 34.4355 17.554 34.4355H25.3487C25.4068 34.4355 25.4535 34.4823 25.4535 34.5404V45.9088C25.4535 45.9669 25.4068 46.0136 25.3487 46.0136Z" stroke="#104467" stroke-width="0.455696" stroke-miterlimit="10"/>
<path d="M18.691 23.4062H15.2266V26.8707H18.691V23.4062Z" fill="#104467"/>
<path d="M27.1871 23.4062H23.7227V26.8707H27.1871V23.4062Z" fill="#104467"/>
<path d="M44.3985 12.9403H32.6917C32.3807 12.9403 32.1289 12.6886 32.1289 12.3775V12.054C32.1289 11.743 32.3807 11.4912 32.6917 11.4912H44.3985C44.7095 11.4912 44.9613 11.743 44.9613 12.054V12.3775C44.9602 12.6886 44.7084 12.9403 44.3985 12.9403Z" fill="#104467"/>
<path d="M44.3985 18.5017H32.1289V17.0537H44.3985C44.7095 17.0537 44.9613 17.3055 44.9613 17.6165V17.94C44.9602 18.2499 44.7084 18.5017 44.3985 18.5017Z" fill="#104467"/>
<path d="M44.3985 24.1286H32.1289V22.6807H44.3985C44.7095 22.6807 44.9613 22.9324 44.9613 23.2434V23.567C44.9602 23.8769 44.7084 24.1286 44.3985 24.1286Z" fill="#104467"/>
<path d="M44.3985 29.7566H32.1289V28.3086H44.3985C44.7095 28.3086 44.9613 28.5604 44.9613 28.8714V29.1949C44.9602 29.5048 44.7084 29.7566 44.3985 29.7566Z" fill="#104467"/>
<path d="M44.3985 35.3845H32.1289V33.9365H44.3985C44.7095 33.9365 44.9613 34.1883 44.9613 34.4993V34.8229C44.9602 35.1327 44.7084 35.3845 44.3985 35.3845Z" fill="#104467"/>
<path d="M44.3985 40.9489H32.1289V39.501H44.3985C44.7095 39.501 44.9613 39.7527 44.9613 40.0638V40.3873C44.9602 40.6972 44.7084 40.9489 44.3985 40.9489Z" fill="#104467"/>
<path d="M27.1593 8.0955C27.3986 6.62111 26.3974 5.23188 24.923 4.99255C23.4486 4.75322 22.0594 5.75443 21.8201 7.22882C21.5807 8.70321 22.5819 10.0925 24.0563 10.3318C25.5307 10.5711 26.92 9.56989 27.1593 8.0955Z" fill="#F39D48"/>
<path d="M18.6967 12.4607C17.611 11.1665 16.957 9.49754 16.957 7.67589C16.957 3.56209 20.2916 0.227539 24.4054 0.227539C28.5192 0.227539 31.8537 3.56209 31.8537 7.67589C31.8537 9.2526 31.3639 10.7142 30.5288 11.9173" stroke="#104467" stroke-width="0.455696" stroke-miterlimit="10"/>
<path d="M30.5723 11.8546L24.4056 20.5345L18.0703 11.5938" stroke="#104467" stroke-width="0.455696" stroke-miterlimit="10"/>
<path d="M27.0968 8.0955C27.3361 6.62111 26.3349 5.23187 24.8605 4.99255C23.3861 4.75322 21.9969 5.75443 21.7576 7.22882C21.5182 8.70321 22.5194 10.0925 23.9938 10.3318C25.4682 10.5711 26.8575 9.56989 27.0968 8.0955Z" stroke="#104467" stroke-width="0.455696" stroke-miterlimit="10"/>
<path d="M59.4626 46.8007H0.610633C0.273418 46.8007 0 46.5272 0 46.19V45.8391C0 45.5019 0.273418 45.2285 0.610633 45.2285H59.4626C59.7999 45.2285 60.0733 45.5019 60.0733 45.8391V46.19C60.0733 46.5272 59.7999 46.8007 59.4626 46.8007Z" fill="#104467"/>
</g>
<defs>
<clipPath id="clip0_2544_888">
<rect width="60.0733" height="46.8" fill="white"/>
</clipPath>
</defs>
</svg>
