<svg width="61" height="44" viewBox="0 0 61 44" fill="none" xmlns="http://www.w3.org/2000/svg">
<path d="M60.1678 43.7292H0.61906C0.277191 43.7292 0 43.452 0 43.1102V42.7568C0 42.4149 0.277191 42.1377 0.61906 42.1377H60.1678C60.5097 42.1377 60.7868 42.4149 60.7868 42.7568V43.1102C60.7868 43.452 60.5097 43.7292 60.1678 43.7292Z" fill="#104467"/>
<path d="M52.0247 42.6514H9.82812V31.3998C9.82812 30.4343 10.6112 29.6523 11.5756 29.6523H50.2761C51.2416 29.6523 52.0235 30.4354 52.0235 31.3998V42.6514H52.0247Z" stroke="#104467" stroke-width="0.461985" stroke-miterlimit="10"/>
<path d="M9.82812 33.168H52.0247" stroke="#104467" stroke-width="0.461985" stroke-miterlimit="10"/>
<path d="M35.9875 29.6522H25.6875V28.1923C25.6875 25.9794 27.4823 24.1846 29.6952 24.1846H31.9797C34.1926 24.1846 35.9875 25.9794 35.9875 28.1923V29.6522Z" stroke="#104467" stroke-width="0.461985" stroke-miterlimit="10"/>
<path d="M30.9045 23.0962C32.2951 23.0962 33.4224 21.9689 33.4224 20.5784C33.4224 19.1878 32.2951 18.0605 30.9045 18.0605C29.514 18.0605 28.3867 19.1878 28.3867 20.5784C28.3867 21.9689 29.514 23.0962 30.9045 23.0962Z" stroke="#104467" stroke-width="0.461985" stroke-miterlimit="10"/>
<path d="M10.3438 10.6309V13.3531C10.3438 14.9065 11.6489 16.1666 13.26 16.1666C14.8712 16.1666 16.1763 14.9077 16.1763 13.3531V10.699" stroke="#104467" stroke-width="0.461985" stroke-miterlimit="10"/>
<path d="M22.0083 10.699V13.3531C22.0083 14.9065 20.7032 16.1666 19.0921 16.1666C17.4809 16.1666 16.1758 14.9077 16.1758 13.3531V10.6309" stroke="#104467" stroke-width="0.461985" stroke-miterlimit="10"/>
<path d="M27.8404 10.699V13.3531C27.8404 14.9065 26.5353 16.1666 24.9241 16.1666C23.3129 16.1666 22.0078 14.9077 22.0078 13.3531V10.6309" stroke="#104467" stroke-width="0.461985" stroke-miterlimit="10"/>
<path d="M33.6724 10.699V13.3531C33.6724 14.9065 32.3673 16.1666 30.7561 16.1666C29.1449 16.1666 27.8398 14.9077 27.8398 13.3531V10.6309" stroke="#104467" stroke-width="0.461985" stroke-miterlimit="10"/>
<path d="M33.7227 10.6309V13.3531C33.7227 14.9065 35.0278 16.1666 36.6389 16.1666C38.2501 16.1666 39.5552 14.9077 39.5552 13.3531V10.699" stroke="#104467" stroke-width="0.461985" stroke-miterlimit="10"/>
<path d="M45.4913 10.8466V13.5007C45.4913 15.0541 44.1862 16.3142 42.5751 16.3142C40.9639 16.3142 39.6588 15.0553 39.6588 13.5007V10.7784L38.2578 5.03711" stroke="#104467" stroke-width="0.461985" stroke-miterlimit="10"/>
<path d="M51.5136 10.8466V13.5007C51.5136 15.0541 50.2085 16.3142 48.5973 16.3142C46.9861 16.3142 45.681 15.0553 45.681 13.5007V10.7784L44.1992 5.03711" stroke="#104467" stroke-width="0.461985" stroke-miterlimit="10"/>
<path d="M51.5147 10.6629H10.3438L13.5742 5.03711H48.7844L51.5147 10.6629Z" stroke="#104467" stroke-width="0.461985" stroke-miterlimit="10"/>
<path d="M14.3008 29.6526V15.9824" stroke="#104467" stroke-width="0.461985" stroke-miterlimit="10"/>
<path d="M47.0586 29.6521V15.7256" stroke="#104467" stroke-width="0.461985" stroke-miterlimit="10"/>
<path d="M16.1758 10.699C16.1758 10.699 17.9752 5.40008 18.0653 5.21875" stroke="#104467" stroke-width="0.461985" stroke-miterlimit="10"/>
<path d="M48.6484 2.58691H13.4844V5.03659H48.6484V2.58691Z" fill="#F39D48"/>
<path d="M27.8398 10.6987V5.03711" stroke="#104467" stroke-width="0.461985" stroke-miterlimit="10"/>
<path d="M33.6741 10.699L33.4258 5.21875" stroke="#104467" stroke-width="0.461985" stroke-miterlimit="10"/>
<path d="M22.0078 10.6309L22.9653 5.21875" stroke="#104467" stroke-width="0.461985" stroke-miterlimit="10"/>
<path d="M48.6484 5.21908H13.4844V2.23581C13.4844 1.55323 14.0376 1 14.7202 1H47.4126C48.0951 1 48.6484 1.55323 48.6484 2.23581V5.21908Z" stroke="#104467" stroke-width="0.461985" stroke-miterlimit="10"/>
<path d="M13.4844 2.58691H48.6484" stroke="#104467" stroke-width="0.461985" stroke-miterlimit="10"/>
<path d="M37.3405 36.9207H25.4963C25.181 36.9207 24.9258 36.6655 24.9258 36.3502V36.0256C24.9258 35.7103 25.181 35.4551 25.4963 35.4551H37.3405C37.6558 35.4551 37.911 35.7103 37.911 36.0256V36.3502C37.9099 36.6655 37.6546 36.9207 37.3405 36.9207Z" fill="#104467"/>
<path d="M35.4182 39.4285H27.7112C27.3959 39.4285 27.1406 39.1733 27.1406 38.858V38.5334C27.1406 38.2181 27.3959 37.9629 27.7112 37.9629H35.4182C35.7335 37.9629 35.9888 38.2181 35.9888 38.5334V38.858C35.9888 39.1733 35.7324 39.4285 35.4182 39.4285Z" fill="#104467"/>
</svg>
