<?xml version="1.0" encoding="utf-8"?>
<!-- Generator: Adobe Illustrator 27.2.0, SVG Export Plug-In . SVG Version: 6.00 Build 0)  -->
<svg version="1.1" id="Layer_1" xmlns="http://www.w3.org/2000/svg" xmlns:xlink="http://www.w3.org/1999/xlink" x="0px" y="0px"
	 width="40px" height="41px" viewBox="0 0 40 41" style="enable-background:new 0 0 40 41;" xml:space="preserve">
<style type="text/css">
	.st0{fill:#19486D;}
	.st1{fill:#F29C49;}
	.st2{fill:#19486D;stroke:#19486D;stroke-width:0.3;}
</style>
<path class="st0" d="M17.1,18.8H1.7c-0.4,0-0.9-0.2-1.2-0.5C0.2,18,0,17.5,0,17.1V1.7c0-0.4,0.2-0.9,0.5-1.2C0.8,0.2,1.2,0,1.7,0
	h15.4c0.4,0,0.9,0.2,1.2,0.5s0.5,0.7,0.5,1.2v15.4c0,0.4-0.2,0.9-0.5,1.2S17.5,18.8,17.1,18.8z M1.7,1.6L1.6,17.1l15.5,0.1l0.1-15.5
	l-0.1-0.1H1.7z"/>
<path class="st0" d="M38.3,40.7H22.9c-0.4,0-0.9-0.2-1.2-0.5s-0.5-0.7-0.5-1.2V23.6c0-0.4,0.2-0.9,0.5-1.2s0.7-0.5,1.2-0.5h15.4
	c0.4,0,0.9,0.2,1.2,0.5c0.3,0.3,0.5,0.7,0.5,1.2V39c0,0.4-0.2,0.9-0.5,1.2C39.2,40.5,38.8,40.7,38.3,40.7z M22.9,23.5L22.8,39
	l15.5,0.1l0.1-15.5l-0.1-0.1H22.9z"/>
<path class="st1" d="M17.3,31.2l-2.5-2.6c-0.1-0.1-0.2-0.1-0.2-0.2c-0.1,0-0.2-0.1-0.3-0.1c-0.1,0-0.2,0-0.3,0.1
	c-0.1,0-0.2,0.1-0.3,0.2c-0.1,0.1-0.1,0.2-0.2,0.2c0,0.1-0.1,0.2-0.1,0.3c0,0.1,0,0.2,0.1,0.3c0,0.1,0.1,0.2,0.2,0.3l1.2,1.3h-3.3
	c-0.4,0-0.7-0.2-1-0.4c-0.3-0.3-0.4-0.6-0.4-1v-7.4c0-0.2-0.1-0.4-0.2-0.6c-0.1-0.1-0.3-0.2-0.6-0.2c-0.2,0-0.4,0.1-0.6,0.2
	s-0.2,0.3-0.2,0.6v7.4c0,0.8,0.3,1.6,0.9,2.1c0.6,0.6,1.3,0.9,2.1,0.9h3.3l-1.3,1.4c-0.1,0.1-0.1,0.2-0.2,0.3c0,0.1-0.1,0.2-0.1,0.3
	c0,0.1,0,0.2,0.1,0.3s0.1,0.2,0.2,0.3c0.1,0.1,0.2,0.1,0.3,0.2s0.2,0,0.3,0c0.1,0,0.2,0,0.3-0.1s0.2-0.1,0.2-0.2l2.5-2.7
	c0.1-0.1,0.2-0.3,0.2-0.5C17.5,31.5,17.4,31.3,17.3,31.2z"/>
<path class="st1" d="M23,7.4l2.5,2.6c0.1,0.2,0.3,0.2,0.5,0.2s0.4-0.1,0.6-0.2s0.2-0.3,0.2-0.5c0-0.2-0.1-0.4-0.2-0.6l-1.2-1.3h3.3
	c0.4,0,0.7,0.2,1,0.4c0.3,0.3,0.4,0.6,0.4,1v7.4c0,0.2,0.1,0.4,0.2,0.6c0.1,0.1,0.3,0.2,0.6,0.2c0.2,0,0.4-0.1,0.6-0.2
	c0.1-0.1,0.2-0.3,0.2-0.6V9c0-0.8-0.3-1.6-0.9-2.1C30.2,6.3,29.5,6,28.7,6h-3.3l1.3-1.4c0.1-0.1,0.1-0.2,0.2-0.3
	c0-0.1,0.1-0.2,0.1-0.3c0-0.1,0-0.2-0.1-0.3c0-0.1-0.1-0.2-0.2-0.3c-0.1-0.1-0.2-0.1-0.3-0.2c-0.1,0-0.2,0-0.3,0
	c-0.1,0-0.2,0-0.3,0.1c-0.1,0-0.2,0.1-0.2,0.2L23,6.3c-0.1,0.1-0.2,0.3-0.2,0.5C22.8,7,22.9,7.2,23,7.4z"/>
<path class="st2" d="M36.3,25H33c-0.2,0-0.3,0.1-0.5,0.2c-0.1,0.1-0.2,0.3-0.2,0.5s0.1,0.3,0.2,0.5c0.1,0.1,0.3,0.2,0.5,0.2h1v4
	h-3.3c0.4-0.6,0.7-1.3,0.7-2c0-0.7-0.2-1.4-0.7-2c-0.4-0.6-1.1-1-1.8-1.2c-0.7-0.2-1.5-0.1-2.2,0.1c-0.7,0.3-1.3,0.8-1.6,1.4
	c0,0.1-0.1,0.2-0.1,0.2s0,0.2,0,0.3c0,0.1,0.1,0.2,0.1,0.2c0.1,0.1,0.1,0.1,0.2,0.2c0.1,0,0.2,0.1,0.2,0.1c0.1,0,0.2,0,0.3,0
	c0.1,0,0.2-0.1,0.2-0.1c0.1-0.1,0.1-0.1,0.2-0.2c0.2-0.3,0.4-0.6,0.7-0.7c0.3-0.2,0.7-0.3,1-0.3c0.4,0,0.7,0.1,1,0.3
	c0.3,0.2,0.6,0.4,0.7,0.7c0.2,0.3,0.3,0.6,0.3,1c0,0.4-0.1,0.7-0.3,1s-0.4,0.6-0.7,0.7s-0.7,0.3-1,0.3c-0.2,0-0.3,0.1-0.5,0.2
	c-0.1,0.1-0.2,0.3-0.2,0.5s0.1,0.3,0.2,0.5c0.1,0.1,0.3,0.2,0.5,0.2c0.4,0,0.7,0.1,1,0.3c0.3,0.2,0.6,0.4,0.7,0.7
	c0.2,0.3,0.3,0.6,0.3,1c0,0.4-0.1,0.7-0.3,1c-0.2,0.3-0.4,0.6-0.7,0.7c-0.3,0.2-0.7,0.3-1,0.3c-0.4,0-0.7-0.1-1-0.3
	c-0.3-0.2-0.6-0.4-0.7-0.7c-0.1-0.2-0.2-0.3-0.4-0.3c-0.2,0-0.4,0-0.5,0.1c-0.2,0.1-0.3,0.2-0.3,0.4c0,0.2,0,0.4,0.1,0.5
	c0.4,0.6,0.9,1.1,1.6,1.4c0.7,0.3,1.4,0.3,2.2,0.1c0.7-0.2,1.3-0.6,1.8-1.2c0.4-0.6,0.7-1.3,0.7-2c0-0.7-0.2-1.4-0.7-2H34v4.7
	c0,0.2,0.1,0.3,0.2,0.5c0.1,0.1,0.3,0.2,0.5,0.2c0.2,0,0.3-0.1,0.5-0.2c0.1-0.1,0.2-0.3,0.2-0.5v-10h1c0.2,0,0.3-0.1,0.5-0.2
	c0.1-0.1,0.2-0.3,0.2-0.5s-0.1-0.3-0.2-0.5C36.7,25.1,36.5,25,36.3,25z"/>
<path class="st0" d="M14.9,14.6l-4.6-11C10.2,3.2,9.9,3,9.5,3C9.1,3,8.8,3.2,8.7,3.6l-4.6,11c-0.2,0.5,0,1,0.5,1.2
	c0.5,0.2,1,0,1.2-0.5l0.9-2.2h5.7l0.9,2.2c0.1,0.4,0.5,0.6,0.8,0.6c0.1,0,0.2,0,0.4-0.1C14.9,15.6,15.1,15,14.9,14.6z M7.4,11.3
	l2.1-5l2.1,5H7.4z"/>
</svg>
