<svg width="490" height="490" viewBox="0 0 490 490" fill="none" xmlns="http://www.w3.org/2000/svg">
<path d="M413.266 320.691C402.103 345.446 385.625 367.439 365.004 385.109C344.383 402.778 320.123 415.691 293.95 422.928C267.776 430.166 240.33 431.551 213.56 426.986C186.79 422.422 161.354 412.018 139.058 396.515C116.762 381.012 98.1536 360.79 84.5536 337.285C70.9536 313.78 62.6961 287.568 60.3676 260.512C58.0391 233.456 61.6967 206.22 71.0806 180.736C80.4645 155.253 95.3445 132.149 114.664 113.064L185.223 184.492C176.391 193.217 169.588 203.78 165.297 215.431C161.007 227.081 159.335 239.534 160.4 251.903C161.464 264.273 165.239 276.257 171.457 287.003C177.675 297.749 186.183 306.995 196.376 314.082C206.57 321.17 218.199 325.926 230.437 328.013C242.676 330.1 255.224 329.467 267.191 326.158C279.157 322.849 290.248 316.946 299.676 308.867C309.104 300.789 316.637 290.734 321.741 279.416L413.266 320.691Z" fill="#F7E3CB"/>
<mask id="mask0_1_223" style="mask-type:alpha" maskUnits="userSpaceOnUse" x="59" y="113" width="355" height="317">
<path d="M413.266 320.691C402.103 345.446 385.625 367.439 365.004 385.109C344.382 402.778 320.123 415.691 293.95 422.928C267.776 430.166 240.329 431.551 213.56 426.986C186.79 422.422 161.354 412.018 139.058 396.515C116.762 381.012 98.1534 360.79 84.5534 337.285C70.9534 313.78 62.6959 287.568 60.3674 260.512C58.0389 233.456 61.6965 206.22 71.0804 180.736C80.4643 155.253 95.3443 132.149 114.664 113.064L185.223 184.492C176.39 193.217 169.587 203.78 165.297 215.431C161.007 227.081 159.335 239.534 160.399 251.903C161.464 264.273 165.239 276.257 171.457 287.003C177.675 297.749 186.182 306.995 196.376 314.082C206.569 321.17 218.198 325.926 230.437 328.013C242.676 330.1 255.224 329.467 267.19 326.158C279.157 322.849 290.248 316.946 299.676 308.867C309.103 300.789 316.637 290.734 321.741 279.416L413.266 320.691Z" fill="#F7E3CB"/>
</mask>
<g mask="url(#mask0_1_223)">
<path d="M226.443 205.504C221.543 204.315 237.254 243.88 237.254 243.88L263.919 258.222L261.324 220.674C248.749 214.404 233.506 207.233 226.443 205.504Z" fill="white" stroke="black" stroke-width="0.508379" stroke-miterlimit="10"/>
<path d="M261.36 248.781V253.862C261.36 256.6 263.594 258.834 266.333 258.834C269.072 258.834 271.306 256.6 271.306 253.862V251.736C268.964 251.447 266.657 250.907 264.423 250.114L261.36 248.781Z" fill="black" stroke="black" stroke-width="0.508379" stroke-miterlimit="10"/>
<path d="M315.736 190.261L281.251 230.835C281.251 230.835 277.251 228.709 271.306 225.682C268.387 224.169 264.964 222.475 261.36 220.674V248.78L264.423 250.077C277.936 254.906 293.034 250.222 301.394 238.546L328.132 201.359L315.736 190.261Z" fill="#FC9797" stroke="black" stroke-width="0.508379" stroke-miterlimit="10"/>
<path d="M218.48 249.645L231.345 348.198L236.534 418.645L247.668 423.618L258.262 423.185C258.262 423.185 263.847 317.065 250.299 267.95C229.759 251.519 218.48 249.645 218.48 249.645Z" fill="white" stroke="black" stroke-width="0.508379" stroke-miterlimit="10"/>
<path d="M218.372 342.217L218.444 249.645C218.444 249.645 230.119 245.141 250.586 261.609C260.748 302.003 259.775 357.099 259.199 392.304L214.769 398.935L218.372 342.217Z" fill="#F09D47" stroke="black" stroke-width="0.508379" stroke-miterlimit="10"/>
<path d="M232.317 266.581C239.488 295.084 238.515 367.729 238.083 392.593" stroke="black" stroke-width="0.508379" stroke-miterlimit="10"/>
<path d="M221.147 392.593L231.309 392.557V405.313L221.255 405.349C217.724 405.385 214.841 402.574 214.805 399.043C214.769 395.475 217.616 392.593 221.147 392.593Z" fill="black" stroke="black" stroke-width="0.508379" stroke-miterlimit="10"/>
<path d="M199.634 317.967L208.426 237.034L236.209 264.06C236.209 264.06 240.569 315.661 222.912 346.614C215.201 359.983 206.805 372.955 197.724 385.423L162.591 369.604L199.634 317.967Z" fill="white"/>
<path d="M236.678 273.356C238.876 296.851 232.642 329.858 223.093 346.614C215.382 359.982 206.986 372.955 197.905 385.423L157.871 365.496L194.698 321.138L196.392 301.319C197.364 289.932 200.283 278.798 205.04 268.384L236.389 264.096" fill="#F09D47"/>
<path d="M236.678 273.356C238.876 296.851 232.642 329.858 223.093 346.614C215.382 359.982 206.986 372.955 197.905 385.423L157.871 365.496L194.698 321.138L196.392 301.319C197.364 289.932 200.283 278.798 205.04 268.384L236.389 264.096" stroke="black" stroke-width="0.508379" stroke-miterlimit="10"/>
<path d="M236.677 273.356C238.875 296.851 232.642 329.858 223.093 346.614L217.507 356.091L216.606 370.396C216.606 370.396 235.308 345.605 238.299 313.57C241.146 282.797 236.677 273.356 236.677 273.356Z" fill="black" stroke="black" stroke-width="0.508379" stroke-miterlimit="10"/>
<path d="M159.384 374.215C156.465 372.234 155.745 368.27 157.727 365.351C159.708 362.432 163.672 361.712 166.591 363.693L174.086 369.135L166.879 379.657L159.384 374.215Z" fill="black" stroke="black" stroke-width="0.508379" stroke-miterlimit="10"/>
<path d="M158.844 391.98L166.879 379.657L174.086 369.135L197.869 385.422C195.13 389.206 191.815 393.314 189.509 396.341C182.518 405.493 178.59 410.322 178.59 410.322L174.771 423.618L158.844 391.98Z" fill="#FC9797" stroke="black" stroke-width="0.508379" stroke-miterlimit="10"/>
<path d="M205.003 268.311L250.695 261.681L240.497 219.413C238.299 210.332 229.543 204.387 220.282 205.756C211.345 207.053 204.751 214.728 204.787 223.773L205.003 268.311Z" fill="white"/>
<path d="M220.282 205.756C211.345 207.053 204.751 214.728 204.787 223.773L205.003 268.311L250.695 261.681L240.065 217.755" stroke="black" stroke-width="0.508379" stroke-miterlimit="10"/>
<path d="M146.88 217.827L150.123 172.136L166.807 171.524L168.933 221.539L208.174 209.792L205.651 235.34L173.473 243.304C161.546 245.826 149.799 238.223 147.276 226.295C146.916 224.53 146.736 222.692 146.808 220.89L146.88 217.827Z" fill="#FC9797"/>
<path d="M146.881 217.827L150.124 172.136L166.808 171.523L168.934 221.539L206.085 210.332L202.77 235.988L173.474 243.267C161.547 245.79 149.799 238.187 147.277 226.259C146.917 224.494 146.737 222.656 146.809 220.854L146.881 217.827Z" stroke="black" stroke-width="0.508379" stroke-miterlimit="10"/>
<path d="M205.507 266.978L203.669 263.087C202.949 261.609 204.102 259.916 205.94 259.771L249.613 256.24C251.523 256.096 253.036 257.681 252.46 259.303L250.946 263.771L205.507 266.978Z" fill="#F09D47" stroke="black" stroke-width="0.508379" stroke-miterlimit="10"/>
<path d="M205.328 264.96L250.839 260.564C252.028 260.455 253.109 261.32 253.217 262.545C253.325 263.735 252.46 264.816 251.235 264.924L205.724 269.32C204.535 269.428 203.454 268.563 203.346 267.338C203.238 266.149 204.138 265.068 205.328 264.96Z" fill="black" stroke="black" stroke-width="0.508379" stroke-miterlimit="10"/>
<path d="M212.138 206.044L181.761 217.719L178.446 246.691L174.986 250.691L211.777 239.088" fill="white"/>
<path d="M212.138 206.044L181.761 217.719L178.446 246.691L174.986 250.691L211.777 239.088" stroke="black" stroke-width="0.508379" stroke-miterlimit="10"/>
<path d="M173.401 243.303C171.995 243.592 170.59 243.772 169.149 243.808L168.933 245.61C168.572 248.24 170.374 250.654 173.004 251.015C175.635 251.375 178.049 249.573 178.41 246.943C178.41 246.871 178.446 246.763 178.446 246.691L178.95 242.15L173.401 243.303Z" fill="black" stroke="black" stroke-width="0.508379" stroke-miterlimit="10"/>
<path d="M243.272 410.07L254.01 410.862L259.019 401.313C259.091 398.503 259.163 395.476 259.199 392.305L231.236 392.521V405.277V410.142L231.308 410.07H243.272Z" fill="#FC9797" stroke="black" stroke-width="0.508379" stroke-miterlimit="10"/>
<path d="M243.128 439.654L243.2 433.744C243.2 433.168 243.668 432.699 244.245 432.699C244.569 432.699 244.857 432.843 245.073 433.096L247.308 435.906C250.082 438.393 253.686 439.798 257.397 439.834L282.873 440.122L282.837 435.906C282.837 430.573 279.378 425.853 274.297 424.267L273.901 424.159L266.045 422.069C261.541 420.628 258.55 416.412 258.694 411.691C258.766 409.854 258.838 407.692 258.911 405.061C258.947 403.872 258.983 402.611 259.019 401.35H248.785C245.722 401.35 243.272 403.836 243.272 406.863V410.07H231.344L231.272 410.142L231.236 439.51L243.128 439.654Z" fill="white" stroke="black" stroke-width="0.508379" stroke-miterlimit="10"/>
<path d="M243.271 410.069C243.271 410.069 243.452 424.807 266.946 426.393Z" fill="white"/>
<path d="M243.271 410.069C243.271 410.069 243.452 424.807 266.946 426.393" stroke="black" stroke-width="0.508379" stroke-miterlimit="10"/>
<path d="M262.621 416.303C262.621 416.303 260.243 414.43 258.045 417.24" stroke="black" stroke-width="0.508379" stroke-miterlimit="10" stroke-linecap="round"/>
<path d="M261.54 413.71C261.54 413.71 259.162 411.836 256.964 414.646" stroke="black" stroke-width="0.508379" stroke-miterlimit="10" stroke-linecap="round"/>
<path d="M260.496 411.151C260.496 411.151 258.118 409.277 255.92 412.088" stroke="black" stroke-width="0.508379" stroke-miterlimit="10" stroke-linecap="round"/>
<path d="M263.306 412.304C263.306 412.304 268.892 405.457 270.225 408.556C271.558 411.655 266.369 413.853 266.513 412.015C266.658 410.178 271.054 410.034 271.955 412.592C272.855 415.15 267.594 415.439 263.811 414.105" stroke="black" stroke-width="0.508379" stroke-miterlimit="10" stroke-linecap="round"/>
<path d="M231.2 423.618H233.758C235.56 423.618 237.29 424.519 238.299 426.032L241.974 431.51" stroke="black" stroke-width="0.508379" stroke-miterlimit="10" stroke-linecap="round"/>
<path d="M231.307 413.097H243.847" stroke="black" stroke-width="0.508379" stroke-miterlimit="10" stroke-linecap="round"/>
<path d="M155.168 416.736L158.7 412.015C159.06 411.547 159.709 411.439 160.177 411.799C160.429 411.979 160.573 412.267 160.609 412.592L160.754 416.159C161.546 419.799 163.6 423.042 166.591 425.24L187.058 440.41L189.509 436.987C192.644 432.699 192.608 426.825 189.437 422.573C189.365 422.465 189.257 422.357 189.184 422.249L184.068 415.943C181.257 412.159 181.329 406.934 184.248 403.223C185.365 401.781 186.698 400.052 188.32 397.998C189.04 397.061 189.797 396.088 190.59 395.043L182.302 389.025C179.816 387.224 176.392 387.764 174.591 390.251L172.681 392.845L163.024 385.818L162.916 385.854L145.655 409.601L155.168 416.736Z" fill="white" stroke="black" stroke-width="0.508379" stroke-miterlimit="10"/>
<path d="M158.699 412.015C159.06 411.547 159.708 411.439 160.177 411.799C160.429 411.979 160.573 412.268 160.609 412.592L160.753 416.159C161.546 419.799 163.6 423.042 166.591 425.24L187.058 440.41L189.509 436.987C190.373 435.762 191.022 434.393 191.418 432.951L150.303 403.115L145.583 409.601L155.168 416.736L158.699 412.015Z" fill="black" stroke="black" stroke-width="0.508379" stroke-miterlimit="10"/>
<path d="M172.644 392.881C172.644 392.881 164.176 404.916 182.229 420.015Z" fill="white"/>
<path d="M172.644 392.881C172.644 392.881 164.176 404.916 182.229 420.015" stroke="black" stroke-width="0.508379" stroke-miterlimit="10"/>
<path d="M184.644 409.275C184.644 409.275 183.815 406.356 180.392 407.329" stroke="black" stroke-width="0.508379" stroke-miterlimit="10" stroke-linecap="round"/>
<path d="M185.292 406.573C185.292 406.573 184.463 403.654 181.04 404.627" stroke="black" stroke-width="0.508379" stroke-miterlimit="10" stroke-linecap="round"/>
<path d="M185.941 403.835C185.941 403.835 185.112 400.916 181.688 401.889" stroke="black" stroke-width="0.508379" stroke-miterlimit="10" stroke-linecap="round"/>
<path d="M187.598 406.465C187.598 406.465 196.138 404.195 195.417 407.51C194.697 410.825 189.183 409.528 190.372 408.123C191.562 406.717 195.201 409.204 194.444 411.798C193.688 414.393 189.219 411.546 186.949 408.267" stroke="black" stroke-width="0.508379" stroke-miterlimit="10" stroke-linecap="round"/>
<path d="M154.915 396.736L157.005 398.25C158.482 399.331 159.311 401.06 159.239 402.862L159.023 409.42" stroke="black" stroke-width="0.508379" stroke-miterlimit="10" stroke-linecap="round"/>
<path d="M161.185 388.305L171.346 395.692" stroke="black" stroke-width="0.508379" stroke-miterlimit="10" stroke-linecap="round"/>
<path d="M209.508 262.762L213.075 262.474L213.688 270.005L210.12 270.294L209.508 262.762Z" fill="#F09D47"/>
<path d="M210.12 270.293L209.508 262.762" stroke="black" stroke-width="0.508379" stroke-miterlimit="10" stroke-linecap="round"/>
<path d="M213.074 262.474L213.687 270.005" stroke="black" stroke-width="0.508379" stroke-miterlimit="10" stroke-linecap="round"/>
<path d="M222.84 261.753L226.407 261.465L227.02 268.996L223.452 269.284L222.84 261.753Z" fill="#F09D47"/>
<path d="M223.452 269.284L222.84 261.753" stroke="black" stroke-width="0.508379" stroke-miterlimit="10" stroke-linecap="round"/>
<path d="M226.408 261.465L227.021 268.996" stroke="black" stroke-width="0.508379" stroke-miterlimit="10" stroke-linecap="round"/>
<path d="M244.137 259.591L247.704 259.303L248.317 266.834L244.749 267.122L244.137 259.591Z" fill="#F09D47"/>
<path d="M244.748 267.122L244.136 259.591" stroke="black" stroke-width="0.508379" stroke-miterlimit="10" stroke-linecap="round"/>
<path d="M247.703 259.266L248.316 266.797" stroke="black" stroke-width="0.508379" stroke-miterlimit="10" stroke-linecap="round"/>
<path d="M234.371 260.131L237.362 259.879C238.443 259.807 239.416 260.6 239.488 261.681L239.812 265.645C239.884 266.726 239.091 267.698 238.01 267.771L235.019 268.023C233.938 268.095 232.965 267.302 232.893 266.221L232.569 262.257C232.461 261.176 233.29 260.239 234.371 260.131Z" fill="white" stroke="black" stroke-width="0.508379" stroke-miterlimit="10" stroke-linecap="round"/>
<path d="M179.743 372.99C179.743 372.99 206.625 344.379 210.192 332.055C213.759 319.732 218.768 282.508 218.768 282.508C218.768 282.508 227.128 282.112 228.317 273.356" stroke="black" stroke-width="0.508379" stroke-miterlimit="10"/>
<path d="M211.417 204.891C211.417 204.891 212.822 200.531 220.786 201.72C227.524 202.729 231.632 206.585 232.317 210.476" fill="white"/>
<path d="M211.417 204.891C211.417 204.891 212.822 200.531 220.786 201.72C227.524 202.729 231.632 206.585 232.317 210.476" stroke="black" stroke-width="0.508379" stroke-miterlimit="10" stroke-linecap="round"/>
<path d="M233.47 185.361L225.614 187.199L223.452 178.082L231.308 176.244C233.83 175.668 236.352 177.217 236.929 179.74C237.541 182.262 235.956 184.784 233.47 185.361Z" fill="black" stroke="black" stroke-width="0.508379" stroke-miterlimit="10"/>
<path d="M214.805 189.145L217.399 207.126L230.299 210.657L224.534 187.055" fill="#FC9797"/>
<path d="M230.516 211.234L224.57 187.055" stroke="black" stroke-width="0.508379" stroke-miterlimit="10" stroke-linecap="round"/>
<path d="M214.804 189.145L217.398 207.126" stroke="black" stroke-width="0.508379" stroke-miterlimit="10" stroke-linecap="round"/>
<path d="M226.263 194.334C226.263 194.334 223.416 195.307 220.966 194.442C222.335 197.613 227.668 200.352 227.668 200.352L226.263 194.334Z" fill="black" stroke="black" stroke-width="0.508379" stroke-miterlimit="10"/>
<path d="M222.478 195.307C226.817 195.307 230.334 191.79 230.334 187.451C230.334 183.113 226.817 179.596 222.478 179.596C218.14 179.596 214.623 183.113 214.623 187.451C214.623 191.79 218.14 195.307 222.478 195.307Z" fill="#FC9797"/>
<path d="M221.146 195.198C225.434 195.955 229.506 193.072 230.227 188.784C230.983 184.496 228.101 180.424 223.813 179.703C222.768 179.523 221.687 179.559 220.678 179.812" stroke="black" stroke-width="0.508379" stroke-miterlimit="10" stroke-linecap="round"/>
<path d="M215.741 196.495C215.741 196.495 219.777 194.513 218.732 189.252C215.993 188.892 216.282 184.928 218.155 185.109C220.029 185.289 220.786 189.397 220.786 189.397C220.786 189.397 222.155 187.451 220.534 183.127L228.101 181.361C231.776 180.496 234.19 176.965 233.686 173.217C233.65 173.001 233.614 172.821 233.578 172.605V172.569V172.533C232.821 169.614 229.866 167.848 226.912 168.569C225.326 168.965 224.029 170.046 223.308 171.524C221.579 169.037 218.191 168.389 215.705 170.118C213.831 171.416 212.966 173.722 213.471 175.92C213.507 176.1 213.435 175.812 213.615 176.424C211.129 175.271 208.174 176.316 207.021 178.839C205.976 181.037 206.696 183.667 208.714 185.072C208.714 185.072 206.444 186.694 207.705 190.514C209.147 194.549 215.741 196.495 215.741 196.495Z" fill="black" stroke="black" stroke-width="0.508379" stroke-miterlimit="10"/>
<path d="M230.298 210.657C230.298 210.657 224.533 204.892 213.398 203.486C211.633 203.342 211.092 205.18 210.984 206.766C210.912 207.883 211.561 208.928 212.605 209.36C214.876 210.297 217.614 211.234 217.614 211.234L217.903 210.946C219.236 209.612 221.11 209 222.983 209.324L230.298 210.657Z" fill="white"/>
<path d="M227.127 210.044L222.911 209.36C221.073 209.035 219.163 209.648 217.83 210.981L217.542 211.27C217.542 211.27 214.839 210.333 212.533 209.396C211.488 208.963 210.84 207.918 210.912 206.801C210.912 206.801 210.912 204.639 212.425 203.378" stroke="black" stroke-width="0.508379" stroke-miterlimit="10" stroke-linecap="round"/>
<path d="M215.596 203.81C222.478 205.107 227.019 207.99 229.072 209.576L229.289 209.756C229.973 210.332 230.478 211.089 230.73 211.918L232.316 216.782" stroke="black" stroke-width="0.508379" stroke-miterlimit="10" stroke-linecap="round"/>
<path d="M329.14 197.901L344.166 192.748C345.067 192.46 345.535 191.487 345.247 190.622C344.959 189.793 344.13 189.289 343.265 189.505L328.131 192.712L329.14 197.901Z" fill="#FC9797" stroke="black" stroke-width="0.508379" stroke-miterlimit="10" stroke-linecap="round"/>
<path d="M330.366 193.793L334.51 192.063L336.491 191.234L345.031 187.703C345.896 187.343 346.293 186.37 345.968 185.505C345.644 184.712 344.779 184.28 343.95 184.496L329.068 188.676L330.366 193.793Z" fill="#FC9797"/>
<path d="M335.122 191.811L336.491 191.234L345.031 187.703C345.896 187.343 346.293 186.37 345.968 185.505C345.644 184.712 344.779 184.28 343.95 184.496L329.068 188.676L330.402 193.793" stroke="black" stroke-width="0.508379" stroke-miterlimit="10" stroke-linecap="round"/>
<path d="M330.113 189.937L344.418 183.055C345.247 182.658 345.607 181.65 345.211 180.821C344.851 180.028 343.95 179.668 343.121 179.92L328.491 184.893L330.113 189.937Z" fill="#FC9797"/>
<path d="M334.004 188.1L344.418 183.091C345.247 182.695 345.607 181.686 345.211 180.857C344.851 180.064 343.95 179.704 343.121 179.956L328.491 184.929L330.113 189.973" stroke="black" stroke-width="0.508379" stroke-miterlimit="10" stroke-linecap="round"/>
<path d="M329.681 187.018L340.78 179.956C341.572 179.451 341.789 178.442 341.32 177.649C340.888 176.893 339.951 176.604 339.122 176.965L328.096 181.901L329.681 187.018Z" fill="#FC9797"/>
<path d="M335.122 195.883L329.213 181.434L326.69 182.407C321.898 184.244 317.682 187.379 314.547 191.451L312.781 193.721L326.366 202.91C329.97 201.901 332.996 199.523 334.87 196.28L335.122 195.883Z" fill="#FC9797"/>
<path d="M326.402 202.91C330.006 201.901 333.033 199.522 334.906 196.279L335.123 195.883L332.276 188.712" stroke="black" stroke-width="0.508379" stroke-miterlimit="10" stroke-linecap="round"/>
<path d="M331.987 185.541L340.78 179.92C341.573 179.415 341.789 178.407 341.32 177.614C340.888 176.857 339.951 176.569 339.122 176.929L326.546 182.514C326.546 182.514 316.781 186.766 312.781 193.685" stroke="black" stroke-width="0.508379" stroke-miterlimit="10" stroke-linecap="round"/>
<path d="M321.934 193.973L336.635 187.523C338.149 186.838 338.87 185.072 338.257 183.559L337.897 182.658L319.771 188.604L321.934 193.973Z" fill="#FC9797"/>
<path d="M151.456 166.226L139.925 154.768C139.241 154.083 139.241 153.002 139.889 152.317C140.502 151.669 141.511 151.597 142.195 152.173L154.663 161.902L151.456 166.226Z" fill="#FC9797" stroke="black" stroke-width="0.508379" stroke-miterlimit="10" stroke-linecap="round"/>
<path d="M151.312 162.876L148.753 159.056L147.528 157.218L142.267 149.399C141.727 148.606 141.943 147.525 142.736 147.021C143.456 146.516 144.465 146.66 145.042 147.309L155.384 159.308L151.312 162.876Z" fill="#FC9797"/>
<path d="M148.393 158.479L147.528 157.218L142.267 149.399C141.727 148.606 141.943 147.525 142.736 147.021C143.456 146.516 144.465 146.66 145.042 147.309L155.384 159.308L151.348 162.912" stroke="black" stroke-width="0.508379" stroke-miterlimit="10" stroke-linecap="round"/>
<path d="M153.366 159.525L145.835 145.111C145.403 144.282 145.727 143.237 146.556 142.769C147.349 142.336 148.322 142.589 148.826 143.309L157.763 156.354L153.366 159.525Z" fill="#FC9797"/>
<path d="M151.348 155.633L145.871 145.147C145.439 144.318 145.763 143.273 146.592 142.804C147.385 142.372 148.357 142.624 148.862 143.345L157.798 156.389L153.402 159.524" stroke="black" stroke-width="0.508379" stroke-miterlimit="10" stroke-linecap="round"/>
<path d="M156.501 157.254L151.276 144.822C150.915 143.957 151.312 142.948 152.141 142.552C152.969 142.192 153.906 142.48 154.375 143.237L160.789 153.867L156.501 157.254Z" fill="#FC9797"/>
<path d="M146.772 161.542L160.141 152.786L166.23 161.722L166.843 172.713L150.051 172.568C147.601 169.614 146.412 165.866 146.736 162.047L146.772 161.542Z" fill="#FC9797"/>
<path d="M150.051 172.533C147.601 169.578 146.412 165.831 146.736 162.011L146.772 161.507L153.33 157.146" stroke="black" stroke-width="0.508379" stroke-miterlimit="10" stroke-linecap="round"/>
<path d="M166.23 161.723L166.843 172.678" stroke="black" stroke-width="0.508379" stroke-miterlimit="10" stroke-linecap="round"/>
<path d="M160.897 172.641L161.546 156.246C161.618 154.552 163.023 153.183 164.717 153.219H165.726L166.843 172.713L160.897 172.641Z" fill="#FC9797"/>
<path d="M328.816 171.055C328.131 170.838 327.771 170.082 328.023 169.433C328.131 169.109 328.347 168.856 328.672 168.712L331.23 167.415C331.843 167.127 332.275 166.55 332.419 165.902L333.752 160.749C334.437 158.118 337.104 156.533 339.734 157.217C339.806 157.253 339.914 157.253 339.986 157.29L341.644 157.83C342.329 158.046 342.689 158.767 342.473 159.452C342.256 160.136 341.536 160.497 340.851 160.28L339.194 159.776C337.968 159.379 336.635 160.064 336.275 161.289C336.275 161.325 336.239 161.361 336.239 161.397L334.906 166.55C334.545 167.92 333.644 169.073 332.383 169.685L329.825 170.982C329.5 171.127 329.14 171.163 328.816 171.055Z" fill="white" stroke="black" stroke-width="0.470847" stroke-miterlimit="10"/>
<path d="M338.473 155.487L339.878 150.046C340.094 149.181 340.959 148.641 341.824 148.821L348.562 150.154L345.103 157.577L338.473 155.487Z" fill="white" stroke="black" stroke-width="0.470847" stroke-miterlimit="10"/>
<path d="M388.777 136.534L372.237 99.2751L341.14 125.256L388.777 136.534Z" fill="#F09D47" stroke="black" stroke-width="0.470847" stroke-miterlimit="10"/>
<path d="M388.931 137.277C389.562 134.563 379.247 129.846 365.892 126.74C352.537 123.634 341.199 123.317 340.567 126.03C339.936 128.744 350.251 133.462 363.607 136.567C376.962 139.673 388.3 139.991 388.931 137.277Z" fill="black" stroke="black" stroke-width="0.470847" stroke-miterlimit="10"/>
<path d="M349.392 129.903C349.86 127.921 357.391 127.993 366.22 130.083C375.048 132.137 381.859 135.416 381.39 137.362L365.823 204.35L333.789 196.891L349.392 129.903Z" fill="#F09D47" stroke="black" stroke-width="0.470847" stroke-miterlimit="10"/>
<path d="M365.835 204.326C366.29 202.369 359.494 199.115 350.655 197.06C341.816 195.004 334.282 194.925 333.826 196.883C333.371 198.841 340.167 202.094 349.006 204.149C357.845 206.205 365.38 206.284 365.835 204.326Z" fill="black" stroke="black" stroke-width="0.470847" stroke-miterlimit="10"/>
<path d="M320.096 243.519L343.95 140.894C344.13 140.137 344.887 139.668 345.644 139.849C346.401 140.029 346.869 140.786 346.689 141.542L323.627 240.816" fill="white"/>
<path d="M320.096 243.519L343.95 140.894C344.13 140.137 344.887 139.668 345.644 139.849C346.401 140.029 346.869 140.786 346.689 141.542L323.627 240.816" stroke="black" stroke-width="0.470847" stroke-miterlimit="10"/>
<path d="M409.208 248.347L403.118 247.302L403.479 253.5L399.155 249.068L395.803 254.293L394.902 248.167L389.137 250.437L392.02 244.96L386.038 243.41L391.587 240.672L387.66 235.879L393.749 236.924L393.389 230.726L397.713 235.159L401.064 229.934L401.965 236.059L407.731 233.789L404.848 239.266L410.83 240.816L405.28 243.554L409.208 248.347Z" fill="#F76D6D"/>
<path d="M409.208 248.347L403.118 247.302L403.479 253.5L399.155 249.068L395.803 254.293L394.902 248.167L389.137 250.437L392.02 244.96L386.038 243.41L391.587 240.672L387.66 235.879L393.749 236.924L393.389 230.726L397.713 235.159L401.064 229.934L401.965 236.059L407.731 233.789L404.848 239.266L410.83 240.816L405.28 243.554L409.208 248.347Z" stroke="black" stroke-width="0.470847" stroke-miterlimit="10"/>
<path d="M339.662 150.767L341.536 151.236" stroke="black" stroke-width="0.470847" stroke-miterlimit="10"/>
<path d="M362.687 244.384C351.553 240.564 344.887 229.213 346.976 217.646V217.61L350.508 202.62L351.481 202.836L347.949 217.79C345.715 230.186 353.967 242.041 366.363 244.24C368.489 244.636 370.651 244.708 372.813 244.456L398.037 241.753L398.145 242.762L372.921 245.465C369.678 245.825 366.363 245.501 363.228 244.492C363.048 244.492 362.868 244.456 362.687 244.384Z" fill="black"/>
<path d="M166.842 172.713L165.725 153.219H164.716C163.023 153.219 161.582 154.552 161.545 156.245L161.365 160.966C161.365 160.966 155.924 160.101 151.78 165.722" stroke="black" stroke-width="0.508379" stroke-miterlimit="10" stroke-linecap="round"/>
<path d="M155.42 154.696L151.276 144.822C150.915 143.957 151.312 142.948 152.141 142.552C152.969 142.192 153.906 142.48 154.375 143.237L161.726 155.272" stroke="black" stroke-width="0.508379" stroke-miterlimit="10" stroke-linecap="round"/>
<path d="M324.816 186.911L337.861 182.622L338.221 183.523C338.833 185.073 338.113 186.838 336.599 187.487L332.383 189.325C332.383 189.325 333.248 193.865 330.474 196.532" fill="#FC9797"/>
<path d="M324.816 186.911L337.861 182.622L338.221 183.523C338.833 185.073 338.113 186.838 336.599 187.487L332.383 189.325C332.383 189.325 333.248 193.865 330.474 196.532" stroke="black" stroke-width="0.508379" stroke-miterlimit="10" stroke-linecap="round"/>
</g>
<path d="M226.444 205.504C221.544 204.315 237.255 243.881 237.255 243.881L263.92 258.222L261.325 220.675C248.75 214.405 233.507 207.234 226.444 205.504Z" fill="white" stroke="black" stroke-width="0.508379" stroke-miterlimit="10"/>
<path d="M261.361 248.781V253.862C261.361 256.601 263.595 258.835 266.334 258.835C269.073 258.835 271.307 256.601 271.307 253.862V251.736C268.965 251.448 266.658 250.907 264.424 250.115L261.361 248.781Z" fill="black" stroke="black" stroke-width="0.508379" stroke-miterlimit="10"/>
<path d="M315.737 190.261L281.252 230.836C281.252 230.836 277.252 228.71 271.307 225.683C268.388 224.169 264.965 222.476 261.361 220.674V248.781L264.424 250.078C277.937 254.906 293.035 250.222 301.395 238.547L328.133 201.36L315.737 190.261Z" fill="#FC9797" stroke="black" stroke-width="0.508379" stroke-miterlimit="10"/>
<path d="M218.481 249.646L231.346 348.199L236.535 418.646L247.669 423.618L258.263 423.186C258.263 423.186 263.848 317.065 250.3 267.951C229.76 251.519 218.481 249.646 218.481 249.646Z" fill="white" stroke="black" stroke-width="0.508379" stroke-miterlimit="10"/>
<path d="M218.373 342.217L218.445 249.646C218.445 249.646 230.12 245.142 250.587 261.609C260.749 302.003 259.776 357.1 259.2 392.305L214.769 398.935L218.373 342.217Z" fill="#F09D47" stroke="black" stroke-width="0.508379" stroke-miterlimit="10"/>
<path d="M232.318 266.582C239.489 295.085 238.516 367.73 238.084 392.593" stroke="black" stroke-width="0.508379" stroke-miterlimit="10"/>
<path d="M221.148 392.594L231.31 392.558V405.314L221.256 405.35C217.725 405.386 214.842 402.575 214.806 399.044C214.77 395.476 217.617 392.594 221.148 392.594Z" fill="black" stroke="black" stroke-width="0.508379" stroke-miterlimit="10"/>
<path d="M199.635 317.968L208.427 237.035L236.21 264.061C236.21 264.061 240.57 315.661 222.913 346.615C215.202 359.983 206.806 372.956 197.725 385.423L162.592 369.604L199.635 317.968Z" fill="white"/>
<path d="M236.679 273.357C238.877 296.851 232.643 329.858 223.094 346.614C215.383 359.983 206.987 372.955 197.906 385.423L157.872 365.496L194.699 321.138L196.393 301.319C197.365 289.933 200.284 278.798 205.041 268.384L236.39 264.096" fill="#F09D47"/>
<path d="M236.679 273.357C238.877 296.851 232.643 329.858 223.094 346.614C215.383 359.983 206.987 372.955 197.906 385.423L157.872 365.496L194.699 321.138L196.393 301.319C197.365 289.933 200.284 278.798 205.041 268.384L236.39 264.096" stroke="black" stroke-width="0.508379" stroke-miterlimit="10"/>
<path d="M236.678 273.357C238.876 296.851 232.643 329.858 223.094 346.614L217.508 356.091L216.607 370.397C216.607 370.397 235.309 345.605 238.3 313.571C241.147 282.798 236.678 273.357 236.678 273.357Z" fill="black" stroke="black" stroke-width="0.508379" stroke-miterlimit="10"/>
<path d="M159.385 374.216C156.466 372.234 155.746 368.271 157.728 365.352C159.709 362.433 163.673 361.713 166.592 363.694L174.087 369.136L166.88 379.658L159.385 374.216Z" fill="black" stroke="black" stroke-width="0.508379" stroke-miterlimit="10"/>
<path d="M205.004 268.312L250.696 261.681L240.498 219.413C238.3 210.333 229.544 204.387 220.283 205.756C211.346 207.054 204.752 214.729 204.788 223.773L205.004 268.312Z" fill="white"/>
<path d="M220.283 205.756C211.346 207.054 204.752 214.729 204.788 223.773L205.004 268.312L250.696 261.681L240.066 217.756" stroke="black" stroke-width="0.508379" stroke-miterlimit="10"/>
<path d="M146.881 217.828L150.124 172.137L166.808 171.524L168.934 221.539L208.175 209.792L205.652 235.341L173.474 243.304C161.547 245.826 149.8 238.223 147.277 226.296C146.917 224.53 146.737 222.693 146.809 220.891L146.881 217.828Z" fill="#FC9797"/>
<path d="M146.881 217.828L150.124 172.137L166.808 171.525L168.934 221.54L206.085 210.333L202.77 235.99L173.474 243.269C161.547 245.791 149.8 238.188 147.277 226.26C146.917 224.495 146.737 222.657 146.809 220.855L146.881 217.828Z" stroke="black" stroke-width="0.508379" stroke-miterlimit="10"/>
<path d="M205.508 266.979L203.67 263.087C202.95 261.61 204.103 259.916 205.941 259.772L249.614 256.241C251.524 256.097 253.037 257.682 252.461 259.304L250.947 263.772L205.508 266.979Z" fill="#F09D47" stroke="black" stroke-width="0.508379" stroke-miterlimit="10"/>
<path d="M205.328 264.961L250.839 260.565C252.028 260.456 253.109 261.321 253.217 262.546C253.325 263.736 252.46 264.817 251.235 264.925L205.724 269.321C204.535 269.429 203.454 268.564 203.346 267.339C203.238 266.15 204.139 265.069 205.328 264.961Z" fill="black" stroke="black" stroke-width="0.508379" stroke-miterlimit="10"/>
<path d="M212.138 206.045L181.762 217.72L178.447 246.691L174.987 250.691L211.778 239.088" fill="white"/>
<path d="M212.138 206.045L181.762 217.72L178.447 246.691L174.987 250.691L211.778 239.088" stroke="black" stroke-width="0.508379" stroke-miterlimit="10"/>
<path d="M173.402 243.305C171.996 243.593 170.591 243.773 169.15 243.809L168.934 245.611C168.573 248.241 170.375 250.656 173.005 251.016C175.636 251.376 178.05 249.575 178.411 246.944C178.411 246.872 178.447 246.764 178.447 246.692L178.951 242.151L173.402 243.305Z" fill="black" stroke="black" stroke-width="0.508379" stroke-miterlimit="10"/>
<path d="M243.272 410.07L254.01 410.862L259.019 401.313C259.091 398.503 259.163 395.476 259.199 392.305L231.236 392.521V405.277V410.142L231.308 410.07H243.272Z" fill="#FC9797" stroke="black" stroke-width="0.508379" stroke-miterlimit="10"/>
<path d="M243.128 439.654L243.2 433.744C243.2 433.168 243.668 432.7 244.245 432.7C244.569 432.7 244.857 432.844 245.073 433.096L247.308 435.907C250.082 438.393 253.686 439.798 257.397 439.834L282.873 440.123L282.837 435.907C282.837 430.573 279.378 425.853 274.297 424.268L273.901 424.159L266.045 422.069C261.541 420.628 258.55 416.412 258.694 411.692C258.766 409.854 258.839 407.692 258.911 405.061C258.947 403.872 258.983 402.611 259.019 401.35H248.785C245.722 401.35 243.272 403.836 243.272 406.863V410.07H231.344L231.272 410.142L231.236 439.51L243.128 439.654Z" fill="white" stroke="black" stroke-width="0.508379" stroke-miterlimit="10"/>
<path d="M243.2 433.744C243.2 433.168 243.668 432.699 244.245 432.699C244.569 432.699 244.857 432.843 245.073 433.095L247.308 435.906C250.082 438.392 253.686 439.798 257.397 439.834L282.873 440.122L282.837 435.906C282.837 434.393 282.549 432.915 282.008 431.51H231.2V439.546L243.128 439.69L243.2 433.744Z" fill="black" stroke="black" stroke-width="0.508379" stroke-miterlimit="10"/>
<path d="M243.273 410.071C243.273 410.071 243.453 424.808 266.947 426.394Z" fill="white"/>
<path d="M243.273 410.071C243.273 410.071 243.453 424.808 266.947 426.394" stroke="black" stroke-width="0.508379" stroke-miterlimit="10"/>
<path d="M262.621 416.304C262.621 416.304 260.243 414.431 258.045 417.241" stroke="black" stroke-width="0.508379" stroke-miterlimit="10" stroke-linecap="round"/>
<path d="M261.54 413.71C261.54 413.71 259.162 411.836 256.964 414.647" stroke="black" stroke-width="0.508379" stroke-miterlimit="10" stroke-linecap="round"/>
<path d="M260.496 411.152C260.496 411.152 258.118 409.278 255.92 412.089" stroke="black" stroke-width="0.508379" stroke-miterlimit="10" stroke-linecap="round"/>
<path d="M263.307 412.305C263.307 412.305 268.892 405.458 270.225 408.557C271.559 411.656 266.37 413.854 266.514 412.017C266.658 410.179 271.054 410.035 271.955 412.593C272.856 415.152 267.595 415.44 263.811 414.107" stroke="black" stroke-width="0.508379" stroke-miterlimit="10" stroke-linecap="round"/>
<path d="M231.2 423.619H233.759C235.56 423.619 237.29 424.52 238.299 426.034L241.974 431.511" stroke="black" stroke-width="0.508379" stroke-miterlimit="10" stroke-linecap="round"/>
<path d="M231.308 413.098H243.848" stroke="black" stroke-width="0.508379" stroke-miterlimit="10" stroke-linecap="round"/>
<path d="M184.645 409.276C184.645 409.276 183.816 406.358 180.393 407.331" stroke="black" stroke-width="0.508379" stroke-miterlimit="10" stroke-linecap="round"/>
<path d="M185.293 406.574C185.293 406.574 184.464 403.656 181.041 404.628" stroke="black" stroke-width="0.508379" stroke-miterlimit="10" stroke-linecap="round"/>
<path d="M185.942 403.836C185.942 403.836 185.113 400.917 181.69 401.89" stroke="black" stroke-width="0.508379" stroke-miterlimit="10" stroke-linecap="round"/>
<path d="M187.599 406.466C187.599 406.466 196.139 404.196 195.418 407.511C194.698 410.827 189.184 409.529 190.374 408.124C191.563 406.719 195.202 409.205 194.445 411.8C193.689 414.394 189.22 411.547 186.95 408.268" stroke="black" stroke-width="0.508379" stroke-miterlimit="10" stroke-linecap="round"/>
<path d="M154.916 396.738L157.006 398.251C158.483 399.332 159.312 401.062 159.24 402.863L159.024 409.422" stroke="black" stroke-width="0.508379" stroke-miterlimit="10" stroke-linecap="round"/>
<path d="M161.186 388.306L171.347 395.693" stroke="black" stroke-width="0.508379" stroke-miterlimit="10" stroke-linecap="round"/>
<path d="M209.509 262.763L213.076 262.475L213.689 270.006L210.121 270.294L209.509 262.763Z" fill="#F09D47"/>
<path d="M210.121 270.294L209.509 262.763" stroke="black" stroke-width="0.508379" stroke-miterlimit="10" stroke-linecap="round"/>
<path d="M213.075 262.475L213.688 270.006" stroke="black" stroke-width="0.508379" stroke-miterlimit="10" stroke-linecap="round"/>
<path d="M222.84 261.754L226.407 261.465L227.02 268.996L223.452 269.285L222.84 261.754Z" fill="#F09D47"/>
<path d="M223.452 269.285L222.84 261.754" stroke="black" stroke-width="0.508379" stroke-miterlimit="10" stroke-linecap="round"/>
<path d="M226.408 261.465L227.021 268.996" stroke="black" stroke-width="0.508379" stroke-miterlimit="10" stroke-linecap="round"/>
<path d="M244.137 259.591L247.704 259.303L248.317 266.834L244.749 267.123L244.137 259.591Z" fill="#F09D47"/>
<path d="M244.749 267.123L244.137 259.592" stroke="black" stroke-width="0.508379" stroke-miterlimit="10" stroke-linecap="round"/>
<path d="M247.704 259.267L248.317 266.798" stroke="black" stroke-width="0.508379" stroke-miterlimit="10" stroke-linecap="round"/>
<path d="M234.372 260.132L237.363 259.88C238.444 259.807 239.417 260.6 239.489 261.681L239.813 265.645C239.885 266.726 239.092 267.699 238.011 267.771L235.02 268.023C233.939 268.095 232.966 267.303 232.894 266.222L232.57 262.258C232.462 261.177 233.291 260.24 234.372 260.132Z" fill="white" stroke="black" stroke-width="0.508379" stroke-miterlimit="10" stroke-linecap="round"/>
<path d="M179.744 372.991C179.744 372.991 206.626 344.38 210.193 332.056C213.76 319.732 218.769 282.509 218.769 282.509C218.769 282.509 227.129 282.113 228.318 273.356" stroke="black" stroke-width="0.508379" stroke-miterlimit="10"/>
<path d="M211.418 204.891C211.418 204.891 212.823 200.531 220.787 201.72C227.525 202.729 231.633 206.585 232.318 210.477" fill="white"/>
<path d="M211.418 204.891C211.418 204.891 212.823 200.531 220.787 201.72C227.525 202.729 231.633 206.585 232.318 210.477" stroke="black" stroke-width="0.508379" stroke-miterlimit="10" stroke-linecap="round"/>
<path d="M233.471 185.361L225.615 187.199L223.453 178.083L231.309 176.245C233.831 175.668 236.353 177.218 236.93 179.74C237.542 182.263 235.957 184.785 233.471 185.361Z" fill="black" stroke="black" stroke-width="0.508379" stroke-miterlimit="10"/>
<path d="M214.805 189.145L217.399 207.126L230.299 210.657L224.534 187.055" fill="#FC9797"/>
<path d="M230.516 211.234L224.57 187.055" stroke="black" stroke-width="0.508379" stroke-miterlimit="10" stroke-linecap="round"/>
<path d="M214.805 189.145L217.399 207.126" stroke="black" stroke-width="0.508379" stroke-miterlimit="10" stroke-linecap="round"/>
<path d="M226.264 194.334C226.264 194.334 223.417 195.307 220.967 194.443C222.336 197.614 227.669 200.352 227.669 200.352L226.264 194.334Z" fill="black" stroke="black" stroke-width="0.508379" stroke-miterlimit="10"/>
<path d="M222.48 195.307C226.819 195.307 230.336 191.79 230.336 187.452C230.336 183.113 226.819 179.596 222.48 179.596C218.142 179.596 214.625 183.113 214.625 187.452C214.625 191.79 218.142 195.307 222.48 195.307Z" fill="#FC9797"/>
<path d="M221.148 195.199C225.436 195.955 229.508 193.073 230.229 188.785C230.985 184.496 228.103 180.425 223.815 179.704C222.77 179.524 221.689 179.56 220.68 179.812" stroke="black" stroke-width="0.508379" stroke-miterlimit="10" stroke-linecap="round"/>
<path d="M215.742 196.496C215.742 196.496 219.778 194.514 218.733 189.253C215.994 188.893 216.282 184.929 218.156 185.109C220.03 185.289 220.787 189.397 220.787 189.397C220.787 189.397 222.156 187.451 220.535 183.127L228.102 181.361C231.777 180.497 234.191 176.965 233.687 173.218C233.651 173.002 233.615 172.821 233.579 172.605V172.569V172.533C232.822 169.614 229.867 167.849 226.913 168.569C225.327 168.966 224.03 170.047 223.309 171.524C221.58 169.038 218.192 168.389 215.706 170.119C213.832 171.416 212.967 173.722 213.472 175.92C213.508 176.1 213.436 175.812 213.616 176.425C211.13 175.272 208.175 176.317 207.022 178.839C205.977 181.037 206.697 183.668 208.715 185.073C208.715 185.073 206.445 186.694 207.706 190.514C209.148 194.55 215.742 196.496 215.742 196.496Z" fill="black" stroke="black" stroke-width="0.508379" stroke-miterlimit="10"/>
<path d="M230.3 210.658C230.3 210.658 224.535 204.892 213.4 203.487C211.635 203.343 211.094 205.181 210.986 206.766C210.914 207.883 211.562 208.928 212.607 209.361C214.878 210.297 217.616 211.234 217.616 211.234L217.904 210.946C219.238 209.613 221.111 209 222.985 209.325L230.3 210.658Z" fill="white"/>
<path d="M227.129 210.045L222.913 209.36C221.075 209.036 219.165 209.649 217.832 210.982L217.544 211.27C217.544 211.27 214.841 210.333 212.535 209.396C211.49 208.964 210.841 207.919 210.914 206.802C210.914 206.802 210.914 204.64 212.427 203.379" stroke="black" stroke-width="0.508379" stroke-miterlimit="10" stroke-linecap="round"/>
<path d="M215.598 203.811C222.48 205.108 227.02 207.991 229.074 209.576L229.291 209.756C229.975 210.333 230.48 211.089 230.732 211.918L232.317 216.783" stroke="black" stroke-width="0.508379" stroke-miterlimit="10" stroke-linecap="round"/>
<path d="M329.142 197.901L344.168 192.748C345.069 192.46 345.537 191.487 345.249 190.622C344.961 189.794 344.132 189.289 343.267 189.505L328.133 192.712L329.142 197.901Z" fill="#FC9797" stroke="black" stroke-width="0.508379" stroke-miterlimit="10" stroke-linecap="round"/>
<path d="M330.368 193.793L334.511 192.064L336.493 191.235L345.033 187.703C345.898 187.343 346.295 186.37 345.97 185.505C345.646 184.713 344.781 184.28 343.952 184.496L329.07 188.676L330.368 193.793Z" fill="#FC9797"/>
<path d="M335.124 191.811L336.493 191.235L345.033 187.703C345.898 187.343 346.295 186.37 345.97 185.505C345.646 184.713 344.781 184.28 343.952 184.496L329.07 188.676L330.404 193.793" stroke="black" stroke-width="0.508379" stroke-miterlimit="10" stroke-linecap="round"/>
<path d="M330.114 189.938L344.419 183.055C345.248 182.659 345.608 181.65 345.212 180.821C344.852 180.028 343.951 179.668 343.122 179.92L328.492 184.893L330.114 189.938Z" fill="#FC9797"/>
<path d="M334.005 188.1L344.419 183.091C345.248 182.695 345.608 181.686 345.212 180.857C344.852 180.065 343.951 179.704 343.122 179.956L328.492 184.929L330.114 189.974" stroke="black" stroke-width="0.508379" stroke-miterlimit="10" stroke-linecap="round"/>
<path d="M329.682 187.019L340.781 179.956C341.573 179.452 341.79 178.443 341.321 177.65C340.889 176.893 339.952 176.605 339.123 176.965L328.097 181.902L329.682 187.019Z" fill="#FC9797"/>
<path d="M335.122 195.884L329.213 181.434L326.69 182.407C321.898 184.245 317.682 187.38 314.547 191.452L312.781 193.722L326.366 202.91C329.97 201.901 332.996 199.523 334.87 196.28L335.122 195.884Z" fill="#FC9797"/>
<path d="M326.402 202.91C330.006 201.901 333.033 199.523 334.906 196.28L335.123 195.883L332.276 188.713" stroke="black" stroke-width="0.508379" stroke-miterlimit="10" stroke-linecap="round"/>
<path d="M331.987 185.542L340.78 179.92C341.573 179.416 341.789 178.407 341.32 177.614C340.888 176.858 339.951 176.569 339.122 176.93L326.546 182.515C326.546 182.515 316.781 186.767 312.781 193.686" stroke="black" stroke-width="0.508379" stroke-miterlimit="10" stroke-linecap="round"/>
<path d="M321.935 193.973L336.637 187.523C338.151 186.839 338.872 185.073 338.259 183.56L337.899 182.659L319.773 188.604L321.935 193.973Z" fill="#FC9797"/>
<path d="M151.457 166.227L139.926 154.768C139.242 154.083 139.242 153.002 139.89 152.318C140.503 151.669 141.512 151.597 142.196 152.174L154.664 161.903L151.457 166.227Z" fill="#FC9797" stroke="black" stroke-width="0.508379" stroke-miterlimit="10" stroke-linecap="round"/>
<path d="M151.313 162.876L148.754 159.057L147.529 157.219L142.268 149.399C141.728 148.607 141.944 147.526 142.737 147.021C143.457 146.517 144.466 146.661 145.043 147.309L155.384 159.309L151.313 162.876Z" fill="#FC9797"/>
<path d="M148.394 158.48L147.529 157.219L142.268 149.399C141.728 148.607 141.944 147.526 142.737 147.021C143.457 146.517 144.466 146.661 145.043 147.309L155.384 159.309L151.349 162.912" stroke="black" stroke-width="0.508379" stroke-miterlimit="10" stroke-linecap="round"/>
<path d="M153.367 159.525L145.836 145.112C145.404 144.283 145.728 143.238 146.557 142.769C147.35 142.337 148.323 142.589 148.827 143.31L157.763 156.354L153.367 159.525Z" fill="#FC9797"/>
<path d="M151.349 155.633L145.872 145.147C145.44 144.318 145.764 143.273 146.593 142.805C147.386 142.373 148.358 142.625 148.863 143.345L157.799 156.39L153.403 159.525" stroke="black" stroke-width="0.508379" stroke-miterlimit="10" stroke-linecap="round"/>
<path d="M156.502 157.255L151.277 144.823C150.916 143.958 151.313 142.949 152.142 142.553C152.97 142.192 153.907 142.481 154.376 143.237L160.79 153.867L156.502 157.255Z" fill="#FC9797"/>
<path d="M146.773 161.543L160.142 152.786L166.231 161.723L166.844 172.713L150.052 172.569C147.602 169.614 146.413 165.867 146.737 162.047L146.773 161.543Z" fill="#FC9797"/>
<path d="M150.052 172.533C147.602 169.579 146.413 165.831 146.737 162.011L146.773 161.507L153.331 157.147" stroke="black" stroke-width="0.508379" stroke-miterlimit="10" stroke-linecap="round"/>
<path d="M166.231 161.724L166.844 172.678" stroke="black" stroke-width="0.508379" stroke-miterlimit="10" stroke-linecap="round"/>
<path d="M160.898 172.642L161.547 156.246C161.619 154.553 163.024 153.183 164.718 153.219H165.727L166.844 172.714L160.898 172.642Z" fill="#FC9797"/>
<path d="M328.818 171.055C328.133 170.839 327.773 170.082 328.025 169.434C328.133 169.109 328.349 168.857 328.674 168.713L331.232 167.416C331.845 167.127 332.277 166.551 332.421 165.902L333.754 160.749C334.439 158.119 337.106 156.533 339.736 157.218C339.808 157.254 339.916 157.254 339.988 157.29L341.646 157.831C342.33 158.047 342.691 158.767 342.475 159.452C342.258 160.137 341.538 160.497 340.853 160.281L339.196 159.776C337.97 159.38 336.637 160.065 336.277 161.29C336.277 161.326 336.241 161.362 336.241 161.398L334.907 166.551C334.547 167.92 333.646 169.073 332.385 169.686L329.827 170.983C329.502 171.127 329.142 171.163 328.818 171.055Z" fill="white" stroke="black" stroke-width="0.470847" stroke-miterlimit="10"/>
<path d="M338.475 155.488L339.88 150.046C340.096 149.182 340.961 148.641 341.826 148.821L348.564 150.154L345.105 157.578L338.475 155.488Z" fill="white" stroke="black" stroke-width="0.470847" stroke-miterlimit="10"/>
<path d="M388.779 136.535L372.239 99.2756L341.142 125.256L388.779 136.535Z" fill="#F09D47" stroke="black" stroke-width="0.470847" stroke-miterlimit="10"/>
<path d="M388.933 137.278C389.564 134.564 379.249 129.846 365.894 126.741C352.539 123.635 341.2 123.317 340.569 126.031C339.938 128.744 350.253 133.462 363.609 136.568C376.964 139.674 388.302 139.991 388.933 137.278Z" fill="black" stroke="black" stroke-width="0.470847" stroke-miterlimit="10"/>
<path d="M349.394 129.904C349.862 127.922 357.393 127.994 366.222 130.084C375.05 132.138 381.861 135.417 381.392 137.363L365.825 204.35L333.791 196.891L349.394 129.904Z" fill="#F09D47" stroke="black" stroke-width="0.470847" stroke-miterlimit="10"/>
<path d="M365.837 204.327C366.292 202.37 359.496 199.116 350.657 197.061C341.818 195.005 334.284 194.926 333.828 196.884C333.373 198.842 340.169 202.095 349.008 204.15C357.847 206.206 365.382 206.285 365.837 204.327Z" fill="black" stroke="black" stroke-width="0.470847" stroke-miterlimit="10"/>
<path d="M320.098 243.519L343.952 140.894C344.132 140.137 344.889 139.669 345.646 139.849C346.403 140.029 346.871 140.786 346.691 141.543L323.629 240.817" fill="white"/>
<path d="M320.098 243.519L343.952 140.894C344.132 140.137 344.889 139.669 345.646 139.849C346.403 140.029 346.871 140.786 346.691 141.543L323.629 240.817" stroke="black" stroke-width="0.470847" stroke-miterlimit="10"/>
<path d="M409.21 248.348L403.12 247.303L403.481 253.5L399.156 249.068L395.805 254.293L394.904 248.167L389.139 250.437L392.022 244.96L386.04 243.411L391.589 240.672L387.662 235.88L393.751 236.925L393.391 230.727L397.715 235.159L401.066 229.934L401.967 236.06L407.733 233.79L404.85 239.267L410.832 240.816L405.282 243.555L409.21 248.348Z" fill="#F76D6D"/>
<path d="M409.21 248.348L403.12 247.303L403.481 253.5L399.156 249.068L395.805 254.293L394.904 248.167L389.139 250.437L392.022 244.96L386.04 243.411L391.589 240.672L387.662 235.88L393.751 236.925L393.391 230.727L397.715 235.159L401.066 229.934L401.967 236.06L407.733 233.79L404.85 239.267L410.832 240.816L405.282 243.555L409.21 248.348Z" stroke="black" stroke-width="0.470847" stroke-miterlimit="10"/>
<path d="M339.664 150.768L341.538 151.236" stroke="black" stroke-width="0.470847" stroke-miterlimit="10"/>
<path d="M362.689 244.384C351.555 240.565 344.888 229.214 346.978 217.647V217.611L350.51 202.621L351.483 202.837L347.951 217.791C345.717 230.187 353.969 242.042 366.365 244.24C368.491 244.636 370.653 244.708 372.815 244.456L398.039 241.754L398.147 242.763L372.923 245.465C369.68 245.826 366.365 245.501 363.23 244.492C363.05 244.492 362.869 244.456 362.689 244.384Z" fill="black"/>
<path d="M166.843 172.714L165.726 153.219H164.717C163.024 153.219 161.582 154.552 161.546 156.246L161.366 160.966C161.366 160.966 155.925 160.102 151.781 165.723" stroke="black" stroke-width="0.508379" stroke-miterlimit="10" stroke-linecap="round"/>
<path d="M155.421 154.696L151.277 144.823C150.916 143.958 151.313 142.949 152.142 142.553C152.97 142.192 153.907 142.481 154.376 143.237L161.727 155.273" stroke="black" stroke-width="0.508379" stroke-miterlimit="10" stroke-linecap="round"/>
<path d="M324.816 186.911L337.861 182.623L338.221 183.524C338.833 185.073 338.113 186.839 336.599 187.488L332.383 189.325C332.383 189.325 333.248 193.866 330.474 196.532" fill="#FC9797"/>
<path d="M324.816 186.911L337.861 182.623L338.221 183.524C338.833 185.073 338.113 186.839 336.599 187.488L332.383 189.325C332.383 189.325 333.248 193.866 330.474 196.532" stroke="black" stroke-width="0.508379" stroke-miterlimit="10" stroke-linecap="round"/>
</svg>
