<svg width="47" height="74" viewBox="0 0 47 74" fill="none" xmlns="http://www.w3.org/2000/svg">
<g clip-path="url(#clip0_2544_2710)">
<path d="M37.7305 16.9502L39.7305 16.4502L41.2305 17.4502H42.7305L43.7305 18.9502V20.4502H44.7305L45.2305 20.9502V22.4502L42.7305 24.4502L38.7305 24.9502L36.7305 22.9502V20.4502L37.7305 16.9502Z" fill="#F29C49"/>
<path d="M17.7404 73.2405C11.7604 73.2405 8.03044 73.2405 7.45044 73.2205C3.36044 73.1805 2.62044 68.7305 2.44044 64.8705C2.29044 61.7305 2.87044 59.0605 4.15044 56.9405C5.24044 55.1305 6.91044 53.4605 9.13044 51.9805C10.1304 51.3105 11.2604 50.7705 12.3404 50.2505C13.4904 49.7005 14.6404 49.1505 15.7104 48.4405C16.4804 47.9305 17.5304 47.0805 17.7204 45.5905C17.8004 44.9605 17.8604 43.4405 16.7304 42.7605C16.3604 42.5405 16.4504 42.1405 16.4704 42.0605C16.5004 41.9505 16.6304 41.6105 17.0404 41.6105H19.8904L19.6004 40.7505C19.1204 39.3505 18.6204 37.8905 18.0804 36.4405L17.9304 36.0305H17.4904C14.8204 35.9305 12.2004 35.1405 10.1004 33.7805C8.68044 32.8605 6.94044 31.3705 6.71044 29.4405C6.63044 28.6805 6.95044 28.6105 7.09044 28.5705C7.65044 28.4305 8.24044 28.3605 8.85044 28.3605C10.2704 28.3605 11.8304 28.7405 13.4804 29.4905L15.3704 30.3505L14.3004 28.5605C13.3004 26.8805 12.1504 25.1205 10.5704 22.8605L10.2504 22.4005L9.75044 22.6505C8.40044 23.3305 6.87044 23.7205 5.55044 23.7205C5.12044 23.7205 4.72044 23.6805 4.35044 23.6005C2.88044 23.2705 1.54044 22.3905 0.13044 20.8305C0.0304396 20.7205 -0.0195604 20.5705 0.000439635 20.4305C0.0304396 20.2305 0.20044 20.0405 0.47044 19.8705C1.51044 19.2505 2.67044 18.7405 3.84044 18.3805L4.44044 18.2005L4.28044 17.5905C4.11044 16.9305 4.07044 16.1305 4.19044 15.3005C4.38044 13.8505 4.94044 12.4305 5.77044 11.3105C6.01044 10.9905 6.33044 10.9605 6.42044 10.9605C7.86044 11.1405 9.28044 11.7105 10.4604 12.5705C11.1404 13.0705 11.6904 13.6205 12.0704 14.2205L12.4004 14.7305L12.9404 14.4405C13.7804 13.9805 14.7804 13.5805 16.0904 13.1705C16.2004 13.1405 16.3004 13.1205 16.4004 13.1205C16.8004 13.1205 17.0204 13.4005 17.0304 13.5605C17.1104 15.2305 17.0604 16.9905 16.1304 18.5405C15.3804 19.7705 13.9104 20.9305 12.1804 21.6305L11.4204 21.9405L11.8904 22.6105C13.7904 25.3205 15.7504 28.2605 17.2604 31.3905C18.5004 33.9405 20.2804 38.9405 20.8704 40.5805L21.0304 41.0205C21.1004 41.2105 21.2304 41.5905 21.7004 41.5905H22.4504L22.3504 40.8505C22.1204 39.1805 22.0504 37.3705 22.1504 35.3305C22.2204 33.9405 22.3604 32.4205 22.5804 30.6805L22.6504 30.1405L22.1304 29.9805C20.8704 29.5805 19.7304 28.7105 18.7404 27.4105C18.1804 26.6605 17.2204 25.1605 17.1204 23.4905C17.1004 23.0205 17.1404 22.3505 17.4504 21.8405C17.8104 21.2605 18.3504 20.9105 19.0804 20.7705C19.2304 20.7405 19.3704 20.7305 19.5104 20.7305C20.7204 20.7305 21.8904 21.7405 22.7204 23.5005L23.5104 25.1705L23.9404 23.3705C24.1504 22.5205 25.0504 19.1805 25.3004 18.3305L25.4604 17.7905L24.9504 17.5505C22.5404 16.4305 20.7404 14.8105 19.8904 12.9905C19.2704 11.6705 19.1304 9.91047 20.2204 8.95047C20.4504 8.74047 20.9504 8.52047 21.6604 8.52047C22.3304 8.52047 23.0204 8.73047 23.6604 9.12047C24.7604 9.80047 25.1604 10.7505 25.8104 13.2405L26.3004 15.1405L27.0404 13.3305C27.7704 11.5505 28.5204 10.0205 29.3504 8.63047L29.5304 8.46047L29.4604 8.10047C29.0004 6.13047 29.1604 4.11047 29.9104 2.40047C30.4104 1.28047 31.4904 -0.0195312 32.9104 -0.0195312C33.0004 -0.0195312 33.1004 -0.0195312 33.1904 0.00046875C34.4204 0.150469 35.2304 1.16047 35.3104 2.63047C35.3904 4.08047 34.6004 5.60047 33.9304 6.61047C32.9604 8.06047 31.8104 9.01047 30.5104 9.45047L30.2704 9.53047L30.1504 9.75047C29.7504 10.4505 29.3804 11.1605 29.0404 11.8705L27.9704 14.1105L30.0004 12.6805C31.3404 11.7405 32.8604 11.1805 34.0704 11.1805C34.7304 11.1805 35.2804 11.3505 35.6404 11.6705C36.3804 12.3105 36.6904 13.5905 35.7004 15.0105C34.8304 16.2405 33.3104 16.9605 32.1804 17.3405C31.4604 17.5805 30.7104 17.7005 29.8804 17.7005C29.1304 17.7005 28.3404 17.6105 27.4604 17.4105L26.8804 17.2805L26.7004 17.8505C26.3304 19.0405 26.0204 20.1305 25.7504 21.1805L25.2304 23.2005L26.8104 21.8405C27.5304 21.2205 28.7804 20.5005 29.9304 20.5005C30.3404 20.5005 30.7104 20.6005 31.0204 20.7905C31.6604 21.1805 32.0304 21.7005 32.1604 22.3805C32.2404 22.8405 32.1404 23.4305 31.8704 24.0305C31.1904 25.5505 29.7504 26.6105 28.9504 27.1005C27.6804 27.8905 26.4204 28.2805 25.2104 28.2805C25.0804 28.2805 24.9504 28.2805 24.8204 28.2705L24.2304 28.2305L24.1304 28.8205C23.8004 30.8205 23.5904 32.4905 23.4704 34.0605C23.3404 35.7905 23.2304 37.8405 23.4604 39.9205L23.7004 42.1805L24.7004 40.1405C26.1204 37.2305 28.0504 33.4505 30.4604 30.0205C32.3804 27.2805 34.1704 25.3305 36.1004 23.8905L36.5404 23.5605L36.2904 23.0705C35.7704 22.0405 35.8904 20.8405 36.0804 20.0105C36.2004 19.4805 36.6604 17.9105 37.2504 16.9805C37.6704 16.3205 38.3804 15.5105 39.3904 15.4405C40.1404 15.4405 41.1304 16.0105 41.3104 16.6805L41.4704 17.2405L42.0504 17.1505C42.1704 17.1305 42.2804 17.1205 42.3904 17.1205C42.8104 17.1205 43.1604 17.2605 43.4604 17.5605C43.7704 17.8705 43.9204 18.2505 43.8904 18.7105L43.8604 19.2905L44.4404 19.3905C44.9204 19.4705 45.3104 19.6505 45.6404 19.9505C46.5604 20.7705 46.1804 22.0505 45.4304 22.9005C44.1104 24.4105 42.1204 25.3505 40.2404 25.3505C39.9004 25.3505 39.5604 25.3205 39.2304 25.2605C38.7604 25.1705 38.2804 24.9805 37.8004 24.6705L37.4304 24.4405L37.0704 24.6905C35.5204 25.7905 34.0704 27.2405 32.6304 29.1105L31.4704 30.6105L33.3004 30.1405C34.3604 29.8705 35.4904 29.7305 36.6404 29.7305C38.0204 29.7305 39.4804 29.9305 40.9604 30.3305C41.2004 30.3905 41.3504 30.5305 41.4004 30.7305C41.4504 30.9505 41.3904 31.2005 41.2404 31.3405C39.9304 32.5705 38.2304 33.5805 36.3304 34.2405C34.4004 34.9205 32.3204 35.2605 30.1604 35.2605C29.8304 35.2605 29.4904 35.2605 29.1604 35.2405L28.7004 35.1205L28.4504 35.5505C27.5304 37.1805 26.6604 38.8605 25.7804 40.6705L25.3204 41.6105H28.1604C28.7304 41.6105 28.8504 41.8705 28.8904 42.0805C28.9604 42.3505 28.8404 42.5905 28.5504 42.8105C27.5604 43.6105 27.5004 45.0505 27.7504 46.0505C28.1104 47.4805 29.3704 48.3205 30.5504 48.9605C31.2404 49.3405 31.9504 49.6905 32.6304 50.0405C34.4604 50.9605 36.1804 51.8405 37.7704 53.1105C40.0504 54.9205 41.6404 57.1405 42.3704 59.5405C43.1604 62.1505 43.1904 65.4405 42.4504 68.8105C42.0804 70.4505 41.0704 73.2005 38.4304 73.2305C37.2204 73.2405 26.5004 73.2505 17.7104 73.2505H17.7504L17.7404 73.2405ZM19.5204 42.9405C19.3704 43.0105 19.2404 43.1105 19.1304 43.2405C18.9304 43.4905 18.8504 43.8005 18.9104 44.1105C19.0804 45.0005 19.0004 45.9605 18.6904 46.8105C17.9404 48.8705 15.8404 49.8605 13.8104 50.8205C13.4804 50.9805 13.1804 51.1205 12.8804 51.2705C9.80044 52.7905 7.63044 54.3905 6.08044 56.3305C4.25044 58.6305 3.47044 61.5805 3.71044 65.3505L3.73044 65.6705C3.86044 67.8905 4.11044 72.0205 7.24044 72.0305C10.2204 72.0305 19.3504 72.0305 27.1104 72.0305C31.5604 72.0305 37.0404 72.0305 37.8504 72.0305C39.3204 72.0205 40.3004 71.3305 40.8604 69.9205C41.8404 67.4405 42.0804 63.9405 41.4704 61.0005C40.3504 55.4805 35.5504 52.7605 30.7404 50.4505C28.9804 49.6005 26.9804 48.3705 26.5404 46.2205C26.4004 45.5105 26.3804 44.7905 26.4904 44.1505C26.5404 43.8105 26.4504 43.4805 26.2404 43.2305C26.0304 42.9905 25.7404 42.8505 25.4204 42.8505H19.3904L19.5304 42.9505L19.5204 42.9405ZM9.19044 29.5005C9.08044 29.5005 8.98044 29.5005 8.88044 29.5105L7.87044 29.6005L8.37044 30.4805C9.34044 32.1705 13.1104 34.6905 16.3304 34.6905H17.4104L16.9204 33.7405C16.1304 32.1905 14.3104 31.1405 13.3004 30.6505C11.8704 29.9505 10.2504 29.5005 9.18044 29.5005H9.19044ZM35.4204 30.3405C33.1804 30.3705 30.9504 31.7105 29.9704 32.9705L29.4104 33.6905L30.2704 33.9905C30.7104 34.1405 31.2704 34.2205 31.9304 34.2205C34.1404 34.2205 37.2904 33.3005 38.2704 31.9805L38.6904 31.4105L38.0804 31.0405C37.3204 30.5805 36.4604 30.3405 35.5004 30.3405H35.4204ZM19.5304 21.9405C19.3704 21.9405 19.2104 21.9805 19.0604 22.0505C18.7404 22.1805 18.2104 22.5605 18.2004 23.5805C18.1804 25.1405 19.4104 27.3705 21.2804 28.2205L22.0304 28.5605L22.1904 27.7505C22.5404 25.9305 21.8704 23.7705 21.0104 22.7305C20.4704 22.0805 19.9404 21.9405 19.5904 21.9405H19.5204H19.5304ZM29.6004 21.5905C28.0604 21.5905 25.9904 23.9405 25.5904 26.1605L25.4404 26.9705L26.2704 26.9205C28.3204 26.8005 30.2904 25.1605 30.8304 23.7005C31.1804 22.7505 30.8304 22.2105 30.5804 21.9705C30.3204 21.7105 29.9804 21.5805 29.6004 21.5805V21.5905ZM38.8904 16.9305C37.5104 18.7005 37.2204 20.0605 37.1304 20.9205C36.9704 22.4605 38.3604 23.8705 40.3004 24.1305C40.4504 24.1505 40.5904 24.1605 40.7404 24.1605C42.1604 24.1605 43.1604 23.2205 44.1304 22.3205C44.3404 22.1305 44.5304 21.9505 44.7104 21.7805L44.8304 21.6705L44.2104 20.6205L44.0504 20.6805C43.5604 20.8605 43.1204 20.9505 42.7704 20.9505C42.4704 20.9505 42.3004 20.8805 42.2504 20.8105C42.1404 20.6705 42.2304 19.7905 42.3604 19.4605L41.9904 19.3105L42.2904 19.2905L41.6604 18.6705L41.6204 18.9905L41.5204 18.5905C41.4304 18.6305 40.8604 18.8205 40.4204 18.8205C40.2204 18.8205 40.1604 18.7805 40.1604 18.7805C39.8804 18.5405 39.8904 18.2805 40.0504 17.4505L40.0804 17.2905L38.9904 16.7905L38.8904 16.9105V16.9305ZM5.62044 19.0105C4.37044 19.0105 3.19044 19.4905 2.38044 20.3305L2.02044 20.7005L2.31044 21.1305C2.92044 22.0605 3.97044 22.5605 5.33044 22.5605C6.69044 22.5605 8.16044 22.0705 9.00044 21.6205L9.71044 21.2405L9.18044 20.6305C8.30044 19.6005 7.00044 19.0105 5.62044 19.0105ZM15.1004 14.8705C12.7004 15.0705 10.6404 17.4305 10.6804 19.9305V20.7605L11.5004 20.5505C14.1704 19.8605 15.8704 17.8805 15.8104 15.5005L15.7904 14.8105L15.1704 14.8605H15.1004V14.8705ZM6.49044 18.0405C7.24044 18.0805 8.14044 18.4105 8.68044 18.7205L9.44044 19.1605L9.64044 18.3105C9.79044 17.7005 10.5204 16.3705 11.0604 15.8305L11.4404 15.4605L11.1604 15.0205C9.68044 12.6905 7.90044 12.3205 6.98044 12.3105H6.70044L6.50044 12.5105C5.70044 13.3305 4.62044 15.3505 5.61044 17.6605L5.79044 18.0805L6.36044 18.0505H6.49044V18.0405ZM33.6804 12.0705C32.1704 12.0705 29.9304 13.8705 29.1604 15.7005L28.8404 16.4605L29.6604 16.5905C29.9004 16.6305 30.1404 16.6505 30.3904 16.6505C31.9504 16.6505 34.1404 15.6905 34.9204 14.2705C35.2304 13.7105 35.2404 13.1505 34.9504 12.7105C34.6904 12.3105 34.2704 12.0905 33.7504 12.0705H33.6804ZM21.8904 9.58047C21.6604 9.58047 21.4504 9.64047 21.2504 9.75047C20.7704 10.0105 20.5104 10.5105 20.5204 11.1505C20.5504 12.5305 21.9804 14.7705 23.8504 15.7105L24.5904 16.0805L24.7804 15.2805C25.1804 13.5805 24.5104 11.7405 23.6604 10.6705C23.1104 9.97047 22.4804 9.59047 21.8904 9.59047V9.58047ZM32.8304 1.19047C32.4804 1.19047 31.9504 1.33047 31.4404 1.99047C30.6204 3.04047 30.0304 5.32047 30.5104 7.15047L30.7204 7.95047L31.4504 7.56047C33.2604 6.60047 34.3604 4.30047 34.2504 2.75047C34.1804 1.73047 33.6204 1.39047 33.3004 1.27047C33.1504 1.22047 33.0004 1.19047 32.8404 1.19047H32.8304Z" fill="#19486D"/>
</g>
<defs>
<clipPath id="clip0_2544_2710">
<rect width="46.15" height="73.24" fill="white"/>
</clipPath>
</defs>
</svg>
