<svg width="19" height="30" viewBox="0 0 19 30" fill="none" xmlns="http://www.w3.org/2000/svg">
<g clip-path="url(#clip0_2656_16375)">
<path d="M15.4545 6.94309L16.2738 6.73828L16.8882 7.14789H17.5026L17.9122 7.76231V8.37673H18.3218L18.5266 8.58154V9.19595L17.5026 10.0152L15.8641 10.22L15.0449 9.40076V8.37673L15.4545 6.94309Z" fill="#F29C49"/>
<path d="M7.26635 30.0004C4.81687 30.0004 3.28901 30.0004 3.05144 29.9922C1.37612 29.9758 1.07301 28.153 0.999281 26.5719C0.937839 25.2857 1.17541 24.1921 1.69972 23.3237C2.1462 22.5823 2.83025 21.8983 3.73959 21.292C4.1492 21.0176 4.61206 20.7964 5.05444 20.5834C5.5255 20.3581 5.99655 20.1328 6.43484 19.842C6.75024 19.6331 7.18033 19.2849 7.25816 18.6746C7.29092 18.4165 7.3155 17.7939 6.85264 17.5154C6.70108 17.4253 6.73795 17.2614 6.74614 17.2287C6.75843 17.1836 6.81168 17.0443 6.97962 17.0443H8.14701L8.02823 16.6921C7.83161 16.1186 7.62681 15.5206 7.40562 14.9266L7.34417 14.7587H7.16394C6.07028 14.7177 4.9971 14.3942 4.13691 13.8371C3.55526 13.4602 2.84254 12.8499 2.74833 12.0594C2.71556 11.7481 2.84663 11.7194 2.90398 11.703C3.13336 11.6457 3.37503 11.617 3.6249 11.617C4.20654 11.617 4.84554 11.7726 5.5214 12.0798L6.29557 12.4321L5.85728 11.6989C5.44767 11.0108 4.97662 10.2898 4.32943 9.36412L4.19835 9.17569L3.99355 9.2781C3.44057 9.55663 2.81386 9.71638 2.27318 9.71638C2.09704 9.71638 1.9332 9.7 1.78164 9.66723C1.17951 9.53206 0.63063 9.1716 0.0530766 8.5326C0.0121154 8.48755 -0.00836524 8.4261 -0.000172997 8.36876C0.0121154 8.28684 0.0817494 8.20901 0.192345 8.13938C0.618341 7.88542 1.09349 7.67651 1.57274 7.52905L1.81851 7.45532L1.75297 7.20546C1.68333 6.93512 1.66695 6.60743 1.7161 6.26745C1.79393 5.67351 2.02331 5.09186 2.36329 4.63309C2.4616 4.50202 2.59267 4.48973 2.62954 4.48973C3.21938 4.56346 3.80103 4.79694 4.28437 5.14921C4.56291 5.35401 4.78819 5.5793 4.94385 5.82507L5.07902 6.03397L5.30021 5.91518C5.64428 5.72676 6.0539 5.56291 6.59049 5.39497C6.63554 5.38268 6.67651 5.37449 6.71747 5.37449C6.88131 5.37449 6.97143 5.48918 6.97552 5.55472C7.00829 6.23877 6.98781 6.95969 6.60687 7.59459C6.29966 8.09841 5.69753 8.57356 4.9889 8.86029L4.6776 8.98727L4.87012 9.26171C5.64838 10.3718 6.45122 11.576 7.06973 12.8581C7.57765 13.9026 8.30676 15.9507 8.54843 16.6224L8.61397 16.8027C8.64264 16.8805 8.6959 17.0362 8.88841 17.0362H9.19562L9.15466 16.733C9.06045 16.049 9.03178 15.3076 9.07274 14.472C9.10141 13.9026 9.15876 13.28 9.24887 12.5673L9.27754 12.3461L9.06454 12.2806C8.54843 12.1167 8.08148 11.7603 7.67596 11.2279C7.44658 10.9206 7.05335 10.3062 7.01239 9.62217C7.0042 9.42965 7.02058 9.15521 7.14756 8.94631C7.29502 8.70874 7.51621 8.56537 7.81523 8.50803C7.87667 8.49574 7.93402 8.49164 7.99136 8.49164C8.48699 8.49164 8.96624 8.90535 9.30622 9.62627L9.62981 10.3103L9.80594 9.57302C9.89196 9.22485 10.2606 7.85674 10.363 7.50857L10.4286 7.28738L10.2197 7.18907C9.23249 6.73031 8.49518 6.06674 8.14701 5.32124C7.89305 4.78055 7.83571 4.05964 8.28219 3.66641C8.3764 3.58039 8.5812 3.49028 8.87203 3.49028C9.14647 3.49028 9.4291 3.57629 9.69125 3.73604C10.1418 4.01458 10.3057 4.40371 10.5719 5.42365L10.7726 6.20191L11.0757 5.46051C11.3748 4.7314 11.682 4.10469 12.0219 3.53533L12.0957 3.4657L12.067 3.31824C11.8786 2.5113 11.9441 1.68389 12.2513 0.983449C12.4561 0.524683 12.8985 -0.0078125 13.4802 -0.0078125C13.517 -0.0078125 13.558 -0.0078125 13.5949 0.000379745C14.0987 0.0618216 14.4305 0.47553 14.4632 1.07766C14.496 1.6716 14.1724 2.29421 13.898 2.70792C13.5006 3.30185 13.0296 3.69099 12.4971 3.87122L12.3988 3.90398L12.3496 3.9941C12.1858 4.28083 12.0342 4.57165 11.895 4.86248L11.4567 5.78001L12.2882 5.19426C12.8371 4.80923 13.4597 4.57984 13.9553 4.57984C14.2257 4.57984 14.4509 4.64948 14.5984 4.78055C14.9015 5.04271 15.0285 5.56701 14.623 6.14866C14.2666 6.65248 13.644 6.9474 13.1811 7.10306C12.8862 7.20136 12.579 7.25052 12.239 7.25052C11.9318 7.25052 11.6082 7.21365 11.2478 7.13173L11.0102 7.07848L10.9365 7.31196C10.7849 7.7994 10.6579 8.24587 10.5473 8.67597L10.3343 9.50338L10.9815 8.94631C11.2765 8.69235 11.7885 8.39743 12.2595 8.39743C12.4275 8.39743 12.579 8.43839 12.706 8.51622C12.9682 8.67597 13.1197 8.88897 13.173 9.1675C13.2057 9.35592 13.1648 9.5976 13.0542 9.84336C12.7756 10.466 12.1858 10.9002 11.8581 11.1009C11.3379 11.4245 10.8218 11.5842 10.3262 11.5842C10.2729 11.5842 10.2197 11.5842 10.1664 11.5801L9.92473 11.5637L9.88377 11.8054C9.7486 12.6246 9.66258 13.3087 9.61343 13.9518C9.56018 14.6604 9.51512 15.5001 9.60933 16.3521L9.70764 17.2778L10.1172 16.4422C10.6989 15.2502 11.4894 13.7019 12.4766 12.2969C13.2631 11.1746 13.9963 10.3759 14.7868 9.78602L14.9671 9.65084L14.8647 9.45013C14.6517 9.02823 14.7008 8.5367 14.7786 8.19672C14.8278 7.97963 15.0162 7.33653 15.2579 6.9556C15.4299 6.68525 15.7207 6.35347 16.1345 6.32479C16.4417 6.32479 16.8472 6.55827 16.9209 6.83271L16.9864 7.06209L17.224 7.02523C17.2732 7.01704 17.3182 7.01294 17.3633 7.01294C17.5353 7.01294 17.6787 7.07029 17.8016 7.19317C17.9286 7.32015 17.99 7.4758 17.9777 7.66422L17.9654 7.9018L18.203 7.94276C18.3996 7.97553 18.5594 8.04926 18.6945 8.17214C19.0714 8.50803 18.9157 9.03233 18.6085 9.3805C18.0678 9.99901 17.2527 10.3841 16.4826 10.3841C16.3434 10.3841 16.2041 10.3718 16.0689 10.3472C15.8764 10.3103 15.6798 10.2325 15.4832 10.1055L15.3316 10.0113L15.1842 10.1137C14.5493 10.5643 13.9553 11.1582 13.3655 11.9242L12.8903 12.5386L13.6399 12.3461C14.0741 12.2355 14.537 12.1782 15.008 12.1782C15.5733 12.1782 16.1713 12.2601 16.7775 12.4239C16.8759 12.4485 16.9373 12.5058 16.9578 12.5878C16.9783 12.6779 16.9537 12.7803 16.8922 12.8376C16.3556 13.3415 15.6593 13.7552 14.881 14.0255C14.0905 14.304 13.2385 14.4433 12.3537 14.4433C12.2186 14.4433 12.0793 14.4433 11.9441 14.4351L11.7557 14.386L11.6533 14.5621C11.2765 15.2298 10.9201 15.9179 10.5596 16.6593L10.3712 17.0443H11.5345C11.768 17.0443 11.8171 17.1508 11.8335 17.2369C11.8622 17.3475 11.813 17.4458 11.6943 17.5359C11.2887 17.8636 11.2642 18.4534 11.3666 18.863C11.514 19.4488 12.0301 19.7928 12.5135 20.055C12.7961 20.2106 13.0869 20.354 13.3655 20.4974C14.1151 20.8742 14.8196 21.2347 15.4709 21.7549C16.4048 22.4963 17.0561 23.4056 17.3551 24.3887C17.6787 25.4578 17.691 26.8054 17.3879 28.1858C17.2363 28.8576 16.8226 29.984 15.7412 29.9963C15.2456 30.0004 10.8546 30.0045 7.25406 30.0045H7.27044L7.26635 30.0004ZM7.99546 17.5891C7.93402 17.6178 7.88077 17.6588 7.83571 17.712C7.75379 17.8144 7.72102 17.9414 7.74559 18.0684C7.81523 18.4329 7.78246 18.8262 7.65548 19.1743C7.34827 20.0181 6.48808 20.4236 5.65657 20.8169C5.5214 20.8824 5.39852 20.9398 5.27563 21.0012C4.01403 21.6238 3.12517 22.2792 2.49027 23.0738C1.74068 24.0159 1.42118 25.2243 1.51949 26.7685L1.52768 26.8996C1.58093 27.809 1.68333 29.5007 2.96542 29.5047C4.18606 29.5047 7.92582 29.5047 11.1044 29.5047C12.9272 29.5047 15.1719 29.5047 15.5036 29.5047C16.1058 29.5007 16.5072 29.218 16.7366 28.6405C17.138 27.6246 17.2363 26.191 16.9864 24.9867C16.5277 22.7257 14.5615 21.6115 12.5913 20.6653C11.8704 20.3171 11.0512 19.8133 10.8709 18.9327C10.8136 18.6418 10.8054 18.3469 10.8505 18.0848C10.8709 17.9455 10.8341 17.8103 10.7481 17.7079C10.662 17.6096 10.5432 17.5523 10.4122 17.5523H7.94221L7.99955 17.5932L7.99546 17.5891ZM3.76416 12.0839C3.71911 12.0839 3.67814 12.0839 3.63718 12.088L3.22348 12.1249L3.42828 12.4854C3.82561 13.1776 5.36984 14.2098 6.68879 14.2098H7.13118L6.93047 13.8207C6.60687 13.1858 5.86138 12.7557 5.44767 12.555C4.86192 12.2683 4.19835 12.0839 3.76007 12.0839H3.76416ZM14.5083 12.428C13.5908 12.4403 12.6773 12.9892 12.2759 13.5053L12.0465 13.8002L12.3988 13.9231C12.579 13.9845 12.8084 14.0173 13.0787 14.0173C13.984 14.0173 15.2743 13.6405 15.6757 13.0998L15.8477 12.8663L15.5979 12.7147C15.2866 12.5263 14.9343 12.428 14.5411 12.428H14.5083ZM7.99955 8.98727C7.93402 8.98727 7.86848 9.00366 7.80704 9.03233C7.67596 9.08558 7.45887 9.24123 7.45477 9.65904C7.44658 10.298 7.9504 11.2115 8.71638 11.5596L9.02358 11.6989L9.08912 11.3671C9.23249 10.6216 8.95805 9.73686 8.60578 9.31087C8.38459 9.04462 8.16749 8.98727 8.02413 8.98727H7.99546H7.99955ZM12.1243 8.84391C11.4935 8.84391 10.6456 9.8065 10.4818 10.7158L10.4204 11.0476L10.7603 11.0271C11.6 10.978 12.407 10.3062 12.6282 9.70819C12.7715 9.31906 12.6282 9.09787 12.5258 8.99956C12.4193 8.89306 12.28 8.83981 12.1243 8.83981V8.84391ZM15.9296 6.93512C15.3644 7.66013 15.2456 8.2172 15.2087 8.56947C15.1432 9.20027 15.7126 9.77782 16.5072 9.88432C16.5686 9.89252 16.626 9.89661 16.6874 9.89661C17.2691 9.89661 17.6787 9.51158 18.076 9.14293C18.162 9.0651 18.2399 8.99137 18.3136 8.92173L18.3627 8.87668L18.1088 8.44658L18.0432 8.47116C17.8425 8.54489 17.6623 8.58176 17.5189 8.58176C17.3961 8.58176 17.3264 8.55308 17.3059 8.52441C17.2609 8.46706 17.2978 8.10661 17.351 7.97143L17.1994 7.90999L17.3223 7.9018L17.0643 7.64784L17.0479 7.77892L17.0069 7.61507C16.9701 7.63146 16.7366 7.70928 16.5564 7.70928C16.4744 7.70928 16.4499 7.6929 16.4499 7.6929C16.3352 7.59459 16.3393 7.48809 16.4048 7.14811L16.4171 7.08258L15.9706 6.87777L15.9296 6.92692V6.93512ZM2.30185 7.78711C1.78983 7.78711 1.30649 7.98372 0.974704 8.3278L0.827244 8.47935L0.946031 8.65549C1.19589 9.03643 1.62599 9.24123 2.18306 9.24123C2.74013 9.24123 3.34226 9.04052 3.68634 8.8562L3.97716 8.70054L3.76007 8.45068C3.39961 8.02878 2.86711 7.78711 2.30185 7.78711ZM6.18497 6.09131C5.2019 6.17324 4.3581 7.13992 4.37449 8.16395V8.50393L4.71037 8.41791C5.80403 8.13528 6.50037 7.32425 6.4758 6.34937L6.4676 6.06674L6.21364 6.08722H6.18497V6.09131ZM2.65821 7.38979C2.96542 7.40617 3.33407 7.54134 3.55526 7.66832L3.86657 7.84855L3.94849 7.50038C4.00993 7.25052 4.30895 6.70573 4.53014 6.48454L4.68579 6.33298L4.5711 6.15276C3.96487 5.19836 3.23576 5.0468 2.85892 5.04271H2.74423L2.66231 5.12463C2.33462 5.46051 1.89224 6.28793 2.29775 7.23413L2.37148 7.40617L2.60496 7.39388H2.65821V7.38979ZM13.7956 4.9444C13.1771 4.9444 12.2595 5.6817 11.9441 6.43129L11.813 6.7426L12.1489 6.79585C12.2472 6.81223 12.3455 6.82042 12.4479 6.82042C13.0869 6.82042 13.984 6.4272 14.3035 5.84555C14.4305 5.61616 14.4346 5.38678 14.3158 5.20655C14.2093 5.04271 14.0372 4.95259 13.8242 4.9444H13.7956ZM8.96624 3.92447C8.87203 3.92447 8.78601 3.94904 8.70409 3.9941C8.50747 4.1006 8.40097 4.3054 8.40507 4.56756C8.41736 5.13282 9.0031 6.05035 9.76908 6.43539L10.0722 6.58694L10.15 6.25925C10.3139 5.56291 10.0394 4.80923 9.69125 4.37094C9.46597 4.08421 9.20791 3.92856 8.96624 3.92856V3.92447ZM13.4474 0.487818C13.304 0.487818 13.0869 0.545164 12.878 0.815508C12.5422 1.2456 12.3005 2.17952 12.4971 2.92911L12.5831 3.2568L12.8821 3.09705C13.6235 2.70382 14.0741 1.76171 14.029 1.12681C14.0004 0.709009 13.771 0.569741 13.6399 0.520587C13.5785 0.500107 13.517 0.487818 13.4515 0.487818H13.4474Z" fill="#19486D"/>
</g>
<defs>
<clipPath id="clip0_2656_16375">
<rect width="18.9036" height="30" fill="white"/>
</clipPath>
</defs>
</svg>
