<svg width="40" height="30" viewBox="0 0 40 30" fill="none" xmlns="http://www.w3.org/2000/svg">
<g clip-path="url(#clip0_2656_16379)">
<path d="M26.7646 11.0859L27.4233 15.8456L34.7406 16.0956L35.707 11.259L33.5387 12.7013L31.4666 12.9129L28.6348 11.2686L27.6637 11.0859H26.7695H26.7646Z" fill="#F29C49"/>
<path d="M25.2452 30C24.9423 30 24.6779 29.8942 24.4808 29.6923C24.2644 29.476 24.1779 29.2115 24.2308 28.9279L24.3125 28.4712L23.9519 28.3894C23.7644 28.3462 23.5865 28.3077 23.4087 28.274C21.4952 27.8846 19.2644 27.6779 16.9712 27.6779C14.6779 27.6779 12.4471 27.8846 10.5337 28.274C8.66827 28.6538 7.17788 29.1779 6.22596 29.7981C6.01923 29.9327 5.78365 30 5.54327 30H5.46635C5.40385 30 5.33654 29.9856 5.26923 29.9712C4.9375 29.899 4.65865 29.7019 4.47115 29.4135C4.09135 28.8173 4.26442 28.024 4.85577 27.6442C6.0625 26.8606 7.85577 26.2115 10.0385 25.7692C11.649 25.4423 13.476 25.2308 15.3317 25.149L15.7019 25.1346V22.0048H0.995192C0.447115 22.0048 0 21.5529 0 21V1.00481C0 0.451923 0.447115 0 0.995192 0H30.3606C30.9087 0 31.3558 0.451923 31.3558 1.00481V2.04808H34.1202C35.0865 2.04808 35.8894 2.97596 35.9471 4.15865L35.9663 4.52885H36.7548C36.8269 4.52885 36.899 4.5625 36.9471 4.62019C36.9952 4.67788 37.0192 4.75481 37.0048 4.83173L36.5913 7.40385L37.0385 7.41346C38.0192 7.43269 38.5962 7.61538 38.9135 8C39.0577 8.17788 39.2067 8.48558 39.1058 8.95673L38.1779 13.2163C37.9952 14.0577 36.8462 14.4135 36.0048 14.6731L35.0673 14.9615L35.3461 15.101L34.8798 17.9952H35.4231C35.9327 17.9952 36.3606 18.3221 36.4423 18.774L38.2163 28.9279C38.2644 29.2115 38.1779 29.4808 37.9663 29.6923C37.7644 29.8942 37.5 30 37.2019 30H25.25H25.2452ZM15.9519 25.6442C13.9087 25.6971 11.8942 25.9135 10.125 26.274C8.00481 26.7067 6.27404 27.3269 5.11538 28.0769C4.94712 28.1875 4.82692 28.3606 4.78365 28.5577C4.74038 28.7596 4.77885 28.9615 4.88461 29.1346C4.99519 29.3077 5.16346 29.4231 5.36058 29.4712C5.41346 29.4808 5.46635 29.4904 5.52404 29.4904C5.66827 29.4904 5.80769 29.4471 5.93269 29.3702C6.94231 28.7163 8.49038 28.1683 10.4183 27.774C12.3702 27.3798 14.6298 27.1683 16.9567 27.1683C19.2837 27.1683 21.5481 27.3798 23.4952 27.774C23.6587 27.8077 23.8269 27.8462 23.9904 27.8798L24.3894 27.9712L24.6538 26.4663L24.2933 26.3846C24.1298 26.3462 23.9663 26.3125 23.7981 26.2788C22.0288 25.9183 20.0144 25.7019 17.9712 25.649H17.7212V22.0048H16.1971V25.6394H15.9471L15.9519 25.6442ZM26.9279 18.5288C26.75 18.5529 26.6442 18.6394 26.6058 18.6779L26.5192 18.7644L24.6923 29.2115L24.8558 29.3558C24.9567 29.4471 25.0865 29.4904 25.2404 29.4904H37.1923C37.351 29.4904 37.4856 29.4423 37.5865 29.351L37.7404 29.2067L35.9135 18.7596H35.649L35.7067 18.5865C35.6683 18.5673 35.5673 18.5192 35.4183 18.5192H26.9279V18.5288ZM18.2308 25.1538H18.375L18.6058 25.1635C20.4615 25.2404 22.2933 25.4567 23.899 25.7837C24.0481 25.8125 24.5962 25.9375 24.5962 25.9375L24.7452 25.9712L25.4375 22.0192H18.2356V25.1587L18.2308 25.1538ZM0.509615 20.9952C0.509615 21.2596 0.730769 21.4808 0.995192 21.4808H25.5288L25.9231 19.2452H0.509615V20.9952ZM0.995192 0.514423C0.730769 0.514423 0.509615 0.735577 0.509615 1V18.7308H25.9856L26.0962 18.524C26.2692 18.2019 26.625 18 27.0192 18H27.5529L25.4279 4.83654C25.4183 4.75962 25.4375 4.68269 25.4856 4.625C25.5337 4.56731 25.6058 4.53365 25.6779 4.53365H26.4663L26.4856 4.16346C26.5433 2.98077 27.3462 2.05288 28.3125 2.05288H30.8462V1.00481C30.8462 0.740385 30.625 0.519231 30.3606 0.519231H0.995192V0.514423ZM28.0673 18H34.3606L34.649 16.1971H27.774L28.0625 18H28.0673ZM27.6923 15.6827H34.7356L35.3365 11.9471L34.6058 12.4183C33.6827 13.0096 32.8894 13.2981 32.1875 13.2981C31.4327 13.2981 30.7788 12.976 29.9663 12.4519C29.2788 12.0096 28.5673 11.5529 27.4904 11.5144L27.0192 11.5L27.6923 15.6827ZM35.4712 14.3077L36.0721 14.1154C37.1394 13.774 37.5865 13.4904 37.6683 13.1106L38.5962 8.85096C38.6154 8.76923 38.6683 8.52404 38.5096 8.33654C38.3558 8.14904 38.0288 7.9375 36.8269 7.93269H36.4952L35.4663 14.3077H35.4712ZM27.4471 10.9952C28.6827 11.0192 29.5048 11.5481 30.2308 12.0144C30.8413 12.4087 31.4135 12.7788 32.1779 12.7788C33.0337 12.7788 34.0096 12.3077 35.3413 11.25L35.4615 11.1538L36.4471 5.05288H25.976L26.9375 11H27.4519L27.4471 10.9952ZM28.3077 2.5625C27.6298 2.5625 27.0673 3.22596 26.9904 4.10577L26.9567 4.52885H35.4663L35.4327 4.10577C35.3606 3.22596 34.7933 2.5625 34.1154 2.5625H28.3077ZM34.3029 26.6058V25.5913H34.8125V26.6058H34.3029ZM32.0769 26.6058V25.5913H32.5865V26.6058H32.0769ZM29.851 26.6058V25.5913H30.3606V26.6058H29.851ZM27.625 26.6058V25.5913H28.1346V26.6058H27.625Z" fill="#19486D"/>
</g>
<defs>
<clipPath id="clip0_2656_16379">
<rect width="39.1346" height="30" fill="white"/>
</clipPath>
</defs>
</svg>
