<svg width="82" height="63" viewBox="0 0 82 63" fill="none" xmlns="http://www.w3.org/2000/svg">
<g clip-path="url(#clip0_1_639)">
<path d="M55.6699 23.0596L57.0399 32.9596L72.2599 33.4796L74.2699 23.4196L69.7599 26.4196L65.4499 26.8596L59.5599 23.4396L57.5399 23.0596H55.6799H55.6699Z" fill="#F29C49"/>
<path d="M52.51 62.4C51.88 62.4 51.33 62.18 50.92 61.76C50.47 61.31 50.29 60.76 50.4 60.17L50.57 59.22L49.82 59.05C49.43 58.96 49.06 58.88 48.69 58.81C44.71 58 40.07 57.57 35.3 57.57C30.53 57.57 25.89 58 21.91 58.81C18.03 59.6 14.93 60.69 12.95 61.98C12.52 62.26 12.03 62.4 11.53 62.4H11.37C11.24 62.4 11.1 62.37 10.96 62.34C10.27 62.19 9.69 61.78 9.3 61.18C8.51 59.94 8.87 58.29 10.1 57.5C12.61 55.87 16.34 54.52 20.88 53.6C24.23 52.92 28.03 52.48 31.89 52.31L32.66 52.28V45.77H2.07C0.93 45.77 0 44.83 0 43.68V2.09C0 0.94 0.93 0 2.07 0H63.15C64.29 0 65.22 0.94 65.22 2.09V4.26H70.97C72.98 4.26 74.65 6.19 74.77 8.65L74.81 9.42H76.45C76.6 9.42 76.75 9.49 76.85 9.61C76.95 9.73 77 9.89 76.97 10.05L76.11 15.4L77.04 15.42C79.08 15.46 80.28 15.84 80.94 16.64C81.24 17.01 81.55 17.65 81.34 18.63L79.41 27.49C79.03 29.24 76.64 29.98 74.89 30.52L72.94 31.12L73.52 31.41L72.55 37.43H73.68C74.74 37.43 75.63 38.11 75.8 39.05L79.49 60.17C79.59 60.76 79.41 61.32 78.97 61.76C78.55 62.18 78 62.4 77.38 62.4H52.52H52.51ZM33.18 53.34C28.93 53.45 24.74 53.9 21.06 54.65C16.65 55.55 13.05 56.84 10.64 58.4C10.29 58.63 10.04 58.99 9.95 59.4C9.86 59.82 9.94 60.24 10.16 60.6C10.39 60.96 10.74 61.2 11.15 61.3C11.26 61.32 11.37 61.34 11.49 61.34C11.79 61.34 12.08 61.25 12.34 61.09C14.44 59.73 17.66 58.59 21.67 57.77C25.73 56.95 30.43 56.51 35.27 56.51C40.11 56.51 44.82 56.95 48.87 57.77C49.21 57.84 49.56 57.92 49.9 57.99L50.73 58.18L51.28 55.05L50.53 54.88C50.19 54.8 49.85 54.73 49.5 54.66C45.82 53.91 41.63 53.46 37.38 53.35H36.86V45.77H33.69V53.33H33.17L33.18 53.34ZM56.01 38.54C55.64 38.59 55.42 38.77 55.34 38.85L55.16 39.03L51.36 60.76L51.7 61.06C51.91 61.25 52.18 61.34 52.5 61.34H77.36C77.69 61.34 77.97 61.24 78.18 61.05L78.5 60.75L74.7 39.02H74.15L74.27 38.66C74.19 38.62 73.98 38.52 73.67 38.52H56.01V38.54ZM37.92 52.32H38.22L38.7 52.34C42.56 52.5 46.37 52.95 49.71 53.63C50.02 53.69 51.16 53.95 51.16 53.95L51.47 54.02L52.91 45.8H37.93V52.33L37.92 52.32ZM1.06 43.67C1.06 44.22 1.52 44.68 2.07 44.68H53.1L53.92 40.03H1.06V43.67ZM2.07 1.07C1.52 1.07 1.06 1.53 1.06 2.08V38.96H54.05L54.28 38.53C54.64 37.86 55.38 37.44 56.2 37.44H57.31L52.89 10.06C52.87 9.9 52.91 9.74 53.01 9.62C53.11 9.5 53.26 9.43 53.41 9.43H55.05L55.09 8.66C55.21 6.2 56.88 4.27 58.89 4.27H64.16V2.09C64.16 1.54 63.7 1.08 63.15 1.08H2.07V1.07ZM58.38 37.44H71.47L72.07 33.69H57.77L58.37 37.44H58.38ZM57.6 32.62H72.25L73.5 24.85L71.98 25.83C70.06 27.06 68.41 27.66 66.95 27.66C65.38 27.66 64.02 26.99 62.33 25.9C60.9 24.98 59.42 24.03 57.18 23.95L56.2 23.92L57.6 32.62ZM73.78 29.76L75.03 29.36C77.25 28.65 78.18 28.06 78.35 27.27L80.28 18.41C80.32 18.24 80.43 17.73 80.1 17.34C79.78 16.95 79.1 16.51 76.6 16.5H75.91L73.77 29.76H73.78ZM57.09 22.87C59.66 22.92 61.37 24.02 62.88 24.99C64.15 25.81 65.34 26.58 66.93 26.58C68.71 26.58 70.74 25.6 73.51 23.4L73.76 23.2L75.81 10.51H54.03L56.03 22.88H57.1L57.09 22.87ZM58.88 5.33C57.47 5.33 56.3 6.71 56.14 8.54L56.07 9.42H73.77L73.7 8.54C73.55 6.71 72.37 5.33 70.96 5.33H58.88ZM71.35 55.34V53.23H72.41V55.34H71.35ZM66.72 55.34V53.23H67.78V55.34H66.72ZM62.09 55.34V53.23H63.15V55.34H62.09ZM57.46 55.34V53.23H58.52V55.34H57.46Z" fill="#19486D"/>
</g>
<defs>
<clipPath id="clip0_1_639">
<rect width="81.4" height="62.4" fill="white"/>
</clipPath>
</defs>
</svg>
