<svg width="61" height="61" viewBox="0 0 61 61" fill="none" xmlns="http://www.w3.org/2000/svg">
<g clip-path="url(#clip0_2544_2272)">
<path d="M12 7.5L21 5.5L26 14.5L31 10L35.5 14.5L40 5.5L49 8.5L48 59.5L12 60.5V7.5Z" fill="white"/>
<path d="M30.5 9.5L24 1L21 5L26.5 14L30.5 10.5L35.5 14L40 5L37 1L30.5 9.5Z" fill="#F29C49" stroke="black"/>
<path d="M12.3603 61C11.8584 61 11.4797 60.6214 11.4797 60.1195V31.2145L0.6722 29.173C0.483521 29.1415 0.2722 28.9868 0.133835 28.778C-0.00201378 28.5755 -0.0347182 28.3466 0.0369799 28.1001L0.0445271 28.0711C0.191697 27.4837 3.8483 14.2764 4.60176 12.084C4.95145 11.0614 6.09987 9.94948 7.92503 8.86523C9.58163 7.8816 11.2496 7.24513 11.8093 7.04262H12.0911L12.2244 6.91055L20.7879 4.73324L22.876 0.555963L23.237 0.194965L23.2533 0.187418C23.2848 0.171066 23.315 0.155972 23.3414 0.140878H23.5036L23.5741 0.0704388H23.715L23.7854 0H37.2747C37.4043 0.0729545 37.5313 0.108174 37.637 0.124526C37.7099 0.179871 37.8043 0.238989 37.9213 0.284271L38.1275 0.494329H38.1288L40.2143 4.66406L48.7376 6.83131C48.8546 6.90426 48.998 6.95835 49.1854 6.97093C49.7376 7.16966 51.4131 7.80864 53.0785 8.79605C54.9037 9.87904 56.0533 10.9922 56.4018 12.0123C57.0169 13.7997 59.6332 23.1719 60.6018 26.6875L60.5816 26.6837L60.9665 28.0296C61.037 28.2761 61.0043 28.5051 60.8697 28.7076L60.8395 28.7529L60.8156 28.8019C60.7376 28.9579 60.564 29.0686 60.3514 29.0988L60.3275 29.1025L49.6634 31.2207V60.1195C49.6634 60.6214 49.2848 61 48.7829 61H12.3603ZM13.2408 8.4363V59.2403H47.9678V8.4363L40.2068 6.47534L35.9326 14.9481L35.9213 14.9733C35.8408 15.162 35.6332 15.3116 35.398 15.3557H35.1816C34.8911 15.3557 34.7036 15.2877 34.5364 15.1204L30.603 11.1872L26.7062 15.0827C26.4672 15.2664 26.2445 15.3557 26.0244 15.3557H25.8055C25.6898 15.3343 25.4596 15.2601 25.2496 14.9016L20.998 6.47534L13.2395 8.4363H13.2408ZM10.1477 9.66647C9.14138 10.1495 6.75396 11.3972 6.32252 12.5457L6.31119 12.5758C5.70868 14.3834 3.13635 23.563 2.28226 26.6359L2.03069 27.5403L11.4068 29.5051V9.06145L10.1452 9.66647H10.1477ZM49.5879 29.5063L58.964 27.5416L58.7125 26.6372C56.4558 18.5153 55.1024 13.7897 54.6886 12.5897C54.6005 12.2916 54.2797 11.4513 50.8747 9.6803L49.5879 9.01114V29.5063ZM22.364 5.53322L26.2118 13.1406L29.3728 9.97967L23.8332 2.59366L22.364 5.53196V5.53322ZM31.6923 9.90671L34.8558 13.0702L38.7125 5.44391L38.076 4.27664L37.2395 2.60246L31.6923 9.90546V9.90671ZM30.5338 8.62246L35.6005 1.83141H25.4684L30.5351 8.62246H30.5338Z" fill="#19486D"/>
</g>
<defs>
<clipPath id="clip0_2544_2272">
<rect width="61" height="61" fill="white"/>
</clipPath>
</defs>
</svg>
