<svg width="30" height="30" viewBox="0 0 30 30" fill="none" xmlns="http://www.w3.org/2000/svg">
<g clip-path="url(#clip0_2656_16384)">
<path d="M15.0501 4.73748L11.5931 0.515625L10.5352 2.49741L12.7206 6.97258L15.06 4.73748L17.3299 7.05205L19.5153 2.60668L18.2885 0.515625L15.06 4.73748H15.0501Z" fill="#F29C49"/>
<path d="M15.06 4.73748L12.7206 6.97258L10.5352 2.49741L11.5931 0.515625L15.0501 4.73748H15.06ZM15.06 4.73748L17.3299 7.05205L19.5153 2.60668L18.2885 0.515625L15.06 4.73748Z" stroke="black" stroke-width="0.5"/>
<path d="M5.99042 30C5.82155 30 5.70234 29.8808 5.70234 29.7119V15.2334L0.213933 14.1954C0.164264 14.1854 0.0947275 14.1407 0.0450586 14.0613C0.000356626 13.9967 -0.00957715 13.9272 0.0152573 13.8477C0.0947275 13.5348 1.91261 6.97351 2.28016 5.90066C2.44407 5.42881 2.99042 4.90232 3.86459 4.38079C4.63943 3.91887 5.41923 3.61589 5.74208 3.49669H5.91592L5.99539 3.41722L10.2768 2.32947L11.3497 0.193709L11.4689 0.0794702L11.5235 0.0695364H11.5831L11.6179 0.0347682H11.6874L11.7222 0H18.3232C18.3729 0.0248344 18.4225 0.0397351 18.4772 0.0546358C18.5119 0.0794702 18.5517 0.0993377 18.5914 0.119205L18.6709 0.203642L19.709 2.29967L24.0103 3.39238C24.055 3.42715 24.1494 3.45695 24.2586 3.46689C24.4573 3.54636 25.2967 3.86424 26.1262 4.35099C27.0004 4.87252 27.5517 5.39404 27.7106 5.86589C27.9937 6.68543 29.151 10.8179 29.7321 12.9139L29.7868 13.1474L29.9755 13.8179C30.0004 13.8974 29.9904 13.9669 29.9457 14.0315L29.911 14.096C29.8961 14.1308 29.8464 14.1556 29.7917 14.1606L24.353 15.2384V29.7119C24.353 29.8808 24.2338 30 24.0649 30H5.99042ZM6.2785 3.92384V29.4238H23.8265V3.92384L19.7437 2.89073L17.5682 7.20695C17.5434 7.26656 17.4838 7.31623 17.4093 7.33113H17.3298C17.2106 7.33113 17.161 7.30132 17.1162 7.25662L15.055 5.19536L13.0136 7.23675C12.9341 7.29636 12.8547 7.33113 12.7802 7.33113H12.6709C12.6361 7.32119 12.5765 7.27152 12.5219 7.17715L10.3613 2.8957L6.2785 3.92881V3.92384ZM24.3331 14.6921L29.3249 13.644L29.156 13.043C28.0335 9.00497 27.3629 6.65563 27.1543 6.0596C27.0798 5.80629 26.7917 5.36424 25.1874 4.5298L24.3282 4.08278V14.6921H24.3331ZM4.82817 4.51987C4.18744 4.82781 3.07983 5.43377 2.85632 6.0298C2.55334 6.94371 1.30168 11.399 0.844728 13.043L0.675853 13.644L5.66757 14.6921V4.11755L4.82817 4.51987ZM10.7934 2.60265L12.8298 6.63079L14.6378 4.82285L11.6626 0.859272L10.7934 2.60265ZM15.3977 4.78808L17.2057 6.59603L19.252 2.55298L18.8994 1.90232L18.3778 0.859272L15.3977 4.78311V4.78808ZM15.0202 4.38576L17.8315 0.615894H12.204L15.0153 4.38576H15.0202Z" fill="#19486D"/>
</g>
<defs>
<clipPath id="clip0_2656_16384">
<rect width="30" height="30" fill="white"/>
</clipPath>
</defs>
</svg>
