<svg width="29" height="30" viewBox="0 0 29 30" fill="none" xmlns="http://www.w3.org/2000/svg">
<g clip-path="url(#clip0_2656_16371)">
<ellipse cx="20.6901" cy="23.2751" rx="3.01724" ry="3.01724" fill="#F29C49"/>
<path d="M2.9181 30C2.78879 30 2.68534 29.9009 2.67672 29.7716L1.10776 5.22845H0.241379C0.107759 5.22845 0 5.12069 0 4.98707V2.61207C0 2.47845 0.107759 2.37069 0.241379 2.37069H1.2069L2.71983 0.107759C2.76293 0.0387931 2.84052 0 2.92241 0H18.3621C18.444 0 18.5172 0.0387931 18.5647 0.107759L20.0733 2.37069H21.0388C21.1724 2.37069 21.2802 2.47845 21.2802 2.61207V4.98276C21.2802 5.11638 21.1724 5.22414 21.0388 5.22414H20.1724L19.9397 8.875L21.2069 9.05604C21.2716 9.06466 21.3276 9.09914 21.3664 9.15086C21.4052 9.20259 21.4224 9.26724 21.4138 9.3319L21.3276 9.93534L23.5474 10.0172C23.6121 10.0172 23.6724 10.0474 23.7155 10.0948C23.7586 10.1422 23.7845 10.2026 23.7802 10.2672L23.7112 12.0991L23.8793 12.125L24.1552 10.9784C24.181 10.8707 24.2802 10.7931 24.3922 10.7931C24.4095 10.7931 24.431 10.7931 24.4483 10.8017L27.8491 11.625C27.9138 11.6422 27.9655 11.681 28 11.7328C28.0345 11.7888 28.0431 11.8534 28.0302 11.9138L27.3362 14.7845H28.4612C28.5302 14.7845 28.5948 14.8147 28.6422 14.8621C28.6897 14.9138 28.7112 14.9784 28.7026 15.0474L27.7284 25.569L27.3362 29.7759C27.3233 29.9009 27.2198 29.9957 27.0948 29.9957H2.9181V30ZM3.14655 29.5172H13.8578L13.3017 23.5172H2.76293L3.14655 29.5172ZM14.3448 29.5172H26.875L27.2198 25.7931H22.9828L22.9569 25.819C22.3233 26.4353 21.4871 26.7759 20.6078 26.7759C19.7284 26.7759 18.8966 26.4353 18.2586 25.819L18.2328 25.7931H13.9957L14.3405 29.5172H14.3448ZM20.6078 20.5345C19.8147 20.5345 19.0474 20.8664 18.5086 21.444C18 21.9784 17.7198 22.6767 17.7198 23.4181C17.7198 24.1595 18 24.8578 18.5043 25.3879C18.5905 25.4785 18.681 25.5603 18.7759 25.6379C19.306 26.069 19.9353 26.2931 20.6034 26.2931C21.4052 26.2931 22.1509 25.9698 22.7026 25.3879C23.1465 24.9181 23.4138 24.3319 23.4741 23.6897C23.4828 23.5991 23.4871 23.5086 23.4871 23.4138C23.4871 22.6767 23.2069 21.9741 22.7026 21.444C22.1638 20.8664 21.3965 20.5345 20.6034 20.5345H20.6078ZM23.4871 21.6681C23.5647 21.7974 23.6207 21.9052 23.6681 22.0129L23.7112 22.1034C23.7629 22.2284 23.8147 22.3578 23.8491 22.4871C23.8922 22.6466 23.9181 22.7716 23.9353 22.8922L23.9526 23C23.9698 23.1379 23.9828 23.2759 23.9828 23.4181C23.9828 23.5603 23.9698 23.6983 23.9526 23.8362L23.9397 23.9397C23.9181 24.069 23.8965 24.1897 23.8621 24.3103L23.8534 24.3534C23.8147 24.4828 23.7672 24.6121 23.7155 24.7371L23.6853 24.8017C23.625 24.9353 23.569 25.0388 23.5086 25.1379L23.431 25.2672L23.556 25.3147H27.1897L27.1078 25.2543L27.2759 25.2371L27.6207 21.5216H23.4052L23.4914 21.6638L23.4871 21.6681ZM13.9526 25.3147H17.8147L17.7371 25.1853L17.7112 25.1379C17.6509 25.0388 17.5991 24.9353 17.5474 24.8276L17.5043 24.7328C17.4526 24.6078 17.4009 24.4828 17.3664 24.3491C17.3233 24.1853 17.2974 24.0647 17.2802 23.944L17.2629 23.8362C17.2457 23.6983 17.2328 23.5603 17.2328 23.4224C17.2328 23.2845 17.2457 23.1422 17.2629 23.0043L17.2802 22.8966C17.3017 22.7759 17.3233 22.6552 17.3578 22.5345L17.3664 22.4914C17.4052 22.3621 17.4526 22.2328 17.5043 22.1078L17.5345 22.0388C17.5948 21.9052 17.6509 21.8017 17.7112 21.7026L17.7888 21.5733L17.6638 21.5259H13.5991L13.9526 25.319V25.3147ZM2.72845 23.0345H13.2586L12.5172 15.056C12.5129 14.9871 12.5345 14.9224 12.5776 14.8707C12.625 14.819 12.6897 14.7931 12.7586 14.7931H13.6681L13.3017 11.7198H2.00862L2.73276 23.0388L2.72845 23.0345ZM20.6078 20.0517C21.4741 20.0517 22.3319 20.4009 22.9569 21.0129L22.9828 21.0388H27.5819L27.694 21.0948L27.6681 20.9612L28.194 15.2759H24.6853L24.6767 15.3534C24.5905 16.2974 24.1422 17.1552 23.4138 17.7672C23.2328 17.9181 23.0388 18.0474 22.8362 18.1595C22.306 18.4483 21.7112 18.5991 21.1164 18.5991H20.0948C20.0129 18.5991 19.931 18.5991 19.8491 18.5905L19.6983 18.5776C18.9009 18.4871 18.1465 18.125 17.569 17.5603C17.4957 17.4828 17.4224 17.4052 17.3534 17.3233L17.2629 17.2026C17.2284 17.1595 17.194 17.1164 17.1638 17.069C17.1465 17.0474 17.069 16.9224 17.069 16.9224C17.0431 16.8836 17.0172 16.8448 16.9957 16.806C16.9784 16.7759 16.9095 16.6422 16.9095 16.6422C16.8879 16.6034 16.8707 16.5647 16.8534 16.5259C16.8405 16.5 16.7974 16.3966 16.7974 16.3966L16.7759 16.3491C16.7586 16.3147 16.7457 16.2759 16.7328 16.2414C16.7198 16.2069 16.7112 16.1724 16.6983 16.1379C16.6681 16.0474 16.6509 15.9957 16.6379 15.944C16.6293 15.9138 16.5948 15.7457 16.5948 15.7457C16.5862 15.7112 16.5776 15.6724 16.5733 15.6379C16.569 15.6078 16.5517 15.4914 16.5517 15.4914C16.5388 15.4181 16.5345 15.3879 16.5345 15.3578L16.5259 15.2802H13.0172L13.5517 21.0431H18.2284L18.2543 21.0172C18.8793 20.4052 19.7328 20.056 20.6034 20.056L20.6078 20.0517ZM20.1422 18.1164H21.1164C21.6293 18.1164 22.1465 17.9828 22.6034 17.7328C22.7241 17.6681 22.8362 17.5905 22.944 17.5129L22.9784 17.4871L23.0215 17.4138L23.0991 15.3664L23.2845 10.5L21.2586 10.4224L20.1466 18.1164H20.1422ZM17.0172 15.2629V15.3362L17.0302 15.4052C17.0345 15.4526 17.0431 15.5 17.0474 15.5474L17.056 15.5905C17.0733 15.6767 17.0862 15.7457 17.1034 15.8147L17.1164 15.8621C17.1379 15.9353 17.1595 16.0043 17.181 16.0733L17.1983 16.1207C17.2241 16.1897 17.25 16.2543 17.2802 16.319L17.3147 16.3879C17.3491 16.4612 17.375 16.5086 17.4052 16.5603L17.4828 16.6853C17.5043 16.7198 17.5259 16.7543 17.5517 16.7888C17.5733 16.819 17.5948 16.8448 17.6164 16.875C17.6164 16.875 17.6983 16.9828 17.7155 17.0043C17.7759 17.0733 17.8362 17.1422 17.9009 17.2069C18 17.306 18.1121 17.3966 18.2414 17.4957L18.2759 17.5216C18.3922 17.6035 18.5086 17.6767 18.6336 17.7414L18.694 17.7716C18.8147 17.8319 18.9397 17.8879 19.069 17.931L19.1379 17.9526C19.2672 17.9957 19.3966 18.0302 19.5302 18.0517L19.6164 18.069L19.6552 17.9828L20.7845 10.181L20.7931 10.125L20.8836 9.49138L17.8966 9.06466L17.0043 15.25L17.0172 15.2629ZM23.5819 15.3879L23.5215 16.9741L23.6897 16.7198C23.7802 16.5819 23.8448 16.4698 23.9009 16.3534C23.9698 16.2112 24.0172 16.0862 24.056 15.9569C24.0647 15.931 24.0733 15.9009 24.0776 15.875C24.1121 15.75 24.1336 15.6509 24.1509 15.5517L24.1724 15.4353C24.1897 15.2974 24.2026 15.1638 24.2026 15.0259C24.2026 14.8879 24.3103 14.7845 24.444 14.7845H26.8319L27.4957 12.0345L24.5647 11.3276L23.5776 15.3879H23.5819ZM13.6853 10.8664L14.1509 14.7888H16.5948L16.9181 12.5431L16.681 10.5129L13.6897 10.8664H13.6853ZM1.96983 11.2284H13.25L13.1853 10.681C13.1767 10.6164 13.194 10.556 13.2371 10.5043C13.2759 10.4526 13.3362 10.4224 13.4009 10.4138C13.4009 10.4138 16.8793 10 16.8836 10C17 10 17.0819 10.0517 17.1207 10.1336L17.2457 10.3836L17.4784 8.76293C17.4957 8.64224 17.5948 8.55604 17.7155 8.55604L19.4655 8.80604L19.694 5.22845H1.59483L1.97845 11.2284H1.96983ZM0.482759 4.74138H20.7974V2.85345H0.482759V4.74138ZM1.78879 2.37069H19.4957L18.2328 0.482759H3.05172L1.78879 2.37069Z" fill="#19486D"/>
</g>
<defs>
<clipPath id="clip0_2656_16371">
<rect width="28.7069" height="30" fill="white"/>
</clipPath>
</defs>
</svg>
