<svg width="67" height="70" viewBox="0 0 67 70" fill="none" xmlns="http://www.w3.org/2000/svg">
<g clip-path="url(#clip0_2544_2685)">
<path d="M6.77 69.6C6.47 69.6 6.23 69.37 6.21 69.07L2.57 12.13H0.56C0.25 12.13 0 11.88 0 11.57V6.06C0 5.75 0.25 5.5 0.56 5.5H2.8L6.31 0.25C6.41 0.09 6.59 0 6.78 0H42.6C42.79 0 42.96 0.09 43.07 0.25L46.57 5.5H48.81C49.12 5.5 49.37 5.75 49.37 6.06V11.56C49.37 11.87 49.12 12.12 48.81 12.12H46.8L46.26 20.59L49.2 21.01C49.35 21.03 49.48 21.11 49.57 21.23C49.66 21.35 49.7 21.5 49.68 21.65L49.48 23.05L54.63 23.24C54.78 23.24 54.92 23.31 55.02 23.42C55.12 23.53 55.18 23.67 55.17 23.82L55.01 28.07L55.4 28.13L56.04 25.47C56.1 25.22 56.33 25.04 56.59 25.04C56.63 25.04 56.68 25.04 56.72 25.06L64.61 26.97C64.76 27.01 64.88 27.1 64.96 27.22C65.04 27.35 65.06 27.5 65.03 27.64L63.42 34.3H66.03C66.19 34.3 66.34 34.37 66.45 34.48C66.56 34.6 66.61 34.75 66.59 34.91L64.33 59.32L63.42 69.08C63.39 69.37 63.15 69.59 62.86 69.59H6.77V69.6ZM7.3 68.48H32.15L30.86 54.56H6.41L7.3 68.48ZM33.28 68.48H62.35L63.15 59.84H53.32L53.26 59.9C51.79 61.33 49.85 62.12 47.81 62.12C45.77 62.12 43.84 61.33 42.36 59.9L42.3 59.84H32.47L33.27 68.48H33.28ZM47.81 47.64C45.97 47.64 44.19 48.41 42.94 49.75C41.76 50.99 41.11 52.61 41.11 54.33C41.11 56.05 41.76 57.67 42.93 58.9C43.13 59.11 43.34 59.3 43.56 59.48C44.79 60.48 46.25 61 47.8 61C49.66 61 51.39 60.25 52.67 58.9C53.7 57.81 54.32 56.45 54.46 54.96C54.48 54.75 54.49 54.54 54.49 54.32C54.49 52.61 53.84 50.98 52.67 49.75C51.42 48.41 49.64 47.64 47.8 47.64H47.81ZM54.49 50.27C54.67 50.57 54.8 50.82 54.91 51.07L55.01 51.28C55.13 51.57 55.25 51.87 55.33 52.17C55.43 52.54 55.49 52.83 55.53 53.11L55.57 53.36C55.61 53.68 55.64 54 55.64 54.33C55.64 54.66 55.61 54.98 55.57 55.3L55.54 55.54C55.49 55.84 55.44 56.12 55.36 56.4L55.34 56.5C55.25 56.8 55.14 57.1 55.02 57.39L54.95 57.54C54.81 57.85 54.68 58.09 54.54 58.32L54.36 58.62L54.65 58.73H63.08L62.89 58.59L63.28 58.55L64.08 49.93H54.3L54.5 50.26L54.49 50.27ZM32.37 58.73H41.33L41.15 58.43L41.09 58.32C40.95 58.09 40.83 57.85 40.71 57.6L40.61 57.38C40.49 57.09 40.37 56.8 40.29 56.49C40.19 56.11 40.13 55.83 40.09 55.55L40.05 55.3C40.01 54.98 39.98 54.66 39.98 54.34C39.98 54.02 40.01 53.69 40.05 53.37L40.09 53.12C40.14 52.84 40.19 52.56 40.27 52.28L40.29 52.18C40.38 51.88 40.49 51.58 40.61 51.29L40.68 51.13C40.82 50.82 40.95 50.58 41.09 50.35L41.27 50.05L40.98 49.94H31.55L32.37 58.74V58.73ZM6.33 53.44H30.76L29.04 34.93C29.03 34.77 29.08 34.62 29.18 34.5C29.29 34.38 29.44 34.32 29.6 34.32H31.71L30.86 27.19H4.66L6.34 53.45L6.33 53.44ZM47.81 46.52C49.82 46.52 51.81 47.33 53.26 48.75L53.32 48.81H63.99L64.25 48.94L64.19 48.63L65.41 35.44H57.27L57.25 35.62C57.05 37.81 56.01 39.8 54.32 41.22C53.9 41.57 53.45 41.87 52.98 42.13C51.75 42.8 50.37 43.15 48.99 43.15H46.62C46.43 43.15 46.24 43.15 46.05 43.13L45.7 43.1C43.85 42.89 42.1 42.05 40.76 40.74C40.59 40.56 40.42 40.38 40.26 40.19L40.05 39.91C39.97 39.81 39.89 39.71 39.82 39.6C39.78 39.55 39.6 39.26 39.6 39.26C39.54 39.17 39.48 39.08 39.43 38.99C39.39 38.92 39.23 38.61 39.23 38.61C39.18 38.52 39.14 38.43 39.1 38.34C39.07 38.28 38.97 38.04 38.97 38.04L38.92 37.93C38.88 37.85 38.85 37.76 38.82 37.68C38.79 37.6 38.77 37.52 38.74 37.44C38.67 37.23 38.63 37.11 38.6 36.99C38.58 36.92 38.5 36.53 38.5 36.53C38.48 36.45 38.46 36.36 38.45 36.28C38.44 36.21 38.4 35.94 38.4 35.94C38.37 35.77 38.36 35.7 38.36 35.63L38.34 35.45H30.2L31.44 48.82H42.29L42.35 48.76C43.8 47.34 45.78 46.53 47.8 46.53L47.81 46.52ZM46.73 42.03H48.99C50.18 42.03 51.38 41.72 52.44 41.14C52.72 40.99 52.98 40.81 53.23 40.63L53.31 40.57L53.41 40.4L53.59 35.65L54.02 24.36L49.32 24.18L46.74 42.03H46.73ZM39.48 35.41V35.58L39.51 35.74C39.52 35.85 39.54 35.96 39.55 36.07L39.57 36.17C39.61 36.37 39.64 36.53 39.68 36.69L39.71 36.8C39.76 36.97 39.81 37.13 39.86 37.29L39.9 37.4C39.96 37.56 40.02 37.71 40.09 37.86L40.17 38.02C40.25 38.19 40.31 38.3 40.38 38.42L40.56 38.71C40.61 38.79 40.66 38.87 40.72 38.95C40.77 39.02 40.82 39.08 40.87 39.15C40.87 39.15 41.06 39.4 41.1 39.45C41.24 39.61 41.38 39.77 41.53 39.92C41.76 40.15 42.02 40.36 42.32 40.59L42.4 40.65C42.67 40.84 42.94 41.01 43.23 41.16L43.37 41.23C43.65 41.37 43.94 41.5 44.24 41.6L44.4 41.65C44.7 41.75 45 41.83 45.31 41.88L45.51 41.92L45.6 41.72L48.22 23.62L48.24 23.49L48.45 22.02L41.52 21.03L39.45 35.38L39.48 35.41ZM54.71 35.7L54.57 39.38L54.96 38.79C55.17 38.47 55.32 38.21 55.45 37.94C55.61 37.61 55.72 37.32 55.81 37.02C55.83 36.96 55.85 36.89 55.86 36.83C55.94 36.54 55.99 36.31 56.03 36.08L56.08 35.81C56.12 35.49 56.15 35.18 56.15 34.86C56.15 34.54 56.4 34.3 56.71 34.3H62.25L63.79 27.92L56.99 26.28L54.7 35.7H54.71ZM31.75 25.21L32.83 34.31H38.5L39.25 29.1L38.7 24.39L31.76 25.21H31.75ZM4.57 26.05H30.74L30.59 24.78C30.57 24.63 30.61 24.49 30.71 24.37C30.8 24.25 30.94 24.18 31.09 24.16C31.09 24.16 39.16 23.2 39.17 23.2C39.44 23.2 39.63 23.32 39.72 23.51L40.01 24.09L40.55 20.33C40.59 20.05 40.82 19.85 41.1 19.85L45.16 20.43L45.69 12.13H3.7L4.59 26.05H4.57ZM1.12 11H48.25V6.62H1.12V11ZM4.15 5.5H45.23L42.3 1.12H7.08L4.15 5.5Z" fill="#19486D"/>
</g>
<defs>
<clipPath id="clip0_2544_2685">
<rect width="66.6" height="69.6" fill="white"/>
</clipPath>
</defs>
</svg>
