<svg width="33" height="30" viewBox="0 0 33 30" fill="none" xmlns="http://www.w3.org/2000/svg">
<g clip-path="url(#clip0_2656_16772)">
<path d="M25.2508 13.0156L23.5 13.8972L29.9832 25.874C30.2161 26.1692 30.8607 26.6475 31.5593 26.2274C32.2621 25.8033 31.8504 24.8759 31.5593 24.4684L25.2508 13.0198V13.0156Z" fill="#F29C49"/>
<path d="M7.09017 12.9258L8.75361 13.7575L1.89195 26.4412L0.228516 25.6095L7.09017 12.9258Z" fill="#F29C49"/>
<path d="M5.14373 27.2585C5.02729 27.2585 4.93164 27.1629 4.93164 27.0423V23.757C4.93164 23.6406 5.02729 23.5449 5.14373 23.5449C5.20195 23.5449 5.25601 23.5657 5.29344 23.6073C5.33086 23.6489 5.35582 23.7029 5.35582 23.757V27.0423C5.35582 27.1587 5.26017 27.2585 5.14373 27.2585Z" fill="#19486D"/>
<path d="M7.33513 27.2585C7.21869 27.2585 7.12305 27.1629 7.12305 27.0423V23.757C7.12305 23.6406 7.21869 23.5449 7.33513 23.5449C7.3892 23.5449 7.44742 23.5699 7.48484 23.6073C7.52643 23.6489 7.54722 23.7029 7.54722 23.757V27.0423C7.54722 27.1587 7.45157 27.2585 7.33513 27.2585Z" fill="#19486D"/>
<path d="M9.52752 21.7817C9.41108 21.7817 9.31543 21.6861 9.31543 21.5696V18.2844C9.31543 18.1679 9.41108 18.0723 9.52752 18.0723C9.58158 18.0723 9.6398 18.0972 9.67723 18.1346C9.71465 18.1721 9.73961 18.2303 9.73961 18.2844V21.5696C9.73961 21.6861 9.64396 21.7817 9.52752 21.7817Z" fill="#19486D"/>
<path d="M9.52752 27.2585C9.41108 27.2585 9.31543 27.1629 9.31543 27.0423V23.757C9.31543 23.6406 9.41108 23.5449 9.52752 23.5449C9.58158 23.5449 9.6398 23.5699 9.67723 23.6073C9.71881 23.6489 9.73961 23.7029 9.73961 23.757V27.0423C9.73961 27.1587 9.64396 27.2585 9.52752 27.2585Z" fill="#19486D"/>
<path d="M11.715 21.7817C11.5986 21.7817 11.5029 21.6861 11.5029 21.5696V18.2844C11.5029 18.1679 11.5986 18.0723 11.715 18.0723C11.7691 18.0723 11.8273 18.0972 11.8647 18.1346C11.9022 18.1721 11.9271 18.2303 11.9271 18.2844V21.5696C11.9271 21.6861 11.8315 21.7817 11.715 21.7817Z" fill="#19486D"/>
<path d="M11.715 27.2585C11.5986 27.2585 11.5029 27.1629 11.5029 27.0423V23.757C11.5029 23.6406 11.5986 23.5449 11.715 23.5449C11.7691 23.5449 11.8273 23.5699 11.8647 23.6073C11.9063 23.6489 11.9271 23.7029 11.9271 23.757V27.0423C11.9271 27.1587 11.8315 27.2585 11.715 27.2585Z" fill="#19486D"/>
<path d="M20.4767 21.7817C20.3603 21.7817 20.2646 21.6861 20.2646 21.5696V18.2844C20.2646 18.1679 20.3603 18.0723 20.4767 18.0723C20.5308 18.0723 20.589 18.0972 20.6264 18.1346C20.6639 18.1721 20.6888 18.2303 20.6888 18.2844V21.5696C20.6888 21.6861 20.5932 21.7817 20.4767 21.7817Z" fill="#19486D"/>
<path d="M20.4767 27.2585C20.3603 27.2585 20.2646 27.1629 20.2646 27.0423V23.757C20.2646 23.6406 20.3603 23.5449 20.4767 23.5449C20.5308 23.5449 20.589 23.5699 20.6264 23.6073C20.668 23.6489 20.6888 23.7029 20.6888 23.757V27.0423C20.6888 27.1587 20.5932 27.2585 20.4767 27.2585Z" fill="#19486D"/>
<path d="M22.6681 21.7817C22.5517 21.7817 22.4561 21.6861 22.4561 21.5696V18.2844C22.4561 18.1679 22.5517 18.0723 22.6681 18.0723C22.7222 18.0723 22.7804 18.0972 22.8179 18.1346C22.8553 18.1721 22.8802 18.2303 22.8802 18.2844V21.5696C22.8802 21.6861 22.7846 21.7817 22.6681 21.7817Z" fill="#19486D"/>
<path d="M22.6681 27.2585C22.5517 27.2585 22.4561 27.1629 22.4561 27.0423V23.757C22.4561 23.6406 22.5517 23.5449 22.6681 23.5449C22.7222 23.5449 22.7804 23.5699 22.8179 23.6073C22.8594 23.6489 22.8802 23.7029 22.8802 23.757V27.0423C22.8802 27.1587 22.7846 27.2585 22.6681 27.2585Z" fill="#19486D"/>
<path d="M24.8595 27.2585C24.7431 27.2585 24.6475 27.1629 24.6475 27.0423V23.757C24.6475 23.6406 24.7431 23.5449 24.8595 23.5449C24.9136 23.5449 24.9718 23.5699 25.0093 23.6073C25.0508 23.6489 25.0716 23.7029 25.0716 23.757V27.0423C25.0716 27.1587 24.976 27.2585 24.8595 27.2585Z" fill="#19486D"/>
<path d="M27.047 27.2585C26.9306 27.2585 26.835 27.1629 26.835 27.0423V23.757C26.835 23.6406 26.9306 23.5449 27.047 23.5449C27.1011 23.5449 27.1593 23.5699 27.1968 23.6073C27.2383 23.6489 27.2591 23.7029 27.2591 23.757V27.0423C27.2591 27.1587 27.1635 27.2585 27.047 27.2585Z" fill="#19486D"/>
<path d="M16.0978 21.7817C15.9814 21.7817 15.8857 21.6861 15.8857 21.5696V18.2844C15.8857 18.1679 15.9814 18.0723 16.0978 18.0723C16.156 18.0723 16.2101 18.0931 16.2475 18.1346C16.285 18.1721 16.3099 18.2303 16.3099 18.2844V21.5696C16.3099 21.6861 16.2143 21.7817 16.0978 21.7817Z" fill="#19486D"/>
<path d="M16.0978 27.2585C15.9814 27.2585 15.8857 27.1629 15.8857 27.0423V23.757C15.8857 23.6406 15.9814 23.5449 16.0978 23.5449C16.156 23.5449 16.2101 23.5657 16.2475 23.6073C16.285 23.6489 16.3099 23.7029 16.3099 23.757V27.0423C16.3099 27.1587 16.2143 27.2585 16.0978 27.2585Z" fill="#19486D"/>
<path d="M13.9064 21.7817C13.79 21.7817 13.6943 21.6861 13.6943 21.5696V18.2844C13.6943 18.1679 13.79 18.0723 13.9064 18.0723C13.9605 18.0723 14.0187 18.0972 14.0561 18.1346C14.0936 18.1721 14.1185 18.2303 14.1185 18.2844V21.5696C14.1185 21.6861 14.0229 21.7817 13.9064 21.7817Z" fill="#19486D"/>
<path d="M13.9064 27.2585C13.79 27.2585 13.6943 27.1629 13.6943 27.0423V23.757C13.6943 23.6406 13.79 23.5449 13.9064 23.5449C13.9605 23.5449 14.0187 23.5699 14.0561 23.6073C14.0977 23.6489 14.1185 23.7029 14.1185 23.757V27.0423C14.1185 27.1587 14.0229 27.2585 13.9064 27.2585Z" fill="#19486D"/>
<path d="M18.2853 21.7817C18.1689 21.7817 18.0732 21.6861 18.0732 21.5696V18.2844C18.0732 18.1679 18.1689 18.0723 18.2853 18.0723C18.3394 18.0723 18.3976 18.0972 18.435 18.1346C18.4725 18.1721 18.4974 18.2303 18.4974 18.2844V21.5696C18.4974 21.6861 18.4018 21.7817 18.2853 21.7817Z" fill="#19486D"/>
<path d="M18.2853 27.2585C18.1689 27.2585 18.0732 27.1629 18.0732 27.0423V23.757C18.0732 23.6406 18.1689 23.5449 18.2853 23.5449C18.3394 23.5449 18.3976 23.5699 18.435 23.6073C18.4766 23.6489 18.4974 23.7029 18.4974 23.757V27.0423C18.4974 27.1587 18.4018 27.2585 18.2853 27.2585Z" fill="#19486D"/>
<path d="M3.86748 30C2.92764 30 2.13335 29.3305 2.02523 28.4447L1.82146 26.8187H2.25395L2.4494 28.3906C2.53258 29.0602 3.14389 29.5675 3.86748 29.5675H28.3241C29.0477 29.5675 29.659 29.0602 29.7422 28.3906L29.9958 26.3571L29.896 26.2448C29.8295 26.1699 29.7754 26.0909 29.7297 26.0078L25.6668 18.5556L25.0721 18.7095V21.5706C25.0721 21.687 24.9764 21.7826 24.86 21.7826C24.7436 21.7826 24.6479 21.687 24.6479 21.5706V18.2853C24.6479 18.1688 24.7394 18.0773 24.8558 18.0732L25.4006 18.0566L24.1489 15.761H8.06349L6.81591 18.0441L7.34405 18.0732C7.45634 18.0773 7.54782 18.173 7.54782 18.2853V21.5706C7.54782 21.687 7.45218 21.7826 7.33574 21.7826C7.2193 21.7826 7.12365 21.687 7.12365 21.5706V18.7302L6.52897 18.5764L2.46188 26.0327C2.41614 26.1159 2.35792 26.1949 2.29554 26.2698L1.82146 26.8104L1.80482 26.6648L1.47214 26.7064C1.41808 26.7147 1.36401 26.7147 1.30995 26.7147C1.0438 26.7147 0.785972 26.6357 0.565567 26.4818C0.299418 26.2989 0.112282 26.0244 0.0374272 25.7083C-0.0374272 25.3923 0.00831717 25.0638 0.166343 24.781L1.30995 22.6892L0.44081 15.7943L0.187136 15.761C0.0831716 15.7485 0 15.6571 0 15.5489V12.2637C0 12.1472 0.0956474 12.0516 0.212088 12.0516H1.64264V11.1699C1.64264 10.8456 1.76324 10.5378 1.97533 10.2966L2.17494 10.0721L1.97533 9.84752C1.75908 9.60632 1.64264 9.29859 1.64264 8.97422C1.63848 7.71417 2.16246 6.4957 3.08151 5.63488C3.81758 4.93208 4.27502 3.98808 4.36235 2.97754L4.39562 2.61575H3.50153C3.44746 2.61575 3.38924 2.5908 3.35182 2.55337C3.31439 2.51594 3.28944 2.45772 3.28944 2.40366V1.30995C3.28944 0.960632 3.42667 0.632104 3.67203 0.382589C3.92154 0.137233 4.25007 0 4.59939 0H7.88467C8.23399 0 8.56252 0.137233 8.81203 0.382589C9.06155 0.627946 9.19462 0.960632 9.19462 1.30995V2.40366C9.19462 2.46188 9.17383 2.51594 9.13224 2.55337C9.09482 2.5908 9.0366 2.61575 8.98254 2.61575H8.08844L8.12171 2.97754C8.20904 3.98808 8.66648 4.93208 9.40255 5.63072C9.77682 5.9842 10.0846 6.39174 10.3258 6.84502L10.4713 7.11949L10.7582 6.99473C11.0909 6.84918 11.4403 6.74106 11.7979 6.6662L12.0724 6.61214L12.0599 6.22955C12.0599 5.29387 12.509 4.4081 13.2617 3.85085C13.7732 3.47241 14.3804 3.27696 15.0125 3.27696C15.3077 3.27696 15.603 3.32271 15.8858 3.41004L16.1561 3.49321L16.285 3.23953C16.9587 1.90879 18.3601 1.08539 19.9446 1.08539C21.2545 1.08539 22.4854 1.67591 23.2381 2.66565L23.4336 2.92348L23.6956 2.73219C24.1988 2.37039 24.7935 2.1791 25.4172 2.1791C25.6377 2.1791 25.8539 2.20405 26.0743 2.25395C26.8977 2.44109 27.6047 2.97338 28.008 3.71777C28.4156 4.458 28.4821 5.33962 28.1952 6.13391L28.0496 6.53313L28.4738 6.57887C29.1974 6.65789 29.8669 6.99889 30.3535 7.53951C30.84 8.08012 31.1103 8.78292 31.1103 9.51067C31.1103 10.2384 30.8442 10.9412 30.3576 11.4818L29.8586 12.0391H31.992C32.0502 12.0391 32.1042 12.0599 32.1417 12.1015C32.1833 12.1431 32.2041 12.1971 32.2041 12.2512V15.5365C32.2041 15.6446 32.125 15.7319 32.0169 15.7485L31.8339 15.7735L32.071 15.9814L31.7383 15.9606L30.9024 22.6559L32.0419 24.7436C32.2082 25.0513 32.2456 25.4048 32.15 25.7416C32.0502 26.0785 31.8298 26.3529 31.522 26.5234C31.3307 26.6274 31.1145 26.6856 30.8983 26.6856C30.8442 26.6856 30.7901 26.6856 30.7361 26.6773L30.4075 26.6357L30.183 28.4405C30.0707 29.3263 29.2806 29.9917 28.3366 29.9917H3.86748V30ZM0.536457 24.9806C0.303576 25.4048 0.461603 25.9412 0.889936 26.1741C1.01885 26.2448 1.1644 26.2822 1.30995 26.2822C1.63432 26.2822 1.92958 26.1076 2.08345 25.8248L8.55004 13.9645L7.00305 13.1203L0.536457 24.9806ZM23.7122 13.9021L23.8037 13.9105L23.679 14.0144L30.1081 25.7998C30.262 26.0826 30.5614 26.2614 30.8816 26.2614C30.9107 26.2614 30.944 26.2614 30.9731 26.2573C31.2808 26.224 31.547 26.0327 31.6801 25.7541H31.6842L31.7009 25.7167L31.7258 25.6293C31.7924 25.4048 31.7674 25.1594 31.6551 24.9556L25.1885 13.0954L23.7164 13.898L23.7122 13.9021ZM1.65512 22.0405L5.08179 15.761H0.869143L1.65512 22.0405ZM30.5406 22.0238L31.3224 15.761H27.1264L30.5406 22.0238ZM26.8935 15.3327H31.7632V12.4757H25.3341L26.8935 15.3327ZM7.80982 13.0621L7.85556 13.0954L8.94927 13.6942C9.05323 13.7524 9.09066 13.8813 9.0366 13.9853L8.30053 15.3368H23.9118L23.1633 13.9645C23.1342 13.9146 23.13 13.8564 23.1467 13.8023C23.1633 13.7483 23.2007 13.7025 23.2506 13.6734L24.3485 13.0746L24.1946 12.4799H7.95536L7.80566 13.0663L7.80982 13.0621ZM0.428334 15.3327H5.31051L6.86998 12.4757H0.428334V15.3327ZM21.5747 8.2132C22.0779 8.2132 22.5811 8.28805 23.0635 8.4336C24.6937 8.92847 25.9703 10.1885 26.4818 11.8145L26.5525 12.0474H28.1453C28.8606 12.0474 29.5467 11.7397 30.025 11.2074C30.5032 10.6751 30.7319 9.9598 30.6529 9.24452C30.5739 8.53341 30.1955 7.88467 29.6091 7.46881C29.1808 7.16108 28.6734 6.99889 28.1453 6.99889C27.9581 6.99889 27.7752 7.01968 27.5922 7.06127C27.5797 7.06127 27.5631 7.06543 27.5464 7.06543C27.4716 7.06543 27.4051 7.028 27.3635 6.96562C27.3177 6.89077 27.3219 6.79096 27.3801 6.71611C27.7377 6.27114 27.9332 5.71389 27.9332 5.14001C27.9332 4.458 27.6546 3.80094 27.1639 3.32686C26.6898 2.86942 26.0701 2.61575 25.4089 2.61575C25.3798 2.61575 25.3507 2.61575 25.3216 2.61575C24.6437 2.6407 23.9909 2.94012 23.5376 3.44746C23.496 3.49321 23.4378 3.51816 23.3795 3.51816C23.2839 3.50984 23.2215 3.4641 23.1882 3.40172C22.5853 2.25811 21.3086 1.51788 19.9321 1.51788C18.3352 1.51788 16.9462 2.46604 16.4763 3.87164C16.4555 3.92986 16.4098 3.97976 16.3515 4.00055C16.3266 4.00887 16.3016 4.01719 16.2725 4.01719C16.2393 4.01719 16.206 4.00887 16.1727 3.99224C15.8151 3.8051 15.4159 3.7053 15.0125 3.7053C14.3305 3.7053 13.6984 3.96729 13.2243 4.44552C12.746 4.92376 12.4841 5.55586 12.4841 6.22955V6.56224H12.8167C13.7982 6.56224 14.7546 6.84086 15.5822 7.369C16.4098 7.89714 17.0668 8.64985 17.4785 9.53978L17.674 9.96396L18.0108 9.63959C18.1189 9.53563 18.2312 9.43998 18.3435 9.34433C19.2459 8.61242 20.3854 8.20904 21.5456 8.20488H21.5747V8.2132ZM21.5747 8.64153C20.5018 8.64153 19.4497 9.01164 18.6138 9.68533C17.9942 10.1885 17.5035 10.8456 17.204 11.5858L17.0169 12.0432H26.1325L25.9454 11.5858C25.646 10.8456 25.1594 10.1885 24.5356 9.68533C23.6998 9.01164 22.6476 8.63737 21.5747 8.63737V8.64153ZM12.8126 6.99889C12.1389 6.99889 11.486 7.14028 10.8747 7.41475L10.6169 7.53119L10.6876 7.8015C10.7874 8.18409 10.8373 8.57915 10.8373 8.97422C10.8373 9.29859 10.7167 9.60632 10.5046 9.84752L10.305 10.0721L10.5046 10.2966C10.7208 10.5337 10.8373 10.8456 10.8373 11.1699V12.0516H16.5927L16.6676 11.8187C16.809 11.3737 17.0086 10.9495 17.2623 10.5586L17.3496 10.4256L17.2997 10.2759C17.0169 9.39839 16.4888 8.62906 15.7735 8.05101C15.0956 7.50208 14.2764 7.15276 13.4114 7.04464C13.216 7.01968 13.0122 7.00721 12.8126 7.00721V6.99889ZM2.95259 10.2842C2.46604 10.2842 2.07097 10.6792 2.07097 11.1658V12.0474H10.4048V11.1658C10.4048 10.6792 10.0097 10.2842 9.52315 10.2842H2.95259ZM3.32686 5.99667C2.52426 6.77433 2.06681 7.85972 2.07097 8.97838C2.07097 9.46493 2.46604 9.85999 2.95259 9.85999H9.52315C10.0097 9.85999 10.4048 9.46493 10.4048 8.97838C10.4048 7.86388 9.95148 6.77849 9.14888 6.00083L9.06155 5.9135L9.00333 6.06321V5.90518H3.42251L3.32686 6.00083V5.99667ZM4.799 2.92764C4.7491 3.64708 4.52869 4.35403 4.15858 4.9695L3.85916 5.47269H8.6249L8.32548 4.9695C7.95537 4.34988 7.73496 3.64292 7.68506 2.92764L7.67258 2.73635L7.43554 2.99002V2.61575H4.82395L4.80316 2.92764H4.799ZM4.59523 0.428334C4.10868 0.428334 3.71361 0.823399 3.71361 1.30995V2.19157H8.76213V1.30995C8.76213 0.823399 8.36707 0.428334 7.88051 0.428334H4.59523Z" fill="#19486D"/>
</g>
<defs>
<clipPath id="clip0_2656_16772">
<rect width="32.1916" height="30" fill="white"/>
</clipPath>
</defs>
</svg>
