<svg width="78" height="73" viewBox="0 0 78 73" fill="none" xmlns="http://www.w3.org/2000/svg">
<g clip-path="url(#clip0_1_613)">
<path d="M60.72 31.3L56.51 33.42L72.1 62.22C72.66 62.93 74.21 64.08 75.89 63.07C77.58 62.05 76.59 59.82 75.89 58.84L60.72 31.31V31.3Z" fill="#F29C49"/>
<path d="M17.05 31.08L21.05 33.08L4.55005 63.58L0.550049 61.58L17.05 31.08Z" fill="#F29C49"/>
<path d="M12.3704 65.5501C12.0904 65.5501 11.8604 65.3201 11.8604 65.0301V57.1301C11.8604 56.8501 12.0904 56.6201 12.3704 56.6201C12.5104 56.6201 12.6404 56.6701 12.7304 56.7701C12.8204 56.8701 12.8804 57.0001 12.8804 57.1301V65.0301C12.8804 65.3101 12.6504 65.5501 12.3704 65.5501Z" fill="#19486D"/>
<path d="M17.6399 65.55C17.3599 65.55 17.1299 65.32 17.1299 65.03V57.13C17.1299 56.85 17.3599 56.62 17.6399 56.62C17.7699 56.62 17.9099 56.68 17.9999 56.77C18.0999 56.87 18.1499 57 18.1499 57.13V65.03C18.1499 65.31 17.9199 65.55 17.6399 65.55Z" fill="#19486D"/>
<path d="M22.9104 52.38C22.6304 52.38 22.4004 52.15 22.4004 51.87V43.97C22.4004 43.69 22.6304 43.46 22.9104 43.46C23.0404 43.46 23.1804 43.52 23.2704 43.61C23.3604 43.7 23.4204 43.84 23.4204 43.97V51.87C23.4204 52.15 23.1904 52.38 22.9104 52.38Z" fill="#19486D"/>
<path d="M22.9104 65.5501C22.6304 65.5501 22.4004 65.3201 22.4004 65.0301V57.1301C22.4004 56.8501 22.6304 56.6201 22.9104 56.6201C23.0404 56.6201 23.1804 56.6801 23.2704 56.7701C23.3704 56.8701 23.4204 57.0001 23.4204 57.1301V65.0301C23.4204 65.3101 23.1904 65.5501 22.9104 65.5501Z" fill="#19486D"/>
<path d="M28.1699 52.38C27.8899 52.38 27.6599 52.15 27.6599 51.87V43.97C27.6599 43.69 27.8899 43.46 28.1699 43.46C28.2999 43.46 28.4399 43.52 28.5299 43.61C28.6199 43.7 28.6799 43.84 28.6799 43.97V51.87C28.6799 52.15 28.4499 52.38 28.1699 52.38Z" fill="#19486D"/>
<path d="M28.1699 65.55C27.8899 65.55 27.6599 65.32 27.6599 65.03V57.13C27.6599 56.85 27.8899 56.62 28.1699 56.62C28.2999 56.62 28.4399 56.68 28.5299 56.77C28.6299 56.87 28.6799 57 28.6799 57.13V65.03C28.6799 65.31 28.4499 65.55 28.1699 65.55Z" fill="#19486D"/>
<path d="M49.2405 52.38C48.9605 52.38 48.7305 52.15 48.7305 51.87V43.97C48.7305 43.69 48.9605 43.46 49.2405 43.46C49.3705 43.46 49.5105 43.52 49.6005 43.61C49.6905 43.7 49.7505 43.84 49.7505 43.97V51.87C49.7505 52.15 49.5205 52.38 49.2405 52.38Z" fill="#19486D"/>
<path d="M49.2405 65.5501C48.9605 65.5501 48.7305 65.3201 48.7305 65.0301V57.1301C48.7305 56.8501 48.9605 56.6201 49.2405 56.6201C49.3705 56.6201 49.5105 56.6801 49.6005 56.7701C49.7005 56.8701 49.7505 57.0001 49.7505 57.1301V65.0301C49.7505 65.3101 49.5205 65.5501 49.2405 65.5501Z" fill="#19486D"/>
<path d="M54.51 52.38C54.23 52.38 54 52.15 54 51.87V43.97C54 43.69 54.23 43.46 54.51 43.46C54.64 43.46 54.78 43.52 54.87 43.61C54.96 43.7 55.02 43.84 55.02 43.97V51.87C55.02 52.15 54.79 52.38 54.51 52.38Z" fill="#19486D"/>
<path d="M54.51 65.55C54.23 65.55 54 65.32 54 65.03V57.13C54 56.85 54.23 56.62 54.51 56.62C54.64 56.62 54.78 56.68 54.87 56.77C54.97 56.87 55.02 57 55.02 57.13V65.03C55.02 65.31 54.79 65.55 54.51 65.55Z" fill="#19486D"/>
<path d="M59.7795 65.5501C59.4995 65.5501 59.2695 65.3201 59.2695 65.0301V57.1301C59.2695 56.8501 59.4995 56.6201 59.7795 56.6201C59.9095 56.6201 60.0495 56.6801 60.1395 56.7701C60.2395 56.8701 60.2895 57.0001 60.2895 57.1301V65.0301C60.2895 65.3101 60.0595 65.5501 59.7795 65.5501Z" fill="#19486D"/>
<path d="M65.0403 65.5501C64.7603 65.5501 64.5303 65.3201 64.5303 65.0301V57.1301C64.5303 56.8501 64.7603 56.6201 65.0403 56.6201C65.1703 56.6201 65.3103 56.6801 65.4003 56.7701C65.5003 56.8701 65.5503 57.0001 65.5503 57.1301V65.0301C65.5503 65.3101 65.3203 65.5501 65.0403 65.5501Z" fill="#19486D"/>
<path d="M38.7099 52.38C38.4299 52.38 38.2 52.15 38.2 51.87V43.97C38.2 43.69 38.4299 43.46 38.7099 43.46C38.8499 43.46 38.98 43.51 39.07 43.61C39.16 43.7 39.22 43.84 39.22 43.97V51.87C39.22 52.15 38.9899 52.38 38.7099 52.38Z" fill="#19486D"/>
<path d="M38.7099 65.55C38.4299 65.55 38.2 65.32 38.2 65.03V57.13C38.2 56.85 38.4299 56.62 38.7099 56.62C38.8499 56.62 38.98 56.67 39.07 56.77C39.16 56.87 39.22 57 39.22 57.13V65.03C39.22 65.31 38.9899 65.55 38.7099 65.55Z" fill="#19486D"/>
<path d="M33.4397 52.38C33.1597 52.38 32.9297 52.15 32.9297 51.87V43.97C32.9297 43.69 33.1597 43.46 33.4397 43.46C33.5697 43.46 33.7097 43.52 33.7997 43.61C33.8897 43.7 33.9497 43.84 33.9497 43.97V51.87C33.9497 52.15 33.7197 52.38 33.4397 52.38Z" fill="#19486D"/>
<path d="M33.4397 65.5501C33.1597 65.5501 32.9297 65.3201 32.9297 65.0301V57.1301C32.9297 56.8501 33.1597 56.6201 33.4397 56.6201C33.5697 56.6201 33.7097 56.6801 33.7997 56.7701C33.8997 56.8701 33.9497 57.0001 33.9497 57.1301V65.0301C33.9497 65.3101 33.7197 65.5501 33.4397 65.5501Z" fill="#19486D"/>
<path d="M43.97 52.38C43.69 52.38 43.46 52.15 43.46 51.87V43.97C43.46 43.69 43.69 43.46 43.97 43.46C44.1 43.46 44.24 43.52 44.33 43.61C44.42 43.7 44.48 43.84 44.48 43.97V51.87C44.48 52.15 44.25 52.38 43.97 52.38Z" fill="#19486D"/>
<path d="M43.97 65.55C43.69 65.55 43.46 65.32 43.46 65.03V57.13C43.46 56.85 43.69 56.62 43.97 56.62C44.1 56.62 44.24 56.68 44.33 56.77C44.43 56.87 44.48 57 44.48 57.13V65.03C44.48 65.31 44.25 65.55 43.97 65.55Z" fill="#19486D"/>
<path d="M9.3 72.14C7.04 72.14 5.13 70.53 4.87 68.4L4.38 64.49H5.42L5.89 68.27C6.09 69.88 7.56 71.1 9.3 71.1H68.11C69.85 71.1 71.32 69.88 71.52 68.27L72.13 63.38L71.89 63.11C71.73 62.93 71.6 62.74 71.49 62.54L61.72 44.62L60.29 44.99V51.87C60.29 52.15 60.06 52.38 59.78 52.38C59.5 52.38 59.27 52.15 59.27 51.87V43.97C59.27 43.69 59.49 43.47 59.77 43.46L61.08 43.42L58.07 37.9H19.39L16.39 43.39L17.66 43.46C17.93 43.47 18.15 43.7 18.15 43.97V51.87C18.15 52.15 17.92 52.38 17.64 52.38C17.36 52.38 17.13 52.15 17.13 51.87V45.04L15.7 44.67L5.92 62.6C5.81 62.8 5.67 62.99 5.52 63.17L4.38 64.47L4.34 64.12L3.54 64.22C3.41 64.24 3.28 64.24 3.15 64.24C2.51 64.24 1.89 64.05 1.36 63.68C0.72 63.24 0.27 62.58 0.09 61.82C-0.09 61.06 0.02 60.27 0.4 59.59L3.15 54.56L1.06 37.98L0.45 37.9C0.2 37.87 0 37.65 0 37.39V29.49C0 29.21 0.23 28.98 0.51 28.98H3.95V26.86C3.95 26.08 4.24 25.34 4.75 24.76L5.23 24.22L4.75 23.68C4.23 23.1 3.95 22.36 3.95 21.58C3.94 18.55 5.2 15.62 7.41 13.55C9.18 11.86 10.28 9.59 10.49 7.16L10.57 6.29H8.42C8.29 6.29 8.15 6.23 8.06 6.14C7.97 6.05 7.91 5.91 7.91 5.78V3.15C7.91 2.31 8.24 1.52 8.83 0.92C9.43 0.33 10.22 0 11.06 0H18.96C19.8 0 20.59 0.33 21.19 0.92C21.79 1.51 22.11 2.31 22.11 3.15V5.78C22.11 5.92 22.06 6.05 21.96 6.14C21.87 6.23 21.73 6.29 21.6 6.29H19.45L19.53 7.16C19.74 9.59 20.84 11.86 22.61 13.54C23.51 14.39 24.25 15.37 24.83 16.46L25.18 17.12L25.87 16.82C26.67 16.47 27.51 16.21 28.37 16.03L29.03 15.9L29 14.98C29 12.73 30.08 10.6 31.89 9.26C33.12 8.35 34.58 7.88 36.1 7.88C36.81 7.88 37.52 7.99 38.2 8.2L38.85 8.4L39.16 7.79C40.78 4.59 44.15 2.61 47.96 2.61C51.11 2.61 54.07 4.03 55.88 6.41L56.35 7.03L56.98 6.57C58.19 5.7 59.62 5.24 61.12 5.24C61.65 5.24 62.17 5.3 62.7 5.42C64.68 5.87 66.38 7.15 67.35 8.94C68.33 10.72 68.49 12.84 67.8 14.75L67.45 15.71L68.47 15.82C70.21 16.01 71.82 16.83 72.99 18.13C74.16 19.43 74.81 21.12 74.81 22.87C74.81 24.62 74.17 26.31 73 27.61L71.8 28.95H76.93C77.07 28.95 77.2 29 77.29 29.1C77.39 29.2 77.44 29.33 77.44 29.46V37.36C77.44 37.62 77.25 37.83 76.99 37.87L76.55 37.93L77.12 38.43L76.32 38.38L74.31 54.48L77.05 59.5C77.45 60.24 77.54 61.09 77.31 61.9C77.07 62.71 76.54 63.37 75.8 63.78C75.34 64.03 74.82 64.17 74.3 64.17C74.17 64.17 74.04 64.17 73.91 64.15L73.12 64.05L72.58 68.39C72.31 70.52 70.41 72.12 68.14 72.12H9.3V72.14ZM1.29 60.07C0.73 61.09 1.11 62.38 2.14 62.94C2.45 63.11 2.8 63.2 3.15 63.2C3.93 63.2 4.64 62.78 5.01 62.1L20.56 33.58L16.84 31.55L1.29 60.07ZM57.02 33.43L57.24 33.45L56.94 33.7L72.4 62.04C72.77 62.72 73.49 63.15 74.26 63.15C74.33 63.15 74.41 63.15 74.48 63.14C75.22 63.06 75.86 62.6 76.18 61.93H76.19L76.23 61.84L76.29 61.63C76.45 61.09 76.39 60.5 76.12 60.01L60.57 31.49L57.03 33.42L57.02 33.43ZM3.98 53L12.22 37.9H2.09L3.98 53ZM73.44 52.96L75.32 37.9H65.23L73.44 52.96ZM64.67 36.87H76.38V30H60.92L64.67 36.87ZM18.78 31.41L18.89 31.49L21.52 32.93C21.77 33.07 21.86 33.38 21.73 33.63L19.96 36.88H57.5L55.7 33.58C55.63 33.46 55.62 33.32 55.66 33.19C55.7 33.06 55.79 32.95 55.91 32.88L58.55 31.44L58.18 30.01H19.13L18.77 31.42L18.78 31.41ZM1.03 36.87H12.77L16.52 30H1.03V36.87ZM51.88 19.75C53.09 19.75 54.3 19.93 55.46 20.28C59.38 21.47 62.45 24.5 63.68 28.41L63.85 28.97H67.68C69.4 28.97 71.05 28.23 72.2 26.95C73.35 25.67 73.9 23.95 73.71 22.23C73.52 20.52 72.61 18.96 71.2 17.96C70.17 17.22 68.95 16.83 67.68 16.83C67.23 16.83 66.79 16.88 66.35 16.98C66.32 16.98 66.28 16.99 66.24 16.99C66.06 16.99 65.9 16.9 65.8 16.75C65.69 16.57 65.7 16.33 65.84 16.15C66.7 15.08 67.17 13.74 67.17 12.36C67.17 10.72 66.5 9.14 65.32 8C64.18 6.9 62.69 6.29 61.1 6.29C61.03 6.29 60.96 6.29 60.89 6.29C59.26 6.35 57.69 7.07 56.6 8.29C56.5 8.4 56.36 8.46 56.22 8.46C55.99 8.44 55.84 8.33 55.76 8.18C54.31 5.43 51.24 3.65 47.93 3.65C44.09 3.65 40.75 5.93 39.62 9.31C39.57 9.45 39.46 9.57 39.32 9.62C39.26 9.64 39.2 9.66 39.13 9.66C39.05 9.66 38.97 9.64 38.89 9.6C38.03 9.15 37.07 8.91 36.1 8.91C34.46 8.91 32.94 9.54 31.8 10.69C30.65 11.84 30.02 13.36 30.02 14.98V15.78H30.82C33.18 15.78 35.48 16.45 37.47 17.72C39.46 18.99 41.04 20.8 42.03 22.94L42.5 23.96L43.31 23.18C43.57 22.93 43.84 22.7 44.11 22.47C46.28 20.71 49.02 19.74 51.81 19.73H51.88V19.75ZM51.88 20.78C49.3 20.78 46.77 21.67 44.76 23.29C43.27 24.5 42.09 26.08 41.37 27.86L40.92 28.96H62.84L62.39 27.86C61.67 26.08 60.5 24.5 59 23.29C56.99 21.67 54.46 20.77 51.88 20.77V20.78ZM30.81 16.83C29.19 16.83 27.62 17.17 26.15 17.83L25.53 18.11L25.7 18.76C25.94 19.68 26.06 20.63 26.06 21.58C26.06 22.36 25.77 23.1 25.26 23.68L24.78 24.22L25.26 24.76C25.78 25.33 26.06 26.08 26.06 26.86V28.98H39.9L40.08 28.42C40.42 27.35 40.9 26.33 41.51 25.39L41.72 25.07L41.6 24.71C40.92 22.6 39.65 20.75 37.93 19.36C36.3 18.04 34.33 17.2 32.25 16.94C31.78 16.88 31.29 16.85 30.81 16.85V16.83ZM7.1 24.73C5.93 24.73 4.98 25.68 4.98 26.85V28.97H25.02V26.85C25.02 25.68 24.07 24.73 22.9 24.73H7.1ZM8 14.42C6.07 16.29 4.97 18.9 4.98 21.59C4.98 22.76 5.93 23.71 7.1 23.71H22.9C24.07 23.71 25.02 22.76 25.02 21.59C25.02 18.91 23.93 16.3 22 14.43L21.79 14.22L21.65 14.58V14.2H8.23L8 14.43V14.42ZM11.54 7.04C11.42 8.77 10.89 10.47 10 11.95L9.28 13.16H20.74L20.02 11.95C19.13 10.46 18.6 8.76 18.48 7.04L18.45 6.58L17.88 7.19V6.29H11.6L11.55 7.04H11.54ZM11.05 1.03C9.88 1.03 8.93 1.98 8.93 3.15V5.27H21.07V3.15C21.07 1.98 20.12 1.03 18.95 1.03H11.05Z" fill="#19486D"/>
</g>
<defs>
<clipPath id="clip0_1_613">
<rect width="77.41" height="72.14" fill="white"/>
</clipPath>
</defs>
</svg>
