<svg width="57" height="39" viewBox="0 0 57 39" fill="none" xmlns="http://www.w3.org/2000/svg">
<path d="M29.6832 20.0944H8.70312V1H17.7139H29.6832V20.0944Z" stroke="#0F4568" stroke-width="0.678975" stroke-miterlimit="10"/>
<path d="M16.1045 9.64408V1H20.8268V9.64408L18.3965 7.2754L16.1045 9.64408Z" fill="#F49E49" stroke="#0F4568" stroke-width="0.678975" stroke-miterlimit="10"/>
<path d="M18.4651 37.5327C20.2267 37.5327 21.6548 36.1046 21.6548 34.343C21.6548 32.5814 20.2267 31.1533 18.4651 31.1533C16.7035 31.1533 15.2754 32.5814 15.2754 34.343C15.2754 36.1046 16.7035 37.5327 18.4651 37.5327Z" stroke="#0F4568" stroke-width="0.678975" stroke-miterlimit="10"/>
<path d="M40.0305 37.5327C41.7921 37.5327 43.2202 36.1046 43.2202 34.343C43.2202 32.5814 41.7921 31.1533 40.0305 31.1533C38.2689 31.1533 36.8408 32.5814 36.8408 34.343C36.8408 36.1046 38.2689 37.5327 40.0305 37.5327Z" stroke="#0F4568" stroke-width="0.678975" stroke-miterlimit="10"/>
<path d="M6.59863 22.0022V33.6088H13.9044C13.9044 33.6088 13.8798 29.7322 18.4653 29.7322C18.4653 29.7322 22.6498 29.6843 22.7606 33.6088H35.3798C35.3798 33.6088 35.5276 29.7322 40.0296 29.7322C40.0296 29.7322 44.8477 29.6104 44.8477 33.6088H54.0884V22.5496L44.3058 4.05176H32.9441V21.875L6.59863 22.0022Z" stroke="#0F4568" stroke-width="0.678975" stroke-miterlimit="10"/>
<path d="M35.75 7.00293V21.0261H49.3285L42.908 7.00293H35.75Z" stroke="#0F4568" stroke-width="0.678975" stroke-miterlimit="10"/>
<path d="M51.4321 29.0711C52.3087 29.0711 53.0194 28.3605 53.0194 27.4838C53.0194 26.6072 52.3087 25.8965 51.4321 25.8965C50.5554 25.8965 49.8447 26.6072 49.8447 27.4838C49.8447 28.3605 50.5554 29.0711 51.4321 29.0711Z" stroke="#0F4568" stroke-width="0.678975" stroke-miterlimit="10"/>
<path d="M55.3155 39.0001H0.733453C0.328412 39.0001 0 38.6717 0 38.2667C0 37.8616 0.328412 37.5332 0.733453 37.5332H55.3142C55.7192 37.5332 56.0476 37.8616 56.0476 38.2667C56.049 38.6717 55.7206 39.0001 55.3155 39.0001Z" fill="#0F4568"/>
</svg>
