<svg width="51" height="39" viewBox="0 0 51 39" fill="none" xmlns="http://www.w3.org/2000/svg">
<path d="M10.7728 37.6648C12.3749 37.6648 13.6736 36.3661 13.6736 34.7641C13.6736 33.162 12.3749 31.8633 10.7728 31.8633C9.17079 31.8633 7.87207 33.162 7.87207 34.7641C7.87207 36.3661 9.17079 37.6648 10.7728 37.6648Z" stroke="#0F4568" stroke-width="0.647332" stroke-miterlimit="10"/>
<path d="M40.9135 37.6648C42.5155 37.6648 43.8142 36.3661 43.8142 34.7641C43.8142 33.162 42.5155 31.8633 40.9135 31.8633C39.3114 31.8633 38.0127 33.162 38.0127 34.7641C38.0127 36.3661 39.3114 37.6648 40.9135 37.6648Z" stroke="#0F4568" stroke-width="0.647332" stroke-miterlimit="10"/>
<path d="M13.6738 34.7646H23.6554" stroke="#0F4568" stroke-width="0.647332" stroke-miterlimit="10"/>
<path d="M27.29 34.7646H38.0121" stroke="#0F4568" stroke-width="0.647332" stroke-miterlimit="10"/>
<path d="M50.305 39H0.667016C0.298664 39 0 38.7014 0 38.333C0 37.9647 0.298664 37.666 0.667016 37.666H50.3037C50.6721 37.666 50.9707 37.9647 50.9707 38.333C50.972 38.7014 50.6733 39 50.305 39Z" fill="#0F4568"/>
<path d="M25.4737 37.6113C24.34 35.8268 23.2275 34.1169 22.1573 32.3797C20.1151 29.0695 18.1614 25.7058 16.6805 22.0994C16.1653 20.8438 15.7298 19.5297 15.461 18.2019C15.069 16.2605 15.4846 14.3678 16.3968 12.6343C18.4289 8.77278 21.6856 6.85885 26.0324 6.99076C30.9417 7.14009 35.0272 11.0513 35.6033 15.9345C35.795 17.556 35.469 19.0717 34.9351 20.5713C33.9296 23.3961 32.5769 26.0604 31.0562 28.6314C29.3364 31.5409 27.512 34.3882 25.7313 37.2616C25.674 37.3562 25.6006 37.4395 25.4737 37.6113Z" stroke="#0F4568" stroke-width="0.647332" stroke-miterlimit="10"/>
<path d="M25.5262 11.8741C22.8955 11.8616 20.699 14.007 20.6779 16.6067C20.6567 19.3282 22.8133 21.5172 25.5237 21.5247C28.1022 21.5321 30.3123 19.3494 30.3322 16.7784C30.3521 14.0655 28.2167 11.8865 25.5262 11.8741Z" fill="#F49E49" stroke="#0F4568" stroke-width="0.647332" stroke-miterlimit="10"/>
<path d="M18.5332 6.98407C18.5332 6.98407 24.4729 2.42323 32.8292 6.98407" stroke="#0F4568" stroke-width="0.647332" stroke-miterlimit="10"/>
<path d="M13.499 4.45455C13.499 4.45455 23.6212 -3.31818 37.8625 4.45455" stroke="#0F4568" stroke-width="0.647332" stroke-miterlimit="10"/>
</svg>
