<svg width="59" height="65" viewBox="0 0 59 65" fill="none" xmlns="http://www.w3.org/2000/svg">
<path d="M58.1212 14.8795C57.4468 14.0967 56.4744 13.6406 55.4635 13.6406H34.5397C33.5182 13.6406 32.547 14.0979 31.8726 14.8795C31.1982 15.6623 30.9002 16.7073 31.0393 17.7439L35.7201 53.3315V62.3496C35.7201 63.8123 36.8806 65.0009 38.3077 65.0009H51.7048C53.133 65.0009 54.2936 63.8123 54.2936 62.3496V53.3315L58.9744 17.7439C59.0947 16.7181 58.7862 15.6719 58.1224 14.8795H58.1212ZM52.8257 62.3496C52.8257 62.9888 52.3102 63.5179 51.685 63.5179H38.2971C37.673 63.5179 37.167 62.99 37.167 62.3496V54.0318H52.835V62.3496H52.8257ZM57.5263 17.55L52.925 52.5379H37.0688L32.4675 17.55C32.388 16.9407 32.5668 16.3315 32.963 15.8634C33.3592 15.3966 33.9249 15.1321 34.5303 15.1321H55.4541C56.0595 15.1321 56.624 15.3966 57.0214 15.8634C57.4176 16.3207 57.6069 16.9407 57.5275 17.55H57.5263Z" fill="#19486D"/>
<path d="M1.00032 31C1.80032 24.6 6.33365 20.6667 8.50032 19.5L21 20C27.8 24 28.8333 30 28.5 32.5V47.5V61.5C29.3 63.5 27.1667 64.3333 26 64.5C19.3333 64.6667 5.4 64.9 3 64.5C0.6 64.1 0.666877 62 1.00032 61C0.666982 53.6667 0.200315 37.4 1.00032 31Z" fill="white"/>
<path d="M21.8062 19.4594V14.31C21.8062 13.447 21.1214 12.7563 20.2892 12.7563H18.8014V10.4605C19.3869 10.4401 19.8521 9.95295 19.8521 9.35326V6.12379H24.1156C26.8224 6.12379 29.1132 3.96083 29.3411 1.19818C29.3703 0.892952 29.2616 0.588918 29.0629 0.365081C28.8549 0.131669 28.5568 0 28.2495 0H10.4426C9.84775 0 9.36156 0.507523 9.36156 1.11679V9.34368C9.36156 9.94337 9.82788 10.4305 10.4122 10.4509V12.7467H9.07405C8.23139 12.7467 7.55703 13.4482 7.55703 14.3004V19.4702C6.54491 20.0388 5.60408 20.6887 4.79064 21.4404C2.06281 23.9589 0.366982 27.3919 0 31.1288V62.4612C0 63.8629 1.1103 65 2.47888 65H26.9031C28.2717 65 29.382 63.8629 29.382 62.4612V31.1288C28.8771 26.1925 26.0604 21.8666 21.8062 19.4594ZM10.8096 1.49264H27.8462C27.4991 3.29052 25.9424 4.64192 24.118 4.64192H19.4875C18.8926 4.64192 18.4064 5.13986 18.4064 5.74913V8.96902H10.819V1.49264H10.8096ZM11.8615 10.4712H17.3557V12.7563H11.8615V10.4712ZM9.07522 14.2394L20.3605 14.31V19.1542H9.01444L9.07405 14.2382L9.07522 14.2394ZM27.9164 62.4612C27.9164 63.0405 27.4606 63.5074 26.8949 63.5074H2.46953C1.90387 63.5074 1.44806 63.0405 1.44806 62.4612V31.2497C1.78466 27.8982 3.31219 24.8112 5.76186 22.556C6.55543 21.8247 7.45769 21.1855 8.45929 20.6468H20.904C24.8508 22.7894 27.4687 26.7503 27.9152 31.209V62.46L27.9164 62.4612Z" fill="#19486D"/>
<path d="M51.1896 22.5166H38.011C36.7418 22.5166 35.7109 23.5723 35.7109 24.8723V33.3326C35.7109 34.6325 36.7418 35.6882 38.011 35.6882H51.1896C52.4589 35.6882 53.4897 34.6325 53.4897 33.3326V24.8723C53.4897 23.5723 52.4589 22.5166 51.1896 22.5166Z" fill="#F29C49"/>
<path d="M51.1896 22.5166H38.011C36.7418 22.5166 35.7109 23.5723 35.7109 24.8723V33.3326C35.7109 34.6325 36.7418 35.6882 38.011 35.6882H51.1896C52.4589 35.6882 53.4897 34.6325 53.4897 33.3326V24.8723C53.4897 23.5723 52.4589 22.5166 51.1896 22.5166ZM52.0428 33.3326C52.0428 33.8102 51.6665 34.2064 51.2002 34.2064H38.011C37.5353 34.2064 37.1578 33.8209 37.1578 33.3326V24.8723C37.1578 24.3947 37.5342 24.0092 38.011 24.0092H51.1896C51.656 24.0092 52.0323 24.3947 52.0323 24.8723V33.3326H52.0428Z" fill="#19486D"/>
<path d="M6.85152 31.4854C5.56241 31.4854 4.51172 32.5614 4.51172 33.8817V47.197C4.51172 48.5173 5.56241 49.5934 6.85152 49.5934H22.4892C23.7783 49.5934 24.829 48.5173 24.829 47.197V33.8817C24.829 32.5614 23.7783 31.4854 22.4892 31.4854H6.85152Z" fill="white"/>
<path d="M6.85152 31.4854C5.56241 31.4854 4.51172 32.5614 4.51172 33.8817V47.197C4.51172 48.5173 5.56241 49.5934 6.85152 49.5934H22.4892C23.7783 49.5934 24.829 48.5173 24.829 47.197V33.8817C24.829 32.5614 23.7783 31.4854 22.4892 31.4854H6.85152ZM23.3833 33.8817V47.197C23.3833 47.7045 22.9871 48.1115 22.4903 48.1115H6.85269C6.35715 48.1115 5.95978 47.7057 5.95978 47.197V33.8817C5.95978 33.3742 6.35715 32.9672 6.85269 32.9672H22.4903C22.9859 32.978 23.3833 33.3838 23.3833 33.8817Z" fill="#19486D"/>
</svg>
