<svg width="28" height="30" viewBox="0 0 28 30" fill="none" xmlns="http://www.w3.org/2000/svg">
<g clip-path="url(#clip0_2656_16388)">
<path d="M10.2634 14.959H3.12101C2.69012 14.959 2.34082 15.3083 2.34082 15.7392V21.6091C2.34082 22.04 2.69012 22.3893 3.12101 22.3893H10.2634C10.6943 22.3893 11.0436 22.04 11.0436 21.6091V15.7392C11.0436 15.3083 10.6943 14.959 10.2634 14.959Z" fill="#F29C49"/>
<path d="M17.6981 29.9996C17.0851 29.9996 16.5882 29.4888 16.5882 28.8619V24.673L14.4148 8.13584C14.3545 7.67609 14.4845 7.22098 14.7817 6.87733C15.0789 6.53367 15.5062 6.33398 15.952 6.33398H25.6672C26.1083 6.33398 26.5356 6.53367 26.8328 6.87733C27.1254 7.22563 27.26 7.68073 27.209 8.13584L25.0356 24.6591V28.8572C25.0356 29.4841 24.5387 29.995 23.9257 29.995H17.7028L17.6981 29.9996ZM17.0758 28.8619C17.0758 29.2101 17.3545 29.4981 17.6935 29.4981H23.9117C24.2043 29.4981 24.4597 29.2845 24.5201 28.9919L24.5294 28.9547H24.534V28.8619V24.9098H17.0712V28.8665L17.0758 28.8619ZM24.5665 24.399L26.7121 8.07083C26.7538 7.75968 26.661 7.44854 26.4566 7.21634C26.2569 6.9795 25.9644 6.84482 25.6579 6.84482H15.9427C15.6362 6.84482 15.3436 6.9795 15.1439 7.21634C14.9443 7.45318 14.8514 7.76432 14.8932 8.07083L17.0387 24.399H24.5665Z" fill="#19486D"/>
<path d="M17.6986 29.9536C17.1135 29.9536 16.6351 29.466 16.6351 28.8623V24.6734L14.4618 8.12699C14.4014 7.68117 14.5314 7.23535 14.8147 6.90563C15.1026 6.57126 15.516 6.38086 15.9478 6.38086H25.663C26.0903 6.38086 26.5036 6.57126 26.7915 6.91027C27.0748 7.24464 27.2048 7.69046 27.1537 8.13163L24.9803 24.6549V28.8623C24.9803 29.466 24.502 29.9536 23.9169 29.9536H17.694H17.6986ZM17.0299 28.8623C17.0299 29.2384 17.3271 29.5449 17.694 29.5449H23.9122C24.2327 29.5449 24.502 29.3127 24.567 29.0016H24.581V28.8623V24.8592H17.0252V28.8623H17.0299ZM15.9432 6.79417C15.6228 6.79417 15.3209 6.93349 15.1073 7.18427C14.8983 7.4304 14.8054 7.75547 14.8472 8.07591L17.002 24.4459H24.6088L26.7636 8.07591C26.8054 7.75547 26.7079 7.4304 26.4943 7.18427C26.2853 6.93814 25.9788 6.79882 25.663 6.79882H15.9478L15.9432 6.79417Z" fill="#19486D"/>
<path d="M1.05882 30C0.473684 30 0 29.5124 0 28.9133V14.3638C0.167183 12.6548 0.947368 11.0851 2.19659 9.93344C2.54025 9.613 2.96749 9.31115 3.4644 9.03251L3.51084 9.00464V6.54799C3.51084 6.19969 3.78483 5.92105 4.12384 5.92105H4.83901V4.67183H4.75077C4.52786 4.66254 4.35139 4.47678 4.35139 4.24923V0.427245C4.35139 0.195046 4.53715 0 4.76006 0H13.0263C13.1424 0 13.2585 0.0510836 13.3328 0.139319C13.4118 0.227554 13.4489 0.343653 13.4396 0.455108C13.3375 1.6904 12.3111 2.65635 11.1037 2.65635H9.03251V4.24923C9.03251 4.47678 8.85604 4.66254 8.63313 4.67183H8.54489V5.9257H9.32972C9.66873 5.9257 9.94272 6.20898 9.94272 6.55263V9L9.98916 9.02786C11.935 10.1285 13.2306 12.1254 13.4628 14.3777V28.918C13.4628 29.517 12.9892 30.0046 12.404 30.0046H1.05882V30ZM3.78947 9.41331C3.32043 9.66409 2.89319 9.97059 2.51703 10.3142C1.36533 11.3777 0.640867 12.8313 0.482972 14.4102V28.9133C0.482972 29.2337 0.73839 29.4938 1.04954 29.4938H12.3947C12.7059 29.4938 12.9613 29.2337 12.9613 28.9133V14.4009C12.7477 12.2879 11.5124 10.4211 9.6548 9.41331L3.80805 9.40402L3.78947 9.41331ZM9.45511 8.89319V6.45975L4.03096 6.42724L4.0031 8.89783H9.45975L9.45511 8.89319ZM8.06192 5.92105V4.67647H5.32663V5.92105H8.06192ZM8.54954 4.16099V2.57276C8.54954 2.34056 8.73065 2.15015 8.95821 2.15015H11.1084C11.9907 2.15015 12.757 1.50464 12.9288 0.613003L12.952 0.501548H4.83901V4.16099H8.54954Z" fill="#19486D"/>
<path d="M1.05926 29.954C0.501983 29.954 0.046875 29.4896 0.046875 28.9138V14.3642C0.214058 12.6785 0.989599 11.1134 2.22489 9.96638C2.56855 9.64595 2.99115 9.34409 3.48341 9.0701L3.55307 9.0283V6.54842C3.55307 6.22799 3.80848 5.96793 4.11963 5.96793H4.88124V4.62582H4.74657C4.54688 4.61653 4.39362 4.44935 4.39362 4.24502V0.42768C4.39362 0.223346 4.56081 0.046875 4.75585 0.046875H13.0268C13.1289 0.046875 13.2311 0.0933146 13.3007 0.172262C13.3704 0.251209 13.4029 0.353377 13.3936 0.4509C13.2915 1.66297 12.2884 2.61034 11.1041 2.61034H8.9865V4.24966C8.9865 4.454 8.83325 4.61653 8.63356 4.62582H8.49889V5.97257H9.33016C9.6413 5.97257 9.89672 6.23263 9.89672 6.55307V9.02366L9.96638 9.06545C11.8983 10.1568 13.1846 12.1444 13.4168 14.3781V28.9138C13.4168 29.485 12.9617 29.954 12.4045 29.954H1.05926ZM3.77133 9.37195C3.29765 9.62737 2.86576 9.93387 2.4896 10.2775C1.32861 11.3456 0.599507 12.8131 0.441612 14.4014V28.9091C0.441612 29.2528 0.715606 29.536 1.05461 29.536H12.3952C12.7342 29.536 13.0082 29.2574 13.0082 28.9091V14.4014C12.7946 12.2651 11.55 10.389 9.67845 9.37195L9.64595 9.35338H3.7992L3.76669 9.37195H3.77133ZM3.95245 8.94006H9.50198V6.41375L3.98496 6.38124L3.95245 8.94471V8.94006ZM5.27598 5.96793H8.10415V4.63047H5.27598V5.96793ZM4.793 4.20787H8.59641V2.57319C8.59641 2.36886 8.75895 2.19703 8.95864 2.19703H11.1088C12.0144 2.19703 12.7992 1.53294 12.9757 0.622726L13.0082 0.455544H4.793V4.21251V4.20787Z" fill="#19486D"/>
<path d="M17.5592 16.3881C17.0205 16.3881 16.584 15.9376 16.584 15.385V11.4562C16.584 10.9036 17.0205 10.4531 17.5592 10.4531H23.68C24.2187 10.4531 24.6552 10.9036 24.6552 11.4562V15.385C24.6552 15.9376 24.2187 16.3881 23.68 16.3881H17.5592ZM17.5592 10.964C17.2899 10.964 17.0716 11.1869 17.0716 11.4562V15.385C17.0716 15.6637 17.2852 15.8819 17.5592 15.8819H23.6846C23.954 15.8819 24.1676 15.659 24.1676 15.385V15.2457L24.1629 11.4562C24.1629 11.1822 23.9447 10.964 23.68 10.964H17.5592Z" fill="#19486D"/>
<path d="M17.5587 16.3421C17.0478 16.3421 16.6299 15.9149 16.6299 15.3854V11.4567C16.6299 10.9319 17.0478 10.5 17.5587 10.5H23.6794C24.1903 10.5 24.6082 10.9272 24.6082 11.4567V15.3854C24.6082 15.9102 24.1903 16.3421 23.6794 16.3421H17.5587ZM17.5587 10.918C17.2615 10.918 17.0246 11.1594 17.0246 11.4567V15.3854C17.0246 15.692 17.2615 15.9288 17.5587 15.9288H23.6841C23.9766 15.9288 24.2135 15.6827 24.2135 15.3854V15.2461H24.2088V11.4567C24.2088 11.1594 23.972 10.918 23.6794 10.918H17.5587Z" fill="#19486D"/>
<path d="M3.08853 22.8443C2.54055 22.8443 2.09473 22.3846 2.09473 21.8227V15.6369C2.09473 15.075 2.54055 14.6152 3.08853 14.6152H10.3517C10.8997 14.6152 11.3455 15.075 11.3455 15.6369V21.8227C11.3455 22.3846 10.8997 22.8443 10.3517 22.8443H3.08853ZM3.08853 15.1214C2.8099 15.1214 2.58234 15.3536 2.58234 15.6369V21.8227C2.58234 22.1059 2.8099 22.3381 3.08853 22.3381H10.3517C10.6303 22.3381 10.8579 22.1059 10.8579 21.8227V15.6369C10.8579 15.3583 10.6303 15.1261 10.3517 15.1214H3.08853Z" fill="#19486D"/>
<path d="M3.08799 22.7964C2.56787 22.7964 2.14062 22.3598 2.14062 21.8211V15.6354C2.14062 15.0967 2.56787 14.6602 3.08799 14.6602H10.3512C10.8713 14.6602 11.2985 15.0967 11.2985 15.6354V21.8211C11.2985 22.3598 10.8713 22.7964 10.3512 22.7964H3.08799ZM3.08799 15.0735C2.78149 15.0735 2.53536 15.3242 2.53536 15.6354V21.8211C2.53536 22.1323 2.78614 22.3831 3.08799 22.3831H10.3512C10.6577 22.3831 10.9038 22.1323 10.9038 21.8211V15.6354C10.9038 15.3289 10.6577 15.0781 10.3512 15.0735H3.08799Z" fill="#19486D"/>
</g>
<defs>
<clipPath id="clip0_2656_16388">
<rect width="27.2136" height="30" fill="white"/>
</clipPath>
</defs>
</svg>
