<svg width="53" height="39" viewBox="0 0 53 39" fill="none" xmlns="http://www.w3.org/2000/svg">
<path d="M44.1152 38.3094V15.6377" stroke="#0F4568" stroke-width="0.642592" stroke-miterlimit="10"/>
<path d="M47.3959 10.9673H5.08398L10.0091 5.59473H42.5453L47.3959 10.9673Z" stroke="#0F4568" stroke-width="0.642592" stroke-miterlimit="10"/>
<path d="M42.6962 3.29688H10.0508V5.59426H42.6962V3.29688Z" fill="#F49E49"/>
<path d="M42.6949 5.59476H10.0508V3.50822C10.0508 2.12362 11.1731 1 12.559 1H40.188C41.5726 1 42.6962 2.12234 42.6962 3.50822V5.59476H42.6949Z" stroke="#0F4568" stroke-width="0.642592" stroke-miterlimit="10"/>
<path d="M4.81438 11.1797C4.81438 11.1797 4.52126 15.3258 8.51307 15.8002V38.3099" stroke="#0F4568" stroke-width="0.642592" stroke-miterlimit="10"/>
<path d="M8.51367 15.7999C13.3758 15.4952 12.2779 10.9673 12.2779 10.9673L15.4547 5.59473" stroke="#0F4568" stroke-width="0.642592" stroke-miterlimit="10"/>
<path d="M12.1836 13.3849C12.1836 13.3849 13.2416 15.951 15.7962 15.8018C15.7962 15.8018 19.428 15.762 19.3714 10.9692L20.4308 5.59668" stroke="#0F4568" stroke-width="0.642592" stroke-miterlimit="10"/>
<path d="M19.0566 13.3849C19.0566 13.3849 20.1147 15.951 22.6692 15.8018C22.6692 15.8018 26.301 15.762 26.2445 10.9692L26.2123 5.59668" stroke="#0F4568" stroke-width="0.642592" stroke-miterlimit="10"/>
<path d="M25.8535 13.3849C25.8535 13.3849 26.9116 15.951 29.4661 15.8018C29.4661 15.8018 33.0979 15.762 33.0413 10.9692L31.667 5.59668" stroke="#0F4568" stroke-width="0.642592" stroke-miterlimit="10"/>
<path d="M32.6992 13.3844C32.6992 13.3844 33.7573 15.9505 36.3118 15.8013C36.3118 15.8013 39.9436 15.7615 39.8871 10.9688" stroke="#0F4568" stroke-width="0.642592" stroke-miterlimit="10"/>
<path d="M39.4668 13.3837C39.4668 13.3837 40.5249 15.9498 43.0794 15.8007C43.0794 15.8007 47.7165 15.9884 47.66 11.1943" stroke="#0F4568" stroke-width="0.642592" stroke-miterlimit="10"/>
<path d="M37.123 5.59473L39.8858 10.9673" stroke="#0F4568" stroke-width="0.642592" stroke-miterlimit="10"/>
<path d="M41.4892 38.31H31.0977V27.1317C31.0977 24.2622 33.4233 21.9365 36.2928 21.9365C39.1623 21.9365 41.4879 24.2622 41.4879 27.1317V38.31H41.4892Z" stroke="#0F4568" stroke-width="0.642592" stroke-miterlimit="10"/>
<path d="M39.3528 32.3404C39.0006 32.3404 38.7139 32.0549 38.7139 31.7014V30.2757C38.7139 29.9234 38.9993 29.6367 39.3528 29.6367C39.7051 29.6367 39.9918 29.9221 39.9918 30.2757V31.7014C39.9918 32.0537 39.7051 32.3404 39.3528 32.3404Z" fill="#0F4568"/>
<path d="M10.0508 3.50781H42.6949" stroke="#0F4568" stroke-width="0.642592" stroke-miterlimit="10"/>
<path d="M10.2607 23.5381H13.4143L16.4329 34.4619H25.7202" stroke="#0F4568" stroke-width="0.642592" stroke-miterlimit="10"/>
<path d="M13.8613 25.1592H27.58L25.7198 32.1979H15.8065" stroke="#0F4568" stroke-width="0.642592" stroke-miterlimit="10"/>
<path d="M17.8096 25.1592L18.5205 32.1979" stroke="#0F4568" stroke-width="0.642592" stroke-miterlimit="10"/>
<path d="M21.0977 25.1592V32.1979" stroke="#0F4568" stroke-width="0.642592" stroke-miterlimit="10"/>
<path d="M24.3835 25.1592L23.4502 32.1979" stroke="#0F4568" stroke-width="0.642592" stroke-miterlimit="10"/>
<path d="M14.6582 28.6787H26.6902" stroke="#0F4568" stroke-width="0.642592" stroke-miterlimit="10"/>
<path d="M17.6237 37.6351C18.1143 37.6351 18.5121 37.2374 18.5121 36.7468C18.5121 36.2561 18.1143 35.8584 17.6237 35.8584C17.1331 35.8584 16.7354 36.2561 16.7354 36.7468C16.7354 37.2374 17.1331 37.6351 17.6237 37.6351Z" stroke="#0F4568" stroke-width="0.642592" stroke-miterlimit="10"/>
<path d="M24.1169 37.6351C24.6075 37.6351 25.0052 37.2374 25.0052 36.7468C25.0052 36.2561 24.6075 35.8584 24.1169 35.8584C23.6262 35.8584 23.2285 36.2561 23.2285 36.7468C23.2285 37.2374 23.6262 37.6351 24.1169 37.6351Z" stroke="#0F4568" stroke-width="0.642592" stroke-miterlimit="10"/>
<path d="M51.9694 39.0002H0.689086C0.308546 39.0002 0 38.6917 0 38.3112C0 37.9306 0.308546 37.6221 0.689086 37.6221H51.9681C52.3487 37.6221 52.6572 37.9306 52.6572 38.3112C52.6585 38.6917 52.35 39.0002 51.9694 39.0002Z" fill="#0F4568"/>
</svg>
