<svg width="61" height="39" viewBox="0 0 61 39" fill="none" xmlns="http://www.w3.org/2000/svg">
<path d="M38.0753 13.9035H25.1719V1H29.9858H38.0753V13.9035Z" stroke="#0F4568" stroke-width="0.736501" stroke-miterlimit="10"/>
<path d="M29.9092 6.84181V1H33.1001V6.84181L31.4578 5.24115L29.9092 6.84181Z" fill="#F49E49" stroke="#0F4568" stroke-width="0.736501" stroke-miterlimit="10"/>
<path d="M30.6666 26.9215H17.7646V14.0195H22.5785H30.6666V26.9215Z" stroke="#0F4568" stroke-width="0.736501" stroke-miterlimit="10"/>
<path d="M22.5029 19.8613V14.0195H25.6923V19.8613L24.05 18.2592L22.5029 19.8613Z" fill="#F49E49" stroke="#0F4568" stroke-width="0.736501" stroke-miterlimit="10"/>
<path d="M46.004 26.9215H33.1006V14.0195H37.9145H46.004V26.9215Z" stroke="#0F4568" stroke-width="0.736501" stroke-miterlimit="10"/>
<path d="M37.8379 19.8613V14.0195H41.0288V19.8613L39.3865 18.2592L37.8379 19.8613Z" fill="#F49E49" stroke="#0F4568" stroke-width="0.736501" stroke-miterlimit="10"/>
<path d="M52.2728 29.0489H8.59085C8.02556 29.0489 7.56738 28.5907 7.56738 28.0254C7.56738 27.4601 8.02556 27.002 8.59085 27.002H52.2743C52.8396 27.002 53.2977 27.4601 53.2977 28.0254C53.2977 28.5907 52.8396 29.0489 52.2728 29.0489Z" fill="#0F4568"/>
<path d="M19.784 37.528C21.6991 37.528 23.2516 35.9755 23.2516 34.0604C23.2516 32.1453 21.6991 30.5928 19.784 30.5928C17.8689 30.5928 16.3164 32.1453 16.3164 34.0604C16.3164 35.9755 17.8689 37.528 19.784 37.528Z" stroke="#0F4568" stroke-width="0.736501" stroke-miterlimit="10"/>
<path d="M43.2274 37.528C45.1425 37.528 46.695 35.9755 46.695 34.0604C46.695 32.1453 45.1425 30.5928 43.2274 30.5928C41.3123 30.5928 39.7598 32.1453 39.7598 34.0604C39.7598 35.9755 41.3123 37.528 43.2274 37.528Z" stroke="#0F4568" stroke-width="0.736501" stroke-miterlimit="10"/>
<path d="M6.07812 4.13184H11.2133V28.5553H51.81" stroke="#0F4568" stroke-width="0.736501" stroke-miterlimit="10"/>
<path d="M60.1348 38.9997H0.797354C0.357024 38.9997 0 38.6705 0 38.2645C0 37.8585 0.357024 37.5293 0.797354 37.5293H60.1333C60.5736 37.5293 60.9307 37.8585 60.9307 38.2645C60.9321 38.6705 60.5751 38.9997 60.1348 38.9997Z" fill="#0F4568"/>
</svg>
