<svg width="579" height="365" viewBox="0 0 579 365" fill="none" xmlns="http://www.w3.org/2000/svg">
<mask id="mask0_45_127" style="mask-type:alpha" maskUnits="userSpaceOnUse" x="0" y="0" width="579" height="365">
<rect width="579" height="365" fill="#D9D9D9"/>
</mask>
<g mask="url(#mask0_45_127)">
<path d="M515.955 240.285C503.97 266.862 486.28 290.474 464.142 309.443C442.003 328.413 415.959 342.275 387.86 350.045C359.76 357.815 330.294 359.303 301.555 354.402C272.816 349.501 245.508 338.332 221.572 321.689C197.636 305.045 177.658 283.335 163.057 258.101C148.457 232.866 139.592 204.726 137.092 175.68C134.592 146.633 138.519 117.392 148.593 90.034C158.667 62.6759 174.642 37.8717 195.383 17.3831L271.134 94.0658C261.651 103.433 254.348 114.773 249.742 127.281C245.136 139.789 243.341 153.157 244.484 166.437C245.627 179.717 249.68 192.582 256.355 204.119C263.03 215.656 272.164 225.582 283.107 233.191C294.05 240.8 306.535 245.906 319.674 248.147C332.814 250.387 346.285 249.707 359.132 246.155C371.979 242.603 383.886 236.265 394.007 227.592C404.128 218.92 412.216 208.125 417.696 195.974L515.955 240.285Z" fill="#F7E3CB"/>
<mask id="mask1_45_127" style="mask-type:alpha" maskUnits="userSpaceOnUse" x="136" y="17" width="380" height="341">
<path d="M515.953 240.285C503.968 266.862 486.278 290.474 464.14 309.443C442.001 328.413 415.957 342.275 387.858 350.045C359.758 357.815 330.292 359.303 301.553 354.402C272.814 349.501 245.507 338.332 221.57 321.689C197.634 305.045 177.656 283.335 163.055 258.101C148.455 232.866 139.59 204.726 137.09 175.68C134.59 146.633 138.517 117.392 148.591 90.034C158.665 62.6759 174.64 37.8717 195.381 17.3831L271.132 94.0658C261.649 103.433 254.346 114.773 249.74 127.281C245.134 139.789 243.339 153.157 244.482 166.437C245.625 179.717 249.678 192.582 256.353 204.119C263.028 215.656 272.162 225.582 283.105 233.191C294.049 240.8 306.533 245.906 319.672 248.147C332.812 250.387 346.283 249.707 359.13 246.155C371.977 242.603 383.884 236.265 394.005 227.592C404.127 218.92 412.214 208.125 417.694 195.974L515.953 240.285Z" fill="#F7E3CB"/>
</mask>
<g mask="url(#mask1_45_127)">
<path d="M164.916 201.639C164.916 184.187 177.573 169.304 194.961 166.211C175.148 162.709 156.163 175.666 152.555 195.277C148.948 214.888 162.137 233.565 182.009 237.125C186.267 237.884 190.703 237.884 194.961 237.125C177.573 234.032 164.916 219.09 164.916 201.639Z" fill="black" stroke="black" stroke-width="2" stroke-miterlimit="10" stroke-linecap="round"/>
<path d="M194.379 236.532C210.747 236.532 224.015 220.662 224.015 201.086C224.015 181.509 210.747 165.64 194.379 165.64C178.012 165.64 164.744 181.509 164.744 201.086C164.744 220.662 178.012 236.532 194.379 236.532Z" fill="#FCB332" stroke="black" stroke-width="2" stroke-miterlimit="10" stroke-linecap="round"/>
<path d="M373.935 217.938L373.993 131.938H458.773V209.063" fill="black"/>
<path d="M373.935 217.938L373.993 131.938H458.773V209.063" stroke="black" stroke-width="2" stroke-miterlimit="10"/>
<path d="M418.272 213.836V131.922H503.828V204.852" fill="#FC9797"/>
<path d="M418.272 213.836V131.922H503.828V204.852" stroke="black" stroke-width="2" stroke-miterlimit="10" stroke-linecap="round"/>
<path d="M118.155 106.209L168.654 140.267C171.59 142.263 175.642 141.5 177.639 138.564C179.518 135.804 179.048 132.105 176.523 129.932L131.661 91.1768L118.155 106.209Z" fill="#FC9797" stroke="black" stroke-width="2" stroke-miterlimit="10" stroke-linecap="round"/>
<path d="M133.599 100.454L148.455 109.145L155.619 113.314L186.153 131.165C189.206 132.985 193.141 131.928 195.02 128.875C196.723 125.997 196.018 122.357 193.376 120.36L146.106 84.541L133.599 100.454Z" fill="#FC9797"/>
<path d="M150.566 110.255L155.531 113.14L186.267 131.041C189.34 132.866 193.3 131.806 195.192 128.744C196.906 125.859 196.197 122.208 193.537 120.206L145.956 84.2881L133.366 100.245" stroke="black" stroke-width="2" stroke-miterlimit="10" stroke-linecap="round"/>
<path d="M144.987 90.463L199.371 118.422C202.556 120.074 206.449 118.835 208.159 115.65C209.693 112.701 208.808 109.043 206.036 107.215L156.666 73.8291L144.987 90.463Z" fill="#FC9797"/>
<path d="M159.733 98.0721L199.371 118.422C202.556 120.074 206.449 118.835 208.159 115.65C209.693 112.701 208.808 109.043 206.036 107.215L156.666 73.8291L144.987 90.463" stroke="black" stroke-width="2" stroke-miterlimit="10" stroke-linecap="round"/>
<path d="M153.123 82.5364L200.08 100.147C203.401 101.388 207.071 99.733 208.411 96.4828C209.692 93.3507 208.411 89.7459 205.498 88.1504L165.008 65.6943L153.123 82.5364Z" fill="#FC9797"/>
<path d="M137.686 119.695L168.231 67.8457L159.479 62.3536C142.738 51.901 123.412 46.2318 103.675 46.0546L92.6904 45.9365L96.0387 109.125C107.434 117.806 121.767 121.703 135.983 119.873L137.686 119.695Z" fill="#FC9797"/>
<path d="M162.488 86.3032L200.01 100.161C203.357 101.394 207.057 99.75 208.407 96.5204C209.699 93.4083 208.407 89.8263 205.471 88.2409L159.259 62.7564C159.259 62.7564 123.616 42.7916 93.14 46.6084L0.303711 25.7041L8.64195 94.3478L96.4871 109.38C107.879 118.012 122.206 121.887 136.417 120.067L138.178 119.832L153.445 94.524" fill="#FC9797"/>
<path d="M162.488 86.3032L200.01 100.161C203.357 101.394 207.057 99.75 208.407 96.5204C209.699 93.4083 208.407 89.8263 205.471 88.2409L159.259 62.7564C159.259 62.7564 123.616 42.7916 93.14 46.6084L0.303711 25.7041L8.64195 94.3478L96.4871 109.38C107.879 118.012 122.206 121.887 136.417 120.067L138.178 119.832L153.445 94.524" stroke="black" stroke-width="2" stroke-miterlimit="10" stroke-linecap="round"/>
<path d="M206.025 139.01L167.043 82.2222C166.275 81.1144 164.858 80.5897 163.499 80.8812L136.862 87.2946C135.799 87.5279 134.972 88.2858 134.558 89.277L106.858 161.224C106.208 162.915 107.035 164.78 108.748 165.422C109.339 165.655 110.047 165.713 110.697 165.538L204.017 143.966C205.789 143.558 206.911 141.809 206.497 140.06C206.438 139.71 206.261 139.36 206.025 139.01Z" fill="black" stroke="black" stroke-width="2" stroke-miterlimit="10"/>
<path d="M220.72 134.733L169.095 82.9382C167.797 81.6404 165.732 81.6404 164.434 82.9382C164.08 83.2922 163.785 83.7051 163.667 84.177L139.359 153.138C138.769 154.849 139.654 156.736 141.365 157.326C141.955 157.503 142.604 157.562 143.194 157.444L219.127 140.278C220.897 139.865 222.018 138.095 221.605 136.325C221.487 135.736 221.133 135.146 220.72 134.733Z" fill="#CFEDFF" stroke="black" stroke-width="2" stroke-miterlimit="10"/>
<path d="M138.605 68.0176L175.204 106.496L172.686 109.364C168.411 114.204 161.15 114.682 156.29 110.499L142.821 98.8483C142.821 98.8483 128.591 109.723 114.771 104.584" fill="#FC9797"/>
<path d="M138.605 68.0176L175.204 106.496L172.686 109.364C168.411 114.204 161.15 114.682 156.29 110.499L142.821 98.8483C142.821 98.8483 128.591 109.723 114.771 104.584" stroke="black" stroke-width="2" stroke-miterlimit="10" stroke-linecap="round"/>
<path d="M97.3389 246.992L557.557 199.343Z" fill="#FC9797"/>
<path d="M97.3389 246.992L557.557 199.343" stroke="black" stroke-width="2" stroke-miterlimit="10" stroke-linecap="round"/>
<path d="M309.809 229.559V283.727C309.809 296.695 303.403 308.778 292.767 316.087L286.772 320.213V360.884H354.178V317.266L347.126 312.609C336.078 305.359 329.437 292.981 329.437 279.719V236.75" fill="white"/>
<path d="M309.809 229.559V283.727C309.809 296.695 303.403 308.778 292.767 316.087L286.772 320.213V360.884H354.178V317.266L347.126 312.609C336.078 305.359 329.437 292.981 329.437 279.719V236.75" stroke="black" stroke-width="2" stroke-miterlimit="10"/>
<path d="M319.894 246.992C333.052 246.992 343.718 236.325 343.718 223.167C343.718 210.009 333.052 199.343 319.894 199.343C306.736 199.343 296.069 210.009 296.069 223.167C296.069 236.325 306.736 246.992 319.894 246.992Z" fill="white" stroke="black" stroke-width="2" stroke-miterlimit="10"/>
<path d="M319.894 231.884C324.708 231.884 328.61 227.981 328.61 223.167C328.61 218.354 324.708 214.451 319.894 214.451C315.08 214.451 311.178 218.354 311.178 223.167C311.178 227.981 315.08 231.884 319.894 231.884Z" fill="black" stroke="black" stroke-width="2" stroke-miterlimit="10"/>
<path d="M488.487 106.367C488.487 95.453 495.816 85.8369 506.421 82.8871C493.313 79.2295 479.669 86.7808 475.974 99.7006C472.28 112.679 479.907 126.189 492.956 129.847C497.365 131.086 502.012 131.086 506.362 129.847C495.816 126.897 488.487 117.281 488.487 106.367Z" fill="black" stroke="black" stroke-width="2" stroke-miterlimit="10" stroke-linecap="round"/>
</g>
<path d="M164.916 201.638C164.916 184.186 177.573 169.303 194.961 166.21C175.148 162.708 156.163 175.665 152.555 195.276C148.948 214.887 162.137 233.564 182.009 237.124C186.267 237.883 190.703 237.883 194.961 237.124C177.573 234.031 164.916 219.089 164.916 201.638Z" fill="black" stroke="black" stroke-width="2" stroke-miterlimit="10" stroke-linecap="round"/>
<path d="M194.379 236.531C210.747 236.531 224.015 220.661 224.015 201.085C224.015 181.508 210.747 165.639 194.379 165.639C178.012 165.639 164.744 181.508 164.744 201.085C164.744 220.661 178.012 236.531 194.379 236.531Z" fill="#FCB332" stroke="black" stroke-width="2" stroke-miterlimit="10" stroke-linecap="round"/>
<path d="M373.935 217.936L373.993 131.936H458.773V209.061" fill="black"/>
<path d="M373.935 217.936L373.993 131.936H458.773V209.061" stroke="black" stroke-width="2" stroke-miterlimit="10"/>
<path d="M418.272 213.834V131.92H503.828V204.85" fill="#FC9797"/>
<path d="M418.272 213.834V131.92H503.828V204.85" stroke="black" stroke-width="2" stroke-miterlimit="10" stroke-linecap="round"/>
<path d="M118.155 106.207L168.654 140.265C171.59 142.261 175.642 141.498 177.639 138.562C179.518 135.802 179.048 132.103 176.523 129.93L131.661 91.1748L118.155 106.207Z" fill="#FC9797" stroke="black" stroke-width="2" stroke-miterlimit="10" stroke-linecap="round"/>
<path d="M133.599 100.452L148.455 109.143L155.619 113.312L186.153 131.163C189.206 132.983 193.141 131.926 195.02 128.873C196.723 125.995 196.018 122.355 193.376 120.358L146.106 84.5391L133.599 100.452Z" fill="#FC9797"/>
<path d="M150.566 110.254L155.531 113.139L186.267 131.04C189.34 132.865 193.3 131.805 195.192 128.743C196.906 125.858 196.197 122.207 193.537 120.205L145.956 84.2871L133.366 100.244" stroke="black" stroke-width="2" stroke-miterlimit="10" stroke-linecap="round"/>
<path d="M144.987 90.461L199.371 118.42C202.556 120.072 206.449 118.833 208.159 115.648C209.693 112.699 208.808 109.041 206.036 107.213L156.666 73.8271L144.987 90.461Z" fill="#FC9797"/>
<path d="M159.733 98.0702L199.371 118.42C202.556 120.072 206.449 118.833 208.159 115.648C209.693 112.699 208.808 109.041 206.036 107.213L156.666 73.8271L144.987 90.461" stroke="black" stroke-width="2" stroke-miterlimit="10" stroke-linecap="round"/>
<path d="M153.123 82.5344L200.08 100.145C203.401 101.386 207.071 99.731 208.411 96.4808C209.692 93.3488 208.411 89.744 205.498 88.1484L165.008 65.6924L153.123 82.5344Z" fill="#FC9797"/>
<path d="M137.686 119.694L168.231 67.8447L159.479 62.3526C142.738 51.9 123.412 46.2308 103.675 46.0537L92.6904 45.9355L96.0387 109.124C107.434 117.805 121.767 121.702 135.983 119.872L137.686 119.694Z" fill="#FC9797"/>
<path d="M162.488 86.3022L200.01 100.16C203.357 101.393 207.057 99.7491 208.407 96.5195C209.699 93.4073 208.407 89.8254 205.471 88.2399L159.259 62.7554C159.259 62.7554 123.616 42.7906 93.14 46.6074L0.303711 25.7031L8.64195 94.3468L96.4871 109.379C107.879 118.011 122.206 121.887 136.417 120.066L138.178 119.831L153.445 94.523" fill="#FC9797"/>
<path d="M162.488 86.3022L200.01 100.16C203.357 101.393 207.057 99.7491 208.407 96.5195C209.699 93.4073 208.407 89.8254 205.471 88.2399L159.259 62.7554C159.259 62.7554 123.616 42.7906 93.14 46.6074L0.303711 25.7031L8.64195 94.3468L96.4871 109.379C107.879 118.011 122.206 121.887 136.417 120.066L138.178 119.831L153.445 94.523" stroke="black" stroke-width="2" stroke-miterlimit="10" stroke-linecap="round"/>
<path d="M0.12793 25.7617L57.1451 38.4452L62.0188 135.392L0.12793 127.171" fill="white"/>
<path d="M0.12793 25.7617L57.1451 38.4452L62.0188 135.392L0.12793 127.171" stroke="black" stroke-width="2" stroke-miterlimit="10" stroke-linecap="round"/>
<path d="M64.1913 135.744C57.321 135.392 52.0362 129.461 52.4472 122.591L53.5042 103.918L78.2841 107.089L77.3445 124.059C76.9335 130.87 71.0615 136.097 64.1913 135.744Z" fill="black" stroke="black" stroke-width="2" stroke-miterlimit="10" stroke-linecap="round"/>
<path d="M78.2838 107.09L53.5039 103.919L57.2033 38.5049L81.8657 44.0246" fill="#FC9797"/>
<path d="M78.2838 107.09L53.5039 103.919L57.2033 38.5049L81.8657 44.0246" stroke="black" stroke-width="2" stroke-miterlimit="10" stroke-linecap="round"/>
<path d="M206.025 139.009L167.043 82.2212C166.275 81.1135 164.858 80.5887 163.499 80.8802L136.862 87.2937C135.799 87.5269 134.972 88.2848 134.558 89.276L106.858 161.223C106.208 162.914 107.035 164.779 108.748 165.421C109.339 165.654 110.047 165.712 110.697 165.537L204.017 143.965C205.789 143.557 206.911 141.808 206.497 140.059C206.438 139.709 206.261 139.359 206.025 139.009Z" fill="black" stroke="black" stroke-width="2" stroke-miterlimit="10"/>
<path d="M220.72 134.731L169.095 82.9362C167.797 81.6384 165.732 81.6384 164.434 82.9362C164.08 83.2902 163.785 83.7031 163.667 84.1751L139.359 153.136C138.769 154.847 139.654 156.734 141.365 157.324C141.955 157.501 142.604 157.56 143.194 157.442L219.127 140.276C220.897 139.863 222.018 138.093 221.605 136.323C221.487 135.734 221.133 135.144 220.72 134.731Z" fill="#CFEDFF" stroke="black" stroke-width="2" stroke-miterlimit="10"/>
<path d="M138.605 68.0166L175.204 106.495L172.686 109.363C168.411 114.203 161.15 114.681 156.29 110.498L142.821 98.8473C142.821 98.8473 128.591 109.722 114.771 104.583" fill="#FC9797"/>
<path d="M138.605 68.0166L175.204 106.495L172.686 109.363C168.411 114.203 161.15 114.681 156.29 110.498L142.821 98.8473C142.821 98.8473 128.591 109.722 114.771 104.583" stroke="black" stroke-width="2" stroke-miterlimit="10" stroke-linecap="round"/>
<path d="M97.3389 246.991L557.557 199.342Z" fill="#FC9797"/>
<path d="M97.3389 246.991L557.557 199.342" stroke="black" stroke-width="2" stroke-miterlimit="10" stroke-linecap="round"/>
<path d="M319.894 246.991C333.052 246.991 343.718 236.324 343.718 223.166C343.718 210.008 333.052 199.342 319.894 199.342C306.736 199.342 296.069 210.008 296.069 223.166C296.069 236.324 306.736 246.991 319.894 246.991Z" fill="white" stroke="black" stroke-width="2" stroke-miterlimit="10"/>
<path d="M319.894 231.882C324.708 231.882 328.61 227.979 328.61 223.165C328.61 218.352 324.708 214.449 319.894 214.449C315.08 214.449 311.178 218.352 311.178 223.165C311.178 227.979 315.08 231.882 319.894 231.882Z" fill="black" stroke="black" stroke-width="2" stroke-miterlimit="10"/>
<path d="M488.487 106.365C488.487 95.451 495.816 85.8349 506.421 82.8852C493.313 79.2275 479.669 86.7788 475.974 99.6986C472.28 112.677 479.907 126.187 492.956 129.845C497.365 131.084 502.012 131.084 506.362 129.845C495.816 126.895 488.487 117.279 488.487 106.365Z" fill="black" stroke="black" stroke-width="2" stroke-miterlimit="10" stroke-linecap="round"/>
<path d="M-0.283203 68.0166L55.5008 78.4761" stroke="black" stroke-width="2" stroke-miterlimit="10" stroke-linecap="round"/>
<path d="M-0.283203 111.017L52.0143 119.152" stroke="black" stroke-width="2" stroke-miterlimit="10" stroke-linecap="round"/>
<path d="M-0.283203 98.2324L54.3387 106.368" stroke="black" stroke-width="2" stroke-miterlimit="10" stroke-linecap="round"/>
<path d="M-0.283203 83.125L54.3387 91.2602" stroke="black" stroke-width="2" stroke-miterlimit="10" stroke-linecap="round"/>
</g>
</svg>
