<svg width="26" height="88" viewBox="0 0 26 88" fill="none" xmlns="http://www.w3.org/2000/svg">
<g clip-path="url(#clip0_1_466)">
<path d="M24.6036 69.7935C24.4709 69.7935 24.3406 69.7643 24.2174 69.7033L16.1282 65.7632L15.4079 66.8404L15.3794 66.8908L14.6473 67.9787L13.7279 69.3583C13.5479 69.6316 13.2588 69.7935 12.9555 69.7935C12.6522 69.7935 12.3632 69.6316 12.1831 69.3583L11.2164 67.9097L11.1832 67.854L9.79234 65.7632L1.6913 69.7033C1.56809 69.7616 1.44014 69.7935 1.30745 69.7935C1.06814 69.7935 0.835938 69.6926 0.658231 69.5122C0.37864 69.2283 0.274386 68.7826 0.390487 68.3793C1.49937 64.5799 3.31198 59.5599 4.77628 57.9176C5.00611 57.6602 5.31414 57.3604 5.71694 57.0049L6.01312 56.7422L5.88991 56.3442C4.9066 53.1948 1.65339 41.9928 1.10131 30.0957C0.395226 14.9484 4.23605 4.86074 12.5172 0.119396C12.6522 0.0424518 12.8039 0 12.9555 0C13.1072 0 13.2588 0.0397986 13.3939 0.119396C21.6773 4.86074 25.5229 14.9457 24.8192 30.093C24.2671 41.9928 21.0139 53.1948 20.0306 56.3442L19.9074 56.7422L20.2036 57.0049C20.5921 57.3471 20.9073 57.6576 21.1442 57.9202C22.5659 59.5122 24.3003 64.2402 25.4471 68.1325L25.4613 68.1776L25.4803 68.2201C25.5513 68.3713 25.5869 68.5385 25.5869 68.7136C25.5869 69.3079 25.1556 69.7935 24.6225 69.7935H24.6036ZM9.51748 60.1091L9.93687 61.0457L10.4392 62.1362L10.7709 62.834L11.1145 63.5398L11.4699 64.2482C11.5552 64.4127 11.8277 64.9407 11.8277 64.9407C11.9153 65.1078 12.1878 65.6093 12.1878 65.6093C12.2802 65.7765 12.3703 65.9357 12.4603 66.0949L12.9389 66.9359L13.7919 65.6677L13.8109 65.6358C14.7515 63.9855 15.9528 61.197 16.7726 59.2389L17.2086 58.1988L16.1992 58.4031C15.0975 58.626 14.0075 58.7401 12.9602 58.7401C11.913 58.7401 10.8183 58.626 9.71415 58.4031L8.68819 58.1962L9.51985 60.1091H9.51748ZM6.26427 59.3079L6.1458 59.4352C5.22173 60.47 4.02754 63.6273 3.39491 65.4156L2.92576 66.7476L9.03175 63.7786L8.68819 63.0463C8.57446 62.7995 8.26406 62.1283 8.26406 62.1283C7.97973 61.4994 7.71436 60.8972 7.47268 60.34L6.8282 58.8276L6.2619 59.3079H6.26427ZM18.2677 60.7406C18.1185 61.0935 17.9645 61.449 17.8081 61.8125L17.5617 62.3777L17.1802 63.24L16.9267 63.8025L22.9829 66.7502L22.5185 65.4209C21.7555 63.2426 20.6632 60.4355 19.7771 59.4432L19.1065 58.7321L18.2654 60.738L18.2677 60.7406ZM3.76691 37.3974C4.86158 45.6649 6.82583 52.6907 7.61958 55.3254L7.70488 55.6092L7.96078 55.6995C8.70004 55.9648 10.669 56.5777 12.9579 56.5777C15.2467 56.5777 17.2205 55.9621 17.9597 55.6968L18.2156 55.6066L18.3009 55.3227C19.0923 52.6933 21.0542 45.6835 22.1512 37.3948L22.2697 36.5006L21.4902 36.7341C19.5306 37.3205 16.4575 38.0209 12.9579 38.0209C9.45825 38.0209 6.38748 37.3231 4.42798 36.7368L3.64844 36.5033L3.76691 37.3974ZM3.17218 31.4648C3.22431 32.2342 3.28355 32.9983 3.35463 33.7572L3.39017 34.1445L3.72189 34.2613C5.42787 34.8609 8.8967 35.8638 12.9555 35.8638C17.0143 35.8638 20.495 34.8583 22.1939 34.2613L22.5256 34.1445L22.5611 33.7572C22.6322 32.9983 22.6938 32.2316 22.7436 31.4648L22.7981 30.6263L22.073 30.8492C19.9856 31.494 16.7087 32.2607 12.9531 32.2607C9.19761 32.2607 5.92308 31.494 3.83562 30.8519L3.11058 30.629L3.16744 31.4674L3.17218 31.4648ZM12.6925 2.46486C6.04629 6.71004 2.79308 15.2641 3.02054 27.8962L3.02765 28.3233L3.39254 28.4507C5.16486 29.0662 8.76401 30.101 12.9579 30.101C17.1517 30.101 20.7627 29.0662 22.5256 28.4507L22.8905 28.3233L22.8976 27.8962C23.1227 15.2641 19.8671 6.70739 13.2161 2.46221L12.9531 2.29505L12.6901 2.46221L12.6925 2.46486Z" fill="white"/>
<path d="M12.9575 16.7951C10.4791 16.7951 9.15226 16.3918 8.65231 15.4871C8.38219 14.9989 8.37035 14.4258 8.61677 13.8739C9.05274 12.8975 10.7469 10.239 12.1851 8.07393C12.1851 8.07659 12.1827 8.07924 12.1851 8.07924C12.1851 8.07924 12.2017 8.06067 12.2159 8.04209C12.2372 8.01291 12.2609 7.98638 12.2846 7.95984C12.3083 7.93331 12.3296 7.90943 12.3533 7.88821L12.3865 7.85637L12.4221 7.83249C12.4552 7.80596 12.4837 7.78738 12.5121 7.77146C12.5405 7.75289 12.569 7.73962 12.595 7.72901C12.6258 7.71574 12.6543 7.70248 12.6851 7.69452C12.7159 7.68391 12.7467 7.67595 12.7775 7.66799C12.8059 7.66268 12.8367 7.65737 12.8675 7.65472C12.8983 7.65207 12.9291 7.64941 12.9575 7.64941C12.986 7.64941 13.0191 7.64941 13.0499 7.65472C13.0807 7.65737 13.1116 7.66268 13.1424 7.67064C13.1684 7.67595 13.2016 7.68391 13.2324 7.69452C13.2608 7.70248 13.2869 7.71575 13.3153 7.72636C13.3509 7.74228 13.3769 7.75554 13.4006 7.76881C13.4291 7.78738 13.4599 7.80596 13.4883 7.82718L13.5309 7.85637C13.5309 7.85637 13.5523 7.87759 13.5641 7.88821C13.5902 7.91208 13.6139 7.93862 13.6376 7.96515C13.6589 7.98903 13.6826 8.01556 13.7039 8.04475L13.756 8.10842C14.2275 8.81949 16.7344 12.603 17.3007 13.8739C17.5424 14.4178 17.5305 15.0042 17.2651 15.4871C16.7652 16.3918 15.4383 16.7951 12.9599 16.7951H12.9575ZM12.5287 11.2021C12.0998 11.8681 11.4861 12.8285 11.0051 13.6351L10.5194 14.447L11.389 14.5531C11.825 14.6062 12.3533 14.6354 12.9599 14.6354C13.5665 14.6354 14.0949 14.6089 14.5308 14.5531L15.4004 14.447L14.9123 13.6351C14.4313 12.8338 13.8176 11.8707 13.3888 11.2021L12.9599 10.5361L12.531 11.2021H12.5287Z" fill="#F29C49"/>
<path d="M12.9575 88.0001C12.4268 88.0001 11.9932 87.5145 11.9932 86.9202V75.5935C11.9932 74.9992 12.4268 74.5137 12.9575 74.5137C13.4883 74.5137 13.9219 74.9966 13.9219 75.5935V86.9202C13.9219 87.5145 13.4883 88.0001 12.9575 88.0001Z" fill="#F29C49"/>
<path d="M18.7017 84.0971C18.1709 84.0971 17.7373 83.6142 17.7373 83.0173V71.6906C17.7373 71.0963 18.1709 70.6107 18.7017 70.6107C19.2324 70.6107 19.666 71.0963 19.666 71.6906V83.0173C19.666 83.6116 19.2348 84.0971 18.7017 84.0971Z" fill="#F29C49"/>
<path d="M7.22119 84.0973C6.69044 84.0973 6.25684 83.6144 6.25684 83.0174V71.6907C6.25684 71.0964 6.69044 70.6108 7.22119 70.6108C7.75194 70.6108 8.18554 71.0964 8.18554 71.6907V83.0174C8.18554 83.6117 7.75194 84.0973 7.22119 84.0973Z" fill="#F29C49"/>
</g>
<defs>
<clipPath id="clip0_1_466">
<rect width="25.2438" height="88" fill="white" transform="translate(0.34375)"/>
</clipPath>
</defs>
</svg>
