<svg width="26" height="23" viewBox="0 0 26 23" fill="none" xmlns="http://www.w3.org/2000/svg">
<path d="M26 11.5003C26 11.2204 25.8237 10.8484 25.6448 10.6677L15.56 0.377732C15.0891 -0.0896482 14.3262 -0.143691 13.7775 0.330445C13.2869 0.754765 13.2745 1.58185 13.7283 2.04251L21.8235 10.2895H1.26051C0.564075 10.2895 0 10.8316 0 11.4999C0 12.1687 0.564537 12.7104 1.26051 12.7104H21.8235L13.7283 20.9574C13.2746 21.418 13.3066 22.2249 13.7775 22.669C14.2744 23.1381 15.0966 23.0963 15.56 22.6217L25.6448 12.3321C25.9411 12.0531 25.9952 11.7845 26 11.5003Z" fill="white"/>
</svg>
