<svg width="74" height="74" viewBox="0 0 74 74" fill="none" xmlns="http://www.w3.org/2000/svg">
<circle cx="37" cy="37" r="37" fill="#F3F0E3"/>
<path d="M51.1405 18.8576C47.3899 15.107 42.3031 13 36.999 13C31.695 13 26.6081 15.107 22.8576 18.8576C19.107 22.6081 17 27.695 17 32.999C17 38.3031 19.107 43.3899 22.8576 47.1405L30.31 54.5929C30.4795 54.7624 30.6807 54.8968 30.9021 54.9885C31.1236 55.0803 31.3609 55.1275 31.6006 55.1275C31.8402 55.1275 32.0776 55.0803 32.299 54.9885C32.5204 54.8968 32.7216 54.7624 32.8911 54.5929C33.0606 54.4234 33.195 54.2222 33.2867 54.0008C33.3785 53.7794 33.4257 53.542 33.4257 53.3024C33.4257 53.0627 33.3785 52.8254 33.2867 52.6039C33.195 52.3825 33.0606 52.1813 32.8911 52.0118L25.4387 44.5594C23.1488 42.2724 21.5887 39.3575 20.9559 36.1836C20.323 33.0097 20.6458 29.7194 21.8833 26.729C23.1209 23.7386 25.2177 21.1825 27.9083 19.384C30.599 17.5856 33.7627 16.6256 36.999 16.6256C40.2354 16.6256 43.3991 17.5856 46.0897 19.384C48.7804 21.1825 50.8771 23.7386 52.1147 26.729C53.3523 29.7194 53.6751 33.0097 53.0422 36.1836C52.4093 39.3575 50.8493 42.2724 48.5594 44.5594L35.7085 57.4103C35.5381 57.5793 35.4029 57.7803 35.3106 58.0018C35.2183 58.2233 35.1708 58.4609 35.1708 58.7008C35.1708 58.9408 35.2183 59.1784 35.3106 59.3999C35.4029 59.6214 35.5381 59.8224 35.7085 59.9914C35.8775 60.1617 36.0785 60.297 36.3 60.3893C36.5215 60.4815 36.7591 60.529 36.999 60.529C37.239 60.529 37.4766 60.4815 37.6981 60.3893C37.9196 60.297 38.1206 60.1617 38.2896 59.9914L51.1405 47.1405C52.9981 45.2837 54.4717 43.0791 55.4771 40.6527C56.4825 38.2263 57 35.6255 57 32.999C57 30.3725 56.4825 27.7718 55.4771 25.3454C54.4717 22.9189 52.9981 20.7143 51.1405 18.8576Z" fill="#1C75BC"/>
<path d="M46.0868 33.1264C46.0868 31.3289 45.5538 29.5718 44.5552 28.0772C43.5565 26.5826 42.1371 25.4178 40.4765 24.7299C38.8158 24.042 36.9884 23.862 35.2255 24.2127C33.4625 24.5634 31.8431 25.429 30.5721 26.7C29.301 27.971 28.4355 29.5904 28.0848 31.3534C27.7341 33.1163 27.9141 34.9437 28.602 36.6044C29.2898 38.2651 30.4547 39.6845 31.9493 40.6831C33.4439 41.6817 35.201 42.2148 36.9985 42.2148C39.4089 42.2148 41.7205 41.2572 43.4249 39.5528C45.1293 37.8485 46.0868 35.5368 46.0868 33.1264ZM31.5455 33.1264C31.5455 32.0479 31.8653 30.9936 32.4645 30.0969C33.0637 29.2002 33.9153 28.5012 34.9117 28.0885C35.9081 27.6758 37.0045 27.5678 38.0623 27.7782C39.1201 27.9886 40.0917 28.508 40.8544 29.2706C41.617 30.0332 42.1363 31.0048 42.3467 32.0626C42.5571 33.1204 42.4491 34.2168 42.0364 35.2132C41.6237 36.2096 40.9248 37.0612 40.028 37.6604C39.1313 38.2596 38.077 38.5794 36.9985 38.5794C35.5523 38.5794 34.1653 38.0049 33.1426 36.9823C32.12 35.9596 31.5455 34.5727 31.5455 33.1264Z" fill="#00AEEF"/>
</svg>
