<svg width="29" height="29" viewBox="0 0 29 29" fill="none" xmlns="http://www.w3.org/2000/svg">
<path fill-rule="evenodd" clip-rule="evenodd" d="M14.5 0C22.5028 0 29 6.49725 29 14.5C29 22.5028 22.5028 29 14.5 29C6.49725 29 0 22.5028 0 14.5C0 6.49725 6.49725 0 14.5 0ZM11.8465 22.1488C18.2773 22.1488 21.7935 16.82 21.7935 12.2017C21.7935 12.0495 21.7935 11.8973 21.7863 11.7523C22.4678 11.2593 23.0623 10.643 23.5335 9.93975C22.91 10.2153 22.2358 10.4038 21.5253 10.4908C22.2502 10.0557 22.8013 9.37425 23.0623 8.555C22.388 8.95375 21.6413 9.24375 20.8438 9.40325C20.2057 8.72175 19.2995 8.30125 18.2917 8.30125C16.3633 8.30125 14.7972 9.86725 14.7972 11.7957C14.7972 12.0712 14.8262 12.3395 14.8915 12.5933C11.9842 12.4482 9.4105 11.0563 7.685 8.93925C7.38775 9.454 7.21375 10.0557 7.21375 10.6938C7.21375 11.9045 7.83 12.9775 8.7725 13.601C8.19975 13.5865 7.66325 13.427 7.192 13.166V13.2095C7.192 14.906 8.3955 16.3125 9.99775 16.6388C9.70775 16.7185 9.396 16.762 9.077 16.762C8.85225 16.762 8.63475 16.7402 8.41725 16.6968C8.8595 18.0887 10.15 19.0965 11.6797 19.1255C10.4835 20.0608 8.9755 20.619 7.337 20.619C7.05425 20.619 6.77875 20.6045 6.50325 20.5682C8.033 21.5687 9.8745 22.1488 11.8465 22.1488Z" fill="#838383"/>
</svg>
