<svg width="29" height="29" viewBox="0 0 29 29" fill="none" xmlns="http://www.w3.org/2000/svg">
<path fill-rule="evenodd" clip-rule="evenodd" d="M14.5 0C22.5028 0 29 6.49725 29 14.5C29 22.5028 22.5028 29 14.5 29C6.49725 29 0 22.5028 0 14.5C0 6.49725 6.49725 0 14.5 0ZM9.96665 22.6489V11.3253H6.20209V22.6489H9.96665ZM23.5389 22.6489V16.1553C23.5389 12.6771 21.6818 11.059 19.2054 11.059C17.2085 11.059 16.314 12.1572 15.8132 12.9286V11.3253H12.0496C12.0995 12.3877 12.0496 22.6489 12.0496 22.6489H15.8132V16.325C15.8132 15.9865 15.8375 15.6482 15.9373 15.4062C16.2088 14.7302 16.8286 14.0299 17.8684 14.0299C19.2297 14.0299 19.7751 15.0687 19.7751 16.5903V22.6489H23.5389ZM8.1098 5.86514C6.8218 5.86514 5.98029 6.71191 5.98029 7.82179C5.98029 8.90827 6.7962 9.77838 8.05996 9.77838H8.08426C9.39691 9.77838 10.2139 8.90827 10.2139 7.82179C10.1896 6.71191 9.39696 5.86514 8.1098 5.86514Z" fill="#838383"/>
</svg>
