<svg width="19" height="18" viewBox="0 0 19 18" fill="none" xmlns="http://www.w3.org/2000/svg">
<path d="M9.00391 18C4.03319 18 0.00390625 13.9707 0.00390625 9C0.00390625 4.02928 4.03319 0 9.00391 0C13.9746 0 18.0039 4.02928 18.0039 9C18.0039 13.9707 13.9746 18 9.00391 18ZM9.00391 16.6617C13.2351 16.6617 16.6651 13.2317 16.6651 9.00053C16.6651 4.76936 13.2351 1.33937 9.00391 1.33937C4.77274 1.33937 1.34275 4.76936 1.34275 9.00053C1.34275 13.2317 4.77274 16.6617 9.00391 16.6617Z" fill="#1C75BC"/>
<path d="M6.60773 9.00472L8.03482 10.7983L11.3577 5.59119C11.5683 5.26084 12.0284 5.15172 12.3852 5.34665C12.742 5.54159 12.8603 5.96766 12.6493 6.298L8.74943 12.4088C8.47569 12.8374 7.81893 12.8681 7.5002 12.4674L5.40028 9.8286C5.15439 9.52008 5.22564 9.08508 5.55884 8.8579C5.89204 8.63024 6.36185 8.69621 6.60719 9.00472H6.60773Z" fill="#00AEEF"/>
</svg>
