<svg width="903" height="804" viewBox="0 0 903 804" fill="none" xmlns="http://www.w3.org/2000/svg">
<path d="M0.878485 1032.8C76.1822 1080.78 160.139 1110.24 246.907 1119.12C333.675 1128.01 421.171 1116.11 503.307 1084.24C585.443 1052.38 660.246 1001.33 722.513 934.633C784.779 867.937 833.013 787.202 863.859 698.044C894.705 608.887 907.421 513.448 901.124 418.369C894.827 323.289 869.667 230.852 827.394 147.49C785.122 64.1268 726.753 -8.16007 656.349 -64.3414C585.944 -120.523 505.194 -159.249 419.717 -177.827L419.239 -175.195C504.366 -156.693 584.786 -118.125 654.903 -62.1735C725.02 -6.22186 783.15 65.7694 825.249 148.791C867.348 231.813 892.405 323.872 898.677 418.563C904.949 513.253 892.284 608.301 861.565 697.094C830.845 785.887 782.808 866.292 720.796 932.715C658.785 999.138 584.287 1049.98 502.487 1081.71C420.687 1113.45 333.549 1125.3 247.136 1116.45C160.722 1107.6 77.109 1078.27 2.11328 1030.48L0.878485 1032.8Z" fill="#DDEEE6"/>
</svg>
