<svg width="1190" height="804" viewBox="0 0 1190 804" fill="none" xmlns="http://www.w3.org/2000/svg">
<path d="M293.528 -236.751C206.898 -179.407 132.731 -102.103 76.1856 -10.2204C19.6407 81.6628 -17.9237 185.919 -33.8938 295.296C-49.8638 404.672 -43.8563 516.541 -16.289 623.12C11.2785 729.698 59.7435 828.427 125.734 912.436C191.725 996.445 273.657 1063.72 365.829 1109.57C458.001 1155.43 558.199 1178.76 659.453 1177.96C760.707 1177.15 860.585 1152.22 952.138 1104.91C1043.69 1057.59 1124.72 989.02 1189.58 903.969L1014.89 744.541C971.194 801.83 916.614 848.017 854.946 879.889C793.278 911.761 726.001 928.553 657.798 929.096C589.595 929.638 522.103 913.919 460.017 883.032C397.931 852.145 342.743 806.831 298.293 750.244C253.842 693.656 221.197 627.154 202.628 555.364C184.059 483.575 180.013 408.221 190.77 334.547C201.527 260.873 226.83 190.647 264.918 128.756C303.006 66.8648 352.964 14.7946 411.316 -23.8319L293.528 -236.751Z" fill="#E9F5F0"/>
</svg>
