<svg width="29" height="29" viewBox="0 0 29 29" fill="none" xmlns="http://www.w3.org/2000/svg">
<path fill-rule="evenodd" clip-rule="evenodd" d="M14.5 0C22.5028 0 29 6.49725 29 14.5C29 22.5028 22.5028 29 14.5 29C6.49725 29 0 22.5028 0 14.5C0 6.49725 6.49725 0 14.5 0ZM23.1839 10.1374C22.9754 9.35754 22.3613 8.7435 21.5815 8.53506C20.1679 8.15625 14.5 8.15625 14.5 8.15625C14.5 8.15625 8.83214 8.15625 7.41851 8.53506C6.63885 8.7435 6.02458 9.35754 5.81614 10.1374C5.4375 11.5509 5.4375 14.5001 5.4375 14.5001C5.4375 14.5001 5.4375 17.4492 5.81614 18.8626C6.02458 19.6425 6.63885 20.2567 7.41851 20.4651C8.83214 20.8438 14.5 20.8438 14.5 20.8438C14.5 20.8438 20.1679 20.8438 21.5815 20.4651C22.3613 20.2567 22.9754 19.6425 23.1839 18.8626C23.5625 17.4492 23.5625 14.5001 23.5625 14.5001C23.5625 14.5001 23.5625 11.5509 23.1839 10.1374ZM12.6874 17.2189V11.7813L17.3964 14.5001L12.6874 17.2189Z" fill="#838383"/>
</svg>
