<svg width="13" height="12" viewBox="0 0 13 12" fill="none" xmlns="http://www.w3.org/2000/svg">
<path d="M12.15 6.1452L12.15 6.1452C12.1488 6.21506 12.1417 6.29368 12.1121 6.37543C12.0823 6.45776 12.0326 6.53555 11.9563 6.60998L7.6918 11.0814L12.15 6.1452ZM12.15 6.1452V6.14272M12.15 6.1452V6.14272M12.15 6.14272C12.15 6.05472 12.124 5.96306 12.0911 5.88636C12.0581 5.80958 12.0117 5.73279 11.958 5.67698C11.9579 5.67687 11.9578 5.67676 11.9577 5.67665L7.69162 1.20329L7.69163 1.20328M12.15 6.14272L7.69163 1.20328M7.69163 1.20328L7.69018 1.2018M7.69163 1.20328L7.69018 1.2018M7.69018 1.2018C7.4362 0.942736 7.0226 0.913693 6.72936 1.17409L6.72931 1.17413M7.69018 1.2018L6.72931 1.17413M6.72931 1.17413C6.45469 1.41818 6.45231 1.87596 6.69965 2.13423M6.72931 1.17413L6.69965 2.13423M6.69965 2.13423L6.69983 2.13442M6.69965 2.13423L6.69983 2.13442M6.69983 2.13442L9.88233 5.46627H1.53329C1.15765 5.46627 0.85 5.7673 0.85 6.14255C0.85 6.51807 1.15791 6.81883 1.53329 6.81883H9.88233L6.69984 10.1507C6.69979 10.1507 6.69975 10.1508 6.69971 10.1508C6.44825 10.4133 6.46878 10.8585 6.72456 11.1064C6.99759 11.3712 7.44098 11.3452 7.69161 11.0816L6.69983 2.13442Z" fill="#1C75BC" stroke="#1C75BC" stroke-width="0.3"/>
</svg>
