<svg width="11" height="10" viewBox="0 0 11 10" fill="none" xmlns="http://www.w3.org/2000/svg">
<path d="M11 5.00014C11 4.87844 10.9254 4.71672 10.8497 4.63815L6.58306 0.164231C6.38384 -0.0389775 6.0611 -0.0624742 5.82896 0.143672C5.62136 0.328159 5.61615 0.687762 5.80812 0.888048L9.23303 4.47369H0.533295C0.238647 4.47369 0 4.70939 0 4.99997C0 5.29074 0.238842 5.52625 0.533295 5.52625H9.23303L5.80812 9.1119C5.61616 9.31217 5.62973 9.66299 5.82896 9.85608C6.03916 10.06 6.38701 10.0419 6.58306 9.83553L10.8497 5.3618C10.9751 5.24046 10.998 5.12368 11 5.00014Z" fill="white"/>
</svg>
