<svg width="1199" height="1024" viewBox="0 0 1199 1024" fill="none" xmlns="http://www.w3.org/2000/svg">
<path d="M0.480144 957.463C69.2794 1031.76 153.44 1090.17 247.106 1128.63C340.772 1167.1 441.695 1184.69 542.851 1180.2C644.008 1175.7 742.97 1149.21 832.852 1102.58C922.733 1055.95 1001.38 990.301 1063.31 910.192C1125.24 830.084 1168.97 737.443 1191.47 638.716C1213.96 539.99 1214.67 437.547 1193.55 338.517C1172.44 239.487 1129.99 146.247 1069.18 65.2854C1008.37 -15.6766 930.649 -82.4165 841.425 -130.291L731.961 73.7189C791.548 105.691 843.453 150.262 884.065 204.331C924.677 258.4 953.021 320.668 967.124 386.803C981.227 452.939 980.752 521.353 965.73 587.286C950.708 653.219 921.501 715.087 880.141 768.586C838.781 822.085 786.261 865.93 726.235 897.07C666.21 928.21 600.12 945.898 532.564 948.902C465.009 951.907 397.61 940.156 335.056 914.468C272.503 888.78 216.298 849.771 170.352 800.155L0.480144 957.463Z" fill="#27597E"/>
</svg>
