<svg width="903" height="1024" viewBox="0 0 903 1024" fill="none" xmlns="http://www.w3.org/2000/svg">
<path d="M902.746 1002.24C827.443 1046.1 743.486 1073.03 656.718 1081.15C569.95 1089.27 482.454 1078.39 400.318 1049.27C318.182 1020.14 243.379 973.466 181.112 912.494C118.846 851.522 70.6118 777.716 39.7661 696.21C8.9204 614.704 -3.79616 527.456 2.50116 440.536C8.79846 353.617 33.9585 269.113 76.2305 192.904C118.503 116.696 176.872 50.6126 247.276 -0.747223C317.681 -52.107 398.431 -87.5102 483.908 -104.493L484.386 -102.087C399.259 -85.1734 318.839 -49.9151 248.722 1.23471C178.605 52.3845 120.475 118.197 78.3758 194.094C36.2766 269.991 11.2195 354.149 4.94798 440.714C-1.32358 527.278 11.341 614.169 42.0605 695.341C72.7801 776.514 120.817 850.019 182.829 910.741C244.84 971.464 319.338 1017.95 401.138 1046.95C482.938 1075.96 570.076 1086.8 656.489 1078.71C742.903 1070.62 826.516 1043.8 901.512 1000.12L902.746 1002.24Z" fill="#245A85"/>
</svg>
