<svg width="18" height="18" viewBox="0 0 18 18" fill="none" xmlns="http://www.w3.org/2000/svg">
<path fill-rule="evenodd" clip-rule="evenodd" d="M8.83334 1.35898C4.70516 1.35898 1.35898 4.70532 1.35898 8.83334C1.35898 12.9611 4.70532 16.3077 8.83334 16.3077C12.9611 16.3077 16.3077 12.9612 16.3077 8.83334C16.3077 4.70516 12.9612 1.35898 8.83334 1.35898ZM0 8.83334C0 3.95501 3.95501 0 8.83334 0C13.7117 0 17.6667 3.95501 17.6667 8.83334C17.6667 13.7117 13.7117 17.6667 8.83334 17.6667C3.95501 17.6667 0 13.7117 0 8.83334Z" fill="#00AEEF"/>
<path fill-rule="evenodd" clip-rule="evenodd" d="M8.83574 2.71777C9.21097 2.71777 9.51523 3.02202 9.51523 3.39726V8.55166L12.0342 11.0706C12.2995 11.336 12.2995 11.7662 12.0342 12.0316C11.7688 12.2969 11.3386 12.2969 11.0732 12.0316L8.35524 9.31366C8.22784 9.18626 8.15625 9.01335 8.15625 8.83317V3.39726C8.15625 3.02202 8.4605 2.71777 8.83574 2.71777Z" fill="#00AEEF"/>
</svg>
