<svg width="24" height="19" viewBox="0 0 24 19" fill="none" xmlns="http://www.w3.org/2000/svg">
<mask id="mask0_3_476" style="mask-type:alpha" maskUnits="userSpaceOnUse" x="0" y="0" width="24" height="19">
<path d="M22.3464 0H1.65361C1.06306 0 0.516976 0.315048 0.221702 0.826833C-0.0739007 1.33829 -0.0739007 1.9687 0.221702 2.4802C0.516976 2.99198 1.06304 3.30703 1.65361 3.30703H22.3464C22.9369 3.30703 23.483 2.99198 23.7783 2.4802C24.0739 1.96874 24.0739 1.33833 23.7783 0.826833C23.483 0.315048 22.937 0 22.3464 0Z" fill="#484848"/>
<path d="M22.3464 7.79492H1.65361C1.06306 7.79492 0.516976 8.1103 0.221702 8.62176C-0.0739007 9.13354 -0.0739007 9.76362 0.221702 10.2755C0.516976 10.7869 1.06304 11.1023 1.65361 11.1023H22.3464C22.9369 11.1023 23.483 10.7869 23.7783 10.2755C24.0739 9.76367 24.0739 9.13359 23.7783 8.62176C23.483 8.1103 22.937 7.79492 22.3464 7.79492Z" fill="#484848"/>
<path d="M23.9997 17.2441C23.9997 16.8058 23.8257 16.385 23.5156 16.0749C23.2055 15.7648 22.785 15.5908 22.3464 15.5908H1.65361C1.06306 15.5908 0.516976 15.9059 0.221702 16.4177C-0.0739007 16.9291 -0.0739007 17.5595 0.221702 18.071C0.516976 18.5828 1.06304 18.8979 1.65361 18.8979H22.3464C22.785 18.8979 23.2056 18.7235 23.5156 18.4134C23.8257 18.1033 23.9997 17.6828 23.9997 17.2442V17.2441Z" fill="#484848"/>
</mask>
<g mask="url(#mask0_3_476)">
<rect x="-4" y="-3" width="30" height="23" fill="url(#paint0_linear_3_476)"/>
</g>
<defs>
<linearGradient id="paint0_linear_3_476" x1="8" y1="1" x2="11" y2="26.5" gradientUnits="userSpaceOnUse">
<stop stop-color="#1C75BC"/>
<stop offset="1" stop-color="#00AEEF"/>
</linearGradient>
</defs>
</svg>
