<svg width="168" height="50" viewBox="0 0 168 50" fill="none" xmlns="http://www.w3.org/2000/svg">
<rect x="0.5" y="0.5" width="167" height="49" rx="24.5" stroke="url(#paint0_linear_3_473)"/>
<path d="M22.1258 19.8182H23.9553V26.9773C23.952 27.6335 23.8128 28.1986 23.5377 28.6726C23.2626 29.1432 22.8782 29.5062 22.3843 29.7614C21.8938 30.0133 21.3221 30.1392 20.6691 30.1392C20.0725 30.1392 19.5356 30.0331 19.0583 29.821C18.5844 29.6056 18.2082 29.2874 17.9298 28.8665C17.6514 28.4455 17.5122 27.9219 17.5122 27.2955H19.3467C19.35 27.5705 19.4097 27.8075 19.5257 28.0064C19.645 28.2053 19.809 28.3577 20.0178 28.4638C20.2267 28.5698 20.4669 28.6229 20.7387 28.6229C21.0337 28.6229 21.2839 28.5616 21.4894 28.4389C21.6949 28.313 21.8507 28.1274 21.9568 27.8821C22.0661 27.6368 22.1225 27.3352 22.1258 26.9773V19.8182ZM29.2078 30.1491C28.4621 30.1491 27.8158 29.9851 27.2689 29.657C26.722 29.3288 26.2978 28.8698 25.9962 28.2798C25.6979 27.6899 25.5487 27.0005 25.5487 26.2116C25.5487 25.4228 25.6979 24.7318 25.9962 24.1385C26.2978 23.5452 26.722 23.0845 27.2689 22.7564C27.8158 22.4283 28.4621 22.2642 29.2078 22.2642C29.9536 22.2642 30.5999 22.4283 31.1468 22.7564C31.6936 23.0845 32.1162 23.5452 32.4145 24.1385C32.7161 24.7318 32.8669 25.4228 32.8669 26.2116C32.8669 27.0005 32.7161 27.6899 32.4145 28.2798C32.1162 28.8698 31.6936 29.3288 31.1468 29.657C30.5999 29.9851 29.9536 30.1491 29.2078 30.1491ZM29.2178 28.7074C29.6221 28.7074 29.9602 28.5964 30.232 28.3743C30.5038 28.1489 30.7059 27.8473 30.8385 27.4695C30.9744 27.0916 31.0423 26.6707 31.0423 26.2067C31.0423 25.7393 30.9744 25.3168 30.8385 24.9389C30.7059 24.5578 30.5038 24.2545 30.232 24.0291C29.9602 23.8037 29.6221 23.6911 29.2178 23.6911C28.8035 23.6911 28.4588 23.8037 28.1837 24.0291C27.9119 24.2545 27.7081 24.5578 27.5722 24.9389C27.4396 25.3168 27.3733 25.7393 27.3733 26.2067C27.3733 26.6707 27.4396 27.0916 27.5722 27.4695C27.7081 27.8473 27.9119 28.1489 28.1837 28.3743C28.4588 28.5964 28.8035 28.7074 29.2178 28.7074ZM34.3944 30V22.3636H36.1942V30H34.3944ZM35.2993 21.2798C35.0142 21.2798 34.769 21.1854 34.5635 20.9964C34.358 20.8042 34.2552 20.5739 34.2552 20.3054C34.2552 20.0336 34.358 19.8033 34.5635 19.6143C34.769 19.4221 35.0142 19.326 35.2993 19.326C35.5876 19.326 35.8329 19.4221 36.0351 19.6143C36.2406 19.8033 36.3433 20.0336 36.3433 20.3054C36.3433 20.5739 36.2406 20.8042 36.0351 20.9964C35.8329 21.1854 35.5876 21.2798 35.2993 21.2798ZM39.8445 25.5256V30H38.0448V22.3636H39.765V23.6612H39.8545C40.0302 23.2337 40.3102 22.8939 40.6947 22.642C41.0825 22.3902 41.5614 22.2642 42.1315 22.2642C42.6585 22.2642 43.1175 22.3769 43.5086 22.6023C43.903 22.8277 44.2079 23.1541 44.4234 23.5817C44.6421 24.0092 44.7499 24.5279 44.7465 25.1378V30H42.9468V25.4162C42.9468 24.9058 42.8142 24.5064 42.5491 24.218C42.2873 23.9297 41.9243 23.7855 41.4603 23.7855C41.1454 23.7855 40.8654 23.8551 40.6201 23.9943C40.3782 24.1302 40.1876 24.3274 40.0484 24.5859C39.9125 24.8445 39.8445 25.1577 39.8445 25.5256ZM59.2263 24.9091C59.2263 26.0062 59.0208 26.9458 58.6098 27.728C58.2021 28.5069 57.6453 29.1035 56.9394 29.5178C56.2367 29.9321 55.4396 30.1392 54.548 30.1392C53.6565 30.1392 52.8577 29.9321 52.1517 29.5178C51.4491 29.1001 50.8923 28.5019 50.4813 27.723C50.0736 26.9408 49.8698 26.0028 49.8698 24.9091C49.8698 23.812 50.0736 22.8741 50.4813 22.0952C50.8923 21.313 51.4491 20.7147 52.1517 20.3004C52.8577 19.8861 53.6565 19.679 54.548 19.679C55.4396 19.679 56.2367 19.8861 56.9394 20.3004C57.6453 20.7147 58.2021 21.313 58.6098 22.0952C59.0208 22.8741 59.2263 23.812 59.2263 24.9091ZM57.3719 24.9091C57.3719 24.1368 57.2509 23.4856 57.009 22.9553C56.7703 22.4216 56.4389 22.0189 56.0146 21.7472C55.5904 21.4721 55.1015 21.3345 54.548 21.3345C53.9945 21.3345 53.5057 21.4721 53.0814 21.7472C52.6572 22.0189 52.3241 22.4216 52.0821 22.9553C51.8435 23.4856 51.7242 24.1368 51.7242 24.9091C51.7242 25.6813 51.8435 26.3343 52.0821 26.8679C52.3241 27.3982 52.6572 27.8009 53.0814 28.076C53.5057 28.3478 53.9945 28.4837 54.548 28.4837C55.1015 28.4837 55.5904 28.3478 56.0146 28.076C56.4389 27.8009 56.7703 27.3982 57.009 26.8679C57.2509 26.3343 57.3719 25.6813 57.3719 24.9091ZM69.3373 19.8182V30H67.6966L62.8991 23.0646H62.8145V30H60.9701V19.8182H62.6206L67.4133 26.7585H67.5028V19.8182H69.3373ZM74.7973 30H71.347V19.8182H74.8669C75.8778 19.8182 76.7462 20.022 77.472 20.4297C78.2012 20.834 78.7613 21.4157 79.1524 22.1747C79.5435 22.9337 79.7391 23.8419 79.7391 24.8991C79.7391 25.9598 79.5419 26.8712 79.1475 27.6335C78.7564 28.3958 78.1913 28.9808 77.4521 29.3885C76.7164 29.7962 75.8314 30 74.7973 30ZM73.1915 28.4041H74.7078C75.4171 28.4041 76.0087 28.2749 76.4827 28.0163C76.9566 27.7545 77.3129 27.3651 77.5516 26.848C77.7902 26.3277 77.9095 25.678 77.9095 24.8991C77.9095 24.1203 77.7902 23.474 77.5516 22.9602C77.3129 22.4432 76.96 22.0571 76.4926 21.8018C76.0286 21.5433 75.4519 21.4141 74.7625 21.4141H73.1915V28.4041ZM90.2068 23.2536H88.3474C88.2944 22.9486 88.1966 22.6785 88.0541 22.4432C87.9115 22.2045 87.7342 22.0024 87.5221 21.8366C87.31 21.6709 87.068 21.5466 86.7963 21.4638C86.5278 21.3776 86.2378 21.3345 85.9262 21.3345C85.3727 21.3345 84.8822 21.4737 84.4546 21.7521C84.0271 22.0272 83.6923 22.4316 83.4504 22.9652C83.2084 23.4955 83.0874 24.1435 83.0874 24.9091C83.0874 25.688 83.2084 26.3442 83.4504 26.8778C83.6956 27.4081 84.0304 27.8092 84.4546 28.081C84.8822 28.3494 85.3711 28.4837 85.9213 28.4837C86.2262 28.4837 86.5112 28.4439 86.7764 28.3643C87.0448 28.2815 87.2851 28.1605 87.4972 28.0014C87.7127 27.8423 87.8933 27.6468 88.0392 27.4148C88.1883 27.1828 88.291 26.9176 88.3474 26.6193L90.2068 26.6293C90.1372 27.1132 89.9864 27.5672 89.7544 27.9915C89.5257 28.4157 89.2257 28.7902 88.8545 29.1151C88.4833 29.4366 88.0491 29.6884 87.5519 29.8707C87.0548 30.0497 86.5029 30.1392 85.8964 30.1392C85.0015 30.1392 84.2027 29.9321 83.5001 29.5178C82.7974 29.1035 82.2439 28.5052 81.8396 27.723C81.4352 26.9408 81.233 26.0028 81.233 24.9091C81.233 23.812 81.4369 22.8741 81.8445 22.0952C82.2522 21.313 82.8074 20.7147 83.51 20.3004C84.2127 19.8861 85.0081 19.679 85.8964 19.679C86.4632 19.679 86.9901 19.7585 87.4774 19.9176C87.9646 20.0767 88.3988 20.3104 88.7799 20.6186C89.1611 20.9235 89.4743 21.2981 89.7195 21.7422C89.9681 22.183 90.1305 22.6868 90.2068 23.2536ZM103.736 19.8182V30H102.095L97.2975 23.0646H97.213V30H95.3685V19.8182H97.0191L101.812 26.7585H101.901V19.8182H103.736ZM109.047 30.1491C108.281 30.1491 107.62 29.9901 107.063 29.6719C106.509 29.3504 106.084 28.8963 105.785 28.3097C105.487 27.7197 105.338 27.0253 105.338 26.2266C105.338 25.4411 105.487 24.7517 105.785 24.1584C106.087 23.5618 106.508 23.0978 107.048 22.7663C107.588 22.4316 108.223 22.2642 108.952 22.2642C109.423 22.2642 109.867 22.3404 110.285 22.4929C110.705 22.642 111.077 22.8741 111.398 23.1889C111.723 23.5038 111.978 23.9048 112.164 24.392C112.349 24.8759 112.442 25.4527 112.442 26.1222V26.674H106.183V25.4609H110.717C110.714 25.1162 110.639 24.8097 110.493 24.5412C110.348 24.2694 110.144 24.0556 109.882 23.8999C109.623 23.7441 109.322 23.6662 108.977 23.6662C108.609 23.6662 108.286 23.7557 108.008 23.9347C107.729 24.1103 107.512 24.3423 107.356 24.6307C107.204 24.9157 107.126 25.2289 107.123 25.5703V26.6293C107.123 27.0734 107.204 27.4545 107.366 27.7727C107.529 28.0876 107.756 28.3295 108.047 28.4986C108.339 28.6643 108.68 28.7472 109.071 28.7472C109.333 28.7472 109.57 28.7107 109.782 28.6378C109.995 28.5616 110.178 28.4505 110.334 28.3047C110.49 28.1589 110.608 27.9782 110.687 27.7628L112.368 27.9517C112.262 28.3958 112.059 28.7836 111.761 29.1151C111.466 29.4432 111.088 29.6984 110.628 29.8807C110.167 30.0597 109.64 30.1491 109.047 30.1491ZM117.778 22.3636V23.7557H113.388V22.3636H117.778ZM114.472 20.5341H116.272V27.7031C116.272 27.9451 116.308 28.1307 116.381 28.2599C116.457 28.3859 116.557 28.4721 116.679 28.5185C116.802 28.5649 116.938 28.5881 117.087 28.5881C117.2 28.5881 117.302 28.5798 117.395 28.5632C117.491 28.5466 117.564 28.5317 117.614 28.5185L117.917 29.9254C117.821 29.9586 117.684 29.995 117.505 30.0348C117.329 30.0746 117.113 30.0978 116.858 30.1044C116.407 30.1177 116.001 30.0497 115.64 29.9006C115.279 29.7481 114.992 29.5128 114.78 29.1946C114.571 28.8764 114.469 28.4787 114.472 28.0014V20.5341ZM120.859 30L118.701 22.3636H120.536L121.878 27.733H121.948L123.32 22.3636H125.135L126.507 27.7031H126.581L127.904 22.3636H129.743L127.581 30H125.706L124.275 24.8395H124.17L122.738 30H120.859ZM134.112 30.1491C133.366 30.1491 132.72 29.9851 132.173 29.657C131.626 29.3288 131.202 28.8698 130.9 28.2798C130.602 27.6899 130.453 27.0005 130.453 26.2116C130.453 25.4228 130.602 24.7318 130.9 24.1385C131.202 23.5452 131.626 23.0845 132.173 22.7564C132.72 22.4283 133.366 22.2642 134.112 22.2642C134.858 22.2642 135.504 22.4283 136.051 22.7564C136.598 23.0845 137.021 23.5452 137.319 24.1385C137.62 24.7318 137.771 25.4228 137.771 26.2116C137.771 27.0005 137.62 27.6899 137.319 28.2798C137.021 28.8698 136.598 29.3288 136.051 29.657C135.504 29.9851 134.858 30.1491 134.112 30.1491ZM134.122 28.7074C134.526 28.7074 134.864 28.5964 135.136 28.3743C135.408 28.1489 135.61 27.8473 135.743 27.4695C135.879 27.0916 135.947 26.6707 135.947 26.2067C135.947 25.7393 135.879 25.3168 135.743 24.9389C135.61 24.5578 135.408 24.2545 135.136 24.0291C134.864 23.8037 134.526 23.6911 134.122 23.6911C133.708 23.6911 133.363 23.8037 133.088 24.0291C132.816 24.2545 132.612 24.5578 132.476 24.9389C132.344 25.3168 132.278 25.7393 132.278 26.2067C132.278 26.6707 132.344 27.0916 132.476 27.4695C132.612 27.8473 132.816 28.1489 133.088 28.3743C133.363 28.5964 133.708 28.7074 134.122 28.7074ZM139.299 30V22.3636H141.044V23.6364H141.123C141.263 23.1955 141.501 22.8558 141.839 22.6172C142.181 22.3752 142.57 22.2543 143.008 22.2543C143.107 22.2543 143.218 22.2592 143.341 22.2692C143.467 22.2758 143.571 22.2874 143.654 22.304V23.9595C143.578 23.933 143.457 23.9098 143.291 23.8899C143.129 23.8667 142.971 23.8551 142.819 23.8551C142.491 23.8551 142.196 23.9264 141.934 24.0689C141.675 24.2081 141.471 24.402 141.322 24.6506C141.173 24.8991 141.098 25.1858 141.098 25.5107V30H139.299ZM146.49 27.6037L146.485 25.4311H146.774L149.518 22.3636H151.621L148.245 26.1222H147.872L146.49 27.6037ZM144.85 30V19.8182H146.649V30H144.85ZM149.642 30L147.156 26.5249L148.369 25.2571L151.795 30H149.642Z" fill="#1C75BC"/>
<defs>
<linearGradient id="paint0_linear_3_473" x1="84" y1="0" x2="101.775" y2="67.8235" gradientUnits="userSpaceOnUse">
<stop stop-color="#1C75BC"/>
<stop offset="1" stop-color="#00AEEF"/>
</linearGradient>
</defs>
</svg>
