<svg width="30" height="30" viewBox="0 0 30 30" fill="none" xmlns="http://www.w3.org/2000/svg">
<path fill-rule="evenodd" clip-rule="evenodd" d="M14.8068 0C22.9789 0 29.6137 6.63474 29.6137 14.8068C29.6137 22.9789 22.9789 29.6137 14.8068 29.6137C6.63474 29.6137 0 22.9789 0 14.8068C0 6.63474 6.63474 0 14.8068 0ZM10.1776 23.1282V11.5649H6.33334V23.1282H10.1776ZM24.037 23.1282V16.4972C24.037 12.9453 22.1406 11.293 19.6118 11.293C17.5727 11.293 16.6593 12.4145 16.1478 13.2021V11.5649H12.3046C12.3556 12.6498 12.3046 23.1282 12.3046 23.1282H16.1478V16.6705C16.1478 16.3248 16.1727 15.9793 16.2745 15.7323C16.5518 15.042 17.1847 14.3268 18.2465 14.3268C19.6366 14.3268 20.1936 15.3876 20.1936 16.9414V23.1282H24.037ZM8.28142 5.98925C6.96615 5.98925 6.10684 6.85395 6.10684 7.98731C6.10684 9.09678 6.94001 9.9853 8.23052 9.9853H8.25533C9.59576 9.9853 10.4301 9.09678 10.4301 7.98731C10.4052 6.85395 9.59581 5.98925 8.28142 5.98925Z" fill="#0A66C2"/>
</svg>
