<svg width="84" height="28" viewBox="0 0 84 28" fill="none" xmlns="http://www.w3.org/2000/svg">
<path d="M19.2542 16.0341V12.2906C19.2542 11.1251 19.1423 10.0244 18.9187 8.98844C18.7068 7.95248 18.3948 6.99893 17.9828 6.12778C17.6061 5.36259 17.1528 4.66214 16.6231 4.02643C16.1051 3.39073 15.4988 2.84921 14.8043 2.40186C14.1097 1.93097 13.3268 1.57192 12.4557 1.3247C11.5963 1.06571 10.6722 0.936216 9.68333 0.936216C8.70623 0.936216 7.79976 1.05982 6.96393 1.30704C6.1281 1.55426 5.37468 1.90743 4.70366 2.36655C4.02087 2.83744 3.4146 3.4025 2.88485 4.06175C2.36687 4.721 1.92541 5.45676 1.56047 6.26905C1.18375 7.12843 0.895334 8.06432 0.695205 9.07673C0.506849 10.0891 0.412671 11.1604 0.412671 12.2906V16.0341C0.412671 17.0936 0.495077 18.1002 0.659889 19.0537C0.836473 20.0073 1.08958 20.8902 1.4192 21.7025C1.78414 22.5854 2.23737 23.38 2.7789 24.0864C3.32042 24.7809 3.93258 25.3754 4.61537 25.8699C5.30993 26.3408 6.08101 26.7057 6.92862 26.9647C7.77622 27.2237 8.70034 27.3532 9.70098 27.3532C10.6428 27.3532 11.5198 27.2354 12.3321 27C13.1561 26.7763 13.9096 26.4585 14.5924 26.0464C15.3458 25.5756 16.0168 24.9869 16.6054 24.2806C17.194 23.5743 17.6885 22.7973 18.0887 21.9497C18.4654 21.1021 18.7539 20.1839 18.954 19.195C19.1541 18.1943 19.2542 17.1407 19.2542 16.0341ZM14.2215 12.2552V16.0341C14.2215 16.6698 14.1862 17.282 14.1156 17.8706C14.0567 18.4592 13.9625 19.0007 13.833 19.4952C13.6682 20.1309 13.4446 20.7018 13.162 21.208C12.8913 21.7025 12.5558 22.1145 12.1555 22.4441C11.8376 22.7149 11.4727 22.9209 11.0607 23.0622C10.6487 23.2034 10.1954 23.2741 9.70098 23.2741C9.183 23.2741 8.718 23.1976 8.30597 23.0445C7.90571 22.8915 7.54666 22.6737 7.22881 22.3912C6.88741 22.0733 6.58722 21.6613 6.32823 21.1551C6.08101 20.6371 5.89266 20.0661 5.76316 19.4422C5.64544 18.9478 5.56303 18.4121 5.51595 17.8353C5.46886 17.2585 5.44531 16.6581 5.44531 16.0341V12.2552C5.44531 11.596 5.46886 10.9662 5.51595 10.3658C5.57481 9.76541 5.6631 9.21212 5.78082 8.70591C5.93386 8.04666 6.14576 7.46982 6.41652 6.97539C6.69906 6.48095 7.04045 6.06892 7.44071 5.7393C7.73502 5.51563 8.06464 5.34493 8.42958 5.22721C8.80629 5.10948 9.22421 5.05062 9.68333 5.05062C10.166 5.05062 10.6016 5.11537 10.99 5.24486C11.3903 5.37436 11.7494 5.55683 12.0672 5.79227C12.4675 6.11012 12.8147 6.52215 13.1091 7.02836C13.4034 7.5228 13.6388 8.08786 13.8154 8.72357C13.9567 9.22977 14.0567 9.78307 14.1156 10.3835C14.1862 10.9721 14.2215 11.596 14.2215 12.2552ZM40.8857 18.9478H35.9237C35.8766 19.7247 35.7471 20.3899 35.5352 20.9432C35.3233 21.4965 35.0349 21.9497 34.6699 22.3029C34.305 22.656 33.8635 22.915 33.3456 23.0798C32.8276 23.2446 32.2449 23.3271 31.5974 23.3271C31.1147 23.3271 30.6733 23.2741 30.273 23.1681C29.8845 23.0504 29.5314 22.8738 29.2135 22.6384C28.9192 22.4265 28.6543 22.1616 28.4189 21.8438C28.1952 21.5259 28.001 21.161 27.8362 20.7489C27.6007 20.1485 27.4241 19.4481 27.3064 18.6476C27.2004 17.8353 27.1475 16.9171 27.1475 15.8929V12.3965C27.1475 11.6431 27.1828 10.9426 27.2534 10.2952C27.3241 9.63592 27.4359 9.03553 27.5889 8.49401C27.7891 7.79944 28.0539 7.19317 28.3836 6.67519C28.725 6.14544 29.137 5.7393 29.6196 5.45676C29.9022 5.29195 30.2083 5.16834 30.5379 5.08594C30.8793 5.00353 31.2442 4.96233 31.6327 4.96233C32.3626 4.96233 32.9865 5.06239 33.5045 5.26252C34.0342 5.45088 34.4757 5.73341 34.8289 6.11012C35.1703 6.49861 35.4293 6.98127 35.6058 7.55811C35.7942 8.13495 35.9119 8.80597 35.959 9.57117H40.9034C40.7856 8.22913 40.5031 7.02247 40.0558 5.9512C39.6084 4.87992 38.9963 3.97346 38.2193 3.23181C37.4423 2.49015 36.5005 1.9192 35.3939 1.51894C34.2991 1.11869 33.0454 0.918558 31.6327 0.918558C30.6792 0.918558 29.7845 1.04217 28.9486 1.28938C28.1246 1.52483 27.3653 1.86622 26.6707 2.31357C25.8937 2.84332 25.1992 3.4908 24.587 4.25599C23.9748 5.02119 23.4804 5.89234 23.1037 6.86944C22.7741 7.66995 22.5269 8.5411 22.3621 9.48288C22.1972 10.4129 22.1148 11.3959 22.1148 12.4318V15.8929C22.1148 16.9995 22.2031 18.0472 22.3797 19.0361C22.5681 20.0249 22.8329 20.9314 23.1743 21.7555C23.5275 22.5795 23.9572 23.3329 24.4634 24.0157C24.9814 24.6985 25.57 25.2813 26.2292 25.7639C26.9473 26.2819 27.7537 26.6821 28.6484 26.9647C29.5549 27.2354 30.5379 27.3708 31.5974 27.3708C32.9394 27.3708 34.1637 27.1766 35.2703 26.7881C36.3769 26.3878 37.3305 25.8228 38.131 25.0929C38.9315 24.363 39.5672 23.4801 40.0381 22.4441C40.5208 21.4082 40.8033 20.2427 40.8857 18.9478ZM60.5748 15.7339V11.8138H50.0151V5.33316H62.3053V1.28938H45.0354V27H62.3583V22.9915H50.0151V15.7339H60.5748ZM83.4248 27V1.28938H78.4451L78.4274 17.8L71.3288 1.28938H66.3314V27H71.3288V10.4188L78.4804 27H83.4248Z" fill="white"/>
</svg>
