<svg width="53" height="60" viewBox="0 0 53 60" fill="none" xmlns="http://www.w3.org/2000/svg">
<path d="M15.9802 59.9119C15.4762 59.9119 15.0422 59.5319 14.9882 59.0179L13.7982 47.8779H8.3522C6.9482 47.8779 5.7442 46.7859 5.6142 45.3939L4.9282 38.3619H2.0042C1.2262 38.3619 0.586197 38.0359 0.244197 37.4679C-0.0958033 36.8979 -0.0798034 36.1779 0.286197 35.4919L4.3242 26.5499L4.1782 23.9379C4.1762 18.8859 6.8302 14.0819 11.2762 11.0379C11.7302 10.7259 12.3542 10.8419 12.6642 11.2979C12.9762 11.7539 12.8622 12.3739 12.4042 12.6859C8.5042 15.3599 6.1762 19.5459 6.1762 23.8819L6.3342 26.6799C6.3442 26.8419 6.3142 27.0019 6.2482 27.1479L2.0922 36.3459L5.8362 36.3619C6.3522 36.3619 6.7822 36.7519 6.8322 37.2639L7.6062 45.2019C7.6402 45.5639 7.9882 45.8779 8.3522 45.8779H14.6962C15.2082 45.8779 15.6362 46.2619 15.6902 46.7719L16.9762 58.8079C17.0342 59.3559 16.6382 59.8499 16.0882 59.9079C16.0522 59.9099 16.0162 59.9119 15.9802 59.9119Z" fill="#124267"/>
<path d="M23.489 45.03H18.317C16.797 45.03 15.497 43.848 15.353 42.338L14.569 34.272H11.141C10.309 34.272 9.62496 33.926 9.26496 33.322C8.90496 32.72 8.92295 31.954 9.31895 31.22L13.895 21.074L13.729 18.086C13.727 8.088 22.621 0 33.555 0C44.347 0 52.489 8.524 52.489 19.824C52.489 24.14 51.433 28.25 49.257 32.386C49.001 32.876 48.393 33.06 47.907 32.806C47.417 32.55 47.229 31.944 47.487 31.456C49.507 27.612 50.489 23.808 50.489 19.824C50.489 9.662 43.209 2 33.555 2C23.725 2 15.727 9.192 15.727 18.032L15.905 21.208C15.915 21.368 15.885 21.528 15.819 21.674L11.111 32.108C11.073 32.178 11.049 32.234 11.033 32.272C11.065 32.274 11.097 32.274 11.141 32.274H15.477C15.993 32.274 16.423 32.664 16.473 33.178L17.345 42.15C17.389 42.628 17.835 43.03 18.317 43.03H23.489C24.041 43.03 24.489 43.478 24.489 44.03C24.489 44.582 24.041 45.03 23.489 45.03Z" fill="#124267"/>
<path d="M35.339 33.9541H31.743C31.273 33.9541 30.867 33.6261 30.767 33.1661L30.175 30.4621C29.345 30.2201 28.547 29.8881 27.787 29.4701L25.455 30.9641C25.059 31.2181 24.541 31.1621 24.209 30.8301L21.667 28.2881C21.335 27.9561 21.279 27.4361 21.533 27.0421L23.027 24.7101C22.609 23.9501 22.277 23.1521 22.035 22.3221L19.331 21.7301C18.869 21.6301 18.543 21.2241 18.543 20.7521V17.1541C18.543 16.6841 18.869 16.2781 19.329 16.1781L22.031 15.5861C22.275 14.7541 22.609 13.9561 23.025 13.1981L21.531 10.8661C21.277 10.4721 21.333 9.95205 21.665 9.62006L24.207 7.07805C24.539 6.74605 25.057 6.69005 25.453 6.94405L27.785 8.43806C28.547 8.02005 29.345 7.68805 30.173 7.44605L30.765 4.74205C30.865 4.28405 31.271 3.95605 31.741 3.95605H35.339C35.809 3.95605 36.215 4.28205 36.315 4.74205L36.907 7.44805C37.735 7.68805 38.533 8.02005 39.295 8.43806L41.627 6.94405C42.025 6.68805 42.543 6.74405 42.875 7.07605L45.417 9.61805C45.749 9.95005 45.805 10.4701 45.551 10.8641L44.059 13.2001C44.477 13.9621 44.809 14.7601 45.049 15.5861L47.755 16.1781C48.213 16.2781 48.541 16.6841 48.541 17.1541V20.7521C48.541 21.2221 48.215 21.6281 47.755 21.7281L45.049 22.3201C44.809 23.1461 44.477 23.9461 44.059 24.7061L45.553 27.0401C45.807 27.4341 45.751 27.9541 45.419 28.2861L42.877 30.8301C42.543 31.1641 42.025 31.2141 41.631 30.9641L39.299 29.4681C38.539 29.8861 37.741 30.2161 36.911 30.4581L36.319 33.1641C36.217 33.6261 35.811 33.9541 35.339 33.9541ZM32.547 31.9541H34.535L35.085 29.4381C35.167 29.0621 35.459 28.7641 35.833 28.6761C36.881 28.4321 37.875 28.0181 38.791 27.4501C39.115 27.2481 39.533 27.2481 39.857 27.4581L42.027 28.8481L43.433 27.4421L42.043 25.2721C41.835 24.9481 41.833 24.5341 42.033 24.2081C42.607 23.2801 43.019 22.2861 43.261 21.2481C43.349 20.8721 43.645 20.5821 44.021 20.5001L46.537 19.9501V17.9601L44.023 17.4081C43.647 17.3261 43.351 17.0341 43.263 16.6601C43.021 15.6201 42.609 14.6261 42.035 13.7001C41.833 13.3741 41.837 12.9601 42.045 12.6361L43.435 10.4661L42.029 9.06005L39.859 10.4501C39.535 10.6601 39.121 10.6601 38.793 10.4581C37.873 9.88805 36.879 9.47605 35.835 9.23205C35.459 9.14405 35.169 8.84805 35.087 8.47205L34.537 5.95605H32.549L31.999 8.47205C31.917 8.84805 31.625 9.14405 31.249 9.23205C30.207 9.47405 29.213 9.88605 28.291 10.4581C27.965 10.6601 27.551 10.6601 27.225 10.4501L25.055 9.06005L23.649 10.4661L25.039 12.6361C25.247 12.9601 25.249 13.3761 25.047 13.7021C24.479 14.6161 24.065 15.6121 23.815 16.6621C23.727 17.0381 23.433 17.3261 23.057 17.4081L20.543 17.9601V19.9481L23.059 20.4981C23.435 20.5801 23.731 20.8721 23.819 21.2461C24.063 22.2921 24.475 23.2881 25.045 24.2041C25.249 24.5301 25.247 24.9461 25.037 25.2701L23.647 27.4401L25.053 28.8461L27.223 27.4561C27.549 27.2481 27.967 27.2481 28.289 27.4481C29.207 28.0181 30.201 28.4321 31.247 28.6741C31.623 28.7621 31.915 29.0581 31.997 29.4361L32.547 31.9541ZM33.539 25.9561C29.679 25.9561 26.539 22.8161 26.539 18.9561C26.539 15.0961 29.679 11.9561 33.539 11.9561C37.399 11.9561 40.539 15.0961 40.539 18.9561C40.539 22.8161 37.399 25.9561 33.539 25.9561ZM33.539 13.9561C30.781 13.9561 28.539 16.1981 28.539 18.9561C28.539 21.7141 30.781 23.9561 33.539 23.9561C36.297 23.9561 38.539 21.7141 38.539 18.9561C38.539 16.1981 36.297 13.9561 33.539 13.9561Z" fill="#124267"/>
<path d="M41.4284 57.9681H38.4604C37.9904 57.9681 37.5844 57.6401 37.4844 57.1801L37.0204 55.0501C36.3944 54.8601 35.7864 54.6081 35.2084 54.2981L33.3684 55.4741C32.9724 55.7301 32.4544 55.6721 32.1224 55.3401L30.0224 53.2401C29.6904 52.9081 29.6344 52.3881 29.8884 51.9921L31.0684 50.1561C30.7564 49.5761 30.5044 48.9681 30.3144 48.3441L28.1864 47.8781C27.7284 47.7781 27.3984 47.3721 27.3984 46.9021V43.9341C27.3984 43.4641 27.7264 43.0581 28.1864 42.9581L30.3144 42.4921C30.5044 41.8661 30.7564 41.2601 31.0684 40.6801L29.8884 38.8401C29.6344 38.4461 29.6904 37.9261 30.0224 37.5941L32.1204 35.4961C32.4524 35.1641 32.9704 35.1061 33.3664 35.3621L35.2064 36.5381C35.7844 36.2281 36.3924 35.9741 37.0184 35.7841L37.4824 33.6581C37.5824 33.2001 37.9884 32.8701 38.4584 32.8701H41.4264C41.8944 32.8701 42.3024 33.1961 42.4024 33.6561L42.8684 35.7841C43.4944 35.9741 44.1004 36.2261 44.6824 36.5381L46.5184 35.3621C46.9144 35.1101 47.4304 35.1641 47.7644 35.4961L49.8624 37.5941C50.1944 37.9261 50.2504 38.4441 49.9964 38.8401L48.8204 40.6801C49.1304 41.2601 49.3844 41.8681 49.5744 42.4921L51.7024 42.9581C52.1604 43.0581 52.4904 43.4641 52.4904 43.9341V46.9001C52.4904 47.3701 52.1624 47.7761 51.7024 47.8761L49.5724 48.3421C49.3844 48.9681 49.1324 49.5721 48.8204 50.1541L49.9964 51.9921C50.2504 52.3861 50.1944 52.9061 49.8624 53.2381L47.7644 55.3381C47.4304 55.6721 46.9064 55.7221 46.5184 55.4721L44.6824 54.2941C44.1004 54.6041 43.4944 54.8561 42.8684 55.0461L42.4024 57.1781C42.3064 57.6421 41.9004 57.9681 41.4284 57.9681ZM39.2664 55.9681H40.6244L41.0504 54.0261C41.1324 53.6501 41.4264 53.3541 41.8004 53.2661C42.6404 53.0701 43.4424 52.7381 44.1884 52.2781C44.5124 52.0741 44.9284 52.0761 45.2524 52.2861L46.9224 53.3561L47.8824 52.3961L46.8124 50.7241C46.6044 50.4001 46.6024 49.9861 46.8044 49.6581C47.2664 48.9121 47.5984 48.1101 47.7924 47.2741C47.8804 46.8981 48.1744 46.6041 48.5544 46.5221L50.4944 46.0981V44.7381L48.5584 44.3141C48.1824 44.2321 47.8864 43.9401 47.7984 43.5661C47.5984 42.7241 47.2644 41.9221 46.8044 41.1781C46.6004 40.8501 46.6024 40.4361 46.8124 40.1121L47.8824 38.4381L46.9224 37.4781L45.2524 38.5481C44.9284 38.7561 44.5124 38.7561 44.1884 38.5561C43.4404 38.0941 42.6364 37.7601 41.7984 37.5621C41.4224 37.4741 41.1324 37.1801 41.0504 36.8041L40.6244 34.8681H39.2644L38.8424 36.8001C38.7604 37.1761 38.4684 37.4721 38.0944 37.5601C37.2504 37.7601 36.4484 38.0941 35.7064 38.5541C35.3844 38.7561 34.9664 38.7561 34.6404 38.5461L32.9664 37.4761L32.0064 38.4361L33.0804 40.1101C33.2884 40.4341 33.2904 40.8481 33.0884 41.1761C32.6284 41.9201 32.2944 42.7221 32.0944 43.5641C32.0064 43.9401 31.7124 44.2301 31.3344 44.3121L29.3984 44.7361V46.0961L31.3344 46.5201C31.7104 46.6021 32.0064 46.8941 32.0944 47.2681C32.2944 48.1101 32.6284 48.9121 33.0884 49.6561C33.2924 49.9841 33.2904 50.3981 33.0804 50.7241L32.0084 52.3961L32.9664 53.3541L34.6404 52.2841C34.9664 52.0761 35.3844 52.0761 35.7064 52.2761C36.4444 52.7341 37.2484 53.0681 38.0924 53.2641C38.4684 53.3521 38.7604 53.6481 38.8424 54.0261L39.2664 55.9681ZM39.9444 51.3681C36.6624 51.3681 33.9944 48.7001 33.9944 45.4181C33.9944 42.1361 36.6624 39.4681 39.9444 39.4681C43.2264 39.4681 45.8944 42.1361 45.8944 45.4181C45.8944 48.7001 43.2264 51.3681 39.9444 51.3681ZM39.9444 41.4701C37.7664 41.4701 35.9944 43.2421 35.9944 45.4201C35.9944 47.5981 37.7664 49.3701 39.9444 49.3701C42.1224 49.3701 43.8944 47.5981 43.8944 45.4201C43.8944 43.2421 42.1224 41.4701 39.9444 41.4701Z" fill="#124267"/>
<circle cx="39.543" cy="45.1001" r="5" fill="#124267"/>
<circle cx="34" cy="19" r="6" fill="#124267"/>
</svg>
