<svg width="40" height="43" viewBox="0 0 40 43" fill="none" xmlns="http://www.w3.org/2000/svg">
<path d="M33.8462 16.8929H32.3077V12.2857C32.3077 11.438 31.62 10.75 30.7692 10.75H1.53846C0.689231 10.75 0 11.438 0 12.2857C0 13.1334 0.689231 13.8214 1.53846 13.8214H29.2308V32.25C29.2308 36.484 25.78 39.9286 21.5385 39.9286H10.7692C6.52769 39.9286 3.07692 36.484 3.07692 32.25V18.4286C3.07692 17.5809 2.38769 16.8929 1.53846 16.8929C0.689231 16.8929 0 17.5809 0 18.4286V32.25C0 38.1763 4.83077 43 10.7692 43H21.5385C27.4754 43 32.3077 38.1763 32.3077 32.25V30.7143H33.8462C37.24 30.7143 40 27.9592 40 24.5714V23.0357C40 19.6479 37.24 16.8929 33.8462 16.8929ZM36.9231 24.5714C36.9231 26.2653 35.5431 27.6429 33.8462 27.6429H32.3077V19.9643H33.8462C35.5431 19.9643 36.9231 21.3418 36.9231 23.0357V24.5714Z" fill="white"/>
<path d="M9.23077 9.21429C10.08 9.21429 10.7692 8.52629 10.7692 7.67857V4.60714C10.7692 3.75943 10.08 3.07143 9.23077 3.07143C8.38154 3.07143 7.69231 3.75943 7.69231 4.60714V7.67857C7.69231 8.52629 8.38154 9.21429 9.23077 9.21429Z" fill="white"/>
<path d="M15.3846 9.21429C16.2338 9.21429 16.9231 8.52629 16.9231 7.67857V1.53571C16.9231 0.688 16.2338 0 15.3846 0C14.5354 0 13.8462 0.688 13.8462 1.53571V7.67857C13.8462 8.52629 14.5354 9.21429 15.3846 9.21429Z" fill="white"/>
<path d="M21.5385 9.21429C22.3892 9.21429 23.0769 8.52629 23.0769 7.67857V4.60714C23.0769 3.75943 22.3892 3.07143 21.5385 3.07143C20.6892 3.07143 20 3.75943 20 4.60714V7.67857C20 8.52629 20.6892 9.21429 21.5385 9.21429Z" fill="white"/>
</svg>
