<svg width="36" height="36" viewBox="0 0 36 36" fill="none" xmlns="http://www.w3.org/2000/svg">
<path d="M18 2.51923C9.44979 2.51923 2.51923 9.45012 2.51923 18C2.51923 26.5494 9.45011 33.4808 18 33.4808C26.5494 33.4808 33.4808 26.5496 33.4808 18C33.4808 9.44979 26.5496 2.51923 18 2.51923ZM0.25 18C0.25 8.19732 8.19732 0.25 18 0.25C27.8027 0.25 35.75 8.19732 35.75 18C35.75 27.8027 27.8027 35.75 18 35.75C8.19732 35.75 0.25 27.8027 0.25 18Z" fill="white" stroke="#19486D" stroke-width="0.5"/>
<path d="M19.1403 17.4265V17.53L19.2135 17.6033L24.3465 22.7362C24.3465 22.7362 24.3465 22.7362 24.3465 22.7362C24.7895 23.1795 24.7894 23.8977 24.3465 24.341C23.9032 24.7838 23.185 24.7838 22.7418 24.3409C22.7418 24.3409 22.7418 24.3409 22.7418 24.3409L17.2034 18.8025C16.9907 18.5898 16.8711 18.301 16.8711 18.0001V6.92319C16.8711 6.29663 17.3791 5.78857 18.0057 5.78857C18.6323 5.78857 19.1403 6.29663 19.1403 6.92319V17.4265Z" fill="white" stroke="#19486D" stroke-width="0.5"/>
</svg>
