<svg width="46" height="62" viewBox="0 0 46 62" fill="none" xmlns="http://www.w3.org/2000/svg">
<g clip-path="url(#clip0_63_403)">
<path d="M29.1782 26.5998C29.611 26.9685 30.0095 27.3714 30.3703 27.8065C31.8171 26.1182 32.6073 23.9915 32.6027 21.7962C32.6176 19.7614 31.9416 17.7786 30.6786 16.1534C29.4157 14.5282 27.6355 13.3513 25.6133 12.8044V14.8249C27.0863 15.3452 28.3561 16.294 29.2502 17.5417C30.1431 18.7893 30.6158 20.2761 30.6033 21.7951C30.6079 23.4734 30.0278 25.1041 28.959 26.4249C29.0321 26.4825 29.1063 26.5389 29.1771 26.5987L29.1782 26.5998Z" fill="#124267"/>
<path d="M42.8357 17.6714H40.8328C40.3955 15.7805 39.6441 13.9715 38.6062 12.3154L40.0552 10.8662C40.4709 10.4444 40.7027 9.88309 40.7027 9.29855C40.7027 8.71401 40.4697 8.15382 40.0541 7.73203L37.3775 5.0551C36.9562 4.62998 36.3749 4.39085 35.7675 4.39085C35.16 4.39085 34.5788 4.63108 34.1574 5.0551L32.7426 6.47106C31.1109 5.45254 29.3136 4.70858 27.4272 4.26907V2.23093C27.4295 1.69399 27.2296 1.17366 26.8665 0.768471C26.5034 0.363278 25.9987 0.0997925 25.4495 0.027832C25.5579 0.330066 25.6128 0.648906 25.6128 0.968853V5.60643C25.7612 5.81345 25.9861 5.95626 26.2408 6.00387C28.4241 6.40685 30.4897 7.26484 32.2984 8.51805C32.7004 8.79483 33.2508 8.74501 33.5945 8.40292L35.5928 6.40463C35.6304 6.34706 35.6967 6.31164 35.7675 6.31164C35.8383 6.31164 35.9045 6.34706 35.9422 6.40463L38.6187 9.08156C38.7352 9.20555 38.7352 9.39376 38.6187 9.51775L36.6204 11.516C36.2927 11.8437 36.2448 12.3486 36.5063 12.7283C37.7726 14.5638 38.6313 16.6352 39.0287 18.8106C39.1143 19.2723 39.5288 19.6088 40.0118 19.6088H42.8334C42.9887 19.621 43.1063 19.7516 43.096 19.9033V23.6906C43.1063 23.8412 42.9887 23.9718 42.8334 23.984H40.013C39.5288 23.984 39.1143 24.3206 39.0298 24.7822C38.6324 26.9576 37.7737 29.029 36.5074 30.8645C36.2459 31.2443 36.2927 31.7491 36.6204 32.0768L38.6176 34.074C38.7341 34.1969 38.7341 34.3862 38.6176 34.5102L37.3158 35.8121C37.7258 36.3745 38.0444 36.9945 38.2613 37.6498L40.0529 35.8586C40.4686 35.4368 40.7004 34.8755 40.7004 34.2921C40.7004 33.7086 40.4674 33.1473 40.0518 32.7255L38.6039 31.2764C39.6419 29.6202 40.3932 27.8112 40.8305 25.9203H42.8334C43.4386 25.9148 44.0164 25.6767 44.44 25.2583C44.8637 24.8398 45.0989 24.2752 45.0943 23.6895V19.9033C45.0989 19.3165 44.8637 18.7519 44.44 18.3346C44.0164 17.9161 43.4386 17.6781 42.8334 17.6725L42.8357 17.6714Z" fill="#124267"/>
<path d="M21.4862 26.2302C19.5644 26.4959 17.8082 27.4303 16.5464 28.8584C15.2835 30.2877 14.6006 32.1132 14.6258 33.9942C14.628 34.2875 14.6497 34.5809 14.6909 34.8721H13.6266C11.8419 34.8721 10.193 35.7954 9.30005 37.2944C8.4071 38.7934 8.4071 40.6389 9.30005 42.1379C10.1919 43.6369 11.8419 44.5602 13.6266 44.5602H14.1268V49.4037H8.91981C8.6115 48.7184 7.99374 48.2091 7.24695 48.0253C6.50017 47.8416 5.70656 48.0021 5.09794 48.4604C4.48932 48.9188 4.13306 49.6251 4.13306 50.3724C4.13306 51.1196 4.48932 51.8249 5.09794 52.2843C5.70656 52.7437 6.50017 52.9032 7.24695 52.7194C7.99374 52.5356 8.6115 52.0263 8.91981 51.3411H15.127C15.6786 51.3411 16.1262 50.9071 16.1262 50.3724V44.5602H19.1236V53.4844C18.4168 53.7833 17.8915 54.3822 17.702 55.1063C17.5124 55.8303 17.678 56.5997 18.1507 57.1898C18.6235 57.7799 19.352 58.1253 20.1228 58.1253C20.8935 58.1253 21.6209 57.7799 22.0948 57.1898C22.5687 56.5997 22.7331 55.8303 22.5435 55.1063C22.354 54.3822 21.8287 53.7833 21.1219 53.4844V44.5602H24.1193V57.3592C23.4125 57.6581 22.8872 58.257 22.6977 58.981C22.5081 59.7051 22.6737 60.4745 23.1465 61.0646C23.6192 61.6547 24.3477 62.0001 25.1185 62.0001C25.8892 62.0001 26.6166 61.6547 27.0905 61.0646C27.5644 60.4745 27.7288 59.7051 27.5392 58.981C27.3497 58.257 26.8244 57.6581 26.1176 57.3592V44.5602H29.115V50.3724C29.115 50.9071 29.5627 51.3411 30.1142 51.3411H36.3214C36.6297 52.0263 37.2475 52.5356 37.9943 52.7194C38.7411 52.9032 39.5347 52.7426 40.1433 52.2843C40.7519 51.826 41.1082 51.1196 41.1082 50.3724C41.1082 49.6251 40.7519 48.9199 40.1433 48.4604C39.5347 48.001 38.7411 47.8416 37.9943 48.0253C37.2475 48.2091 36.6297 48.7184 36.3214 49.4037H31.1133V44.5602H31.6135C33.3982 44.5602 35.0471 43.6369 35.94 42.1379C36.833 40.6389 36.833 38.7934 35.94 37.2944C35.0482 35.7954 33.3982 34.8721 31.6135 34.8721L30.5504 34.8898C30.5926 34.5621 30.6143 34.2333 30.6143 33.9034C30.6143 31.6571 29.6072 29.5204 27.8578 28.048C26.1073 26.5756 23.7836 25.9125 21.4896 26.2291L21.4862 26.2302ZM6.63148 50.8562C6.42937 50.8562 6.24781 50.7377 6.17017 50.5572C6.09252 50.3757 6.13591 50.1676 6.27864 50.0292C6.42138 49.8908 6.63605 49.8498 6.82332 49.924C7.00944 49.9993 7.13163 50.1753 7.13163 50.3713C7.13163 50.6381 6.90782 50.8562 6.63148 50.8562ZM20.1193 56.1834C19.9172 56.1834 19.7357 56.065 19.658 55.8845C19.5804 55.703 19.6238 55.4948 19.7665 55.3565C19.9092 55.2181 20.1239 55.1771 20.3112 55.2513C20.4973 55.3266 20.6195 55.5026 20.6195 55.6985C20.6195 55.9653 20.3957 56.1834 20.1193 56.1834ZM25.115 60.0582C24.9129 60.0582 24.7314 59.9398 24.6537 59.7593C24.5761 59.5778 24.6195 59.3696 24.7622 59.2312C24.9049 59.0929 25.1196 59.0519 25.3069 59.1261C25.493 59.2014 25.6152 59.3774 25.6152 59.5733C25.6152 59.8401 25.3914 60.0582 25.115 60.0582ZM38.6029 49.8864C38.805 49.8864 38.9866 50.0048 39.0642 50.1853C39.1419 50.3668 39.0985 50.575 38.9557 50.7133C38.813 50.8517 38.5983 50.8927 38.4111 50.8185C38.2249 50.7432 38.1028 50.5672 38.1028 50.3713C38.1028 50.1045 38.3266 49.8864 38.6029 49.8864Z" fill="#124267"/>
<path d="M7.99872 35.6935C4.48288 32.2338 2.40352 27.6394 2.1603 22.7882H9.74008C9.8006 26.3419 10.4206 29.8658 11.5796 33.2369C11.9359 33.1295 12.3002 33.0498 12.669 32.9988C12.7318 32.3722 12.8574 31.7523 13.0447 31.1489C12.2465 28.4266 11.8057 25.6179 11.7361 22.7882H21.6179V24.2684C22.2825 24.2053 22.9516 24.2075 23.6162 24.2728V1.0163C23.6162 0.603361 23.3433 0.236916 22.9402 0.104066C22.8032 0.0365338 22.6524 0.00110708 22.4994 0C22.1431 0.00221417 21.788 0.0276771 21.4352 0.0774958C15.5728 0.365338 10.0598 2.87067 6.07922 7.05434C2.09978 11.238 -0.0298163 16.7668 0.147175 22.4561C0.324165 28.1454 2.79404 33.5402 7.02812 37.4836C7.25764 36.8426 7.58536 36.2404 7.99872 35.6935ZM11.7315 20.8508C11.7989 17.4056 12.4303 13.9913 13.6019 10.7376C16.2237 11.3819 18.9139 11.724 21.619 11.7572V20.8508H11.7315ZM21.619 2.01268V9.81983C19.1731 9.7844 16.7398 9.4866 14.3613 8.93195C16.1723 5.07376 18.7563 2.46215 21.619 2.01268ZM12.3698 8.35737C11.2554 7.99757 10.2037 7.47613 9.25022 6.81188C11.1846 5.19222 13.4135 3.93679 15.824 3.11201C14.3738 4.6575 13.2057 6.43105 12.3698 8.35737ZM7.78633 8.16253C8.9499 9.02605 10.2516 9.69694 11.6402 10.1486C10.4298 13.5972 9.7869 17.2085 9.73437 20.8519H2.1603C2.39896 16.1036 4.3961 11.5989 7.78519 8.16363L7.78633 8.16253Z" fill="#124267"/>
</g>
<defs>
<clipPath id="clip0_63_403">
<rect width="44.9614" height="62" fill="white" transform="translate(0.136963)"/>
</clipPath>
</defs>
</svg>
