<svg width="30" height="30" viewBox="0 0 30 30" fill="none" xmlns="http://www.w3.org/2000/svg">
<path fill-rule="evenodd" clip-rule="evenodd" d="M14.8068 0C22.9789 0 29.6137 6.63474 29.6137 14.8068C29.6137 22.9789 22.9789 29.6137 14.8068 29.6137C6.63474 29.6137 0 22.9789 0 14.8068C0 6.63474 6.63474 0 14.8068 0ZM12.0972 22.6174C18.664 22.6174 22.2547 17.1759 22.2547 12.46C22.2547 12.3045 22.2547 12.149 22.2473 12.0009C22.9432 11.4975 23.5503 10.8682 24.0315 10.1501C23.3948 10.4314 22.7063 10.6239 21.9808 10.7127C22.7211 10.2685 23.2838 9.57262 23.5503 8.73603C22.8618 9.14322 22.0992 9.43936 21.2848 9.60223C20.6333 8.90631 19.7079 8.47691 18.6788 8.47691C16.7095 8.47691 15.1104 10.0761 15.1104 12.0454C15.1104 12.3267 15.14 12.6006 15.2066 12.8597C12.2379 12.7117 9.60964 11.2902 7.84762 9.12842C7.54408 9.65406 7.3664 10.2685 7.3664 10.92C7.3664 12.1564 7.99569 13.2521 8.95814 13.8888C8.37327 13.874 7.82541 13.7111 7.34419 13.4446V13.489C7.34419 15.2214 8.57316 16.6577 10.2093 16.9908C9.91318 17.0723 9.59483 17.1167 9.26908 17.1167C9.03957 17.1167 8.81747 17.0945 8.59537 17.0501C9.04698 18.4715 10.3648 19.5006 11.9269 19.5302C10.7053 20.4853 9.16543 21.0553 7.49226 21.0553C7.20353 21.0553 6.9222 21.0405 6.64087 21.0035C8.20299 22.0252 10.0835 22.6174 12.0972 22.6174Z" fill="#00ACEE"/>
</svg>
