<svg width="60" height="60" viewBox="0 0 60 60" fill="none" xmlns="http://www.w3.org/2000/svg">
<g clip-path="url(#clip0_63_620)">
<path d="M48.7592 0C42.0611 0 37.5256 5.6553 37.5146 11.2372C37.5072 14.988 39.0988 17.3312 40.5487 19.0485C41.2737 19.9071 41.9558 20.632 42.4182 21.319C42.6877 21.7194 42.9741 22.0977 43.092 22.5018C42.629 22.5676 42.2103 22.8301 42.1967 23.4302C42.1986 23.9452 42.6081 24.3638 43.1342 24.3658C43.0884 25.5953 43.1305 26.8703 43.1305 28.1158C43.1305 28.901 43.4944 29.5843 43.9966 30.0824C44.4988 30.5805 45.1751 30.9265 45.9485 30.9265V31.8695C45.9485 33.4117 47.2169 34.6783 48.7592 34.6783C50.3014 34.6783 51.5753 33.4117 51.5753 31.8695V30.9265C52.3487 30.9265 53.0177 30.5805 53.5199 30.0824C54.0221 29.5843 54.386 28.901 54.386 28.1158C54.3875 26.8724 54.3966 25.5965 54.386 24.3658C54.9102 24.3679 55.3251 23.9481 55.3272 23.4302C55.3288 22.8038 54.8951 22.5624 54.4299 22.4982C54.5499 22.0948 54.8366 21.7187 55.1056 21.319C55.568 20.632 56.2501 19.9071 56.9751 19.0485C58.425 17.3312 60 15.0848 60 11.2372C60 5.60387 55.6024 0 48.7592 0ZM2.42249 1.86035C1.09583 1.86035 0 2.95802 0 4.28467V14.4397C0 15.7663 1.09583 16.8604 2.42249 16.8604H12.5757C13.9023 16.8604 15 15.7663 15 14.4397V11.5521C15.0021 11.0342 14.584 10.613 14.0662 10.611C13.5483 10.613 13.1303 11.0342 13.1323 11.5521V14.4397C13.1323 14.7598 12.8958 14.9854 12.5757 14.9854H2.42249C2.10235 14.9854 1.875 14.7598 1.875 14.4397V4.28467C1.875 3.96455 2.10236 3.73718 2.42249 3.73718H9.68994C10.2093 3.73618 10.6287 3.3135 10.6256 2.79419C10.6236 2.27846 10.2057 1.86136 9.68994 1.86035H2.42249ZM48.7592 1.875C54.4301 1.875 58.125 6.5035 58.125 11.2372C58.125 14.3294 56.8982 16.2366 55.5414 17.8436C54.863 18.6471 54.1375 19.3894 53.5474 20.2661C53.1133 20.9109 52.6696 21.6513 52.511 22.489L45.0092 22.4909C44.8525 21.6531 44.4086 20.9109 43.9746 20.2661C43.3845 19.3894 42.6608 18.6471 41.9824 17.8436C40.6256 16.2366 39.3983 14.2843 39.3842 11.2372C39.3629 6.67082 43.0958 1.875 48.7592 1.875ZM49.6985 3.72986C47.4199 3.71356 45.3258 4.99676 44.1833 7.01843C43.9244 7.48258 44.0918 8.06853 44.5569 8.32581C45.021 8.58477 45.607 8.41736 45.8643 7.95227C46.6653 6.51332 48.1262 5.6488 49.7003 5.6488C50.2303 5.64667 50.658 5.21563 50.6561 4.68567C50.653 4.15928 50.255 3.72986 49.6985 3.72986ZM12.1893 4.67285C11.9397 4.67289 11.7006 4.77236 11.5247 4.94934L7.50366 8.97034L5.35217 6.82434C4.98641 6.46068 4.39407 6.46068 4.02832 6.82434C3.65977 7.19094 3.65977 7.78709 4.02832 8.15369L6.83899 10.9625C7.2056 11.331 7.80172 11.331 8.16833 10.9625L12.854 6.27869C13.2226 5.91209 13.2226 5.31594 12.854 4.94934C12.678 4.77236 12.4389 4.67289 12.1893 4.67285ZM17.818 4.67285C17.2965 4.6698 16.873 5.09255 16.875 5.61401C16.8771 6.13261 17.2994 6.55089 17.818 6.54785H26.2555C26.7734 6.54988 27.1946 6.13189 27.1967 5.61401C27.1987 5.09327 26.7762 4.67081 26.2555 4.67285H17.818ZM17.818 8.42285C17.2965 8.41979 16.873 8.84255 16.875 9.36401C16.8771 9.88261 17.2994 10.3009 17.818 10.2979H30.0055C30.5205 10.2959 30.9392 9.87903 30.9412 9.36401C30.9432 8.84614 30.5234 8.42487 30.0055 8.42285H17.818ZM43.1342 9.36218C42.6163 9.36218 42.1967 9.78181 42.1967 10.2997C42.1967 10.8176 42.6163 11.2372 43.1342 11.2372C43.652 11.2372 44.0717 10.8176 44.0717 10.2997C44.0717 9.78181 43.652 9.36218 43.1342 9.36218ZM54.4409 10.2979C54.1927 10.2836 53.949 10.3686 53.7634 10.5341L49.1125 14.6741L46.571 12.4091C46.1825 12.0676 45.5911 12.1053 45.249 12.4933C44.9065 12.8791 44.94 13.4708 45.3241 13.8153L48.49 16.626C48.8452 16.9414 49.3799 16.9414 49.7351 16.626L55.0085 11.9385C55.3938 11.5938 55.4274 11.0026 55.0836 10.6165C54.9201 10.4292 54.689 10.3147 54.4409 10.2979ZM17.818 12.1747C17.2965 12.1716 16.873 12.5962 16.875 13.1177C16.8771 13.6363 17.2994 14.0546 17.818 14.0515H34.693C35.2109 14.0536 35.6321 13.6356 35.6342 13.1177C35.6362 12.5969 35.2137 12.1726 34.693 12.1747H17.818ZM29.0643 18.7372C25.4503 18.7372 22.5037 21.693 22.5037 25.307C22.5037 27.2478 23.354 28.9963 24.7009 30.1996C21.2989 30.9929 18.7518 33.9851 18.7518 37.5714V45.9265H10.3125C9.79464 45.9286 9.37669 46.3498 9.37866 46.8677V52.4048C9.37869 52.7291 9.5462 53.0302 9.82178 53.2013L15 56.4294V59.057C14.997 59.5784 15.4197 60.002 15.9412 60H42.1967C42.7152 59.9979 43.1335 59.5756 43.1305 59.057V56.4642L48.2959 53.465C48.5837 53.2962 48.76 52.9874 48.7592 52.6538V46.8677C48.7611 46.3498 48.3432 45.9286 47.8253 45.9265L36.5625 45.9375L36.5552 42.8101C36.7969 43.1227 37.0244 43.1229 37.2583 43.125H44.0625C45.6309 43.125 46.875 41.8795 46.875 40.3125C46.875 38.7455 45.6309 37.5 44.0625 37.5L40.5817 37.5073C38.5588 35.5759 36.9583 32.4931 34.9072 30.9485C34.4807 30.6349 33.9849 30.3955 33.3948 30.2344C34.7659 29.0302 35.6342 27.2663 35.6342 25.307C35.6342 21.693 32.6784 18.7372 29.0643 18.7372ZM2.42249 20.6122C1.09583 20.6122 0 21.7098 0 23.0365V33.197C0 34.5237 1.09583 35.6195 2.42249 35.6195H12.5757C13.9023 35.6195 15 34.5237 15 33.197V30.304C14.998 29.7889 14.5812 29.3703 14.0662 29.3683C13.5511 29.3703 13.1343 29.7889 13.1323 30.304V33.197C13.1323 33.5171 12.8958 33.7445 12.5757 33.7445H2.42249C2.10235 33.7445 1.875 33.5171 1.875 33.197V23.0365C1.875 22.7164 2.10236 22.489 2.42249 22.489H9.68994C10.2057 22.488 10.6236 22.0709 10.6256 21.5552C10.6277 21.0366 10.2085 20.6132 9.68994 20.6122H2.42249ZM29.0643 20.6122C31.6648 20.6122 33.7592 22.7065 33.7592 25.307C33.7592 27.9075 31.6648 29.9908 29.0643 29.9908C26.4638 29.9908 24.3787 27.9075 24.3787 25.307C24.3787 22.7065 26.4638 20.6122 29.0643 20.6122ZM12.1893 23.4247C11.9397 23.4247 11.7006 23.5242 11.5247 23.7012L7.50366 27.7277L5.35217 25.5762C4.98641 25.2125 4.39407 25.2125 4.02832 25.5762C3.65977 25.9428 3.65977 26.5389 4.02832 26.9055L6.83899 29.7144C7.2056 30.0829 7.80172 30.0829 8.16833 29.7144L12.854 25.0287C13.2213 24.6623 13.2213 24.0676 12.854 23.7012C12.678 23.5242 12.4389 23.4247 12.1893 23.4247ZM26.4972 31.8695H31.3641C32.7032 31.8695 33.2977 32.0884 33.7994 32.4573C34.3011 32.8262 34.8194 33.3395 35.5554 34.2371L39.3787 39.0125C39.5576 39.2281 39.8583 39.3834 40.1385 39.3823L44.0625 39.375C44.6489 39.375 44.9982 39.7772 44.9982 40.3125C44.9982 40.8478 44.6489 41.25 44.0625 41.25H37.6392L34.9951 38.6664C34.6252 38.3026 34.0304 38.3084 33.6676 38.6792C33.3026 39.0493 33.3084 39.6473 33.6804 40.0104L34.693 41.0889L34.6875 45.9375H25.3125L25.3088 40.3162C25.3109 39.7983 24.8929 39.377 24.375 39.375C23.8543 39.3729 23.4318 39.7954 23.4338 40.3162L23.4375 45.9375L20.6268 45.9265V37.5714C20.6268 34.4083 23.2171 31.8695 26.4972 31.8695Z" fill="#124267"/>
</g>
<defs>
<clipPath id="clip0_63_620">
<rect width="60" height="60" fill="white"/>
</clipPath>
</defs>
</svg>
