<svg width="30" height="30" viewBox="0 0 30 30" fill="none" xmlns="http://www.w3.org/2000/svg">
<path fill-rule="evenodd" clip-rule="evenodd" d="M14.8068 0C22.9789 0 29.6137 6.63474 29.6137 14.8068C29.6137 22.9789 22.9789 29.6137 14.8068 29.6137C6.63474 29.6137 0 22.9789 0 14.8068C0 6.63474 6.63474 0 14.8068 0ZM23.6745 10.3519C23.4616 9.55556 22.8345 8.92852 22.0382 8.71568C20.5946 8.32885 14.8068 8.32885 14.8068 8.32885C14.8068 8.32885 9.01904 8.32885 7.57549 8.71568C6.77933 8.92852 6.15207 9.55556 5.93922 10.3519C5.55256 11.7953 5.55256 14.807 5.55256 14.807C5.55256 14.807 5.55256 17.8185 5.93922 19.2617C6.15207 20.0581 6.77933 20.6854 7.57549 20.8982C9.01904 21.2848 14.8068 21.2848 14.8068 21.2848C14.8068 21.2848 20.5946 21.2848 22.0382 20.8982C22.8345 20.6854 23.4616 20.0581 23.6745 19.2617C24.0611 17.8185 24.0611 14.807 24.0611 14.807C24.0611 14.807 24.0611 11.7953 23.6745 10.3519ZM12.9559 17.5833V12.0306L17.7645 14.807L12.9559 17.5833Z" fill="#FF0000"/>
</svg>
