<svg xmlns="http://www.w3.org/2000/svg" width="287" height="69" viewBox="0 0 287 69" fill="none"><path d="M2.36884 42.3756V13.7379H5.626L6.47202 15.853C7.28984 15.0351 8.22045 14.4006 9.26387 13.9494C10.3355 13.4982 11.534 13.2726 12.8594 13.2726C14.2695 13.2726 15.5667 13.5546 16.7511 14.1186C17.9637 14.6544 19.0072 15.4018 19.8814 16.3606C20.7556 17.3194 21.4324 18.4474 21.9118 19.7446C22.4194 21.0419 22.6732 22.4237 22.6732 23.8901C22.6732 25.3565 22.4194 26.7384 21.9118 28.0356C21.4324 29.3328 20.7556 30.4608 19.8814 31.4197C19.0072 32.3785 17.9637 33.1399 16.7511 33.7039C15.5667 34.2397 14.2695 34.5076 12.8594 34.5076C11.4776 34.5076 10.265 34.282 9.22157 33.8308C8.17815 33.3514 7.26163 32.6746 6.47202 31.8004V42.3756H2.36884ZM12.521 16.9951C11.7032 16.9951 10.9277 17.1361 10.1945 17.4181C9.46128 17.6719 8.81266 18.0949 8.24865 18.6871C7.71284 19.2511 7.28984 19.9702 6.97963 20.8445C6.66942 21.6905 6.51432 22.7057 6.51432 23.8901C6.51432 25.1591 6.66942 26.2449 6.97963 27.1473C7.28984 28.0215 7.71284 28.7406 8.24865 29.3046C8.81266 29.8404 9.46128 30.2352 10.1945 30.489C10.9277 30.7428 11.7032 30.8697 12.521 30.8697C13.3388 30.8697 14.1144 30.6864 14.8476 30.3198C15.5808 29.9532 16.2153 29.4597 16.7511 28.8393C17.2869 28.1907 17.7099 27.4434 18.0201 26.5974C18.3303 25.7513 18.4854 24.8489 18.4854 23.8901C18.4854 22.9313 18.3303 22.0289 18.0201 21.1829C17.7099 20.3368 17.2869 19.6036 16.7511 18.9832C16.2153 18.3628 15.5808 17.8834 14.8476 17.545C14.1144 17.1784 13.3388 16.9951 12.521 16.9951ZM30.5603 3.12043V34H26.4572V3.12043H30.5603ZM54.4143 13.7379V34H50.9457L50.3112 31.6735C49.6061 32.6041 48.7037 33.3091 47.6039 33.7885C46.5041 34.2679 45.3902 34.5076 44.2621 34.5076C42.8521 34.5076 41.5267 34.2397 40.2859 33.7039C39.0733 33.1399 38.0016 32.3785 37.071 31.4197C36.1686 30.4608 35.4495 29.3328 34.9137 28.0356C34.3779 26.7384 34.11 25.3565 34.11 23.8901C34.11 22.4237 34.3779 21.0419 34.9137 19.7446C35.4495 18.4474 36.1686 17.3194 37.071 16.3606C38.0016 15.4018 39.0733 14.6544 40.2859 14.1186C41.5267 13.5546 42.8521 13.2726 44.2621 13.2726C45.3902 13.2726 46.4759 13.4982 47.5193 13.9494C48.5627 14.3724 49.4933 15.0492 50.3112 15.9799L50.9457 13.7379H54.4143ZM44.2621 30.8697C45.08 30.8697 45.8555 30.6864 46.5887 30.3198C47.3219 29.9532 47.9564 29.4597 48.4922 28.8393C49.028 28.1907 49.451 27.4434 49.7613 26.5974C50.0715 25.7513 50.2266 24.8489 50.2266 23.8901C50.2266 22.9313 50.0715 22.0289 49.7613 21.1829C49.451 20.3368 49.028 19.6036 48.4922 18.9832C47.9564 18.3346 47.3219 17.827 46.5887 17.4604C45.8555 17.0938 45.08 16.9105 44.2621 16.9105C43.4443 16.9105 42.6688 17.0938 41.9356 17.4604C41.2024 17.827 40.5679 18.3346 40.0321 18.9832C39.4963 19.6036 39.0733 20.3368 38.763 21.1829C38.4528 22.0289 38.2977 22.9313 38.2977 23.8901C38.2977 24.8489 38.4528 25.7513 38.763 26.5974C39.0733 27.4434 39.4963 28.1907 40.0321 28.8393C40.5679 29.4597 41.2024 29.9532 41.9356 30.3198C42.6688 30.6864 43.4443 30.8697 44.2621 30.8697ZM67.8971 34.5076C66.487 34.5076 65.1616 34.2397 63.9208 33.7039C62.7082 33.1399 61.6365 32.3785 60.7059 31.4197C59.8035 30.4608 59.0844 29.3328 58.5486 28.0356C58.0128 26.7384 57.7449 25.3565 57.7449 23.8901C57.7449 22.4237 58.0128 21.0419 58.5486 19.7446C59.0844 18.4474 59.8035 17.3194 60.7059 16.3606C61.6365 15.4018 62.7082 14.6544 63.9208 14.1186C65.1616 13.5546 66.487 13.2726 67.8971 13.2726C69.5327 13.2726 71.0414 13.6392 72.4232 14.3724C73.8051 15.1057 74.9613 16.1068 75.8919 17.3758L73.0154 19.6177C72.4514 18.7999 71.7323 18.1654 70.8581 17.7142C70.0121 17.2348 69.0956 16.9951 68.1086 16.9951C67.2625 16.9951 66.4588 17.1784 65.6974 17.545C64.936 17.8834 64.2733 18.3628 63.7093 18.9832C63.1453 19.6036 62.6941 20.3368 62.3556 21.1829C62.0454 22.0289 61.8903 22.9313 61.8903 23.8901C61.8903 24.8489 62.0454 25.7513 62.3556 26.5974C62.6941 27.4434 63.1453 28.1907 63.7093 28.8393C64.2733 29.4597 64.936 29.9532 65.6974 30.3198C66.4588 30.6864 67.2625 30.8697 68.1086 30.8697C69.2084 30.8697 70.2095 30.5736 71.1119 29.9814C72.0143 29.3892 72.7475 28.5996 73.3116 27.6126L76.1034 30.066C75.201 31.4197 74.0307 32.5054 72.5924 33.3232C71.1542 34.1128 69.5891 34.5076 67.8971 34.5076ZM89.674 34.5076C88.2076 34.5076 86.8258 34.2397 85.5285 33.7039C84.2595 33.1399 83.1456 32.3785 82.1868 31.4197C81.228 30.4608 80.4665 29.3328 79.9025 28.0356C79.3667 26.7384 79.0988 25.3565 79.0988 23.8901C79.0988 22.4237 79.3526 21.0419 79.8602 19.7446C80.396 18.4474 81.1011 17.3194 81.9753 16.3606C82.8777 15.4018 83.9211 14.6544 85.1055 14.1186C86.29 13.5546 87.559 13.2726 88.9126 13.2726C90.2944 13.2726 91.5635 13.5123 92.7197 13.9917C93.9041 14.4711 94.9193 15.2185 95.7653 16.2337C96.6395 17.2489 97.3164 18.5461 97.7958 20.1253C98.2752 21.6764 98.5149 23.5376 98.5149 25.709H83.4558C83.6532 26.4423 83.9634 27.1332 84.3864 27.7818C84.8094 28.4022 85.3029 28.9521 85.8669 29.4315C86.4592 29.8827 87.1078 30.2352 87.8128 30.489C88.546 30.7428 89.3074 30.8697 90.097 30.8697C91.1686 30.8697 92.1557 30.6723 93.0581 30.2775C93.9887 29.8827 94.7783 29.361 95.4269 28.7124L97.965 31.2504C96.978 32.2375 95.7653 33.0271 94.3271 33.6193C92.9171 34.2115 91.366 34.5076 89.674 34.5076ZM88.9126 16.9951C88.264 16.9951 87.6436 17.122 87.0514 17.3758C86.4874 17.6296 85.9515 17.9821 85.4439 18.4333C84.9645 18.8845 84.5415 19.4203 84.1749 20.0407C83.8365 20.6612 83.5827 21.338 83.4135 22.0712H94.1156C94.0592 21.3944 93.9041 20.7458 93.6503 20.1253C93.3965 19.5049 93.044 18.9691 92.5928 18.5179C92.1416 18.0385 91.6058 17.6719 90.9853 17.4181C90.3931 17.1361 89.7022 16.9951 88.9126 16.9951ZM203.202 31.8004C203.202 31.0671 203.456 30.4467 203.963 29.9391C204.471 29.4033 205.091 29.1354 205.825 29.1354C206.558 29.1354 207.178 29.4033 207.686 29.9391C208.194 30.4467 208.447 31.0671 208.447 31.8004C208.447 32.5336 208.194 33.154 207.686 33.6616C207.178 34.1692 206.558 34.423 205.825 34.423C205.091 34.423 204.471 34.1692 203.963 33.6616C203.456 33.154 203.202 32.5336 203.202 31.8004Z" fill="#F97330"></path><path d="M111.386 34.5076C109.976 34.5076 108.65 34.2397 107.41 33.7039C106.197 33.1399 105.125 32.3785 104.195 31.4197C103.292 30.4608 102.573 29.3328 102.037 28.0356C101.502 26.7384 101.234 25.3565 101.234 23.8901C101.234 22.4237 101.502 21.0419 102.037 19.7446C102.573 18.4474 103.292 17.3194 104.195 16.3606C105.125 15.4018 106.197 14.6544 107.41 14.1186C108.65 13.5546 109.976 13.2726 111.386 13.2726C112.768 13.2726 114.079 13.5546 115.32 14.1186C116.561 14.6544 117.632 15.4018 118.535 16.3606C119.465 17.3194 120.199 18.4474 120.734 19.7446C121.27 21.0419 121.538 22.4237 121.538 23.8901C121.538 25.3565 121.27 26.7384 120.734 28.0356C120.199 29.3328 119.465 30.4608 118.535 31.4197C117.632 32.3785 116.561 33.1399 115.32 33.7039C114.079 34.2397 112.768 34.5076 111.386 34.5076ZM111.386 16.9528C110.568 16.9528 109.793 17.1361 109.059 17.5027C108.326 17.8693 107.678 18.3628 107.114 18.9832C106.578 19.6036 106.155 20.3368 105.844 21.1829C105.534 22.0289 105.379 22.9313 105.379 23.8901C105.379 24.8489 105.534 25.7513 105.844 26.5974C106.155 27.4434 106.578 28.1907 107.114 28.8393C107.678 29.4597 108.326 29.9532 109.059 30.3198C109.793 30.6864 110.568 30.8697 111.386 30.8697C112.204 30.8697 112.979 30.6864 113.712 30.3198C114.446 29.9532 115.08 29.4597 115.616 28.8393C116.152 28.1907 116.575 27.4434 116.885 26.5974C117.195 25.7513 117.35 24.8489 117.35 23.8901C117.35 22.9313 117.195 22.0289 116.885 21.1829C116.575 20.3368 116.152 19.6036 115.616 18.9832C115.08 18.3628 114.446 17.8693 113.712 17.5027C112.979 17.1361 112.204 16.9528 111.386 16.9528ZM137.076 17.5027C136.879 17.4181 136.681 17.3335 136.484 17.2489C136.315 17.1925 136.117 17.1361 135.892 17.0797C135.666 17.0233 135.426 16.9951 135.172 16.9951C134.355 16.9951 133.593 17.1361 132.888 17.4181C132.183 17.6719 131.577 18.0244 131.069 18.4756C130.562 18.9268 130.153 19.4626 129.843 20.083C129.561 20.6753 129.42 21.3098 129.42 21.9866L129.377 34H125.274V13.7379H128.531L129.377 15.9799C129.941 15.1621 130.674 14.5134 131.577 14.034C132.508 13.5264 133.664 13.2726 135.046 13.2726C135.948 13.2726 136.977 13.3995 138.134 13.6533L137.076 17.5027ZM160.212 3.12043V34H156.954L156.108 31.885C155.291 32.7028 154.36 33.3514 153.317 33.8308C152.273 34.282 151.075 34.5076 149.721 34.5076C148.311 34.5076 147.014 34.2397 145.829 33.7039C144.645 33.1399 143.616 32.3785 142.741 31.4197C141.867 30.4608 141.176 29.3328 140.669 28.0356C140.189 26.7384 139.949 25.3565 139.949 23.8901C139.949 22.4237 140.189 21.0419 140.669 19.7446C141.176 18.4474 141.867 17.3194 142.741 16.3606C143.616 15.4018 144.645 14.6544 145.829 14.1186C147.014 13.5546 148.311 13.2726 149.721 13.2726C151.131 13.2726 152.358 13.5123 153.401 13.9917C154.445 14.4429 155.347 15.0916 156.108 15.9376V3.12043H160.212ZM150.059 30.8697C150.905 30.8697 151.681 30.7287 152.386 30.4467C153.119 30.1647 153.754 29.7417 154.289 29.1777C154.853 28.5855 155.291 27.8523 155.601 26.9781C155.911 26.1039 156.066 25.0745 156.066 23.8901C156.066 22.6211 155.911 21.5495 155.601 20.6753C155.291 19.801 154.853 19.096 154.289 18.5602C153.754 17.9962 153.119 17.6014 152.386 17.3758C151.681 17.122 150.905 16.9951 150.059 16.9951C149.242 16.9951 148.466 17.1784 147.733 17.545C147 17.8834 146.365 18.3628 145.829 18.9832C145.293 19.6036 144.87 20.3368 144.56 21.1829C144.25 22.0289 144.095 22.9313 144.095 23.8901C144.095 24.8489 144.25 25.7513 144.56 26.5974C144.87 27.4434 145.293 28.1907 145.829 28.8393C146.365 29.4597 147 29.9532 147.733 30.3198C148.466 30.6864 149.242 30.8697 150.059 30.8697ZM174.937 34.5076C173.47 34.5076 172.088 34.2397 170.791 33.7039C169.522 33.1399 168.408 32.3785 167.449 31.4197C166.49 30.4608 165.729 29.3328 165.165 28.0356C164.629 26.7384 164.361 25.3565 164.361 23.8901C164.361 22.4237 164.615 21.0419 165.123 19.7446C165.659 18.4474 166.364 17.3194 167.238 16.3606C168.14 15.4018 169.184 14.6544 170.368 14.1186C171.552 13.5546 172.821 13.2726 174.175 13.2726C175.557 13.2726 176.826 13.5123 177.982 13.9917C179.167 14.4711 180.182 15.2185 181.028 16.2337C181.902 17.2489 182.579 18.5461 183.058 20.1253C183.538 21.6764 183.777 23.5376 183.777 25.709H168.718C168.916 26.4423 169.226 27.1332 169.649 27.7818C170.072 28.4022 170.565 28.9521 171.129 29.4315C171.722 29.8827 172.37 30.2352 173.075 30.489C173.809 30.7428 174.57 30.8697 175.36 30.8697C176.431 30.8697 177.418 30.6723 178.321 30.2775C179.251 29.8827 180.041 29.361 180.689 28.7124L183.227 31.2504C182.24 32.2375 181.028 33.0271 179.59 33.6193C178.18 34.2115 176.629 34.5076 174.937 34.5076ZM174.175 16.9951C173.527 16.9951 172.906 17.122 172.314 17.3758C171.75 17.6296 171.214 17.9821 170.706 18.4333C170.227 18.8845 169.804 19.4203 169.437 20.0407C169.099 20.6612 168.845 21.338 168.676 22.0712H179.378C179.322 21.3944 179.167 20.7458 178.913 20.1253C178.659 19.5049 178.306 18.9691 177.855 18.5179C177.404 18.0385 176.868 17.6719 176.248 17.4181C175.656 17.1361 174.965 16.9951 174.175 16.9951ZM199.99 17.5027C199.793 17.4181 199.595 17.3335 199.398 17.2489C199.229 17.1925 199.031 17.1361 198.806 17.0797C198.58 17.0233 198.34 16.9951 198.087 16.9951C197.269 16.9951 196.507 17.1361 195.802 17.4181C195.097 17.6719 194.491 18.0244 193.983 18.4756C193.476 18.9268 193.067 19.4626 192.757 20.083C192.475 20.6753 192.334 21.3098 192.334 21.9866L192.291 34H188.188V13.7379H191.445L192.291 15.9799C192.855 15.1621 193.589 14.5134 194.491 14.034C195.422 13.5264 196.578 13.2726 197.96 13.2726C198.862 13.2726 199.891 13.3995 201.048 13.6533L199.99 17.5027ZM223.179 34.5076C221.769 34.5076 220.443 34.2397 219.203 33.7039C217.99 33.1399 216.918 32.3785 215.988 31.4197C215.085 30.4608 214.366 29.3328 213.83 28.0356C213.295 26.7384 213.027 25.3565 213.027 23.8901C213.027 22.4237 213.295 21.0419 213.83 19.7446C214.366 18.4474 215.085 17.3194 215.988 16.3606C216.918 15.4018 217.99 14.6544 219.203 14.1186C220.443 13.5546 221.769 13.2726 223.179 13.2726C224.815 13.2726 226.323 13.6392 227.705 14.3724C229.087 15.1057 230.243 16.1068 231.174 17.3758L228.297 19.6177C227.733 18.7999 227.014 18.1654 226.14 17.7142C225.294 17.2348 224.377 16.9951 223.39 16.9951C222.544 16.9951 221.741 17.1784 220.979 17.545C220.218 17.8834 219.555 18.3628 218.991 18.9832C218.427 19.6036 217.976 20.3368 217.638 21.1829C217.327 22.0289 217.172 22.9313 217.172 23.8901C217.172 24.8489 217.327 25.7513 217.638 26.5974C217.976 27.4434 218.427 28.1907 218.991 28.8393C219.555 29.4597 220.218 29.9532 220.979 30.3198C221.741 30.6864 222.544 30.8697 223.39 30.8697C224.49 30.8697 225.491 30.5736 226.394 29.9814C227.296 29.3892 228.029 28.5996 228.593 27.6126L231.385 30.066C230.483 31.4197 229.313 32.5054 227.874 33.3232C226.436 34.1128 224.871 34.5076 223.179 34.5076ZM244.237 34.5076C242.827 34.5076 241.501 34.2397 240.261 33.7039C239.048 33.1399 237.976 32.3785 237.046 31.4197C236.143 30.4608 235.424 29.3328 234.888 28.0356C234.352 26.7384 234.085 25.3565 234.085 23.8901C234.085 22.4237 234.352 21.0419 234.888 19.7446C235.424 18.4474 236.143 17.3194 237.046 16.3606C237.976 15.4018 239.048 14.6544 240.261 14.1186C241.501 13.5546 242.827 13.2726 244.237 13.2726C245.619 13.2726 246.93 13.5546 248.171 14.1186C249.412 14.6544 250.483 15.4018 251.386 16.3606C252.316 17.3194 253.049 18.4474 253.585 19.7446C254.121 21.0419 254.389 22.4237 254.389 23.8901C254.389 25.3565 254.121 26.7384 253.585 28.0356C253.049 29.3328 252.316 30.4608 251.386 31.4197C250.483 32.3785 249.412 33.1399 248.171 33.7039C246.93 34.2397 245.619 34.5076 244.237 34.5076ZM244.237 16.9528C243.419 16.9528 242.643 17.1361 241.91 17.5027C241.177 17.8693 240.528 18.3628 239.964 18.9832C239.429 19.6036 239.006 20.3368 238.695 21.1829C238.385 22.0289 238.23 22.9313 238.23 23.8901C238.23 24.8489 238.385 25.7513 238.695 26.5974C239.006 27.4434 239.429 28.1907 239.964 28.8393C240.528 29.4597 241.177 29.9532 241.91 30.3198C242.643 30.6864 243.419 30.8697 244.237 30.8697C245.055 30.8697 245.83 30.6864 246.563 30.3198C247.297 29.9532 247.931 29.4597 248.467 28.8393C249.003 28.1907 249.426 27.4434 249.736 26.5974C250.046 25.7513 250.201 24.8489 250.201 23.8901C250.201 22.9313 250.046 22.0289 249.736 21.1829C249.426 20.3368 249.003 19.6036 248.467 18.9832C247.931 18.3628 247.297 17.8693 246.563 17.5027C245.83 17.1361 245.055 16.9528 244.237 16.9528ZM261.805 34H257.702V13.7379H260.959L261.805 15.4723C262.313 14.88 262.919 14.3724 263.624 13.9494C264.329 13.4982 265.189 13.2726 266.204 13.2726C266.599 13.2726 267.036 13.329 267.516 13.4418C268.023 13.5264 268.531 13.6956 269.039 13.9494C269.574 14.175 270.082 14.4993 270.561 14.9223C271.041 15.3172 271.45 15.8389 271.788 16.4875C272.268 15.6133 272.987 14.8659 273.945 14.2455C274.932 13.5969 275.976 13.2726 277.076 13.2726C277.809 13.2726 278.584 13.3854 279.402 13.611C280.22 13.8366 280.982 14.2596 281.687 14.88C282.392 15.5005 282.97 16.3606 283.421 17.4604C283.872 18.5602 284.098 19.9843 284.098 21.7328V34H280.248V21.6905C280.248 19.942 279.882 18.7294 279.148 18.0526C278.443 17.3476 277.499 16.9951 276.314 16.9951C275.412 16.9951 274.622 17.3758 273.945 18.1372C273.269 18.8986 272.93 20.0971 272.93 21.7328V34H269.081V21.6905C269.081 19.942 268.714 18.7294 267.981 18.0526C267.276 17.3476 266.331 16.9951 265.147 16.9951C264.301 16.9951 263.554 17.3194 262.905 17.968C262.285 18.6166 261.918 19.6318 261.805 21.0137V34Z" fill="#1B224B"></path><path d="M2.35795 64.3008H0.511364L5.85227 49.7553H7.67045L13.0114 64.3008H11.1648L6.81818 52.0565H6.70455L2.35795 64.3008ZM3.03977 58.619H10.483V60.1815H3.03977V58.619ZM20.902 64.3008V49.7553H25.8168C26.9531 49.7553 27.8859 49.9495 28.6151 50.3377C29.3442 50.7212 29.884 51.2492 30.2344 51.9215C30.5848 52.5939 30.7599 53.3585 30.7599 54.2156C30.7599 55.0726 30.5848 55.8325 30.2344 56.4954C29.884 57.1583 29.3466 57.6791 28.6222 58.0579C27.8977 58.4319 26.9721 58.619 25.8452 58.619H21.8679V57.0281H25.7884C26.5649 57.0281 27.1899 56.9144 27.6634 56.6871C28.1416 56.4599 28.4872 56.1379 28.7003 55.7212C28.9181 55.2998 29.027 54.7979 29.027 54.2156C29.027 53.6332 28.9181 53.1242 28.7003 52.6886C28.4825 52.253 28.1345 51.9168 27.6562 51.68C27.178 51.4386 26.5459 51.3178 25.7599 51.3178H22.6634V64.3008H20.902ZM27.7486 57.7667L31.3281 64.3008H29.2827L25.7599 57.7667H27.7486ZM36.6779 64.5565C35.9866 64.5565 35.3593 64.4263 34.7958 64.1658C34.2324 63.9007 33.7849 63.5195 33.4535 63.0224C33.122 62.5205 32.9563 61.9144 32.9563 61.2042C32.9563 60.5792 33.0794 60.0726 33.3256 59.6843C33.5719 59.2913 33.9009 58.9835 34.3129 58.761C34.7248 58.5385 35.1793 58.3728 35.6765 58.2638C36.1784 58.1502 36.6826 58.0603 37.1893 57.994C37.8522 57.9087 38.3896 57.8448 38.8015 57.8022C39.2182 57.7549 39.5212 57.6767 39.7106 57.5678C39.9047 57.4589 40.0018 57.2695 40.0018 56.9996V56.9428C40.0018 56.2421 39.81 55.6976 39.4265 55.3093C39.0477 54.921 38.4724 54.7269 37.7006 54.7269C36.9004 54.7269 36.2731 54.9021 35.8185 55.2525C35.364 55.6029 35.0444 55.9769 34.8597 56.3746L33.2688 55.8065C33.5529 55.1436 33.9317 54.6275 34.4052 54.2582C34.8834 53.8841 35.4042 53.6237 35.9677 53.4769C36.5359 53.3254 37.0946 53.2496 37.6438 53.2496C37.9942 53.2496 38.3967 53.2923 38.8512 53.3775C39.3105 53.458 39.7532 53.6261 40.1793 53.8817C40.6102 54.1374 40.9677 54.5233 41.2518 55.0394C41.5359 55.5555 41.6779 56.2468 41.6779 57.1133V64.3008H40.0018V62.8235H39.9165C39.8029 63.0603 39.6135 63.3136 39.3484 63.5835C39.0832 63.8533 38.7305 64.083 38.2901 64.2724C37.8498 64.4618 37.3124 64.5565 36.6779 64.5565ZM36.9336 63.0508C37.5965 63.0508 38.1552 62.9206 38.6097 62.6602C39.069 62.3997 39.4147 62.0636 39.6467 61.6516C39.8834 61.2397 40.0018 60.8065 40.0018 60.3519V58.8178C39.9308 58.9031 39.7745 58.9812 39.533 59.0522C39.2963 59.1185 39.0217 59.1777 38.7092 59.2298C38.4014 59.2771 38.1007 59.3197 37.8072 59.3576C37.5183 59.3907 37.284 59.4192 37.104 59.4428C36.6684 59.4996 36.2612 59.592 35.8825 59.7198C35.5084 59.8429 35.2054 60.0299 34.9734 60.2809C34.7461 60.5271 34.6325 60.8633 34.6325 61.2894C34.6325 61.8718 34.8479 62.3121 35.2788 62.6104C35.7144 62.904 36.266 63.0508 36.9336 63.0508ZM44.7372 68.3917V53.3917H46.3565V55.1246H46.5554C46.6785 54.9353 46.849 54.6938 47.0668 54.4002C47.2893 54.1019 47.6065 53.8368 48.0185 53.6048C48.4351 53.368 48.9986 53.2496 49.7088 53.2496C50.6274 53.2496 51.437 53.4793 52.1378 53.9386C52.8385 54.3978 53.3854 55.0489 53.7784 55.8917C54.1714 56.7345 54.3679 57.7288 54.3679 58.8746C54.3679 60.0299 54.1714 61.0314 53.7784 61.8789C53.3854 62.7217 52.8409 63.3751 52.1449 63.8391C51.4489 64.2984 50.6463 64.5281 49.7372 64.5281C49.0365 64.5281 48.4754 64.4121 48.054 64.18C47.6326 63.9433 47.3082 63.6758 47.081 63.3775C46.8537 63.0745 46.6785 62.8235 46.5554 62.6246H46.4134V68.3917H44.7372ZM46.3849 58.8462C46.3849 59.6701 46.5057 60.3969 46.7472 61.0266C46.9886 61.6516 47.3414 62.1417 47.8054 62.4968C48.2694 62.8472 48.8376 63.0224 49.5099 63.0224C50.2107 63.0224 50.7955 62.8377 51.2642 62.4684C51.7377 62.0943 52.0928 61.5924 52.3295 60.9627C52.571 60.3282 52.6918 59.6228 52.6918 58.8462C52.6918 58.0792 52.5734 57.3879 52.3366 56.7724C52.1046 56.1521 51.7519 55.6621 51.2784 55.3022C50.8097 54.9376 50.2202 54.7553 49.5099 54.7553C48.8281 54.7553 48.2552 54.9281 47.7912 55.2738C47.3272 55.6147 46.9768 56.0929 46.7401 56.7085C46.5033 57.3192 46.3849 58.0318 46.3849 58.8462ZM56.9247 64.3008V53.3917H58.6009V64.3008H56.9247ZM57.777 51.5735C57.4503 51.5735 57.1686 51.4622 56.9318 51.2397C56.6998 51.0172 56.5838 50.7496 56.5838 50.4371C56.5838 50.1246 56.6998 49.8571 56.9318 49.6346C57.1686 49.4121 57.4503 49.3008 57.777 49.3008C58.1037 49.3008 58.383 49.4121 58.6151 49.6346C58.8518 49.8571 58.9702 50.1246 58.9702 50.4371C58.9702 50.7496 58.8518 51.0172 58.6151 51.2397C58.383 51.4622 58.1037 51.5735 57.777 51.5735ZM65.7901 64.5281C64.881 64.5281 64.0785 64.2984 63.3825 63.8391C62.6864 63.3751 62.1419 62.7217 61.7489 61.8789C61.3559 61.0314 61.1594 60.0299 61.1594 58.8746C61.1594 57.7288 61.3559 56.7345 61.7489 55.8917C62.1419 55.0489 62.6888 54.3978 63.3896 53.9386C64.0903 53.4793 64.9 53.2496 65.8185 53.2496C66.5288 53.2496 67.0898 53.368 67.5018 53.6048C67.9184 53.8368 68.2357 54.1019 68.4535 54.4002C68.676 54.6938 68.8488 54.9353 68.9719 55.1246H69.114V49.7553H70.7901V64.3008H69.1708V62.6246H68.9719C68.8488 62.8235 68.6737 63.0745 68.4464 63.3775C68.2191 63.6758 67.8948 63.9433 67.4734 64.18C67.052 64.4121 66.4909 64.5281 65.7901 64.5281ZM66.0174 63.0224C66.6897 63.0224 67.2579 62.8472 67.7219 62.4968C68.186 62.1417 68.5387 61.6516 68.7802 61.0266C69.0217 60.3969 69.1424 59.6701 69.1424 58.8462C69.1424 58.0318 69.024 57.3192 68.7873 56.7085C68.5505 56.0929 68.2002 55.6147 67.7362 55.2738C67.2721 54.9281 66.6992 54.7553 66.0174 54.7553C65.3072 54.7553 64.7153 54.9376 64.2418 55.3022C63.7731 55.6621 63.4203 56.1521 63.1836 56.7724C62.9516 57.3879 62.8356 58.0792 62.8356 58.8462C62.8356 59.6228 62.954 60.3282 63.1907 60.9627C63.4322 61.5924 63.7873 62.0943 64.256 62.4684C64.7295 62.8377 65.3166 63.0224 66.0174 63.0224ZM78.5245 64.5281C77.5397 64.5281 76.6755 64.2937 75.9322 63.8249C75.1935 63.3562 74.6159 62.7004 74.1992 61.8576C73.7873 61.0148 73.5813 60.0299 73.5813 58.9031C73.5813 57.7667 73.7873 56.7747 74.1992 55.9272C74.6159 55.0797 75.1935 54.4215 75.9322 53.9528C76.6755 53.484 77.5397 53.2496 78.5245 53.2496C79.5094 53.2496 80.3711 53.484 81.1097 53.9528C81.8531 54.4215 82.4308 55.0797 82.8427 55.9272C83.2594 56.7747 83.4677 57.7667 83.4677 58.9031C83.4677 60.0299 83.2594 61.0148 82.8427 61.8576C82.4308 62.7004 81.8531 63.3562 81.1097 63.8249C80.3711 64.2937 79.5094 64.5281 78.5245 64.5281ZM78.5245 63.0224C79.2726 63.0224 79.8881 62.8306 80.3711 62.4471C80.854 62.0636 81.2115 61.5593 81.4435 60.9343C81.6755 60.3093 81.7915 59.6322 81.7915 58.9031C81.7915 58.1739 81.6755 57.4944 81.4435 56.8647C81.2115 56.235 80.854 55.726 80.3711 55.3377C79.8881 54.9495 79.2726 54.7553 78.5245 54.7553C77.7764 54.7553 77.1609 54.9495 76.6779 55.3377C76.195 55.726 75.8375 56.235 75.6055 56.8647C75.3735 57.4944 75.2575 58.1739 75.2575 58.9031C75.2575 59.6322 75.3735 60.3093 75.6055 60.9343C75.8375 61.5593 76.195 62.0636 76.6779 62.4471C77.1609 62.8306 77.7764 63.0224 78.5245 63.0224ZM86.0263 64.3008V53.3917H87.6456V55.0394H87.7592C87.9581 54.4996 88.3179 54.0617 88.8388 53.7255C89.3596 53.3893 89.9467 53.2212 90.6001 53.2212C90.7232 53.2212 90.8771 53.2236 91.0618 53.2283C91.2464 53.2331 91.3861 53.2402 91.4808 53.2496V54.9542C91.424 54.94 91.2938 54.9187 91.0902 54.8903C90.8913 54.8571 90.6806 54.8406 90.4581 54.8406C89.9278 54.8406 89.4543 54.9518 89.0376 55.1744C88.6257 55.3922 88.299 55.6952 88.0575 56.0835C87.8208 56.467 87.7024 56.9049 87.7024 57.3974V64.3008H86.0263ZM101.081 49.7553V64.3008H99.32V49.7553H101.081ZM106.062 57.7383V64.3008H104.386V53.3917H106.005V55.0962H106.147C106.403 54.5423 106.791 54.0972 107.312 53.761C107.833 53.4201 108.505 53.2496 109.329 53.2496C110.067 53.2496 110.714 53.4012 111.268 53.7042C111.822 54.0025 112.253 54.457 112.56 55.0678C112.868 55.6739 113.022 56.4409 113.022 57.369V64.3008H111.346V57.4826C111.346 56.6256 111.123 55.958 110.678 55.4798C110.233 54.9968 109.622 54.7553 108.846 54.7553C108.311 54.7553 107.833 54.8713 107.411 55.1033C106.995 55.3353 106.665 55.6739 106.424 56.119C106.183 56.564 106.062 57.1038 106.062 57.7383ZM116.085 64.3008V53.3917H117.761V64.3008H116.085ZM116.937 51.5735C116.61 51.5735 116.329 51.4622 116.092 51.2397C115.86 51.0172 115.744 50.7496 115.744 50.4371C115.744 50.1246 115.86 49.8571 116.092 49.6346C116.329 49.4121 116.61 49.3008 116.937 49.3008C117.264 49.3008 117.543 49.4121 117.775 49.6346C118.012 49.8571 118.13 50.1246 118.13 50.4371C118.13 50.7496 118.012 51.0172 117.775 51.2397C117.543 51.4622 117.264 51.5735 116.937 51.5735ZM125.575 53.3917V54.8121H119.922V53.3917H125.575ZM121.57 50.7781H123.246V61.1758C123.246 61.6493 123.314 62.0044 123.452 62.2411C123.594 62.4731 123.774 62.6294 123.991 62.7099C124.214 62.7856 124.448 62.8235 124.695 62.8235C124.879 62.8235 125.031 62.814 125.149 62.7951C125.268 62.7714 125.362 62.7525 125.433 62.7383L125.774 64.244C125.661 64.2866 125.502 64.3292 125.298 64.3718C125.095 64.4192 124.837 64.4428 124.524 64.4428C124.051 64.4428 123.587 64.341 123.132 64.1374C122.682 63.9338 122.308 63.6237 122.01 63.207C121.716 62.7904 121.57 62.2648 121.57 61.6303V50.7781ZM128.097 64.3008V53.3917H129.773V64.3008H128.097ZM128.949 51.5735C128.622 51.5735 128.34 51.4622 128.104 51.2397C127.872 51.0172 127.756 50.7496 127.756 50.4371C127.756 50.1246 127.872 49.8571 128.104 49.6346C128.34 49.4121 128.622 49.3008 128.949 49.3008C129.276 49.3008 129.555 49.4121 129.787 49.6346C130.024 49.8571 130.142 50.1246 130.142 50.4371C130.142 50.7496 130.024 51.0172 129.787 51.2397C129.555 51.4622 129.276 51.5735 128.949 51.5735ZM136.053 64.5565C135.362 64.5565 134.734 64.4263 134.171 64.1658C133.607 63.9007 133.16 63.5195 132.828 63.0224C132.497 62.5205 132.331 61.9144 132.331 61.2042C132.331 60.5792 132.454 60.0726 132.701 59.6843C132.947 59.2913 133.276 58.9835 133.688 58.761C134.1 58.5385 134.554 58.3728 135.051 58.2638C135.553 58.1502 136.058 58.0603 136.564 57.994C137.227 57.9087 137.765 57.8448 138.176 57.8022C138.593 57.7549 138.896 57.6767 139.086 57.5678C139.28 57.4589 139.377 57.2695 139.377 56.9996V56.9428C139.377 56.2421 139.185 55.6976 138.801 55.3093C138.423 54.921 137.847 54.7269 137.076 54.7269C136.275 54.7269 135.648 54.9021 135.194 55.2525C134.739 55.6029 134.419 55.9769 134.235 56.3746L132.644 55.8065C132.928 55.1436 133.307 54.6275 133.78 54.2582C134.258 53.8841 134.779 53.6237 135.343 53.4769C135.911 53.3254 136.47 53.2496 137.019 53.2496C137.369 53.2496 137.772 53.2923 138.226 53.3775C138.685 53.458 139.128 53.6261 139.554 53.8817C139.985 54.1374 140.343 54.5233 140.627 55.0394C140.911 55.5555 141.053 56.2468 141.053 57.1133V64.3008H139.377V62.8235H139.292C139.178 63.0603 138.989 63.3136 138.723 63.5835C138.458 63.8533 138.105 64.083 137.665 64.2724C137.225 64.4618 136.687 64.5565 136.053 64.5565ZM136.309 63.0508C136.971 63.0508 137.53 62.9206 137.985 62.6602C138.444 62.3997 138.79 62.0636 139.022 61.6516C139.258 61.2397 139.377 60.8065 139.377 60.3519V58.8178C139.306 58.9031 139.15 58.9812 138.908 59.0522C138.671 59.1185 138.397 59.1777 138.084 59.2298C137.776 59.2771 137.476 59.3197 137.182 59.3576C136.893 59.3907 136.659 59.4192 136.479 59.4428C136.043 59.4996 135.636 59.592 135.257 59.7198C134.883 59.8429 134.58 60.0299 134.348 60.2809C134.121 60.5271 134.007 60.8633 134.007 61.2894C134.007 61.8718 134.223 62.3121 134.654 62.6104C135.089 62.904 135.641 63.0508 136.309 63.0508ZM148.857 53.3917V54.8121H143.203V53.3917H148.857ZM144.851 50.7781H146.527V61.1758C146.527 61.6493 146.596 62.0044 146.733 62.2411C146.875 62.4731 147.055 62.6294 147.273 62.7099C147.495 62.7856 147.73 62.8235 147.976 62.8235C148.161 62.8235 148.312 62.814 148.43 62.7951C148.549 62.7714 148.643 62.7525 148.714 62.7383L149.055 64.244C148.942 64.2866 148.783 64.3292 148.58 64.3718C148.376 64.4192 148.118 64.4428 147.805 64.4428C147.332 64.4428 146.868 64.341 146.413 64.1374C145.964 63.9338 145.589 63.6237 145.291 63.207C144.998 62.7904 144.851 62.2648 144.851 61.6303V50.7781ZM151.378 64.3008V53.3917H153.054V64.3008H151.378ZM152.23 51.5735C151.903 51.5735 151.622 51.4622 151.385 51.2397C151.153 51.0172 151.037 50.7496 151.037 50.4371C151.037 50.1246 151.153 49.8571 151.385 49.6346C151.622 49.4121 151.903 49.3008 152.23 49.3008C152.557 49.3008 152.836 49.4121 153.068 49.6346C153.305 49.8571 153.423 50.1246 153.423 50.4371C153.423 50.7496 153.305 51.0172 153.068 51.2397C152.836 51.4622 152.557 51.5735 152.23 51.5735ZM165.044 53.3917L161.01 64.3008H159.306L155.272 53.3917H157.09L160.101 62.0849H160.215L163.226 53.3917H165.044ZM171.44 64.5281C170.389 64.5281 169.482 64.296 168.72 63.832C167.962 63.3633 167.377 62.7099 166.966 61.8718C166.558 61.029 166.355 60.0489 166.355 58.9315C166.355 57.814 166.558 56.8292 166.966 55.9769C167.377 55.1199 167.95 54.4523 168.684 53.9741C169.423 53.4911 170.285 53.2496 171.27 53.2496C171.838 53.2496 172.399 53.3443 172.953 53.5337C173.507 53.7231 174.011 54.0309 174.466 54.457C174.92 54.8784 175.282 55.4371 175.552 56.1332C175.822 56.8292 175.957 57.6862 175.957 58.7042V59.4144H167.548V57.9656H174.252C174.252 57.35 174.129 56.8008 173.883 56.3178C173.642 55.8349 173.296 55.4537 172.846 55.1744C172.401 54.895 171.876 54.7553 171.27 54.7553C170.602 54.7553 170.024 54.921 169.537 55.2525C169.054 55.5792 168.682 56.0053 168.422 56.5309C168.161 57.0565 168.031 57.6199 168.031 58.2212V59.1871C168.031 60.011 168.173 60.7094 168.457 61.2823C168.746 61.8505 169.146 62.2837 169.657 62.582C170.169 62.8756 170.763 63.0224 171.44 63.0224C171.88 63.0224 172.278 62.9608 172.633 62.8377C172.993 62.7099 173.303 62.5205 173.564 62.2695C173.824 62.0138 174.025 61.6966 174.167 61.3178L175.787 61.7724C175.616 62.3216 175.33 62.8046 174.927 63.2212C174.525 63.6332 174.028 63.9551 173.436 64.1871C172.844 64.4144 172.179 64.5281 171.44 64.5281Z" fill="#222223"></path></svg>