<svg width="74" height="55" viewBox="0 0 74 55" fill="none" xmlns="http://www.w3.org/2000/svg">
<path d="M70.8153 0.437012H3.18472C1.42585 0.437012 0 1.86286 0 3.62173V51.2136C0 52.9725 1.42585 54.3983 3.18472 54.3983H70.8153C72.5742 54.3983 74 52.9725 74 51.2136V3.62173C74 1.86286 72.5742 0.437012 70.8153 0.437012Z" fill="#19486D"/>
<path fill-rule="evenodd" clip-rule="evenodd" d="M1.35938 51.2139C1.35938 52.2202 2.1781 53.0389 3.18433 53.0389H70.8149C71.8211 53.0389 72.6398 52.2202 72.6398 51.2139V14.3213H1.35938V51.2139Z" fill="white"/>
<path fill-rule="evenodd" clip-rule="evenodd" d="M3.18433 1.79688C2.1781 1.79688 1.35938 2.6156 1.35938 3.62183V12.9613H72.6398V3.62183C72.6398 2.6156 71.8211 1.79688 70.8149 1.79688H3.18433Z" fill="white"/>
<path d="M52.0294 36.7573H47.0197C46.6442 36.7573 46.3398 37.0617 46.3398 37.4372V42.4469C46.3398 42.8224 46.6442 43.1268 47.0197 43.1268H52.0294C52.4049 43.1268 52.7093 42.8224 52.7093 42.4469V37.4372C52.7093 37.0617 52.4049 36.7573 52.0294 36.7573Z" fill="#19486D"/>
<path d="M51.3481 38.1162H47.6982V41.7661H51.3481V38.1162Z" fill="white"/>
<path d="M42.0089 36.7573H36.9992C36.6237 36.7573 36.3193 37.0617 36.3193 37.4372V42.4469C36.3193 42.8224 36.6237 43.1268 36.9992 43.1268H42.0089C42.3844 43.1268 42.6888 42.8224 42.6888 42.4469V37.4372C42.6888 37.0617 42.3844 36.7573 42.0089 36.7573Z" fill="#19486D"/>
<path d="M41.3306 38.1162H37.6807V41.7661H41.3306V38.1162Z" fill="white"/>
<path fill-rule="evenodd" clip-rule="evenodd" d="M28.2329 43.1265C23.0243 43.1265 18.7861 38.8883 18.7861 33.6796C18.7861 28.471 23.0243 24.2328 28.2329 24.2328H43.8345V21.1555C43.8345 20.8921 43.9876 20.6502 44.2252 20.54C44.3168 20.4971 44.4142 20.4756 44.5144 20.4756C44.6732 20.4756 44.8278 20.5314 44.9509 20.633L52.4654 26.8951C52.6214 27.0254 52.7102 27.2143 52.7102 27.4176C52.7102 27.6208 52.6214 27.8097 52.4654 27.94L44.9509 34.2021C44.8293 34.3037 44.6732 34.3595 44.5144 34.3595C44.4142 34.3595 44.3168 34.3381 44.2267 34.2951C43.9891 34.1849 43.8359 33.943 43.8359 33.6796V30.6023H28.2344C26.5382 30.6023 25.157 31.9821 25.157 33.6796C25.157 35.3772 26.5382 36.757 28.2344 36.757H31.9916C32.3666 36.757 32.6715 37.0619 32.6715 37.4369V42.4466C32.6715 42.8216 32.3666 43.1265 31.9916 43.1265H28.2344H28.2329Z" fill="#19486D"/>
<path fill-rule="evenodd" clip-rule="evenodd" d="M28.2335 25.5922C23.7749 25.5922 20.1465 29.2207 20.1465 33.6793C20.1465 38.1379 23.7749 41.7663 28.2335 41.7663H31.3109V38.1164H28.2335C25.7874 38.1164 23.7964 36.1254 23.7964 33.6793C23.7964 31.2331 25.7874 29.2421 28.2335 29.2421H44.515C44.89 29.2421 45.1948 29.547 45.1948 29.922V32.2265L50.9674 27.4172L45.1948 22.6079V24.9124C45.1948 25.2874 44.89 25.5922 44.515 25.5922H28.2335Z" fill="#F29C49"/>
<path fill-rule="evenodd" clip-rule="evenodd" d="M68.3111 10.5647C68.1293 10.5647 67.9576 10.4931 67.8287 10.3643L65.8063 8.33896L63.7824 10.3657C63.6535 10.4931 63.4832 10.5647 63.3 10.5647C63.1168 10.5647 62.9465 10.4931 62.8176 10.3643C62.5543 10.0995 62.5543 9.66724 62.8191 9.40101L64.8444 7.37853L62.8176 5.35463C62.5543 5.08983 62.5543 4.65614 62.8176 4.38991C62.945 4.26252 63.1168 4.19238 63.2986 4.19238C63.4804 4.19238 63.6521 4.26395 63.7809 4.39277L65.8034 6.41811L67.8273 4.39134C67.9547 4.26395 68.1265 4.19238 68.3097 4.19238C68.4929 4.19238 68.6632 4.26395 68.792 4.39277C69.0554 4.65757 69.0554 5.08983 68.7906 5.35606L66.7653 7.37853L68.792 9.40244C69.0554 9.66724 69.0554 10.1009 68.792 10.3672C68.6646 10.4945 68.4929 10.5647 68.3111 10.5647Z" fill="#19486D"/>
<path fill-rule="evenodd" clip-rule="evenodd" d="M53.2814 8.05899C52.9064 8.05899 52.6016 7.75411 52.6016 7.3791C52.6016 7.00409 52.9064 6.69922 53.2814 6.69922H58.2911C58.6661 6.69922 58.971 7.00409 58.971 7.3791C58.971 7.75411 58.6661 8.05899 58.2911 8.05899H53.2814Z" fill="#19486D"/>
</svg>
